<?xml version="1.0" encoding="us-ascii" standalone="no"?><svg xmlns="http://www.w3.org/2000/svg" xmlns:xlink="http://www.w3.org/1999/xlink" contentStyleType="text/css" height="467px" preserveAspectRatio="none" style="width:745px;height:467px;background:#FFFFFF;" version="1.1" viewBox="0 0 745 467" width="745px" zoomAndPan="magnify"><defs/><g><text fill="#000000" font-family="sans-serif" font-size="14" font-weight="bold" lengthAdjust="spacing" textLength="286" x="222.5" y="24.5332">Domain Model - US 2.2.13 (Qualifications)</text><!--class StaffMemberQualification--><g id="elem_StaffMemberQualification"><rect codeLine="3" fill="#F1F1F1" height="146.75" id="StaffMemberQualification" rx="2.5" ry="2.5" style="stroke:#181818;stroke-width:0.5;" width="333" x="191" y="292.1094"/><ellipse cx="274.25" cy="313.4609" fill="#ADD1B2" rx="11" ry="11" style="stroke:#181818;stroke-width:1.0;"/><path d="M277.0156,309.3359 Q277.1719,309.1172 277.3594,309.0078 Q277.5469,308.8984 277.7656,308.8984 Q278.1406,308.8984 278.375,309.1641 Q278.6094,309.4141 278.6094,310.0234 L278.6094,311.4766 Q278.6094,312.0859 278.375,312.3516 Q278.1406,312.6172 277.7656,312.6172 Q277.4219,312.6172 277.2188,312.4141 Q277.0156,312.2266 276.9063,311.7109 Q276.8594,311.3516 276.6719,311.1641 Q276.3438,310.7891 275.7344,310.5703 Q275.125,310.3516 274.5,310.3516 Q273.7344,310.3516 273.0938,310.6797 Q272.4688,311.0078 271.9688,311.7578 Q271.4844,312.5078 271.4844,313.5391 L271.4844,314.6328 Q271.4844,315.8672 272.375,316.6953 Q273.2656,317.5078 274.8594,317.5078 Q275.7969,317.5078 276.4531,317.2578 Q276.8438,317.1016 277.2656,316.6641 Q277.5313,316.3984 277.6719,316.3203 Q277.8281,316.2422 278.0313,316.2422 Q278.3594,316.2422 278.6094,316.5078 Q278.875,316.7578 278.875,317.1016 Q278.875,317.4453 278.5313,317.8516 Q278.0313,318.4297 277.2344,318.7578 Q276.1563,319.2109 274.8594,319.2109 Q273.3438,319.2109 272.1406,318.5859 Q271.1563,318.0859 270.4688,317.0234 Q269.7813,315.9453 269.7813,314.6641 L269.7813,313.5078 Q269.7813,312.1797 270.3906,311.0391 Q271.0156,309.8828 272.1094,309.2734 Q273.2031,308.6484 274.4375,308.6484 Q275.1719,308.6484 275.8125,308.8203 Q276.4688,308.9766 277.0156,309.3359 Z " fill="#000000"/><text fill="#000000" font-family="sans-serif" font-size="12" font-style="italic" lengthAdjust="spacing" textLength="44" x="351.75" y="309.5664">&#171;Entity&#187;</text><text fill="#000000" font-family="sans-serif" font-size="14" lengthAdjust="spacing" textLength="158" x="294.75" y="326.7363">StaffMemberQualification</text><line style="stroke:#181818;stroke-width:0.5;" x1="192" x2="523" y1="334.8125" y2="334.8125"/><ellipse cx="202" cy="349.1172" fill="none" rx="3" ry="3" style="stroke:#038048;stroke-width:1.0;"/><text fill="#000000" font-family="sans-serif" font-size="14" lengthAdjust="spacing" textLength="136" x="211" y="353.3457">QualificationId : string</text><ellipse cx="202" cy="366.7266" fill="none" rx="3" ry="3" style="stroke:#038048;stroke-width:1.0;"/><text fill="#000000" font-family="sans-serif" font-size="14" lengthAdjust="spacing" textLength="83" x="211" y="370.9551">Name : string</text><ellipse cx="202" cy="384.3359" fill="none" rx="3" ry="3" style="stroke:#038048;stroke-width:1.0;"/><text fill="#000000" font-family="sans-serif" font-size="14" lengthAdjust="spacing" textLength="126" x="211" y="388.5645">Description : string?</text><line style="stroke:#181818;stroke-width:1.0;" x1="192" x2="523" y1="395.6406" y2="395.6406"/><ellipse cx="202" cy="409.9453" fill="#84BE84" rx="3" ry="3" style="stroke:#038048;stroke-width:1.0;"/><text fill="#000000" font-family="sans-serif" font-size="14" lengthAdjust="spacing" textLength="307" x="211" y="414.1738">StaffMemberQualification(id, name, description?)</text><ellipse cx="202" cy="427.5547" fill="#84BE84" rx="3" ry="3" style="stroke:#038048;stroke-width:1.0;"/><text fill="#000000" font-family="sans-serif" font-size="14" lengthAdjust="spacing" textLength="209" x="211" y="431.7832">Update(name, description?): void</text></g><!--class StaffMember--><g id="elem_StaffMember"><rect codeLine="12" fill="#F1F1F1" height="146.75" id="StaffMember" rx="2.5" ry="2.5" style="stroke:#181818;stroke-width:0.5;" width="319" x="7" y="45.6094"/><ellipse cx="122.25" cy="66.9609" fill="#ADD1B2" rx="11" ry="11" style="stroke:#181818;stroke-width:1.0;"/><path d="M125.0156,62.8359 Q125.1719,62.6172 125.3594,62.5078 Q125.5469,62.3984 125.7656,62.3984 Q126.1406,62.3984 126.375,62.6641 Q126.6094,62.9141 126.6094,63.5234 L126.6094,64.9766 Q126.6094,65.5859 126.375,65.8516 Q126.1406,66.1172 125.7656,66.1172 Q125.4219,66.1172 125.2188,65.9141 Q125.0156,65.7266 124.9063,65.2109 Q124.8594,64.8516 124.6719,64.6641 Q124.3438,64.2891 123.7344,64.0703 Q123.125,63.8516 122.5,63.8516 Q121.7344,63.8516 121.0938,64.1797 Q120.4688,64.5078 119.9688,65.2578 Q119.4844,66.0078 119.4844,67.0391 L119.4844,68.1328 Q119.4844,69.3672 120.375,70.1953 Q121.2656,71.0078 122.8594,71.0078 Q123.7969,71.0078 124.4531,70.7578 Q124.8438,70.6016 125.2656,70.1641 Q125.5313,69.8984 125.6719,69.8203 Q125.8281,69.7422 126.0313,69.7422 Q126.3594,69.7422 126.6094,70.0078 Q126.875,70.2578 126.875,70.6016 Q126.875,70.9453 126.5313,71.3516 Q126.0313,71.9297 125.2344,72.2578 Q124.1563,72.7109 122.8594,72.7109 Q121.3438,72.7109 120.1406,72.0859 Q119.1563,71.5859 118.4688,70.5234 Q117.7813,69.4453 117.7813,68.1641 L117.7813,67.0078 Q117.7813,65.6797 118.3906,64.5391 Q119.0156,63.3828 120.1094,62.7734 Q121.2031,62.1484 122.4375,62.1484 Q123.1719,62.1484 123.8125,62.3203 Q124.4688,62.4766 125.0156,62.8359 Z " fill="#000000"/><text fill="#000000" font-family="sans-serif" font-size="12" font-style="italic" lengthAdjust="spacing" textLength="44" x="160.75" y="63.0664">&#171;Entity&#187;</text><text fill="#000000" font-family="sans-serif" font-size="14" lengthAdjust="spacing" textLength="80" x="142.75" y="80.2363">StaffMember</text><line style="stroke:#181818;stroke-width:0.5;" x1="8" x2="325" y1="88.3125" y2="88.3125"/><ellipse cx="18" cy="102.6172" fill="none" rx="3" ry="3" style="stroke:#038048;stroke-width:1.0;"/><text fill="#000000" font-family="sans-serif" font-size="14" lengthAdjust="spacing" textLength="185" x="27" y="106.8457">MecanographicNumber : long</text><ellipse cx="18" cy="120.2266" fill="none" rx="3" ry="3" style="stroke:#038048;stroke-width:1.0;"/><text fill="#000000" font-family="sans-serif" font-size="14" lengthAdjust="spacing" textLength="117" x="27" y="124.4551">ShortName : string</text><ellipse cx="18" cy="137.8359" fill="none" rx="3" ry="3" style="stroke:#038048;stroke-width:1.0;"/><text fill="#000000" font-family="sans-serif" font-size="14" lengthAdjust="spacing" textLength="293" x="27" y="142.0645">Qualifications : List&lt;StaffMemberQualification&gt;</text><line style="stroke:#181818;stroke-width:1.0;" x1="8" x2="325" y1="149.1406" y2="149.1406"/><ellipse cx="18" cy="163.4453" fill="#84BE84" rx="3" ry="3" style="stroke:#038048;stroke-width:1.0;"/><text fill="#000000" font-family="sans-serif" font-size="14" lengthAdjust="spacing" textLength="174" x="27" y="167.6738">AddQualification(qual): void</text><ellipse cx="18" cy="181.0547" fill="#84BE84" rx="3" ry="3" style="stroke:#038048;stroke-width:1.0;"/><text fill="#000000" font-family="sans-serif" font-size="14" lengthAdjust="spacing" textLength="201" x="27" y="185.2832">RemoveQualification(qual): void</text></g><!--class PhysicalResource--><g id="elem_PhysicalResource"><rect codeLine="21" fill="#F1F1F1" height="129.1406" id="PhysicalResource" rx="2.5" ry="2.5" style="stroke:#181818;stroke-width:0.5;" width="377" x="361" y="54.6094"/><ellipse cx="488.75" cy="75.9609" fill="#ADD1B2" rx="11" ry="11" style="stroke:#181818;stroke-width:1.0;"/><path d="M491.5156,71.8359 Q491.6719,71.6172 491.8594,71.5078 Q492.0469,71.3984 492.2656,71.3984 Q492.6406,71.3984 492.875,71.6641 Q493.1094,71.9141 493.1094,72.5234 L493.1094,73.9766 Q493.1094,74.5859 492.875,74.8516 Q492.6406,75.1172 492.2656,75.1172 Q491.9219,75.1172 491.7188,74.9141 Q491.5156,74.7266 491.4063,74.2109 Q491.3594,73.8516 491.1719,73.6641 Q490.8438,73.2891 490.2344,73.0703 Q489.625,72.8516 489,72.8516 Q488.2344,72.8516 487.5938,73.1797 Q486.9688,73.5078 486.4688,74.2578 Q485.9844,75.0078 485.9844,76.0391 L485.9844,77.1328 Q485.9844,78.3672 486.875,79.1953 Q487.7656,80.0078 489.3594,80.0078 Q490.2969,80.0078 490.9531,79.7578 Q491.3438,79.6016 491.7656,79.1641 Q492.0313,78.8984 492.1719,78.8203 Q492.3281,78.7422 492.5313,78.7422 Q492.8594,78.7422 493.1094,79.0078 Q493.375,79.2578 493.375,79.6016 Q493.375,79.9453 493.0313,80.3516 Q492.5313,80.9297 491.7344,81.2578 Q490.6563,81.7109 489.3594,81.7109 Q487.8438,81.7109 486.6406,81.0859 Q485.6563,80.5859 484.9688,79.5234 Q484.2813,78.4453 484.2813,77.1641 L484.2813,76.0078 Q484.2813,74.6797 484.8906,73.5391 Q485.5156,72.3828 486.6094,71.7734 Q487.7031,71.1484 488.9375,71.1484 Q489.6719,71.1484 490.3125,71.3203 Q490.9688,71.4766 491.5156,71.8359 Z " fill="#000000"/><text fill="#000000" font-family="sans-serif" font-size="12" font-style="italic" lengthAdjust="spacing" textLength="44" x="543.75" y="72.0664">&#171;Entity&#187;</text><text fill="#000000" font-family="sans-serif" font-size="14" lengthAdjust="spacing" textLength="113" x="509.25" y="89.2363">PhysicalResource</text><line style="stroke:#181818;stroke-width:0.5;" x1="362" x2="737" y1="97.3125" y2="97.3125"/><ellipse cx="372" cy="111.6172" fill="none" rx="3" ry="3" style="stroke:#038048;stroke-width:1.0;"/><text fill="#000000" font-family="sans-serif" font-size="14" lengthAdjust="spacing" textLength="114" x="381" y="115.8457">ResourceId : Guid</text><ellipse cx="372" cy="129.2266" fill="none" rx="3" ry="3" style="stroke:#038048;stroke-width:1.0;"/><text fill="#000000" font-family="sans-serif" font-size="14" lengthAdjust="spacing" textLength="81" x="381" y="133.4551">Code : string</text><ellipse cx="372" cy="146.8359" fill="none" rx="3" ry="3" style="stroke:#038048;stroke-width:1.0;"/><text fill="#000000" font-family="sans-serif" font-size="14" lengthAdjust="spacing" textLength="351" x="381" y="151.0645">RequiredQualifications : List&lt;StaffMemberQualification&gt;</text><line style="stroke:#181818;stroke-width:1.0;" x1="362" x2="737" y1="158.1406" y2="158.1406"/><ellipse cx="372" cy="172.4453" fill="#84BE84" rx="3" ry="3" style="stroke:#038048;stroke-width:1.0;"/><text fill="#000000" font-family="sans-serif" font-size="14" lengthAdjust="spacing" textLength="242" x="381" y="176.6738">SetRequiredQualifications(quals): void</text></g><g id="elem_GMN5"><path d="M559.5,270.6094 L559.5,361.6094 L524.2,365.6094 L559.5,369.6094 L559.5,460.4766 A0,0 0 0 0 559.5,460.4766 L703.5,460.4766 A0,0 0 0 0 703.5,460.4766 L703.5,280.6094 L693.5,270.6094 L559.5,270.6094 A0,0 0 0 0 559.5,270.6094 " fill="#FEFFDD" style="stroke:#181818;stroke-width:0.5;"/><path d="M693.5,270.6094 L693.5,280.6094 L703.5,280.6094 L693.5,270.6094 " fill="#FEFFDD" style="stroke:#181818;stroke-width:0.5;"/><text fill="#000000" font-family="sans-serif" font-size="13" lengthAdjust="spacing" textLength="85" x="565.5" y="289.1045">QualificationId:</text><text fill="#000000" font-family="sans-serif" font-size="13" lengthAdjust="spacing" textLength="87" x="565.5" y="305.4561">- Alphanumeric</text><text fill="#000000" font-family="sans-serif" font-size="13" lengthAdjust="spacing" textLength="116" x="565.5" y="321.8076">- Max 15 characters</text><text fill="#000000" font-family="sans-serif" font-size="13" lengthAdjust="spacing" textLength="114" x="565.5" y="338.1592">- Stored upper-case</text><text fill="#000000" font-family="sans-serif" font-size="13" lengthAdjust="spacing" textLength="48" x="565.5" y="354.5107">- Unique</text><text fill="#000000" font-family="sans-serif" font-size="13" lengthAdjust="spacing" textLength="68" x="565.5" y="370.8623">- Immutable</text><text fill="#000000" font-family="sans-serif" font-size="13" lengthAdjust="spacing" textLength="4" x="565.5" y="387.2139">&#160;</text><text fill="#000000" font-family="sans-serif" font-size="13" lengthAdjust="spacing" textLength="38" x="565.5" y="403.5654">Name:</text><text fill="#000000" font-family="sans-serif" font-size="13" lengthAdjust="spacing" textLength="102" x="565.5" y="419.917">- At least 2 words</text><text fill="#000000" font-family="sans-serif" font-size="13" lengthAdjust="spacing" textLength="123" x="565.5" y="436.2686">- Max 150 characters</text><text fill="#000000" font-family="sans-serif" font-size="13" lengthAdjust="spacing" textLength="59" x="565.5" y="452.6201">- Required</text></g><!--link StaffMember to StaffMemberQualification--><g id="link_StaffMember_StaffMemberQualification"><path codeLine="43" d="M223.29,192.8094 C247.7,224.0594 276.18,260.5094 300.6,291.7694 " fill="none" id="StaffMember-StaffMemberQualification" style="stroke:#181818;stroke-width:1.0;"/><text fill="#000000" font-family="sans-serif" font-size="13" lengthAdjust="spacing" textLength="31" x="257.5" y="237.1045">holds</text><text fill="#000000" font-family="sans-serif" font-size="13" lengthAdjust="spacing" textLength="20" x="207.6035" y="213.8639">0..*</text><text fill="#000000" font-family="sans-serif" font-size="13" lengthAdjust="spacing" textLength="20" x="274.0145" y="281.238">0..*</text></g><!--link PhysicalResource to StaffMemberQualification--><g id="link_PhysicalResource_StaffMemberQualification"><path codeLine="44" d="M499.56,183.7094 C473.56,216.8194 441.65,257.4494 414.67,291.8094 " fill="none" id="PhysicalResource-StaffMemberQualification" style="stroke:#181818;stroke-width:1.0;"/><text fill="#000000" font-family="sans-serif" font-size="13" lengthAdjust="spacing" textLength="46" x="466.5" y="237.1045">requires</text><text fill="#000000" font-family="sans-serif" font-size="13" lengthAdjust="spacing" textLength="20" x="473.0041" y="205.1567">0..*</text><text fill="#000000" font-family="sans-serif" font-size="13" lengthAdjust="spacing" textLength="20" x="399.3133" y="281.2819">0..*</text></g><!--SRC=[dLFTJi8m5BxVKvnu1If4CDui14BK61CXoi83rFR0cdJjQ4zLOdntkygK2RlGP1Vj-Sw-dvwM92c46rCmgM5c12hemJA3ON_O7rn2vyap9LUICv96kswISCMSWupOQZN3uXbjemD6erjDahRZCRmd06VGWEy5fE38IhsEu9mLsApSeEDMbf6h1YO1wVKYtARRaU8ST60x1_73CEd6dvQbO8IT8t0ABqQAvED8hCCaC-HCcxLbPIxvtCUc59JPESzoO-amKFC00_OW7OtQSen_eaw5Q4RSX5tjk6fOO65UiBtdEzLZldMXGItG6Myv7aQhaJYVExyJk0xNeHbcWHilBOf_XygGZdD4vsxFkZQ4OEKw9p2hrha7qbyNBAt4OAhAd6bVe9Ky5cRi3GPNm7Dc6IUqBbOpCi49-B94s-FCOQmkjTpuh-LzKNXYpwhQXQyQxqw0G25p14DuDLQuFP6BtofruWIrW2fNaknVj9EBVl_q99nGlMfzN2daHWMjWu7-XS9-kN799m00]--></g></svg>