<?xml version="1.0" encoding="us-ascii" standalone="no"?><svg xmlns="http://www.w3.org/2000/svg" xmlns:xlink="http://www.w3.org/1999/xlink" contentStyleType="text/css" height="919px" preserveAspectRatio="none" style="width:1351px;height:919px;background:#FFFFFF;" version="1.1" viewBox="0 0 1351 919" width="1351px" zoomAndPan="magnify"><defs/><g><text fill="#000000" font-family="sans-serif" font-size="14" font-weight="bold" lengthAdjust="spacing" textLength="361" x="496" y="29.5332">Sequence Diagram - Create Qualification (US 2.2.13)</text><rect fill="#FFFFFF" height="657.6094" style="stroke:#181818;stroke-width:1.0;" width="10" x="443" y="169.9219"/><rect fill="#FFFFFF" height="91.0547" style="stroke:#181818;stroke-width:1.0;" width="10" x="832" y="401.8672"/><rect fill="#FFFFFF" height="74.7031" style="stroke:#181818;stroke-width:1.0;" width="10" x="832" y="684.125"/><rect fill="none" height="548.9063" style="stroke:#000000;stroke-width:1.5;" width="1334" x="10" y="271.625"/><rect fill="none" height="305.6094" style="stroke:#000000;stroke-width:1.5;" width="1314" x="20" y="507.9219"/><line style="stroke:#181818;stroke-width:0.5;stroke-dasharray:5.0,5.0;" x1="91" x2="91" y1="121.2188" y2="837.5313"/><line style="stroke:#181818;stroke-width:0.5;stroke-dasharray:5.0,5.0;" x1="447.5" x2="447.5" y1="121.2188" y2="837.5313"/><line style="stroke:#181818;stroke-width:0.5;stroke-dasharray:5.0,5.0;" x1="837" x2="837" y1="121.2188" y2="837.5313"/><line style="stroke:#181818;stroke-width:0.5;stroke-dasharray:5.0,5.0;" x1="1043" x2="1043" y1="620.1172" y2="837.5313"/><line style="stroke:#181818;stroke-width:0.5;stroke-dasharray:5.0,5.0;" x1="1262" x2="1262" y1="121.2188" y2="837.5313"/><text fill="#000000" font-family="sans-serif" font-size="14" lengthAdjust="spacing" textLength="116" x="30" y="118.1426">Logistics Operator</text><ellipse cx="91" cy="52.1094" fill="#E2E2F0" rx="8" ry="8" style="stroke:#181818;stroke-width:0.5;"/><path d="M91,60.1094 L91,87.1094 M78,68.1094 L104,68.1094 M91,87.1094 L78,102.1094 M91,87.1094 L104,102.1094 " fill="none" style="stroke:#181818;stroke-width:0.5;"/><text fill="#000000" font-family="sans-serif" font-size="14" lengthAdjust="spacing" textLength="116" x="30" y="851.0645">Logistics Operator</text><ellipse cx="91" cy="862.6406" fill="#E2E2F0" rx="8" ry="8" style="stroke:#181818;stroke-width:0.5;"/><path d="M91,870.6406 L91,897.6406 M78,878.6406 L104,878.6406 M91,897.6406 L78,912.6406 M91,897.6406 L104,912.6406 " fill="none" style="stroke:#181818;stroke-width:0.5;"/><rect fill="#E2E2F0" height="31.6094" rx="2.5" ry="2.5" style="stroke:#181818;stroke-width:0.5;" width="165" x="365.5" y="88.6094"/><text fill="#000000" font-family="sans-serif" font-size="14" lengthAdjust="spacing" textLength="151" x="372.5" y="110.1426">:QualificationsController</text><rect fill="#E2E2F0" height="31.6094" rx="2.5" ry="2.5" style="stroke:#181818;stroke-width:0.5;" width="165" x="365.5" y="836.5313"/><text fill="#000000" font-family="sans-serif" font-size="14" lengthAdjust="spacing" textLength="151" x="372.5" y="858.0645">:QualificationsController</text><rect fill="#E2E2F0" height="31.6094" rx="2.5" ry="2.5" style="stroke:#181818;stroke-width:0.5;" width="110" x="782" y="88.6094"/><text fill="#000000" font-family="sans-serif" font-size="14" lengthAdjust="spacing" textLength="96" x="789" y="110.1426">:PortDbContext</text><rect fill="#E2E2F0" height="31.6094" rx="2.5" ry="2.5" style="stroke:#181818;stroke-width:0.5;" width="110" x="782" y="836.5313"/><text fill="#000000" font-family="sans-serif" font-size="14" lengthAdjust="spacing" textLength="96" x="789" y="858.0645">:PortDbContext</text><rect fill="#E2E2F0" height="31.6094" rx="2.5" ry="2.5" style="stroke:#181818;stroke-width:0.5;" width="251" x="918" y="836.5313"/><text fill="#000000" font-family="sans-serif" font-size="14" lengthAdjust="spacing" textLength="237" x="925" y="858.0645">qualification:StaffMemberQualification</text><text fill="#000000" font-family="sans-serif" font-size="14" lengthAdjust="spacing" textLength="118" x="1200" y="118.1426">:EFCore InMemory</text><path d="M1244,67.6094 C1244,57.6094 1262,57.6094 1262,57.6094 C1262,57.6094 1280,57.6094 1280,67.6094 L1280,93.6094 C1280,103.6094 1262,103.6094 1262,103.6094 C1262,103.6094 1244,103.6094 1244,93.6094 L1244,67.6094 " fill="#E2E2F0" style="stroke:#181818;stroke-width:1.5;"/><path d="M1244,67.6094 C1244,77.6094 1262,77.6094 1262,77.6094 C1262,77.6094 1280,77.6094 1280,67.6094 " fill="none" style="stroke:#181818;stroke-width:1.5;"/><text fill="#000000" font-family="sans-serif" font-size="14" lengthAdjust="spacing" textLength="118" x="1200" y="851.0645">:EFCore InMemory</text><path d="M1244,864.1406 C1244,854.1406 1262,854.1406 1262,854.1406 C1262,854.1406 1280,854.1406 1280,864.1406 L1280,890.1406 C1280,900.1406 1262,900.1406 1262,900.1406 C1262,900.1406 1244,900.1406 1244,890.1406 L1244,864.1406 " fill="#E2E2F0" style="stroke:#181818;stroke-width:1.5;"/><path d="M1244,864.1406 C1244,874.1406 1262,874.1406 1262,874.1406 C1262,874.1406 1280,874.1406 1280,864.1406 " fill="none" style="stroke:#181818;stroke-width:1.5;"/><rect fill="#FFFFFF" height="657.6094" style="stroke:#181818;stroke-width:1.0;" width="10" x="443" y="169.9219"/><rect fill="#FFFFFF" height="91.0547" style="stroke:#181818;stroke-width:1.0;" width="10" x="832" y="401.8672"/><rect fill="#FFFFFF" height="74.7031" style="stroke:#181818;stroke-width:1.0;" width="10" x="832" y="684.125"/><polygon fill="#181818" points="431,165.9219,441,169.9219,431,173.9219,435,169.9219" style="stroke:#181818;stroke-width:1.0;"/><line style="stroke:#181818;stroke-width:1.0;" x1="91" x2="437" y1="169.9219" y2="169.9219"/><text fill="#000000" font-family="sans-serif" font-size="13" lengthAdjust="spacing" textLength="139" x="98" y="148.7139">POST /api/qualifications</text><text fill="#000000" font-family="sans-serif" font-size="13" lengthAdjust="spacing" textLength="333" x="98" y="165.0654">CreateQualificationDto(QualificationId, Name, Description)</text><line style="stroke:#181818;stroke-width:1.0;" x1="453" x2="495" y1="200.2734" y2="200.2734"/><line style="stroke:#181818;stroke-width:1.0;" x1="495" x2="495" y1="200.2734" y2="213.2734"/><line style="stroke:#181818;stroke-width:1.0;" x1="454" x2="495" y1="213.2734" y2="213.2734"/><polygon fill="#181818" points="464,209.2734,454,213.2734,464,217.2734,460,213.2734" style="stroke:#181818;stroke-width:1.0;"/><text fill="#000000" font-family="sans-serif" font-size="13" lengthAdjust="spacing" textLength="194" x="460" y="195.417">Validate QualificationId not empty</text><line style="stroke:#181818;stroke-width:1.0;" x1="453" x2="495" y1="243.625" y2="243.625"/><line style="stroke:#181818;stroke-width:1.0;" x1="495" x2="495" y1="243.625" y2="256.625"/><line style="stroke:#181818;stroke-width:1.0;" x1="454" x2="495" y1="256.625" y2="256.625"/><polygon fill="#181818" points="464,252.625,454,256.625,464,260.625,460,256.625" style="stroke:#181818;stroke-width:1.0;"/><text fill="#000000" font-family="sans-serif" font-size="13" lengthAdjust="spacing" textLength="147" x="460" y="238.7686">Validate Name not empty</text><path d="M10,271.625 L71,271.625 L71,279.9766 L61,289.9766 L10,289.9766 L10,271.625 " fill="#EEEEEE" style="stroke:#000000;stroke-width:1.5;"/><rect fill="none" height="548.9063" style="stroke:#000000;stroke-width:1.5;" width="1334" x="10" y="271.625"/><text fill="#000000" font-family="sans-serif" font-size="13" font-weight="bold" lengthAdjust="spacing" textLength="16" x="25" y="286.1201">alt</text><text fill="#000000" font-family="sans-serif" font-size="11" font-weight="bold" lengthAdjust="spacing" textLength="86" x="86" y="285.0439">[validation fails]</text><polygon fill="#181818" points="102,308.3281,92,312.3281,102,316.3281,98,312.3281" style="stroke:#181818;stroke-width:1.0;"/><line style="stroke:#181818;stroke-width:1.0;stroke-dasharray:2.0,2.0;" x1="96" x2="442" y1="312.3281" y2="312.3281"/><text fill="#000000" font-family="sans-serif" font-size="13" lengthAdjust="spacing" textLength="100" x="108" y="307.4717">400 Bad Request</text><line style="stroke:#000000;stroke-width:1.0;stroke-dasharray:2.0,2.0;" x1="10" x2="1344" y1="321.3281" y2="321.3281"/><text fill="#000000" font-family="sans-serif" font-size="11" font-weight="bold" lengthAdjust="spacing" textLength="54" x="15" y="332.7471">[proceed]</text><line style="stroke:#181818;stroke-width:1.0;" x1="453" x2="495" y1="358.5156" y2="358.5156"/><line style="stroke:#181818;stroke-width:1.0;" x1="495" x2="495" y1="358.5156" y2="371.5156"/><line style="stroke:#181818;stroke-width:1.0;" x1="454" x2="495" y1="371.5156" y2="371.5156"/><polygon fill="#181818" points="464,367.5156,454,371.5156,464,375.5156,460,371.5156" style="stroke:#181818;stroke-width:1.0;"/><text fill="#000000" font-family="sans-serif" font-size="13" lengthAdjust="spacing" textLength="250" x="460" y="353.6592">Normalize QualificationId.ToUpperInvariant()</text><polygon fill="#181818" points="820,397.8672,830,401.8672,820,405.8672,824,401.8672" style="stroke:#181818;stroke-width:1.0;"/><line style="stroke:#181818;stroke-width:1.0;" x1="453" x2="826" y1="401.8672" y2="401.8672"/><text fill="#000000" font-family="sans-serif" font-size="13" lengthAdjust="spacing" textLength="360" x="460" y="397.0107">Qualifications.AnyAsync(q =&gt; q.QualificationId == normalized)</text><polygon fill="#181818" points="1250,428.2188,1260,432.2188,1250,436.2188,1254,432.2188" style="stroke:#181818;stroke-width:1.0;"/><line style="stroke:#181818;stroke-width:1.0;" x1="842" x2="1256" y1="432.2188" y2="432.2188"/><text fill="#000000" font-family="sans-serif" font-size="13" lengthAdjust="spacing" textLength="396" x="849" y="427.3623">SELECT COUNT(*) FROM Qualifications WHERE QualificationId = ?</text><polygon fill="#181818" points="853,458.5703,843,462.5703,853,466.5703,849,462.5703" style="stroke:#181818;stroke-width:1.0;"/><line style="stroke:#181818;stroke-width:1.0;stroke-dasharray:2.0,2.0;" x1="847" x2="1261" y1="462.5703" y2="462.5703"/><text fill="#000000" font-family="sans-serif" font-size="13" lengthAdjust="spacing" textLength="32" x="859" y="457.7139">count</text><polygon fill="#181818" points="464,488.9219,454,492.9219,464,496.9219,460,492.9219" style="stroke:#181818;stroke-width:1.0;"/><line style="stroke:#181818;stroke-width:1.0;stroke-dasharray:2.0,2.0;" x1="458" x2="836" y1="492.9219" y2="492.9219"/><text fill="#000000" font-family="sans-serif" font-size="13" lengthAdjust="spacing" textLength="71" x="470" y="488.0654">exists (bool)</text><path d="M20,507.9219 L81,507.9219 L81,516.2734 L71,526.2734 L20,526.2734 L20,507.9219 " fill="#EEEEEE" style="stroke:#000000;stroke-width:1.5;"/><rect fill="none" height="305.6094" style="stroke:#000000;stroke-width:1.5;" width="1314" x="20" y="507.9219"/><text fill="#000000" font-family="sans-serif" font-size="13" font-weight="bold" lengthAdjust="spacing" textLength="16" x="35" y="522.417">alt</text><text fill="#000000" font-family="sans-serif" font-size="11" font-weight="bold" lengthAdjust="spacing" textLength="42" x="96" y="521.3408">[exists]</text><polygon fill="#181818" points="102,560.9766,92,564.9766,102,568.9766,98,564.9766" style="stroke:#181818;stroke-width:1.0;"/><line style="stroke:#181818;stroke-width:1.0;stroke-dasharray:2.0,2.0;" x1="96" x2="442" y1="564.9766" y2="564.9766"/><text fill="#000000" font-family="sans-serif" font-size="13" lengthAdjust="spacing" textLength="68" x="108" y="543.7686">409 Conflict</text><text fill="#000000" font-family="sans-serif" font-size="13" lengthAdjust="spacing" textLength="264" x="108" y="560.1201">"A qualification with this code already exists."</text><line style="stroke:#000000;stroke-width:1.0;stroke-dasharray:2.0,2.0;" x1="20" x2="1334" y1="573.9766" y2="573.9766"/><text fill="#000000" font-family="sans-serif" font-size="11" font-weight="bold" lengthAdjust="spacing" textLength="33" x="25" y="585.3955">[valid]</text><polygon fill="#181818" points="906,607.1641,916,611.1641,906,615.1641,910,611.1641" style="stroke:#181818;stroke-width:1.0;"/><line style="stroke:#181818;stroke-width:1.0;" x1="453" x2="912" y1="611.1641" y2="611.1641"/><text fill="#000000" font-family="sans-serif" font-size="13" lengthAdjust="spacing" textLength="441" x="460" y="606.3076">new StaffMemberQualification(dto.QualificationId, dto.Name, dto.Description)</text><rect fill="#E2E2F0" height="31.6094" rx="2.5" ry="2.5" style="stroke:#181818;stroke-width:0.5;" width="251" x="918" y="588.8125"/><text fill="#000000" font-family="sans-serif" font-size="14" lengthAdjust="spacing" textLength="237" x="925" y="610.3457">qualification:StaffMemberQualification</text><polygon fill="#181818" points="825,649.7734,835,653.7734,825,657.7734,829,653.7734" style="stroke:#181818;stroke-width:1.0;"/><line style="stroke:#181818;stroke-width:1.0;" x1="453" x2="831" y1="653.7734" y2="653.7734"/><text fill="#000000" font-family="sans-serif" font-size="13" lengthAdjust="spacing" textLength="181" x="460" y="648.917">Qualifications.Add(qualification)</text><polygon fill="#181818" points="820,680.125,830,684.125,820,688.125,824,684.125" style="stroke:#181818;stroke-width:1.0;"/><line style="stroke:#181818;stroke-width:1.0;" x1="453" x2="826" y1="684.125" y2="684.125"/><text fill="#000000" font-family="sans-serif" font-size="13" lengthAdjust="spacing" textLength="124" x="460" y="679.2686">SaveChangesAsync()</text><polygon fill="#181818" points="1250,710.4766,1260,714.4766,1250,718.4766,1254,714.4766" style="stroke:#181818;stroke-width:1.0;"/><line style="stroke:#181818;stroke-width:1.0;" x1="842" x2="1256" y1="714.4766" y2="714.4766"/><text fill="#000000" font-family="sans-serif" font-size="13" lengthAdjust="spacing" textLength="161" x="849" y="709.6201">INSERT INTO Qualifications</text><polygon fill="#181818" points="853,740.8281,843,744.8281,853,748.8281,849,744.8281" style="stroke:#181818;stroke-width:1.0;"/><line style="stroke:#181818;stroke-width:1.0;stroke-dasharray:2.0,2.0;" x1="847" x2="1261" y1="744.8281" y2="744.8281"/><text fill="#000000" font-family="sans-serif" font-size="13" lengthAdjust="spacing" textLength="14" x="859" y="739.9717">ok</text><polygon fill="#181818" points="464,754.8281,454,758.8281,464,762.8281,460,758.8281" style="stroke:#181818;stroke-width:1.0;"/><line style="stroke:#181818;stroke-width:1.0;stroke-dasharray:2.0,2.0;" x1="458" x2="836" y1="758.8281" y2="758.8281"/><polygon fill="#181818" points="102,801.5313,92,805.5313,102,809.5313,98,805.5313" style="stroke:#181818;stroke-width:1.0;"/><line style="stroke:#181818;stroke-width:1.0;stroke-dasharray:2.0,2.0;" x1="96" x2="442" y1="805.5313" y2="805.5313"/><text fill="#000000" font-family="sans-serif" font-size="13" lengthAdjust="spacing" textLength="70" x="108" y="784.3232">201 Created</text><text fill="#000000" font-family="sans-serif" font-size="13" lengthAdjust="spacing" textLength="91" x="108" y="800.6748">QualificationDto</text><!--SRC=[ZLJ1Sjem4BtxAtOu6IOuXFPIPg03nfaoaq2AJNlX8gm5D3MIaGK9_VfADWNB9caFZ95M-zxksoSffXA44FS7v372c96D93jeWo-HA8Jl1vAmDOk9OeA3kmYXwtMzXqzDno6n4X8QJsB3CiNY36OfIgBt6a2k2oSbKaTPIhY2Hi_2otp1bHH9WaNETLd9UX5IZLScZ6ygFtfPsIVtPVXUgCXw_Oox5KgBDqUmTXnA55cH33LPyEWBYJ3XEbF8Kq4tSfo_7K5xKAeKUl0o2oEu9ocxj-Yp9Iz4j9Z6IhZMneJUmPJiy0x6cCMIfMQpQTHbHpE1aYXEYRPQn0yDIMiJcr3WGW7kKdNwhsnJIId58Oc2On4q1bWJbcGEb9FR6kiYJGy-Tpem8XJcnbAPSZ3HegPIn8YqabYfOIhaJZFzhhNWHMAHQeO9FnB9z9pTfaQgWLqieR5ictb3VXfc9nwxU-WFOEzLDUhtTSzdTch0B-fVVGOb0iCsqZHXy1Ju4VYpnJHoMqrudC-UAzpmyrim3sfJwSDNWpZAvIjN7ei3hv1LXS8tVU4oS5T29APOYZVBDMtewHMdzUBZgNqnqNN2OhNaZI5OJePNfhQWjYpJvL7KiDhNz7I6zXeQF1zpRfGQqw3oYBHQcf3ZAxntFLsgX5Ux8sQpk2VcdtLN3ECDseyCGQbhjTZyHtv8ZkXl2TzWLZYfIBWf_2sdJAPXC8_q9vfLQYaIwaOGlwfGbW_ou3kJlw66FUvkv-7ymDCbhpvFPfgSEkPNmYyn_m40]--></g></svg>