<?xml version="1.0" encoding="us-ascii" standalone="no"?><svg xmlns="http://www.w3.org/2000/svg" xmlns:xlink="http://www.w3.org/1999/xlink" contentStyleType="text/css" height="592px" preserveAspectRatio="none" style="width:1295px;height:592px;background:#FFFFFF;" version="1.1" viewBox="0 0 1295 592" width="1295px" zoomAndPan="magnify"><defs/><g><text fill="#000000" font-family="sans-serif" font-size="14" font-weight="bold" lengthAdjust="spacing" textLength="285" x="498.25" y="24.5332">Class Diagram - US 2.2.13 (Qualifications)</text><!--class QualificationsController--><g id="elem_QualificationsController"><rect codeLine="3" fill="#F1F1F1" height="136.0469" id="QualificationsController" rx="2.5" ry="2.5" style="stroke:#181818;stroke-width:0.5;" width="457" x="179" y="45.6094"/><ellipse cx="329.75" cy="61.6094" fill="#ADD1B2" rx="11" ry="11" style="stroke:#181818;stroke-width:1.0;"/><path d="M332.5156,57.4844 Q332.6719,57.2656 332.8594,57.1563 Q333.0469,57.0469 333.2656,57.0469 Q333.6406,57.0469 333.875,57.3125 Q334.1094,57.5625 334.1094,58.1719 L334.1094,59.625 Q334.1094,60.2344 333.875,60.5 Q333.6406,60.7656 333.2656,60.7656 Q332.9219,60.7656 332.7188,60.5625 Q332.5156,60.375 332.4063,59.8594 Q332.3594,59.5 332.1719,59.3125 Q331.8438,58.9375 331.2344,58.7188 Q330.625,58.5 330,58.5 Q329.2344,58.5 328.5938,58.8281 Q327.9688,59.1563 327.4688,59.9063 Q326.9844,60.6563 326.9844,61.6875 L326.9844,62.7813 Q326.9844,64.0156 327.875,64.8438 Q328.7656,65.6563 330.3594,65.6563 Q331.2969,65.6563 331.9531,65.4063 Q332.3438,65.25 332.7656,64.8125 Q333.0313,64.5469 333.1719,64.4688 Q333.3281,64.3906 333.5313,64.3906 Q333.8594,64.3906 334.1094,64.6563 Q334.375,64.9063 334.375,65.25 Q334.375,65.5938 334.0313,66 Q333.5313,66.5781 332.7344,66.9063 Q331.6563,67.3594 330.3594,67.3594 Q328.8438,67.3594 327.6406,66.7344 Q326.6563,66.2344 325.9688,65.1719 Q325.2813,64.0938 325.2813,62.8125 L325.2813,61.6563 Q325.2813,60.3281 325.8906,59.1875 Q326.5156,58.0313 327.6094,57.4219 Q328.7031,56.7969 329.9375,56.7969 Q330.6719,56.7969 331.3125,56.9688 Q331.9688,57.125 332.5156,57.4844 Z " fill="#000000"/><text fill="#000000" font-family="sans-serif" font-size="14" lengthAdjust="spacing" textLength="147" x="350.25" y="67.3379">QualificationsController</text><line style="stroke:#181818;stroke-width:0.5;" x1="180" x2="635" y1="77.6094" y2="77.6094"/><rect fill="none" height="6" style="stroke:#C82930;stroke-width:1.0;" width="6" x="187" y="88.9141"/><text fill="#000000" font-family="sans-serif" font-size="14" lengthAdjust="spacing" textLength="129" x="199" y="96.1426">_ctx : PortDbContext</text><line style="stroke:#181818;stroke-width:1.0;" x1="180" x2="635" y1="103.2188" y2="103.2188"/><ellipse cx="190" cy="117.5234" fill="#84BE84" rx="3" ry="3" style="stroke:#038048;stroke-width:1.0;"/><text fill="#000000" font-family="sans-serif" font-size="14" lengthAdjust="spacing" textLength="365" x="199" y="121.752">Create(dto: CreateQualificationDto) : Task&lt;IActionResult&gt;</text><ellipse cx="190" cy="135.1328" fill="#84BE84" rx="3" ry="3" style="stroke:#038048;stroke-width:1.0;"/><text fill="#000000" font-family="sans-serif" font-size="14" lengthAdjust="spacing" textLength="330" x="199" y="139.3613">Get(id?: string, name?: string) : Task&lt;IActionResult&gt;</text><ellipse cx="190" cy="152.7422" fill="#84BE84" rx="3" ry="3" style="stroke:#038048;stroke-width:1.0;"/><text fill="#000000" font-family="sans-serif" font-size="14" lengthAdjust="spacing" textLength="431" x="199" y="156.9707">Update(id: string, dto: UpdateQualificationDto) : Task&lt;IActionResult&gt;</text><ellipse cx="190" cy="170.3516" fill="#84BE84" rx="3" ry="3" style="stroke:#038048;stroke-width:1.0;"/><text fill="#000000" font-family="sans-serif" font-size="14" lengthAdjust="spacing" textLength="246" x="199" y="174.5801">Delete(id: string) : Task&lt;IActionResult&gt;</text></g><!--class StaffMemberQualification--><g id="elem_StaffMemberQualification"><rect codeLine="12" fill="#F1F1F1" height="146.75" id="StaffMemberQualification" rx="2.5" ry="2.5" style="stroke:#181818;stroke-width:0.5;" width="333" x="628" y="438.6094"/><ellipse cx="711.25" cy="459.9609" fill="#ADD1B2" rx="11" ry="11" style="stroke:#181818;stroke-width:1.0;"/><path d="M714.0156,455.8359 Q714.1719,455.6172 714.3594,455.5078 Q714.5469,455.3984 714.7656,455.3984 Q715.1406,455.3984 715.375,455.6641 Q715.6094,455.9141 715.6094,456.5234 L715.6094,457.9766 Q715.6094,458.5859 715.375,458.8516 Q715.1406,459.1172 714.7656,459.1172 Q714.4219,459.1172 714.2188,458.9141 Q714.0156,458.7266 713.9063,458.2109 Q713.8594,457.8516 713.6719,457.6641 Q713.3438,457.2891 712.7344,457.0703 Q712.125,456.8516 711.5,456.8516 Q710.7344,456.8516 710.0938,457.1797 Q709.4688,457.5078 708.9688,458.2578 Q708.4844,459.0078 708.4844,460.0391 L708.4844,461.1328 Q708.4844,462.3672 709.375,463.1953 Q710.2656,464.0078 711.8594,464.0078 Q712.7969,464.0078 713.4531,463.7578 Q713.8438,463.6016 714.2656,463.1641 Q714.5313,462.8984 714.6719,462.8203 Q714.8281,462.7422 715.0313,462.7422 Q715.3594,462.7422 715.6094,463.0078 Q715.875,463.2578 715.875,463.6016 Q715.875,463.9453 715.5313,464.3516 Q715.0313,464.9297 714.2344,465.2578 Q713.1563,465.7109 711.8594,465.7109 Q710.3438,465.7109 709.1406,465.0859 Q708.1563,464.5859 707.4688,463.5234 Q706.7813,462.4453 706.7813,461.1641 L706.7813,460.0078 Q706.7813,458.6797 707.3906,457.5391 Q708.0156,456.3828 709.1094,455.7734 Q710.2031,455.1484 711.4375,455.1484 Q712.1719,455.1484 712.8125,455.3203 Q713.4688,455.4766 714.0156,455.8359 Z " fill="#000000"/><text fill="#000000" font-family="sans-serif" font-size="12" font-style="italic" lengthAdjust="spacing" textLength="44" x="788.75" y="456.0664">&#171;Entity&#187;</text><text fill="#000000" font-family="sans-serif" font-size="14" lengthAdjust="spacing" textLength="158" x="731.75" y="473.2363">StaffMemberQualification</text><line style="stroke:#181818;stroke-width:0.5;" x1="629" x2="960" y1="481.3125" y2="481.3125"/><ellipse cx="639" cy="495.6172" fill="none" rx="3" ry="3" style="stroke:#038048;stroke-width:1.0;"/><text fill="#000000" font-family="sans-serif" font-size="14" lengthAdjust="spacing" textLength="136" x="648" y="499.8457">QualificationId : string</text><ellipse cx="639" cy="513.2266" fill="none" rx="3" ry="3" style="stroke:#038048;stroke-width:1.0;"/><text fill="#000000" font-family="sans-serif" font-size="14" lengthAdjust="spacing" textLength="83" x="648" y="517.4551">Name : string</text><ellipse cx="639" cy="530.8359" fill="none" rx="3" ry="3" style="stroke:#038048;stroke-width:1.0;"/><text fill="#000000" font-family="sans-serif" font-size="14" lengthAdjust="spacing" textLength="126" x="648" y="535.0645">Description : string?</text><line style="stroke:#181818;stroke-width:1.0;" x1="629" x2="960" y1="542.1406" y2="542.1406"/><ellipse cx="639" cy="556.4453" fill="#84BE84" rx="3" ry="3" style="stroke:#038048;stroke-width:1.0;"/><text fill="#000000" font-family="sans-serif" font-size="14" lengthAdjust="spacing" textLength="307" x="648" y="560.6738">StaffMemberQualification(id, name, description?)</text><ellipse cx="639" cy="574.0547" fill="#84BE84" rx="3" ry="3" style="stroke:#038048;stroke-width:1.0;"/><text fill="#000000" font-family="sans-serif" font-size="14" lengthAdjust="spacing" textLength="209" x="648" y="578.2832">Update(name, description?): void</text></g><!--class CreateQualificationDto--><g id="elem_CreateQualificationDto"><rect codeLine="21" fill="#F1F1F1" height="100.8281" id="CreateQualificationDto" rx="2.5" ry="2.5" style="stroke:#181818;stroke-width:0.5;" width="175" x="7" y="259.6094"/><ellipse cx="22" cy="275.6094" fill="#ADD1B2" rx="11" ry="11" style="stroke:#181818;stroke-width:1.0;"/><path d="M24.7656,271.4844 Q24.9219,271.2656 25.1094,271.1563 Q25.2969,271.0469 25.5156,271.0469 Q25.8906,271.0469 26.125,271.3125 Q26.3594,271.5625 26.3594,272.1719 L26.3594,273.625 Q26.3594,274.2344 26.125,274.5 Q25.8906,274.7656 25.5156,274.7656 Q25.1719,274.7656 24.9688,274.5625 Q24.7656,274.375 24.6563,273.8594 Q24.6094,273.5 24.4219,273.3125 Q24.0938,272.9375 23.4844,272.7188 Q22.875,272.5 22.25,272.5 Q21.4844,272.5 20.8438,272.8281 Q20.2188,273.1563 19.7188,273.9063 Q19.2344,274.6563 19.2344,275.6875 L19.2344,276.7813 Q19.2344,278.0156 20.125,278.8438 Q21.0156,279.6563 22.6094,279.6563 Q23.5469,279.6563 24.2031,279.4063 Q24.5938,279.25 25.0156,278.8125 Q25.2813,278.5469 25.4219,278.4688 Q25.5781,278.3906 25.7813,278.3906 Q26.1094,278.3906 26.3594,278.6563 Q26.625,278.9063 26.625,279.25 Q26.625,279.5938 26.2813,280 Q25.7813,280.5781 24.9844,280.9063 Q23.9063,281.3594 22.6094,281.3594 Q21.0938,281.3594 19.8906,280.7344 Q18.9063,280.2344 18.2188,279.1719 Q17.5313,278.0938 17.5313,276.8125 L17.5313,275.6563 Q17.5313,274.3281 18.1406,273.1875 Q18.7656,272.0313 19.8594,271.4219 Q20.9531,270.7969 22.1875,270.7969 Q22.9219,270.7969 23.5625,270.9688 Q24.2188,271.125 24.7656,271.4844 Z " fill="#000000"/><text fill="#000000" font-family="sans-serif" font-size="14" lengthAdjust="spacing" textLength="143" x="36" y="281.3379">CreateQualificationDto</text><line style="stroke:#181818;stroke-width:0.5;" x1="8" x2="181" y1="291.6094" y2="291.6094"/><ellipse cx="18" cy="305.9141" fill="none" rx="3" ry="3" style="stroke:#038048;stroke-width:1.0;"/><text fill="#000000" font-family="sans-serif" font-size="14" lengthAdjust="spacing" textLength="136" x="27" y="310.1426">QualificationId : string</text><ellipse cx="18" cy="323.5234" fill="none" rx="3" ry="3" style="stroke:#038048;stroke-width:1.0;"/><text fill="#000000" font-family="sans-serif" font-size="14" lengthAdjust="spacing" textLength="83" x="27" y="327.752">Name : string</text><ellipse cx="18" cy="341.1328" fill="none" rx="3" ry="3" style="stroke:#038048;stroke-width:1.0;"/><text fill="#000000" font-family="sans-serif" font-size="14" lengthAdjust="spacing" textLength="126" x="27" y="345.3613">Description : string?</text><line style="stroke:#181818;stroke-width:0.5;" x1="8" x2="181" y1="352.4375" y2="352.4375"/></g><!--class UpdateQualificationDto--><g id="elem_UpdateQualificationDto"><rect codeLine="27" fill="#F1F1F1" height="83.2188" id="UpdateQualificationDto" rx="2.5" ry="2.5" style="stroke:#181818;stroke-width:0.5;" width="177" x="217" y="268.6094"/><ellipse cx="232" cy="284.6094" fill="#ADD1B2" rx="11" ry="11" style="stroke:#181818;stroke-width:1.0;"/><path d="M234.7656,280.4844 Q234.9219,280.2656 235.1094,280.1563 Q235.2969,280.0469 235.5156,280.0469 Q235.8906,280.0469 236.125,280.3125 Q236.3594,280.5625 236.3594,281.1719 L236.3594,282.625 Q236.3594,283.2344 236.125,283.5 Q235.8906,283.7656 235.5156,283.7656 Q235.1719,283.7656 234.9688,283.5625 Q234.7656,283.375 234.6563,282.8594 Q234.6094,282.5 234.4219,282.3125 Q234.0938,281.9375 233.4844,281.7188 Q232.875,281.5 232.25,281.5 Q231.4844,281.5 230.8438,281.8281 Q230.2188,282.1563 229.7188,282.9063 Q229.2344,283.6563 229.2344,284.6875 L229.2344,285.7813 Q229.2344,287.0156 230.125,287.8438 Q231.0156,288.6563 232.6094,288.6563 Q233.5469,288.6563 234.2031,288.4063 Q234.5938,288.25 235.0156,287.8125 Q235.2813,287.5469 235.4219,287.4688 Q235.5781,287.3906 235.7813,287.3906 Q236.1094,287.3906 236.3594,287.6563 Q236.625,287.9063 236.625,288.25 Q236.625,288.5938 236.2813,289 Q235.7813,289.5781 234.9844,289.9063 Q233.9063,290.3594 232.6094,290.3594 Q231.0938,290.3594 229.8906,289.7344 Q228.9063,289.2344 228.2188,288.1719 Q227.5313,287.0938 227.5313,285.8125 L227.5313,284.6563 Q227.5313,283.3281 228.1406,282.1875 Q228.7656,281.0313 229.8594,280.4219 Q230.9531,279.7969 232.1875,279.7969 Q232.9219,279.7969 233.5625,279.9688 Q234.2188,280.125 234.7656,280.4844 Z " fill="#000000"/><text fill="#000000" font-family="sans-serif" font-size="14" lengthAdjust="spacing" textLength="145" x="246" y="290.3379">UpdateQualificationDto</text><line style="stroke:#181818;stroke-width:0.5;" x1="218" x2="393" y1="300.6094" y2="300.6094"/><ellipse cx="228" cy="314.9141" fill="none" rx="3" ry="3" style="stroke:#038048;stroke-width:1.0;"/><text fill="#000000" font-family="sans-serif" font-size="14" lengthAdjust="spacing" textLength="91" x="237" y="319.1426">Name : string?</text><ellipse cx="228" cy="332.5234" fill="none" rx="3" ry="3" style="stroke:#038048;stroke-width:1.0;"/><text fill="#000000" font-family="sans-serif" font-size="14" lengthAdjust="spacing" textLength="126" x="237" y="336.752">Description : string?</text><line style="stroke:#181818;stroke-width:0.5;" x1="218" x2="393" y1="343.8281" y2="343.8281"/></g><!--class QualificationDto--><g id="elem_QualificationDto"><rect codeLine="32" fill="#F1F1F1" height="100.8281" id="QualificationDto" rx="2.5" ry="2.5" style="stroke:#181818;stroke-width:0.5;" width="162" x="429.5" y="259.6094"/><ellipse cx="458" cy="275.6094" fill="#ADD1B2" rx="11" ry="11" style="stroke:#181818;stroke-width:1.0;"/><path d="M460.7656,271.4844 Q460.9219,271.2656 461.1094,271.1563 Q461.2969,271.0469 461.5156,271.0469 Q461.8906,271.0469 462.125,271.3125 Q462.3594,271.5625 462.3594,272.1719 L462.3594,273.625 Q462.3594,274.2344 462.125,274.5 Q461.8906,274.7656 461.5156,274.7656 Q461.1719,274.7656 460.9688,274.5625 Q460.7656,274.375 460.6563,273.8594 Q460.6094,273.5 460.4219,273.3125 Q460.0938,272.9375 459.4844,272.7188 Q458.875,272.5 458.25,272.5 Q457.4844,272.5 456.8438,272.8281 Q456.2188,273.1563 455.7188,273.9063 Q455.2344,274.6563 455.2344,275.6875 L455.2344,276.7813 Q455.2344,278.0156 456.125,278.8438 Q457.0156,279.6563 458.6094,279.6563 Q459.5469,279.6563 460.2031,279.4063 Q460.5938,279.25 461.0156,278.8125 Q461.2813,278.5469 461.4219,278.4688 Q461.5781,278.3906 461.7813,278.3906 Q462.1094,278.3906 462.3594,278.6563 Q462.625,278.9063 462.625,279.25 Q462.625,279.5938 462.2813,280 Q461.7813,280.5781 460.9844,280.9063 Q459.9063,281.3594 458.6094,281.3594 Q457.0938,281.3594 455.8906,280.7344 Q454.9063,280.2344 454.2188,279.1719 Q453.5313,278.0938 453.5313,276.8125 L453.5313,275.6563 Q453.5313,274.3281 454.1406,273.1875 Q454.7656,272.0313 455.8594,271.4219 Q456.9531,270.7969 458.1875,270.7969 Q458.9219,270.7969 459.5625,270.9688 Q460.2188,271.125 460.7656,271.4844 Z " fill="#000000"/><text fill="#000000" font-family="sans-serif" font-size="14" lengthAdjust="spacing" textLength="100" x="475" y="281.3379">QualificationDto</text><line style="stroke:#181818;stroke-width:0.5;" x1="430.5" x2="590.5" y1="291.6094" y2="291.6094"/><ellipse cx="440.5" cy="305.9141" fill="none" rx="3" ry="3" style="stroke:#038048;stroke-width:1.0;"/><text fill="#000000" font-family="sans-serif" font-size="14" lengthAdjust="spacing" textLength="136" x="449.5" y="310.1426">QualificationId : string</text><ellipse cx="440.5" cy="323.5234" fill="none" rx="3" ry="3" style="stroke:#038048;stroke-width:1.0;"/><text fill="#000000" font-family="sans-serif" font-size="14" lengthAdjust="spacing" textLength="83" x="449.5" y="327.752">Name : string</text><ellipse cx="440.5" cy="341.1328" fill="none" rx="3" ry="3" style="stroke:#038048;stroke-width:1.0;"/><text fill="#000000" font-family="sans-serif" font-size="14" lengthAdjust="spacing" textLength="126" x="449.5" y="345.3613">Description : string?</text><line style="stroke:#181818;stroke-width:0.5;" x1="430.5" x2="590.5" y1="352.4375" y2="352.4375"/></g><!--class PortDbContext--><g id="elem_PortDbContext"><rect codeLine="38" fill="#F1F1F1" height="83.2188" id="PortDbContext" rx="2.5" ry="2.5" style="stroke:#181818;stroke-width:0.5;" width="336" x="626.5" y="268.6094"/><ellipse cx="744.25" cy="284.6094" fill="#ADD1B2" rx="11" ry="11" style="stroke:#181818;stroke-width:1.0;"/><path d="M747.0156,280.4844 Q747.1719,280.2656 747.3594,280.1563 Q747.5469,280.0469 747.7656,280.0469 Q748.1406,280.0469 748.375,280.3125 Q748.6094,280.5625 748.6094,281.1719 L748.6094,282.625 Q748.6094,283.2344 748.375,283.5 Q748.1406,283.7656 747.7656,283.7656 Q747.4219,283.7656 747.2188,283.5625 Q747.0156,283.375 746.9063,282.8594 Q746.8594,282.5 746.6719,282.3125 Q746.3438,281.9375 745.7344,281.7188 Q745.125,281.5 744.5,281.5 Q743.7344,281.5 743.0938,281.8281 Q742.4688,282.1563 741.9688,282.9063 Q741.4844,283.6563 741.4844,284.6875 L741.4844,285.7813 Q741.4844,287.0156 742.375,287.8438 Q743.2656,288.6563 744.8594,288.6563 Q745.7969,288.6563 746.4531,288.4063 Q746.8438,288.25 747.2656,287.8125 Q747.5313,287.5469 747.6719,287.4688 Q747.8281,287.3906 748.0313,287.3906 Q748.3594,287.3906 748.6094,287.6563 Q748.875,287.9063 748.875,288.25 Q748.875,288.5938 748.5313,289 Q748.0313,289.5781 747.2344,289.9063 Q746.1563,290.3594 744.8594,290.3594 Q743.3438,290.3594 742.1406,289.7344 Q741.1563,289.2344 740.4688,288.1719 Q739.7813,287.0938 739.7813,285.8125 L739.7813,284.6563 Q739.7813,283.3281 740.3906,282.1875 Q741.0156,281.0313 742.1094,280.4219 Q743.2031,279.7969 744.4375,279.7969 Q745.1719,279.7969 745.8125,279.9688 Q746.4688,280.125 747.0156,280.4844 Z " fill="#000000"/><text fill="#000000" font-family="sans-serif" font-size="14" lengthAdjust="spacing" textLength="92" x="764.75" y="290.3379">PortDbContext</text><line style="stroke:#181818;stroke-width:0.5;" x1="627.5" x2="961.5" y1="300.6094" y2="300.6094"/><ellipse cx="637.5" cy="314.9141" fill="none" rx="3" ry="3" style="stroke:#038048;stroke-width:1.0;"/><text fill="#000000" font-family="sans-serif" font-size="14" lengthAdjust="spacing" textLength="310" x="646.5" y="319.1426">Qualifications : DbSet&lt;StaffMemberQualification&gt;</text><line style="stroke:#181818;stroke-width:1.0;" x1="627.5" x2="961.5" y1="326.2188" y2="326.2188"/><ellipse cx="637.5" cy="340.5234" fill="#84BE84" rx="3" ry="3" style="stroke:#038048;stroke-width:1.0;"/><text fill="#000000" font-family="sans-serif" font-size="14" lengthAdjust="spacing" textLength="211" x="646.5" y="344.752">SaveChangesAsync() : Task&lt;int&gt;</text></g><g id="elem_GMN13"><path d="M996.5,474.6094 L996.5,508.1094 L961.02,512.1094 L996.5,516.1094 L996.5,550.0156 A0,0 0 0 0 996.5,550.0156 L1288.5,550.0156 A0,0 0 0 0 1288.5,550.0156 L1288.5,484.6094 L1278.5,474.6094 L996.5,474.6094 A0,0 0 0 0 996.5,474.6094 " fill="#FEFFDD" style="stroke:#181818;stroke-width:0.5;"/><path d="M1278.5,474.6094 L1278.5,484.6094 L1288.5,484.6094 L1278.5,474.6094 " fill="#FEFFDD" style="stroke:#181818;stroke-width:0.5;"/><text fill="#000000" font-family="sans-serif" font-size="13" lengthAdjust="spacing" textLength="98" x="1002.5" y="493.1045">Validation Rules:</text><text fill="#000000" font-family="sans-serif" font-size="13" lengthAdjust="spacing" textLength="271" x="1002.5" y="509.4561">- QualificationId: alphanumeric, max 15, unique</text><text fill="#000000" font-family="sans-serif" font-size="13" lengthAdjust="spacing" textLength="232" x="1002.5" y="525.8076">- Name: min 2 words, max 150, required</text><text fill="#000000" font-family="sans-serif" font-size="13" lengthAdjust="spacing" textLength="184" x="1002.5" y="542.1592">- Description: optional, max 500</text></g><!--link QualificationsController to PortDbContext--><g id="link_QualificationsController_PortDbContext"><path codeLine="44" d="M540.95,181.6794 C598.44,210.5694 658.3992,240.7045 708.3492,265.8145 " fill="none" id="QualificationsController-to-PortDbContext" style="stroke:#181818;stroke-width:1.0;stroke-dasharray:7.0,7.0;"/><polygon fill="#181818" points="713.71,268.5094,707.4654,260.8932,709.2427,266.2637,703.8723,268.0409,713.71,268.5094" style="stroke:#181818;stroke-width:1.0;"/><text fill="#000000" font-family="sans-serif" font-size="13" lengthAdjust="spacing" textLength="28" x="636.5" y="226.1045">uses</text></g><!--link QualificationsController to CreateQualificationDto--><g id="link_QualificationsController_CreateQualificationDto"><path codeLine="45" d="M299.34,181.8194 C258.35,207.2894 217.5463,232.6528 179.5963,256.2328 " fill="none" id="QualificationsController-to-CreateQualificationDto" style="stroke:#181818;stroke-width:1.0;stroke-dasharray:7.0,7.0;"/><polygon fill="#181818" points="174.5,259.3994,184.2556,258.0471,178.747,256.7606,180.0335,251.2519,174.5,259.3994" style="stroke:#181818;stroke-width:1.0;"/><text fill="#000000" font-family="sans-serif" font-size="13" lengthAdjust="spacing" textLength="60" x="252.5" y="226.1045">consumes</text></g><!--link QualificationsController to UpdateQualificationDto--><g id="link_QualificationsController_UpdateQualificationDto"><path codeLine="46" d="M372.25,181.8194 C357.11,210.6994 342.6971,238.176 329.5471,263.246 " fill="none" id="QualificationsController-to-UpdateQualificationDto" style="stroke:#181818;stroke-width:1.0;stroke-dasharray:7.0,7.0;"/><polygon fill="#181818" points="326.76,268.5594,334.4829,262.4473,329.0825,264.1315,327.3983,258.7312,326.76,268.5594" style="stroke:#181818;stroke-width:1.0;"/><text fill="#000000" font-family="sans-serif" font-size="13" lengthAdjust="spacing" textLength="60" x="357.5" y="226.1045">consumes</text></g><!--link QualificationsController to QualificationDto--><g id="link_QualificationsController_QualificationDto"><path codeLine="47" d="M443.09,181.8194 C456.58,207.2894 468.8833,230.5163 481.3633,254.0963 " fill="none" id="QualificationsController-to-QualificationDto" style="stroke:#181818;stroke-width:1.0;stroke-dasharray:7.0,7.0;"/><polygon fill="#181818" points="484.17,259.3994,483.4953,249.5737,481.8311,254.9802,476.4246,253.3159,484.17,259.3994" style="stroke:#181818;stroke-width:1.0;"/><text fill="#000000" font-family="sans-serif" font-size="13" lengthAdjust="spacing" textLength="53" x="468.5" y="226.1045">produces</text></g><!--link PortDbContext to StaffMemberQualification--><g id="link_PortDbContext_StaffMemberQualification"><path codeLine="48" d="M794.5,352.0694 C794.5,376.8594 794.5,403.2094 794.5,432.2494 " fill="none" id="PortDbContext-to-StaffMemberQualification" style="stroke:#181818;stroke-width:1.0;"/><polygon fill="#181818" points="794.5,438.2494,798.5,429.2494,794.5,433.2494,790.5,429.2494,794.5,438.2494" style="stroke:#181818;stroke-width:1.0;"/><text fill="#000000" font-family="sans-serif" font-size="13" lengthAdjust="spacing" textLength="53" x="795.5" y="405.1045">manages</text></g><!--SRC=[lLHDRzim3BtxL_2Oe4cGPkX521mKyJ3qq69hrbuBHM9IORAKIdINOjX_domt7ohiVW35BhP5yl6HZvH9aKQOQ-uz58gl7IzX23SBc8mcezClqFjHSQrMId1IrlX-beaOcvhdrf2pMgE3Fnc417U2ji3WktLKB6ilRgbs3CFZ1EOEEM5FacNFtqcwWcm_W7zo_sjwSIvgqpNwIbCUqT-GUahE67Xoogm7O7Y9- -Dho9kDh7cLF61Z3Otz8pKKg379r1NyToVOWlXgTOdb4br21DFfLqEAdl8yQdUIIdiXOKSHdLUXrzHIe1TERMAkdMDsqBgBDzJUA1SqE6IOzO-5Qd4pUBHA7jfg7zzdThAdQf_ICrMIRVQUTF-bvkG2j37uW2gM2wHfrw3oerdoHvpVSxD6V-wVZEZjjqwPPjSwh-LebByeXa7bqR-Ew9Wk0n5Yg_8jUCV4tWjl0MwSbPK8mBINuJ3llc0CIcvuq2pBZ2K4fzRt17RLYGXQtuQZRE3NbKRFub_jnMumu7eJnX4wSKeC0iqMJiy6K1drK654r0iJ-9M12VosJlfTr7W03XygvL36mACzOc3Zc-ic-6mypj18g8lF_W40]--></g></svg>