<?xml version="1.0" encoding="us-ascii" standalone="no"?><svg xmlns="http://www.w3.org/2000/svg" xmlns:xlink="http://www.w3.org/1999/xlink" contentStyleType="text/css" height="796px" preserveAspectRatio="none" style="width:1348px;height:796px;background:#FFFFFF;" version="1.1" viewBox="0 0 1348 796" width="1348px" zoomAndPan="magnify"><defs/><g><text fill="#000000" font-family="sans-serif" font-size="14" font-weight="bold" lengthAdjust="spacing" textLength="364" x="493" y="29.5332">Sequence Diagram - Update Qualification (US 2.2.13)</text><rect fill="#FFFFFF" height="534.1094" style="stroke:#181818;stroke-width:1.0;" width="10" x="361" y="169.9219"/><rect fill="#FFFFFF" height="91.0547" style="stroke:#181818;stroke-width:1.0;" width="10" x="754" y="243.625"/><rect fill="#FFFFFF" height="74.7031" style="stroke:#181818;stroke-width:1.0;" width="10" x="754" y="567.625"/><rect fill="#FFFFFF" height="100.7031" style="stroke:#181818;stroke-width:1.0;" width="10" x="944.5" y="436.5703"/><rect fill="none" height="347.3516" style="stroke:#000000;stroke-width:1.5;" width="1331" x="10" y="349.6797"/><line style="stroke:#181818;stroke-width:0.5;stroke-dasharray:5.0,5.0;" x1="81" x2="81" y1="121.2188" y2="714.0313"/><line style="stroke:#181818;stroke-width:0.5;stroke-dasharray:5.0,5.0;" x1="365.5" x2="365.5" y1="121.2188" y2="714.0313"/><line style="stroke:#181818;stroke-width:0.5;stroke-dasharray:5.0,5.0;" x1="759" x2="759" y1="121.2188" y2="714.0313"/><line style="stroke:#181818;stroke-width:0.5;stroke-dasharray:5.0,5.0;" x1="949" x2="949" y1="121.2188" y2="714.0313"/><line style="stroke:#181818;stroke-width:0.5;stroke-dasharray:5.0,5.0;" x1="1269" x2="1269" y1="121.2188" y2="714.0313"/><text fill="#000000" font-family="sans-serif" font-size="14" lengthAdjust="spacing" textLength="116" x="20" y="118.1426">Logistics Operator</text><ellipse cx="81" cy="52.1094" fill="#E2E2F0" rx="8" ry="8" style="stroke:#181818;stroke-width:0.5;"/><path d="M81,60.1094 L81,87.1094 M68,68.1094 L94,68.1094 M81,87.1094 L68,102.1094 M81,87.1094 L94,102.1094 " fill="none" style="stroke:#181818;stroke-width:0.5;"/><text fill="#000000" font-family="sans-serif" font-size="14" lengthAdjust="spacing" textLength="116" x="20" y="727.5645">Logistics Operator</text><ellipse cx="81" cy="739.1406" fill="#E2E2F0" rx="8" ry="8" style="stroke:#181818;stroke-width:0.5;"/><path d="M81,747.1406 L81,774.1406 M68,755.1406 L94,755.1406 M81,774.1406 L68,789.1406 M81,774.1406 L94,789.1406 " fill="none" style="stroke:#181818;stroke-width:0.5;"/><rect fill="#E2E2F0" height="31.6094" rx="2.5" ry="2.5" style="stroke:#181818;stroke-width:0.5;" width="165" x="283.5" y="88.6094"/><text fill="#000000" font-family="sans-serif" font-size="14" lengthAdjust="spacing" textLength="151" x="290.5" y="110.1426">:QualificationsController</text><rect fill="#E2E2F0" height="31.6094" rx="2.5" ry="2.5" style="stroke:#181818;stroke-width:0.5;" width="165" x="283.5" y="713.0313"/><text fill="#000000" font-family="sans-serif" font-size="14" lengthAdjust="spacing" textLength="151" x="290.5" y="734.5645">:QualificationsController</text><rect fill="#E2E2F0" height="31.6094" rx="2.5" ry="2.5" style="stroke:#181818;stroke-width:0.5;" width="110" x="704" y="88.6094"/><text fill="#000000" font-family="sans-serif" font-size="14" lengthAdjust="spacing" textLength="96" x="711" y="110.1426">:PortDbContext</text><rect fill="#E2E2F0" height="31.6094" rx="2.5" ry="2.5" style="stroke:#181818;stroke-width:0.5;" width="110" x="704" y="713.0313"/><text fill="#000000" font-family="sans-serif" font-size="14" lengthAdjust="spacing" textLength="96" x="711" y="734.5645">:PortDbContext</text><rect fill="#E2E2F0" height="31.6094" rx="2.5" ry="2.5" style="stroke:#181818;stroke-width:0.5;" width="251" x="824" y="88.6094"/><text fill="#000000" font-family="sans-serif" font-size="14" lengthAdjust="spacing" textLength="237" x="831" y="110.1426">qualification:StaffMemberQualification</text><rect fill="#E2E2F0" height="31.6094" rx="2.5" ry="2.5" style="stroke:#181818;stroke-width:0.5;" width="251" x="824" y="713.0313"/><text fill="#000000" font-family="sans-serif" font-size="14" lengthAdjust="spacing" textLength="237" x="831" y="734.5645">qualification:StaffMemberQualification</text><text fill="#000000" font-family="sans-serif" font-size="14" lengthAdjust="spacing" textLength="118" x="1207" y="118.1426">:EFCore InMemory</text><path d="M1251,67.6094 C1251,57.6094 1269,57.6094 1269,57.6094 C1269,57.6094 1287,57.6094 1287,67.6094 L1287,93.6094 C1287,103.6094 1269,103.6094 1269,103.6094 C1269,103.6094 1251,103.6094 1251,93.6094 L1251,67.6094 " fill="#E2E2F0" style="stroke:#181818;stroke-width:1.5;"/><path d="M1251,67.6094 C1251,77.6094 1269,77.6094 1269,77.6094 C1269,77.6094 1287,77.6094 1287,67.6094 " fill="none" style="stroke:#181818;stroke-width:1.5;"/><text fill="#000000" font-family="sans-serif" font-size="14" lengthAdjust="spacing" textLength="118" x="1207" y="727.5645">:EFCore InMemory</text><path d="M1251,740.6406 C1251,730.6406 1269,730.6406 1269,730.6406 C1269,730.6406 1287,730.6406 1287,740.6406 L1287,766.6406 C1287,776.6406 1269,776.6406 1269,776.6406 C1269,776.6406 1251,776.6406 1251,766.6406 L1251,740.6406 " fill="#E2E2F0" style="stroke:#181818;stroke-width:1.5;"/><path d="M1251,740.6406 C1251,750.6406 1269,750.6406 1269,750.6406 C1269,750.6406 1287,750.6406 1287,740.6406 " fill="none" style="stroke:#181818;stroke-width:1.5;"/><rect fill="#FFFFFF" height="534.1094" style="stroke:#181818;stroke-width:1.0;" width="10" x="361" y="169.9219"/><rect fill="#FFFFFF" height="91.0547" style="stroke:#181818;stroke-width:1.0;" width="10" x="754" y="243.625"/><rect fill="#FFFFFF" height="74.7031" style="stroke:#181818;stroke-width:1.0;" width="10" x="754" y="567.625"/><rect fill="#FFFFFF" height="100.7031" style="stroke:#181818;stroke-width:1.0;" width="10" x="944.5" y="436.5703"/><polygon fill="#181818" points="349,165.9219,359,169.9219,349,173.9219,353,169.9219" style="stroke:#181818;stroke-width:1.0;"/><line style="stroke:#181818;stroke-width:1.0;" x1="81" x2="355" y1="169.9219" y2="169.9219"/><text fill="#000000" font-family="sans-serif" font-size="13" lengthAdjust="spacing" textLength="151" x="88" y="148.7139">PUT /api/qualifications/{id}</text><text fill="#000000" font-family="sans-serif" font-size="13" lengthAdjust="spacing" textLength="261" x="88" y="165.0654">UpdateQualificationDto(Name?, Description?)</text><line style="stroke:#181818;stroke-width:1.0;" x1="371" x2="413" y1="200.2734" y2="200.2734"/><line style="stroke:#181818;stroke-width:1.0;" x1="413" x2="413" y1="200.2734" y2="213.2734"/><line style="stroke:#181818;stroke-width:1.0;" x1="372" x2="413" y1="213.2734" y2="213.2734"/><polygon fill="#181818" points="382,209.2734,372,213.2734,382,217.2734,378,213.2734" style="stroke:#181818;stroke-width:1.0;"/><text fill="#000000" font-family="sans-serif" font-size="13" lengthAdjust="spacing" textLength="179" x="378" y="195.417">Normalize id.ToUpperInvariant()</text><polygon fill="#181818" points="742,239.625,752,243.625,742,247.625,746,243.625" style="stroke:#181818;stroke-width:1.0;"/><line style="stroke:#181818;stroke-width:1.0;" x1="371" x2="748" y1="243.625" y2="243.625"/><text fill="#000000" font-family="sans-serif" font-size="13" lengthAdjust="spacing" textLength="364" x="378" y="238.7686">Qualifications.FirstOrDefaultAsync(q =&gt; q.QualificationId == id)</text><polygon fill="#181818" points="1257,269.9766,1267,273.9766,1257,277.9766,1261,273.9766" style="stroke:#181818;stroke-width:1.0;"/><line style="stroke:#181818;stroke-width:1.0;" x1="764" x2="1263" y1="273.9766" y2="273.9766"/><text fill="#000000" font-family="sans-serif" font-size="13" lengthAdjust="spacing" textLength="344" x="771" y="269.1201">SELECT * FROM Qualifications WHERE QualificationId = ?</text><polygon fill="#181818" points="775,300.3281,765,304.3281,775,308.3281,771,304.3281" style="stroke:#181818;stroke-width:1.0;"/><line style="stroke:#181818;stroke-width:1.0;stroke-dasharray:2.0,2.0;" x1="769" x2="1268" y1="304.3281" y2="304.3281"/><text fill="#000000" font-family="sans-serif" font-size="13" lengthAdjust="spacing" textLength="68" x="781" y="299.4717">qualification</text><polygon fill="#181818" points="382,330.6797,372,334.6797,382,338.6797,378,334.6797" style="stroke:#181818;stroke-width:1.0;"/><line style="stroke:#181818;stroke-width:1.0;stroke-dasharray:2.0,2.0;" x1="376" x2="758" y1="334.6797" y2="334.6797"/><text fill="#000000" font-family="sans-serif" font-size="13" lengthAdjust="spacing" textLength="68" x="388" y="329.8232">qualification</text><path d="M10,349.6797 L71,349.6797 L71,358.0313 L61,368.0313 L10,368.0313 L10,349.6797 " fill="#EEEEEE" style="stroke:#000000;stroke-width:1.5;"/><rect fill="none" height="347.3516" style="stroke:#000000;stroke-width:1.5;" width="1331" x="10" y="349.6797"/><text fill="#000000" font-family="sans-serif" font-size="13" font-weight="bold" lengthAdjust="spacing" textLength="16" x="25" y="364.1748">alt</text><text fill="#000000" font-family="sans-serif" font-size="11" font-weight="bold" lengthAdjust="spacing" textLength="112" x="86" y="363.0986">[qualification == null]</text><polygon fill="#181818" points="92,386.3828,82,390.3828,92,394.3828,88,390.3828" style="stroke:#181818;stroke-width:1.0;"/><line style="stroke:#181818;stroke-width:1.0;stroke-dasharray:2.0,2.0;" x1="86" x2="360" y1="390.3828" y2="390.3828"/><text fill="#000000" font-family="sans-serif" font-size="13" lengthAdjust="spacing" textLength="85" x="98" y="385.5264">404 Not Found</text><line style="stroke:#000000;stroke-width:1.0;stroke-dasharray:2.0,2.0;" x1="10" x2="1341" y1="399.3828" y2="399.3828"/><text fill="#000000" font-family="sans-serif" font-size="11" font-weight="bold" lengthAdjust="spacing" textLength="33" x="15" y="410.8018">[valid]</text><polygon fill="#181818" points="932.5,432.5703,942.5,436.5703,932.5,440.5703,936.5,436.5703" style="stroke:#181818;stroke-width:1.0;"/><line style="stroke:#181818;stroke-width:1.0;" x1="371" x2="938.5" y1="436.5703" y2="436.5703"/><text fill="#000000" font-family="sans-serif" font-size="13" lengthAdjust="spacing" textLength="200" x="378" y="431.7139">Update(dto.Name, dto.Description)</text><line style="stroke:#181818;stroke-width:1.0;" x1="954.5" x2="996.5" y1="466.9219" y2="466.9219"/><line style="stroke:#181818;stroke-width:1.0;" x1="996.5" x2="996.5" y1="466.9219" y2="479.9219"/><line style="stroke:#181818;stroke-width:1.0;" x1="955.5" x2="996.5" y1="479.9219" y2="479.9219"/><polygon fill="#181818" points="965.5,475.9219,955.5,479.9219,965.5,483.9219,961.5,479.9219" style="stroke:#181818;stroke-width:1.0;"/><text fill="#000000" font-family="sans-serif" font-size="13" lengthAdjust="spacing" textLength="154" x="961.5" y="462.0654">Validate Name (if provided)</text><line style="stroke:#181818;stroke-width:1.0;" x1="954.5" x2="996.5" y1="510.2734" y2="510.2734"/><line style="stroke:#181818;stroke-width:1.0;" x1="996.5" x2="996.5" y1="510.2734" y2="523.2734"/><line style="stroke:#181818;stroke-width:1.0;" x1="955.5" x2="996.5" y1="523.2734" y2="523.2734"/><polygon fill="#181818" points="965.5,519.2734,955.5,523.2734,965.5,527.2734,961.5,523.2734" style="stroke:#181818;stroke-width:1.0;"/><text fill="#000000" font-family="sans-serif" font-size="13" lengthAdjust="spacing" textLength="152" x="961.5" y="505.417">Set Name and Description</text><polygon fill="#181818" points="382,533.2734,372,537.2734,382,541.2734,378,537.2734" style="stroke:#181818;stroke-width:1.0;"/><line style="stroke:#181818;stroke-width:1.0;stroke-dasharray:2.0,2.0;" x1="376" x2="948.5" y1="537.2734" y2="537.2734"/><polygon fill="#181818" points="742,563.625,752,567.625,742,571.625,746,567.625" style="stroke:#181818;stroke-width:1.0;"/><line style="stroke:#181818;stroke-width:1.0;" x1="371" x2="748" y1="567.625" y2="567.625"/><text fill="#000000" font-family="sans-serif" font-size="13" lengthAdjust="spacing" textLength="124" x="378" y="562.7686">SaveChangesAsync()</text><polygon fill="#181818" points="1257,593.9766,1267,597.9766,1257,601.9766,1261,597.9766" style="stroke:#181818;stroke-width:1.0;"/><line style="stroke:#181818;stroke-width:1.0;" x1="764" x2="1263" y1="597.9766" y2="597.9766"/><text fill="#000000" font-family="sans-serif" font-size="13" lengthAdjust="spacing" textLength="481" x="771" y="593.1201">UPDATE Qualifications SET Name = ?, Description = ? WHERE QualificationId = ?</text><polygon fill="#181818" points="775,624.3281,765,628.3281,775,632.3281,771,628.3281" style="stroke:#181818;stroke-width:1.0;"/><line style="stroke:#181818;stroke-width:1.0;stroke-dasharray:2.0,2.0;" x1="769" x2="1268" y1="628.3281" y2="628.3281"/><text fill="#000000" font-family="sans-serif" font-size="13" lengthAdjust="spacing" textLength="14" x="781" y="623.4717">ok</text><polygon fill="#181818" points="382,638.3281,372,642.3281,382,646.3281,378,642.3281" style="stroke:#181818;stroke-width:1.0;"/><line style="stroke:#181818;stroke-width:1.0;stroke-dasharray:2.0,2.0;" x1="376" x2="758" y1="642.3281" y2="642.3281"/><polygon fill="#181818" points="92,685.0313,82,689.0313,92,693.0313,88,689.0313" style="stroke:#181818;stroke-width:1.0;"/><line style="stroke:#181818;stroke-width:1.0;stroke-dasharray:2.0,2.0;" x1="86" x2="360" y1="689.0313" y2="689.0313"/><text fill="#000000" font-family="sans-serif" font-size="13" lengthAdjust="spacing" textLength="44" x="98" y="667.8232">200 OK</text><text fill="#000000" font-family="sans-serif" font-size="13" lengthAdjust="spacing" textLength="91" x="98" y="684.1748">QualificationDto</text><!--SRC=[ZLHDZzem5BpxLpnn2jKIADrJ942x9AYekmlTG7lPYuaVr6gmWsDGjrN_U-rD2xP1gBVuOsRUcpUEvhf4o76tHr4Wf9nk5Dr21vOLenhXyvwMVCqBghaK42rpwCVz-Fs7DY6qq591wq5kUArvKSEiGaNDNWleQK4ggimfhwZGq4eyldeiXLQoBB71d9O1QYwLJbVs67_ejwl7bNzpvz8dkQRhzIDkLwWytJS6RuUOPkcArcZ4iibOAeIfC4YfNXkvUqB-TGITeLCf931VBg1BAzxrrElkByv-luZ6I4yjrJ9webiStK2ATQ5uPNT7RMifFrZR7IU8enKgFqcrDRm_4JYB5t9PcHAdua0LDsv4xH1xDCr0_K744wvgFLCfhkc-r7VrgoYY7Go6i8kzcrC6Wu5HSsezZUB4RyNkZKgUFMJZ1Ro3oVFiCT24hn-pvmpEw6543BOJrEjvwog5dlWN6Lweaz1I-_TiKs9VbWHSCijzd7e2jxrRuxY6YTmBHh0qQJaO3XQ0Xi6ZIVw-fOXf6Tkntu3zSYRVDWp7ClrSGa1sWVsBhS4YBJT4V0sLaWVEaBN_1vwZRf1KC3UEvrZFQNFiU1iMVMQ9EygS7d3yZOeDratGlFvFOm8u3zHodjujiZ19URPeUZ3XyTwKtRYICu0BIPFVVUKhRRkrNerElzU3sQSN4Vu629eaEOIEq1y0]--></g></svg>