<?xml version="1.0" encoding="us-ascii" standalone="no"?><svg xmlns="http://www.w3.org/2000/svg" xmlns:xlink="http://www.w3.org/1999/xlink" contentStyleType="text/css" height="664px" preserveAspectRatio="none" style="width:1280px;height:664px;background:#FFFFFF;" version="1.1" viewBox="0 0 1280 664" width="1280px" zoomAndPan="magnify"><defs/><g><text fill="#000000" font-family="sans-serif" font-size="14" font-weight="bold" lengthAdjust="spacing" textLength="183" x="549.75" y="29.5332">SSD - Update Qualification</text><rect fill="#FFFFFF" height="371.8672" style="stroke:#181818;stroke-width:1.0;" width="10" x="443" y="200.2734"/><rect fill="#FFFFFF" height="60.7031" style="stroke:#181818;stroke-width:1.0;" width="10" x="836" y="230.625"/><rect fill="#FFFFFF" height="60.7031" style="stroke:#181818;stroke-width:1.0;" width="10" x="836" y="466.0859"/><rect fill="none" height="258.8125" style="stroke:#000000;stroke-width:1.5;" width="1080" x="193.5" y="306.3281"/><line style="stroke:#181818;stroke-width:0.5;stroke-dasharray:5.0,5.0;" x1="66" x2="66" y1="121.2188" y2="582.1406"/><line style="stroke:#181818;stroke-width:0.5;stroke-dasharray:5.0,5.0;" x1="240.5" x2="240.5" y1="121.2188" y2="582.1406"/><line style="stroke:#181818;stroke-width:0.5;stroke-dasharray:5.0,5.0;" x1="447.5" x2="447.5" y1="121.2188" y2="582.1406"/><line style="stroke:#181818;stroke-width:0.5;stroke-dasharray:5.0,5.0;" x1="841" x2="841" y1="121.2188" y2="582.1406"/><line style="stroke:#181818;stroke-width:0.5;stroke-dasharray:5.0,5.0;" x1="1213.5" x2="1213.5" y1="121.2188" y2="582.1406"/><text fill="#000000" font-family="sans-serif" font-size="14" lengthAdjust="spacing" textLength="116" x="5" y="118.1426">Logistics Operator</text><ellipse cx="66" cy="52.1094" fill="#E2E2F0" rx="8" ry="8" style="stroke:#181818;stroke-width:0.5;"/><path d="M66,60.1094 L66,87.1094 M53,68.1094 L79,68.1094 M66,87.1094 L53,102.1094 M66,87.1094 L79,102.1094 " fill="none" style="stroke:#181818;stroke-width:0.5;"/><text fill="#000000" font-family="sans-serif" font-size="14" lengthAdjust="spacing" textLength="116" x="5" y="595.6738">Logistics Operator</text><ellipse cx="66" cy="607.25" fill="#E2E2F0" rx="8" ry="8" style="stroke:#181818;stroke-width:0.5;"/><path d="M66,615.25 L66,642.25 M53,623.25 L79,623.25 M66,642.25 L53,657.25 M66,642.25 L79,657.25 " fill="none" style="stroke:#181818;stroke-width:0.5;"/><rect fill="#E2E2F0" height="31.6094" rx="2.5" ry="2.5" style="stroke:#181818;stroke-width:0.5;" width="75" x="203.5" y="88.6094"/><text fill="#000000" font-family="sans-serif" font-size="14" lengthAdjust="spacing" textLength="61" x="210.5" y="110.1426">API Client</text><rect fill="#E2E2F0" height="31.6094" rx="2.5" ry="2.5" style="stroke:#181818;stroke-width:0.5;" width="75" x="203.5" y="581.1406"/><text fill="#000000" font-family="sans-serif" font-size="14" lengthAdjust="spacing" textLength="61" x="210.5" y="602.6738">API Client</text><rect fill="#E2E2F0" height="31.6094" rx="2.5" ry="2.5" style="stroke:#181818;stroke-width:0.5;" width="161" x="367.5" y="88.6094"/><text fill="#000000" font-family="sans-serif" font-size="14" lengthAdjust="spacing" textLength="147" x="374.5" y="110.1426">QualificationsController</text><rect fill="#E2E2F0" height="31.6094" rx="2.5" ry="2.5" style="stroke:#181818;stroke-width:0.5;" width="161" x="367.5" y="581.1406"/><text fill="#000000" font-family="sans-serif" font-size="14" lengthAdjust="spacing" textLength="147" x="374.5" y="602.6738">QualificationsController</text><rect fill="#E2E2F0" height="31.6094" rx="2.5" ry="2.5" style="stroke:#181818;stroke-width:0.5;" width="106" x="788" y="88.6094"/><text fill="#000000" font-family="sans-serif" font-size="14" lengthAdjust="spacing" textLength="92" x="795" y="110.1426">PortDbContext</text><rect fill="#E2E2F0" height="31.6094" rx="2.5" ry="2.5" style="stroke:#181818;stroke-width:0.5;" width="106" x="788" y="581.1406"/><text fill="#000000" font-family="sans-serif" font-size="14" lengthAdjust="spacing" textLength="92" x="795" y="602.6738">PortDbContext</text><text fill="#000000" font-family="sans-serif" font-size="14" lengthAdjust="spacing" textLength="93" x="1164.5" y="118.1426">EF (InMemory)</text><path d="M1196,67.6094 C1196,57.6094 1214,57.6094 1214,57.6094 C1214,57.6094 1232,57.6094 1232,67.6094 L1232,93.6094 C1232,103.6094 1214,103.6094 1214,103.6094 C1214,103.6094 1196,103.6094 1196,93.6094 L1196,67.6094 " fill="#E2E2F0" style="stroke:#181818;stroke-width:1.5;"/><path d="M1196,67.6094 C1196,77.6094 1214,77.6094 1214,77.6094 C1214,77.6094 1232,77.6094 1232,67.6094 " fill="none" style="stroke:#181818;stroke-width:1.5;"/><text fill="#000000" font-family="sans-serif" font-size="14" lengthAdjust="spacing" textLength="93" x="1164.5" y="595.6738">EF (InMemory)</text><path d="M1196,608.75 C1196,598.75 1214,598.75 1214,598.75 C1214,598.75 1232,598.75 1232,608.75 L1232,634.75 C1232,644.75 1214,644.75 1214,644.75 C1214,644.75 1196,644.75 1196,634.75 L1196,608.75 " fill="#E2E2F0" style="stroke:#181818;stroke-width:1.5;"/><path d="M1196,608.75 C1196,618.75 1214,618.75 1214,618.75 C1214,618.75 1232,618.75 1232,608.75 " fill="none" style="stroke:#181818;stroke-width:1.5;"/><rect fill="#FFFFFF" height="371.8672" style="stroke:#181818;stroke-width:1.0;" width="10" x="443" y="200.2734"/><rect fill="#FFFFFF" height="60.7031" style="stroke:#181818;stroke-width:1.0;" width="10" x="836" y="230.625"/><rect fill="#FFFFFF" height="60.7031" style="stroke:#181818;stroke-width:1.0;" width="10" x="836" y="466.0859"/><polygon fill="#181818" points="229,165.9219,239,169.9219,229,173.9219,233,169.9219" style="stroke:#181818;stroke-width:1.0;"/><line style="stroke:#181818;stroke-width:1.0;" x1="66" x2="235" y1="169.9219" y2="169.9219"/><text fill="#000000" font-family="sans-serif" font-size="13" lengthAdjust="spacing" textLength="151" x="73" y="148.7139">PUT /api/qualifications/{id}</text><text fill="#000000" font-family="sans-serif" font-size="13" lengthAdjust="spacing" textLength="129" x="73" y="165.0654">{Name?, Description?}</text><polygon fill="#181818" points="431,196.2734,441,200.2734,431,204.2734,435,200.2734" style="stroke:#181818;stroke-width:1.0;"/><line style="stroke:#181818;stroke-width:1.0;" x1="241" x2="437" y1="200.2734" y2="200.2734"/><text fill="#000000" font-family="sans-serif" font-size="13" lengthAdjust="spacing" textLength="85" x="248" y="195.417">Update(id, dto)</text><polygon fill="#181818" points="824,226.625,834,230.625,824,234.625,828,230.625" style="stroke:#181818;stroke-width:1.0;"/><line style="stroke:#181818;stroke-width:1.0;" x1="453" x2="830" y1="230.625" y2="230.625"/><text fill="#000000" font-family="sans-serif" font-size="13" lengthAdjust="spacing" textLength="364" x="460" y="225.7686">Qualifications.FirstOrDefaultAsync(q =&gt; q.QualificationId == id)</text><polygon fill="#181818" points="1202,256.9766,1212,260.9766,1202,264.9766,1206,260.9766" style="stroke:#181818;stroke-width:1.0;"/><line style="stroke:#181818;stroke-width:1.0;" x1="846" x2="1208" y1="260.9766" y2="260.9766"/><text fill="#000000" font-family="sans-serif" font-size="13" lengthAdjust="spacing" textLength="344" x="853" y="256.1201">SELECT * FROM Qualifications WHERE QualificationId = ?</text><polygon fill="#181818" points="852,287.3281,842,291.3281,852,295.3281,848,291.3281" style="stroke:#181818;stroke-width:1.0;"/><line style="stroke:#181818;stroke-width:1.0;stroke-dasharray:2.0,2.0;" x1="846" x2="1213" y1="291.3281" y2="291.3281"/><text fill="#000000" font-family="sans-serif" font-size="13" lengthAdjust="spacing" textLength="68" x="858" y="286.4717">qualification</text><path d="M193.5,306.3281 L254.5,306.3281 L254.5,314.6797 L244.5,324.6797 L193.5,324.6797 L193.5,306.3281 " fill="#EEEEEE" style="stroke:#000000;stroke-width:1.5;"/><rect fill="none" height="258.8125" style="stroke:#000000;stroke-width:1.5;" width="1080" x="193.5" y="306.3281"/><text fill="#000000" font-family="sans-serif" font-size="13" font-weight="bold" lengthAdjust="spacing" textLength="16" x="208.5" y="320.8232">alt</text><text fill="#000000" font-family="sans-serif" font-size="11" font-weight="bold" lengthAdjust="spacing" textLength="61" x="269.5" y="319.7471">[not found]</text><polygon fill="#181818" points="252,343.0313,242,347.0313,252,351.0313,248,347.0313" style="stroke:#181818;stroke-width:1.0;"/><line style="stroke:#181818;stroke-width:1.0;stroke-dasharray:2.0,2.0;" x1="246" x2="442" y1="347.0313" y2="347.0313"/><text fill="#000000" font-family="sans-serif" font-size="13" lengthAdjust="spacing" textLength="85" x="258" y="342.1748">404 Not Found</text><line style="stroke:#000000;stroke-width:1.0;stroke-dasharray:2.0,2.0;" x1="193.5" x2="1273.5" y1="356.0313" y2="356.0313"/><line style="stroke:#181818;stroke-width:1.0;" x1="453" x2="495" y1="379.3828" y2="379.3828"/><line style="stroke:#181818;stroke-width:1.0;" x1="495" x2="495" y1="379.3828" y2="392.3828"/><line style="stroke:#181818;stroke-width:1.0;" x1="454" x2="495" y1="392.3828" y2="392.3828"/><polygon fill="#181818" points="464,388.3828,454,392.3828,464,396.3828,460,392.3828" style="stroke:#181818;stroke-width:1.0;"/><text fill="#000000" font-family="sans-serif" font-size="13" lengthAdjust="spacing" textLength="290" x="460" y="374.5264">Validate Name (if provided: min 2 words, max 150)</text><line style="stroke:#181818;stroke-width:1.0;" x1="453" x2="495" y1="422.7344" y2="422.7344"/><line style="stroke:#181818;stroke-width:1.0;" x1="495" x2="495" y1="422.7344" y2="435.7344"/><line style="stroke:#181818;stroke-width:1.0;" x1="454" x2="495" y1="435.7344" y2="435.7344"/><polygon fill="#181818" points="464,431.7344,454,435.7344,464,439.7344,460,435.7344" style="stroke:#181818;stroke-width:1.0;"/><text fill="#000000" font-family="sans-serif" font-size="13" lengthAdjust="spacing" textLength="224" x="460" y="417.8779">qualification.Update(name, description)</text><polygon fill="#181818" points="824,462.0859,834,466.0859,824,470.0859,828,466.0859" style="stroke:#181818;stroke-width:1.0;"/><line style="stroke:#181818;stroke-width:1.0;" x1="453" x2="830" y1="466.0859" y2="466.0859"/><text fill="#000000" font-family="sans-serif" font-size="13" lengthAdjust="spacing" textLength="124" x="460" y="461.2295">SaveChangesAsync()</text><polygon fill="#181818" points="1202,492.4375,1212,496.4375,1202,500.4375,1206,496.4375" style="stroke:#181818;stroke-width:1.0;"/><line style="stroke:#181818;stroke-width:1.0;" x1="846" x2="1208" y1="496.4375" y2="496.4375"/><text fill="#000000" font-family="sans-serif" font-size="13" lengthAdjust="spacing" textLength="179" x="853" y="491.5811">UPDATE Qualifications SET ...</text><polygon fill="#181818" points="852,522.7891,842,526.7891,852,530.7891,848,526.7891" style="stroke:#181818;stroke-width:1.0;"/><line style="stroke:#181818;stroke-width:1.0;stroke-dasharray:2.0,2.0;" x1="846" x2="1213" y1="526.7891" y2="526.7891"/><text fill="#000000" font-family="sans-serif" font-size="13" lengthAdjust="spacing" textLength="14" x="858" y="521.9326">ok</text><polygon fill="#181818" points="252,553.1406,242,557.1406,252,561.1406,248,557.1406" style="stroke:#181818;stroke-width:1.0;"/><line style="stroke:#181818;stroke-width:1.0;stroke-dasharray:2.0,2.0;" x1="246" x2="442" y1="557.1406" y2="557.1406"/><text fill="#000000" font-family="sans-serif" font-size="13" lengthAdjust="spacing" textLength="178" x="258" y="552.2842">200 OK + updated qualification</text><!--SRC=[PP9FR-8m5CJl_XGZJj25m5RTIoMAK1Aqg7zW6zYzxCN4ZzPgi8Djs5PLl_iw2QX9UalyverdVecJBYCaIOG1rhdWZl3hm3EvbIbtKYl6UEgqGUTEFqdhP6gnoCbmVzO1_tnXEJT-AdEk73hJvHnX9acvKbGzDYMDMsoebJCwowXo3PlQfJOksXGQUgqSemtpMVc6Mq8ddg4xL_Uqq-QjLuuJduWOEuV3uEQK0TTOhbSOybmEzuq4mtSfFlwgzmU-eqaV4TdKoBmOJJxOQRcmyGuLfwuKVGYdUmKXUIp8XOo5XIZQU5MpO32Jnhg5YMZB3vcRsZULTlSOts0VD9HpWV4OKjHiVLdlw7tBMjuwYU_YS8KBp1uNzwsByETd_1ZZYoSch5eVd0Cs-ZD1zViOpnoKTjZgWn8CllUW3l5gT8K7FvwLOyeiLPeAq6zlNFvA1KnqvHQvqKSfI5nZ9nKkyKyROVlOyLTy_p7grPSRiO8JQ-MDFEtFZrAidBVADWa_KlZCrHFP2cwXg5S2cX3NosYwYjlqadY580YykaLBl_Yp5gGlM2v78onkyGs7ChPeCIRFgcOH_WS0]--></g></svg>