<?xml version="1.0" encoding="us-ascii" standalone="no"?><svg xmlns="http://www.w3.org/2000/svg" xmlns:xlink="http://www.w3.org/1999/xlink" contentStyleType="text/css" height="815px" preserveAspectRatio="none" style="width:1398px;height:815px;background:#FFFFFF;" version="1.1" viewBox="0 0 1398 815" width="1398px" zoomAndPan="magnify"><defs/><g><text fill="#000000" font-family="sans-serif" font-size="14" font-weight="bold" lengthAdjust="spacing" textLength="180" x="610.25" y="29.5332">SSD - Create Qualification</text><rect fill="#FFFFFF" height="523.4609" style="stroke:#181818;stroke-width:1.0;" width="10" x="564" y="200.2734"/><rect fill="#FFFFFF" height="60.7031" style="stroke:#181818;stroke-width:1.0;" width="10" x="902" y="290.3281"/><rect fill="#FFFFFF" height="60.7031" style="stroke:#181818;stroke-width:1.0;" width="10" x="902" y="496.2734"/><rect fill="none" height="350.7031" style="stroke:#000000;stroke-width:1.5;" width="1145" x="246.5" y="366.0313"/><line style="stroke:#181818;stroke-width:0.5;stroke-dasharray:5.0,5.0;" x1="66" x2="66" y1="121.2188" y2="733.7344"/><line style="stroke:#181818;stroke-width:0.5;stroke-dasharray:5.0,5.0;" x1="293.5" x2="293.5" y1="121.2188" y2="733.7344"/><line style="stroke:#181818;stroke-width:0.5;stroke-dasharray:5.0,5.0;" x1="568.5" x2="568.5" y1="121.2188" y2="733.7344"/><line style="stroke:#181818;stroke-width:0.5;stroke-dasharray:5.0,5.0;" x1="907" x2="907" y1="121.2188" y2="733.7344"/><line style="stroke:#181818;stroke-width:0.5;stroke-dasharray:5.0,5.0;" x1="1331.5" x2="1331.5" y1="121.2188" y2="733.7344"/><text fill="#000000" font-family="sans-serif" font-size="14" lengthAdjust="spacing" textLength="116" x="5" y="118.1426">Logistics Operator</text><ellipse cx="66" cy="52.1094" fill="#E2E2F0" rx="8" ry="8" style="stroke:#181818;stroke-width:0.5;"/><path d="M66,60.1094 L66,87.1094 M53,68.1094 L79,68.1094 M66,87.1094 L53,102.1094 M66,87.1094 L79,102.1094 " fill="none" style="stroke:#181818;stroke-width:0.5;"/><text fill="#000000" font-family="sans-serif" font-size="14" lengthAdjust="spacing" textLength="116" x="5" y="747.2676">Logistics Operator</text><ellipse cx="66" cy="758.8438" fill="#E2E2F0" rx="8" ry="8" style="stroke:#181818;stroke-width:0.5;"/><path d="M66,766.8438 L66,793.8438 M53,774.8438 L79,774.8438 M66,793.8438 L53,808.8438 M66,793.8438 L79,808.8438 " fill="none" style="stroke:#181818;stroke-width:0.5;"/><rect fill="#E2E2F0" height="31.6094" rx="2.5" ry="2.5" style="stroke:#181818;stroke-width:0.5;" width="75" x="256.5" y="88.6094"/><text fill="#000000" font-family="sans-serif" font-size="14" lengthAdjust="spacing" textLength="61" x="263.5" y="110.1426">API Client</text><rect fill="#E2E2F0" height="31.6094" rx="2.5" ry="2.5" style="stroke:#181818;stroke-width:0.5;" width="75" x="256.5" y="732.7344"/><text fill="#000000" font-family="sans-serif" font-size="14" lengthAdjust="spacing" textLength="61" x="263.5" y="754.2676">API Client</text><rect fill="#E2E2F0" height="31.6094" rx="2.5" ry="2.5" style="stroke:#181818;stroke-width:0.5;" width="161" x="488.5" y="88.6094"/><text fill="#000000" font-family="sans-serif" font-size="14" lengthAdjust="spacing" textLength="147" x="495.5" y="110.1426">QualificationsController</text><rect fill="#E2E2F0" height="31.6094" rx="2.5" ry="2.5" style="stroke:#181818;stroke-width:0.5;" width="161" x="488.5" y="732.7344"/><text fill="#000000" font-family="sans-serif" font-size="14" lengthAdjust="spacing" textLength="147" x="495.5" y="754.2676">QualificationsController</text><rect fill="#E2E2F0" height="31.6094" rx="2.5" ry="2.5" style="stroke:#181818;stroke-width:0.5;" width="106" x="854" y="88.6094"/><text fill="#000000" font-family="sans-serif" font-size="14" lengthAdjust="spacing" textLength="92" x="861" y="110.1426">PortDbContext</text><rect fill="#E2E2F0" height="31.6094" rx="2.5" ry="2.5" style="stroke:#181818;stroke-width:0.5;" width="106" x="854" y="732.7344"/><text fill="#000000" font-family="sans-serif" font-size="14" lengthAdjust="spacing" textLength="92" x="861" y="754.2676">PortDbContext</text><text fill="#000000" font-family="sans-serif" font-size="14" lengthAdjust="spacing" textLength="93" x="1282.5" y="118.1426">EF (InMemory)</text><path d="M1314,67.6094 C1314,57.6094 1332,57.6094 1332,57.6094 C1332,57.6094 1350,57.6094 1350,67.6094 L1350,93.6094 C1350,103.6094 1332,103.6094 1332,103.6094 C1332,103.6094 1314,103.6094 1314,93.6094 L1314,67.6094 " fill="#E2E2F0" style="stroke:#181818;stroke-width:1.5;"/><path d="M1314,67.6094 C1314,77.6094 1332,77.6094 1332,77.6094 C1332,77.6094 1350,77.6094 1350,67.6094 " fill="none" style="stroke:#181818;stroke-width:1.5;"/><text fill="#000000" font-family="sans-serif" font-size="14" lengthAdjust="spacing" textLength="93" x="1282.5" y="747.2676">EF (InMemory)</text><path d="M1314,760.3438 C1314,750.3438 1332,750.3438 1332,750.3438 C1332,750.3438 1350,750.3438 1350,760.3438 L1350,786.3438 C1350,796.3438 1332,796.3438 1332,796.3438 C1332,796.3438 1314,796.3438 1314,786.3438 L1314,760.3438 " fill="#E2E2F0" style="stroke:#181818;stroke-width:1.5;"/><path d="M1314,760.3438 C1314,770.3438 1332,770.3438 1332,770.3438 C1332,770.3438 1350,770.3438 1350,760.3438 " fill="none" style="stroke:#181818;stroke-width:1.5;"/><rect fill="#FFFFFF" height="523.4609" style="stroke:#181818;stroke-width:1.0;" width="10" x="564" y="200.2734"/><rect fill="#FFFFFF" height="60.7031" style="stroke:#181818;stroke-width:1.0;" width="10" x="902" y="290.3281"/><rect fill="#FFFFFF" height="60.7031" style="stroke:#181818;stroke-width:1.0;" width="10" x="902" y="496.2734"/><polygon fill="#181818" points="282,165.9219,292,169.9219,282,173.9219,286,169.9219" style="stroke:#181818;stroke-width:1.0;"/><line style="stroke:#181818;stroke-width:1.0;" x1="66" x2="288" y1="169.9219" y2="169.9219"/><text fill="#000000" font-family="sans-serif" font-size="13" lengthAdjust="spacing" textLength="139" x="73" y="148.7139">POST /api/qualifications</text><text fill="#000000" font-family="sans-serif" font-size="13" lengthAdjust="spacing" textLength="204" x="73" y="165.0654">{QualificationId, Name, Description}</text><polygon fill="#181818" points="552,196.2734,562,200.2734,552,204.2734,556,200.2734" style="stroke:#181818;stroke-width:1.0;"/><line style="stroke:#181818;stroke-width:1.0;" x1="294" x2="558" y1="200.2734" y2="200.2734"/><text fill="#000000" font-family="sans-serif" font-size="13" lengthAdjust="spacing" textLength="64" x="301" y="195.417">Create(dto)</text><line style="stroke:#181818;stroke-width:1.0;" x1="574" x2="616" y1="246.9766" y2="246.9766"/><line style="stroke:#181818;stroke-width:1.0;" x1="616" x2="616" y1="246.9766" y2="259.9766"/><line style="stroke:#181818;stroke-width:1.0;" x1="575" x2="616" y1="259.9766" y2="259.9766"/><polygon fill="#181818" points="585,255.9766,575,259.9766,585,263.9766,581,259.9766" style="stroke:#181818;stroke-width:1.0;"/><text fill="#000000" font-family="sans-serif" font-size="13" lengthAdjust="spacing" textLength="272" x="581" y="225.7686">Validate QualificationId (alphanumeric, max 15)</text><text fill="#000000" font-family="sans-serif" font-size="13" lengthAdjust="spacing" textLength="225" x="581" y="242.1201">Validate Name (min 2 words, max 150)</text><polygon fill="#181818" points="890,286.3281,900,290.3281,890,294.3281,894,290.3281" style="stroke:#181818;stroke-width:1.0;"/><line style="stroke:#181818;stroke-width:1.0;" x1="574" x2="896" y1="290.3281" y2="290.3281"/><text fill="#000000" font-family="sans-serif" font-size="13" lengthAdjust="spacing" textLength="309" x="581" y="285.4717">Qualifications.AnyAsync(q =&gt; q.QualificationId == ...)</text><polygon fill="#181818" points="1320,316.6797,1330,320.6797,1320,324.6797,1324,320.6797" style="stroke:#181818;stroke-width:1.0;"/><line style="stroke:#181818;stroke-width:1.0;" x1="912" x2="1326" y1="320.6797" y2="320.6797"/><text fill="#000000" font-family="sans-serif" font-size="13" lengthAdjust="spacing" textLength="396" x="919" y="315.8232">SELECT COUNT(*) FROM Qualifications WHERE QualificationId = ?</text><polygon fill="#181818" points="918,347.0313,908,351.0313,918,355.0313,914,351.0313" style="stroke:#181818;stroke-width:1.0;"/><line style="stroke:#181818;stroke-width:1.0;stroke-dasharray:2.0,2.0;" x1="912" x2="1331" y1="351.0313" y2="351.0313"/><text fill="#000000" font-family="sans-serif" font-size="13" lengthAdjust="spacing" textLength="32" x="924" y="346.1748">count</text><path d="M246.5,366.0313 L307.5,366.0313 L307.5,374.3828 L297.5,384.3828 L246.5,384.3828 L246.5,366.0313 " fill="#EEEEEE" style="stroke:#000000;stroke-width:1.5;"/><rect fill="none" height="350.7031" style="stroke:#000000;stroke-width:1.5;" width="1145" x="246.5" y="366.0313"/><text fill="#000000" font-family="sans-serif" font-size="13" font-weight="bold" lengthAdjust="spacing" textLength="16" x="261.5" y="380.5264">alt</text><text fill="#000000" font-family="sans-serif" font-size="11" font-weight="bold" lengthAdjust="spacing" textLength="42" x="322.5" y="379.4502">[exists]</text><polygon fill="#181818" points="305,402.7344,295,406.7344,305,410.7344,301,406.7344" style="stroke:#181818;stroke-width:1.0;"/><line style="stroke:#181818;stroke-width:1.0;stroke-dasharray:2.0,2.0;" x1="299" x2="563" y1="406.7344" y2="406.7344"/><text fill="#000000" font-family="sans-serif" font-size="13" lengthAdjust="spacing" textLength="246" x="311" y="401.8779">409 Conflict ("Qualification already exists")</text><line style="stroke:#000000;stroke-width:1.0;stroke-dasharray:2.0,2.0;" x1="246.5" x2="1391.5" y1="415.7344" y2="415.7344"/><text fill="#000000" font-family="sans-serif" font-size="11" font-weight="bold" lengthAdjust="spacing" textLength="54" x="251.5" y="427.1533">[proceed]</text><line style="stroke:#181818;stroke-width:1.0;" x1="574" x2="616" y1="452.9219" y2="452.9219"/><line style="stroke:#181818;stroke-width:1.0;" x1="616" x2="616" y1="452.9219" y2="465.9219"/><line style="stroke:#181818;stroke-width:1.0;" x1="575" x2="616" y1="465.9219" y2="465.9219"/><polygon fill="#181818" points="585,461.9219,575,465.9219,585,469.9219,581,465.9219" style="stroke:#181818;stroke-width:1.0;"/><text fill="#000000" font-family="sans-serif" font-size="13" lengthAdjust="spacing" textLength="300" x="581" y="448.0654">new StaffMemberQualification(id, name, description)</text><polygon fill="#181818" points="890,492.2734,900,496.2734,890,500.2734,894,496.2734" style="stroke:#181818;stroke-width:1.0;"/><line style="stroke:#181818;stroke-width:1.0;" x1="574" x2="896" y1="496.2734" y2="496.2734"/><text fill="#000000" font-family="sans-serif" font-size="13" lengthAdjust="spacing" textLength="145" x="581" y="491.417">Qualifications.Add(entity)</text><polygon fill="#181818" points="1320,522.625,1330,526.625,1320,530.625,1324,526.625" style="stroke:#181818;stroke-width:1.0;"/><line style="stroke:#181818;stroke-width:1.0;" x1="912" x2="1326" y1="526.625" y2="526.625"/><text fill="#000000" font-family="sans-serif" font-size="13" lengthAdjust="spacing" textLength="161" x="919" y="521.7686">INSERT INTO Qualifications</text><polygon fill="#181818" points="918,552.9766,908,556.9766,918,560.9766,914,556.9766" style="stroke:#181818;stroke-width:1.0;"/><line style="stroke:#181818;stroke-width:1.0;stroke-dasharray:2.0,2.0;" x1="912" x2="1331" y1="556.9766" y2="556.9766"/><text fill="#000000" font-family="sans-serif" font-size="13" lengthAdjust="spacing" textLength="14" x="924" y="552.1201">ok</text><polygon fill="#181818" points="895,583.3281,905,587.3281,895,591.3281,899,587.3281" style="stroke:#181818;stroke-width:1.0;"/><line style="stroke:#181818;stroke-width:1.0;" x1="574" x2="901" y1="587.3281" y2="587.3281"/><text fill="#000000" font-family="sans-serif" font-size="13" lengthAdjust="spacing" textLength="124" x="581" y="582.4717">SaveChangesAsync()</text><polygon fill="#181818" points="1320,613.6797,1330,617.6797,1320,621.6797,1324,617.6797" style="stroke:#181818;stroke-width:1.0;"/><line style="stroke:#181818;stroke-width:1.0;" x1="907" x2="1326" y1="617.6797" y2="617.6797"/><text fill="#000000" font-family="sans-serif" font-size="13" lengthAdjust="spacing" textLength="43" x="914" y="612.8232">commit</text><polygon fill="#181818" points="918,644.0313,908,648.0313,918,652.0313,914,648.0313" style="stroke:#181818;stroke-width:1.0;"/><line style="stroke:#181818;stroke-width:1.0;stroke-dasharray:2.0,2.0;" x1="912" x2="1331" y1="648.0313" y2="648.0313"/><text fill="#000000" font-family="sans-serif" font-size="13" lengthAdjust="spacing" textLength="14" x="924" y="643.1748">ok</text><polygon fill="#181818" points="585,674.3828,575,678.3828,585,682.3828,581,678.3828" style="stroke:#181818;stroke-width:1.0;"/><line style="stroke:#181818;stroke-width:1.0;stroke-dasharray:2.0,2.0;" x1="579" x2="906" y1="678.3828" y2="678.3828"/><text fill="#000000" font-family="sans-serif" font-size="13" lengthAdjust="spacing" textLength="14" x="591" y="673.5264">ok</text><polygon fill="#181818" points="305,704.7344,295,708.7344,305,712.7344,301,708.7344" style="stroke:#181818;stroke-width:1.0;"/><line style="stroke:#181818;stroke-width:1.0;stroke-dasharray:2.0,2.0;" x1="299" x2="563" y1="708.7344" y2="708.7344"/><text fill="#000000" font-family="sans-serif" font-size="13" lengthAdjust="spacing" textLength="154" x="311" y="703.8779">201 Created + qualification</text><!--SRC=[TLF1Zfim5BpxAvuuGPjaiwlsq4hPAW9MHTeDQKZRoruCVjbQDJOnpcwYgl_UHo1TIDeJO8zdnZCF9vr2oB88nX1Qv0xXouuhkP45Tz9endZXZ0NltZp9sicYXhH2osdD0_xwmIfkQLTMN3lmvii4GYLHkoEeVHr21YfrQBIpHYbiMSCXTcciY_86W_kMCSgPu8xdl4RmuZlm4_s0fR67uBYTaIDax6GEnhUT1_W8opHRmnMlvDLsOE5H_nfuIiG85hp44KHO5rPMpU9lrl4qZ4JMHkOBPu8cAFdS11Wo5fu0tuXHNAIQ2F2vgdvmlIlHoc849T_3zVlWKVyzq6Y3NqeDD_1YhAXFe6dGyKSv2GnpdCprOLuVTE5lONOBsycvx6m6aycaPvQI91vYEsP6X5by7uTh2DElYxN_9e2xLVfmfWBVFyUh-E9AC_Z4MfRnoLrXTbIymBuSuye1xccQQWOKqhZVphlf1w2YDqeM3lpXb01N5BSuT8UzWA6Y_Yjh2aJHShMfQtoX-_3DXeOYHpjWyIKLgu_5YjTYWzFnVuOgX4_sf3iqiFvT08RX9OiiNgtfiKxFI0XwbetvIMjdqVHDPFmPGngH9wpRIeCBkSAKfNJ_eMwWNHxqVHdrpVIwcry1Rs7mCp3KejzQ-0S0]--></g></svg>