<?xml version="1.0" encoding="us-ascii" standalone="no"?><svg xmlns="http://www.w3.org/2000/svg" xmlns:xlink="http://www.w3.org/1999/xlink" contentStyleType="text/css" height="797px" preserveAspectRatio="none" style="width:813px;height:797px;background:#FFFFFF;" version="1.1" viewBox="0 0 813 797" width="813px" zoomAndPan="magnify"><defs/><g><text fill="#000000" font-family="sans-serif" font-size="14" font-weight="bold" lengthAdjust="spacing" textLength="267" x="266" y="24.5332">C4 Container - US 2.2.13 Qualifications</text><!--cluster Client Layer--><g id="cluster_Client Layer"><polygon fill="none" points="432,213.1094,442,203.1094,591,203.1094,591,298.1094,581,308.1094,432,308.1094,432,213.1094" style="stroke:#181818;stroke-width:1.0;"/><line style="stroke:#181818;stroke-width:1.0;" x1="581" x2="591" y1="213.1094" y2="203.1094"/><line style="stroke:#181818;stroke-width:1.0;" x1="432" x2="581" y1="213.1094" y2="213.1094"/><line style="stroke:#181818;stroke-width:1.0;" x1="581" x2="581" y1="213.1094" y2="308.1094"/><text fill="#000000" font-family="sans-serif" font-size="14" font-weight="bold" lengthAdjust="spacing" textLength="83" x="466" y="230.6426">Client Layer</text></g><!--cluster Web API--><g id="cluster_Web API"><polygon fill="none" points="401,368.1094,411,358.1094,621,358.1094,621,453.1094,611,463.1094,401,463.1094,401,368.1094" style="stroke:#181818;stroke-width:1.0;"/><line style="stroke:#181818;stroke-width:1.0;" x1="611" x2="621" y1="368.1094" y2="358.1094"/><line style="stroke:#181818;stroke-width:1.0;" x1="401" x2="611" y1="368.1094" y2="368.1094"/><line style="stroke:#181818;stroke-width:1.0;" x1="611" x2="611" y1="368.1094" y2="463.1094"/><text fill="#000000" font-family="sans-serif" font-size="14" font-weight="bold" lengthAdjust="spacing" textLength="57" x="478.5" y="385.6426">Web API</text></g><!--cluster Application Layer--><g id="cluster_Application Layer"><polygon fill="none" points="412,523.1094,422,513.1094,610,513.1094,610,608.1094,600,618.1094,412,618.1094,412,523.1094" style="stroke:#181818;stroke-width:1.0;"/><line style="stroke:#181818;stroke-width:1.0;" x1="600" x2="610" y1="523.1094" y2="513.1094"/><line style="stroke:#181818;stroke-width:1.0;" x1="412" x2="600" y1="523.1094" y2="523.1094"/><line style="stroke:#181818;stroke-width:1.0;" x1="600" x2="600" y1="523.1094" y2="618.1094"/><text fill="#000000" font-family="sans-serif" font-size="14" font-weight="bold" lengthAdjust="spacing" textLength="120" x="447" y="540.6426">Application Layer</text></g><!--cluster Dom--><g id="cluster_Dom"><polygon fill="none" points="16,523.1094,26,513.1094,377,513.1094,377,766.1094,367,776.1094,16,776.1094,16,523.1094" style="stroke:#181818;stroke-width:1.0;"/><line style="stroke:#181818;stroke-width:1.0;" x1="367" x2="377" y1="523.1094" y2="513.1094"/><line style="stroke:#181818;stroke-width:1.0;" x1="16" x2="367" y1="523.1094" y2="523.1094"/><line style="stroke:#181818;stroke-width:1.0;" x1="367" x2="367" y1="523.1094" y2="776.1094"/><text fill="#000000" font-family="sans-serif" font-size="14" font-weight="bold" lengthAdjust="spacing" textLength="52" x="166.5" y="540.6426">Domain</text></g><!--entity Client--><g id="elem_Client"><rect fill="#F1F1F1" height="47.6094" rx="2.5" ry="2.5" style="stroke:#181818;stroke-width:0.5;" width="125" x="448.5" y="244.1094"/><rect fill="#F1F1F1" height="10" style="stroke:#181818;stroke-width:0.5;" width="15" x="553.5" y="249.1094"/><rect fill="#F1F1F1" height="2" style="stroke:#181818;stroke-width:0.5;" width="4" x="551.5" y="251.1094"/><rect fill="#F1F1F1" height="2" style="stroke:#181818;stroke-width:0.5;" width="4" x="551.5" y="255.1094"/><text fill="#000000" font-family="sans-serif" font-size="14" lengthAdjust="spacing" textLength="85" x="463.5" y="278.6426">UI / API Client</text></g><!--entity Ctl--><g id="elem_Ctl"><rect fill="#F1F1F1" height="47.6094" rx="2.5" ry="2.5" style="stroke:#181818;stroke-width:0.5;" width="187" x="417.5" y="399.1094"/><rect fill="#F1F1F1" height="10" style="stroke:#181818;stroke-width:0.5;" width="15" x="584.5" y="404.1094"/><rect fill="#F1F1F1" height="2" style="stroke:#181818;stroke-width:0.5;" width="4" x="582.5" y="406.1094"/><rect fill="#F1F1F1" height="2" style="stroke:#181818;stroke-width:0.5;" width="4" x="582.5" y="410.1094"/><text fill="#000000" font-family="sans-serif" font-size="14" lengthAdjust="spacing" textLength="147" x="432.5" y="433.6426">QualificationsController</text></g><!--entity Svc--><g id="elem_Svc"><rect fill="#F1F1F1" height="47.6094" rx="2.5" ry="2.5" style="stroke:#181818;stroke-width:0.5;" width="165" x="428.5" y="554.1094"/><rect fill="#F1F1F1" height="10" style="stroke:#181818;stroke-width:0.5;" width="15" x="573.5" y="559.1094"/><rect fill="#F1F1F1" height="2" style="stroke:#181818;stroke-width:0.5;" width="4" x="571.5" y="561.1094"/><rect fill="#F1F1F1" height="2" style="stroke:#181818;stroke-width:0.5;" width="4" x="571.5" y="565.1094"/><text fill="#000000" font-family="sans-serif" font-size="14" lengthAdjust="spacing" textLength="125" x="443.5" y="588.6426">QualificationService</text></g><!--entity Q--><g id="elem_Q"><rect fill="#F1F1F1" height="47.6094" rx="2.5" ry="2.5" style="stroke:#181818;stroke-width:0.5;" width="118" x="209" y="712.1094"/><rect fill="#F1F1F1" height="10" style="stroke:#181818;stroke-width:0.5;" width="15" x="307" y="717.1094"/><rect fill="#F1F1F1" height="2" style="stroke:#181818;stroke-width:0.5;" width="4" x="305" y="719.1094"/><rect fill="#F1F1F1" height="2" style="stroke:#181818;stroke-width:0.5;" width="4" x="305" y="723.1094"/><text fill="#000000" font-family="sans-serif" font-size="14" lengthAdjust="spacing" textLength="78" x="224" y="746.6426">Qualification</text></g><!--entity Staff--><g id="elem_Staff"><rect fill="#F1F1F1" height="47.6094" rx="2.5" ry="2.5" style="stroke:#181818;stroke-width:0.5;" width="120" x="221" y="554.1094"/><rect fill="#F1F1F1" height="10" style="stroke:#181818;stroke-width:0.5;" width="15" x="321" y="559.1094"/><rect fill="#F1F1F1" height="2" style="stroke:#181818;stroke-width:0.5;" width="4" x="319" y="561.1094"/><rect fill="#F1F1F1" height="2" style="stroke:#181818;stroke-width:0.5;" width="4" x="319" y="565.1094"/><text fill="#000000" font-family="sans-serif" font-size="14" lengthAdjust="spacing" textLength="80" x="236" y="588.6426">StaffMember</text></g><!--entity Resource--><g id="elem_Resource"><rect fill="#F1F1F1" height="47.6094" rx="2.5" ry="2.5" style="stroke:#181818;stroke-width:0.5;" width="153" x="32.5" y="554.1094"/><rect fill="#F1F1F1" height="10" style="stroke:#181818;stroke-width:0.5;" width="15" x="165.5" y="559.1094"/><rect fill="#F1F1F1" height="2" style="stroke:#181818;stroke-width:0.5;" width="4" x="163.5" y="561.1094"/><rect fill="#F1F1F1" height="2" style="stroke:#181818;stroke-width:0.5;" width="4" x="163.5" y="565.1094"/><text fill="#000000" font-family="sans-serif" font-size="14" lengthAdjust="spacing" textLength="113" x="47.5" y="588.6426">PhysicalResource</text></g><!--entity Operator--><g id="elem_Operator"><ellipse cx="511" cy="52.6094" fill="#F1F1F1" rx="8" ry="8" style="stroke:#181818;stroke-width:0.5;"/><path d="M511,60.6094 L511,87.6094 M498,68.6094 L524,68.6094 M511,87.6094 L498,102.6094 M511,87.6094 L524,102.6094 " fill="none" style="stroke:#181818;stroke-width:0.5;"/><text fill="#000000" font-family="sans-serif" font-size="14" lengthAdjust="spacing" textLength="55" x="482.5" y="118.6426">Logistics</text><text fill="#000000" font-family="sans-serif" font-size="14" lengthAdjust="spacing" textLength="57" x="482.5" y="136.252">Operator</text></g><!--entity Db--><g id="elem_Db"><path d="M475,722.6094 C475,712.6094 522,712.6094 522,712.6094 C522,712.6094 569,712.6094 569,722.6094 L569,749.2188 C569,759.2188 522,759.2188 522,759.2188 C522,759.2188 475,759.2188 475,749.2188 L475,722.6094 " fill="#F1F1F1" style="stroke:#181818;stroke-width:0.5;"/><path d="M475,722.6094 C475,732.6094 522,732.6094 522,732.6094 C522,732.6094 569,732.6094 569,722.6094 " fill="none" style="stroke:#181818;stroke-width:0.5;"/><text fill="#000000" font-family="sans-serif" font-size="14" lengthAdjust="spacing" textLength="74" x="485" y="751.1426">Persistence</text></g><g id="elem_GMN21"><path d="M604,682.1094 L604,790.2188 L806,790.2188 L806,692.1094 L796,682.1094 L604,682.1094 " fill="#FEFFDD" style="stroke:#181818;stroke-width:0.5;"/><path d="M796,682.1094 L796,692.1094 L806,692.1094 L796,682.1094 " fill="#FEFFDD" style="stroke:#181818;stroke-width:1.0;"/><text fill="#000000" font-family="sans-serif" font-size="13" lengthAdjust="spacing" textLength="75" x="610" y="700.6045">Qualification:</text><text fill="#000000" font-family="sans-serif" font-size="13" lengthAdjust="spacing" textLength="175" x="610" y="716.9561">- Code (max 15 chars, unique)</text><text fill="#000000" font-family="sans-serif" font-size="13" lengthAdjust="spacing" textLength="166" x="610" y="733.3076">- Name (&#8805;2 words, max 150)</text><text fill="#000000" font-family="sans-serif" font-size="13" lengthAdjust="spacing" textLength="130" x="610" y="749.6592">- Description (optional)</text><text fill="#000000" font-family="sans-serif" font-size="13" lengthAdjust="spacing" textLength="181" x="610" y="766.0107">- Code immutable after creation</text><text fill="#000000" font-family="sans-serif" font-size="13" lengthAdjust="spacing" textLength="180" x="610" y="782.3623">- Referenced by staff/resources</text></g><!--link Operator to Client--><g id="link_Operator_Client"><path d="M511,139.3694 C511,173.0894 511,211.1794 511,237.7494 " fill="none" id="Operator-to-Client" style="stroke:#181818;stroke-width:1.0;"/><polygon fill="#181818" points="511,243.7494,515,234.7494,511,238.7494,507,234.7494,511,243.7494" style="stroke:#181818;stroke-width:1.0;"/><text fill="#000000" font-family="sans-serif" font-size="13" lengthAdjust="spacing" textLength="125" x="512" y="183.6045">manage qualifications</text></g><!--link Client to Ctl--><g id="link_Client_Ctl"><path d="M511,292.3494 C511,321.0994 511,363.7994 511,392.6494 " fill="none" id="Client-to-Ctl" style="stroke:#181818;stroke-width:1.0;"/><polygon fill="#181818" points="511,398.6494,515,389.6494,511,393.6494,507,389.6494,511,398.6494" style="stroke:#181818;stroke-width:1.0;"/><text fill="#000000" font-family="sans-serif" font-size="13" lengthAdjust="spacing" textLength="148" x="512" y="338.6045">POST/PUT/GET/DELETE</text></g><!--link Ctl to Svc--><g id="link_Ctl_Svc"><path d="M511,447.3494 C511,476.0994 511,518.7994 511,547.6494 " fill="none" id="Ctl-to-Svc" style="stroke:#181818;stroke-width:1.0;"/><polygon fill="#181818" points="511,553.6494,515,544.6494,511,548.6494,507,544.6494,511,553.6494" style="stroke:#181818;stroke-width:1.0;"/><text fill="#000000" font-family="sans-serif" font-size="13" lengthAdjust="spacing" textLength="100" x="512" y="493.6045">CRUD operations</text></g><!--link Svc to Db--><g id="link_Svc_Db"><path d="M512.62,602.1294 C514.71,631.7894 517.9074,677.0543 519.9874,706.5143 " fill="none" id="Svc-to-Db" style="stroke:#181818;stroke-width:1.0;"/><polygon fill="#181818" points="520.41,712.4994,523.7662,703.24,520.0579,707.5118,515.7861,703.8034,520.41,712.4994" style="stroke:#181818;stroke-width:1.0;"/><text fill="#000000" font-family="sans-serif" font-size="13" lengthAdjust="spacing" textLength="84" x="516" y="648.6045">persist/retrieve</text></g><!--link Svc to Q--><g id="link_Svc_Q"><path d="M475.14,602.1294 C429.2,631.6194 355.0693,679.2183 309.0493,708.7583 " fill="none" id="Svc-to-Q" style="stroke:#181818;stroke-width:1.0;stroke-dasharray:7.0,7.0;"/><polygon fill="#181818" points="304,711.9994,313.7347,710.5039,308.2077,709.2985,309.4132,703.7715,304,711.9994" style="stroke:#181818;stroke-width:1.0;"/><text fill="#000000" font-family="sans-serif" font-size="13" lengthAdjust="spacing" textLength="79" x="420" y="648.6045">create/update</text></g><!--link Staff to Q--><g id="link_Staff_Q"><path d="M252.85,602.3494 C244.13,611.2694 235.61,622.1894 231,634.1094 C220.76,660.5894 232.3761,686.2543 246.2161,706.7843 " fill="none" id="Staff-to-Q" style="stroke:#181818;stroke-width:1.0;"/><polygon fill="#181818" points="249.57,711.7594,247.8559,702.0608,246.7751,707.6135,241.2225,706.5327,249.57,711.7594" style="stroke:#181818;stroke-width:1.0;"/><text fill="#000000" font-family="sans-serif" font-size="13" lengthAdjust="spacing" textLength="125" x="232" y="648.6045">requires qualifications</text></g><!--link Resource to Q--><g id="link_Resource_Q"><path d="M95.53,602.3594 C88.67,617.5294 83.57,637.1994 93,652.1094 C118.25,692.0394 162.7095,711.5679 202.9095,722.4779 " fill="none" id="Resource-to-Q" style="stroke:#181818;stroke-width:1.0;"/><polygon fill="#181818" points="208.7,724.0494,201.0619,717.8317,203.8746,722.7398,198.9665,725.5525,208.7,724.0494" style="stroke:#181818;stroke-width:1.0;"/><text fill="#000000" font-family="sans-serif" font-size="13" lengthAdjust="spacing" textLength="125" x="94" y="648.6045">requires qualifications</text></g><!--link Q to GMN21--><g id="link_Q_GMN21"><path d="M306.6,712.0494 C363.99,679.3494 475.19,627.7994 569.5,654.1094 C590.95,660.0994 612.4,670.4994 631.69,681.9294 " fill="none" id="Q-GMN21" style="stroke:#181818;stroke-width:1.0;stroke-dasharray:7.0,7.0;"/></g><!--SRC=[XLD1Rjim4Bph5GkV4Y2s6hUzv10Wi8mYWDl8beqUcXvMqiecG94oIJarYZwW3yd7yf8iAGc1WW8zIToPMUuCIIUS95XyWeLM3eKY0rFOPJ2VpMVN7s7TeXILAD09hMmKOU6qWSbAxuLreh2Fwg4XWroS05eO5b6aT4amMKX1oi4ApyI4tn70Zzqzn72NtaE7_VIoxZVwCyY-K-uflM8yWv_JQ2d9T58dttHtJIDxtcZFKOUCp4aK5DJPgV3g4XtcQBb3IiQoCr851KD9thTETCtfT3LT_wDjwBVsvSnXLNsbEkz736iFf8UpPRRSaDMjwKSO5dwE8JwOJc_xKE06QbIu9pYEZwA70zD9fgKFsJPETzluot8R9ylLShkCFE8Px9CPYyqk0Hts22ryrQD9pc3JEOyDEIFeH06TpMvXpM1X21t5RSD9CU8D1QN731rROSY-7t0mzbyY9-m8ZDWV7EWgP3XAzeOBKxwVV0mNDVw2wyzG7D3OAsYLEBPq6V1lM3F-ylTv3a_Qb8nst0yTd90jZ6Z2rRZGuOloygspgEkMBm6_1QmSFuBWc4c1iQ6AZByJ9UHdiDu-vzJPin6f4ho5w1K0]--></g></svg>