<?xml version="1.0" encoding="us-ascii" standalone="no"?><svg xmlns="http://www.w3.org/2000/svg" xmlns:xlink="http://www.w3.org/1999/xlink" contentStyleType="text/css" height="435px" preserveAspectRatio="none" style="width:1143px;height:435px;background:#FFFFFF;" version="1.1" viewBox="0 0 1143 435" width="1143px" zoomAndPan="magnify"><defs/><g><text fill="#000000" font-family="sans-serif" font-size="14" font-weight="bold" lengthAdjust="spacing" textLength="227" x="459.75" y="29.5332">SSD - List / Search Qualifications</text><rect fill="#FFFFFF" height="121.4063" style="stroke:#181818;stroke-width:1.0;" width="10" x="461" y="183.9219"/><rect fill="#FFFFFF" height="60.7031" style="stroke:#181818;stroke-width:1.0;" width="10" x="807" y="214.2734"/><line style="stroke:#181818;stroke-width:0.5;stroke-dasharray:5.0,5.0;" x1="66" x2="66" y1="121.2188" y2="353.6797"/><line style="stroke:#181818;stroke-width:0.5;stroke-dasharray:5.0,5.0;" x1="293.5" x2="293.5" y1="121.2188" y2="353.6797"/><line style="stroke:#181818;stroke-width:0.5;stroke-dasharray:5.0,5.0;" x1="465.5" x2="465.5" y1="121.2188" y2="353.6797"/><line style="stroke:#181818;stroke-width:0.5;stroke-dasharray:5.0,5.0;" x1="812" x2="812" y1="121.2188" y2="353.6797"/><line style="stroke:#181818;stroke-width:0.5;stroke-dasharray:5.0,5.0;" x1="1092.5" x2="1092.5" y1="121.2188" y2="353.6797"/><text fill="#000000" font-family="sans-serif" font-size="14" lengthAdjust="spacing" textLength="116" x="5" y="118.1426">Logistics Operator</text><ellipse cx="66" cy="52.1094" fill="#E2E2F0" rx="8" ry="8" style="stroke:#181818;stroke-width:0.5;"/><path d="M66,60.1094 L66,87.1094 M53,68.1094 L79,68.1094 M66,87.1094 L53,102.1094 M66,87.1094 L79,102.1094 " fill="none" style="stroke:#181818;stroke-width:0.5;"/><text fill="#000000" font-family="sans-serif" font-size="14" lengthAdjust="spacing" textLength="116" x="5" y="367.2129">Logistics Operator</text><ellipse cx="66" cy="378.7891" fill="#E2E2F0" rx="8" ry="8" style="stroke:#181818;stroke-width:0.5;"/><path d="M66,386.7891 L66,413.7891 M53,394.7891 L79,394.7891 M66,413.7891 L53,428.7891 M66,413.7891 L79,428.7891 " fill="none" style="stroke:#181818;stroke-width:0.5;"/><rect fill="#E2E2F0" height="31.6094" rx="2.5" ry="2.5" style="stroke:#181818;stroke-width:0.5;" width="75" x="256.5" y="88.6094"/><text fill="#000000" font-family="sans-serif" font-size="14" lengthAdjust="spacing" textLength="61" x="263.5" y="110.1426">API Client</text><rect fill="#E2E2F0" height="31.6094" rx="2.5" ry="2.5" style="stroke:#181818;stroke-width:0.5;" width="75" x="256.5" y="352.6797"/><text fill="#000000" font-family="sans-serif" font-size="14" lengthAdjust="spacing" textLength="61" x="263.5" y="374.2129">API Client</text><rect fill="#E2E2F0" height="31.6094" rx="2.5" ry="2.5" style="stroke:#181818;stroke-width:0.5;" width="161" x="385.5" y="88.6094"/><text fill="#000000" font-family="sans-serif" font-size="14" lengthAdjust="spacing" textLength="147" x="392.5" y="110.1426">QualificationsController</text><rect fill="#E2E2F0" height="31.6094" rx="2.5" ry="2.5" style="stroke:#181818;stroke-width:0.5;" width="161" x="385.5" y="352.6797"/><text fill="#000000" font-family="sans-serif" font-size="14" lengthAdjust="spacing" textLength="147" x="392.5" y="374.2129">QualificationsController</text><rect fill="#E2E2F0" height="31.6094" rx="2.5" ry="2.5" style="stroke:#181818;stroke-width:0.5;" width="106" x="759" y="88.6094"/><text fill="#000000" font-family="sans-serif" font-size="14" lengthAdjust="spacing" textLength="92" x="766" y="110.1426">PortDbContext</text><rect fill="#E2E2F0" height="31.6094" rx="2.5" ry="2.5" style="stroke:#181818;stroke-width:0.5;" width="106" x="759" y="352.6797"/><text fill="#000000" font-family="sans-serif" font-size="14" lengthAdjust="spacing" textLength="92" x="766" y="374.2129">PortDbContext</text><text fill="#000000" font-family="sans-serif" font-size="14" lengthAdjust="spacing" textLength="93" x="1043.5" y="118.1426">EF (InMemory)</text><path d="M1075,67.6094 C1075,57.6094 1093,57.6094 1093,57.6094 C1093,57.6094 1111,57.6094 1111,67.6094 L1111,93.6094 C1111,103.6094 1093,103.6094 1093,103.6094 C1093,103.6094 1075,103.6094 1075,93.6094 L1075,67.6094 " fill="#E2E2F0" style="stroke:#181818;stroke-width:1.5;"/><path d="M1075,67.6094 C1075,77.6094 1093,77.6094 1093,77.6094 C1093,77.6094 1111,77.6094 1111,67.6094 " fill="none" style="stroke:#181818;stroke-width:1.5;"/><text fill="#000000" font-family="sans-serif" font-size="14" lengthAdjust="spacing" textLength="93" x="1043.5" y="367.2129">EF (InMemory)</text><path d="M1075,380.2891 C1075,370.2891 1093,370.2891 1093,370.2891 C1093,370.2891 1111,370.2891 1111,380.2891 L1111,406.2891 C1111,416.2891 1093,416.2891 1093,416.2891 C1093,416.2891 1075,416.2891 1075,406.2891 L1075,380.2891 " fill="#E2E2F0" style="stroke:#181818;stroke-width:1.5;"/><path d="M1075,380.2891 C1075,390.2891 1093,390.2891 1093,390.2891 C1093,390.2891 1111,390.2891 1111,380.2891 " fill="none" style="stroke:#181818;stroke-width:1.5;"/><rect fill="#FFFFFF" height="121.4063" style="stroke:#181818;stroke-width:1.0;" width="10" x="461" y="183.9219"/><rect fill="#FFFFFF" height="60.7031" style="stroke:#181818;stroke-width:1.0;" width="10" x="807" y="214.2734"/><polygon fill="#181818" points="282,149.5703,292,153.5703,282,157.5703,286,153.5703" style="stroke:#181818;stroke-width:1.0;"/><line style="stroke:#181818;stroke-width:1.0;" x1="66" x2="288" y1="153.5703" y2="153.5703"/><text fill="#000000" font-family="sans-serif" font-size="13" lengthAdjust="spacing" textLength="204" x="73" y="148.7139">GET /api/qualifications?id=&amp;name=</text><polygon fill="#181818" points="449,179.9219,459,183.9219,449,187.9219,453,183.9219" style="stroke:#181818;stroke-width:1.0;"/><line style="stroke:#181818;stroke-width:1.0;" x1="294" x2="455" y1="183.9219" y2="183.9219"/><text fill="#000000" font-family="sans-serif" font-size="13" lengthAdjust="spacing" textLength="93" x="301" y="179.0654">Get(id?, name?)</text><polygon fill="#181818" points="795,210.2734,805,214.2734,795,218.2734,799,214.2734" style="stroke:#181818;stroke-width:1.0;"/><line style="stroke:#181818;stroke-width:1.0;" x1="471" x2="801" y1="214.2734" y2="214.2734"/><text fill="#000000" font-family="sans-serif" font-size="13" lengthAdjust="spacing" textLength="317" x="478" y="209.417">Qualifications.Where(...).AsNoTracking().ToListAsync()</text><polygon fill="#181818" points="1081,240.625,1091,244.625,1081,248.625,1085,244.625" style="stroke:#181818;stroke-width:1.0;"/><line style="stroke:#181818;stroke-width:1.0;" x1="817" x2="1087" y1="244.625" y2="244.625"/><text fill="#000000" font-family="sans-serif" font-size="13" lengthAdjust="spacing" textLength="252" x="824" y="239.7686">SELECT * FROM Qualifications WHERE ...</text><polygon fill="#181818" points="823,270.9766,813,274.9766,823,278.9766,819,274.9766" style="stroke:#181818;stroke-width:1.0;"/><line style="stroke:#181818;stroke-width:1.0;stroke-dasharray:2.0,2.0;" x1="817" x2="1092" y1="274.9766" y2="274.9766"/><text fill="#000000" font-family="sans-serif" font-size="13" lengthAdjust="spacing" textLength="83" x="829" y="270.1201">qualifications[]</text><polygon fill="#181818" points="305,301.3281,295,305.3281,305,309.3281,301,305.3281" style="stroke:#181818;stroke-width:1.0;"/><line style="stroke:#181818;stroke-width:1.0;stroke-dasharray:2.0,2.0;" x1="299" x2="465" y1="305.3281" y2="305.3281"/><text fill="#000000" font-family="sans-serif" font-size="13" lengthAdjust="spacing" textLength="143" x="311" y="300.4717">200 OK + qualifications[]</text><polygon fill="#181818" points="77,331.6797,67,335.6797,77,339.6797,73,335.6797" style="stroke:#181818;stroke-width:1.0;"/><line style="stroke:#181818;stroke-width:1.0;stroke-dasharray:2.0,2.0;" x1="71" x2="293" y1="335.6797" y2="335.6797"/><text fill="#000000" font-family="sans-serif" font-size="13" lengthAdjust="spacing" textLength="184" x="83" y="330.8232">Display qualifications (filter/sort)</text><!--SRC=[VP51Jy9048Nl-oicFPXMfH2F94X8MvG8WhG91-DXsWwmiUpMtTN8ltUNWb8EtdPtlddpvgtXfY98qnWwCENQG1TIGbLiuUKJAxxc1HekXMOC2oCLU5EviHWlDCnhKcZVFC2_2wjHsIglKHZmHei9H1KdOGvGSsmZxJ6H54R9gg96DMgp2wbCd3k6lXl5E6Sb6inH4tZ96Fo9cD5EgdrmAAVM4J5sCWUT-wC7wCD3aa4NQzxzQ3aOyd9m9N170tP4NPFZoVYy7Dw2Amu3bmV_GaFM98iS5EUMQgyJhhQao0_3C0X7-bbc2ejtBZP-46RInJtIUr7uPs9s8QjZrGxMhM2QJ9CeWsiOB-Up2tbOFIRB1AmyQ_3EoKPxfzStLjBv26VuF8kxNW_cJt3pRv_RyvY8xVtDj0ynrtM5-ujcyDUyCgIwslvQy0C0]--></g></svg>