<?xml version="1.0" encoding="us-ascii" standalone="no"?><svg xmlns="http://www.w3.org/2000/svg" xmlns:xlink="http://www.w3.org/1999/xlink" contentStyleType="text/css" height="1017px" preserveAspectRatio="none" style="width:1786px;height:1017px;background:#FFFFFF;" version="1.1" viewBox="0 0 1786 1017" width="1786px" zoomAndPan="magnify"><defs/><g><text fill="#000000" font-family="sans-serif" font-size="14" font-weight="bold" lengthAdjust="spacing" textLength="455" x="658.5" y="24.5332">System Diagram - US 2.2.5 Register Shipping Agent Organizations</text><!--cluster Client Layer--><g id="cluster_Client Layer"><rect fill="none" height="100" rx="2.5" ry="2.5" style="stroke:#181818;stroke-width:1.0;" width="202" x="462" y="186.1094"/><text fill="#000000" font-family="sans-serif" font-size="14" font-weight="bold" lengthAdjust="spacing" textLength="83" x="521.5" y="202.6426">Client Layer</text></g><!--cluster Web API--><g id="cluster_Web API"><polygon fill="none" points="452,362.1094,462,352.1094,674,352.1094,674,447.1094,664,457.1094,452,457.1094,452,362.1094" style="stroke:#181818;stroke-width:1.0;"/><line style="stroke:#181818;stroke-width:1.0;" x1="664" x2="674" y1="362.1094" y2="352.1094"/><line style="stroke:#181818;stroke-width:1.0;" x1="452" x2="664" y1="362.1094" y2="362.1094"/><line style="stroke:#181818;stroke-width:1.0;" x1="664" x2="664" y1="362.1094" y2="457.1094"/><text fill="#000000" font-family="sans-serif" font-size="14" font-weight="bold" lengthAdjust="spacing" textLength="57" x="530.5" y="379.6426">Web API</text></g><!--cluster Application DTOs--><g id="cluster_Application DTOs"><path d="M8.5,507.1094 L128.5,507.1094 A3.75,3.75 0 0 1 131,509.6094 L138,530.7188 L912.5,530.7188 A2.5,2.5 0 0 1 915,533.2188 L915,604.6094 A2.5,2.5 0 0 1 912.5,607.1094 L8.5,607.1094 A2.5,2.5 0 0 1 6,604.6094 L6,509.6094 A2.5,2.5 0 0 1 8.5,507.1094 " fill="none" style="stroke:#000000;stroke-width:1.5;"/><line style="stroke:#000000;stroke-width:1.5;" x1="6" x2="138" y1="530.7188" y2="530.7188"/><text fill="#000000" font-family="sans-serif" font-size="14" font-weight="bold" lengthAdjust="spacing" textLength="119" x="10" y="523.6426">Application DTOs</text></g><!--cluster Infrastructure--><g id="cluster_Infrastructure"><path d="M941.5,507.1094 L1039.5,507.1094 A3.75,3.75 0 0 1 1042,509.6094 L1049,530.7188 L1397.5,530.7188 A2.5,2.5 0 0 1 1400,533.2188 L1400,880.1094 A2.5,2.5 0 0 1 1397.5,882.6094 L941.5,882.6094 A2.5,2.5 0 0 1 939,880.1094 L939,509.6094 A2.5,2.5 0 0 1 941.5,507.1094 " fill="none" style="stroke:#000000;stroke-width:1.5;"/><line style="stroke:#000000;stroke-width:1.5;" x1="939" x2="1049" y1="530.7188" y2="530.7188"/><text fill="#000000" font-family="sans-serif" font-size="14" font-weight="bold" lengthAdjust="spacing" textLength="97" x="943" y="523.6426">Infrastructure</text></g><!--cluster Domain--><g id="cluster_Domain"><path d="M1426.5,783.1094 L1479.5,783.1094 A3.75,3.75 0 0 1 1482,785.6094 L1489,806.7188 L1776.5,806.7188 A2.5,2.5 0 0 1 1779,809.2188 L1779,1008.1094 A2.5,2.5 0 0 1 1776.5,1010.6094 L1426.5,1010.6094 A2.5,2.5 0 0 1 1424,1008.1094 L1424,785.6094 A2.5,2.5 0 0 1 1426.5,783.1094 " fill="none" style="stroke:#000000;stroke-width:1.5;"/><line style="stroke:#000000;stroke-width:1.5;" x1="1424" x2="1489" y1="806.7188" y2="806.7188"/><text fill="#000000" font-family="sans-serif" font-size="14" font-weight="bold" lengthAdjust="spacing" textLength="52" x="1428" y="799.6426">Domain</text></g><!--entity ApiClient--><g id="elem_ApiClient"><rect fill="#F1F1F1" height="47.6094" rx="2.5" ry="2.5" style="stroke:#181818;stroke-width:0.5;" width="169" x="478.5" y="222.1094"/><rect fill="#F1F1F1" height="10" style="stroke:#181818;stroke-width:0.5;" width="15" x="627.5" y="227.1094"/><rect fill="#F1F1F1" height="2" style="stroke:#181818;stroke-width:0.5;" width="4" x="625.5" y="229.1094"/><rect fill="#F1F1F1" height="2" style="stroke:#181818;stroke-width:0.5;" width="4" x="625.5" y="233.1094"/><text fill="#000000" font-family="sans-serif" font-size="14" lengthAdjust="spacing" textLength="129" x="493.5" y="256.6426">Scalar UI / API Client</text></g><!--entity C_O--><g id="elem_C_O"><rect fill="#F1F1F1" height="47.6094" rx="2.5" ry="2.5" style="stroke:#181818;stroke-width:0.5;" width="189" x="468.5" y="393.1094"/><rect fill="#F1F1F1" height="10" style="stroke:#181818;stroke-width:0.5;" width="15" x="637.5" y="398.1094"/><rect fill="#F1F1F1" height="2" style="stroke:#181818;stroke-width:0.5;" width="4" x="635.5" y="400.1094"/><rect fill="#F1F1F1" height="2" style="stroke:#181818;stroke-width:0.5;" width="4" x="635.5" y="404.1094"/><text fill="#000000" font-family="sans-serif" font-size="14" lengthAdjust="spacing" textLength="149" x="483.5" y="427.6426">OrganizationsController</text></g><!--entity CreateOrganizationDto--><g id="elem_CreateOrganizationDto"><rect fill="#F1F1F1" height="47.6094" rx="2.5" ry="2.5" style="stroke:#181818;stroke-width:0.5;" width="185" x="22.5" y="543.1094"/><rect fill="#F1F1F1" height="10" style="stroke:#181818;stroke-width:0.5;" width="15" x="187.5" y="548.1094"/><rect fill="#F1F1F1" height="2" style="stroke:#181818;stroke-width:0.5;" width="4" x="185.5" y="550.1094"/><rect fill="#F1F1F1" height="2" style="stroke:#181818;stroke-width:0.5;" width="4" x="185.5" y="554.1094"/><text fill="#000000" font-family="sans-serif" font-size="14" lengthAdjust="spacing" textLength="145" x="37.5" y="577.6426">CreateOrganizationDto</text></g><!--entity AddRepresentativesDto--><g id="elem_AddRepresentativesDto"><rect fill="#F1F1F1" height="47.6094" rx="2.5" ry="2.5" style="stroke:#181818;stroke-width:0.5;" width="190" x="243" y="543.1094"/><rect fill="#F1F1F1" height="10" style="stroke:#181818;stroke-width:0.5;" width="15" x="413" y="548.1094"/><rect fill="#F1F1F1" height="2" style="stroke:#181818;stroke-width:0.5;" width="4" x="411" y="550.1094"/><rect fill="#F1F1F1" height="2" style="stroke:#181818;stroke-width:0.5;" width="4" x="411" y="554.1094"/><text fill="#000000" font-family="sans-serif" font-size="14" lengthAdjust="spacing" textLength="150" x="258" y="577.6426">AddRepresentativesDto</text></g><!--entity RepresentativeInputDto--><g id="elem_RepresentativeInputDto"><rect fill="#F1F1F1" height="47.6094" rx="2.5" ry="2.5" style="stroke:#181818;stroke-width:0.5;" width="189" x="468.5" y="543.1094"/><rect fill="#F1F1F1" height="10" style="stroke:#181818;stroke-width:0.5;" width="15" x="637.5" y="548.1094"/><rect fill="#F1F1F1" height="2" style="stroke:#181818;stroke-width:0.5;" width="4" x="635.5" y="550.1094"/><rect fill="#F1F1F1" height="2" style="stroke:#181818;stroke-width:0.5;" width="4" x="635.5" y="554.1094"/><text fill="#000000" font-family="sans-serif" font-size="14" lengthAdjust="spacing" textLength="149" x="483.5" y="577.6426">RepresentativeInputDto</text></g><!--entity OrganizationResponseDto--><g id="elem_OrganizationResponseDto"><rect fill="#F1F1F1" height="47.6094" rx="2.5" ry="2.5" style="stroke:#181818;stroke-width:0.5;" width="206" x="693" y="543.1094"/><rect fill="#F1F1F1" height="10" style="stroke:#181818;stroke-width:0.5;" width="15" x="879" y="548.1094"/><rect fill="#F1F1F1" height="2" style="stroke:#181818;stroke-width:0.5;" width="4" x="877" y="550.1094"/><rect fill="#F1F1F1" height="2" style="stroke:#181818;stroke-width:0.5;" width="4" x="877" y="554.1094"/><text fill="#000000" font-family="sans-serif" font-size="14" lengthAdjust="spacing" textLength="166" x="708" y="577.6426">OrganizationResponseDto</text></g><!--entity OR--><g id="elem_OR"><rect fill="#F1F1F1" height="47.6094" rx="2.5" ry="2.5" style="stroke:#181818;stroke-width:0.5;" width="188" x="1196" y="543.1094"/><rect fill="#F1F1F1" height="10" style="stroke:#181818;stroke-width:0.5;" width="15" x="1364" y="548.1094"/><rect fill="#F1F1F1" height="2" style="stroke:#181818;stroke-width:0.5;" width="4" x="1362" y="550.1094"/><rect fill="#F1F1F1" height="2" style="stroke:#181818;stroke-width:0.5;" width="4" x="1362" y="554.1094"/><text fill="#000000" font-family="sans-serif" font-size="14" lengthAdjust="spacing" textLength="148" x="1211" y="577.6426">OrganizationRepository</text></g><!--entity Db--><g id="elem_Db"><rect fill="#F1F1F1" height="47.6094" rx="2.5" ry="2.5" style="stroke:#181818;stroke-width:0.5;" width="132" x="1246" y="671.1094"/><rect fill="#F1F1F1" height="10" style="stroke:#181818;stroke-width:0.5;" width="15" x="1358" y="676.1094"/><rect fill="#F1F1F1" height="2" style="stroke:#181818;stroke-width:0.5;" width="4" x="1356" y="678.1094"/><rect fill="#F1F1F1" height="2" style="stroke:#181818;stroke-width:0.5;" width="4" x="1356" y="682.1094"/><text fill="#000000" font-family="sans-serif" font-size="14" lengthAdjust="spacing" textLength="92" x="1261" y="705.6426">PortDbContext</text></g><!--entity OC--><g id="elem_OC"><rect fill="#F1F1F1" height="47.6094" rx="2.5" ry="2.5" style="stroke:#181818;stroke-width:0.5;" width="205" x="955.5" y="543.1094"/><rect fill="#F1F1F1" height="10" style="stroke:#181818;stroke-width:0.5;" width="15" x="1140.5" y="548.1094"/><rect fill="#F1F1F1" height="2" style="stroke:#181818;stroke-width:0.5;" width="4" x="1138.5" y="550.1094"/><rect fill="#F1F1F1" height="2" style="stroke:#181818;stroke-width:0.5;" width="4" x="1138.5" y="554.1094"/><text fill="#000000" font-family="sans-serif" font-size="14" lengthAdjust="spacing" textLength="165" x="970.5" y="577.6426">OrganizationConfiguration</text></g><!--entity Store--><g id="elem_Store"><path d="M1204,829.6094 C1204,819.6094 1294,819.6094 1294,819.6094 C1294,819.6094 1384,819.6094 1384,829.6094 L1384,856.2188 C1384,866.2188 1294,866.2188 1294,866.2188 C1294,866.2188 1204,866.2188 1204,856.2188 L1204,829.6094 " fill="#F1F1F1" style="stroke:#181818;stroke-width:0.5;"/><path d="M1204,829.6094 C1204,839.6094 1294,839.6094 1294,839.6094 C1294,839.6094 1384,839.6094 1384,829.6094 " fill="none" style="stroke:#181818;stroke-width:0.5;"/><text fill="#000000" font-family="sans-serif" font-size="14" lengthAdjust="spacing" textLength="160" x="1214" y="858.1426">EF Core (InMemory/SQL)</text></g><!--entity Organization--><g id="elem_Organization"><rect fill="#F1F1F1" height="47.6094" rx="2.5" ry="2.5" style="stroke:#181818;stroke-width:0.5;" width="120" x="1440" y="819.1094"/><rect fill="#F1F1F1" height="10" style="stroke:#181818;stroke-width:0.5;" width="15" x="1540" y="824.1094"/><rect fill="#F1F1F1" height="2" style="stroke:#181818;stroke-width:0.5;" width="4" x="1538" y="826.1094"/><rect fill="#F1F1F1" height="2" style="stroke:#181818;stroke-width:0.5;" width="4" x="1538" y="830.1094"/><text fill="#000000" font-family="sans-serif" font-size="14" lengthAdjust="spacing" textLength="80" x="1455" y="853.6426">Organization</text></g><!--entity Representative--><g id="elem_Representative"><rect fill="#F1F1F1" height="47.6094" rx="2.5" ry="2.5" style="stroke:#181818;stroke-width:0.5;" width="136" x="1440" y="946.6094"/><rect fill="#F1F1F1" height="10" style="stroke:#181818;stroke-width:0.5;" width="15" x="1556" y="951.6094"/><rect fill="#F1F1F1" height="2" style="stroke:#181818;stroke-width:0.5;" width="4" x="1554" y="953.6094"/><rect fill="#F1F1F1" height="2" style="stroke:#181818;stroke-width:0.5;" width="4" x="1554" y="957.6094"/><text fill="#000000" font-family="sans-serif" font-size="14" lengthAdjust="spacing" textLength="96" x="1455" y="981.1426">Representative</text></g><!--entity OrganizationType--><g id="elem_OrganizationType"><rect fill="#F1F1F1" height="47.6094" rx="2.5" ry="2.5" style="stroke:#181818;stroke-width:0.5;" width="152" x="1611" y="946.6094"/><rect fill="#F1F1F1" height="10" style="stroke:#181818;stroke-width:0.5;" width="15" x="1743" y="951.6094"/><rect fill="#F1F1F1" height="2" style="stroke:#181818;stroke-width:0.5;" width="4" x="1741" y="953.6094"/><rect fill="#F1F1F1" height="2" style="stroke:#181818;stroke-width:0.5;" width="4" x="1741" y="957.6094"/><text fill="#000000" font-family="sans-serif" font-size="14" lengthAdjust="spacing" textLength="112" x="1626" y="981.1426">OrganizationType</text></g><!--entity Officer--><g id="elem_Officer"><ellipse cx="563" cy="52.6094" fill="#F1F1F1" rx="8" ry="8" style="stroke:#181818;stroke-width:0.5;"/><path d="M563,60.6094 L563,87.6094 M550,68.6094 L576,68.6094 M563,87.6094 L550,102.6094 M563,87.6094 L576,102.6094 " fill="none" style="stroke:#181818;stroke-width:0.5;"/><text fill="#000000" font-family="sans-serif" font-size="14" lengthAdjust="spacing" textLength="132" x="497" y="118.6426">Port Authority Officer</text></g><!--link Officer to ApiClient--><g id="link_Officer_ApiClient"><path d="M563,122.2594 C563,153.1394 563,189.6194 563,215.6794 " fill="none" id="Officer-to-ApiClient" style="stroke:#181818;stroke-width:1.0;"/><polygon fill="#181818" points="563,221.6794,567,212.6794,563,216.6794,559,212.6794,563,221.6794" style="stroke:#181818;stroke-width:1.0;"/><text fill="#000000" font-family="sans-serif" font-size="13" lengthAdjust="spacing" textLength="69" x="564" y="166.6045">uses API UI</text></g><!--link ApiClient to C_O--><g id="link_ApiClient_C_O"><path d="M563,270.2494 C563,302.5294 563,354.7094 563,386.9694 " fill="none" id="ApiClient-to-C_O" style="stroke:#181818;stroke-width:1.0;"/><polygon fill="#181818" points="563,392.9694,567,383.9694,563,387.9694,559,383.9694,563,392.9694" style="stroke:#181818;stroke-width:1.0;"/><text fill="#000000" font-family="sans-serif" font-size="13" lengthAdjust="spacing" textLength="32" x="637.5" y="316.6045">HTTP</text><text fill="#000000" font-family="sans-serif" font-size="13" lengthAdjust="spacing" textLength="179" x="564" y="332.9561">POST / GET /api/organizations</text></g><!--link C_O to OR--><g id="link_C_O_OR"><path d="M657.67,418.7594 C780.83,422.2394 1001.16,437.5394 1178,499.1094 C1207.53,509.3894 1232.8439,524.6339 1254.4439,539.6539 " fill="none" id="C_O-to-OR" style="stroke:#181818;stroke-width:1.0;"/><polygon fill="#181818" points="1259.37,543.0794,1254.2645,534.6571,1255.2649,540.2248,1249.6972,541.2253,1259.37,543.0794" style="stroke:#181818;stroke-width:1.0;"/><text fill="#000000" font-family="sans-serif" font-size="13" lengthAdjust="spacing" textLength="100" x="1148" y="487.6045">CRUD operations</text></g><!--link OR to Db--><g id="link_OR_Db"><path d="M1294.04,591.2194 C1297.98,613.8094 1302.9159,642.1192 1306.8859,664.8092 " fill="none" id="OR-to-Db" style="stroke:#181818;stroke-width:1.0;"/><polygon fill="#181818" points="1307.92,670.7194,1310.309,661.1647,1307.0583,665.7942,1302.4287,662.5434,1307.92,670.7194" style="stroke:#181818;stroke-width:1.0;"/><text fill="#000000" font-family="sans-serif" font-size="13" lengthAdjust="spacing" textLength="75" x="1303" y="637.6045">query/persist</text></g><!--link OC to Db--><g id="link_OC_Db"><path d="M1091.97,591.1694 C1115.29,606.4394 1147.28,626.2994 1177,641.1094 C1199.09,652.1094 1218.4473,660.3124 1240.8373,668.8924 " fill="none" id="OC-to-Db" style="stroke:#181818;stroke-width:1.0;"/><polygon fill="#181818" points="1246.44,671.0394,1239.4673,664.0837,1241.7711,669.2502,1236.6046,671.554,1246.44,671.0394" style="stroke:#181818;stroke-width:1.0;"/><text fill="#000000" font-family="sans-serif" font-size="13" lengthAdjust="spacing" textLength="112" x="1178" y="637.6045">configure mappings</text></g><!--link Db to Store--><g id="link_Db_Store"><path d="M1309.15,719.2394 C1305.76,746.7394 1300.8748,786.3745 1297.5148,813.6045 " fill="none" id="Db-to-Store" style="stroke:#181818;stroke-width:1.0;"/><polygon fill="#181818" points="1296.78,819.5594,1301.8521,811.117,1297.3923,814.597,1293.9123,810.1373,1296.78,819.5594" style="stroke:#181818;stroke-width:1.0;"/><text fill="#000000" font-family="sans-serif" font-size="13" lengthAdjust="spacing" textLength="68" x="1306" y="763.6045">persist data</text></g><!--link C_O to CreateOrganizationDto--><g id="link_C_O_CreateOrganizationDto"><path d="M468.38,432.6194 C399.21,445.1694 304.07,466.4994 225,499.1094 C197.09,510.6194 172.9908,525.2444 151.7508,539.6944 " fill="none" id="C_O-to-CreateOrganizationDto" style="stroke:#181818;stroke-width:1.0;stroke-dasharray:7.0,7.0;"/><polygon fill="#181818" points="146.79,543.0694,156.4812,541.3142,150.924,540.2569,151.9813,534.6997,146.79,543.0694" style="stroke:#181818;stroke-width:1.0;"/></g><!--link C_O to AddRepresentativesDto--><g id="link_C_O_AddRepresentativesDto"><path d="M527.84,441.2294 C485.7,468.9594 420.4927,511.8419 378.2927,539.6019 " fill="none" id="C_O-to-AddRepresentativesDto" style="stroke:#181818;stroke-width:1.0;stroke-dasharray:7.0,7.0;"/><polygon fill="#181818" points="373.28,542.8994,382.9973,541.295,377.4572,540.1515,378.6007,534.6114,373.28,542.8994" style="stroke:#181818;stroke-width:1.0;"/></g><!--link C_O to RepresentativeInputDto--><g id="link_C_O_RepresentativeInputDto"><path d="M563,441.2294 C563,468.8794 563,508.8694 563,536.6594 " fill="none" id="C_O-to-RepresentativeInputDto" style="stroke:#181818;stroke-width:1.0;stroke-dasharray:7.0,7.0;"/><polygon fill="#181818" points="563,542.6594,567,533.6594,563,537.6594,559,533.6594,563,542.6594" style="stroke:#181818;stroke-width:1.0;"/></g><!--link C_O to OrganizationResponseDto--><g id="link_C_O_OrganizationResponseDto"><path d="M599.41,441.2294 C643.05,468.9594 710.6951,511.9227 754.4051,539.6827 " fill="none" id="C_O-to-OrganizationResponseDto" style="stroke:#181818;stroke-width:1.0;stroke-dasharray:7.0,7.0;"/><polygon fill="#181818" points="759.47,542.8994,754.0171,534.6978,755.2493,540.2188,749.7282,541.4509,759.47,542.8994" style="stroke:#181818;stroke-width:1.0;"/></g><!--link Db to Organization--><g id="link_Db_Organization"><path d="M1343.26,719.1294 C1355.69,728.3594 1370.08,739.1594 1383,749.1094 C1413.42,772.5494 1443.0949,796.2086 1466.6649,815.1686 " fill="none" id="Db-to-Organization" style="stroke:#181818;stroke-width:1.0;stroke-dasharray:7.0,7.0;"/><polygon fill="#181818" points="1471.34,818.9294,1466.8345,810.1715,1467.4441,815.7954,1461.8201,816.405,1471.34,818.9294" style="stroke:#181818;stroke-width:1.0;"/></g><!--link Db to Representative--><g id="link_Db_Representative"><path d="M1378.17,698.4094 C1438.25,704.0594 1525.28,721.7194 1578,775.1094 C1623.52,821.2094 1646.95,861.4394 1613,916.6094 C1604.38,930.6094 1596.1118,938.2402 1581.5418,945.9602 " fill="none" id="Db-to-Representative" style="stroke:#181818;stroke-width:1.0;stroke-dasharray:7.0,7.0;"/><polygon fill="#181818" points="1576.24,948.7694,1586.0654,948.0901,1580.6581,946.4284,1582.3199,941.0211,1576.24,948.7694" style="stroke:#181818;stroke-width:1.0;"/></g><!--link Db to OrganizationType--><g id="link_Db_OrganizationType"><path d="M1378.19,703.2194 C1461.68,713.6994 1598.11,736.3594 1629,775.1094 C1670.19,826.7694 1681.6352,901.1124 1685.0852,940.4024 " fill="none" id="Db-to-OrganizationType" style="stroke:#181818;stroke-width:1.0;stroke-dasharray:7.0,7.0;"/><polygon fill="#181818" points="1685.61,946.3794,1688.8074,937.064,1685.1726,941.3985,1680.8381,937.7638,1685.61,946.3794" style="stroke:#181818;stroke-width:1.0;"/></g><!--link Organization to Representative--><g id="link_Organization_Representative"><path d="M1482.58,867.3294 C1474.15,881.4094 1466.84,899.8394 1472,916.6094 C1475.27,927.2394 1477.9559,932.7934 1484.3059,941.5434 " fill="none" id="Organization-to-Representative" style="stroke:#181818;stroke-width:1.0;"/><polygon fill="#181818" points="1487.83,946.3994,1485.7812,936.766,1484.8933,942.3527,1479.3065,941.4647,1487.83,946.3994" style="stroke:#181818;stroke-width:1.0;"/><text fill="#000000" font-family="sans-serif" font-size="13" lengthAdjust="spacing" textLength="21" x="1473" y="913.1045">has</text><text fill="#000000" font-family="sans-serif" font-size="13" lengthAdjust="spacing" textLength="7" x="1470.7423" y="888.3612">1</text><text fill="#000000" font-family="sans-serif" font-size="13" lengthAdjust="spacing" textLength="20" x="1460.0989" y="935.7358">1..*</text></g><!--link Organization to OrganizationType--><g id="link_Organization_OrganizationType"><path d="M1533.3,867.1394 C1554.12,881.4794 1581.54,900.2394 1606,916.6094 C1620.81,926.5194 1632.2157,934.0196 1646.3857,943.2696 " fill="none" id="Organization-to-OrganizationType" style="stroke:#181818;stroke-width:1.0;"/><polygon fill="#181818" points="1651.41,946.5494,1646.0601,938.2802,1647.2231,943.8162,1641.6871,944.9792,1651.41,946.5494" style="stroke:#181818;stroke-width:1.0;"/><text fill="#000000" font-family="sans-serif" font-size="13" lengthAdjust="spacing" textLength="72" x="1607" y="913.1045">classified as</text></g><!--SRC=[TLDDZzCm4BtdLunouKDggbs92mUaA5aWqgAKf1K7M24tdQOMgMri1r4G_vsnapOVX4kLpfjvC_FcsNBR89GNO_4CAMUrPcTOmQw4- -W-UWK5rfmm3UM9AyL53N6DmaAkQoRuBsQv52O8M6MbXd0ZjOMujIUfkRr0VZpo2dK8p5o_W-0Ph5OhI1hkQ1xPXRWf46YiB1Cr3HEEiH1-1m2VouerJCCkWpN4cwmlVtB4iUBTl-3FbVmJxdtMm2xaWOZxUCyvMI6HmchPDAWzQV8r7-XYfHfU-RmHfMBLDrOJwnXEjxdfwHEDpEAuIMhbaqFYmw50fT7Gq0JyG7D5fk5CgDPUeJ5HWKRHpEYnsvYPE6fch6uhssfScdIQiI03zPU6qoalNeMyS0dkgEdU2OG_EydJ_RoGq2ElM-t_TBK9vHoOPNjcgFN3MqWaJVKy4n_mJ0tMvSV75zuP9VN3OOrKdXbV5Bf35iPUqEuVpRONXHEnoDJaMdTxtwNt9ts_6Im5hw4rQBoPTbamn5qMUOJmzzljvelOvEMMhFdkWNwPucivUHukqrNa1HKanIu5gL3t80KTbku9-zuYAKEOeKSNvCc0LBt026Vctw49AEvWBnzbz5LUSxSbMH4qDbqNUhpT6554WoyvyuOkklE6BZlq1l_7fMwUJJSVYefseEVOk0NcDTVOjCrIfhkdNxEpotJJSIA4Tw4NAhoBefVXZ9g4Ex5PWJ_Lh9KxGSECuKUE1t9jy1S0]--></g></svg>