<?xml version="1.0" encoding="us-ascii" standalone="no"?><svg xmlns="http://www.w3.org/2000/svg" xmlns:xlink="http://www.w3.org/1999/xlink" contentStyleType="text/css" height="728px" preserveAspectRatio="none" style="width:1511px;height:728px;background:#FFFFFF;" version="1.1" viewBox="0 0 1511 728" width="1511px" zoomAndPan="magnify"><defs/><g><text fill="#000000" font-family="sans-serif" font-size="14" font-weight="bold" lengthAdjust="spacing" textLength="295" x="609.25" y="29.5332">SSD - Update Shipping Agent Organization</text><rect fill="#FFFFFF" height="163.1094" style="stroke:#181818;stroke-width:1.0;" width="10" x="678" y="200.2734"/><rect fill="#FFFFFF" height="60.7031" style="stroke:#181818;stroke-width:1.0;" width="10" x="850.5" y="230.625"/><rect fill="#FFFFFF" height="91.0547" style="stroke:#181818;stroke-width:1.0;" width="10" x="850.5" y="499.625"/><rect fill="#FFFFFF" height="52.7031" style="stroke:#181818;stroke-width:1.0;" width="10" x="1208" y="409.5703"/><rect fill="none" height="322.7031" style="stroke:#000000;stroke-width:1.5;" width="1105" x="399.5" y="306.3281"/><line style="stroke:#181818;stroke-width:0.5;stroke-dasharray:5.0,5.0;" x1="74" x2="74" y1="121.2188" y2="646.0313"/><line style="stroke:#181818;stroke-width:0.5;stroke-dasharray:5.0,5.0;" x1="446.5" x2="446.5" y1="121.2188" y2="646.0313"/><line style="stroke:#181818;stroke-width:0.5;stroke-dasharray:5.0,5.0;" x1="682.5" x2="682.5" y1="121.2188" y2="646.0313"/><line style="stroke:#181818;stroke-width:0.5;stroke-dasharray:5.0,5.0;" x1="855.5" x2="855.5" y1="121.2188" y2="646.0313"/><line style="stroke:#181818;stroke-width:0.5;stroke-dasharray:5.0,5.0;" x1="999.5" x2="999.5" y1="121.2188" y2="646.0313"/><line style="stroke:#181818;stroke-width:0.5;stroke-dasharray:5.0,5.0;" x1="1213" x2="1213" y1="121.2188" y2="646.0313"/><line style="stroke:#181818;stroke-width:0.5;stroke-dasharray:5.0,5.0;" x1="1444.5" x2="1444.5" y1="121.2188" y2="646.0313"/><text fill="#000000" font-family="sans-serif" font-size="14" lengthAdjust="spacing" textLength="132" x="5" y="118.1426">Port Authority Officer</text><ellipse cx="74" cy="52.1094" fill="#E2E2F0" rx="8" ry="8" style="stroke:#181818;stroke-width:0.5;"/><path d="M74,60.1094 L74,87.1094 M61,68.1094 L87,68.1094 M74,87.1094 L61,102.1094 M74,87.1094 L87,102.1094 " fill="none" style="stroke:#181818;stroke-width:0.5;"/><text fill="#000000" font-family="sans-serif" font-size="14" lengthAdjust="spacing" textLength="132" x="5" y="659.5645">Port Authority Officer</text><ellipse cx="74" cy="671.1406" fill="#E2E2F0" rx="8" ry="8" style="stroke:#181818;stroke-width:0.5;"/><path d="M74,679.1406 L74,706.1406 M61,687.1406 L87,687.1406 M74,706.1406 L61,721.1406 M74,706.1406 L87,721.1406 " fill="none" style="stroke:#181818;stroke-width:0.5;"/><rect fill="#E2E2F0" height="31.6094" rx="2.5" ry="2.5" style="stroke:#181818;stroke-width:0.5;" width="75" x="409.5" y="88.6094"/><text fill="#000000" font-family="sans-serif" font-size="14" lengthAdjust="spacing" textLength="61" x="416.5" y="110.1426">API Client</text><rect fill="#E2E2F0" height="31.6094" rx="2.5" ry="2.5" style="stroke:#181818;stroke-width:0.5;" width="75" x="409.5" y="645.0313"/><text fill="#000000" font-family="sans-serif" font-size="14" lengthAdjust="spacing" textLength="61" x="416.5" y="666.5645">API Client</text><rect fill="#E2E2F0" height="31.6094" rx="2.5" ry="2.5" style="stroke:#181818;stroke-width:0.5;" width="163" x="601.5" y="88.6094"/><text fill="#000000" font-family="sans-serif" font-size="14" lengthAdjust="spacing" textLength="149" x="608.5" y="110.1426">OrganizationsController</text><rect fill="#E2E2F0" height="31.6094" rx="2.5" ry="2.5" style="stroke:#181818;stroke-width:0.5;" width="163" x="601.5" y="645.0313"/><text fill="#000000" font-family="sans-serif" font-size="14" lengthAdjust="spacing" textLength="149" x="608.5" y="666.5645">OrganizationsController</text><rect fill="#E2E2F0" height="31.6094" rx="2.5" ry="2.5" style="stroke:#181818;stroke-width:0.5;" width="162" x="774.5" y="88.6094"/><text fill="#000000" font-family="sans-serif" font-size="14" lengthAdjust="spacing" textLength="148" x="781.5" y="110.1426">OrganizationRepository</text><rect fill="#E2E2F0" height="31.6094" rx="2.5" ry="2.5" style="stroke:#181818;stroke-width:0.5;" width="162" x="774.5" y="645.0313"/><text fill="#000000" font-family="sans-serif" font-size="14" lengthAdjust="spacing" textLength="148" x="781.5" y="666.5645">OrganizationRepository</text><rect fill="#E2E2F0" height="31.6094" rx="2.5" ry="2.5" style="stroke:#181818;stroke-width:0.5;" width="106" x="946.5" y="88.6094"/><text fill="#000000" font-family="sans-serif" font-size="14" lengthAdjust="spacing" textLength="92" x="953.5" y="110.1426">PortDbContext</text><rect fill="#E2E2F0" height="31.6094" rx="2.5" ry="2.5" style="stroke:#181818;stroke-width:0.5;" width="106" x="946.5" y="645.0313"/><text fill="#000000" font-family="sans-serif" font-size="14" lengthAdjust="spacing" textLength="92" x="953.5" y="666.5645">PortDbContext</text><rect fill="#E2E2F0" height="31.6094" rx="2.5" ry="2.5" style="stroke:#181818;stroke-width:0.5;" width="156" x="1135" y="88.6094"/><text fill="#000000" font-family="sans-serif" font-size="14" lengthAdjust="spacing" textLength="142" x="1142" y="110.1426">Organization (Domain)</text><rect fill="#E2E2F0" height="31.6094" rx="2.5" ry="2.5" style="stroke:#181818;stroke-width:0.5;" width="156" x="1135" y="645.0313"/><text fill="#000000" font-family="sans-serif" font-size="14" lengthAdjust="spacing" textLength="142" x="1142" y="666.5645">Organization (Domain)</text><text fill="#000000" font-family="sans-serif" font-size="14" lengthAdjust="spacing" textLength="93" x="1395.5" y="118.1426">EF (InMemory)</text><path d="M1427,67.6094 C1427,57.6094 1445,57.6094 1445,57.6094 C1445,57.6094 1463,57.6094 1463,67.6094 L1463,93.6094 C1463,103.6094 1445,103.6094 1445,103.6094 C1445,103.6094 1427,103.6094 1427,93.6094 L1427,67.6094 " fill="#E2E2F0" style="stroke:#181818;stroke-width:1.5;"/><path d="M1427,67.6094 C1427,77.6094 1445,77.6094 1445,77.6094 C1445,77.6094 1463,77.6094 1463,67.6094 " fill="none" style="stroke:#181818;stroke-width:1.5;"/><text fill="#000000" font-family="sans-serif" font-size="14" lengthAdjust="spacing" textLength="93" x="1395.5" y="659.5645">EF (InMemory)</text><path d="M1427,672.6406 C1427,662.6406 1445,662.6406 1445,662.6406 C1445,662.6406 1463,662.6406 1463,672.6406 L1463,698.6406 C1463,708.6406 1445,708.6406 1445,708.6406 C1445,708.6406 1427,708.6406 1427,698.6406 L1427,672.6406 " fill="#E2E2F0" style="stroke:#181818;stroke-width:1.5;"/><path d="M1427,672.6406 C1427,682.6406 1445,682.6406 1445,682.6406 C1445,682.6406 1463,682.6406 1463,672.6406 " fill="none" style="stroke:#181818;stroke-width:1.5;"/><rect fill="#FFFFFF" height="163.1094" style="stroke:#181818;stroke-width:1.0;" width="10" x="678" y="200.2734"/><rect fill="#FFFFFF" height="60.7031" style="stroke:#181818;stroke-width:1.0;" width="10" x="850.5" y="230.625"/><rect fill="#FFFFFF" height="91.0547" style="stroke:#181818;stroke-width:1.0;" width="10" x="850.5" y="499.625"/><rect fill="#FFFFFF" height="52.7031" style="stroke:#181818;stroke-width:1.0;" width="10" x="1208" y="409.5703"/><polygon fill="#181818" points="435,165.9219,445,169.9219,435,173.9219,439,169.9219" style="stroke:#181818;stroke-width:1.0;"/><line style="stroke:#181818;stroke-width:1.0;" x1="74" x2="441" y1="169.9219" y2="169.9219"/><text fill="#000000" font-family="sans-serif" font-size="13" lengthAdjust="spacing" textLength="153" x="81" y="148.7139">PUT /api/organizations/{id}</text><text fill="#000000" font-family="sans-serif" font-size="13" lengthAdjust="spacing" textLength="349" x="81" y="165.0654">{ LegalName, AlternativeName, Address, TaxNumber, Type }</text><polygon fill="#181818" points="666,196.2734,676,200.2734,666,204.2734,670,200.2734" style="stroke:#181818;stroke-width:1.0;"/><line style="stroke:#181818;stroke-width:1.0;" x1="447" x2="672" y1="200.2734" y2="200.2734"/><text fill="#000000" font-family="sans-serif" font-size="13" lengthAdjust="spacing" textLength="85" x="454" y="195.417">Update(id, dto)</text><polygon fill="#181818" points="838.5,226.625,848.5,230.625,838.5,234.625,842.5,230.625" style="stroke:#181818;stroke-width:1.0;"/><line style="stroke:#181818;stroke-width:1.0;" x1="688" x2="844.5" y1="230.625" y2="230.625"/><text fill="#000000" font-family="sans-serif" font-size="13" lengthAdjust="spacing" textLength="102" x="695" y="225.7686">GetByIdAsync(id)</text><polygon fill="#181818" points="1433,256.9766,1443,260.9766,1433,264.9766,1437,260.9766" style="stroke:#181818;stroke-width:1.0;"/><line style="stroke:#181818;stroke-width:1.0;" x1="860.5" x2="1439" y1="260.9766" y2="260.9766"/><text fill="#000000" font-family="sans-serif" font-size="13" lengthAdjust="spacing" textLength="32" x="867.5" y="256.1201">query</text><polygon fill="#181818" points="866.5,287.3281,856.5,291.3281,866.5,295.3281,862.5,291.3281" style="stroke:#181818;stroke-width:1.0;"/><line style="stroke:#181818;stroke-width:1.0;stroke-dasharray:2.0,2.0;" x1="860.5" x2="1444" y1="291.3281" y2="291.3281"/><text fill="#000000" font-family="sans-serif" font-size="13" lengthAdjust="spacing" textLength="104" x="872.5" y="286.4717">Organization | null</text><path d="M399.5,306.3281 L460.5,306.3281 L460.5,314.6797 L450.5,324.6797 L399.5,324.6797 L399.5,306.3281 " fill="#EEEEEE" style="stroke:#000000;stroke-width:1.5;"/><rect fill="none" height="322.7031" style="stroke:#000000;stroke-width:1.5;" width="1105" x="399.5" y="306.3281"/><text fill="#000000" font-family="sans-serif" font-size="13" font-weight="bold" lengthAdjust="spacing" textLength="16" x="414.5" y="320.8232">alt</text><text fill="#000000" font-family="sans-serif" font-size="11" font-weight="bold" lengthAdjust="spacing" textLength="61" x="475.5" y="319.7471">[not found]</text><polygon fill="#181818" points="458,359.3828,448,363.3828,458,367.3828,454,363.3828" style="stroke:#181818;stroke-width:1.0;"/><line style="stroke:#181818;stroke-width:1.0;stroke-dasharray:2.0,2.0;" x1="452" x2="682" y1="363.3828" y2="363.3828"/><text fill="#000000" font-family="sans-serif" font-size="13" lengthAdjust="spacing" textLength="85" x="464" y="342.1748">404 Not Found</text><text fill="#000000" font-family="sans-serif" font-size="13" lengthAdjust="spacing" textLength="207" x="464" y="358.5264">"Organization with ID '...' not found."</text><line style="stroke:#000000;stroke-width:1.0;stroke-dasharray:2.0,2.0;" x1="399.5" x2="1504.5" y1="372.3828" y2="372.3828"/><text fill="#000000" font-family="sans-serif" font-size="11" font-weight="bold" lengthAdjust="spacing" textLength="40" x="404.5" y="383.8018">[found]</text><polygon fill="#181818" points="1196,405.5703,1206,409.5703,1196,413.5703,1200,409.5703" style="stroke:#181818;stroke-width:1.0;"/><line style="stroke:#181818;stroke-width:1.0;" x1="683" x2="1202" y1="409.5703" y2="409.5703"/><text fill="#000000" font-family="sans-serif" font-size="13" lengthAdjust="spacing" textLength="506" x="690" y="404.7139">O.Update(dto.LegalName, dto.AlternativeName, dto.Address, dto.TaxNumber, dto.Type)</text><line style="stroke:#181818;stroke-width:1.0;" x1="1218" x2="1260" y1="461.2734" y2="461.2734"/><line style="stroke:#181818;stroke-width:1.0;" x1="1260" x2="1260" y1="461.2734" y2="474.2734"/><line style="stroke:#181818;stroke-width:1.0;" x1="1213" x2="1260" y1="474.2734" y2="474.2734"/><polygon fill="#181818" points="1223,470.2734,1213,474.2734,1223,478.2734,1219,474.2734" style="stroke:#181818;stroke-width:1.0;"/><text fill="#000000" font-family="sans-serif" font-size="13" lengthAdjust="spacing" textLength="131" x="1225" y="440.0654">validate business rules</text><text fill="#000000" font-family="sans-serif" font-size="13" lengthAdjust="spacing" textLength="208" x="1225" y="456.417">(required fields, identifier immutable)</text><polygon fill="#181818" points="838.5,495.625,848.5,499.625,838.5,503.625,842.5,499.625" style="stroke:#181818;stroke-width:1.0;"/><line style="stroke:#181818;stroke-width:1.0;" x1="683" x2="844.5" y1="499.625" y2="499.625"/><text fill="#000000" font-family="sans-serif" font-size="13" lengthAdjust="spacing" textLength="59" x="690" y="494.7686">Update(O)</text><polygon fill="#181818" points="987.5,525.9766,997.5,529.9766,987.5,533.9766,991.5,529.9766" style="stroke:#181818;stroke-width:1.0;"/><line style="stroke:#181818;stroke-width:1.0;" x1="683" x2="993.5" y1="529.9766" y2="529.9766"/><text fill="#000000" font-family="sans-serif" font-size="13" lengthAdjust="spacing" textLength="124" x="690" y="525.1201">SaveChangesAsync()</text><polygon fill="#181818" points="1433,556.3281,1443,560.3281,1433,564.3281,1437,560.3281" style="stroke:#181818;stroke-width:1.0;"/><line style="stroke:#181818;stroke-width:1.0;" x1="999.5" x2="1439" y1="560.3281" y2="560.3281"/><text fill="#000000" font-family="sans-serif" font-size="13" lengthAdjust="spacing" textLength="116" x="1006.5" y="555.4717">update Organization</text><polygon fill="#181818" points="1010.5,586.6797,1000.5,590.6797,1010.5,594.6797,1006.5,590.6797" style="stroke:#181818;stroke-width:1.0;"/><line style="stroke:#181818;stroke-width:1.0;stroke-dasharray:2.0,2.0;" x1="1004.5" x2="1444" y1="590.6797" y2="590.6797"/><text fill="#000000" font-family="sans-serif" font-size="13" lengthAdjust="spacing" textLength="19" x="1016.5" y="585.8232">OK</text><polygon fill="#181818" points="458,617.0313,448,621.0313,458,625.0313,454,621.0313" style="stroke:#181818;stroke-width:1.0;"/><line style="stroke:#181818;stroke-width:1.0;stroke-dasharray:2.0,2.0;" x1="452" x2="682" y1="621.0313" y2="621.0313"/><text fill="#000000" font-family="sans-serif" font-size="13" lengthAdjust="spacing" textLength="211" x="464" y="616.1748">200 OK + OrganizationResponseDto</text><!--SRC=[TLDDZzem4BtxLuouBAWGKBMd7YhHf5kXjWI5tHiN1mymacDd7OTkkjt_tia79IdQcoVpyjxCUxOdhn6ssmXcy9GhwRauKPwJESBoYCP3x8xIq6_foHeXvDvR1wEDTHwMfJzPHxw2-72WFReHoE9o5hbqdlQKI-OOBJSh23KnNuDfZqD8NwS8hV7EQjrnXkz34ynjGJnKrQedGsWzQ9JMTFZIQaVf-sGmZcmcoKnQBi5-o5GM2AEl3p1UcP-OiL3RtR8c2j6j2xFFtLRm2JPFZp2NESrjVwVvAwctdNc57tYKUYqpdC9IUtI6-sViFYZbi2Ycy2XVrcMMekDZbIEyYOw-5cADDgmngIaeRoTrC7Ikumk526jGd33g6_elrKejYyhi6Tk3iL6CO5op1qEVItILQAlPvV-1EN_0b5eBXNqI8RK7OpqSR6cK01vkrlVYVd4FQsu_rEsT6ThzY_m9LX7S1K5mTsK9HipJama5QWwXfy3ZrTC5dGliGD1pjIvld6q-NjojYvx3JSakJvZzkXmNyKNgB3KrhoCj2pBC0QxKMEpCsE5pIGuL70YrOcvIl3bnvO2ohEGRf1lYlc_Ytnh9DSjuA9zSC57AcAqyOtYIveX5csODvaulmR9zluC72t1DjE69l_ytIY9kG_kuM30GFi3mfHKvNsEClBs9nwY_]--></g></svg>