<?xml version="1.0" encoding="us-ascii" standalone="no"?><svg xmlns="http://www.w3.org/2000/svg" xmlns:xlink="http://www.w3.org/1999/xlink" contentStyleType="text/css" height="999px" preserveAspectRatio="none" style="width:519px;height:999px;background:#FFFFFF;" version="1.1" viewBox="0 0 519 999" width="519px" zoomAndPan="magnify"><defs/><g><text fill="#000000" font-family="sans-serif" font-size="14" font-weight="bold" lengthAdjust="spacing" textLength="260" x="122.5" y="24.5332">C4 Container - US 2.2.5 Organizations</text><!--cluster Client Layer--><g id="cluster_Client Layer"><polygon fill="none" points="98,213.1094,108,203.1094,257,203.1094,257,298.1094,247,308.1094,98,308.1094,98,213.1094" style="stroke:#181818;stroke-width:1.0;"/><line style="stroke:#181818;stroke-width:1.0;" x1="247" x2="257" y1="213.1094" y2="203.1094"/><line style="stroke:#181818;stroke-width:1.0;" x1="98" x2="247" y1="213.1094" y2="213.1094"/><line style="stroke:#181818;stroke-width:1.0;" x1="247" x2="247" y1="213.1094" y2="308.1094"/><text fill="#000000" font-family="sans-serif" font-size="14" font-weight="bold" lengthAdjust="spacing" textLength="83" x="132" y="230.6426">Client Layer</text></g><!--cluster Web API--><g id="cluster_Web API"><polygon fill="none" points="66,368.1094,76,358.1094,288,358.1094,288,453.1094,278,463.1094,66,463.1094,66,368.1094" style="stroke:#181818;stroke-width:1.0;"/><line style="stroke:#181818;stroke-width:1.0;" x1="278" x2="288" y1="368.1094" y2="358.1094"/><line style="stroke:#181818;stroke-width:1.0;" x1="66" x2="278" y1="368.1094" y2="368.1094"/><line style="stroke:#181818;stroke-width:1.0;" x1="278" x2="278" y1="368.1094" y2="463.1094"/><text fill="#000000" font-family="sans-serif" font-size="14" font-weight="bold" lengthAdjust="spacing" textLength="57" x="144.5" y="385.6426">Web API</text></g><!--cluster Application Layer--><g id="cluster_Application Layer"><polygon fill="none" points="77,523.1094,87,513.1094,277,513.1094,277,608.1094,267,618.1094,77,618.1094,77,523.1094" style="stroke:#181818;stroke-width:1.0;"/><line style="stroke:#181818;stroke-width:1.0;" x1="267" x2="277" y1="523.1094" y2="513.1094"/><line style="stroke:#181818;stroke-width:1.0;" x1="77" x2="267" y1="523.1094" y2="523.1094"/><line style="stroke:#181818;stroke-width:1.0;" x1="267" x2="267" y1="523.1094" y2="618.1094"/><text fill="#000000" font-family="sans-serif" font-size="14" font-weight="bold" lengthAdjust="spacing" textLength="120" x="113" y="540.6426">Application Layer</text></g><!--cluster Dom--><g id="cluster_Dom"><polygon fill="none" points="16,689.1094,26,679.1094,185,679.1094,185,968.1094,175,978.1094,16,978.1094,16,689.1094" style="stroke:#181818;stroke-width:1.0;"/><line style="stroke:#181818;stroke-width:1.0;" x1="175" x2="185" y1="689.1094" y2="679.1094"/><line style="stroke:#181818;stroke-width:1.0;" x1="16" x2="175" y1="689.1094" y2="689.1094"/><line style="stroke:#181818;stroke-width:1.0;" x1="175" x2="175" y1="689.1094" y2="978.1094"/><text fill="#000000" font-family="sans-serif" font-size="14" font-weight="bold" lengthAdjust="spacing" textLength="52" x="70.5" y="706.6426">Domain</text></g><!--entity Client--><g id="elem_Client"><rect fill="#F1F1F1" height="47.6094" rx="2.5" ry="2.5" style="stroke:#181818;stroke-width:0.5;" width="125" x="114.5" y="244.1094"/><rect fill="#F1F1F1" height="10" style="stroke:#181818;stroke-width:0.5;" width="15" x="219.5" y="249.1094"/><rect fill="#F1F1F1" height="2" style="stroke:#181818;stroke-width:0.5;" width="4" x="217.5" y="251.1094"/><rect fill="#F1F1F1" height="2" style="stroke:#181818;stroke-width:0.5;" width="4" x="217.5" y="255.1094"/><text fill="#000000" font-family="sans-serif" font-size="14" lengthAdjust="spacing" textLength="85" x="129.5" y="278.6426">UI / API Client</text></g><!--entity Ctl--><g id="elem_Ctl"><rect fill="#F1F1F1" height="47.6094" rx="2.5" ry="2.5" style="stroke:#181818;stroke-width:0.5;" width="189" x="82.5" y="399.1094"/><rect fill="#F1F1F1" height="10" style="stroke:#181818;stroke-width:0.5;" width="15" x="251.5" y="404.1094"/><rect fill="#F1F1F1" height="2" style="stroke:#181818;stroke-width:0.5;" width="4" x="249.5" y="406.1094"/><rect fill="#F1F1F1" height="2" style="stroke:#181818;stroke-width:0.5;" width="4" x="249.5" y="410.1094"/><text fill="#000000" font-family="sans-serif" font-size="14" lengthAdjust="spacing" textLength="149" x="97.5" y="433.6426">OrganizationsController</text></g><!--entity Svc--><g id="elem_Svc"><rect fill="#F1F1F1" height="47.6094" rx="2.5" ry="2.5" style="stroke:#181818;stroke-width:0.5;" width="167" x="93.5" y="554.1094"/><rect fill="#F1F1F1" height="10" style="stroke:#181818;stroke-width:0.5;" width="15" x="240.5" y="559.1094"/><rect fill="#F1F1F1" height="2" style="stroke:#181818;stroke-width:0.5;" width="4" x="238.5" y="561.1094"/><rect fill="#F1F1F1" height="2" style="stroke:#181818;stroke-width:0.5;" width="4" x="238.5" y="565.1094"/><text fill="#000000" font-family="sans-serif" font-size="14" lengthAdjust="spacing" textLength="127" x="108.5" y="588.6426">OrganizationService</text></g><!--entity Org--><g id="elem_Org"><rect fill="#F1F1F1" height="47.6094" rx="2.5" ry="2.5" style="stroke:#181818;stroke-width:0.5;" width="120" x="46" y="720.1094"/><rect fill="#F1F1F1" height="10" style="stroke:#181818;stroke-width:0.5;" width="15" x="146" y="725.1094"/><rect fill="#F1F1F1" height="2" style="stroke:#181818;stroke-width:0.5;" width="4" x="144" y="727.1094"/><rect fill="#F1F1F1" height="2" style="stroke:#181818;stroke-width:0.5;" width="4" x="144" y="731.1094"/><text fill="#000000" font-family="sans-serif" font-size="14" lengthAdjust="spacing" textLength="80" x="61" y="754.6426">Organization</text></g><!--entity Rep--><g id="elem_Rep"><rect fill="#F1F1F1" height="47.6094" rx="2.5" ry="2.5" style="stroke:#181818;stroke-width:0.5;" width="136" x="32" y="914.1094"/><rect fill="#F1F1F1" height="10" style="stroke:#181818;stroke-width:0.5;" width="15" x="148" y="919.1094"/><rect fill="#F1F1F1" height="2" style="stroke:#181818;stroke-width:0.5;" width="4" x="146" y="921.1094"/><rect fill="#F1F1F1" height="2" style="stroke:#181818;stroke-width:0.5;" width="4" x="146" y="925.1094"/><text fill="#000000" font-family="sans-serif" font-size="14" lengthAdjust="spacing" textLength="96" x="47" y="948.6426">Representative</text></g><!--entity Officer--><g id="elem_Officer"><ellipse cx="177" cy="52.6094" fill="#F1F1F1" rx="8" ry="8" style="stroke:#181818;stroke-width:0.5;"/><path d="M177,60.6094 L177,87.6094 M164,68.6094 L190,68.6094 M177,87.6094 L164,102.6094 M177,87.6094 L190,102.6094 " fill="none" style="stroke:#181818;stroke-width:0.5;"/><text fill="#000000" font-family="sans-serif" font-size="14" lengthAdjust="spacing" textLength="86" x="134" y="118.6426">Port Authority</text><text fill="#000000" font-family="sans-serif" font-size="14" lengthAdjust="spacing" textLength="42" x="134" y="136.252">Officer</text></g><!--entity Db--><g id="elem_Db"><path d="M201,730.6094 C201,720.6094 248,720.6094 248,720.6094 C248,720.6094 295,720.6094 295,730.6094 L295,757.2188 C295,767.2188 248,767.2188 248,767.2188 C248,767.2188 201,767.2188 201,757.2188 L201,730.6094 " fill="#F1F1F1" style="stroke:#181818;stroke-width:0.5;"/><path d="M201,730.6094 C201,740.6094 248,740.6094 248,740.6094 C248,740.6094 295,740.6094 295,730.6094 " fill="none" style="stroke:#181818;stroke-width:0.5;"/><text fill="#000000" font-family="sans-serif" font-size="14" lengthAdjust="spacing" textLength="74" x="211" y="759.1426">Persistence</text></g><g id="elem_GMN19"><path d="M330,682.1094 L330,806.5703 L512,806.5703 L512,692.1094 L502,682.1094 L330,682.1094 " fill="#FEFFDD" style="stroke:#181818;stroke-width:0.5;"/><path d="M502,682.1094 L502,692.1094 L512,692.1094 L502,682.1094 " fill="#FEFFDD" style="stroke:#181818;stroke-width:1.0;"/><text fill="#000000" font-family="sans-serif" font-size="13" lengthAdjust="spacing" textLength="77" x="336" y="700.6045">Organization:</text><text fill="#000000" font-family="sans-serif" font-size="13" lengthAdjust="spacing" textLength="64" x="336" y="716.9561">- Unique ID</text><text fill="#000000" font-family="sans-serif" font-size="13" lengthAdjust="spacing" textLength="133" x="336" y="733.3076">- Legal name (required)</text><text fill="#000000" font-family="sans-serif" font-size="13" lengthAdjust="spacing" textLength="161" x="336" y="749.6592">- Alternative name (optional)</text><text fill="#000000" font-family="sans-serif" font-size="13" lengthAdjust="spacing" textLength="56" x="336" y="766.0107">- Address</text><text fill="#000000" font-family="sans-serif" font-size="13" lengthAdjust="spacing" textLength="126" x="336" y="782.3623">- Tax number (unique)</text><text fill="#000000" font-family="sans-serif" font-size="13" lengthAdjust="spacing" textLength="113" x="336" y="798.7139">- &#8805;1 Representative</text></g><g id="elem_GMN22"><path d="M203.5,884.1094 L203.5,934.1094 L168.3,938.1094 L203.5,942.1094 L203.5,992.2188 A0,0 0 0 0 203.5,992.2188 L370.5,992.2188 A0,0 0 0 0 370.5,992.2188 L370.5,894.1094 L360.5,884.1094 L203.5,884.1094 A0,0 0 0 0 203.5,884.1094 " fill="#FEFFDD" style="stroke:#181818;stroke-width:0.5;"/><path d="M360.5,884.1094 L360.5,894.1094 L370.5,894.1094 L360.5,884.1094 " fill="#FEFFDD" style="stroke:#181818;stroke-width:0.5;"/><text fill="#000000" font-family="sans-serif" font-size="13" lengthAdjust="spacing" textLength="89" x="209.5" y="902.6045">Representative:</text><text fill="#000000" font-family="sans-serif" font-size="13" lengthAdjust="spacing" textLength="42" x="209.5" y="918.9561">- Name</text><text fill="#000000" font-family="sans-serif" font-size="13" lengthAdjust="spacing" textLength="64" x="209.5" y="935.3076">- Citizen ID</text><text fill="#000000" font-family="sans-serif" font-size="13" lengthAdjust="spacing" textLength="146" x="209.5" y="951.6592">- Nationality (ISO 3166-1)</text><text fill="#000000" font-family="sans-serif" font-size="13" lengthAdjust="spacing" textLength="139" x="209.5" y="968.0107">- Email (unique globally)</text><text fill="#000000" font-family="sans-serif" font-size="13" lengthAdjust="spacing" textLength="102" x="209.5" y="984.3623">- Phone (optional)</text></g><!--link Officer to Client--><g id="link_Officer_Client"><path d="M177,139.3694 C177,173.0894 177,211.1794 177,237.7494 " fill="none" id="Officer-to-Client" style="stroke:#181818;stroke-width:1.0;"/><polygon fill="#181818" points="177,243.7494,181,234.7494,177,238.7494,173,234.7494,177,243.7494" style="stroke:#181818;stroke-width:1.0;"/><text fill="#000000" font-family="sans-serif" font-size="13" lengthAdjust="spacing" textLength="124" x="178" y="183.6045">register organizations</text></g><!--link Client to Ctl--><g id="link_Client_Ctl"><path d="M177,292.3494 C177,321.0994 177,363.7994 177,392.6494 " fill="none" id="Client-to-Ctl" style="stroke:#181818;stroke-width:1.0;"/><polygon fill="#181818" points="177,398.6494,181,389.6494,177,393.6494,173,389.6494,177,398.6494" style="stroke:#181818;stroke-width:1.0;"/><text fill="#000000" font-family="sans-serif" font-size="13" lengthAdjust="spacing" textLength="65" x="178" y="338.6045">POST/GET</text></g><!--link Ctl to Svc--><g id="link_Ctl_Svc"><path d="M177,447.3494 C177,476.0994 177,518.7994 177,547.6494 " fill="none" id="Ctl-to-Svc" style="stroke:#181818;stroke-width:1.0;"/><polygon fill="#181818" points="177,553.6494,181,544.6494,177,548.6494,173,544.6494,177,553.6494" style="stroke:#181818;stroke-width:1.0;"/><text fill="#000000" font-family="sans-serif" font-size="13" lengthAdjust="spacing" textLength="100" x="178" y="493.6045">CRUD operations</text></g><!--link Svc to Db--><g id="link_Svc_Db"><path d="M187.02,602.2594 C200.63,633.6894 222.4047,684.0039 235.8747,715.0939 " fill="none" id="Svc-to-Db" style="stroke:#181818;stroke-width:1.0;"/><polygon fill="#181818" points="238.26,720.5994,238.3524,710.751,236.2723,716.0115,231.0117,713.9313,238.26,720.5994" style="stroke:#181818;stroke-width:1.0;"/><text fill="#000000" font-family="sans-serif" font-size="13" lengthAdjust="spacing" textLength="84" x="210" y="648.6045">persist/retrieve</text></g><!--link Svc to Org--><g id="link_Svc_Org"><path d="M166.98,602.2594 C153.45,633.5194 131.8642,683.3734 118.3542,714.5734 " fill="none" id="Svc-to-Org" style="stroke:#181818;stroke-width:1.0;stroke-dasharray:7.0,7.0;"/><polygon fill="#181818" points="115.97,720.0794,123.2169,713.4098,117.9568,715.4911,115.8756,710.231,115.97,720.0794" style="stroke:#181818;stroke-width:1.0;"/><text fill="#000000" font-family="sans-serif" font-size="13" lengthAdjust="spacing" textLength="36" x="154" y="648.6045">create</text></g><!--reverse link Org to Rep--><g id="link_Org_Rep"><path d="M104.903,780.2634 C103.743,817.1634 101.88,876.9094 100.73,913.8694 " fill="none" id="Org-backto-Rep" style="stroke:#181818;stroke-width:1.0;"/><polygon fill="#181818" points="105.28,768.2694,101.0935,774.1407,104.903,780.2634,109.0895,774.3921,105.28,768.2694" style="stroke:#181818;stroke-width:1.0;"/><text fill="#000000" font-family="sans-serif" font-size="13" lengthAdjust="spacing" textLength="100" x="104" y="850.6045">&#8805;1 representative</text></g><!--link Org to GMN19--><g id="link_Org_GMN19"><path d="M121.37,719.9594 C137.75,696.6894 166.06,662.9794 200.5,648.6094 C239.47,632.3494 255.49,635.1194 295.5,648.6094 C316.9,655.8294 337.55,668.3094 355.69,681.9194 " fill="none" id="Org-GMN19" style="stroke:#181818;stroke-width:1.0;stroke-dasharray:7.0,7.0;"/></g><!--SRC=[PLBBRjim4BphAnO-kGLamscRGmu132ae30In4DdeeUs1ajOo0PfKLfHHf-W7z4FwO_sIBXzkhEJ6dTcTdLdGIgiGie-G6Ms5r4YGmhQ4gzdLx1EigHLQFWihZUwJHDJM44mAGnQMWzqRalRqJQztEraZJK3q4Dz9eas3CCcKH6tXNfmS_pC1-BfTmHoMnGe2zzrDXMVowpps1IlN4YT6BfnFCaeXXKchNiQMNQTaxVj6Aoy5IgGZE_J3vR5smusmeX8z2nH8lUmjwXfzchoAohavy742PWvlLRqS0mv_n8wmvppC7CCYXjoYU1n8qziO6Mw0i7Kh2Spes97thLPnNx4kD_FFTvl4bGvczmndZziSJ8SKvnpgsBnYiWjvveIM91xHixFPhRFAT4qeB2QkU9-cpYM3Vt__MR2fompklXQ1PBktO7Onw6N-6wxvtsZvD22iSb_TOoiKQ750c18-3PAmUUUPfUAysaj7tdHEHQZ8Dmrlx_rx8tw07WuL7sWwUFtGussEJvsWRi0vVUtNdHzUDGV73xpTFp9fvJFgi_S74Vpm_uRfgbp3XyNrTRe8g-_uBwYp6sYLgOHIfy0LUwD7UVvx-WS0]--></g></svg>