<svg xmlns="http://www.w3.org/2000/svg" xmlns:xlink="http://www.w3.org/1999/xlink" contentStyleType="text/css" height="1263px" preserveAspectRatio="none" style="width:1317px;height:1263px;background:#FFFFFF;" version="1.1" viewBox="0 0 1317 1263" width="1317px" zoomAndPan="magnify"><title>Class Diagram - US 2.2.5 Register Organizations</title><defs/><g><text fill="#000000" font-family="sans-serif" font-size="14" font-weight="bold" lengthAdjust="spacing" textLength="321.3301" x="490.9272" y="25.1074">Class Diagram - US 2.2.5 Register Organizations</text><!--class Organization--><g id="elem_Organization"><rect codeLine="4" fill="#F1F1F1" height="215.5898" id="Organization" rx="2.5" ry="2.5" style="stroke:#181818;stroke-width:0.5;" width="419.7705" x="261" y="764.6211"/><ellipse cx="426.9458" cy="780.6211" fill="#ADD1B2" rx="11" ry="11" style="stroke:#181818;stroke-width:1.0;"/><path d="M429.7114,776.4961 Q429.8677,776.2773 430.0552,776.168 Q430.2427,776.0586 430.4614,776.0586 Q430.8364,776.0586 431.0708,776.3242 Q431.3052,776.5742 431.3052,777.1836 L431.3052,778.6367 Q431.3052,779.2461 431.0708,779.5117 Q430.8364,779.7773 430.4614,779.7773 Q430.1177,779.7773 429.9146,779.5742 Q429.7114,779.3867 429.6021,778.8711 Q429.5552,778.5117 429.3677,778.3242 Q429.0396,777.9492 428.4302,777.7305 Q427.8208,777.5117 427.1958,777.5117 Q426.4302,777.5117 425.7896,777.8398 Q425.1646,778.168 424.6646,778.918 Q424.1802,779.668 424.1802,780.6992 L424.1802,781.793 Q424.1802,783.0273 425.0708,783.8555 Q425.9614,784.668 427.5552,784.668 Q428.4927,784.668 429.1489,784.418 Q429.5396,784.2617 429.9614,783.8242 Q430.2271,783.5586 430.3677,783.4805 Q430.5239,783.4023 430.7271,783.4023 Q431.0552,783.4023 431.3052,783.668 Q431.5708,783.918 431.5708,784.2617 Q431.5708,784.6055 431.2271,785.0117 Q430.7271,785.5898 429.9302,785.918 Q428.8521,786.3711 427.5552,786.3711 Q426.0396,786.3711 424.8364,785.7461 Q423.8521,785.2461 423.1646,784.1836 Q422.4771,783.1055 422.4771,781.8242 L422.4771,780.668 Q422.4771,779.3398 423.0864,778.1992 Q423.7114,777.043 424.8052,776.4336 Q425.8989,775.8086 427.1333,775.8086 Q427.8677,775.8086 428.5083,775.9805 Q429.1646,776.1367 429.7114,776.4961 Z " fill="#000000"/><text fill="#000000" font-family="sans-serif" font-size="14" lengthAdjust="spacing" textLength="79.3789" x="447.4458" y="786.418">Organization</text><line style="stroke:#181818;stroke-width:0.5;" x1="262" x2="679.7705" y1="796.6211" y2="796.6211"/><ellipse cx="272" cy="811.4316" fill="none" rx="3" ry="3" style="stroke:#038048;stroke-width:1.0;"/><text fill="#000000" font-family="sans-serif" font-size="14" lengthAdjust="spacing" textLength="91.0547" x="281" y="815.7285">OrganizationId</text><ellipse cx="272" cy="830.0527" fill="none" rx="3" ry="3" style="stroke:#038048;stroke-width:1.0;"/><text fill="#000000" font-family="sans-serif" font-size="14" lengthAdjust="spacing" textLength="91.8203" x="281" y="834.3496">string Identifier</text><ellipse cx="272" cy="848.6738" fill="none" rx="3" ry="3" style="stroke:#038048;stroke-width:1.0;"/><text fill="#000000" font-family="sans-serif" font-size="14" lengthAdjust="spacing" textLength="109.7236" x="281" y="852.9707">string LegalName</text><ellipse cx="272" cy="867.2949" fill="none" rx="3" ry="3" style="stroke:#038048;stroke-width:1.0;"/><text fill="#000000" font-family="sans-serif" font-size="14" lengthAdjust="spacing" textLength="141.6133" x="281" y="871.5918">string AlternativeName</text><ellipse cx="272" cy="885.916" fill="none" rx="3" ry="3" style="stroke:#038048;stroke-width:1.0;"/><text fill="#000000" font-family="sans-serif" font-size="14" lengthAdjust="spacing" textLength="115.9512" x="281" y="890.2129">string AddressLine</text><ellipse cx="272" cy="904.5371" fill="none" rx="3" ry="3" style="stroke:#038048;stroke-width:1.0;"/><text fill="#000000" font-family="sans-serif" font-size="14" lengthAdjust="spacing" textLength="111.2549" x="281" y="908.834">string TaxNumber</text><ellipse cx="272" cy="923.1582" fill="none" rx="3" ry="3" style="stroke:#038048;stroke-width:1.0;"/><text fill="#000000" font-family="sans-serif" font-size="14" lengthAdjust="spacing" textLength="145.5166" x="281" y="927.4551">OrganizationType Type</text><ellipse cx="272" cy="941.7793" fill="none" rx="3" ry="3" style="stroke:#038048;stroke-width:1.0;"/><text fill="#000000" font-family="sans-serif" font-size="14" lengthAdjust="spacing" textLength="343.1914" x="281" y="946.0762">IReadOnlyCollection&lt;Representative&gt; Representatives</text><line style="stroke:#181818;stroke-width:1.0;" x1="262" x2="679.7705" y1="953.5898" y2="953.5898"/><ellipse cx="272" cy="968.4004" fill="#84BE84" rx="3" ry="3" style="stroke:#038048;stroke-width:1.0;"/><text fill="#000000" font-family="sans-serif" font-size="14" lengthAdjust="spacing" textLength="393.7705" x="281" y="972.6973">AddRepresentatives(IEnumerable&lt;Representative&gt; reps) : void</text></g><!--class OrganizationType--><g id="elem_OrganizationType"><rect codeLine="17" fill="#F1F1F1" height="103.8633" id="OrganizationType" rx="2.5" ry="2.5" style="stroke:#181818;stroke-width:0.5;" width="169.1377" x="386.5" y="1106.1211"/><ellipse cx="413.4856" cy="1122.1211" fill="#EB937F" rx="11" ry="11" style="stroke:#181818;stroke-width:1.0;"/><path d="M412.345,1122.918 L412.345,1125.418 L416.6731,1125.418 L416.6731,1124.4961 Q416.6731,1123.8867 416.9075,1123.6211 Q417.1575,1123.3555 417.5325,1123.3555 Q417.9075,1123.3555 418.1419,1123.6211 Q418.3763,1123.8867 418.3763,1124.4961 L418.3763,1127.1211 L410.3763,1127.1211 Q409.7513,1127.1211 409.4856,1126.8867 Q409.2356,1126.6523 409.2356,1126.2617 Q409.2356,1125.8867 409.5013,1125.6523 Q409.7669,1125.418 410.3763,1125.418 L410.6419,1125.418 L410.6419,1118.7617 L410.3763,1118.7617 Q409.7513,1118.7617 409.4856,1118.5273 Q409.2356,1118.293 409.2356,1117.9023 Q409.2356,1117.5273 409.4856,1117.293 Q409.7513,1117.0586 410.3763,1117.0586 L418.0013,1117.0586 L418.0013,1119.6523 Q418.0013,1120.2617 417.7669,1120.5273 Q417.5481,1120.7773 417.1575,1120.7773 Q416.7825,1120.7773 416.5481,1120.5273 Q416.3138,1120.2617 416.3138,1119.6523 L416.3138,1118.7617 L412.345,1118.7617 L412.345,1121.2148 L413.8294,1121.2148 Q413.8294,1120.5586 413.9544,1120.3711 Q414.22,1119.9648 414.6888,1119.9648 Q415.0638,1119.9648 415.2981,1120.2305 Q415.5325,1120.4805 415.5325,1121.0898 L415.5325,1123.0586 Q415.5325,1123.6055 415.4075,1123.793 Q415.1419,1124.1836 414.6888,1124.1836 Q414.22,1124.1836 413.9544,1123.7773 Q413.8294,1123.5898 413.8294,1122.918 L412.345,1122.918 Z " fill="#000000"/><text fill="#000000" font-family="sans-serif" font-size="14" lengthAdjust="spacing" textLength="110.5029" x="430.1491" y="1127.918">OrganizationType</text><line style="stroke:#181818;stroke-width:0.5;" x1="387.5" x2="554.6377" y1="1138.1211" y2="1138.1211"/><text fill="#000000" font-family="sans-serif" font-size="14" lengthAdjust="spacing" textLength="122.917" x="392.5" y="1157.2285">SHIPPING_AGENT</text><text fill="#000000" font-family="sans-serif" font-size="14" lengthAdjust="spacing" textLength="127.5654" x="392.5" y="1175.8496">PORT_AUTHORITY</text><text fill="#000000" font-family="sans-serif" font-size="14" lengthAdjust="spacing" textLength="157.1377" x="392.5" y="1194.4707">TERMINAL_OPERATOR</text><line style="stroke:#181818;stroke-width:0.5;" x1="387.5" x2="554.6377" y1="1201.9844" y2="1201.9844"/></g><!--class Representative--><g id="elem_Representative"><rect codeLine="23" fill="#F1F1F1" height="196.9688" id="Representative" rx="2.5" ry="2.5" style="stroke:#181818;stroke-width:0.5;" width="153.6064" x="164" y="1059.6211"/><ellipse cx="191.3486" cy="1075.6211" fill="#ADD1B2" rx="11" ry="11" style="stroke:#181818;stroke-width:1.0;"/><path d="M194.1143,1071.4961 Q194.2705,1071.2773 194.458,1071.168 Q194.6455,1071.0586 194.8643,1071.0586 Q195.2393,1071.0586 195.4736,1071.3242 Q195.708,1071.5742 195.708,1072.1836 L195.708,1073.6367 Q195.708,1074.2461 195.4736,1074.5117 Q195.2393,1074.7773 194.8643,1074.7773 Q194.5205,1074.7773 194.3174,1074.5742 Q194.1143,1074.3867 194.0049,1073.8711 Q193.958,1073.5117 193.7705,1073.3242 Q193.4424,1072.9492 192.833,1072.7305 Q192.2236,1072.5117 191.5986,1072.5117 Q190.833,1072.5117 190.1924,1072.8398 Q189.5674,1073.168 189.0674,1073.918 Q188.583,1074.668 188.583,1075.6992 L188.583,1076.793 Q188.583,1078.0273 189.4736,1078.8555 Q190.3643,1079.668 191.958,1079.668 Q192.8955,1079.668 193.5518,1079.418 Q193.9424,1079.2617 194.3643,1078.8242 Q194.6299,1078.5586 194.7705,1078.4805 Q194.9268,1078.4023 195.1299,1078.4023 Q195.458,1078.4023 195.708,1078.668 Q195.9736,1078.918 195.9736,1079.2617 Q195.9736,1079.6055 195.6299,1080.0117 Q195.1299,1080.5898 194.333,1080.918 Q193.2549,1081.3711 191.958,1081.3711 Q190.4424,1081.3711 189.2393,1080.7461 Q188.2549,1080.2461 187.5674,1079.1836 Q186.8799,1078.1055 186.8799,1076.8242 L186.8799,1075.668 Q186.8799,1074.3398 187.4893,1073.1992 Q188.1143,1072.043 189.208,1071.4336 Q190.3018,1070.8086 191.5361,1070.8086 Q192.2705,1070.8086 192.9111,1070.9805 Q193.5674,1071.1367 194.1143,1071.4961 Z " fill="#000000"/><text fill="#000000" font-family="sans-serif" font-size="14" lengthAdjust="spacing" textLength="94.165" x="208.0928" y="1081.418">Representative</text><line style="stroke:#181818;stroke-width:0.5;" x1="165" x2="316.6064" y1="1091.6211" y2="1091.6211"/><ellipse cx="175" cy="1106.4316" fill="none" rx="3" ry="3" style="stroke:#038048;stroke-width:1.0;"/><text fill="#000000" font-family="sans-serif" font-size="14" lengthAdjust="spacing" textLength="105.8408" x="184" y="1110.7285">RepresentativeId</text><ellipse cx="175" cy="1125.0527" fill="none" rx="3" ry="3" style="stroke:#038048;stroke-width:1.0;"/><text fill="#000000" font-family="sans-serif" font-size="14" lengthAdjust="spacing" textLength="75.4688" x="184" y="1129.3496">string Name</text><ellipse cx="175" cy="1143.6738" fill="none" rx="3" ry="3" style="stroke:#038048;stroke-width:1.0;"/><text fill="#000000" font-family="sans-serif" font-size="14" lengthAdjust="spacing" textLength="92.5928" x="184" y="1147.9707">string CitizenId</text><ellipse cx="175" cy="1162.2949" fill="none" rx="3" ry="3" style="stroke:#038048;stroke-width:1.0;"/><text fill="#000000" font-family="sans-serif" font-size="14" lengthAdjust="spacing" textLength="103.4893" x="184" y="1166.5918">string Nationality</text><ellipse cx="175" cy="1180.916" fill="none" rx="3" ry="3" style="stroke:#038048;stroke-width:1.0;"/><text fill="#000000" font-family="sans-serif" font-size="14" lengthAdjust="spacing" textLength="73.1309" x="184" y="1185.2129">string Email</text><ellipse cx="175" cy="1199.5371" fill="none" rx="3" ry="3" style="stroke:#038048;stroke-width:1.0;"/><text fill="#000000" font-family="sans-serif" font-size="14" lengthAdjust="spacing" textLength="78.6064" x="184" y="1203.834">string Phone</text><ellipse cx="175" cy="1218.1582" fill="none" rx="3" ry="3" style="stroke:#038048;stroke-width:1.0;"/><text fill="#000000" font-family="sans-serif" font-size="14" lengthAdjust="spacing" textLength="79.3721" x="184" y="1222.4551">bool IsActive</text><ellipse cx="175" cy="1236.7793" fill="none" rx="3" ry="3" style="stroke:#038048;stroke-width:1.0;"/><text fill="#000000" font-family="sans-serif" font-size="14" lengthAdjust="spacing" textLength="127.6064" x="184" y="1241.0762">DateTime CreatedAt</text><line style="stroke:#181818;stroke-width:0.5;" x1="165" x2="316.6064" y1="1248.5898" y2="1248.5898"/></g><!--class PortDbContext--><g id="elem_PortDbContext"><rect codeLine="35" fill="#F1F1F1" height="85.2422" id="PortDbContext" rx="2.5" ry="2.5" style="stroke:#181818;stroke-width:0.5;" width="280.4814" x="7" y="562.6211"/><ellipse cx="97.0806" cy="578.6211" fill="#ADD1B2" rx="11" ry="11" style="stroke:#181818;stroke-width:1.0;"/><path d="M99.8462,574.4961 Q100.0024,574.2773 100.1899,574.168 Q100.3774,574.0586 100.5962,574.0586 Q100.9712,574.0586 101.2056,574.3242 Q101.4399,574.5742 101.4399,575.1836 L101.4399,576.6367 Q101.4399,577.2461 101.2056,577.5117 Q100.9712,577.7773 100.5962,577.7773 Q100.2524,577.7773 100.0493,577.5742 Q99.8462,577.3867 99.7368,576.8711 Q99.6899,576.5117 99.5024,576.3242 Q99.1743,575.9492 98.5649,575.7305 Q97.9556,575.5117 97.3306,575.5117 Q96.5649,575.5117 95.9243,575.8398 Q95.2993,576.168 94.7993,576.918 Q94.3149,577.668 94.3149,578.6992 L94.3149,579.793 Q94.3149,581.0273 95.2056,581.8555 Q96.0962,582.668 97.6899,582.668 Q98.6274,582.668 99.2837,582.418 Q99.6743,582.2617 100.0962,581.8242 Q100.3618,581.5586 100.5024,581.4805 Q100.6587,581.4023 100.8618,581.4023 Q101.1899,581.4023 101.4399,581.668 Q101.7056,581.918 101.7056,582.2617 Q101.7056,582.6055 101.3618,583.0117 Q100.8618,583.5898 100.0649,583.918 Q98.9868,584.3711 97.6899,584.3711 Q96.1743,584.3711 94.9712,583.7461 Q93.9868,583.2461 93.2993,582.1836 Q92.6118,581.1055 92.6118,579.8242 L92.6118,578.668 Q92.6118,577.3398 93.2212,576.1992 Q93.8462,575.043 94.9399,574.4336 Q96.0337,573.8086 97.2681,573.8086 Q98.0024,573.8086 98.6431,573.9805 Q99.2993,574.1367 99.8462,574.4961 Z " fill="#000000"/><text fill="#000000" font-family="sans-serif" font-size="14" lengthAdjust="spacing" textLength="91.8203" x="117.5806" y="584.418">PortDbContext</text><line style="stroke:#181818;stroke-width:0.5;" x1="8" x2="286.4814" y1="594.6211" y2="594.6211"/><ellipse cx="18" cy="609.4316" fill="none" rx="3" ry="3" style="stroke:#038048;stroke-width:1.0;"/><text fill="#000000" font-family="sans-serif" font-size="14" lengthAdjust="spacing" textLength="224.9092" x="27" y="613.7285">DbSet&lt;Organization&gt; Organizations</text><ellipse cx="18" cy="628.0527" fill="none" rx="3" ry="3" style="stroke:#038048;stroke-width:1.0;"/><text fill="#000000" font-family="sans-serif" font-size="14" lengthAdjust="spacing" textLength="254.4814" x="27" y="632.3496">DbSet&lt;Representative&gt; Representatives</text><line style="stroke:#181818;stroke-width:0.5;" x1="8" x2="286.4814" y1="639.8633" y2="639.8633"/></g><!--class OrganizationRepository--><g id="elem_OrganizationRepository"><rect codeLine="40" fill="#F1F1F1" height="122.4844" id="OrganizationRepository" rx="2.5" ry="2.5" style="stroke:#181818;stroke-width:0.5;" width="368.3506" x="200" y="286.1211"/><ellipse cx="306.7773" cy="302.1211" fill="#ADD1B2" rx="11" ry="11" style="stroke:#181818;stroke-width:1.0;"/><path d="M309.543,297.9961 Q309.6992,297.7773 309.8867,297.668 Q310.0742,297.5586 310.293,297.5586 Q310.668,297.5586 310.9023,297.8242 Q311.1367,298.0742 311.1367,298.6836 L311.1367,300.1367 Q311.1367,300.7461 310.9023,301.0117 Q310.668,301.2773 310.293,301.2773 Q309.9492,301.2773 309.7461,301.0742 Q309.543,300.8867 309.4336,300.3711 Q309.3867,300.0117 309.1992,299.8242 Q308.8711,299.4492 308.2617,299.2305 Q307.6523,299.0117 307.0273,299.0117 Q306.2617,299.0117 305.6211,299.3398 Q304.9961,299.668 304.4961,300.418 Q304.0117,301.168 304.0117,302.1992 L304.0117,303.293 Q304.0117,304.5273 304.9023,305.3555 Q305.793,306.168 307.3867,306.168 Q308.3242,306.168 308.9805,305.918 Q309.3711,305.7617 309.793,305.3242 Q310.0586,305.0586 310.1992,304.9805 Q310.3555,304.9023 310.5586,304.9023 Q310.8867,304.9023 311.1367,305.168 Q311.4023,305.418 311.4023,305.7617 Q311.4023,306.1055 311.0586,306.5117 Q310.5586,307.0898 309.7617,307.418 Q308.6836,307.8711 307.3867,307.8711 Q305.8711,307.8711 304.668,307.2461 Q303.6836,306.7461 302.9961,305.6836 Q302.3086,304.6055 302.3086,303.3242 L302.3086,302.168 Q302.3086,300.8398 302.918,299.6992 Q303.543,298.543 304.6367,297.9336 Q305.7305,297.3086 306.9648,297.3086 Q307.6992,297.3086 308.3398,297.4805 Q308.9961,297.6367 309.543,297.9961 Z " fill="#000000"/><text fill="#000000" font-family="sans-serif" font-size="14" lengthAdjust="spacing" textLength="146.2959" x="327.2773" y="307.918">OrganizationRepository</text><line style="stroke:#181818;stroke-width:0.5;" x1="201" x2="567.3506" y1="318.1211" y2="318.1211"/><line style="stroke:#181818;stroke-width:0.5;" x1="201" x2="567.3506" y1="326.1211" y2="326.1211"/><ellipse cx="211" cy="340.9316" fill="#84BE84" rx="3" ry="3" style="stroke:#038048;stroke-width:1.0;"/><text fill="#000000" font-family="sans-serif" font-size="14" lengthAdjust="spacing" textLength="245.1094" x="220" y="345.2285">ListAsync() : Task&lt;List&lt;Organization&gt;&gt;</text><ellipse cx="211" cy="359.5527" fill="#84BE84" rx="3" ry="3" style="stroke:#038048;stroke-width:1.0;"/><text fill="#000000" font-family="sans-serif" font-size="14" lengthAdjust="spacing" textLength="292.5713" x="220" y="363.8496">GetByIdAsync(string id) : Task&lt;Organization?&gt;</text><ellipse cx="211" cy="378.1738" fill="#84BE84" rx="3" ry="3" style="stroke:#038048;stroke-width:1.0;"/><text fill="#000000" font-family="sans-serif" font-size="14" lengthAdjust="spacing" textLength="217.8682" x="220" y="382.4707">AddAsync(Organization org) : Task</text><ellipse cx="211" cy="396.7949" fill="#84BE84" rx="3" ry="3" style="stroke:#038048;stroke-width:1.0;"/><text fill="#000000" font-family="sans-serif" font-size="14" lengthAdjust="spacing" textLength="342.3506" x="220" y="401.0918">ExistsWithIdentifierAsync(string identifier) : Task&lt;bool&gt;</text></g><!--class OrganizationConfiguration--><g id="elem_OrganizationConfiguration"><rect codeLine="47" fill="#F1F1F1" height="66.6211" id="OrganizationConfiguration" rx="2.5" ry="2.5" style="stroke:#181818;stroke-width:0.5;" width="350.502" x="322.5" y="571.6211"/><ellipse cx="412.1738" cy="587.6211" fill="#ADD1B2" rx="11" ry="11" style="stroke:#181818;stroke-width:1.0;"/><path d="M414.9395,583.4961 Q415.0957,583.2773 415.2832,583.168 Q415.4707,583.0586 415.6895,583.0586 Q416.0645,583.0586 416.2988,583.3242 Q416.5332,583.5742 416.5332,584.1836 L416.5332,585.6367 Q416.5332,586.2461 416.2988,586.5117 Q416.0645,586.7773 415.6895,586.7773 Q415.3457,586.7773 415.1426,586.5742 Q414.9395,586.3867 414.8301,585.8711 Q414.7832,585.5117 414.5957,585.3242 Q414.2676,584.9492 413.6582,584.7305 Q413.0488,584.5117 412.4238,584.5117 Q411.6582,584.5117 411.0176,584.8398 Q410.3926,585.168 409.8926,585.918 Q409.4082,586.668 409.4082,587.6992 L409.4082,588.793 Q409.4082,590.0273 410.2988,590.8555 Q411.1895,591.668 412.7832,591.668 Q413.7207,591.668 414.377,591.418 Q414.7676,591.2617 415.1895,590.8242 Q415.4551,590.5586 415.5957,590.4805 Q415.752,590.4023 415.9551,590.4023 Q416.2832,590.4023 416.5332,590.668 Q416.7988,590.918 416.7988,591.2617 Q416.7988,591.6055 416.4551,592.0117 Q415.9551,592.5898 415.1582,592.918 Q414.0801,593.3711 412.7832,593.3711 Q411.2676,593.3711 410.0645,592.7461 Q409.0801,592.2461 408.3926,591.1836 Q407.7051,590.1055 407.7051,588.8242 L407.7051,587.668 Q407.7051,586.3398 408.3145,585.1992 Q408.9395,584.043 410.0332,583.4336 Q411.127,582.8086 412.3613,582.8086 Q413.0957,582.8086 413.7363,582.9805 Q414.3926,583.1367 414.9395,583.4961 Z " fill="#000000"/><text fill="#000000" font-family="sans-serif" font-size="14" lengthAdjust="spacing" textLength="162.6543" x="432.6738" y="593.418">OrganizationConfiguration</text><line style="stroke:#181818;stroke-width:0.5;" x1="323.5" x2="672.002" y1="603.6211" y2="603.6211"/><line style="stroke:#181818;stroke-width:0.5;" x1="323.5" x2="672.002" y1="611.6211" y2="611.6211"/><ellipse cx="333.5" cy="626.4316" fill="#84BE84" rx="3" ry="3" style="stroke:#038048;stroke-width:1.0;"/><text fill="#000000" font-family="sans-serif" font-size="14" lengthAdjust="spacing" textLength="324.502" x="342.5" y="630.7285">Configure(EntityTypeBuilder&lt;Organization&gt; b) : void</text></g><!--class OrganizationsController--><g id="elem_OrganizationsController"><rect codeLine="52" fill="#F1F1F1" height="141.1055" id="OrganizationsController" rx="2.5" ry="2.5" style="stroke:#181818;stroke-width:0.5;" width="384.7227" x="476.5" y="46.6211"/><ellipse cx="591.0771" cy="62.6211" fill="#ADD1B2" rx="11" ry="11" style="stroke:#181818;stroke-width:1.0;"/><path d="M593.8428,58.4961 Q593.999,58.2773 594.1865,58.168 Q594.374,58.0586 594.5928,58.0586 Q594.9678,58.0586 595.2021,58.3242 Q595.4365,58.5742 595.4365,59.1836 L595.4365,60.6367 Q595.4365,61.2461 595.2021,61.5117 Q594.9678,61.7773 594.5928,61.7773 Q594.249,61.7773 594.0459,61.5742 Q593.8428,61.3867 593.7334,60.8711 Q593.6865,60.5117 593.499,60.3242 Q593.1709,59.9492 592.5615,59.7305 Q591.9521,59.5117 591.3271,59.5117 Q590.5615,59.5117 589.9209,59.8398 Q589.2959,60.168 588.7959,60.918 Q588.3115,61.668 588.3115,62.6992 L588.3115,63.793 Q588.3115,65.0273 589.2021,65.8555 Q590.0928,66.668 591.6865,66.668 Q592.624,66.668 593.2803,66.418 Q593.6709,66.2617 594.0928,65.8242 Q594.3584,65.5586 594.499,65.4805 Q594.6553,65.4023 594.8584,65.4023 Q595.1865,65.4023 595.4365,65.668 Q595.7021,65.918 595.7021,66.2617 Q595.7021,66.6055 595.3584,67.0117 Q594.8584,67.5898 594.0615,67.918 Q592.9834,68.3711 591.6865,68.3711 Q590.1709,68.3711 588.9678,67.7461 Q587.9834,67.2461 587.2959,66.1836 Q586.6084,65.1055 586.6084,63.8242 L586.6084,62.668 Q586.6084,61.3398 587.2178,60.1992 Q587.8428,59.043 588.9365,58.4336 Q590.0303,57.8086 591.2646,57.8086 Q591.999,57.8086 592.6396,57.9805 Q593.2959,58.1367 593.8428,58.4961 Z " fill="#000000"/><text fill="#000000" font-family="sans-serif" font-size="14" lengthAdjust="spacing" textLength="147.0684" x="611.5771" y="68.418">OrganizationsController</text><line style="stroke:#181818;stroke-width:0.5;" x1="477.5" x2="860.2227" y1="78.6211" y2="78.6211"/><rect fill="none" height="6" style="stroke:#C82930;stroke-width:1.0;" width="6" x="484.5" y="90.4316"/><text fill="#000000" font-family="sans-serif" font-size="14" lengthAdjust="spacing" textLength="211.6748" x="496.5" y="97.7285">OrganizationRepository _orgRepo</text><rect fill="none" height="6" style="stroke:#C82930;stroke-width:1.0;" width="6" x="484.5" y="109.0527"/><text fill="#000000" font-family="sans-serif" font-size="14" lengthAdjust="spacing" textLength="121.3857" x="496.5" y="116.3496">PortDbContext _ctx</text><line style="stroke:#181818;stroke-width:1.0;" x1="477.5" x2="860.2227" y1="123.8633" y2="123.8633"/><ellipse cx="487.5" cy="138.6738" fill="#84BE84" rx="3" ry="3" style="stroke:#038048;stroke-width:1.0;"/><text fill="#000000" font-family="sans-serif" font-size="14" lengthAdjust="spacing" textLength="358.7227" x="496.5" y="142.9707">Create(CreateOrganizationDto dto) : Task&lt;IActionResult&gt;</text><ellipse cx="487.5" cy="157.2949" fill="#84BE84" rx="3" ry="3" style="stroke:#038048;stroke-width:1.0;"/><text fill="#000000" font-family="sans-serif" font-size="14" lengthAdjust="spacing" textLength="249.7646" x="496.5" y="161.5918">GetById(string id) : Task&lt;IActionResult&gt;</text><ellipse cx="487.5" cy="175.916" fill="#84BE84" rx="3" ry="3" style="stroke:#038048;stroke-width:1.0;"/><text fill="#000000" font-family="sans-serif" font-size="14" lengthAdjust="spacing" textLength="171.9512" x="496.5" y="180.2129">List() : Task&lt;IActionResult&gt;</text></g><!--class CreateOrganizationDto--><g id="elem_CreateOrganizationDto"><rect codeLine="62" fill="#F1F1F1" height="178.3477" id="CreateOrganizationDto" rx="2.5" ry="2.5" style="stroke:#181818;stroke-width:0.5;" width="324.0674" x="603" y="258.1211"/><ellipse cx="689.1909" cy="274.1211" fill="#ADD1B2" rx="11" ry="11" style="stroke:#181818;stroke-width:1.0;"/><path d="M691.9565,269.9961 Q692.1128,269.7773 692.3003,269.668 Q692.4878,269.5586 692.7065,269.5586 Q693.0815,269.5586 693.3159,269.8242 Q693.5503,270.0742 693.5503,270.6836 L693.5503,272.1367 Q693.5503,272.7461 693.3159,273.0117 Q693.0815,273.2773 692.7065,273.2773 Q692.3628,273.2773 692.1597,273.0742 Q691.9565,272.8867 691.8472,272.3711 Q691.8003,272.0117 691.6128,271.8242 Q691.2847,271.4492 690.6753,271.2305 Q690.0659,271.0117 689.4409,271.0117 Q688.6753,271.0117 688.0347,271.3398 Q687.4097,271.668 686.9097,272.418 Q686.4253,273.168 686.4253,274.1992 L686.4253,275.293 Q686.4253,276.5273 687.3159,277.3555 Q688.2065,278.168 689.8003,278.168 Q690.7378,278.168 691.394,277.918 Q691.7847,277.7617 692.2065,277.3242 Q692.4722,277.0586 692.6128,276.9805 Q692.769,276.9023 692.9722,276.9023 Q693.3003,276.9023 693.5503,277.168 Q693.8159,277.418 693.8159,277.7617 Q693.8159,278.1055 693.4722,278.5117 Q692.9722,279.0898 692.1753,279.418 Q691.0972,279.8711 689.8003,279.8711 Q688.2847,279.8711 687.0815,279.2461 Q686.0972,278.7461 685.4097,277.6836 Q684.7222,276.6055 684.7222,275.3242 L684.7222,274.168 Q684.7222,272.8398 685.3315,271.6992 Q685.9565,270.543 687.0503,269.9336 Q688.144,269.3086 689.3784,269.3086 Q690.1128,269.3086 690.7534,269.4805 Q691.4097,269.6367 691.9565,269.9961 Z " fill="#000000"/><text fill="#000000" font-family="sans-serif" font-size="14" lengthAdjust="spacing" textLength="143.1855" x="709.6909" y="279.918">CreateOrganizationDto</text><line style="stroke:#181818;stroke-width:0.5;" x1="604" x2="926.0674" y1="290.1211" y2="290.1211"/><ellipse cx="614" cy="304.9316" fill="none" rx="3" ry="3" style="stroke:#038048;stroke-width:1.0;"/><text fill="#000000" font-family="sans-serif" font-size="14" lengthAdjust="spacing" textLength="91.8203" x="623" y="309.2285">string Identifier</text><ellipse cx="614" cy="323.5527" fill="none" rx="3" ry="3" style="stroke:#038048;stroke-width:1.0;"/><text fill="#000000" font-family="sans-serif" font-size="14" lengthAdjust="spacing" textLength="109.7236" x="623" y="327.8496">string LegalName</text><ellipse cx="614" cy="342.1738" fill="none" rx="3" ry="3" style="stroke:#038048;stroke-width:1.0;"/><text fill="#000000" font-family="sans-serif" font-size="14" lengthAdjust="spacing" textLength="141.6133" x="623" y="346.4707">string AlternativeName</text><ellipse cx="614" cy="360.7949" fill="none" rx="3" ry="3" style="stroke:#038048;stroke-width:1.0;"/><text fill="#000000" font-family="sans-serif" font-size="14" lengthAdjust="spacing" textLength="89.4824" x="623" y="365.0918">string Address</text><ellipse cx="614" cy="379.416" fill="none" rx="3" ry="3" style="stroke:#038048;stroke-width:1.0;"/><text fill="#000000" font-family="sans-serif" font-size="14" lengthAdjust="spacing" textLength="111.2549" x="623" y="383.7129">string TaxNumber</text><ellipse cx="614" cy="398.0371" fill="none" rx="3" ry="3" style="stroke:#038048;stroke-width:1.0;"/><text fill="#000000" font-family="sans-serif" font-size="14" lengthAdjust="spacing" textLength="145.5166" x="623" y="402.334">OrganizationType Type</text><ellipse cx="614" cy="416.6582" fill="none" rx="3" ry="3" style="stroke:#038048;stroke-width:1.0;"/><text fill="#000000" font-family="sans-serif" font-size="14" lengthAdjust="spacing" textLength="298.0674" x="623" y="420.9551">List&lt;RepresentativeInputDto&gt;? Representatives</text><line style="stroke:#181818;stroke-width:0.5;" x1="604" x2="926.0674" y1="428.4688" y2="428.4688"/></g><!--class RepresentativeInputDto--><g id="elem_RepresentativeInputDto"><rect codeLine="72" fill="#F1F1F1" height="141.1055" id="RepresentativeInputDto" rx="2.5" ry="2.5" style="stroke:#181818;stroke-width:0.5;" width="179.0889" x="1046.5" y="802.1211"/><ellipse cx="1061.5" cy="818.1211" fill="#ADD1B2" rx="11" ry="11" style="stroke:#181818;stroke-width:1.0;"/><path d="M1064.2656,813.9961 Q1064.4219,813.7773 1064.6094,813.668 Q1064.7969,813.5586 1065.0156,813.5586 Q1065.3906,813.5586 1065.625,813.8242 Q1065.8594,814.0742 1065.8594,814.6836 L1065.8594,816.1367 Q1065.8594,816.7461 1065.625,817.0117 Q1065.3906,817.2773 1065.0156,817.2773 Q1064.6719,817.2773 1064.4688,817.0742 Q1064.2656,816.8867 1064.1563,816.3711 Q1064.1094,816.0117 1063.9219,815.8242 Q1063.5938,815.4492 1062.9844,815.2305 Q1062.375,815.0117 1061.75,815.0117 Q1060.9844,815.0117 1060.3438,815.3398 Q1059.7188,815.668 1059.2188,816.418 Q1058.7344,817.168 1058.7344,818.1992 L1058.7344,819.293 Q1058.7344,820.5273 1059.625,821.3555 Q1060.5156,822.168 1062.1094,822.168 Q1063.0469,822.168 1063.7031,821.918 Q1064.0938,821.7617 1064.5156,821.3242 Q1064.7813,821.0586 1064.9219,820.9805 Q1065.0781,820.9023 1065.2813,820.9023 Q1065.6094,820.9023 1065.8594,821.168 Q1066.125,821.418 1066.125,821.7617 Q1066.125,822.1055 1065.7813,822.5117 Q1065.2813,823.0898 1064.4844,823.418 Q1063.4063,823.8711 1062.1094,823.8711 Q1060.5938,823.8711 1059.3906,823.2461 Q1058.4063,822.7461 1057.7188,821.6836 Q1057.0313,820.6055 1057.0313,819.3242 L1057.0313,818.168 Q1057.0313,816.8398 1057.6406,815.6992 Q1058.2656,814.543 1059.3594,813.9336 Q1060.4531,813.3086 1061.6875,813.3086 Q1062.4219,813.3086 1063.0625,813.4805 Q1063.7188,813.6367 1064.2656,813.9961 Z " fill="#000000"/><text fill="#000000" font-family="sans-serif" font-size="14" lengthAdjust="spacing" textLength="147.0889" x="1075.5" y="823.918">RepresentativeInputDto</text><line style="stroke:#181818;stroke-width:0.5;" x1="1047.5" x2="1224.5889" y1="834.1211" y2="834.1211"/><ellipse cx="1057.5" cy="848.9316" fill="none" rx="3" ry="3" style="stroke:#038048;stroke-width:1.0;"/><text fill="#000000" font-family="sans-serif" font-size="14" lengthAdjust="spacing" textLength="75.4688" x="1066.5" y="853.2285">string Name</text><ellipse cx="1057.5" cy="867.5527" fill="none" rx="3" ry="3" style="stroke:#038048;stroke-width:1.0;"/><text fill="#000000" font-family="sans-serif" font-size="14" lengthAdjust="spacing" textLength="92.5928" x="1066.5" y="871.8496">string CitizenId</text><ellipse cx="1057.5" cy="886.1738" fill="none" rx="3" ry="3" style="stroke:#038048;stroke-width:1.0;"/><text fill="#000000" font-family="sans-serif" font-size="14" lengthAdjust="spacing" textLength="103.4893" x="1066.5" y="890.4707">string Nationality</text><ellipse cx="1057.5" cy="904.7949" fill="none" rx="3" ry="3" style="stroke:#038048;stroke-width:1.0;"/><text fill="#000000" font-family="sans-serif" font-size="14" lengthAdjust="spacing" textLength="73.1309" x="1066.5" y="909.0918">string Email</text><ellipse cx="1057.5" cy="923.416" fill="none" rx="3" ry="3" style="stroke:#038048;stroke-width:1.0;"/><text fill="#000000" font-family="sans-serif" font-size="14" lengthAdjust="spacing" textLength="86.3926" x="1066.5" y="927.7129">string? Phone</text><line style="stroke:#181818;stroke-width:0.5;" x1="1047.5" x2="1224.5889" y1="935.2266" y2="935.2266"/></g><!--class OrganizationResponseDto--><g id="elem_OrganizationResponseDto"><rect codeLine="80" fill="#F1F1F1" height="196.9688" id="OrganizationResponseDto" rx="2.5" ry="2.5" style="stroke:#181818;stroke-width:0.5;" width="348.1846" x="962" y="248.6211"/><ellipse cx="1049.7393" cy="264.6211" fill="#ADD1B2" rx="11" ry="11" style="stroke:#181818;stroke-width:1.0;"/><path d="M1052.5049,260.4961 Q1052.6611,260.2773 1052.8486,260.168 Q1053.0361,260.0586 1053.2549,260.0586 Q1053.6299,260.0586 1053.8643,260.3242 Q1054.0986,260.5742 1054.0986,261.1836 L1054.0986,262.6367 Q1054.0986,263.2461 1053.8643,263.5117 Q1053.6299,263.7773 1053.2549,263.7773 Q1052.9111,263.7773 1052.708,263.5742 Q1052.5049,263.3867 1052.3955,262.8711 Q1052.3486,262.5117 1052.1611,262.3242 Q1051.833,261.9492 1051.2236,261.7305 Q1050.6143,261.5117 1049.9893,261.5117 Q1049.2236,261.5117 1048.583,261.8398 Q1047.958,262.168 1047.458,262.918 Q1046.9736,263.668 1046.9736,264.6992 L1046.9736,265.793 Q1046.9736,267.0273 1047.8643,267.8555 Q1048.7549,268.668 1050.3486,268.668 Q1051.2861,268.668 1051.9424,268.418 Q1052.333,268.2617 1052.7549,267.8242 Q1053.0205,267.5586 1053.1611,267.4805 Q1053.3174,267.4023 1053.5205,267.4023 Q1053.8486,267.4023 1054.0986,267.668 Q1054.3643,267.918 1054.3643,268.2617 Q1054.3643,268.6055 1054.0205,269.0117 Q1053.5205,269.5898 1052.7236,269.918 Q1051.6455,270.3711 1050.3486,270.3711 Q1048.833,270.3711 1047.6299,269.7461 Q1046.6455,269.2461 1045.958,268.1836 Q1045.2705,267.1055 1045.2705,265.8242 L1045.2705,264.668 Q1045.2705,263.3398 1045.8799,262.1992 Q1046.5049,261.043 1047.5986,260.4336 Q1048.6924,259.8086 1049.9268,259.8086 Q1050.6611,259.8086 1051.3018,259.9805 Q1051.958,260.1367 1052.5049,260.4961 Z " fill="#000000"/><text fill="#000000" font-family="sans-serif" font-size="14" lengthAdjust="spacing" textLength="164.2061" x="1070.2393" y="270.418">OrganizationResponseDto</text><line style="stroke:#181818;stroke-width:0.5;" x1="963" x2="1309.1846" y1="280.6211" y2="280.6211"/><ellipse cx="973" cy="295.4316" fill="none" rx="3" ry="3" style="stroke:#038048;stroke-width:1.0;"/><text fill="#000000" font-family="sans-serif" font-size="14" lengthAdjust="spacing" textLength="129.1787" x="982" y="299.7285">string OrganizationId</text><ellipse cx="973" cy="314.0527" fill="none" rx="3" ry="3" style="stroke:#038048;stroke-width:1.0;"/><text fill="#000000" font-family="sans-serif" font-size="14" lengthAdjust="spacing" textLength="91.8203" x="982" y="318.3496">string Identifier</text><ellipse cx="973" cy="332.6738" fill="none" rx="3" ry="3" style="stroke:#038048;stroke-width:1.0;"/><text fill="#000000" font-family="sans-serif" font-size="14" lengthAdjust="spacing" textLength="109.7236" x="982" y="336.9707">string LegalName</text><ellipse cx="973" cy="351.2949" fill="none" rx="3" ry="3" style="stroke:#038048;stroke-width:1.0;"/><text fill="#000000" font-family="sans-serif" font-size="14" lengthAdjust="spacing" textLength="141.6133" x="982" y="355.5918">string AlternativeName</text><ellipse cx="973" cy="369.916" fill="none" rx="3" ry="3" style="stroke:#038048;stroke-width:1.0;"/><text fill="#000000" font-family="sans-serif" font-size="14" lengthAdjust="spacing" textLength="89.4824" x="982" y="374.2129">string Address</text><ellipse cx="973" cy="388.5371" fill="none" rx="3" ry="3" style="stroke:#038048;stroke-width:1.0;"/><text fill="#000000" font-family="sans-serif" font-size="14" lengthAdjust="spacing" textLength="111.2549" x="982" y="392.834">string TaxNumber</text><ellipse cx="973" cy="407.1582" fill="none" rx="3" ry="3" style="stroke:#038048;stroke-width:1.0;"/><text fill="#000000" font-family="sans-serif" font-size="14" lengthAdjust="spacing" textLength="145.5166" x="982" y="411.4551">OrganizationType Type</text><ellipse cx="973" cy="425.7793" fill="none" rx="3" ry="3" style="stroke:#038048;stroke-width:1.0;"/><text fill="#000000" font-family="sans-serif" font-size="14" lengthAdjust="spacing" textLength="322.1846" x="982" y="430.0762">List&lt;RepresentativeResponseDto&gt; Representatives</text><line style="stroke:#181818;stroke-width:0.5;" x1="963" x2="1309.1846" y1="437.5898" y2="437.5898"/></g><!--class RepresentativeResponseDto--><g id="elem_RepresentativeResponseDto"><rect codeLine="91" fill="#F1F1F1" height="196.9688" id="RepresentativeResponseDto" rx="2.5" ry="2.5" style="stroke:#181818;stroke-width:0.5;" width="210.9922" x="1030.5" y="506.6211"/><ellipse cx="1045.5" cy="522.6211" fill="#ADD1B2" rx="11" ry="11" style="stroke:#181818;stroke-width:1.0;"/><path d="M1048.2656,518.4961 Q1048.4219,518.2773 1048.6094,518.168 Q1048.7969,518.0586 1049.0156,518.0586 Q1049.3906,518.0586 1049.625,518.3242 Q1049.8594,518.5742 1049.8594,519.1836 L1049.8594,520.6367 Q1049.8594,521.2461 1049.625,521.5117 Q1049.3906,521.7773 1049.0156,521.7773 Q1048.6719,521.7773 1048.4688,521.5742 Q1048.2656,521.3867 1048.1563,520.8711 Q1048.1094,520.5117 1047.9219,520.3242 Q1047.5938,519.9492 1046.9844,519.7305 Q1046.375,519.5117 1045.75,519.5117 Q1044.9844,519.5117 1044.3438,519.8398 Q1043.7188,520.168 1043.2188,520.918 Q1042.7344,521.668 1042.7344,522.6992 L1042.7344,523.793 Q1042.7344,525.0273 1043.625,525.8555 Q1044.5156,526.668 1046.1094,526.668 Q1047.0469,526.668 1047.7031,526.418 Q1048.0938,526.2617 1048.5156,525.8242 Q1048.7813,525.5586 1048.9219,525.4805 Q1049.0781,525.4023 1049.2813,525.4023 Q1049.6094,525.4023 1049.8594,525.668 Q1050.125,525.918 1050.125,526.2617 Q1050.125,526.6055 1049.7813,527.0117 Q1049.2813,527.5898 1048.4844,527.918 Q1047.4063,528.3711 1046.1094,528.3711 Q1044.5938,528.3711 1043.3906,527.7461 Q1042.4063,527.2461 1041.7188,526.1836 Q1041.0313,525.1055 1041.0313,523.8242 L1041.0313,522.668 Q1041.0313,521.3398 1041.6406,520.1992 Q1042.2656,519.043 1043.3594,518.4336 Q1044.4531,517.8086 1045.6875,517.8086 Q1046.4219,517.8086 1047.0625,517.9805 Q1047.7188,518.1367 1048.2656,518.4961 Z " fill="#000000"/><text fill="#000000" font-family="sans-serif" font-size="14" lengthAdjust="spacing" textLength="178.9922" x="1059.5" y="528.418">RepresentativeResponseDto</text><line style="stroke:#181818;stroke-width:0.5;" x1="1031.5" x2="1240.4922" y1="538.6211" y2="538.6211"/><ellipse cx="1041.5" cy="553.4316" fill="none" rx="3" ry="3" style="stroke:#038048;stroke-width:1.0;"/><text fill="#000000" font-family="sans-serif" font-size="14" lengthAdjust="spacing" textLength="143.9648" x="1050.5" y="557.7285">string RepresentativeId</text><ellipse cx="1041.5" cy="572.0527" fill="none" rx="3" ry="3" style="stroke:#038048;stroke-width:1.0;"/><text fill="#000000" font-family="sans-serif" font-size="14" lengthAdjust="spacing" textLength="75.4688" x="1050.5" y="576.3496">string Name</text><ellipse cx="1041.5" cy="590.6738" fill="none" rx="3" ry="3" style="stroke:#038048;stroke-width:1.0;"/><text fill="#000000" font-family="sans-serif" font-size="14" lengthAdjust="spacing" textLength="92.5928" x="1050.5" y="594.9707">string CitizenId</text><ellipse cx="1041.5" cy="609.2949" fill="none" rx="3" ry="3" style="stroke:#038048;stroke-width:1.0;"/><text fill="#000000" font-family="sans-serif" font-size="14" lengthAdjust="spacing" textLength="103.4893" x="1050.5" y="613.5918">string Nationality</text><ellipse cx="1041.5" cy="627.916" fill="none" rx="3" ry="3" style="stroke:#038048;stroke-width:1.0;"/><text fill="#000000" font-family="sans-serif" font-size="14" lengthAdjust="spacing" textLength="73.1309" x="1050.5" y="632.2129">string Email</text><ellipse cx="1041.5" cy="646.5371" fill="none" rx="3" ry="3" style="stroke:#038048;stroke-width:1.0;"/><text fill="#000000" font-family="sans-serif" font-size="14" lengthAdjust="spacing" textLength="78.6064" x="1050.5" y="650.834">string Phone</text><ellipse cx="1041.5" cy="665.1582" fill="none" rx="3" ry="3" style="stroke:#038048;stroke-width:1.0;"/><text fill="#000000" font-family="sans-serif" font-size="14" lengthAdjust="spacing" textLength="79.3721" x="1050.5" y="669.4551">bool IsActive</text><ellipse cx="1041.5" cy="683.7793" fill="none" rx="3" ry="3" style="stroke:#038048;stroke-width:1.0;"/><text fill="#000000" font-family="sans-serif" font-size="14" lengthAdjust="spacing" textLength="127.6064" x="1050.5" y="688.0762">DateTime CreatedAt</text><line style="stroke:#181818;stroke-width:0.5;" x1="1031.5" x2="1240.4922" y1="695.5898" y2="695.5898"/></g><!--reverse link Organization to Representative--><g id="link_Organization_Representative"><path codeLine="103" d="M376.4895,990.1198 C354.8595,1016.7798 339.39,1035.8511 318.26,1061.8911 " fill="none" id="Organization-backto-Representative" style="stroke:#181818;stroke-width:1.0;"/><polygon fill="none" points="384.05,980.8011,377.1635,982.9403,376.4895,990.1198,383.376,987.9806,384.05,980.8011" style="stroke:#181818;stroke-width:1.0;"/><text fill="#000000" font-family="sans-serif" font-size="13" lengthAdjust="spacing" textLength="20.96" x="357" y="1025.6494">has</text><text fill="#000000" font-family="sans-serif" font-size="13" lengthAdjust="spacing" textLength="7.23" x="371.2703" y="1002.3267">1</text><text fill="#000000" font-family="sans-serif" font-size="13" lengthAdjust="spacing" textLength="19.5127" x="325.4823" y="1050.2598">0..*</text></g><!--link OrganizationRepository to Organization--><g id="link_OrganizationRepository_Organization"><path codeLine="104" d="M507.38,408.1511 C590.28,449.0811 685.42,497.4611 691,506.6211 C736.55,581.4011 729.82,625.1411 691,703.6211 C679.87,726.1311 668.3568,742.2026 650.3268,760.2826 " fill="none" id="OrganizationRepository-to-Organization" style="stroke:#181818;stroke-width:1.0;"/><polygon fill="#181818" points="646.09,764.5311,655.2775,760.9828,649.6206,760.9907,649.6128,755.3338,646.09,764.5311" style="stroke:#181818;stroke-width:1.0;"/></g><!--link OrganizationRepository to PortDbContext--><g id="link_OrganizationRepository_PortDbContext"><path codeLine="105" d="M328.43,408.1411 C284.52,455.5811 228.4266,516.1686 189.6466,558.0486 " fill="none" id="OrganizationRepository-to-PortDbContext" style="stroke:#181818;stroke-width:1.0;"/><polygon fill="#181818" points="185.57,562.4511,194.6198,558.5651,188.9671,558.7824,188.7499,553.1297,185.57,562.4511" style="stroke:#181818;stroke-width:1.0;"/></g><!--link PortDbContext to Organization--><g id="link_PortDbContext_Organization"><path codeLine="106" d="M197.98,647.9011 C236.21,679.2211 285.6785,719.7689 335.6685,760.7189 " fill="none" id="PortDbContext-to-Organization" style="stroke:#181818;stroke-width:1.0;"/><polygon fill="#181818" points="340.31,764.5211,335.8825,755.7235,336.4421,761.3526,330.813,761.9122,340.31,764.5211" style="stroke:#181818;stroke-width:1.0;"/></g><!--link PortDbContext to Representative--><g id="link_PortDbContext_Representative"><path codeLine="107" d="M154.14,647.9911 C169,735.0711 202.5609,931.8066 223.3309,1053.5466 " fill="none" id="PortDbContext-to-Representative" style="stroke:#181818;stroke-width:1.0;"/><polygon fill="#181818" points="224.34,1059.4611,226.7694,1049.9166,223.4991,1054.5323,218.8834,1051.262,224.34,1059.4611" style="stroke:#181818;stroke-width:1.0;"/></g><!--link OrganizationConfiguration to Organization--><g id="link_OrganizationConfiguration_Organization"><path codeLine="108" d="M494.69,638.6811 C491.5,670.0411 487.1072,713.2719 482.5172,758.3919 " fill="none" id="OrganizationConfiguration-to-Organization" style="stroke:#181818;stroke-width:1.0;"/><polygon fill="#181818" points="481.91,764.3611,486.8003,755.8121,482.416,759.3868,478.8414,755.0025,481.91,764.3611" style="stroke:#181818;stroke-width:1.0;"/></g><!--link OrganizationsController to OrganizationRepository--><g id="link_OrganizationsController_OrganizationRepository"><path codeLine="110" d="M581.94,187.7711 C542.82,219.0711 501.7753,251.9031 464.1353,282.0131 " fill="none" id="OrganizationsController-to-OrganizationRepository" style="stroke:#181818;stroke-width:1.0;"/><polygon fill="#181818" points="459.45,285.7611,468.9767,283.2626,463.3544,282.6377,463.9793,277.0155,459.45,285.7611" style="stroke:#181818;stroke-width:1.0;"/></g><!--link OrganizationsController to PortDbContext--><g id="link_OrganizationsController_PortDbContext"><path codeLine="111" d="M476.28,146.8611 C357.54,168.7411 220.79,202.9011 182,248.6211 C106.07,338.1211 122.1383,483.6807 136.2683,556.5807 " fill="none" id="OrganizationsController-to-PortDbContext" style="stroke:#181818;stroke-width:1.0;"/><polygon fill="#181818" points="137.41,562.4711,139.6243,552.8744,136.4586,557.5624,131.7705,554.3967,137.41,562.4711" style="stroke:#181818;stroke-width:1.0;"/></g><!--link OrganizationsController to CreateOrganizationDto--><g id="link_OrganizationsController_CreateOrganizationDto"><path codeLine="112" d="M698.32,187.7711 C707.64,209.9011 715.7404,229.1418 725.5404,252.4018 " fill="none" id="OrganizationsController-to-CreateOrganizationDto" style="stroke:#181818;stroke-width:1.0;stroke-dasharray:7.0,7.0;"/><polygon fill="#181818" points="727.87,257.9311,728.0618,248.0841,725.9287,253.3234,720.6894,251.1903,727.87,257.9311" style="stroke:#181818;stroke-width:1.0;"/></g><!--link OrganizationsController to OrganizationResponseDto--><g id="link_OrganizationsController_OrganizationResponseDto"><path codeLine="113" d="M818.37,187.7311 C859.52,207.1911 904.09,228.5111 945,248.6211 C950.51,251.3311 950.7358,251.4331 956.3758,254.2331 " fill="none" id="OrganizationsController-to-OrganizationResponseDto" style="stroke:#181818;stroke-width:1.0;stroke-dasharray:7.0,7.0;"/><polygon fill="#181818" points="961.75,256.9011,955.4674,249.3163,957.2715,254.6777,951.9101,256.4818,961.75,256.9011" style="stroke:#181818;stroke-width:1.0;"/></g><!--link OrganizationResponseDto to RepresentativeResponseDto--><g id="link_OrganizationResponseDto_RepresentativeResponseDto"><path codeLine="114" d="M1136,445.6311 C1136,465.5611 1136,480.5311 1136,500.4511 " fill="none" id="OrganizationResponseDto-to-RepresentativeResponseDto" style="stroke:#181818;stroke-width:1.0;"/><polygon fill="#181818" points="1136,506.4511,1140,497.4511,1136,501.4511,1132,497.4511,1136,506.4511" style="stroke:#181818;stroke-width:1.0;"/></g><!--link RepresentativeResponseDto to RepresentativeInputDto--><g id="link_RepresentativeResponseDto_RepresentativeInputDto"><path codeLine="115" d="M1136,703.8511 C1136,736.3811 1136,765.9311 1136,795.9011 " fill="none" id="RepresentativeResponseDto-to-RepresentativeInputDto" style="stroke:#181818;stroke-width:1.0;"/><polygon fill="#181818" points="1136,801.9011,1140,792.9011,1136,796.9011,1132,792.9011,1136,801.9011" style="stroke:#181818;stroke-width:1.0;"/></g><!--link Organization to OrganizationType--><g id="link_Organization_OrganizationType"><path codeLine="116" d="M471,980.8011 C471,1023.7611 471,1065.2411 471,1100.0911 " fill="none" id="Organization-to-OrganizationType" style="stroke:#181818;stroke-width:1.0;"/><polygon fill="#181818" points="471,1106.0911,475,1097.0911,471,1101.0911,467,1097.0911,471,1106.0911" style="stroke:#181818;stroke-width:1.0;"/></g><!--SRC=[rLLRRzem57xFhx1u6TiKj5NQIyLIfIHg8p62qbJJdf0XRh1cR6Gx5Mcr_pux5x0JqarJDsay03x-plsSpn9BWi2CG250W67EuGwuuFuEN4mk9fz0Wd8i9E8WvZca-0bApAXmd3VWi_w0WEqWflN1sLHMJ2HuTW1uRucYh189oJ7DGPGXAl43HjoKpb4EoGBka2dqYOg3AXkFg7ULPHm9CSVK4gVmi2XswyQs6KHQxX7GNzLDb22OnPIKCqO8scZ0D45xPL85LpdqW7qMIizrAsNbktCtZa9Qx127Qu9wTZZQYxVW4Zmod3a_70SfQ3yqNRQxssYvZ1OtA_ycNAHAi8oJTENVfxTn4gNVb20Dao_Hmf-lucMO-6cSQ8Dr4sotJHjieTs8RabdME8dHBiW7I4aM9QcE5GpG4p1SikQJgmP8o0I_aPxh2G1b2Z5EpLp7Ac_cIzrrEqyHVI1GsMbsCY28skkbepBO3rZLAA3R38ArdT8JitoUPr9FQ5-rT5ZxKm32iG4beoNZSUvMWTVb7GprbrCeVW-rI8x1g-2tY1vNKPPZMugWxEZcgbnvRMpLAEj7M8yRvKgL7XG3iLNBBUdxUauQSL7PxeFtlaKLKKVS5vmSs5R6Hg7of8izL1U5vXaY7UglJQ7kUsYRXBNkyJ583M84wXowWxLVQNorySAOm_1QYCFfqsi1sfS_vZ60ib09jcn696_gNs8WaYhLsVQT0Qi6puU0XXb2DBOplzyQCz_ZH3_X0ohQUum1TqNKaNgNGqlpNaDExVNv9YhXcG6jbRirOIXNWJ_w25wfReRQNY_M_d1rFy3yayGgQbXY_VjubXCEFeu0inrmUZ3PF9kr7taBi4M2cU0HLpNVXbUmbaauzYKqxFJlxR3SeQvjcVB6IB8Bl8Ky8igTY93oCd4EyzCBseCx9ipj8VzofXQmqFSrsl9nPwDRecgnVe9]--></g></svg>