<?xml version="1.0" encoding="us-ascii" standalone="no"?><svg xmlns="http://www.w3.org/2000/svg" xmlns:xlink="http://www.w3.org/1999/xlink" contentStyleType="text/css" height="671px" preserveAspectRatio="none" style="width:1629px;height:671px;background:#FFFFFF;" version="1.1" viewBox="0 0 1629 671" width="1629px" zoomAndPan="magnify"><defs/><g><text fill="#000000" font-family="sans-serif" font-size="14" font-weight="bold" lengthAdjust="spacing" textLength="302" x="664.5" y="29.5332">SSD - Search Shipping Agent Organizations</text><rect fill="#FFFFFF" height="387.0547" style="stroke:#181818;stroke-width:1.0;" width="10" x="638" y="183.9219"/><rect fill="#FFFFFF" height="143.7578" style="stroke:#181818;stroke-width:1.0;" width="10" x="894" y="239.625"/><rect fill="#FFFFFF" height="60.7031" style="stroke:#181818;stroke-width:1.0;" width="10" x="894" y="429.5703"/><rect fill="none" height="299.3516" style="stroke:#000000;stroke-width:1.5;" width="1070.5" x="551.5" y="198.9219"/><line style="stroke:#181818;stroke-width:0.5;stroke-dasharray:5.0,5.0;" x1="74" x2="74" y1="121.2188" y2="588.9766"/><line style="stroke:#181818;stroke-width:0.5;stroke-dasharray:5.0,5.0;" x1="394.5" x2="394.5" y1="121.2188" y2="588.9766"/><line style="stroke:#181818;stroke-width:0.5;stroke-dasharray:5.0,5.0;" x1="642.5" x2="642.5" y1="121.2188" y2="588.9766"/><line style="stroke:#181818;stroke-width:0.5;stroke-dasharray:5.0,5.0;" x1="899" x2="899" y1="121.2188" y2="588.9766"/><line style="stroke:#181818;stroke-width:0.5;stroke-dasharray:5.0,5.0;" x1="1189" x2="1189" y1="121.2188" y2="588.9766"/><line style="stroke:#181818;stroke-width:0.5;stroke-dasharray:5.0,5.0;" x1="1322.5" x2="1322.5" y1="121.2188" y2="588.9766"/><text fill="#000000" font-family="sans-serif" font-size="14" lengthAdjust="spacing" textLength="132" x="5" y="118.1426">Port Authority Officer</text><ellipse cx="74" cy="52.1094" fill="#E2E2F0" rx="8" ry="8" style="stroke:#181818;stroke-width:0.5;"/><path d="M74,60.1094 L74,87.1094 M61,68.1094 L87,68.1094 M74,87.1094 L61,102.1094 M74,87.1094 L87,102.1094 " fill="none" style="stroke:#181818;stroke-width:0.5;"/><text fill="#000000" font-family="sans-serif" font-size="14" lengthAdjust="spacing" textLength="132" x="5" y="602.5098">Port Authority Officer</text><ellipse cx="74" cy="614.0859" fill="#E2E2F0" rx="8" ry="8" style="stroke:#181818;stroke-width:0.5;"/><path d="M74,622.0859 L74,649.0859 M61,630.0859 L87,630.0859 M74,649.0859 L61,664.0859 M74,649.0859 L87,664.0859 " fill="none" style="stroke:#181818;stroke-width:0.5;"/><rect fill="#E2E2F0" height="31.6094" rx="2.5" ry="2.5" style="stroke:#181818;stroke-width:0.5;" width="75" x="357.5" y="88.6094"/><text fill="#000000" font-family="sans-serif" font-size="14" lengthAdjust="spacing" textLength="61" x="364.5" y="110.1426">API Client</text><rect fill="#E2E2F0" height="31.6094" rx="2.5" ry="2.5" style="stroke:#181818;stroke-width:0.5;" width="75" x="357.5" y="587.9766"/><text fill="#000000" font-family="sans-serif" font-size="14" lengthAdjust="spacing" textLength="61" x="364.5" y="609.5098">API Client</text><rect fill="#E2E2F0" height="31.6094" rx="2.5" ry="2.5" style="stroke:#181818;stroke-width:0.5;" width="163" x="561.5" y="88.6094"/><text fill="#000000" font-family="sans-serif" font-size="14" lengthAdjust="spacing" textLength="149" x="568.5" y="110.1426">OrganizationsController</text><rect fill="#E2E2F0" height="31.6094" rx="2.5" ry="2.5" style="stroke:#181818;stroke-width:0.5;" width="163" x="561.5" y="587.9766"/><text fill="#000000" font-family="sans-serif" font-size="14" lengthAdjust="spacing" textLength="149" x="568.5" y="609.5098">OrganizationsController</text><rect fill="#E2E2F0" height="31.6094" rx="2.5" ry="2.5" style="stroke:#181818;stroke-width:0.5;" width="162" x="818" y="88.6094"/><text fill="#000000" font-family="sans-serif" font-size="14" lengthAdjust="spacing" textLength="148" x="825" y="110.1426">OrganizationRepository</text><rect fill="#E2E2F0" height="31.6094" rx="2.5" ry="2.5" style="stroke:#181818;stroke-width:0.5;" width="162" x="818" y="587.9766"/><text fill="#000000" font-family="sans-serif" font-size="14" lengthAdjust="spacing" textLength="148" x="825" y="609.5098">OrganizationRepository</text><rect fill="#E2E2F0" height="31.6094" rx="2.5" ry="2.5" style="stroke:#181818;stroke-width:0.5;" width="106" x="1136" y="88.6094"/><text fill="#000000" font-family="sans-serif" font-size="14" lengthAdjust="spacing" textLength="92" x="1143" y="110.1426">PortDbContext</text><rect fill="#E2E2F0" height="31.6094" rx="2.5" ry="2.5" style="stroke:#181818;stroke-width:0.5;" width="106" x="1136" y="587.9766"/><text fill="#000000" font-family="sans-serif" font-size="14" lengthAdjust="spacing" textLength="92" x="1143" y="609.5098">PortDbContext</text><text fill="#000000" font-family="sans-serif" font-size="14" lengthAdjust="spacing" textLength="93" x="1273.5" y="118.1426">EF (InMemory)</text><path d="M1305,67.6094 C1305,57.6094 1323,57.6094 1323,57.6094 C1323,57.6094 1341,57.6094 1341,67.6094 L1341,93.6094 C1341,103.6094 1323,103.6094 1323,103.6094 C1323,103.6094 1305,103.6094 1305,93.6094 L1305,67.6094 " fill="#E2E2F0" style="stroke:#181818;stroke-width:1.5;"/><path d="M1305,67.6094 C1305,77.6094 1323,77.6094 1323,77.6094 C1323,77.6094 1341,77.6094 1341,67.6094 " fill="none" style="stroke:#181818;stroke-width:1.5;"/><text fill="#000000" font-family="sans-serif" font-size="14" lengthAdjust="spacing" textLength="93" x="1273.5" y="602.5098">EF (InMemory)</text><path d="M1305,615.5859 C1305,605.5859 1323,605.5859 1323,605.5859 C1323,605.5859 1341,605.5859 1341,615.5859 L1341,641.5859 C1341,651.5859 1323,651.5859 1323,651.5859 C1323,651.5859 1305,651.5859 1305,641.5859 L1305,615.5859 " fill="#E2E2F0" style="stroke:#181818;stroke-width:1.5;"/><path d="M1305,615.5859 C1305,625.5859 1323,625.5859 1323,625.5859 C1323,625.5859 1341,625.5859 1341,615.5859 " fill="none" style="stroke:#181818;stroke-width:1.5;"/><rect fill="#FFFFFF" height="387.0547" style="stroke:#181818;stroke-width:1.0;" width="10" x="638" y="183.9219"/><rect fill="#FFFFFF" height="143.7578" style="stroke:#181818;stroke-width:1.0;" width="10" x="894" y="239.625"/><rect fill="#FFFFFF" height="60.7031" style="stroke:#181818;stroke-width:1.0;" width="10" x="894" y="429.5703"/><polygon fill="#181818" points="383,149.5703,393,153.5703,383,157.5703,387,153.5703" style="stroke:#181818;stroke-width:1.0;"/><line style="stroke:#181818;stroke-width:1.0;" x1="74" x2="389" y1="153.5703" y2="153.5703"/><text fill="#000000" font-family="sans-serif" font-size="13" lengthAdjust="spacing" textLength="297" x="81" y="148.7139">GET /api/organizations?identifier=...&amp;legalName=...</text><polygon fill="#181818" points="626,179.9219,636,183.9219,626,187.9219,630,183.9219" style="stroke:#181818;stroke-width:1.0;"/><line style="stroke:#181818;stroke-width:1.0;" x1="395" x2="632" y1="183.9219" y2="183.9219"/><text fill="#000000" font-family="sans-serif" font-size="13" lengthAdjust="spacing" textLength="175" x="402" y="179.0654">GetAll(identifier?, legalName?)</text><path d="M551.5,198.9219 L612.5,198.9219 L612.5,207.2734 L602.5,217.2734 L551.5,217.2734 L551.5,198.9219 " fill="#EEEEEE" style="stroke:#000000;stroke-width:1.5;"/><rect fill="none" height="299.3516" style="stroke:#000000;stroke-width:1.5;" width="1070.5" x="551.5" y="198.9219"/><text fill="#000000" font-family="sans-serif" font-size="13" font-weight="bold" lengthAdjust="spacing" textLength="16" x="566.5" y="213.417">alt</text><text fill="#000000" font-family="sans-serif" font-size="11" font-weight="bold" lengthAdjust="spacing" textLength="93" x="627.5" y="212.3408">[filters provided]</text><polygon fill="#181818" points="882,235.625,892,239.625,882,243.625,886,239.625" style="stroke:#181818;stroke-width:1.0;"/><line style="stroke:#181818;stroke-width:1.0;" x1="648" x2="888" y1="239.625" y2="239.625"/><text fill="#000000" font-family="sans-serif" font-size="13" lengthAdjust="spacing" textLength="203" x="655" y="234.7686">SearchAsync(identifier, legalName)</text><polygon fill="#181818" points="1177,265.9766,1187,269.9766,1177,273.9766,1181,269.9766" style="stroke:#181818;stroke-width:1.0;"/><line style="stroke:#181818;stroke-width:1.0;" x1="904" x2="1183" y1="269.9766" y2="269.9766"/><text fill="#000000" font-family="sans-serif" font-size="13" lengthAdjust="spacing" textLength="261" x="911" y="265.1201">query Organizations.Include(Representatives)</text><polygon fill="#181818" points="1311,307.5039,1321,311.5039,1311,315.5039,1315,311.5039" style="stroke:#181818;stroke-width:1.0;"/><line style="stroke:#181818;stroke-width:1.0;" x1="1189" x2="1317" y1="311.5039" y2="311.5039"/><text fill="#000000" font-family="sans-serif" font-size="13" lengthAdjust="spacing" textLength="66" x="1196" y="306.6475">apply filters</text><path d="M1328,282.9766 L1328,324.9766 L1607,324.9766 L1607,292.9766 L1597,282.9766 L1328,282.9766 " fill="#FEFFDD" style="stroke:#181818;stroke-width:0.5;"/><path d="M1597,282.9766 L1597,292.9766 L1607,292.9766 L1597,282.9766 " fill="#FEFFDD" style="stroke:#181818;stroke-width:0.5;"/><text fill="#000000" font-family="sans-serif" font-size="13" lengthAdjust="spacing" textLength="241" x="1334" y="301.4717">- filter Identifier contains (case-insensitive)</text><text fill="#000000" font-family="sans-serif" font-size="13" lengthAdjust="spacing" textLength="258" x="1334" y="317.8232">- filter LegalName contains (case-insensitive)</text><polygon fill="#181818" points="1200,349.0313,1190,353.0313,1200,357.0313,1196,353.0313" style="stroke:#181818;stroke-width:1.0;"/><line style="stroke:#181818;stroke-width:1.0;stroke-dasharray:2.0,2.0;" x1="1194" x2="1322" y1="353.0313" y2="353.0313"/><text fill="#000000" font-family="sans-serif" font-size="13" lengthAdjust="spacing" textLength="110" x="1206" y="348.1748">List&lt;Organization&gt;</text><polygon fill="#181818" points="910,379.3828,900,383.3828,910,387.3828,906,383.3828" style="stroke:#181818;stroke-width:1.0;"/><line style="stroke:#181818;stroke-width:1.0;stroke-dasharray:2.0,2.0;" x1="904" x2="1188" y1="383.3828" y2="383.3828"/><text fill="#000000" font-family="sans-serif" font-size="13" lengthAdjust="spacing" textLength="110" x="916" y="378.5264">List&lt;Organization&gt;</text><line style="stroke:#000000;stroke-width:1.0;stroke-dasharray:2.0,2.0;" x1="551.5" x2="1622" y1="392.3828" y2="392.3828"/><text fill="#000000" font-family="sans-serif" font-size="11" font-weight="bold" lengthAdjust="spacing" textLength="58" x="556.5" y="403.8018">[no filters]</text><polygon fill="#181818" points="882,425.5703,892,429.5703,882,433.5703,886,429.5703" style="stroke:#181818;stroke-width:1.0;"/><line style="stroke:#181818;stroke-width:1.0;" x1="648" x2="888" y1="429.5703" y2="429.5703"/><text fill="#000000" font-family="sans-serif" font-size="13" lengthAdjust="spacing" textLength="66" x="655" y="424.7139">ListAsync()</text><polygon fill="#181818" points="1311,455.9219,1321,459.9219,1311,463.9219,1315,459.9219" style="stroke:#181818;stroke-width:1.0;"/><line style="stroke:#181818;stroke-width:1.0;" x1="904" x2="1317" y1="459.9219" y2="459.9219"/><text fill="#000000" font-family="sans-serif" font-size="13" lengthAdjust="spacing" textLength="241" x="911" y="455.0654">query all Organizations + Representatives</text><polygon fill="#181818" points="910,486.2734,900,490.2734,910,494.2734,906,490.2734" style="stroke:#181818;stroke-width:1.0;"/><line style="stroke:#181818;stroke-width:1.0;stroke-dasharray:2.0,2.0;" x1="904" x2="1322" y1="490.2734" y2="490.2734"/><text fill="#000000" font-family="sans-serif" font-size="13" lengthAdjust="spacing" textLength="110" x="916" y="485.417">List&lt;Organization&gt;</text><line style="stroke:#181818;stroke-width:1.0;" x1="648" x2="690" y1="527.625" y2="527.625"/><line style="stroke:#181818;stroke-width:1.0;" x1="690" x2="690" y1="527.625" y2="540.625"/><line style="stroke:#181818;stroke-width:1.0;" x1="649" x2="690" y1="540.625" y2="540.625"/><polygon fill="#181818" points="659,536.625,649,540.625,659,544.625,655,540.625" style="stroke:#181818;stroke-width:1.0;"/><text fill="#000000" font-family="sans-serif" font-size="13" lengthAdjust="spacing" textLength="232" x="655" y="522.7686">map to List&lt;OrganizationResponseDto&gt;</text><polygon fill="#181818" points="406,566.9766,396,570.9766,406,574.9766,402,570.9766" style="stroke:#181818;stroke-width:1.0;"/><line style="stroke:#181818;stroke-width:1.0;stroke-dasharray:2.0,2.0;" x1="400" x2="642" y1="570.9766" y2="570.9766"/><text fill="#000000" font-family="sans-serif" font-size="13" lengthAdjust="spacing" textLength="219" x="412" y="566.1201">200 OK [OrganizationResponseDto...]</text><!--SRC=[ZLB1ZjD03BtFLrWze5RGxeeZWbPHig2AXQuQReY3cxYffUdCC3Ej25-FqoJT1AZWDedVUtv-TkIe2V8yWpdaXBuuG7vWvzXKa5Ha8cnyXOP_OcHhWb9OHEjXycHzXEGK3zPph66pttD1VW8O-hTow2CNx5149idJ6bBD8dZ1jCynPDGejIPwgtMdcTw6RidPm6AgRhjlnz36QBPhvEX7splRgH8ZxZ0GJ1xUmtHjFj5H-BDBEHSfKggR0kRBpYoyWGyFN-0E7T_PeTKLbrBcFPD_jrWiNcYgK7_68pLVgYCtCeq2nKJhwJDZzGgk-DMiIPVF64a6LgWZx5b7yW6SjsSXbGf4HhGsMn5hzvM4sXG3nO7WJE1NHGa66fwmivsmlv_8r-FjBjQcqAUIffAffo2AylzCeT4HZZ0luGWPdTDrxqwgnae7pzKXoWV8BRKbM5zjGI4hG3O1feKaFvSN6TcRwC_6dCVU_ZyePCfBNtcsjkRzQ8ySujlXPCjkW3wvlm9A6cP5Mix3sC6Cpy4tz3RsMmdtERKXezRZeE4b_1RnQ8Z_zcXAfTB-jexe8De_ULiAJdfI5ksoGGyl-lNzFMm-mjSRU3dWRshGC_q5]--></g></svg>