<?xml version="1.0" encoding="us-ascii" standalone="no"?><svg xmlns="http://www.w3.org/2000/svg" xmlns:xlink="http://www.w3.org/1999/xlink" contentStyleType="text/css" height="787px" preserveAspectRatio="none" style="width:1684px;height:787px;background:#FFFFFF;" version="1.1" viewBox="0 0 1684 787" width="1684px" zoomAndPan="magnify"><defs/><g><text fill="#000000" font-family="sans-serif" font-size="14" font-weight="bold" lengthAdjust="spacing" textLength="454" x="608.25" y="24.5332">Domain Model - US 2.2.5 (Register Shipping Agent Organizations)</text><!--class Organization--><g id="elem_Organization"><rect codeLine="3" fill="#F1F1F1" height="294.5313" id="Organization" rx="2.5" ry="2.5" style="stroke:#181818;stroke-width:0.5;" width="1215" x="7" y="45.6094"/><ellipse cx="570.25" cy="61.6094" fill="#ADD1B2" rx="11" ry="11" style="stroke:#181818;stroke-width:1.0;"/><path d="M573.0156,57.4844 Q573.1719,57.2656 573.3594,57.1563 Q573.5469,57.0469 573.7656,57.0469 Q574.1406,57.0469 574.375,57.3125 Q574.6094,57.5625 574.6094,58.1719 L574.6094,59.625 Q574.6094,60.2344 574.375,60.5 Q574.1406,60.7656 573.7656,60.7656 Q573.4219,60.7656 573.2188,60.5625 Q573.0156,60.375 572.9063,59.8594 Q572.8594,59.5 572.6719,59.3125 Q572.3438,58.9375 571.7344,58.7188 Q571.125,58.5 570.5,58.5 Q569.7344,58.5 569.0938,58.8281 Q568.4688,59.1563 567.9688,59.9063 Q567.4844,60.6563 567.4844,61.6875 L567.4844,62.7813 Q567.4844,64.0156 568.375,64.8438 Q569.2656,65.6563 570.8594,65.6563 Q571.7969,65.6563 572.4531,65.4063 Q572.8438,65.25 573.2656,64.8125 Q573.5313,64.5469 573.6719,64.4688 Q573.8281,64.3906 574.0313,64.3906 Q574.3594,64.3906 574.6094,64.6563 Q574.875,64.9063 574.875,65.25 Q574.875,65.5938 574.5313,66 Q574.0313,66.5781 573.2344,66.9063 Q572.1563,67.3594 570.8594,67.3594 Q569.3438,67.3594 568.1406,66.7344 Q567.1563,66.2344 566.4688,65.1719 Q565.7813,64.0938 565.7813,62.8125 L565.7813,61.6563 Q565.7813,60.3281 566.3906,59.1875 Q567.0156,58.0313 568.1094,57.4219 Q569.2031,56.7969 570.4375,56.7969 Q571.1719,56.7969 571.8125,56.9688 Q572.4688,57.125 573.0156,57.4844 Z " fill="#000000"/><text fill="#000000" font-family="sans-serif" font-size="14" lengthAdjust="spacing" textLength="80" x="590.75" y="67.3379">Organization</text><line style="stroke:#181818;stroke-width:0.5;" x1="8" x2="1221" y1="77.6094" y2="77.6094"/><ellipse cx="18" cy="91.9141" fill="none" rx="3" ry="3" style="stroke:#038048;stroke-width:1.0;"/><text fill="#000000" font-family="sans-serif" font-size="14" lengthAdjust="spacing" textLength="133" x="27" y="96.1426">OrganizationId : Guid</text><ellipse cx="18" cy="109.5234" fill="none" rx="3" ry="3" style="stroke:#038048;stroke-width:1.0;"/><text fill="#000000" font-family="sans-serif" font-size="14" lengthAdjust="spacing" textLength="101" x="27" y="113.752">Identifier : string</text><ellipse cx="18" cy="127.1328" fill="none" rx="3" ry="3" style="stroke:#038048;stroke-width:1.0;"/><text fill="#000000" font-family="sans-serif" font-size="14" lengthAdjust="spacing" textLength="118" x="27" y="131.3613">LegalName : string</text><ellipse cx="18" cy="144.7422" fill="none" rx="3" ry="3" style="stroke:#038048;stroke-width:1.0;"/><text fill="#000000" font-family="sans-serif" font-size="14" lengthAdjust="spacing" textLength="150" x="27" y="148.9707">AlternativeName : string</text><ellipse cx="18" cy="162.3516" fill="none" rx="3" ry="3" style="stroke:#038048;stroke-width:1.0;"/><text fill="#000000" font-family="sans-serif" font-size="14" lengthAdjust="spacing" textLength="126" x="27" y="166.5801">AddressLine : string</text><ellipse cx="18" cy="179.9609" fill="none" rx="3" ry="3" style="stroke:#038048;stroke-width:1.0;"/><text fill="#000000" font-family="sans-serif" font-size="14" lengthAdjust="spacing" textLength="119" x="27" y="184.1895">TaxNumber : string</text><ellipse cx="18" cy="197.5703" fill="none" rx="3" ry="3" style="stroke:#038048;stroke-width:1.0;"/><text fill="#000000" font-family="sans-serif" font-size="14" lengthAdjust="spacing" textLength="156" x="27" y="201.7988">Type : OrganizationType</text><line style="stroke:#181818;stroke-width:1.0;" x1="8" x2="1221" y1="208.875" y2="208.875"/><ellipse cx="18" cy="223.1797" fill="#84BE84" rx="3" ry="3" style="stroke:#038048;stroke-width:1.0;"/><text fill="#000000" font-family="sans-serif" font-size="14" lengthAdjust="spacing" textLength="1189" x="27" y="227.4082">Organization(id:Guid, identifier:string, legalName:string, alternativeName:string, addressLine:string, taxNumber:string, type:OrganizationType, representatives:IEnumerable&lt;Representative&gt;)</text><ellipse cx="18" cy="240.7891" fill="#84BE84" rx="3" ry="3" style="stroke:#038048;stroke-width:1.0;"/><text fill="#000000" font-family="sans-serif" font-size="14" lengthAdjust="spacing" textLength="216" x="27" y="245.0176">SetIdentifier(identifier:string) : void</text><ellipse cx="18" cy="258.3984" fill="#84BE84" rx="3" ry="3" style="stroke:#038048;stroke-width:1.0;"/><text fill="#000000" font-family="sans-serif" font-size="14" lengthAdjust="spacing" textLength="245" x="27" y="262.627">SetLegalName(legalName:string) : void</text><ellipse cx="18" cy="276.0078" fill="#84BE84" rx="3" ry="3" style="stroke:#038048;stroke-width:1.0;"/><text fill="#000000" font-family="sans-serif" font-size="14" lengthAdjust="spacing" textLength="313" x="27" y="280.2363">SetAlternativeName(alternativeName:string) : void</text><ellipse cx="18" cy="293.6172" fill="#84BE84" rx="3" ry="3" style="stroke:#038048;stroke-width:1.0;"/><text fill="#000000" font-family="sans-serif" font-size="14" lengthAdjust="spacing" textLength="265" x="27" y="297.8457">SetAddressLine(addressLine:string) : void</text><ellipse cx="18" cy="311.2266" fill="#84BE84" rx="3" ry="3" style="stroke:#038048;stroke-width:1.0;"/><text fill="#000000" font-family="sans-serif" font-size="14" lengthAdjust="spacing" textLength="247" x="27" y="315.4551">SetTaxNumber(taxNumber:string) : void</text><ellipse cx="18" cy="328.8359" fill="#84BE84" rx="3" ry="3" style="stroke:#038048;stroke-width:1.0;"/><text fill="#000000" font-family="sans-serif" font-size="14" lengthAdjust="spacing" textLength="469" x="27" y="333.0645">AddRepresentatives(representatives:IEnumerable&lt;Representative&gt;) : void</text></g><!--class Representative--><g id="elem_Representative"><rect codeLine="21" fill="#F1F1F1" height="241.7031" id="Representative" rx="2.5" ry="2.5" style="stroke:#181818;stroke-width:0.5;" width="581" x="116" y="418.6094"/><ellipse cx="354.25" cy="434.6094" fill="#ADD1B2" rx="11" ry="11" style="stroke:#181818;stroke-width:1.0;"/><path d="M357.0156,430.4844 Q357.1719,430.2656 357.3594,430.1563 Q357.5469,430.0469 357.7656,430.0469 Q358.1406,430.0469 358.375,430.3125 Q358.6094,430.5625 358.6094,431.1719 L358.6094,432.625 Q358.6094,433.2344 358.375,433.5 Q358.1406,433.7656 357.7656,433.7656 Q357.4219,433.7656 357.2188,433.5625 Q357.0156,433.375 356.9063,432.8594 Q356.8594,432.5 356.6719,432.3125 Q356.3438,431.9375 355.7344,431.7188 Q355.125,431.5 354.5,431.5 Q353.7344,431.5 353.0938,431.8281 Q352.4688,432.1563 351.9688,432.9063 Q351.4844,433.6563 351.4844,434.6875 L351.4844,435.7813 Q351.4844,437.0156 352.375,437.8438 Q353.2656,438.6563 354.8594,438.6563 Q355.7969,438.6563 356.4531,438.4063 Q356.8438,438.25 357.2656,437.8125 Q357.5313,437.5469 357.6719,437.4688 Q357.8281,437.3906 358.0313,437.3906 Q358.3594,437.3906 358.6094,437.6563 Q358.875,437.9063 358.875,438.25 Q358.875,438.5938 358.5313,439 Q358.0313,439.5781 357.2344,439.9063 Q356.1563,440.3594 354.8594,440.3594 Q353.3438,440.3594 352.1406,439.7344 Q351.1563,439.2344 350.4688,438.1719 Q349.7813,437.0938 349.7813,435.8125 L349.7813,434.6563 Q349.7813,433.3281 350.3906,432.1875 Q351.0156,431.0313 352.1094,430.4219 Q353.2031,429.7969 354.4375,429.7969 Q355.1719,429.7969 355.8125,429.9688 Q356.4688,430.125 357.0156,430.4844 Z " fill="#000000"/><text fill="#000000" font-family="sans-serif" font-size="14" lengthAdjust="spacing" textLength="96" x="374.75" y="440.3379">Representative</text><line style="stroke:#181818;stroke-width:0.5;" x1="117" x2="696" y1="450.6094" y2="450.6094"/><ellipse cx="127" cy="464.9141" fill="none" rx="3" ry="3" style="stroke:#038048;stroke-width:1.0;"/><text fill="#000000" font-family="sans-serif" font-size="14" lengthAdjust="spacing" textLength="149" x="136" y="469.1426">RepresentativeId : Guid</text><ellipse cx="127" cy="482.5234" fill="none" rx="3" ry="3" style="stroke:#038048;stroke-width:1.0;"/><text fill="#000000" font-family="sans-serif" font-size="14" lengthAdjust="spacing" textLength="83" x="136" y="486.752">Name : string</text><ellipse cx="127" cy="500.1328" fill="none" rx="3" ry="3" style="stroke:#038048;stroke-width:1.0;"/><text fill="#000000" font-family="sans-serif" font-size="14" lengthAdjust="spacing" textLength="100" x="136" y="504.3613">CitizenId : string</text><ellipse cx="127" cy="517.7422" fill="none" rx="3" ry="3" style="stroke:#038048;stroke-width:1.0;"/><text fill="#000000" font-family="sans-serif" font-size="14" lengthAdjust="spacing" textLength="112" x="136" y="521.9707">Nationality : string</text><ellipse cx="127" cy="535.3516" fill="none" rx="3" ry="3" style="stroke:#038048;stroke-width:1.0;"/><text fill="#000000" font-family="sans-serif" font-size="14" lengthAdjust="spacing" textLength="81" x="136" y="539.5801">Email : string</text><ellipse cx="127" cy="552.9609" fill="none" rx="3" ry="3" style="stroke:#038048;stroke-width:1.0;"/><text fill="#000000" font-family="sans-serif" font-size="14" lengthAdjust="spacing" textLength="88" x="136" y="557.1895">Phone : string</text><ellipse cx="127" cy="570.5703" fill="none" rx="3" ry="3" style="stroke:#038048;stroke-width:1.0;"/><text fill="#000000" font-family="sans-serif" font-size="14" lengthAdjust="spacing" textLength="87" x="136" y="574.7988">IsActive : bool</text><ellipse cx="127" cy="588.1797" fill="none" rx="3" ry="3" style="stroke:#038048;stroke-width:1.0;"/><text fill="#000000" font-family="sans-serif" font-size="14" lengthAdjust="spacing" textLength="137" x="136" y="592.4082">CreatedAt : DateTime</text><line style="stroke:#181818;stroke-width:1.0;" x1="117" x2="696" y1="599.4844" y2="599.4844"/><ellipse cx="127" cy="613.7891" fill="#84BE84" rx="3" ry="3" style="stroke:#038048;stroke-width:1.0;"/><text fill="#000000" font-family="sans-serif" font-size="14" lengthAdjust="spacing" textLength="555" x="136" y="618.0176">Representative(name:string, citizenId:string, nationality:string, email:string, phone:string)</text><ellipse cx="127" cy="631.3984" fill="#84BE84" rx="3" ry="3" style="stroke:#038048;stroke-width:1.0;"/><text fill="#000000" font-family="sans-serif" font-size="14" lengthAdjust="spacing" textLength="98" x="136" y="635.627">Activate() : void</text><ellipse cx="127" cy="649.0078" fill="#84BE84" rx="3" ry="3" style="stroke:#038048;stroke-width:1.0;"/><text fill="#000000" font-family="sans-serif" font-size="14" lengthAdjust="spacing" textLength="115" x="136" y="653.2363">Deactivate() : void</text></g><!--class OrganizationType--><g id="elem_OrganizationType"><rect codeLine="36" fill="#F1F1F1" height="118.4375" id="OrganizationType" rx="2.5" ry="2.5" style="stroke:#181818;stroke-width:0.5;" width="180" x="732.5" y="480.6094"/><ellipse cx="763.7" cy="496.6094" fill="#ADD1B2" rx="11" ry="11" style="stroke:#181818;stroke-width:1.0;"/><path d="M766.4656,492.4844 Q766.6219,492.2656 766.8094,492.1563 Q766.9969,492.0469 767.2156,492.0469 Q767.5906,492.0469 767.825,492.3125 Q768.0594,492.5625 768.0594,493.1719 L768.0594,494.625 Q768.0594,495.2344 767.825,495.5 Q767.5906,495.7656 767.2156,495.7656 Q766.8719,495.7656 766.6688,495.5625 Q766.4656,495.375 766.3563,494.8594 Q766.3094,494.5 766.1219,494.3125 Q765.7938,493.9375 765.1844,493.7188 Q764.575,493.5 763.95,493.5 Q763.1844,493.5 762.5438,493.8281 Q761.9188,494.1563 761.4188,494.9063 Q760.9344,495.6563 760.9344,496.6875 L760.9344,497.7813 Q760.9344,499.0156 761.825,499.8438 Q762.7156,500.6563 764.3094,500.6563 Q765.2469,500.6563 765.9031,500.4063 Q766.2938,500.25 766.7156,499.8125 Q766.9813,499.5469 767.1219,499.4688 Q767.2781,499.3906 767.4813,499.3906 Q767.8094,499.3906 768.0594,499.6563 Q768.325,499.9063 768.325,500.25 Q768.325,500.5938 767.9813,501 Q767.4813,501.5781 766.6844,501.9063 Q765.6063,502.3594 764.3094,502.3594 Q762.7938,502.3594 761.5906,501.7344 Q760.6063,501.2344 759.9188,500.1719 Q759.2313,499.0938 759.2313,497.8125 L759.2313,496.6563 Q759.2313,495.3281 759.8406,494.1875 Q760.4656,493.0313 761.5594,492.4219 Q762.6531,491.7969 763.8875,491.7969 Q764.6219,491.7969 765.2625,491.9688 Q765.9188,492.125 766.4656,492.4844 Z " fill="#000000"/><text fill="#000000" font-family="sans-serif" font-size="14" lengthAdjust="spacing" textLength="112" x="781.3" y="502.3379">OrganizationType</text><line style="stroke:#181818;stroke-width:0.5;" x1="733.5" x2="911.5" y1="512.6094" y2="512.6094"/><text fill="#000000" font-family="sans-serif" font-size="14" lengthAdjust="spacing" textLength="95" x="752.5" y="531.1426">&#171;enumeration&#187;</text><ellipse cx="743.5" cy="544.5234" fill="none" rx="3" ry="3" style="stroke:#038048;stroke-width:1.0;"/><text fill="#000000" font-family="sans-serif" font-size="14" lengthAdjust="spacing" textLength="117" x="752.5" y="548.752">SHIPPING_AGENT</text><ellipse cx="743.5" cy="562.1328" fill="none" rx="3" ry="3" style="stroke:#038048;stroke-width:1.0;"/><text fill="#000000" font-family="sans-serif" font-size="14" lengthAdjust="spacing" textLength="125" x="752.5" y="566.3613">PORT_AUTHORITY</text><ellipse cx="743.5" cy="579.7422" fill="none" rx="3" ry="3" style="stroke:#038048;stroke-width:1.0;"/><text fill="#000000" font-family="sans-serif" font-size="14" lengthAdjust="spacing" textLength="154" x="752.5" y="583.9707">TERMINAL_OPERATOR</text><line style="stroke:#181818;stroke-width:0.5;" x1="733.5" x2="911.5" y1="591.0469" y2="591.0469"/></g><g id="elem_GMN7"><path d="M1257.5,131.1094 L1257.5,189.1094 L1222.18,193.1094 L1257.5,197.1094 L1257.5,255.5703 A0,0 0 0 0 1257.5,255.5703 L1677.5,255.5703 A0,0 0 0 0 1677.5,255.5703 L1677.5,141.1094 L1667.5,131.1094 L1257.5,131.1094 A0,0 0 0 0 1257.5,131.1094 " fill="#FEFFDD" style="stroke:#181818;stroke-width:0.5;"/><path d="M1667.5,131.1094 L1667.5,141.1094 L1677.5,141.1094 L1667.5,131.1094 " fill="#FEFFDD" style="stroke:#181818;stroke-width:0.5;"/><text fill="#000000" font-family="sans-serif" font-size="13" font-weight="bold" lengthAdjust="spacing" textLength="82" x="1263.5" y="149.6045">Primary Key:</text><text fill="#000000" font-family="sans-serif" font-size="13" lengthAdjust="spacing" textLength="155" x="1349.5" y="149.6045">OrganizationId (immutable)</text><text fill="#000000" font-family="sans-serif" font-size="13" font-weight="bold" lengthAdjust="spacing" textLength="98" x="1263.5" y="165.9561">Business Rules:</text><text fill="#000000" font-family="sans-serif" font-size="13" lengthAdjust="spacing" textLength="399" x="1263.5" y="182.3076">- Must have identifier, legal &amp; alternative names, address, tax number</text><text fill="#000000" font-family="sans-serif" font-size="13" lengthAdjust="spacing" textLength="238" x="1263.5" y="198.6592">- Must include at least one representative</text><text fill="#000000" font-family="sans-serif" font-size="13" lengthAdjust="spacing" textLength="377" x="1263.5" y="215.0107">- Representatives have name, citizen ID, nationality, email, phone</text><text fill="#000000" font-family="sans-serif" font-size="13" lengthAdjust="spacing" textLength="216" x="1263.5" y="231.3623">- Email &amp; phone used for notifications</text><text fill="#000000" font-family="sans-serif" font-size="13" lengthAdjust="spacing" textLength="386" x="1263.5" y="247.7139">- Only SHIPPING_AGENT type requires representatives at creation</text></g><g id="elem_GMN10"><path d="M288.5,721.6094 L288.5,780.6641 A0,0 0 0 0 288.5,780.6641 L524.5,780.6641 A0,0 0 0 0 524.5,780.6641 L524.5,731.6094 L514.5,721.6094 L410.5,721.6094 L406.5,660.6594 L402.5,721.6094 L288.5,721.6094 A0,0 0 0 0 288.5,721.6094 " fill="#FEFFDD" style="stroke:#181818;stroke-width:0.5;"/><path d="M514.5,721.6094 L514.5,731.6094 L524.5,731.6094 L514.5,721.6094 " fill="#FEFFDD" style="stroke:#181818;stroke-width:0.5;"/><text fill="#000000" font-family="sans-serif" font-size="13" font-weight="bold" lengthAdjust="spacing" textLength="98" x="294.5" y="740.1045">Business Rules:</text><text fill="#000000" font-family="sans-serif" font-size="13" lengthAdjust="spacing" textLength="215" x="294.5" y="756.4561">- Belongs to exactly one organization</text><text fill="#000000" font-family="sans-serif" font-size="13" lengthAdjust="spacing" textLength="173" x="294.5" y="772.8076">- Can be activated/deactivated</text></g><!--link Organization to Representative--><g id="link_Organization_Representative"><path codeLine="44" d="M525.99,340.7094 C510.34,366.6194 497.3223,388.1937 482.1723,413.2737 " fill="none" id="Organization-to-Representative" style="stroke:#181818;stroke-width:1.0;"/><polygon fill="#181818" points="479.07,418.4094,487.1473,412.774,481.6553,414.1296,480.2997,408.6376,479.07,418.4094" style="stroke:#181818;stroke-width:1.0;"/><text fill="#000000" font-family="sans-serif" font-size="13" lengthAdjust="spacing" textLength="21" x="505.5" y="385.1045">has</text><text fill="#000000" font-family="sans-serif" font-size="13" lengthAdjust="spacing" textLength="7" x="514.5333" y="361.7612">1</text><text fill="#000000" font-family="sans-serif" font-size="13" lengthAdjust="spacing" textLength="20" x="463.0784" y="407.6484">1..*</text></g><!--link Organization to OrganizationType--><g id="link_Organization_OrganizationType"><path codeLine="45" d="M703.01,340.7094 C732.76,389.9694 761.1291,436.9628 784.2991,475.3428 " fill="none" id="Organization-to-OrganizationType" style="stroke:#181818;stroke-width:1.0;"/><polygon fill="#181818" points="787.4,480.4794,786.173,470.7073,784.8159,476.1989,779.3242,474.8418,787.4,480.4794" style="stroke:#181818;stroke-width:1.0;"/><text fill="#000000" font-family="sans-serif" font-size="13" lengthAdjust="spacing" textLength="25" x="732.5" y="385.1045">type</text><text fill="#000000" font-family="sans-serif" font-size="13" lengthAdjust="spacing" textLength="7" x="700.1277" y="361.7612">1</text><text fill="#000000" font-family="sans-serif" font-size="13" lengthAdjust="spacing" textLength="7" x="775.6956" y="469.7878">1</text></g><!--SRC=[bLJ1JkCm4BtdAqOzi6cMThL8UubGfK0hY1RQAeJ3df3RcDIIOtTZ1r5M_3lZf4bg1mvxQlCy7h-PzsOqqvp2N1Q42RYN6UKmWSS7k9XUJ7-1dz2SAKrBUDYn_Pw97AAS2WshCYU2lH7Df51ZpzjoefI5mZyFuBi5nHc4S5Enh3w9Cqp4dXac3q7f4fFN-1tD2L-IWjfmn966m3mlz9F3B2kfKdTCE0SfULrMnSPz8ptiJU0fEGFXsMGoeEspB3Iipu5rbCCcsJdmbcs749jeZ_SSEqotz7e4QOGkhtCewHulu-jrNXN62r4Lj2GRJYyJwsmshWjueBfli3yWFiRgN-HH2Opjckwx1RcHZWx-v-KERlN5-yD6kD6TQhxR82iIazgrA_z_-jIcUc_jQmSS3Mo3jeM7HhncchtHnkadyBAMad2c3_R10kUEsz1w9rqNnohQrfH2s4Z9cvTAIZJD8etW7F-bh3ZnhytQ5wT6tBOSEqJqz3gC6cRTrzwGQZLeccyOuRk-9ScSaW7-_jbwg2VGTFZoaZOI6NGsQonm6w_NyVBcARfPBDEcAwiaVOeUqzjL4gT_cY5U9FVnChfxMgqNIPIk4lFIDooTDsi9DvRoh9Kq-Zd21itmTpeDHgxU8Up8bnT6G_PXFQoU9wIcKB9yfq4-Ms5U4AnBLf3o0B_f8Gm2Tntwh2WgRTmvnjYhIk5C62DM7BqR1Du4xYkbaHVIwsVuk7NWx7JNWD5OTMkctYqWwjbfqp2nvLL6WMXCG10mHhCd1aETaMeUDyaxvq0yjpnpDClH9PYYSVLPymsLeXayonAmKSX_swY3OIl13uxMTKkHqz-A8GbtxHdcM-DxqrigCfEn5M0ZjPQ5KS0ku8k-Nb4kHQv0Iw2lw5baOhZAK_KcS4q4RB1XHqzdFxBEtrbFu0C0]--></g></svg>