<?xml version="1.0" encoding="us-ascii" standalone="no"?><svg xmlns="http://www.w3.org/2000/svg" xmlns:xlink="http://www.w3.org/1999/xlink" contentStyleType="text/css" height="753px" preserveAspectRatio="none" style="width:2230px;height:753px;background:#FFFFFF;" version="1.1" viewBox="0 0 2230 753" width="2230px" zoomAndPan="magnify"><defs/><g><text fill="#000000" font-family="sans-serif" font-size="14" font-weight="bold" lengthAdjust="spacing" textLength="366" x="933.5" y="29.5332">SSD - Register Shipping Agent Organization (Create)</text><rect fill="#FFFFFF" height="453.2734" style="stroke:#181818;stroke-width:1.0;" width="10" x="864" y="200.2734"/><rect fill="#FFFFFF" height="60.7031" style="stroke:#181818;stroke-width:1.0;" width="10" x="1396" y="290.3281"/><rect fill="#FFFFFF" height="91.0547" style="stroke:#181818;stroke-width:1.0;" width="10" x="1396" y="532.1406"/><rect fill="#FFFFFF" height="120.4063" style="stroke:#181818;stroke-width:1.0;" width="10" x="1743" y="381.3828"/><line style="stroke:#181818;stroke-width:0.5;stroke-dasharray:5.0,5.0;" x1="74" x2="74" y1="121.2188" y2="671.5469"/><line style="stroke:#181818;stroke-width:0.5;stroke-dasharray:5.0,5.0;" x1="602.5" x2="602.5" y1="121.2188" y2="671.5469"/><line style="stroke:#181818;stroke-width:0.5;stroke-dasharray:5.0,5.0;" x1="868.5" x2="868.5" y1="121.2188" y2="671.5469"/><line style="stroke:#181818;stroke-width:0.5;stroke-dasharray:5.0,5.0;" x1="1401" x2="1401" y1="121.2188" y2="671.5469"/><line style="stroke:#181818;stroke-width:0.5;stroke-dasharray:5.0,5.0;" x1="1545" x2="1545" y1="121.2188" y2="671.5469"/><line style="stroke:#181818;stroke-width:0.5;stroke-dasharray:5.0,5.0;" x1="1748" x2="1748" y1="121.2188" y2="671.5469"/><line style="stroke:#181818;stroke-width:0.5;stroke-dasharray:5.0,5.0;" x1="2034" x2="2034" y1="121.2188" y2="671.5469"/><line style="stroke:#181818;stroke-width:0.5;stroke-dasharray:5.0,5.0;" x1="2179" x2="2179" y1="121.2188" y2="671.5469"/><text fill="#000000" font-family="sans-serif" font-size="14" lengthAdjust="spacing" textLength="132" x="5" y="118.1426">Port Authority Officer</text><ellipse cx="74" cy="52.1094" fill="#E2E2F0" rx="8" ry="8" style="stroke:#181818;stroke-width:0.5;"/><path d="M74,60.1094 L74,87.1094 M61,68.1094 L87,68.1094 M74,87.1094 L61,102.1094 M74,87.1094 L87,102.1094 " fill="none" style="stroke:#181818;stroke-width:0.5;"/><text fill="#000000" font-family="sans-serif" font-size="14" lengthAdjust="spacing" textLength="132" x="5" y="685.0801">Port Authority Officer</text><ellipse cx="74" cy="696.6563" fill="#E2E2F0" rx="8" ry="8" style="stroke:#181818;stroke-width:0.5;"/><path d="M74,704.6563 L74,731.6563 M61,712.6563 L87,712.6563 M74,731.6563 L61,746.6563 M74,731.6563 L87,746.6563 " fill="none" style="stroke:#181818;stroke-width:0.5;"/><rect fill="#E2E2F0" height="31.6094" rx="2.5" ry="2.5" style="stroke:#181818;stroke-width:0.5;" width="75" x="565.5" y="88.6094"/><text fill="#000000" font-family="sans-serif" font-size="14" lengthAdjust="spacing" textLength="61" x="572.5" y="110.1426">API Client</text><rect fill="#E2E2F0" height="31.6094" rx="2.5" ry="2.5" style="stroke:#181818;stroke-width:0.5;" width="75" x="565.5" y="670.5469"/><text fill="#000000" font-family="sans-serif" font-size="14" lengthAdjust="spacing" textLength="61" x="572.5" y="692.0801">API Client</text><rect fill="#E2E2F0" height="31.6094" rx="2.5" ry="2.5" style="stroke:#181818;stroke-width:0.5;" width="163" x="787.5" y="88.6094"/><text fill="#000000" font-family="sans-serif" font-size="14" lengthAdjust="spacing" textLength="149" x="794.5" y="110.1426">OrganizationsController</text><rect fill="#E2E2F0" height="31.6094" rx="2.5" ry="2.5" style="stroke:#181818;stroke-width:0.5;" width="163" x="787.5" y="670.5469"/><text fill="#000000" font-family="sans-serif" font-size="14" lengthAdjust="spacing" textLength="149" x="794.5" y="692.0801">OrganizationsController</text><rect fill="#E2E2F0" height="31.6094" rx="2.5" ry="2.5" style="stroke:#181818;stroke-width:0.5;" width="162" x="1320" y="88.6094"/><text fill="#000000" font-family="sans-serif" font-size="14" lengthAdjust="spacing" textLength="148" x="1327" y="110.1426">OrganizationRepository</text><rect fill="#E2E2F0" height="31.6094" rx="2.5" ry="2.5" style="stroke:#181818;stroke-width:0.5;" width="162" x="1320" y="670.5469"/><text fill="#000000" font-family="sans-serif" font-size="14" lengthAdjust="spacing" textLength="148" x="1327" y="692.0801">OrganizationRepository</text><rect fill="#E2E2F0" height="31.6094" rx="2.5" ry="2.5" style="stroke:#181818;stroke-width:0.5;" width="106" x="1492" y="88.6094"/><text fill="#000000" font-family="sans-serif" font-size="14" lengthAdjust="spacing" textLength="92" x="1499" y="110.1426">PortDbContext</text><rect fill="#E2E2F0" height="31.6094" rx="2.5" ry="2.5" style="stroke:#181818;stroke-width:0.5;" width="106" x="1492" y="670.5469"/><text fill="#000000" font-family="sans-serif" font-size="14" lengthAdjust="spacing" textLength="92" x="1499" y="692.0801">PortDbContext</text><rect fill="#E2E2F0" height="31.6094" rx="2.5" ry="2.5" style="stroke:#181818;stroke-width:0.5;" width="156" x="1670" y="88.6094"/><text fill="#000000" font-family="sans-serif" font-size="14" lengthAdjust="spacing" textLength="142" x="1677" y="110.1426">Organization (Domain)</text><rect fill="#E2E2F0" height="31.6094" rx="2.5" ry="2.5" style="stroke:#181818;stroke-width:0.5;" width="156" x="1670" y="670.5469"/><text fill="#000000" font-family="sans-serif" font-size="14" lengthAdjust="spacing" textLength="142" x="1677" y="692.0801">Organization (Domain)</text><rect fill="#E2E2F0" height="31.6094" rx="2.5" ry="2.5" style="stroke:#181818;stroke-width:0.5;" width="172" x="1948" y="88.6094"/><text fill="#000000" font-family="sans-serif" font-size="14" lengthAdjust="spacing" textLength="158" x="1955" y="110.1426">Representative (Domain)</text><rect fill="#E2E2F0" height="31.6094" rx="2.5" ry="2.5" style="stroke:#181818;stroke-width:0.5;" width="172" x="1948" y="670.5469"/><text fill="#000000" font-family="sans-serif" font-size="14" lengthAdjust="spacing" textLength="158" x="1955" y="692.0801">Representative (Domain)</text><text fill="#000000" font-family="sans-serif" font-size="14" lengthAdjust="spacing" textLength="93" x="2130" y="118.1426">EF (InMemory)</text><path d="M2161.5,67.6094 C2161.5,57.6094 2179.5,57.6094 2179.5,57.6094 C2179.5,57.6094 2197.5,57.6094 2197.5,67.6094 L2197.5,93.6094 C2197.5,103.6094 2179.5,103.6094 2179.5,103.6094 C2179.5,103.6094 2161.5,103.6094 2161.5,93.6094 L2161.5,67.6094 " fill="#E2E2F0" style="stroke:#181818;stroke-width:1.5;"/><path d="M2161.5,67.6094 C2161.5,77.6094 2179.5,77.6094 2179.5,77.6094 C2179.5,77.6094 2197.5,77.6094 2197.5,67.6094 " fill="none" style="stroke:#181818;stroke-width:1.5;"/><text fill="#000000" font-family="sans-serif" font-size="14" lengthAdjust="spacing" textLength="93" x="2130" y="685.0801">EF (InMemory)</text><path d="M2161.5,698.1563 C2161.5,688.1563 2179.5,688.1563 2179.5,688.1563 C2179.5,688.1563 2197.5,688.1563 2197.5,698.1563 L2197.5,724.1563 C2197.5,734.1563 2179.5,734.1563 2179.5,734.1563 C2179.5,734.1563 2161.5,734.1563 2161.5,724.1563 L2161.5,698.1563 " fill="#E2E2F0" style="stroke:#181818;stroke-width:1.5;"/><path d="M2161.5,698.1563 C2161.5,708.1563 2179.5,708.1563 2179.5,708.1563 C2179.5,708.1563 2197.5,708.1563 2197.5,698.1563 " fill="none" style="stroke:#181818;stroke-width:1.5;"/><rect fill="#FFFFFF" height="453.2734" style="stroke:#181818;stroke-width:1.0;" width="10" x="864" y="200.2734"/><rect fill="#FFFFFF" height="60.7031" style="stroke:#181818;stroke-width:1.0;" width="10" x="1396" y="290.3281"/><rect fill="#FFFFFF" height="91.0547" style="stroke:#181818;stroke-width:1.0;" width="10" x="1396" y="532.1406"/><rect fill="#FFFFFF" height="120.4063" style="stroke:#181818;stroke-width:1.0;" width="10" x="1743" y="381.3828"/><polygon fill="#181818" points="591,165.9219,601,169.9219,591,173.9219,595,169.9219" style="stroke:#181818;stroke-width:1.0;"/><line style="stroke:#181818;stroke-width:1.0;" x1="74" x2="597" y1="169.9219" y2="169.9219"/><text fill="#000000" font-family="sans-serif" font-size="13" lengthAdjust="spacing" textLength="141" x="81" y="148.7139">POST /api/organizations</text><text fill="#000000" font-family="sans-serif" font-size="13" lengthAdjust="spacing" textLength="505" x="81" y="165.0654">{ Identifier, LegalName, AlternativeName, Address, TaxNumber, Type, Representatives }</text><polygon fill="#181818" points="852,196.2734,862,200.2734,852,204.2734,856,200.2734" style="stroke:#181818;stroke-width:1.0;"/><line style="stroke:#181818;stroke-width:1.0;" x1="603" x2="858" y1="200.2734" y2="200.2734"/><text fill="#000000" font-family="sans-serif" font-size="13" lengthAdjust="spacing" textLength="64" x="610" y="195.417">Create(dto)</text><line style="stroke:#181818;stroke-width:1.0;" x1="874" x2="916" y1="246.9766" y2="246.9766"/><line style="stroke:#181818;stroke-width:1.0;" x1="916" x2="916" y1="246.9766" y2="259.9766"/><line style="stroke:#181818;stroke-width:1.0;" x1="875" x2="916" y1="259.9766" y2="259.9766"/><polygon fill="#181818" points="885,255.9766,875,259.9766,885,263.9766,881,259.9766" style="stroke:#181818;stroke-width:1.0;"/><text fill="#000000" font-family="sans-serif" font-size="13" lengthAdjust="spacing" textLength="73" x="881" y="225.7686">validate DTO</text><text fill="#000000" font-family="sans-serif" font-size="13" lengthAdjust="spacing" textLength="508" x="881" y="242.1201">(required fields, Identifier format, Type, at least 1 representative if Type==ShippingAgent)</text><polygon fill="#181818" points="1384,286.3281,1394,290.3281,1384,294.3281,1388,290.3281" style="stroke:#181818;stroke-width:1.0;"/><line style="stroke:#181818;stroke-width:1.0;" x1="874" x2="1390" y1="290.3281" y2="290.3281"/><text fill="#000000" font-family="sans-serif" font-size="13" lengthAdjust="spacing" textLength="227" x="881" y="285.4717">ExistsWithIdentifierAsync(dto.Identifier)</text><polygon fill="#181818" points="2167.5,316.6797,2177.5,320.6797,2167.5,324.6797,2171.5,320.6797" style="stroke:#181818;stroke-width:1.0;"/><line style="stroke:#181818;stroke-width:1.0;" x1="1406" x2="2173.5" y1="320.6797" y2="320.6797"/><text fill="#000000" font-family="sans-serif" font-size="13" lengthAdjust="spacing" textLength="32" x="1413" y="315.8232">query</text><polygon fill="#181818" points="1412,347.0313,1402,351.0313,1412,355.0313,1408,351.0313" style="stroke:#181818;stroke-width:1.0;"/><line style="stroke:#181818;stroke-width:1.0;stroke-dasharray:2.0,2.0;" x1="1406" x2="2178.5" y1="351.0313" y2="351.0313"/><text fill="#000000" font-family="sans-serif" font-size="13" lengthAdjust="spacing" textLength="27" x="1418" y="346.1748">false</text><polygon fill="#181818" points="1731,377.3828,1741,381.3828,1731,385.3828,1735,381.3828" style="stroke:#181818;stroke-width:1.0;"/><line style="stroke:#181818;stroke-width:1.0;" x1="874" x2="1737" y1="381.3828" y2="381.3828"/><text fill="#000000" font-family="sans-serif" font-size="13" lengthAdjust="spacing" textLength="850" x="881" y="376.5264">new Organization(Guid.NewGuid(), dto.Identifier, dto.LegalName, dto.AlternativeName, dto.Address, dto.TaxNumber, dto.Type, dto.Representatives)</text><line style="stroke:#181818;stroke-width:1.0;" x1="1753" x2="1795" y1="428.0859" y2="428.0859"/><line style="stroke:#181818;stroke-width:1.0;" x1="1795" x2="1795" y1="428.0859" y2="441.0859"/><line style="stroke:#181818;stroke-width:1.0;" x1="1754" x2="1795" y1="441.0859" y2="441.0859"/><polygon fill="#181818" points="1764,437.0859,1754,441.0859,1764,445.0859,1760,441.0859" style="stroke:#181818;stroke-width:1.0;"/><text fill="#000000" font-family="sans-serif" font-size="13" lengthAdjust="spacing" textLength="131" x="1760" y="406.8779">validate business rules</text><text fill="#000000" font-family="sans-serif" font-size="13" lengthAdjust="spacing" textLength="262" x="1760" y="423.2295">Identifier unique, required fields, at least 1 rep</text><polygon fill="#181818" points="2022,467.4375,2032,471.4375,2022,475.4375,2026,471.4375" style="stroke:#181818;stroke-width:1.0;"/><line style="stroke:#181818;stroke-width:1.0;" x1="1753" x2="2028" y1="471.4375" y2="471.4375"/><text fill="#000000" font-family="sans-serif" font-size="13" lengthAdjust="spacing" textLength="171" x="1760" y="466.5811">create Representative objects</text><polygon fill="#181818" points="885,497.7891,875,501.7891,885,505.7891,881,501.7891" style="stroke:#181818;stroke-width:1.0;"/><line style="stroke:#181818;stroke-width:1.0;stroke-dasharray:2.0,2.0;" x1="879" x2="1747" y1="501.7891" y2="501.7891"/><text fill="#000000" font-family="sans-serif" font-size="13" lengthAdjust="spacing" textLength="117" x="891" y="496.9326">organization created</text><polygon fill="#181818" points="1384,528.1406,1394,532.1406,1384,536.1406,1388,532.1406" style="stroke:#181818;stroke-width:1.0;"/><line style="stroke:#181818;stroke-width:1.0;" x1="874" x2="1390" y1="532.1406" y2="532.1406"/><text fill="#000000" font-family="sans-serif" font-size="13" lengthAdjust="spacing" textLength="138" x="881" y="527.2842">AddAsync(organization)</text><polygon fill="#181818" points="1533,558.4922,1543,562.4922,1533,566.4922,1537,562.4922" style="stroke:#181818;stroke-width:1.0;"/><line style="stroke:#181818;stroke-width:1.0;" x1="874" x2="1539" y1="562.4922" y2="562.4922"/><text fill="#000000" font-family="sans-serif" font-size="13" lengthAdjust="spacing" textLength="124" x="881" y="557.6357">SaveChangesAsync()</text><polygon fill="#181818" points="2167.5,588.8438,2177.5,592.8438,2167.5,596.8438,2171.5,592.8438" style="stroke:#181818;stroke-width:1.0;"/><line style="stroke:#181818;stroke-width:1.0;" x1="1545" x2="2173.5" y1="592.8438" y2="592.8438"/><text fill="#000000" font-family="sans-serif" font-size="13" lengthAdjust="spacing" textLength="217" x="1552" y="587.9873">insert Organization + Representatives</text><polygon fill="#181818" points="1556,619.1953,1546,623.1953,1556,627.1953,1552,623.1953" style="stroke:#181818;stroke-width:1.0;"/><line style="stroke:#181818;stroke-width:1.0;stroke-dasharray:2.0,2.0;" x1="1550" x2="2178.5" y1="623.1953" y2="623.1953"/><text fill="#000000" font-family="sans-serif" font-size="13" lengthAdjust="spacing" textLength="19" x="1562" y="618.3389">OK</text><polygon fill="#181818" points="614,649.5469,604,653.5469,614,657.5469,610,653.5469" style="stroke:#181818;stroke-width:1.0;"/><line style="stroke:#181818;stroke-width:1.0;stroke-dasharray:2.0,2.0;" x1="608" x2="868" y1="653.5469" y2="653.5469"/><text fill="#000000" font-family="sans-serif" font-size="13" lengthAdjust="spacing" textLength="237" x="620" y="648.6904">201 Created + OrganizationResponseDto</text><!--SRC=[TLJBRjim4BppAnO-oQYTD3qMI053IWkZhHNO1dh9XR9MyXOogP2KOxVeltUfHqqvpKby36U6EqivSXN2PfF07DPOadLeOBEdkYPLmg94vI0rfLJqIphI2gBOe7Gu5KBkd3OmUTJ6mQ9nUst8dI4j2jgXcO2qmrZKqZZQKIsPRB9uN49S4HEtc6uuXeI2DjRA6LrLFMVyDdIDjRR4fiwT-deCzKQJpDFXgTDEihV984hqGPAQTbnZ82iPjEoReKSSGzSYbqvcqY9C7Zv3j5JVyS2UkjqDsqCX-ih0_5DV0FW8Z-bc2xUofbiTtlz9_OPbpX0g2CqClc4fgvKyu0mM5QUbMW_zGfwpBpk3hJojcaFcyTjppJjZnnR-Y5xNEs3nBjKeTthgWwKZpxZM8Xu0HrbHxXUJRVga8eFF3HdCWKrLEIjUB4AXpK6wGLawg51Q1tTWncMZeeNStm_zrhRRjDDCropwSEA6j3_8xI_q2tjMEs_qvh8MUERK-IWJj9LcZkS6pLbqi_b0NCZAeiWnFDRhygx2br7JHryQoczM-EA_qNG6O_Lk7kJYfw-oQHU7VFmaoAYTjjNoewkimik9TF3uBu-iiQIO54nJ8NTB44IZY6y_WrTXZJFfI7rPTcqNN3KBwEmdxfpriBuPmWRj3-MZQeeWHBvqbrbuQfnO2quo1c_a4UEzL2NQxj1Ky7eG9ocBvkgVzEwwlOEuMzRqwt-o3j_UX_Tt_HF8cMtyKx4rlq9Cd0uvuhy0]--></g></svg>