<?xml version="1.0" encoding="us-ascii" standalone="no"?><svg xmlns="http://www.w3.org/2000/svg" xmlns:xlink="http://www.w3.org/1999/xlink" contentStyleType="text/css" height="949px" preserveAspectRatio="none" style="width:532px;height:949px;background:#FFFFFF;" version="1.1" viewBox="0 0 532 949" width="532px" zoomAndPan="magnify"><defs/><g><text fill="#000000" font-family="sans-serif" font-size="14" font-weight="bold" lengthAdjust="spacing" textLength="206" x="156" y="24.5332">C4 Container - US 2.2.3 Docks</text><!--cluster Client Layer--><g id="cluster_Client Layer"><polygon fill="none" points="127,213.1094,137,203.1094,286,203.1094,286,298.1094,276,308.1094,127,308.1094,127,213.1094" style="stroke:#181818;stroke-width:1.0;"/><line style="stroke:#181818;stroke-width:1.0;" x1="276" x2="286" y1="213.1094" y2="203.1094"/><line style="stroke:#181818;stroke-width:1.0;" x1="127" x2="276" y1="213.1094" y2="213.1094"/><line style="stroke:#181818;stroke-width:1.0;" x1="276" x2="276" y1="213.1094" y2="308.1094"/><text fill="#000000" font-family="sans-serif" font-size="14" font-weight="bold" lengthAdjust="spacing" textLength="83" x="161" y="230.6426">Client Layer</text></g><!--cluster Web API--><g id="cluster_Web API"><polygon fill="none" points="119,368.1094,129,358.1094,293,358.1094,293,453.1094,283,463.1094,119,463.1094,119,368.1094" style="stroke:#181818;stroke-width:1.0;"/><line style="stroke:#181818;stroke-width:1.0;" x1="283" x2="293" y1="368.1094" y2="358.1094"/><line style="stroke:#181818;stroke-width:1.0;" x1="119" x2="283" y1="368.1094" y2="368.1094"/><line style="stroke:#181818;stroke-width:1.0;" x1="283" x2="283" y1="368.1094" y2="463.1094"/><text fill="#000000" font-family="sans-serif" font-size="14" font-weight="bold" lengthAdjust="spacing" textLength="57" x="173.5" y="385.6426">Web API</text></g><!--cluster Application Layer--><g id="cluster_Application Layer"><polygon fill="none" points="114,523.1094,124,513.1094,310,513.1094,310,608.1094,300,618.1094,114,618.1094,114,523.1094" style="stroke:#181818;stroke-width:1.0;"/><line style="stroke:#181818;stroke-width:1.0;" x1="300" x2="310" y1="523.1094" y2="513.1094"/><line style="stroke:#181818;stroke-width:1.0;" x1="114" x2="300" y1="523.1094" y2="523.1094"/><line style="stroke:#181818;stroke-width:1.0;" x1="300" x2="300" y1="523.1094" y2="618.1094"/><text fill="#000000" font-family="sans-serif" font-size="14" font-weight="bold" lengthAdjust="spacing" textLength="120" x="148" y="540.6426">Application Layer</text></g><!--cluster Dom--><g id="cluster_Dom"><polygon fill="none" points="16,681.1094,26,671.1094,204,671.1094,204,922.1094,194,932.1094,16,932.1094,16,681.1094" style="stroke:#181818;stroke-width:1.0;"/><line style="stroke:#181818;stroke-width:1.0;" x1="194" x2="204" y1="681.1094" y2="671.1094"/><line style="stroke:#181818;stroke-width:1.0;" x1="16" x2="194" y1="681.1094" y2="681.1094"/><line style="stroke:#181818;stroke-width:1.0;" x1="194" x2="194" y1="681.1094" y2="932.1094"/><text fill="#000000" font-family="sans-serif" font-size="14" font-weight="bold" lengthAdjust="spacing" textLength="52" x="80" y="698.6426">Domain</text></g><!--entity Client--><g id="elem_Client"><rect fill="#F1F1F1" height="47.6094" rx="2.5" ry="2.5" style="stroke:#181818;stroke-width:0.5;" width="125" x="143.5" y="244.1094"/><rect fill="#F1F1F1" height="10" style="stroke:#181818;stroke-width:0.5;" width="15" x="248.5" y="249.1094"/><rect fill="#F1F1F1" height="2" style="stroke:#181818;stroke-width:0.5;" width="4" x="246.5" y="251.1094"/><rect fill="#F1F1F1" height="2" style="stroke:#181818;stroke-width:0.5;" width="4" x="246.5" y="255.1094"/><text fill="#000000" font-family="sans-serif" font-size="14" lengthAdjust="spacing" textLength="85" x="158.5" y="278.6426">UI / API Client</text></g><!--entity Ctl--><g id="elem_Ctl"><rect fill="#F1F1F1" height="47.6094" rx="2.5" ry="2.5" style="stroke:#181818;stroke-width:0.5;" width="141" x="135.5" y="399.1094"/><rect fill="#F1F1F1" height="10" style="stroke:#181818;stroke-width:0.5;" width="15" x="256.5" y="404.1094"/><rect fill="#F1F1F1" height="2" style="stroke:#181818;stroke-width:0.5;" width="4" x="254.5" y="406.1094"/><rect fill="#F1F1F1" height="2" style="stroke:#181818;stroke-width:0.5;" width="4" x="254.5" y="410.1094"/><text fill="#000000" font-family="sans-serif" font-size="14" lengthAdjust="spacing" textLength="101" x="150.5" y="433.6426">DocksController</text></g><!--entity Svc--><g id="elem_Svc"><rect fill="#F1F1F1" height="47.6094" rx="2.5" ry="2.5" style="stroke:#181818;stroke-width:0.5;" width="119" x="146.5" y="554.1094"/><rect fill="#F1F1F1" height="10" style="stroke:#181818;stroke-width:0.5;" width="15" x="245.5" y="559.1094"/><rect fill="#F1F1F1" height="2" style="stroke:#181818;stroke-width:0.5;" width="4" x="243.5" y="561.1094"/><rect fill="#F1F1F1" height="2" style="stroke:#181818;stroke-width:0.5;" width="4" x="243.5" y="565.1094"/><text fill="#000000" font-family="sans-serif" font-size="14" lengthAdjust="spacing" textLength="79" x="161.5" y="588.6426">DockService</text></g><!--entity D--><g id="elem_D"><rect fill="#F1F1F1" height="47.6094" rx="2.5" ry="2.5" style="stroke:#181818;stroke-width:0.5;" width="72" x="110" y="712.1094"/><rect fill="#F1F1F1" height="10" style="stroke:#181818;stroke-width:0.5;" width="15" x="162" y="717.1094"/><rect fill="#F1F1F1" height="2" style="stroke:#181818;stroke-width:0.5;" width="4" x="160" y="719.1094"/><rect fill="#F1F1F1" height="2" style="stroke:#181818;stroke-width:0.5;" width="4" x="160" y="723.1094"/><text fill="#000000" font-family="sans-serif" font-size="14" lengthAdjust="spacing" textLength="32" x="125" y="746.6426">Dock</text></g><!--entity VT--><g id="elem_VT"><rect fill="#F1F1F1" height="47.6094" rx="2.5" ry="2.5" style="stroke:#181818;stroke-width:0.5;" width="114" x="32" y="868.1094"/><rect fill="#F1F1F1" height="10" style="stroke:#181818;stroke-width:0.5;" width="15" x="126" y="873.1094"/><rect fill="#F1F1F1" height="2" style="stroke:#181818;stroke-width:0.5;" width="4" x="124" y="875.1094"/><rect fill="#F1F1F1" height="2" style="stroke:#181818;stroke-width:0.5;" width="4" x="124" y="879.1094"/><text fill="#000000" font-family="sans-serif" font-size="14" lengthAdjust="spacing" textLength="74" x="47" y="902.6426">VesselType</text></g><!--entity Officer--><g id="elem_Officer"><ellipse cx="206" cy="52.6094" fill="#F1F1F1" rx="8" ry="8" style="stroke:#181818;stroke-width:0.5;"/><path d="M206,60.6094 L206,87.6094 M193,68.6094 L219,68.6094 M206,87.6094 L193,102.6094 M206,87.6094 L219,102.6094 " fill="none" style="stroke:#181818;stroke-width:0.5;"/><text fill="#000000" font-family="sans-serif" font-size="14" lengthAdjust="spacing" textLength="86" x="163" y="118.6426">Port Authority</text><text fill="#000000" font-family="sans-serif" font-size="14" lengthAdjust="spacing" textLength="42" x="163" y="136.252">Officer</text></g><!--entity Db--><g id="elem_Db"><path d="M220,722.6094 C220,712.6094 267,712.6094 267,712.6094 C267,712.6094 314,712.6094 314,722.6094 L314,749.2188 C314,759.2188 267,759.2188 267,759.2188 C267,759.2188 220,759.2188 220,749.2188 L220,722.6094 " fill="#F1F1F1" style="stroke:#181818;stroke-width:0.5;"/><path d="M220,722.6094 C220,732.6094 267,732.6094 267,732.6094 C267,732.6094 314,732.6094 314,722.6094 " fill="none" style="stroke:#181818;stroke-width:0.5;"/><text fill="#000000" font-family="sans-serif" font-size="14" lengthAdjust="spacing" textLength="74" x="230" y="751.1426">Persistence</text></g><g id="elem_GMN19"><path d="M349,682.1094 L349,790.2188 L525,790.2188 L525,692.1094 L515,682.1094 L349,682.1094 " fill="#FEFFDD" style="stroke:#181818;stroke-width:0.5;"/><path d="M515,682.1094 L515,692.1094 L525,692.1094 L515,682.1094 " fill="#FEFFDD" style="stroke:#181818;stroke-width:1.0;"/><text fill="#000000" font-family="sans-serif" font-size="13" lengthAdjust="spacing" textLength="92" x="355" y="700.6045">Dock attributes:</text><text fill="#000000" font-family="sans-serif" font-size="13" lengthAdjust="spacing" textLength="100" x="355" y="716.9561">- Unique identifier</text><text fill="#000000" font-family="sans-serif" font-size="13" lengthAdjust="spacing" textLength="89" x="355" y="733.3076">- Name/number</text><text fill="#000000" font-family="sans-serif" font-size="13" lengthAdjust="spacing" textLength="116" x="355" y="749.6592">- Location (free text)</text><text fill="#000000" font-family="sans-serif" font-size="13" lengthAdjust="spacing" textLength="155" x="355" y="766.0107">- Physical chars (L/D/draft)</text><text fill="#000000" font-family="sans-serif" font-size="13" lengthAdjust="spacing" textLength="129" x="355" y="782.3623">- Allowed vessel types</text></g><!--link Officer to Client--><g id="link_Officer_Client"><path d="M206,139.3694 C206,173.0894 206,211.1794 206,237.7494 " fill="none" id="Officer-to-Client" style="stroke:#181818;stroke-width:1.0;"/><polygon fill="#181818" points="206,243.7494,210,234.7494,206,238.7494,202,234.7494,206,243.7494" style="stroke:#181818;stroke-width:1.0;"/><text fill="#000000" font-family="sans-serif" font-size="13" lengthAdjust="spacing" textLength="125" x="207" y="183.6045">register/update docks</text></g><!--link Client to Ctl--><g id="link_Client_Ctl"><path d="M206,292.3494 C206,321.0994 206,363.7994 206,392.6494 " fill="none" id="Client-to-Ctl" style="stroke:#181818;stroke-width:1.0;"/><polygon fill="#181818" points="206,398.6494,210,389.6494,206,393.6494,202,389.6494,206,398.6494" style="stroke:#181818;stroke-width:1.0;"/><text fill="#000000" font-family="sans-serif" font-size="13" lengthAdjust="spacing" textLength="94" x="207" y="338.6045">POST/PUT/GET</text></g><!--link Ctl to Svc--><g id="link_Ctl_Svc"><path d="M206,447.3494 C206,476.0994 206,518.7994 206,547.6494 " fill="none" id="Ctl-to-Svc" style="stroke:#181818;stroke-width:1.0;"/><polygon fill="#181818" points="206,553.6494,210,544.6494,206,548.6494,202,544.6494,206,553.6494" style="stroke:#181818;stroke-width:1.0;"/><text fill="#000000" font-family="sans-serif" font-size="13" lengthAdjust="spacing" textLength="100" x="207" y="493.6045">CRUD operations</text></g><!--link Svc to Db--><g id="link_Svc_Db"><path d="M215.37,602.3694 C219.3,612.1594 223.9,623.6794 228,634.1094 C238.52,660.8794 248.2544,686.1161 256.1044,706.6161 " fill="none" id="Svc-to-Db" style="stroke:#181818;stroke-width:1.0;"/><polygon fill="#181818" points="258.25,712.2194,258.767,702.3841,256.462,707.55,251.2961,705.2449,258.25,712.2194" style="stroke:#181818;stroke-width:1.0;"/><text fill="#000000" font-family="sans-serif" font-size="13" lengthAdjust="spacing" textLength="84" x="236" y="648.6045">persist/retrieve</text></g><!--link Svc to D--><g id="link_Svc_D"><path d="M169.03,602.3794 C158.64,610.9694 148.65,621.6794 143,634.1094 C131.75,658.8594 133.9791,684.7991 138.4691,706.0391 " fill="none" id="Svc-to-D" style="stroke:#181818;stroke-width:1.0;stroke-dasharray:7.0,7.0;"/><polygon fill="#181818" points="139.71,711.9094,141.7621,702.2767,138.6759,707.0175,133.9351,703.9313,139.71,711.9094" style="stroke:#181818;stroke-width:1.0;"/><text fill="#000000" font-family="sans-serif" font-size="13" lengthAdjust="spacing" textLength="79" x="144" y="648.6045">create/update</text></g><!--link D to VT--><g id="link_D_VT"><path d="M137.47,760.1694 C126.72,789.1994 110.4419,833.1622 99.6719,862.2722 " fill="none" id="D-to-VT" style="stroke:#181818;stroke-width:1.0;"/><polygon fill="#181818" points="97.59,867.8994,104.4644,860.8465,99.3249,863.21,96.9614,858.0706,97.59,867.8994" style="stroke:#181818;stroke-width:1.0;"/><text fill="#000000" font-family="sans-serif" font-size="13" lengthAdjust="spacing" textLength="119" x="116" y="834.6045">allowed vessel types</text></g><!--link D to GMN19--><g id="link_D_GMN19"><path d="M157.07,711.7494 C168.86,689.2094 189.93,657.3394 219.5,644.6094 C258.28,627.9094 274.43,631.2994 314.5,644.6094 C338.18,652.4794 360.99,666.8994 380.37,682.0094 " fill="none" id="D-GMN19" style="stroke:#181818;stroke-width:1.0;stroke-dasharray:7.0,7.0;"/></g><!--SRC=[RP91ZzCm48Nl_XMZdfP36sdXj0Uaga5efOgDQ5eEmC599biBrmxZIQ52_7Tc7ACL4hTuldapxzbXnnvXzmPsCR1r0GdMS3p0_UP-ynhgs7zBnjYU8y6gYSImdVaSoV7jItWQHzSZhS0cAD_6X3WWh7RUOM3OsvloNmRWy_4HAjWsZx2mhwfQFitllx9Fs6bBKUJjwekYzqYBWlrB-tQQlEijknZ-MQN20z9L76NHuTghQB1iEvj4s20bbnX3ZzbztPM9TRp89IorU7cPbiVKUZfXIkZRsxICFhKwkQI7zVfjoGGFGFYiEwYQ9zcCCEJBB3XtifUsvkdGLisnhTw_QusM58bZGRkFnnhYX9GZ9gDLfNKdS5eoL8HC3g-OwMOZL61FA2lBPbDdrQaLOBsFFt20Quu1B3cINgVu8_TyPeXZpgcXmRACxcR6z20b-I-2-puZk44IkD79SslrWxrW5UPBLyxxM9xaRYH4OFp9hp9ephSap-MXFrjASBUlwceWEnQy_Pyr30EeE_C7]--></g></svg>