<?xml version="1.0" encoding="us-ascii" standalone="no"?><svg xmlns="http://www.w3.org/2000/svg" xmlns:xlink="http://www.w3.org/1999/xlink" contentStyleType="text/css" height="943px" preserveAspectRatio="none" style="width:1566px;height:943px;background:#FFFFFF;" version="1.1" viewBox="0 0 1566 943" width="1566px" zoomAndPan="magnify"><defs/><g><text fill="#000000" font-family="sans-serif" font-size="14" font-weight="bold" lengthAdjust="spacing" textLength="130" x="719" y="29.5332">SSD - Update Dock</text><rect fill="#FFFFFF" height="163.1094" style="stroke:#181818;stroke-width:1.0;" width="10" x="729" y="200.2734"/><rect fill="#FFFFFF" height="60.7031" style="stroke:#181818;stroke-width:1.0;" width="10" x="1086" y="230.625"/><rect fill="#FFFFFF" height="91.0547" style="stroke:#181818;stroke-width:1.0;" width="10" x="1086" y="715.0859"/><rect fill="#FFFFFF" height="60.7031" style="stroke:#181818;stroke-width:1.0;" width="10" x="1231" y="494.625"/><rect fill="none" height="538.1641" style="stroke:#000000;stroke-width:1.5;" width="1127.5" x="431.5" y="306.3281"/><rect fill="none" height="231.8125" style="stroke:#000000;stroke-width:1.5;" width="1107.5" x="441.5" y="453.9219"/><rect fill="none" height="65.0547" style="stroke:#000000;stroke-width:1.5;" width="350" x="451.5" y="570.3281"/><line style="stroke:#181818;stroke-width:0.5;stroke-dasharray:5.0,5.0;" x1="74" x2="74" y1="121.2188" y2="861.4922"/><line style="stroke:#181818;stroke-width:0.5;stroke-dasharray:5.0,5.0;" x1="524.5" x2="524.5" y1="121.2188" y2="861.4922"/><line style="stroke:#181818;stroke-width:0.5;stroke-dasharray:5.0,5.0;" x1="733.5" x2="733.5" y1="121.2188" y2="861.4922"/><line style="stroke:#181818;stroke-width:0.5;stroke-dasharray:5.0,5.0;" x1="1091" x2="1091" y1="121.2188" y2="861.4922"/><line style="stroke:#181818;stroke-width:0.5;stroke-dasharray:5.0,5.0;" x1="1236" x2="1236" y1="121.2188" y2="861.4922"/><line style="stroke:#181818;stroke-width:0.5;stroke-dasharray:5.0,5.0;" x1="1377" x2="1377" y1="121.2188" y2="861.4922"/><line style="stroke:#181818;stroke-width:0.5;stroke-dasharray:5.0,5.0;" x1="1489" x2="1489" y1="121.2188" y2="861.4922"/><text fill="#000000" font-family="sans-serif" font-size="14" lengthAdjust="spacing" textLength="132" x="5" y="118.1426">Port Authority Officer</text><ellipse cx="74" cy="52.1094" fill="#E2E2F0" rx="8" ry="8" style="stroke:#181818;stroke-width:0.5;"/><path d="M74,60.1094 L74,87.1094 M61,68.1094 L87,68.1094 M74,87.1094 L61,102.1094 M74,87.1094 L87,102.1094 " fill="none" style="stroke:#181818;stroke-width:0.5;"/><text fill="#000000" font-family="sans-serif" font-size="14" lengthAdjust="spacing" textLength="132" x="5" y="875.0254">Port Authority Officer</text><ellipse cx="74" cy="886.6016" fill="#E2E2F0" rx="8" ry="8" style="stroke:#181818;stroke-width:0.5;"/><path d="M74,894.6016 L74,921.6016 M61,902.6016 L87,902.6016 M74,921.6016 L61,936.6016 M74,921.6016 L87,936.6016 " fill="none" style="stroke:#181818;stroke-width:0.5;"/><rect fill="#E2E2F0" height="31.6094" rx="2.5" ry="2.5" style="stroke:#181818;stroke-width:0.5;" width="127" x="461.5" y="88.6094"/><text fill="#000000" font-family="sans-serif" font-size="14" lengthAdjust="spacing" textLength="113" x="468.5" y="110.1426">Scalar / API Client</text><rect fill="#E2E2F0" height="31.6094" rx="2.5" ry="2.5" style="stroke:#181818;stroke-width:0.5;" width="127" x="461.5" y="860.4922"/><text fill="#000000" font-family="sans-serif" font-size="14" lengthAdjust="spacing" textLength="113" x="468.5" y="882.0254">Scalar / API Client</text><rect fill="#E2E2F0" height="31.6094" rx="2.5" ry="2.5" style="stroke:#181818;stroke-width:0.5;" width="115" x="676.5" y="88.6094"/><text fill="#000000" font-family="sans-serif" font-size="14" lengthAdjust="spacing" textLength="101" x="683.5" y="110.1426">DocksController</text><rect fill="#E2E2F0" height="31.6094" rx="2.5" ry="2.5" style="stroke:#181818;stroke-width:0.5;" width="115" x="676.5" y="860.4922"/><text fill="#000000" font-family="sans-serif" font-size="14" lengthAdjust="spacing" textLength="101" x="683.5" y="882.0254">DocksController</text><rect fill="#E2E2F0" height="31.6094" rx="2.5" ry="2.5" style="stroke:#181818;stroke-width:0.5;" width="114" x="1034" y="88.6094"/><text fill="#000000" font-family="sans-serif" font-size="14" lengthAdjust="spacing" textLength="100" x="1041" y="110.1426">DockRepository</text><rect fill="#E2E2F0" height="31.6094" rx="2.5" ry="2.5" style="stroke:#181818;stroke-width:0.5;" width="114" x="1034" y="860.4922"/><text fill="#000000" font-family="sans-serif" font-size="14" lengthAdjust="spacing" textLength="100" x="1041" y="882.0254">DockRepository</text><rect fill="#E2E2F0" height="31.6094" rx="2.5" ry="2.5" style="stroke:#181818;stroke-width:0.5;" width="156" x="1158" y="88.6094"/><text fill="#000000" font-family="sans-serif" font-size="14" lengthAdjust="spacing" textLength="142" x="1165" y="110.1426">VesselTypeRepository</text><rect fill="#E2E2F0" height="31.6094" rx="2.5" ry="2.5" style="stroke:#181818;stroke-width:0.5;" width="156" x="1158" y="860.4922"/><text fill="#000000" font-family="sans-serif" font-size="14" lengthAdjust="spacing" textLength="142" x="1165" y="882.0254">VesselTypeRepository</text><rect fill="#E2E2F0" height="31.6094" rx="2.5" ry="2.5" style="stroke:#181818;stroke-width:0.5;" width="106" x="1324" y="88.6094"/><text fill="#000000" font-family="sans-serif" font-size="14" lengthAdjust="spacing" textLength="92" x="1331" y="110.1426">PortDbContext</text><rect fill="#E2E2F0" height="31.6094" rx="2.5" ry="2.5" style="stroke:#181818;stroke-width:0.5;" width="106" x="1324" y="860.4922"/><text fill="#000000" font-family="sans-serif" font-size="14" lengthAdjust="spacing" textLength="92" x="1331" y="882.0254">PortDbContext</text><text fill="#000000" font-family="sans-serif" font-size="14" lengthAdjust="spacing" textLength="93" x="1440" y="118.1426">EF (InMemory)</text><path d="M1471.5,67.6094 C1471.5,57.6094 1489.5,57.6094 1489.5,57.6094 C1489.5,57.6094 1507.5,57.6094 1507.5,67.6094 L1507.5,93.6094 C1507.5,103.6094 1489.5,103.6094 1489.5,103.6094 C1489.5,103.6094 1471.5,103.6094 1471.5,93.6094 L1471.5,67.6094 " fill="#E2E2F0" style="stroke:#181818;stroke-width:1.5;"/><path d="M1471.5,67.6094 C1471.5,77.6094 1489.5,77.6094 1489.5,77.6094 C1489.5,77.6094 1507.5,77.6094 1507.5,67.6094 " fill="none" style="stroke:#181818;stroke-width:1.5;"/><text fill="#000000" font-family="sans-serif" font-size="14" lengthAdjust="spacing" textLength="93" x="1440" y="875.0254">EF (InMemory)</text><path d="M1471.5,888.1016 C1471.5,878.1016 1489.5,878.1016 1489.5,878.1016 C1489.5,878.1016 1507.5,878.1016 1507.5,888.1016 L1507.5,914.1016 C1507.5,924.1016 1489.5,924.1016 1489.5,924.1016 C1489.5,924.1016 1471.5,924.1016 1471.5,914.1016 L1471.5,888.1016 " fill="#E2E2F0" style="stroke:#181818;stroke-width:1.5;"/><path d="M1471.5,888.1016 C1471.5,898.1016 1489.5,898.1016 1489.5,898.1016 C1489.5,898.1016 1507.5,898.1016 1507.5,888.1016 " fill="none" style="stroke:#181818;stroke-width:1.5;"/><rect fill="#FFFFFF" height="163.1094" style="stroke:#181818;stroke-width:1.0;" width="10" x="729" y="200.2734"/><rect fill="#FFFFFF" height="60.7031" style="stroke:#181818;stroke-width:1.0;" width="10" x="1086" y="230.625"/><rect fill="#FFFFFF" height="91.0547" style="stroke:#181818;stroke-width:1.0;" width="10" x="1086" y="715.0859"/><rect fill="#FFFFFF" height="60.7031" style="stroke:#181818;stroke-width:1.0;" width="10" x="1231" y="494.625"/><polygon fill="#181818" points="513,165.9219,523,169.9219,513,173.9219,517,169.9219" style="stroke:#181818;stroke-width:1.0;"/><line style="stroke:#181818;stroke-width:1.0;" x1="74" x2="519" y1="169.9219" y2="169.9219"/><text fill="#000000" font-family="sans-serif" font-size="13" lengthAdjust="spacing" textLength="129" x="81" y="148.7139">PUT /api/docks/{code}</text><text fill="#000000" font-family="sans-serif" font-size="13" lengthAdjust="spacing" textLength="427" x="81" y="165.0654">{ Name, Location, LengthM, DepthM, MaxDraftM, AllowedVesselTypeIds }</text><polygon fill="#181818" points="717,196.2734,727,200.2734,717,204.2734,721,200.2734" style="stroke:#181818;stroke-width:1.0;"/><line style="stroke:#181818;stroke-width:1.0;" x1="525" x2="723" y1="200.2734" y2="200.2734"/><text fill="#000000" font-family="sans-serif" font-size="13" lengthAdjust="spacing" textLength="103" x="532" y="195.417">Update(code, dto)</text><polygon fill="#181818" points="1074,226.625,1084,230.625,1074,234.625,1078,230.625" style="stroke:#181818;stroke-width:1.0;"/><line style="stroke:#181818;stroke-width:1.0;" x1="739" x2="1080" y1="230.625" y2="230.625"/><text fill="#000000" font-family="sans-serif" font-size="13" lengthAdjust="spacing" textLength="328" x="746" y="225.7686">GetByCodeAsync(codeUpper, includeVesselTypes: true)</text><polygon fill="#181818" points="1477.5,256.9766,1487.5,260.9766,1477.5,264.9766,1481.5,260.9766" style="stroke:#181818;stroke-width:1.0;"/><line style="stroke:#181818;stroke-width:1.0;" x1="1096" x2="1483.5" y1="260.9766" y2="260.9766"/><text fill="#000000" font-family="sans-serif" font-size="13" lengthAdjust="spacing" textLength="32" x="1103" y="256.1201">query</text><polygon fill="#181818" points="1102,287.3281,1092,291.3281,1102,295.3281,1098,291.3281" style="stroke:#181818;stroke-width:1.0;"/><line style="stroke:#181818;stroke-width:1.0;stroke-dasharray:2.0,2.0;" x1="1096" x2="1488.5" y1="291.3281" y2="291.3281"/><text fill="#000000" font-family="sans-serif" font-size="13" lengthAdjust="spacing" textLength="61" x="1108" y="286.4717">Dock | null</text><path d="M431.5,306.3281 L492.5,306.3281 L492.5,314.6797 L482.5,324.6797 L431.5,324.6797 L431.5,306.3281 " fill="#EEEEEE" style="stroke:#000000;stroke-width:1.5;"/><rect fill="none" height="538.1641" style="stroke:#000000;stroke-width:1.5;" width="1127.5" x="431.5" y="306.3281"/><text fill="#000000" font-family="sans-serif" font-size="13" font-weight="bold" lengthAdjust="spacing" textLength="16" x="446.5" y="320.8232">alt</text><text fill="#000000" font-family="sans-serif" font-size="11" font-weight="bold" lengthAdjust="spacing" textLength="61" x="507.5" y="319.7471">[not found]</text><polygon fill="#181818" points="536,359.3828,526,363.3828,536,367.3828,532,363.3828" style="stroke:#181818;stroke-width:1.0;"/><line style="stroke:#181818;stroke-width:1.0;stroke-dasharray:2.0,2.0;" x1="530" x2="733" y1="363.3828" y2="363.3828"/><text fill="#000000" font-family="sans-serif" font-size="13" lengthAdjust="spacing" textLength="85" x="542" y="342.1748">404 Not Found</text><text fill="#000000" font-family="sans-serif" font-size="13" lengthAdjust="spacing" textLength="180" x="542" y="358.5264">"Dock with code '...' not found."</text><line style="stroke:#000000;stroke-width:1.0;stroke-dasharray:2.0,2.0;" x1="431.5" x2="1559" y1="372.3828" y2="372.3828"/><text fill="#000000" font-family="sans-serif" font-size="11" font-weight="bold" lengthAdjust="spacing" textLength="40" x="436.5" y="383.8018">[found]</text><line style="stroke:#181818;stroke-width:1.0;" x1="734" x2="776" y1="425.9219" y2="425.9219"/><line style="stroke:#181818;stroke-width:1.0;" x1="776" x2="776" y1="425.9219" y2="438.9219"/><line style="stroke:#181818;stroke-width:1.0;" x1="735" x2="776" y1="438.9219" y2="438.9219"/><polygon fill="#181818" points="745,434.9219,735,438.9219,745,442.9219,741,438.9219" style="stroke:#181818;stroke-width:1.0;"/><text fill="#000000" font-family="sans-serif" font-size="13" lengthAdjust="spacing" textLength="216" x="741" y="404.7139">dock.Update(dto.Name, dto.Location,</text><text fill="#000000" font-family="sans-serif" font-size="13" lengthAdjust="spacing" textLength="244" x="741" y="421.0654">dto.LengthM, dto.DepthM, dto.MaxDraftM)</text><path d="M441.5,453.9219 L502.5,453.9219 L502.5,462.2734 L492.5,472.2734 L441.5,472.2734 L441.5,453.9219 " fill="#EEEEEE" style="stroke:#000000;stroke-width:1.5;"/><rect fill="none" height="231.8125" style="stroke:#000000;stroke-width:1.5;" width="1107.5" x="441.5" y="453.9219"/><text fill="#000000" font-family="sans-serif" font-size="13" font-weight="bold" lengthAdjust="spacing" textLength="16" x="456.5" y="468.417">alt</text><text fill="#000000" font-family="sans-serif" font-size="11" font-weight="bold" lengthAdjust="spacing" textLength="127" x="517.5" y="467.3408">[vessel types updated]</text><polygon fill="#181818" points="1219,490.625,1229,494.625,1219,498.625,1223,494.625" style="stroke:#181818;stroke-width:1.0;"/><line style="stroke:#181818;stroke-width:1.0;" x1="734" x2="1225" y1="494.625" y2="494.625"/><text fill="#000000" font-family="sans-serif" font-size="13" lengthAdjust="spacing" textLength="251" x="741" y="489.7686">GetByIdsAsync(dto.AllowedVesselTypeIds)</text><polygon fill="#181818" points="1477.5,520.9766,1487.5,524.9766,1477.5,528.9766,1481.5,524.9766" style="stroke:#181818;stroke-width:1.0;"/><line style="stroke:#181818;stroke-width:1.0;" x1="1241" x2="1483.5" y1="524.9766" y2="524.9766"/><text fill="#000000" font-family="sans-serif" font-size="13" lengthAdjust="spacing" textLength="32" x="1248" y="520.1201">query</text><polygon fill="#181818" points="1247,551.3281,1237,555.3281,1247,559.3281,1243,555.3281" style="stroke:#181818;stroke-width:1.0;"/><line style="stroke:#181818;stroke-width:1.0;stroke-dasharray:2.0,2.0;" x1="1241" x2="1488.5" y1="555.3281" y2="555.3281"/><text fill="#000000" font-family="sans-serif" font-size="13" lengthAdjust="spacing" textLength="105" x="1253" y="550.4717">List&lt;VesselType&gt;</text><path d="M451.5,570.3281 L512.5,570.3281 L512.5,578.6797 L502.5,588.6797 L451.5,588.6797 L451.5,570.3281 " fill="#EEEEEE" style="stroke:#000000;stroke-width:1.5;"/><rect fill="none" height="65.0547" style="stroke:#000000;stroke-width:1.5;" width="350" x="451.5" y="570.3281"/><text fill="#000000" font-family="sans-serif" font-size="13" font-weight="bold" lengthAdjust="spacing" textLength="16" x="466.5" y="584.8232">alt</text><text fill="#000000" font-family="sans-serif" font-size="11" font-weight="bold" lengthAdjust="spacing" textLength="170" x="527.5" y="583.7471">[some vessel types not found]</text><polygon fill="#181818" points="536,623.3828,526,627.3828,536,631.3828,532,627.3828" style="stroke:#181818;stroke-width:1.0;"/><line style="stroke:#181818;stroke-width:1.0;stroke-dasharray:2.0,2.0;" x1="530" x2="733" y1="627.3828" y2="627.3828"/><text fill="#000000" font-family="sans-serif" font-size="13" lengthAdjust="spacing" textLength="100" x="542" y="606.1748">400 Bad Request</text><text fill="#000000" font-family="sans-serif" font-size="13" lengthAdjust="spacing" textLength="171" x="542" y="622.5264">"Vessel type(s) not found: ..."</text><line style="stroke:#181818;stroke-width:1.0;" x1="734" x2="776" y1="664.7344" y2="664.7344"/><line style="stroke:#181818;stroke-width:1.0;" x1="776" x2="776" y1="664.7344" y2="677.7344"/><line style="stroke:#181818;stroke-width:1.0;" x1="735" x2="776" y1="677.7344" y2="677.7344"/><polygon fill="#181818" points="745,673.7344,735,677.7344,745,681.7344,741,677.7344" style="stroke:#181818;stroke-width:1.0;"/><text fill="#000000" font-family="sans-serif" font-size="13" lengthAdjust="spacing" textLength="251" x="741" y="659.8779">dock.SetAllowedVesselTypes(vesselTypes)</text><polygon fill="#181818" points="1074,711.0859,1084,715.0859,1074,719.0859,1078,715.0859" style="stroke:#181818;stroke-width:1.0;"/><line style="stroke:#181818;stroke-width:1.0;" x1="734" x2="1080" y1="715.0859" y2="715.0859"/><text fill="#000000" font-family="sans-serif" font-size="13" lengthAdjust="spacing" textLength="77" x="741" y="710.2295">Update(dock)</text><polygon fill="#181818" points="1365,741.4375,1375,745.4375,1365,749.4375,1369,745.4375" style="stroke:#181818;stroke-width:1.0;"/><line style="stroke:#181818;stroke-width:1.0;" x1="734" x2="1371" y1="745.4375" y2="745.4375"/><text fill="#000000" font-family="sans-serif" font-size="13" lengthAdjust="spacing" textLength="124" x="741" y="740.5811">SaveChangesAsync()</text><polygon fill="#181818" points="1477.5,771.7891,1487.5,775.7891,1477.5,779.7891,1481.5,775.7891" style="stroke:#181818;stroke-width:1.0;"/><line style="stroke:#181818;stroke-width:1.0;" x1="1377" x2="1483.5" y1="775.7891" y2="775.7891"/><text fill="#000000" font-family="sans-serif" font-size="13" lengthAdjust="spacing" textLength="39" x="1384" y="770.9326">update</text><polygon fill="#181818" points="1388,802.1406,1378,806.1406,1388,810.1406,1384,806.1406" style="stroke:#181818;stroke-width:1.0;"/><line style="stroke:#181818;stroke-width:1.0;stroke-dasharray:2.0,2.0;" x1="1382" x2="1488.5" y1="806.1406" y2="806.1406"/><text fill="#000000" font-family="sans-serif" font-size="13" lengthAdjust="spacing" textLength="14" x="1394" y="801.2842">ok</text><polygon fill="#181818" points="536,832.4922,526,836.4922,536,840.4922,532,836.4922" style="stroke:#181818;stroke-width:1.0;"/><line style="stroke:#181818;stroke-width:1.0;stroke-dasharray:2.0,2.0;" x1="530" x2="733" y1="836.4922" y2="836.4922"/><text fill="#000000" font-family="sans-serif" font-size="13" lengthAdjust="spacing" textLength="168" x="542" y="831.6357">200 OK + DockResponseDto</text><!--SRC=[RLHTJ-Cm47pthrZrXLRN3tJYgJeXbUGueQE0cfOdNjnaIosCdOkTGiNnts_NIPgKdbIfJZmxipkpYbTU8oH932DOvPdq2B5DNuIGgRS5z1viuM5M-gqjbD_3_MQZKYnw81si71OYbuLNgSgbyT1BKgbb0HEOFTn0f1KQ7v3LyHZBAYwonXTMwvenEeKiCBTEKIlxW8WNnv17T0xrSf_Z5-3ZyWkI1udNB8ZlLLVnMj2ySYqTGk_dDVHlp1nVYM0GhXFYGY5uIXXTrZF051vMIvZ8N4qodc3oaTeCFv_C1zp9Lnp2hKsbLzRG2Ssptyw746CU_kVoFIxanjDnfhLzmwnj_oPpy2bg4POZfIgFFWiC8VDsmA6e7MSK2H4nB5uGxXVwgtr4g9dRcpJWLtcEnH2KINMPOIlZfk2B4ZjCv2YH45MObzZ-b5ZiHVKqQYGu2lWBfjHQPDWj5b9xCDR3nfOc4q2TZxfsNPnVm1rTN_FramcXmfloM-0-uMmy7f-rzUCUCNG48e6QukbmLzQmz-FQ7t9cN7dFfuF_JoOyDY7mGnC4dmzX38YNVZp6BlW4des2Ch2pQgrBAzMOJMbLNZFJ_x8SXBB36BoD_88fJgpcYzRkIkLMEV-ZPRmCe8ul3M4bGwqx-uh7_NSpgMSupkKShcG62wGkdATa7jlglXkqzLEWZ7eror4s_09hWTQdGpu9-XDlN7_Ndjcbghx9DYnRaojnCAAxRGriJR14xZ3QIlECTHWCffkEmLM6ekjlABKlnsiMc4ztzpjvTFyRla7r9NAvDGvZRqzsr6J_0000]--></g></svg>