<?xml version="1.0" encoding="us-ascii" standalone="no"?><svg xmlns="http://www.w3.org/2000/svg" xmlns:xlink="http://www.w3.org/1999/xlink" contentStyleType="text/css" height="1381px" preserveAspectRatio="none" style="width:2070px;height:1381px;background:#FFFFFF;" version="1.1" viewBox="0 0 2070 1381" width="2070px" zoomAndPan="magnify"><defs/><g><text fill="#000000" font-family="sans-serif" font-size="14" font-weight="bold" lengthAdjust="spacing" textLength="346" x="855" y="24.5332">Class Diagram - US 2.2.3 Register &amp; Update Docks</text><!--class Dock--><g id="elem_Dock"><rect codeLine="4" fill="#F1F1F1" height="294.5313" id="Dock" rx="2.5" ry="2.5" style="stroke:#181818;stroke-width:0.5;" width="645" x="494.5" y="1079.6094"/><ellipse cx="796.75" cy="1095.6094" fill="#ADD1B2" rx="11" ry="11" style="stroke:#181818;stroke-width:1.0;"/><path d="M799.5156,1091.4844 Q799.6719,1091.2656 799.8594,1091.1563 Q800.0469,1091.0469 800.2656,1091.0469 Q800.6406,1091.0469 800.875,1091.3125 Q801.1094,1091.5625 801.1094,1092.1719 L801.1094,1093.625 Q801.1094,1094.2344 800.875,1094.5 Q800.6406,1094.7656 800.2656,1094.7656 Q799.9219,1094.7656 799.7188,1094.5625 Q799.5156,1094.375 799.4063,1093.8594 Q799.3594,1093.5 799.1719,1093.3125 Q798.8438,1092.9375 798.2344,1092.7188 Q797.625,1092.5 797,1092.5 Q796.2344,1092.5 795.5938,1092.8281 Q794.9688,1093.1563 794.4688,1093.9063 Q793.9844,1094.6563 793.9844,1095.6875 L793.9844,1096.7813 Q793.9844,1098.0156 794.875,1098.8438 Q795.7656,1099.6563 797.3594,1099.6563 Q798.2969,1099.6563 798.9531,1099.4063 Q799.3438,1099.25 799.7656,1098.8125 Q800.0313,1098.5469 800.1719,1098.4688 Q800.3281,1098.3906 800.5313,1098.3906 Q800.8594,1098.3906 801.1094,1098.6563 Q801.375,1098.9063 801.375,1099.25 Q801.375,1099.5938 801.0313,1100 Q800.5313,1100.5781 799.7344,1100.9063 Q798.6563,1101.3594 797.3594,1101.3594 Q795.8438,1101.3594 794.6406,1100.7344 Q793.6563,1100.2344 792.9688,1099.1719 Q792.2813,1098.0938 792.2813,1096.8125 L792.2813,1095.6563 Q792.2813,1094.3281 792.8906,1093.1875 Q793.5156,1092.0313 794.6094,1091.4219 Q795.7031,1090.7969 796.9375,1090.7969 Q797.6719,1090.7969 798.3125,1090.9688 Q798.9688,1091.125 799.5156,1091.4844 Z " fill="#000000"/><text fill="#000000" font-family="sans-serif" font-size="14" lengthAdjust="spacing" textLength="32" x="817.25" y="1101.3379">Dock</text><line style="stroke:#181818;stroke-width:0.5;" x1="495.5" x2="1138.5" y1="1111.6094" y2="1111.6094"/><ellipse cx="505.5" cy="1125.9141" fill="none" rx="3" ry="3" style="stroke:#038048;stroke-width:1.0;"/><text fill="#000000" font-family="sans-serif" font-size="14" lengthAdjust="spacing" textLength="73" x="514.5" y="1130.1426">string Code</text><ellipse cx="505.5" cy="1143.5234" fill="none" rx="3" ry="3" style="stroke:#038048;stroke-width:1.0;"/><text fill="#000000" font-family="sans-serif" font-size="14" lengthAdjust="spacing" textLength="75" x="514.5" y="1147.752">string Name</text><ellipse cx="505.5" cy="1161.1328" fill="none" rx="3" ry="3" style="stroke:#038048;stroke-width:1.0;"/><text fill="#000000" font-family="sans-serif" font-size="14" lengthAdjust="spacing" textLength="93" x="514.5" y="1165.3613">string Location</text><ellipse cx="505.5" cy="1178.7422" fill="none" rx="3" ry="3" style="stroke:#038048;stroke-width:1.0;"/><text fill="#000000" font-family="sans-serif" font-size="14" lengthAdjust="spacing" textLength="102" x="514.5" y="1182.9707">double LengthM</text><ellipse cx="505.5" cy="1196.3516" fill="none" rx="3" ry="3" style="stroke:#038048;stroke-width:1.0;"/><text fill="#000000" font-family="sans-serif" font-size="14" lengthAdjust="spacing" textLength="96" x="514.5" y="1200.5801">double DepthM</text><ellipse cx="505.5" cy="1213.9609" fill="none" rx="3" ry="3" style="stroke:#038048;stroke-width:1.0;"/><text fill="#000000" font-family="sans-serif" font-size="14" lengthAdjust="spacing" textLength="114" x="514.5" y="1218.1895">double MaxDraftM</text><ellipse cx="505.5" cy="1231.5703" fill="none" rx="3" ry="3" style="stroke:#038048;stroke-width:1.0;"/><text fill="#000000" font-family="sans-serif" font-size="14" lengthAdjust="spacing" textLength="288" x="514.5" y="1235.7988">ICollection&lt;VesselType&gt; AllowedVesselTypes</text><ellipse cx="505.5" cy="1249.1797" fill="none" rx="3" ry="3" style="stroke:#038048;stroke-width:1.0;"/><text fill="#000000" font-family="sans-serif" font-size="14" lengthAdjust="spacing" textLength="297" x="514.5" y="1253.4082">ICollection&lt;StorageArea&gt; ServedStorageAreas</text><ellipse cx="505.5" cy="1266.7891" fill="none" rx="3" ry="3" style="stroke:#038048;stroke-width:1.0;"/><text fill="#000000" font-family="sans-serif" font-size="14" lengthAdjust="spacing" textLength="308" x="514.5" y="1271.0176">ICollection&lt;MobileEquipment&gt; MobileEquipments</text><ellipse cx="505.5" cy="1284.3984" fill="none" rx="3" ry="3" style="stroke:#038048;stroke-width:1.0;"/><text fill="#000000" font-family="sans-serif" font-size="14" lengthAdjust="spacing" textLength="137" x="514.5" y="1288.627">STSCrane? StsCrane</text><line style="stroke:#181818;stroke-width:1.0;" x1="495.5" x2="1138.5" y1="1295.7031" y2="1295.7031"/><ellipse cx="505.5" cy="1310.0078" fill="#84BE84" rx="3" ry="3" style="stroke:#038048;stroke-width:1.0;"/><text fill="#000000" font-family="sans-serif" font-size="14" lengthAdjust="spacing" textLength="619" x="514.5" y="1314.2363">Dock(string code, string name, string location, double lengthM, double depthM, double maxDraftM)</text><ellipse cx="505.5" cy="1327.6172" fill="#84BE84" rx="3" ry="3" style="stroke:#038048;stroke-width:1.0;"/><text fill="#000000" font-family="sans-serif" font-size="14" lengthAdjust="spacing" textLength="592" x="514.5" y="1331.8457">Update(string name, string location, double lengthM, double depthM, double maxDraftM) : void</text><ellipse cx="505.5" cy="1345.2266" fill="#84BE84" rx="3" ry="3" style="stroke:#038048;stroke-width:1.0;"/><text fill="#000000" font-family="sans-serif" font-size="14" lengthAdjust="spacing" textLength="450" x="514.5" y="1349.4551">SetAllowedVesselTypes(IEnumerable&lt;VesselType&gt; vesselTypes) : void</text><ellipse cx="505.5" cy="1362.8359" fill="#84BE84" rx="3" ry="3" style="stroke:#038048;stroke-width:1.0;"/><text fill="#000000" font-family="sans-serif" font-size="14" lengthAdjust="spacing" textLength="360" x="514.5" y="1367.0645">CanAccommodateVesselType(string vesselTypeId) : bool</text></g><!--class VesselType--><g id="elem_VesselType"><rect codeLine="22" fill="#F1F1F1" height="224.0938" id="VesselType" rx="2.5" ry="2.5" style="stroke:#181818;stroke-width:0.5;" width="230" x="756" y="777.6094"/><ellipse cx="829.75" cy="793.6094" fill="#ADD1B2" rx="11" ry="11" style="stroke:#181818;stroke-width:1.0;"/><path d="M832.5156,789.4844 Q832.6719,789.2656 832.8594,789.1563 Q833.0469,789.0469 833.2656,789.0469 Q833.6406,789.0469 833.875,789.3125 Q834.1094,789.5625 834.1094,790.1719 L834.1094,791.625 Q834.1094,792.2344 833.875,792.5 Q833.6406,792.7656 833.2656,792.7656 Q832.9219,792.7656 832.7188,792.5625 Q832.5156,792.375 832.4063,791.8594 Q832.3594,791.5 832.1719,791.3125 Q831.8438,790.9375 831.2344,790.7188 Q830.625,790.5 830,790.5 Q829.2344,790.5 828.5938,790.8281 Q827.9688,791.1563 827.4688,791.9063 Q826.9844,792.6563 826.9844,793.6875 L826.9844,794.7813 Q826.9844,796.0156 827.875,796.8438 Q828.7656,797.6563 830.3594,797.6563 Q831.2969,797.6563 831.9531,797.4063 Q832.3438,797.25 832.7656,796.8125 Q833.0313,796.5469 833.1719,796.4688 Q833.3281,796.3906 833.5313,796.3906 Q833.8594,796.3906 834.1094,796.6563 Q834.375,796.9063 834.375,797.25 Q834.375,797.5938 834.0313,798 Q833.5313,798.5781 832.7344,798.9063 Q831.6563,799.3594 830.3594,799.3594 Q828.8438,799.3594 827.6406,798.7344 Q826.6563,798.2344 825.9688,797.1719 Q825.2813,796.0938 825.2813,794.8125 L825.2813,793.6563 Q825.2813,792.3281 825.8906,791.1875 Q826.5156,790.0313 827.6094,789.4219 Q828.7031,788.7969 829.9375,788.7969 Q830.6719,788.7969 831.3125,788.9688 Q831.9688,789.125 832.5156,789.4844 Z " fill="#000000"/><text fill="#000000" font-family="sans-serif" font-size="14" lengthAdjust="spacing" textLength="74" x="850.25" y="799.3379">VesselType</text><line style="stroke:#181818;stroke-width:0.5;" x1="757" x2="985" y1="809.6094" y2="809.6094"/><ellipse cx="767" cy="823.9141" fill="none" rx="3" ry="3" style="stroke:#038048;stroke-width:1.0;"/><text fill="#000000" font-family="sans-serif" font-size="14" lengthAdjust="spacing" textLength="124" x="776" y="828.1426">string VesselTypeId</text><ellipse cx="767" cy="841.5234" fill="none" rx="3" ry="3" style="stroke:#038048;stroke-width:1.0;"/><text fill="#000000" font-family="sans-serif" font-size="14" lengthAdjust="spacing" textLength="75" x="776" y="845.752">string Name</text><ellipse cx="767" cy="859.1328" fill="none" rx="3" ry="3" style="stroke:#038048;stroke-width:1.0;"/><text fill="#000000" font-family="sans-serif" font-size="14" lengthAdjust="spacing" textLength="118" x="776" y="863.3613">string? Description</text><ellipse cx="767" cy="876.7422" fill="none" rx="3" ry="3" style="stroke:#038048;stroke-width:1.0;"/><text fill="#000000" font-family="sans-serif" font-size="14" lengthAdjust="spacing" textLength="109" x="776" y="880.9707">int? CapacityTEU</text><ellipse cx="767" cy="894.3516" fill="none" rx="3" ry="3" style="stroke:#038048;stroke-width:1.0;"/><text fill="#000000" font-family="sans-serif" font-size="14" lengthAdjust="spacing" textLength="86" x="776" y="898.5801">int? MaxRows</text><ellipse cx="767" cy="911.9609" fill="none" rx="3" ry="3" style="stroke:#038048;stroke-width:1.0;"/><text fill="#000000" font-family="sans-serif" font-size="14" lengthAdjust="spacing" textLength="83" x="776" y="916.1895">int? MaxBays</text><ellipse cx="767" cy="929.5703" fill="none" rx="3" ry="3" style="stroke:#038048;stroke-width:1.0;"/><text fill="#000000" font-family="sans-serif" font-size="14" lengthAdjust="spacing" textLength="84" x="776" y="933.7988">int? MaxTiers</text><ellipse cx="767" cy="947.1797" fill="none" rx="3" ry="3" style="stroke:#038048;stroke-width:1.0;"/><text fill="#000000" font-family="sans-serif" font-size="14" lengthAdjust="spacing" textLength="193" x="776" y="951.4082">string? OperationalConstraints</text><ellipse cx="767" cy="964.7891" fill="none" rx="3" ry="3" style="stroke:#038048;stroke-width:1.0;"/><text fill="#000000" font-family="sans-serif" font-size="14" lengthAdjust="spacing" textLength="176" x="776" y="969.0176">ICollection&lt;Vessel&gt; Vessels</text><ellipse cx="767" cy="982.3984" fill="none" rx="3" ry="3" style="stroke:#038048;stroke-width:1.0;"/><text fill="#000000" font-family="sans-serif" font-size="14" lengthAdjust="spacing" textLength="204" x="776" y="986.627">ICollection&lt;Dock&gt; AllowedDocks</text><line style="stroke:#181818;stroke-width:0.5;" x1="757" x2="985" y1="993.7031" y2="993.7031"/></g><!--class StorageArea--><g id="elem_StorageArea"><rect codeLine="35" fill="#F1F1F1" height="188.875" id="StorageArea" rx="2.5" ry="2.5" style="stroke:#181818;stroke-width:0.5;" width="191" x="529.5" y="795.1094"/><ellipse cx="580.75" cy="811.1094" fill="#ADD1B2" rx="11" ry="11" style="stroke:#181818;stroke-width:1.0;"/><path d="M583.5156,806.9844 Q583.6719,806.7656 583.8594,806.6563 Q584.0469,806.5469 584.2656,806.5469 Q584.6406,806.5469 584.875,806.8125 Q585.1094,807.0625 585.1094,807.6719 L585.1094,809.125 Q585.1094,809.7344 584.875,810 Q584.6406,810.2656 584.2656,810.2656 Q583.9219,810.2656 583.7188,810.0625 Q583.5156,809.875 583.4063,809.3594 Q583.3594,809 583.1719,808.8125 Q582.8438,808.4375 582.2344,808.2188 Q581.625,808 581,808 Q580.2344,808 579.5938,808.3281 Q578.9688,808.6563 578.4688,809.4063 Q577.9844,810.1563 577.9844,811.1875 L577.9844,812.2813 Q577.9844,813.5156 578.875,814.3438 Q579.7656,815.1563 581.3594,815.1563 Q582.2969,815.1563 582.9531,814.9063 Q583.3438,814.75 583.7656,814.3125 Q584.0313,814.0469 584.1719,813.9688 Q584.3281,813.8906 584.5313,813.8906 Q584.8594,813.8906 585.1094,814.1563 Q585.375,814.4063 585.375,814.75 Q585.375,815.0938 585.0313,815.5 Q584.5313,816.0781 583.7344,816.4063 Q582.6563,816.8594 581.3594,816.8594 Q579.8438,816.8594 578.6406,816.2344 Q577.6563,815.7344 576.9688,814.6719 Q576.2813,813.5938 576.2813,812.3125 L576.2813,811.1563 Q576.2813,809.8281 576.8906,808.6875 Q577.5156,807.5313 578.6094,806.9219 Q579.7031,806.2969 580.9375,806.2969 Q581.6719,806.2969 582.3125,806.4688 Q582.9688,806.625 583.5156,806.9844 Z " fill="#000000"/><text fill="#000000" font-family="sans-serif" font-size="14" lengthAdjust="spacing" textLength="80" x="601.25" y="816.8379">StorageArea</text><line style="stroke:#181818;stroke-width:0.5;" x1="530.5" x2="719.5" y1="827.1094" y2="827.1094"/><ellipse cx="540.5" cy="841.4141" fill="none" rx="3" ry="3" style="stroke:#038048;stroke-width:1.0;"/><text fill="#000000" font-family="sans-serif" font-size="14" lengthAdjust="spacing" textLength="130" x="549.5" y="845.6426">string StorageAreaId</text><ellipse cx="540.5" cy="859.0234" fill="none" rx="3" ry="3" style="stroke:#038048;stroke-width:1.0;"/><text fill="#000000" font-family="sans-serif" font-size="14" lengthAdjust="spacing" textLength="75" x="549.5" y="863.252">string Name</text><ellipse cx="540.5" cy="876.6328" fill="none" rx="3" ry="3" style="stroke:#038048;stroke-width:1.0;"/><text fill="#000000" font-family="sans-serif" font-size="14" lengthAdjust="spacing" textLength="93" x="549.5" y="880.8613">string Location</text><ellipse cx="540.5" cy="894.2422" fill="none" rx="3" ry="3" style="stroke:#038048;stroke-width:1.0;"/><text fill="#000000" font-family="sans-serif" font-size="14" lengthAdjust="spacing" textLength="126" x="549.5" y="898.4707">int MaxCapacityTEU</text><ellipse cx="540.5" cy="911.8516" fill="none" rx="3" ry="3" style="stroke:#038048;stroke-width:1.0;"/><text fill="#000000" font-family="sans-serif" font-size="14" lengthAdjust="spacing" textLength="165" x="549.5" y="916.0801">int CurrentOccupancyTEU</text><ellipse cx="540.5" cy="929.4609" fill="none" rx="3" ry="3" style="stroke:#038048;stroke-width:1.0;"/><text fill="#000000" font-family="sans-serif" font-size="14" lengthAdjust="spacing" textLength="129" x="549.5" y="933.6895">bool ServesAllDocks</text><ellipse cx="540.5" cy="947.0703" fill="none" rx="3" ry="3" style="stroke:#038048;stroke-width:1.0;"/><text fill="#000000" font-family="sans-serif" font-size="14" lengthAdjust="spacing" textLength="148" x="549.5" y="951.2988">StorageAreaType Type</text><ellipse cx="540.5" cy="964.6797" fill="none" rx="3" ry="3" style="stroke:#038048;stroke-width:1.0;"/><text fill="#000000" font-family="sans-serif" font-size="14" lengthAdjust="spacing" textLength="156" x="549.5" y="968.9082">ICollection&lt;Dock&gt; Docks</text><line style="stroke:#181818;stroke-width:0.5;" x1="530.5" x2="719.5" y1="975.9844" y2="975.9844"/></g><!--class DockStorageDistance--><g id="elem_DockStorageDistance"><rect codeLine="46" fill="#F1F1F1" height="153.6563" id="DockStorageDistance" rx="2.5" ry="2.5" style="stroke:#181818;stroke-width:0.5;" width="198" x="437" y="545.6094"/><ellipse cx="465.05" cy="561.6094" fill="#ADD1B2" rx="11" ry="11" style="stroke:#181818;stroke-width:1.0;"/><path d="M467.8156,557.4844 Q467.9719,557.2656 468.1594,557.1563 Q468.3469,557.0469 468.5656,557.0469 Q468.9406,557.0469 469.175,557.3125 Q469.4094,557.5625 469.4094,558.1719 L469.4094,559.625 Q469.4094,560.2344 469.175,560.5 Q468.9406,560.7656 468.5656,560.7656 Q468.2219,560.7656 468.0188,560.5625 Q467.8156,560.375 467.7063,559.8594 Q467.6594,559.5 467.4719,559.3125 Q467.1438,558.9375 466.5344,558.7188 Q465.925,558.5 465.3,558.5 Q464.5344,558.5 463.8938,558.8281 Q463.2688,559.1563 462.7688,559.9063 Q462.2844,560.6563 462.2844,561.6875 L462.2844,562.7813 Q462.2844,564.0156 463.175,564.8438 Q464.0656,565.6563 465.6594,565.6563 Q466.5969,565.6563 467.2531,565.4063 Q467.6438,565.25 468.0656,564.8125 Q468.3313,564.5469 468.4719,564.4688 Q468.6281,564.3906 468.8313,564.3906 Q469.1594,564.3906 469.4094,564.6563 Q469.675,564.9063 469.675,565.25 Q469.675,565.5938 469.3313,566 Q468.8313,566.5781 468.0344,566.9063 Q466.9563,567.3594 465.6594,567.3594 Q464.1438,567.3594 462.9406,566.7344 Q461.9563,566.2344 461.2688,565.1719 Q460.5813,564.0938 460.5813,562.8125 L460.5813,561.6563 Q460.5813,560.3281 461.1906,559.1875 Q461.8156,558.0313 462.9094,557.4219 Q464.0031,556.7969 465.2375,556.7969 Q465.9719,556.7969 466.6125,556.9688 Q467.2688,557.125 467.8156,557.4844 Z " fill="#000000"/><text fill="#000000" font-family="sans-serif" font-size="14" lengthAdjust="spacing" textLength="137" x="481.95" y="567.3379">DockStorageDistance</text><line style="stroke:#181818;stroke-width:0.5;" x1="438" x2="634" y1="577.6094" y2="577.6094"/><ellipse cx="448" cy="591.9141" fill="none" rx="3" ry="3" style="stroke:#038048;stroke-width:1.0;"/><text fill="#000000" font-family="sans-serif" font-size="14" lengthAdjust="spacing" textLength="167" x="457" y="596.1426">int DockStorageDistanceId</text><ellipse cx="448" cy="609.5234" fill="none" rx="3" ry="3" style="stroke:#038048;stroke-width:1.0;"/><text fill="#000000" font-family="sans-serif" font-size="14" lengthAdjust="spacing" textLength="117" x="457" y="613.752">int DistanceMeters</text><ellipse cx="448" cy="627.1328" fill="none" rx="3" ry="3" style="stroke:#038048;stroke-width:1.0;"/><text fill="#000000" font-family="sans-serif" font-size="14" lengthAdjust="spacing" textLength="105" x="457" y="631.3613">string DockCode</text><ellipse cx="448" cy="644.7422" fill="none" rx="3" ry="3" style="stroke:#038048;stroke-width:1.0;"/><text fill="#000000" font-family="sans-serif" font-size="14" lengthAdjust="spacing" textLength="76" x="457" y="648.9707">Dock? Dock</text><ellipse cx="448" cy="662.3516" fill="none" rx="3" ry="3" style="stroke:#038048;stroke-width:1.0;"/><text fill="#000000" font-family="sans-serif" font-size="14" lengthAdjust="spacing" textLength="130" x="457" y="666.5801">string StorageAreaId</text><ellipse cx="448" cy="679.9609" fill="none" rx="3" ry="3" style="stroke:#038048;stroke-width:1.0;"/><text fill="#000000" font-family="sans-serif" font-size="14" lengthAdjust="spacing" textLength="172" x="457" y="684.1895">StorageArea? StorageArea</text><line style="stroke:#181818;stroke-width:0.5;" x1="438" x2="634" y1="691.2656" y2="691.2656"/></g><!--class PortDbContext--><g id="elem_PortDbContext"><rect codeLine="56" fill="#F1F1F1" height="136.0469" id="PortDbContext" rx="2.5" ry="2.5" style="stroke:#181818;stroke-width:0.5;" width="401" x="670.5" y="554.6094"/><ellipse cx="820.75" cy="570.6094" fill="#ADD1B2" rx="11" ry="11" style="stroke:#181818;stroke-width:1.0;"/><path d="M823.5156,566.4844 Q823.6719,566.2656 823.8594,566.1563 Q824.0469,566.0469 824.2656,566.0469 Q824.6406,566.0469 824.875,566.3125 Q825.1094,566.5625 825.1094,567.1719 L825.1094,568.625 Q825.1094,569.2344 824.875,569.5 Q824.6406,569.7656 824.2656,569.7656 Q823.9219,569.7656 823.7188,569.5625 Q823.5156,569.375 823.4063,568.8594 Q823.3594,568.5 823.1719,568.3125 Q822.8438,567.9375 822.2344,567.7188 Q821.625,567.5 821,567.5 Q820.2344,567.5 819.5938,567.8281 Q818.9688,568.1563 818.4688,568.9063 Q817.9844,569.6563 817.9844,570.6875 L817.9844,571.7813 Q817.9844,573.0156 818.875,573.8438 Q819.7656,574.6563 821.3594,574.6563 Q822.2969,574.6563 822.9531,574.4063 Q823.3438,574.25 823.7656,573.8125 Q824.0313,573.5469 824.1719,573.4688 Q824.3281,573.3906 824.5313,573.3906 Q824.8594,573.3906 825.1094,573.6563 Q825.375,573.9063 825.375,574.25 Q825.375,574.5938 825.0313,575 Q824.5313,575.5781 823.7344,575.9063 Q822.6563,576.3594 821.3594,576.3594 Q819.8438,576.3594 818.6406,575.7344 Q817.6563,575.2344 816.9688,574.1719 Q816.2813,573.0938 816.2813,571.8125 L816.2813,570.6563 Q816.2813,569.3281 816.8906,568.1875 Q817.5156,567.0313 818.6094,566.4219 Q819.7031,565.7969 820.9375,565.7969 Q821.6719,565.7969 822.3125,565.9688 Q822.9688,566.125 823.5156,566.4844 Z " fill="#000000"/><text fill="#000000" font-family="sans-serif" font-size="14" lengthAdjust="spacing" textLength="92" x="841.25" y="576.3379">PortDbContext</text><line style="stroke:#181818;stroke-width:0.5;" x1="671.5" x2="1070.5" y1="586.6094" y2="586.6094"/><ellipse cx="681.5" cy="600.9141" fill="none" rx="3" ry="3" style="stroke:#038048;stroke-width:1.0;"/><text fill="#000000" font-family="sans-serif" font-size="14" lengthAdjust="spacing" textLength="130" x="690.5" y="605.1426">DbSet&lt;Dock&gt; Docks</text><ellipse cx="681.5" cy="618.5234" fill="none" rx="3" ry="3" style="stroke:#038048;stroke-width:1.0;"/><text fill="#000000" font-family="sans-serif" font-size="14" lengthAdjust="spacing" textLength="214" x="690.5" y="622.752">DbSet&lt;VesselType&gt; VesselTypes</text><ellipse cx="681.5" cy="636.1328" fill="none" rx="3" ry="3" style="stroke:#038048;stroke-width:1.0;"/><text fill="#000000" font-family="sans-serif" font-size="14" lengthAdjust="spacing" textLength="226" x="690.5" y="640.3613">DbSet&lt;StorageArea&gt; StorageAreas</text><line style="stroke:#181818;stroke-width:1.0;" x1="671.5" x2="1070.5" y1="647.4375" y2="647.4375"/><ellipse cx="681.5" cy="661.7422" fill="#84BE84" rx="3" ry="3" style="stroke:#038048;stroke-width:1.0;"/><text fill="#000000" font-family="sans-serif" font-size="14" lengthAdjust="spacing" textLength="375" x="690.5" y="665.9707">PortDbContext(DbContextOptions&lt;PortDbContext&gt; options)</text><polygon fill="#FFFF44" points="681.5,674.3516,685.5,678.3516,681.5,682.3516,677.5,678.3516" style="stroke:#B38D22;stroke-width:1.0;"/><text fill="#000000" font-family="sans-serif" font-size="14" lengthAdjust="spacing" textLength="327" x="690.5" y="683.5801">OnModelCreating(ModelBuilder modelBuilder) : void</text></g><!--class DockRepository--><g id="elem_DockRepository"><rect codeLine="65" fill="#F1F1F1" height="171.2656" id="DockRepository" rx="2.5" ry="2.5" style="stroke:#181818;stroke-width:0.5;" width="572" x="7" y="304.6094"/><ellipse cx="238.75" cy="320.6094" fill="#ADD1B2" rx="11" ry="11" style="stroke:#181818;stroke-width:1.0;"/><path d="M241.5156,316.4844 Q241.6719,316.2656 241.8594,316.1563 Q242.0469,316.0469 242.2656,316.0469 Q242.6406,316.0469 242.875,316.3125 Q243.1094,316.5625 243.1094,317.1719 L243.1094,318.625 Q243.1094,319.2344 242.875,319.5 Q242.6406,319.7656 242.2656,319.7656 Q241.9219,319.7656 241.7188,319.5625 Q241.5156,319.375 241.4063,318.8594 Q241.3594,318.5 241.1719,318.3125 Q240.8438,317.9375 240.2344,317.7188 Q239.625,317.5 239,317.5 Q238.2344,317.5 237.5938,317.8281 Q236.9688,318.1563 236.4688,318.9063 Q235.9844,319.6563 235.9844,320.6875 L235.9844,321.7813 Q235.9844,323.0156 236.875,323.8438 Q237.7656,324.6563 239.3594,324.6563 Q240.2969,324.6563 240.9531,324.4063 Q241.3438,324.25 241.7656,323.8125 Q242.0313,323.5469 242.1719,323.4688 Q242.3281,323.3906 242.5313,323.3906 Q242.8594,323.3906 243.1094,323.6563 Q243.375,323.9063 243.375,324.25 Q243.375,324.5938 243.0313,325 Q242.5313,325.5781 241.7344,325.9063 Q240.6563,326.3594 239.3594,326.3594 Q237.8438,326.3594 236.6406,325.7344 Q235.6563,325.2344 234.9688,324.1719 Q234.2813,323.0938 234.2813,321.8125 L234.2813,320.6563 Q234.2813,319.3281 234.8906,318.1875 Q235.5156,317.0313 236.6094,316.4219 Q237.7031,315.7969 238.9375,315.7969 Q239.6719,315.7969 240.3125,315.9688 Q240.9688,316.125 241.5156,316.4844 Z " fill="#000000"/><text fill="#000000" font-family="sans-serif" font-size="14" lengthAdjust="spacing" textLength="100" x="259.25" y="326.3379">DockRepository</text><line style="stroke:#181818;stroke-width:0.5;" x1="8" x2="578" y1="336.6094" y2="336.6094"/><line style="stroke:#181818;stroke-width:0.5;" x1="8" x2="578" y1="344.6094" y2="344.6094"/><ellipse cx="18" cy="358.9141" fill="#84BE84" rx="3" ry="3" style="stroke:#038048;stroke-width:1.0;"/><text fill="#000000" font-family="sans-serif" font-size="14" lengthAdjust="spacing" textLength="455" x="27" y="363.1426">GetByCodeAsync(string code, bool includeVesselTypes) : Task&lt;Dock?&gt;</text><ellipse cx="18" cy="376.5234" fill="#84BE84" rx="3" ry="3" style="stroke:#038048;stroke-width:1.0;"/><text fill="#000000" font-family="sans-serif" font-size="14" lengthAdjust="spacing" textLength="372" x="27" y="380.752">GetAllAsync(bool includeVesselTypes) : Task&lt;List&lt;Dock&gt;&gt;</text><ellipse cx="18" cy="394.1328" fill="#84BE84" rx="3" ry="3" style="stroke:#038048;stroke-width:1.0;"/><text fill="#000000" font-family="sans-serif" font-size="14" lengthAdjust="spacing" textLength="546" x="27" y="398.3613">SearchAsync(string? name, string? location, string? vesselTypeId) : Task&lt;List&lt;Dock&gt;&gt;</text><ellipse cx="18" cy="411.7422" fill="#84BE84" rx="3" ry="3" style="stroke:#038048;stroke-width:1.0;"/><text fill="#000000" font-family="sans-serif" font-size="14" lengthAdjust="spacing" textLength="240" x="27" y="415.9707">ExistsAsync(string code) : Task&lt;bool&gt;</text><ellipse cx="18" cy="429.3516" fill="#84BE84" rx="3" ry="3" style="stroke:#038048;stroke-width:1.0;"/><text fill="#000000" font-family="sans-serif" font-size="14" lengthAdjust="spacing" textLength="182" x="27" y="433.5801">AddAsync(Dock dock) : Task</text><ellipse cx="18" cy="446.9609" fill="#84BE84" rx="3" ry="3" style="stroke:#038048;stroke-width:1.0;"/><text fill="#000000" font-family="sans-serif" font-size="14" lengthAdjust="spacing" textLength="159" x="27" y="451.1895">Update(Dock dock) : void</text><ellipse cx="18" cy="464.5703" fill="#84BE84" rx="3" ry="3" style="stroke:#038048;stroke-width:1.0;"/><text fill="#000000" font-family="sans-serif" font-size="14" lengthAdjust="spacing" textLength="166" x="27" y="468.7988">Remove(Dock dock) : void</text></g><!--class VesselTypeRepository--><g id="elem_VesselTypeRepository"><rect codeLine="75" fill="#F1F1F1" height="100.8281" id="VesselTypeRepository" rx="2.5" ry="2.5" style="stroke:#181818;stroke-width:0.5;" width="454" x="614" y="339.6094"/><ellipse cx="765.75" cy="355.6094" fill="#ADD1B2" rx="11" ry="11" style="stroke:#181818;stroke-width:1.0;"/><path d="M768.5156,351.4844 Q768.6719,351.2656 768.8594,351.1563 Q769.0469,351.0469 769.2656,351.0469 Q769.6406,351.0469 769.875,351.3125 Q770.1094,351.5625 770.1094,352.1719 L770.1094,353.625 Q770.1094,354.2344 769.875,354.5 Q769.6406,354.7656 769.2656,354.7656 Q768.9219,354.7656 768.7188,354.5625 Q768.5156,354.375 768.4063,353.8594 Q768.3594,353.5 768.1719,353.3125 Q767.8438,352.9375 767.2344,352.7188 Q766.625,352.5 766,352.5 Q765.2344,352.5 764.5938,352.8281 Q763.9688,353.1563 763.4688,353.9063 Q762.9844,354.6563 762.9844,355.6875 L762.9844,356.7813 Q762.9844,358.0156 763.875,358.8438 Q764.7656,359.6563 766.3594,359.6563 Q767.2969,359.6563 767.9531,359.4063 Q768.3438,359.25 768.7656,358.8125 Q769.0313,358.5469 769.1719,358.4688 Q769.3281,358.3906 769.5313,358.3906 Q769.8594,358.3906 770.1094,358.6563 Q770.375,358.9063 770.375,359.25 Q770.375,359.5938 770.0313,360 Q769.5313,360.5781 768.7344,360.9063 Q767.6563,361.3594 766.3594,361.3594 Q764.8438,361.3594 763.6406,360.7344 Q762.6563,360.2344 761.9688,359.1719 Q761.2813,358.0938 761.2813,356.8125 L761.2813,355.6563 Q761.2813,354.3281 761.8906,353.1875 Q762.5156,352.0313 763.6094,351.4219 Q764.7031,350.7969 765.9375,350.7969 Q766.6719,350.7969 767.3125,350.9688 Q767.9688,351.125 768.5156,351.4844 Z " fill="#000000"/><text fill="#000000" font-family="sans-serif" font-size="14" lengthAdjust="spacing" textLength="142" x="786.25" y="361.3379">VesselTypeRepository</text><line style="stroke:#181818;stroke-width:0.5;" x1="615" x2="1067" y1="371.6094" y2="371.6094"/><line style="stroke:#181818;stroke-width:0.5;" x1="615" x2="1067" y1="379.6094" y2="379.6094"/><ellipse cx="625" cy="393.9141" fill="#84BE84" rx="3" ry="3" style="stroke:#038048;stroke-width:1.0;"/><text fill="#000000" font-family="sans-serif" font-size="14" lengthAdjust="spacing" textLength="289" x="634" y="398.1426">GetByIdAsync(string id) : Task&lt;VesselType?&gt;</text><ellipse cx="625" cy="411.5234" fill="#84BE84" rx="3" ry="3" style="stroke:#038048;stroke-width:1.0;"/><text fill="#000000" font-family="sans-serif" font-size="14" lengthAdjust="spacing" textLength="428" x="634" y="415.752">GetByIdsAsync(IEnumerable&lt;string&gt; ids) : Task&lt;List&lt;VesselType&gt;&gt;</text><ellipse cx="625" cy="429.1328" fill="#84BE84" rx="3" ry="3" style="stroke:#038048;stroke-width:1.0;"/><text fill="#000000" font-family="sans-serif" font-size="14" lengthAdjust="spacing" textLength="220" x="634" y="433.3613">ExistsAsync(string id) : Task&lt;bool&gt;</text></g><!--class DockConfiguration--><g id="elem_DockConfiguration"><rect codeLine="81" fill="#F1F1F1" height="65.6094" id="DockConfiguration" rx="2.5" ry="2.5" style="stroke:#181818;stroke-width:0.5;" width="307" x="1109.5" y="856.6094"/><ellipse cx="1200.25" cy="872.6094" fill="#ADD1B2" rx="11" ry="11" style="stroke:#181818;stroke-width:1.0;"/><path d="M1203.0156,868.4844 Q1203.1719,868.2656 1203.3594,868.1563 Q1203.5469,868.0469 1203.7656,868.0469 Q1204.1406,868.0469 1204.375,868.3125 Q1204.6094,868.5625 1204.6094,869.1719 L1204.6094,870.625 Q1204.6094,871.2344 1204.375,871.5 Q1204.1406,871.7656 1203.7656,871.7656 Q1203.4219,871.7656 1203.2188,871.5625 Q1203.0156,871.375 1202.9063,870.8594 Q1202.8594,870.5 1202.6719,870.3125 Q1202.3438,869.9375 1201.7344,869.7188 Q1201.125,869.5 1200.5,869.5 Q1199.7344,869.5 1199.0938,869.8281 Q1198.4688,870.1563 1197.9688,870.9063 Q1197.4844,871.6563 1197.4844,872.6875 L1197.4844,873.7813 Q1197.4844,875.0156 1198.375,875.8438 Q1199.2656,876.6563 1200.8594,876.6563 Q1201.7969,876.6563 1202.4531,876.4063 Q1202.8438,876.25 1203.2656,875.8125 Q1203.5313,875.5469 1203.6719,875.4688 Q1203.8281,875.3906 1204.0313,875.3906 Q1204.3594,875.3906 1204.6094,875.6563 Q1204.875,875.9063 1204.875,876.25 Q1204.875,876.5938 1204.5313,877 Q1204.0313,877.5781 1203.2344,877.9063 Q1202.1563,878.3594 1200.8594,878.3594 Q1199.3438,878.3594 1198.1406,877.7344 Q1197.1563,877.2344 1196.4688,876.1719 Q1195.7813,875.0938 1195.7813,873.8125 L1195.7813,872.6563 Q1195.7813,871.3281 1196.3906,870.1875 Q1197.0156,869.0313 1198.1094,868.4219 Q1199.2031,867.7969 1200.4375,867.7969 Q1201.1719,867.7969 1201.8125,867.9688 Q1202.4688,868.125 1203.0156,868.4844 Z " fill="#000000"/><text fill="#000000" font-family="sans-serif" font-size="14" lengthAdjust="spacing" textLength="117" x="1220.75" y="878.3379">DockConfiguration</text><line style="stroke:#181818;stroke-width:0.5;" x1="1110.5" x2="1415.5" y1="888.6094" y2="888.6094"/><line style="stroke:#181818;stroke-width:0.5;" x1="1110.5" x2="1415.5" y1="896.6094" y2="896.6094"/><ellipse cx="1120.5" cy="910.9141" fill="#84BE84" rx="3" ry="3" style="stroke:#038048;stroke-width:1.0;"/><text fill="#000000" font-family="sans-serif" font-size="14" lengthAdjust="spacing" textLength="281" x="1129.5" y="915.1426">Configure(EntityTypeBuilder&lt;Dock&gt; b) : void</text></g><!--class DocksController--><g id="elem_DocksController"><rect codeLine="86" fill="#F1F1F1" height="188.875" id="DocksController" rx="2.5" ry="2.5" style="stroke:#181818;stroke-width:0.5;" width="539" x="940.5" y="45.6094"/><ellipse cx="1155.25" cy="61.6094" fill="#ADD1B2" rx="11" ry="11" style="stroke:#181818;stroke-width:1.0;"/><path d="M1158.0156,57.4844 Q1158.1719,57.2656 1158.3594,57.1563 Q1158.5469,57.0469 1158.7656,57.0469 Q1159.1406,57.0469 1159.375,57.3125 Q1159.6094,57.5625 1159.6094,58.1719 L1159.6094,59.625 Q1159.6094,60.2344 1159.375,60.5 Q1159.1406,60.7656 1158.7656,60.7656 Q1158.4219,60.7656 1158.2188,60.5625 Q1158.0156,60.375 1157.9063,59.8594 Q1157.8594,59.5 1157.6719,59.3125 Q1157.3438,58.9375 1156.7344,58.7188 Q1156.125,58.5 1155.5,58.5 Q1154.7344,58.5 1154.0938,58.8281 Q1153.4688,59.1563 1152.9688,59.9063 Q1152.4844,60.6563 1152.4844,61.6875 L1152.4844,62.7813 Q1152.4844,64.0156 1153.375,64.8438 Q1154.2656,65.6563 1155.8594,65.6563 Q1156.7969,65.6563 1157.4531,65.4063 Q1157.8438,65.25 1158.2656,64.8125 Q1158.5313,64.5469 1158.6719,64.4688 Q1158.8281,64.3906 1159.0313,64.3906 Q1159.3594,64.3906 1159.6094,64.6563 Q1159.875,64.9063 1159.875,65.25 Q1159.875,65.5938 1159.5313,66 Q1159.0313,66.5781 1158.2344,66.9063 Q1157.1563,67.3594 1155.8594,67.3594 Q1154.3438,67.3594 1153.1406,66.7344 Q1152.1563,66.2344 1151.4688,65.1719 Q1150.7813,64.0938 1150.7813,62.8125 L1150.7813,61.6563 Q1150.7813,60.3281 1151.3906,59.1875 Q1152.0156,58.0313 1153.1094,57.4219 Q1154.2031,56.7969 1155.4375,56.7969 Q1156.1719,56.7969 1156.8125,56.9688 Q1157.4688,57.125 1158.0156,57.4844 Z " fill="#000000"/><text fill="#000000" font-family="sans-serif" font-size="14" lengthAdjust="spacing" textLength="101" x="1175.75" y="67.3379">DocksController</text><line style="stroke:#181818;stroke-width:0.5;" x1="941.5" x2="1478.5" y1="77.6094" y2="77.6094"/><rect fill="none" height="6" style="stroke:#C82930;stroke-width:1.0;" width="6" x="948.5" y="88.9141"/><text fill="#000000" font-family="sans-serif" font-size="14" lengthAdjust="spacing" textLength="176" x="960.5" y="96.1426">DockRepository _dockRepo</text><rect fill="none" height="6" style="stroke:#C82930;stroke-width:1.0;" width="6" x="948.5" y="106.5234"/><text fill="#000000" font-family="sans-serif" font-size="14" lengthAdjust="spacing" textLength="260" x="960.5" y="113.752">VesselTypeRepository _vesselTypeRepo</text><rect fill="none" height="6" style="stroke:#C82930;stroke-width:1.0;" width="6" x="948.5" y="124.1328"/><text fill="#000000" font-family="sans-serif" font-size="14" lengthAdjust="spacing" textLength="121" x="960.5" y="131.3613">PortDbContext _ctx</text><line style="stroke:#181818;stroke-width:1.0;" x1="941.5" x2="1478.5" y1="138.4375" y2="138.4375"/><ellipse cx="951.5" cy="152.7422" fill="#84BE84" rx="3" ry="3" style="stroke:#038048;stroke-width:1.0;"/><text fill="#000000" font-family="sans-serif" font-size="14" lengthAdjust="spacing" textLength="513" x="960.5" y="156.9707">GetAll(string? name, string? location, string? vesselTypeId) : Task&lt;IActionResult&gt;</text><ellipse cx="951.5" cy="170.3516" fill="#84BE84" rx="3" ry="3" style="stroke:#038048;stroke-width:1.0;"/><text fill="#000000" font-family="sans-serif" font-size="14" lengthAdjust="spacing" textLength="294" x="960.5" y="174.5801">GetByCode(string code) : Task&lt;IActionResult&gt;</text><ellipse cx="951.5" cy="187.9609" fill="#84BE84" rx="3" ry="3" style="stroke:#038048;stroke-width:1.0;"/><text fill="#000000" font-family="sans-serif" font-size="14" lengthAdjust="spacing" textLength="315" x="960.5" y="192.1895">Create(CreateDockDto dto) : Task&lt;IActionResult&gt;</text><ellipse cx="951.5" cy="205.5703" fill="#84BE84" rx="3" ry="3" style="stroke:#038048;stroke-width:1.0;"/><text fill="#000000" font-family="sans-serif" font-size="14" lengthAdjust="spacing" textLength="397" x="960.5" y="209.7988">Update(string code, UpdateDockDto dto) : Task&lt;IActionResult&gt;</text><ellipse cx="951.5" cy="223.1797" fill="#84BE84" rx="3" ry="3" style="stroke:#038048;stroke-width:1.0;"/><text fill="#000000" font-family="sans-serif" font-size="14" lengthAdjust="spacing" textLength="262" x="960.5" y="227.4082">Delete(string code) : Task&lt;IActionResult&gt;</text></g><!--class CreateDockDto--><g id="elem_CreateDockDto"><rect codeLine="99" fill="#F1F1F1" height="171.2656" id="CreateDockDto" rx="2.5" ry="2.5" style="stroke:#181818;stroke-width:0.5;" width="251" x="1174.5" y="304.6094"/><ellipse cx="1247.25" cy="320.6094" fill="#ADD1B2" rx="11" ry="11" style="stroke:#181818;stroke-width:1.0;"/><path d="M1250.0156,316.4844 Q1250.1719,316.2656 1250.3594,316.1563 Q1250.5469,316.0469 1250.7656,316.0469 Q1251.1406,316.0469 1251.375,316.3125 Q1251.6094,316.5625 1251.6094,317.1719 L1251.6094,318.625 Q1251.6094,319.2344 1251.375,319.5 Q1251.1406,319.7656 1250.7656,319.7656 Q1250.4219,319.7656 1250.2188,319.5625 Q1250.0156,319.375 1249.9063,318.8594 Q1249.8594,318.5 1249.6719,318.3125 Q1249.3438,317.9375 1248.7344,317.7188 Q1248.125,317.5 1247.5,317.5 Q1246.7344,317.5 1246.0938,317.8281 Q1245.4688,318.1563 1244.9688,318.9063 Q1244.4844,319.6563 1244.4844,320.6875 L1244.4844,321.7813 Q1244.4844,323.0156 1245.375,323.8438 Q1246.2656,324.6563 1247.8594,324.6563 Q1248.7969,324.6563 1249.4531,324.4063 Q1249.8438,324.25 1250.2656,323.8125 Q1250.5313,323.5469 1250.6719,323.4688 Q1250.8281,323.3906 1251.0313,323.3906 Q1251.3594,323.3906 1251.6094,323.6563 Q1251.875,323.9063 1251.875,324.25 Q1251.875,324.5938 1251.5313,325 Q1251.0313,325.5781 1250.2344,325.9063 Q1249.1563,326.3594 1247.8594,326.3594 Q1246.3438,326.3594 1245.1406,325.7344 Q1244.1563,325.2344 1243.4688,324.1719 Q1242.7813,323.0938 1242.7813,321.8125 L1242.7813,320.6563 Q1242.7813,319.3281 1243.3906,318.1875 Q1244.0156,317.0313 1245.1094,316.4219 Q1246.2031,315.7969 1247.4375,315.7969 Q1248.1719,315.7969 1248.8125,315.9688 Q1249.4688,316.125 1250.0156,316.4844 Z " fill="#000000"/><text fill="#000000" font-family="sans-serif" font-size="14" lengthAdjust="spacing" textLength="97" x="1267.75" y="326.3379">CreateDockDto</text><line style="stroke:#181818;stroke-width:0.5;" x1="1175.5" x2="1424.5" y1="336.6094" y2="336.6094"/><ellipse cx="1185.5" cy="350.9141" fill="none" rx="3" ry="3" style="stroke:#038048;stroke-width:1.0;"/><text fill="#000000" font-family="sans-serif" font-size="14" lengthAdjust="spacing" textLength="73" x="1194.5" y="355.1426">string Code</text><ellipse cx="1185.5" cy="368.5234" fill="none" rx="3" ry="3" style="stroke:#038048;stroke-width:1.0;"/><text fill="#000000" font-family="sans-serif" font-size="14" lengthAdjust="spacing" textLength="75" x="1194.5" y="372.752">string Name</text><ellipse cx="1185.5" cy="386.1328" fill="none" rx="3" ry="3" style="stroke:#038048;stroke-width:1.0;"/><text fill="#000000" font-family="sans-serif" font-size="14" lengthAdjust="spacing" textLength="93" x="1194.5" y="390.3613">string Location</text><ellipse cx="1185.5" cy="403.7422" fill="none" rx="3" ry="3" style="stroke:#038048;stroke-width:1.0;"/><text fill="#000000" font-family="sans-serif" font-size="14" lengthAdjust="spacing" textLength="102" x="1194.5" y="407.9707">double LengthM</text><ellipse cx="1185.5" cy="421.3516" fill="none" rx="3" ry="3" style="stroke:#038048;stroke-width:1.0;"/><text fill="#000000" font-family="sans-serif" font-size="14" lengthAdjust="spacing" textLength="96" x="1194.5" y="425.5801">double DepthM</text><ellipse cx="1185.5" cy="438.9609" fill="none" rx="3" ry="3" style="stroke:#038048;stroke-width:1.0;"/><text fill="#000000" font-family="sans-serif" font-size="14" lengthAdjust="spacing" textLength="114" x="1194.5" y="443.1895">double MaxDraftM</text><ellipse cx="1185.5" cy="456.5703" fill="none" rx="3" ry="3" style="stroke:#038048;stroke-width:1.0;"/><text fill="#000000" font-family="sans-serif" font-size="14" lengthAdjust="spacing" textLength="225" x="1194.5" y="460.7988">List&lt;string&gt;? AllowedVesselTypeIds</text><line style="stroke:#181818;stroke-width:0.5;" x1="1175.5" x2="1424.5" y1="467.875" y2="467.875"/></g><!--class UpdateDockDto--><g id="elem_UpdateDockDto"><rect codeLine="109" fill="#F1F1F1" height="153.6563" id="UpdateDockDto" rx="2.5" ry="2.5" style="stroke:#181818;stroke-width:0.5;" width="251" x="1460.5" y="313.1094"/><ellipse cx="1532.25" cy="329.1094" fill="#ADD1B2" rx="11" ry="11" style="stroke:#181818;stroke-width:1.0;"/><path d="M1535.0156,324.9844 Q1535.1719,324.7656 1535.3594,324.6563 Q1535.5469,324.5469 1535.7656,324.5469 Q1536.1406,324.5469 1536.375,324.8125 Q1536.6094,325.0625 1536.6094,325.6719 L1536.6094,327.125 Q1536.6094,327.7344 1536.375,328 Q1536.1406,328.2656 1535.7656,328.2656 Q1535.4219,328.2656 1535.2188,328.0625 Q1535.0156,327.875 1534.9063,327.3594 Q1534.8594,327 1534.6719,326.8125 Q1534.3438,326.4375 1533.7344,326.2188 Q1533.125,326 1532.5,326 Q1531.7344,326 1531.0938,326.3281 Q1530.4688,326.6563 1529.9688,327.4063 Q1529.4844,328.1563 1529.4844,329.1875 L1529.4844,330.2813 Q1529.4844,331.5156 1530.375,332.3438 Q1531.2656,333.1563 1532.8594,333.1563 Q1533.7969,333.1563 1534.4531,332.9063 Q1534.8438,332.75 1535.2656,332.3125 Q1535.5313,332.0469 1535.6719,331.9688 Q1535.8281,331.8906 1536.0313,331.8906 Q1536.3594,331.8906 1536.6094,332.1563 Q1536.875,332.4063 1536.875,332.75 Q1536.875,333.0938 1536.5313,333.5 Q1536.0313,334.0781 1535.2344,334.4063 Q1534.1563,334.8594 1532.8594,334.8594 Q1531.3438,334.8594 1530.1406,334.2344 Q1529.1563,333.7344 1528.4688,332.6719 Q1527.7813,331.5938 1527.7813,330.3125 L1527.7813,329.1563 Q1527.7813,327.8281 1528.3906,326.6875 Q1529.0156,325.5313 1530.1094,324.9219 Q1531.2031,324.2969 1532.4375,324.2969 Q1533.1719,324.2969 1533.8125,324.4688 Q1534.4688,324.625 1535.0156,324.9844 Z " fill="#000000"/><text fill="#000000" font-family="sans-serif" font-size="14" lengthAdjust="spacing" textLength="99" x="1552.75" y="334.8379">UpdateDockDto</text><line style="stroke:#181818;stroke-width:0.5;" x1="1461.5" x2="1710.5" y1="345.1094" y2="345.1094"/><ellipse cx="1471.5" cy="359.4141" fill="none" rx="3" ry="3" style="stroke:#038048;stroke-width:1.0;"/><text fill="#000000" font-family="sans-serif" font-size="14" lengthAdjust="spacing" textLength="75" x="1480.5" y="363.6426">string Name</text><ellipse cx="1471.5" cy="377.0234" fill="none" rx="3" ry="3" style="stroke:#038048;stroke-width:1.0;"/><text fill="#000000" font-family="sans-serif" font-size="14" lengthAdjust="spacing" textLength="93" x="1480.5" y="381.252">string Location</text><ellipse cx="1471.5" cy="394.6328" fill="none" rx="3" ry="3" style="stroke:#038048;stroke-width:1.0;"/><text fill="#000000" font-family="sans-serif" font-size="14" lengthAdjust="spacing" textLength="102" x="1480.5" y="398.8613">double LengthM</text><ellipse cx="1471.5" cy="412.2422" fill="none" rx="3" ry="3" style="stroke:#038048;stroke-width:1.0;"/><text fill="#000000" font-family="sans-serif" font-size="14" lengthAdjust="spacing" textLength="96" x="1480.5" y="416.4707">double DepthM</text><ellipse cx="1471.5" cy="429.8516" fill="none" rx="3" ry="3" style="stroke:#038048;stroke-width:1.0;"/><text fill="#000000" font-family="sans-serif" font-size="14" lengthAdjust="spacing" textLength="114" x="1480.5" y="434.0801">double MaxDraftM</text><ellipse cx="1471.5" cy="447.4609" fill="none" rx="3" ry="3" style="stroke:#038048;stroke-width:1.0;"/><text fill="#000000" font-family="sans-serif" font-size="14" lengthAdjust="spacing" textLength="225" x="1480.5" y="451.6895">List&lt;string&gt;? AllowedVesselTypeIds</text><line style="stroke:#181818;stroke-width:0.5;" x1="1461.5" x2="1710.5" y1="458.7656" y2="458.7656"/></g><!--class DockResponseDto--><g id="elem_DockResponseDto"><rect codeLine="118" fill="#F1F1F1" height="188.875" id="DockResponseDto" rx="2.5" ry="2.5" style="stroke:#181818;stroke-width:0.5;" width="316" x="1747" y="295.6094"/><ellipse cx="1841.75" cy="311.6094" fill="#ADD1B2" rx="11" ry="11" style="stroke:#181818;stroke-width:1.0;"/><path d="M1844.5156,307.4844 Q1844.6719,307.2656 1844.8594,307.1563 Q1845.0469,307.0469 1845.2656,307.0469 Q1845.6406,307.0469 1845.875,307.3125 Q1846.1094,307.5625 1846.1094,308.1719 L1846.1094,309.625 Q1846.1094,310.2344 1845.875,310.5 Q1845.6406,310.7656 1845.2656,310.7656 Q1844.9219,310.7656 1844.7188,310.5625 Q1844.5156,310.375 1844.4063,309.8594 Q1844.3594,309.5 1844.1719,309.3125 Q1843.8438,308.9375 1843.2344,308.7188 Q1842.625,308.5 1842,308.5 Q1841.2344,308.5 1840.5938,308.8281 Q1839.9688,309.1563 1839.4688,309.9063 Q1838.9844,310.6563 1838.9844,311.6875 L1838.9844,312.7813 Q1838.9844,314.0156 1839.875,314.8438 Q1840.7656,315.6563 1842.3594,315.6563 Q1843.2969,315.6563 1843.9531,315.4063 Q1844.3438,315.25 1844.7656,314.8125 Q1845.0313,314.5469 1845.1719,314.4688 Q1845.3281,314.3906 1845.5313,314.3906 Q1845.8594,314.3906 1846.1094,314.6563 Q1846.375,314.9063 1846.375,315.25 Q1846.375,315.5938 1846.0313,316 Q1845.5313,316.5781 1844.7344,316.9063 Q1843.6563,317.3594 1842.3594,317.3594 Q1840.8438,317.3594 1839.6406,316.7344 Q1838.6563,316.2344 1837.9688,315.1719 Q1837.2813,314.0938 1837.2813,312.8125 L1837.2813,311.6563 Q1837.2813,310.3281 1837.8906,309.1875 Q1838.5156,308.0313 1839.6094,307.4219 Q1840.7031,306.7969 1841.9375,306.7969 Q1842.6719,306.7969 1843.3125,306.9688 Q1843.9688,307.125 1844.5156,307.4844 Z " fill="#000000"/><text fill="#000000" font-family="sans-serif" font-size="14" lengthAdjust="spacing" textLength="118" x="1862.25" y="317.3379">DockResponseDto</text><line style="stroke:#181818;stroke-width:0.5;" x1="1748" x2="2062" y1="327.6094" y2="327.6094"/><ellipse cx="1758" cy="341.9141" fill="none" rx="3" ry="3" style="stroke:#038048;stroke-width:1.0;"/><text fill="#000000" font-family="sans-serif" font-size="14" lengthAdjust="spacing" textLength="73" x="1767" y="346.1426">string Code</text><ellipse cx="1758" cy="359.5234" fill="none" rx="3" ry="3" style="stroke:#038048;stroke-width:1.0;"/><text fill="#000000" font-family="sans-serif" font-size="14" lengthAdjust="spacing" textLength="75" x="1767" y="363.752">string Name</text><ellipse cx="1758" cy="377.1328" fill="none" rx="3" ry="3" style="stroke:#038048;stroke-width:1.0;"/><text fill="#000000" font-family="sans-serif" font-size="14" lengthAdjust="spacing" textLength="93" x="1767" y="381.3613">string Location</text><ellipse cx="1758" cy="394.7422" fill="none" rx="3" ry="3" style="stroke:#038048;stroke-width:1.0;"/><text fill="#000000" font-family="sans-serif" font-size="14" lengthAdjust="spacing" textLength="102" x="1767" y="398.9707">double LengthM</text><ellipse cx="1758" cy="412.3516" fill="none" rx="3" ry="3" style="stroke:#038048;stroke-width:1.0;"/><text fill="#000000" font-family="sans-serif" font-size="14" lengthAdjust="spacing" textLength="96" x="1767" y="416.5801">double DepthM</text><ellipse cx="1758" cy="429.9609" fill="none" rx="3" ry="3" style="stroke:#038048;stroke-width:1.0;"/><text fill="#000000" font-family="sans-serif" font-size="14" lengthAdjust="spacing" textLength="114" x="1767" y="434.1895">double MaxDraftM</text><ellipse cx="1758" cy="447.5703" fill="none" rx="3" ry="3" style="stroke:#038048;stroke-width:1.0;"/><text fill="#000000" font-family="sans-serif" font-size="14" lengthAdjust="spacing" textLength="217" x="1767" y="451.7988">List&lt;string&gt; AllowedVesselTypeIds</text><ellipse cx="1758" cy="465.1797" fill="none" rx="3" ry="3" style="stroke:#038048;stroke-width:1.0;"/><text fill="#000000" font-family="sans-serif" font-size="14" lengthAdjust="spacing" textLength="290" x="1767" y="469.4082">List&lt;VesselTypeInfoDto&gt; AllowedVesselTypes</text><line style="stroke:#181818;stroke-width:0.5;" x1="1748" x2="2062" y1="476.4844" y2="476.4844"/></g><!--class VesselTypeInfoDto--><g id="elem_VesselTypeInfoDto"><rect codeLine="129" fill="#F1F1F1" height="100.8281" id="VesselTypeInfoDto" rx="2.5" ry="2.5" style="stroke:#181818;stroke-width:0.5;" width="151" x="1829.5" y="572.1094"/><ellipse cx="1844.5" cy="588.1094" fill="#ADD1B2" rx="11" ry="11" style="stroke:#181818;stroke-width:1.0;"/><path d="M1847.2656,583.9844 Q1847.4219,583.7656 1847.6094,583.6563 Q1847.7969,583.5469 1848.0156,583.5469 Q1848.3906,583.5469 1848.625,583.8125 Q1848.8594,584.0625 1848.8594,584.6719 L1848.8594,586.125 Q1848.8594,586.7344 1848.625,587 Q1848.3906,587.2656 1848.0156,587.2656 Q1847.6719,587.2656 1847.4688,587.0625 Q1847.2656,586.875 1847.1563,586.3594 Q1847.1094,586 1846.9219,585.8125 Q1846.5938,585.4375 1845.9844,585.2188 Q1845.375,585 1844.75,585 Q1843.9844,585 1843.3438,585.3281 Q1842.7188,585.6563 1842.2188,586.4063 Q1841.7344,587.1563 1841.7344,588.1875 L1841.7344,589.2813 Q1841.7344,590.5156 1842.625,591.3438 Q1843.5156,592.1563 1845.1094,592.1563 Q1846.0469,592.1563 1846.7031,591.9063 Q1847.0938,591.75 1847.5156,591.3125 Q1847.7813,591.0469 1847.9219,590.9688 Q1848.0781,590.8906 1848.2813,590.8906 Q1848.6094,590.8906 1848.8594,591.1563 Q1849.125,591.4063 1849.125,591.75 Q1849.125,592.0938 1848.7813,592.5 Q1848.2813,593.0781 1847.4844,593.4063 Q1846.4063,593.8594 1845.1094,593.8594 Q1843.5938,593.8594 1842.3906,593.2344 Q1841.4063,592.7344 1840.7188,591.6719 Q1840.0313,590.5938 1840.0313,589.3125 L1840.0313,588.1563 Q1840.0313,586.8281 1840.6406,585.6875 Q1841.2656,584.5313 1842.3594,583.9219 Q1843.4531,583.2969 1844.6875,583.2969 Q1845.4219,583.2969 1846.0625,583.4688 Q1846.7188,583.625 1847.2656,583.9844 Z " fill="#000000"/><text fill="#000000" font-family="sans-serif" font-size="14" lengthAdjust="spacing" textLength="119" x="1858.5" y="593.8379">VesselTypeInfoDto</text><line style="stroke:#181818;stroke-width:0.5;" x1="1830.5" x2="1979.5" y1="604.1094" y2="604.1094"/><ellipse cx="1840.5" cy="618.4141" fill="none" rx="3" ry="3" style="stroke:#038048;stroke-width:1.0;"/><text fill="#000000" font-family="sans-serif" font-size="14" lengthAdjust="spacing" textLength="124" x="1849.5" y="622.6426">string VesselTypeId</text><ellipse cx="1840.5" cy="636.0234" fill="none" rx="3" ry="3" style="stroke:#038048;stroke-width:1.0;"/><text fill="#000000" font-family="sans-serif" font-size="14" lengthAdjust="spacing" textLength="75" x="1849.5" y="640.252">string Name</text><ellipse cx="1840.5" cy="653.6328" fill="none" rx="3" ry="3" style="stroke:#038048;stroke-width:1.0;"/><text fill="#000000" font-family="sans-serif" font-size="14" lengthAdjust="spacing" textLength="118" x="1849.5" y="657.8613">string? Description</text><line style="stroke:#181818;stroke-width:0.5;" x1="1830.5" x2="1979.5" y1="664.9375" y2="664.9375"/></g><g id="elem_GMN32"><path d="M1175,1173.1094 L1175,1223.1094 L1139.7,1227.1094 L1175,1231.1094 L1175,1281.2188 A0,0 0 0 0 1175,1281.2188 L1441,1281.2188 A0,0 0 0 0 1441,1281.2188 L1441,1183.1094 L1431,1173.1094 L1175,1173.1094 A0,0 0 0 0 1175,1173.1094 " fill="#FEFFDD" style="stroke:#181818;stroke-width:0.5;"/><path d="M1431,1173.1094 L1431,1183.1094 L1441,1183.1094 L1431,1173.1094 " fill="#FEFFDD" style="stroke:#181818;stroke-width:0.5;"/><text fill="#000000" font-family="sans-serif" font-size="13" font-weight="bold" lengthAdjust="spacing" textLength="82" x="1181" y="1191.6045">Primary Key:</text><text fill="#000000" font-family="sans-serif" font-size="13" lengthAdjust="spacing" textLength="102" x="1267" y="1191.6045">Code (immutable)</text><text fill="#000000" font-family="sans-serif" font-size="13" font-weight="bold" lengthAdjust="spacing" textLength="98" x="1181" y="1207.9561">Business Rules:</text><text fill="#000000" font-family="sans-serif" font-size="13" lengthAdjust="spacing" textLength="245" x="1181" y="1224.3076">- Physical characteristics must be positive</text><text fill="#000000" font-family="sans-serif" font-size="13" lengthAdjust="spacing" textLength="183" x="1181" y="1240.6592">- Code is unique and uppercase</text><text fill="#000000" font-family="sans-serif" font-size="13" lengthAdjust="spacing" textLength="199" x="1181" y="1257.0107">- Can specify allowed vessel types</text><text fill="#000000" font-family="sans-serif" font-size="13" lengthAdjust="spacing" textLength="190" x="1181" y="1273.3623">- Many-to-many with VesselType</text></g><g id="elem_GMN35"><path d="M126,576.6094 L126,668.3672 A0,0 0 0 0 126,668.3672 L402,668.3672 A0,0 0 0 0 402,668.3672 L402,586.6094 L392,576.6094 L273.67,576.6094 L282.37,475.6294 L265.67,576.6094 L126,576.6094 A0,0 0 0 0 126,576.6094 " fill="#FEFFDD" style="stroke:#181818;stroke-width:0.5;"/><path d="M392,576.6094 L392,586.6094 L402,586.6094 L392,576.6094 " fill="#FEFFDD" style="stroke:#181818;stroke-width:0.5;"/><text fill="#000000" font-family="sans-serif" font-size="13" font-weight="bold" lengthAdjust="spacing" textLength="128" x="132" y="595.1045">Search Capabilities:</text><text fill="#000000" font-family="sans-serif" font-size="13" lengthAdjust="spacing" textLength="221" x="132" y="611.4561">- By name (contains, case-insensitive)</text><text fill="#000000" font-family="sans-serif" font-size="13" lengthAdjust="spacing" textLength="134" x="132" y="627.8076">- By location (contains)</text><text fill="#000000" font-family="sans-serif" font-size="13" lengthAdjust="spacing" textLength="255" x="132" y="644.1592">- By vessel type ID (in AllowedVesselTypes)</text><text fill="#000000" font-family="sans-serif" font-size="13" lengthAdjust="spacing" textLength="232" x="132" y="660.5107">- Supports eager loading of relationships</text></g><!--reverse link VesselType to Dock--><g id="link_VesselType_Dock"><path codeLine="136" d="M818.0504,1013.2647 C815.0104,1023.2047 815.92,1021.7594 814,1031.6094 C811,1047.0194 809.19,1063.2594 808.24,1079.4994 " fill="none" id="VesselType-backto-Dock" style="stroke:#181818;stroke-width:1.0;"/><polygon fill="none" points="821.56,1001.7894,815.9801,1006.3572,818.0504,1013.2647,823.6303,1008.6969,821.56,1001.7894" style="stroke:#181818;stroke-width:1.0;"/><text fill="#000000" font-family="sans-serif" font-size="13" lengthAdjust="spacing" textLength="214" x="815" y="1046.1045">AllowedDocks / AllowedVesselTypes</text><text fill="#000000" font-family="sans-serif" font-size="13" lengthAdjust="spacing" textLength="20" x="797.5664" y="1023.3677">0..*</text><text fill="#000000" font-family="sans-serif" font-size="13" lengthAdjust="spacing" textLength="20" x="787.2727" y="1068.992">0..*</text></g><!--reverse link StorageArea to Dock--><g id="link_StorageArea_Dock"><path codeLine="137" d="M619.7019,996.1884 C621.3019,1018.4084 624.78,1029.4994 634,1049.6094 C638.69,1059.8394 644.27,1069.7894 650.5,1079.3994 " fill="none" id="StorageArea-backto-Dock" style="stroke:#181818;stroke-width:1.0;"/><polygon fill="none" points="618.84,984.2194,615.2813,990.4912,619.7019,996.1884,623.2606,989.9166,618.84,984.2194" style="stroke:#181818;stroke-width:1.0;"/><text fill="#000000" font-family="sans-serif" font-size="13" lengthAdjust="spacing" textLength="167" x="635" y="1046.1045">Docks / ServedStorageAreas</text><text fill="#000000" font-family="sans-serif" font-size="13" lengthAdjust="spacing" textLength="20" x="597.6028" y="1005.5888">0..*</text><text fill="#000000" font-family="sans-serif" font-size="13" lengthAdjust="spacing" textLength="20" x="621.3992" y="1068.8868">0..*</text></g><!--link DockStorageDistance to Dock--><g id="link_DockStorageDistance_Dock"><path codeLine="138" d="M466.23,699.7794 C449.04,723.0994 433,749.9394 424,777.6094 C393.21,872.2894 374.02,915.5094 424,1001.6094 C442.14,1032.8694 461.9032,1056.2461 489.5832,1079.9561 " fill="none" id="DockStorageDistance-to-Dock" style="stroke:#181818;stroke-width:1.0;"/><polygon fill="#181818" points="494.14,1083.8594,489.9069,1074.9666,490.3427,1080.6067,484.7026,1081.0424,494.14,1083.8594" style="stroke:#181818;stroke-width:1.0;"/><text fill="#000000" font-family="sans-serif" font-size="13" lengthAdjust="spacing" textLength="86" x="425" y="895.1045">measures from</text><text fill="#000000" font-family="sans-serif" font-size="13" lengthAdjust="spacing" textLength="7" x="452.7044" y="720.8909">1</text><text fill="#000000" font-family="sans-serif" font-size="13" lengthAdjust="spacing" textLength="7" x="479.4909" y="1077.8192">1</text></g><!--link DockStorageDistance to StorageArea--><g id="link_DockStorageDistance_StorageArea"><path codeLine="139" d="M561.62,699.8994 C571.59,729.5694 581.1911,758.1511 591.6411,789.2911 " fill="none" id="DockStorageDistance-to-StorageArea" style="stroke:#181818;stroke-width:1.0;"/><polygon fill="#181818" points="593.55,794.9794,594.4789,785.1744,591.9593,790.2392,586.8945,787.7196,593.55,794.9794" style="stroke:#181818;stroke-width:1.0;"/><text fill="#000000" font-family="sans-serif" font-size="13" lengthAdjust="spacing" textLength="72" x="577" y="744.1045">measures to</text><text fill="#000000" font-family="sans-serif" font-size="13" lengthAdjust="spacing" textLength="7" x="556.5209" y="720.754">1</text><text fill="#000000" font-family="sans-serif" font-size="13" lengthAdjust="spacing" textLength="7" x="583.7649" y="784.3152">1</text></g><!--link PortDbContext to Dock--><g id="link_PortDbContext_Dock"><path codeLine="141" d="M944.5,690.9794 C967.28,715.9294 990.04,745.9294 1004,777.6094 C1053.03,888.9094 1086.24,939.7794 1034,1049.6094 C1029.05,1060.0294 1026.5569,1065.0973 1019.9269,1074.6673 " fill="none" id="PortDbContext-to-Dock" style="stroke:#181818;stroke-width:1.0;"/><polygon fill="#181818" points="1016.51,1079.5994,1024.9233,1074.4792,1019.3574,1075.4893,1018.3473,1069.9234,1016.51,1079.5994" style="stroke:#181818;stroke-width:1.0;"/></g><!--link PortDbContext to VesselType--><g id="link_PortDbContext_VesselType"><path codeLine="142" d="M871,690.8194 C871,717.1194 871,741.9894 871,771.4194 " fill="none" id="PortDbContext-to-VesselType" style="stroke:#181818;stroke-width:1.0;"/><polygon fill="#181818" points="871,777.4194,875,768.4194,871,772.4194,867,768.4194,871,777.4194" style="stroke:#181818;stroke-width:1.0;"/></g><!--link PortDbContext to StorageArea--><g id="link_PortDbContext_StorageArea"><path codeLine="143" d="M808.61,690.8194 C779.28,722.4094 747.9123,756.2022 716.0123,790.5622 " fill="none" id="PortDbContext-to-StorageArea" style="stroke:#181818;stroke-width:1.0;"/><polygon fill="#181818" points="711.93,794.9594,720.9849,791.0852,715.3319,791.2951,715.1221,785.6421,711.93,794.9594" style="stroke:#181818;stroke-width:1.0;"/></g><!--link DockRepository to PortDbContext--><g id="link_DockRepository_PortDbContext"><path codeLine="145" d="M504.94,475.6294 C570.19,501.6494 635.507,527.6963 697.377,552.3763 " fill="none" id="DockRepository-to-PortDbContext" style="stroke:#181818;stroke-width:1.0;"/><polygon fill="#181818" points="702.95,554.5994,696.0726,547.5495,698.3059,552.7468,693.1085,554.9801,702.95,554.5994" style="stroke:#181818;stroke-width:1.0;"/></g><!--link VesselTypeRepository to PortDbContext--><g id="link_VesselTypeRepository_PortDbContext"><path codeLine="146" d="M847.47,440.8394 C851.8,474.0594 856.7552,512.1996 861.4852,548.5196 " fill="none" id="VesselTypeRepository-to-PortDbContext" style="stroke:#181818;stroke-width:1.0;"/><polygon fill="#181818" points="862.26,554.4694,865.0642,545.0282,861.6143,549.5112,857.1312,546.0613,862.26,554.4694" style="stroke:#181818;stroke-width:1.0;"/></g><!--link DockConfiguration to Dock--><g id="link_DockConfiguration_Dock"><path codeLine="147" d="M1229.13,922.8094 C1193.61,955.9794 1135.6,1008.5094 1082,1049.6094 C1069.06,1059.5294 1060.4473,1066.0008 1046.7273,1075.8908 " fill="none" id="DockConfiguration-to-Dock" style="stroke:#181818;stroke-width:1.0;"/><polygon fill="#181818" points="1041.86,1079.3994,1051.4999,1077.3814,1045.916,1076.4756,1046.8219,1070.8917,1041.86,1079.3994" style="stroke:#181818;stroke-width:1.0;"/></g><!--link DocksController to DockRepository--><g id="link_DocksController_DockRepository"><path codeLine="149" d="M940.2,205.7294 C832.76,232.3194 708.2,264.1994 596,295.6094 C585.66,298.4994 580.905,299.8367 570.295,302.8967 " fill="none" id="DocksController-to-DockRepository" style="stroke:#181818;stroke-width:1.0;"/><polygon fill="#181818" points="564.53,304.5594,574.286,305.9087,569.3342,303.1738,572.0691,298.222,564.53,304.5594" style="stroke:#181818;stroke-width:1.0;"/></g><!--link DocksController to VesselTypeRepository--><g id="link_DocksController_VesselTypeRepository"><path codeLine="150" d="M1070.76,234.6894 C1017.77,270.2994 964.4494,306.1319 919.8394,336.1219 " fill="none" id="DocksController-to-VesselTypeRepository" style="stroke:#181818;stroke-width:1.0;"/><polygon fill="#181818" points="914.86,339.4694,924.5607,337.7677,919.0095,336.6798,920.0974,331.1285,914.86,339.4694" style="stroke:#181818;stroke-width:1.0;"/></g><!--link DocksController to PortDbContext--><g id="link_DocksController_PortDbContext"><path codeLine="151" d="M1177.85,234.8194 C1143.92,332.9594 1094.22,474.3394 1086,484.6094 C1064.29,511.7394 1040.682,531.7958 1011.442,551.1658 " fill="none" id="DocksController-to-PortDbContext" style="stroke:#181818;stroke-width:1.0;"/><polygon fill="#181818" points="1006.44,554.4794,1016.1521,552.8437,1010.6083,551.7181,1011.734,546.1743,1006.44,554.4794" style="stroke:#181818;stroke-width:1.0;"/></g><!--link DocksController to CreateDockDto--><g id="link_DocksController_CreateDockDto"><path codeLine="152" d="M1244.03,234.8694 C1252.34,257.7694 1259.1318,276.5098 1267.2818,298.9498 " fill="none" id="DocksController-to-CreateDockDto" style="stroke:#181818;stroke-width:1.0;stroke-dasharray:7.0,7.0;"/><polygon fill="#181818" points="1269.33,304.5894,1270.0174,294.7645,1267.6231,299.8897,1262.4979,297.4955,1269.33,304.5894" style="stroke:#181818;stroke-width:1.0;"/></g><!--link DocksController to UpdateDockDto--><g id="link_DocksController_UpdateDockDto"><path codeLine="153" d="M1351.88,234.6894 C1391.1,260.5594 1428.1713,285.0059 1465.6813,309.7459 " fill="none" id="DocksController-to-UpdateDockDto" style="stroke:#181818;stroke-width:1.0;stroke-dasharray:7.0,7.0;"/><polygon fill="#181818" points="1470.69,313.0494,1465.3793,304.755,1466.5161,310.2965,1460.9746,311.4332,1470.69,313.0494" style="stroke:#181818;stroke-width:1.0;"/></g><!--link DocksController to DockResponseDto--><g id="link_DocksController_DockResponseDto"><path codeLine="154" d="M1479.56,210.3094 C1560.89,234.1194 1649.62,263.0894 1729,295.6094 C1734.92,298.0394 1735.4268,298.1634 1741.4368,300.8334 " fill="none" id="DocksController-to-DockResponseDto" style="stroke:#181818;stroke-width:1.0;stroke-dasharray:7.0,7.0;"/><polygon fill="#181818" points="1746.92,303.2694,1740.3191,295.9599,1742.3506,301.2394,1737.0711,303.2709,1746.92,303.2694" style="stroke:#181818;stroke-width:1.0;"/></g><!--link DockResponseDto to VesselTypeInfoDto--><g id="link_DockResponseDto_VesselTypeInfoDto"><path codeLine="156" d="M1905,484.8594 C1905,514.6494 1905,540.4294 1905,565.8394 " fill="none" id="DockResponseDto-to-VesselTypeInfoDto" style="stroke:#181818;stroke-width:1.0;"/><polygon fill="#181818" points="1905,571.8394,1909,562.8394,1905,566.8394,1901,562.8394,1905,571.8394" style="stroke:#181818;stroke-width:1.0;"/></g><!--SRC=[pLTRRzis57xNho0oO7Eysjkwjw2puTZ1O2nP2jlfQq1Jj4rK8bMISY8K- -yxl4WYRIOji0Ah7sppt7JEuNS-KfhfWg9vWPL22uRt4fTeX1xMwEtuxVXtjA9xfZILw4VqKELOKxGGvAFAif_G7-O3on8pxXOPSM700dtE4FePAIqPtwEvo6cu_XkNqVfM4AoPu5QMYteBATrIljU7kr2qeDM9v0u_BoJUQITSpaLHK68YlVj0bQB5fgde1CsAGZpHl1UfC_Er5XBlwKnIF45hAeyq3qJdzdTYomfwywbcLKcvdg0JWVDORzPpYJcTehLMzX-8HoEhCrqQ-Fe9zETDsmmEpUaMXU_CcxRYmhMbM-Us9zsoR1joQH_YzcpmRIEZAtGKB7SLKdtUtS7oXjSbbHZyeequzZPHb3dcCq94MGgJRk_H9jxxBNFZk1MYoFx9FDvw-nXr7mAlLz0t1Lmf8bdL8P1nFOMSAaoORZOt3xqGyBOIJoeINECc5cmObIfwm7q5pJ3XSJ4N7AGmCbgzWDc9J_nSRo3JeTdDOTU40Arn5mB5gss8Xn3oCwKace3cjPI0y7j2wWfpqkdCfhZHKP2YIyz2f4_0xf7vUg6qavhCqdilW8NWOUqEcpmIMb-WrNhH7TNnRbY_Zf3COcg_N-zP89c62vDiIuLBlfCO8jH4rv96bFXUIBtOmjvh-gnz3Oij34zKU2yDX-QKjfn5J5WnLNc6YHuwwFxTMw2hTv5wWeGJ6zxu0TtpE-XGCOU06XeoiAlhcXKv70LbiEZ6EDgq5Qs4Of1Kuslza-hhnZHzfXfEOjgpk66S57KUZBubY0rM7ss7ffCs343BnVYIsoq0m7LtufaAIt88dp-D274QC68hEUMTPE2RPn2eiy8wUvEeivpbkJEp9sGENwrHIDQHigF85It5CQLCq62w_Siyof7r5VMUVP-DlIygP7FdF07laqu7Y7snBS4ZNLCYq00ITsnVEwBqYRSoEhZXsl0GnFV8yvEp3HlHJg81jJJa8jNPpKJrIlkGqIbY7tE_jifaLn-FaTGQnYF-IFHpFuaEj_yDTikPPSeLLNMX9_5K9N6NSB3pJ0VknvIzq0BbMhpc4ryXtCWwsLS6MD22wgzACTZ1nUO-theuv__ZTcbXxl4_FRzJmhZqU8uRzFaxoyu1NbL0z_Hxw6OwtSug4FETW8IJD_e43thpRt0h392veeMjNnrOrK8qk85U_3eU3o-G68tQlvQohw9h6_ebLK5uXNinJEkVU4T9NPSkVhi04fhONn-X15jWL8LsKfHVT0gJ2doroBAOyOo3lKUTY_iY4yhmCfMTKB7HHnvPaexFpSxFaowzxFGGQ3LzmAH9wib9m_DCGelnU19pMT8Yue-anSaCjwthXphEsOz2bd41x_2IxGyQYPtho73uNh8IGoF_eitLS6Wf00rOMTRQ7FgNO75TAyOX6bhL1LLWbC69TsWK8xX0v80b9d3F1W0neb1PAuss5DasiIC5MnkIALHpzgcc2FCSrHMy5H6ih1fpf2fAsAv1s4s6FmMHjhCn0lhWpKYBKGc_w8dfGmWh2l5CPRw-hT1Qb6s1mNuDX-uQQD_ku8KTqckhkMxikOm611eDxsVg3JB9ZU0VvQwEIsVM7jYzgLS46QFb0Zh84sDkRDTGEw148Gh8bn0GvuQ285yPiajVrhy0]--></g></svg>