<?xml version="1.0" encoding="us-ascii" standalone="no"?><svg xmlns="http://www.w3.org/2000/svg" xmlns:xlink="http://www.w3.org/1999/xlink" contentStyleType="text/css" height="687px" preserveAspectRatio="none" style="width:1043px;height:687px;background:#FFFFFF;" version="1.1" viewBox="0 0 1043 687" width="1043px" zoomAndPan="magnify"><defs/><g><text fill="#000000" font-family="sans-serif" font-size="14" font-weight="bold" lengthAdjust="spacing" textLength="357" x="336.235" y="24.5332">Domain Model - US 2.2.3 (Register &amp; Update Docks)</text><!--class Dock--><g id="elem_Dock"><rect codeLine="3" fill="#F1F1F1" height="224.0938" id="Dock" rx="2.5" ry="2.5" style="stroke:#181818;stroke-width:0.5;" width="645" x="7" y="189.6094"/><ellipse cx="309.25" cy="205.6094" fill="#ADD1B2" rx="11" ry="11" style="stroke:#181818;stroke-width:1.0;"/><path d="M312.0156,201.4844 Q312.1719,201.2656 312.3594,201.1563 Q312.5469,201.0469 312.7656,201.0469 Q313.1406,201.0469 313.375,201.3125 Q313.6094,201.5625 313.6094,202.1719 L313.6094,203.625 Q313.6094,204.2344 313.375,204.5 Q313.1406,204.7656 312.7656,204.7656 Q312.4219,204.7656 312.2188,204.5625 Q312.0156,204.375 311.9063,203.8594 Q311.8594,203.5 311.6719,203.3125 Q311.3438,202.9375 310.7344,202.7188 Q310.125,202.5 309.5,202.5 Q308.7344,202.5 308.0938,202.8281 Q307.4688,203.1563 306.9688,203.9063 Q306.4844,204.6563 306.4844,205.6875 L306.4844,206.7813 Q306.4844,208.0156 307.375,208.8438 Q308.2656,209.6563 309.8594,209.6563 Q310.7969,209.6563 311.4531,209.4063 Q311.8438,209.25 312.2656,208.8125 Q312.5313,208.5469 312.6719,208.4688 Q312.8281,208.3906 313.0313,208.3906 Q313.3594,208.3906 313.6094,208.6563 Q313.875,208.9063 313.875,209.25 Q313.875,209.5938 313.5313,210 Q313.0313,210.5781 312.2344,210.9063 Q311.1563,211.3594 309.8594,211.3594 Q308.3438,211.3594 307.1406,210.7344 Q306.1563,210.2344 305.4688,209.1719 Q304.7813,208.0938 304.7813,206.8125 L304.7813,205.6563 Q304.7813,204.3281 305.3906,203.1875 Q306.0156,202.0313 307.1094,201.4219 Q308.2031,200.7969 309.4375,200.7969 Q310.1719,200.7969 310.8125,200.9688 Q311.4688,201.125 312.0156,201.4844 Z " fill="#000000"/><text fill="#000000" font-family="sans-serif" font-size="14" lengthAdjust="spacing" textLength="32" x="329.75" y="211.3379">Dock</text><line style="stroke:#181818;stroke-width:0.5;" x1="8" x2="651" y1="221.6094" y2="221.6094"/><ellipse cx="18" cy="235.9141" fill="none" rx="3" ry="3" style="stroke:#038048;stroke-width:1.0;"/><text fill="#000000" font-family="sans-serif" font-size="14" lengthAdjust="spacing" textLength="81" x="27" y="240.1426">Code : string</text><ellipse cx="18" cy="253.5234" fill="none" rx="3" ry="3" style="stroke:#038048;stroke-width:1.0;"/><text fill="#000000" font-family="sans-serif" font-size="14" lengthAdjust="spacing" textLength="83" x="27" y="257.752">Name : string</text><ellipse cx="18" cy="271.1328" fill="none" rx="3" ry="3" style="stroke:#038048;stroke-width:1.0;"/><text fill="#000000" font-family="sans-serif" font-size="14" lengthAdjust="spacing" textLength="101" x="27" y="275.3613">Location : string</text><ellipse cx="18" cy="288.7422" fill="none" rx="3" ry="3" style="stroke:#038048;stroke-width:1.0;"/><text fill="#000000" font-family="sans-serif" font-size="14" lengthAdjust="spacing" textLength="110" x="27" y="292.9707">LengthM : double</text><ellipse cx="18" cy="306.3516" fill="none" rx="3" ry="3" style="stroke:#038048;stroke-width:1.0;"/><text fill="#000000" font-family="sans-serif" font-size="14" lengthAdjust="spacing" textLength="104" x="27" y="310.5801">DepthM : double</text><ellipse cx="18" cy="323.9609" fill="none" rx="3" ry="3" style="stroke:#038048;stroke-width:1.0;"/><text fill="#000000" font-family="sans-serif" font-size="14" lengthAdjust="spacing" textLength="122" x="27" y="328.1895">MaxDraftM : double</text><line style="stroke:#181818;stroke-width:1.0;" x1="8" x2="651" y1="335.2656" y2="335.2656"/><ellipse cx="18" cy="349.5703" fill="#84BE84" rx="3" ry="3" style="stroke:#038048;stroke-width:1.0;"/><text fill="#000000" font-family="sans-serif" font-size="14" lengthAdjust="spacing" textLength="619" x="27" y="353.7988">Dock(code:string, name:string, location:string, lengthM:double, depthM:double, maxDraftM:double)</text><ellipse cx="18" cy="367.1797" fill="#84BE84" rx="3" ry="3" style="stroke:#038048;stroke-width:1.0;"/><text fill="#000000" font-family="sans-serif" font-size="14" lengthAdjust="spacing" textLength="592" x="27" y="371.4082">Update(name:string, location:string, lengthM:double, depthM:double, maxDraftM:double) : void</text><ellipse cx="18" cy="384.7891" fill="#84BE84" rx="3" ry="3" style="stroke:#038048;stroke-width:1.0;"/><text fill="#000000" font-family="sans-serif" font-size="14" lengthAdjust="spacing" textLength="450" x="27" y="389.0176">SetAllowedVesselTypes(vesselTypes:IEnumerable&lt;VesselType&gt;) : void</text><ellipse cx="18" cy="402.3984" fill="#84BE84" rx="3" ry="3" style="stroke:#038048;stroke-width:1.0;"/><text fill="#000000" font-family="sans-serif" font-size="14" lengthAdjust="spacing" textLength="360" x="27" y="406.627">CanAccommodateVesselType(vesselTypeId:string) : bool</text></g><!--class VesselType--><g id="elem_VesselType"><rect codeLine="17" fill="#F1F1F1" height="188.875" id="VesselType" rx="2.5" ry="2.5" style="stroke:#181818;stroke-width:0.5;" width="219" x="220" y="491.6094"/><ellipse cx="288.25" cy="507.6094" fill="#ADD1B2" rx="11" ry="11" style="stroke:#181818;stroke-width:1.0;"/><path d="M291.0156,503.4844 Q291.1719,503.2656 291.3594,503.1563 Q291.5469,503.0469 291.7656,503.0469 Q292.1406,503.0469 292.375,503.3125 Q292.6094,503.5625 292.6094,504.1719 L292.6094,505.625 Q292.6094,506.2344 292.375,506.5 Q292.1406,506.7656 291.7656,506.7656 Q291.4219,506.7656 291.2188,506.5625 Q291.0156,506.375 290.9063,505.8594 Q290.8594,505.5 290.6719,505.3125 Q290.3438,504.9375 289.7344,504.7188 Q289.125,504.5 288.5,504.5 Q287.7344,504.5 287.0938,504.8281 Q286.4688,505.1563 285.9688,505.9063 Q285.4844,506.6563 285.4844,507.6875 L285.4844,508.7813 Q285.4844,510.0156 286.375,510.8438 Q287.2656,511.6563 288.8594,511.6563 Q289.7969,511.6563 290.4531,511.4063 Q290.8438,511.25 291.2656,510.8125 Q291.5313,510.5469 291.6719,510.4688 Q291.8281,510.3906 292.0313,510.3906 Q292.3594,510.3906 292.6094,510.6563 Q292.875,510.9063 292.875,511.25 Q292.875,511.5938 292.5313,512 Q292.0313,512.5781 291.2344,512.9063 Q290.1563,513.3594 288.8594,513.3594 Q287.3438,513.3594 286.1406,512.7344 Q285.1563,512.2344 284.4688,511.1719 Q283.7813,510.0938 283.7813,508.8125 L283.7813,507.6563 Q283.7813,506.3281 284.3906,505.1875 Q285.0156,504.0313 286.1094,503.4219 Q287.2031,502.7969 288.4375,502.7969 Q289.1719,502.7969 289.8125,502.9688 Q290.4688,503.125 291.0156,503.4844 Z " fill="#000000"/><text fill="#000000" font-family="sans-serif" font-size="14" lengthAdjust="spacing" textLength="74" x="308.75" y="513.3379">VesselType</text><line style="stroke:#181818;stroke-width:0.5;" x1="221" x2="438" y1="523.6094" y2="523.6094"/><ellipse cx="231" cy="537.9141" fill="none" rx="3" ry="3" style="stroke:#038048;stroke-width:1.0;"/><text fill="#000000" font-family="sans-serif" font-size="14" lengthAdjust="spacing" textLength="132" x="240" y="542.1426">VesselTypeId : string</text><ellipse cx="231" cy="555.5234" fill="none" rx="3" ry="3" style="stroke:#038048;stroke-width:1.0;"/><text fill="#000000" font-family="sans-serif" font-size="14" lengthAdjust="spacing" textLength="83" x="240" y="559.752">Name : string</text><ellipse cx="231" cy="573.1328" fill="none" rx="3" ry="3" style="stroke:#038048;stroke-width:1.0;"/><text fill="#000000" font-family="sans-serif" font-size="14" lengthAdjust="spacing" textLength="118" x="240" y="577.3613">Description : string</text><ellipse cx="231" cy="590.7422" fill="none" rx="3" ry="3" style="stroke:#038048;stroke-width:1.0;"/><text fill="#000000" font-family="sans-serif" font-size="14" lengthAdjust="spacing" textLength="109" x="240" y="594.9707">CapacityTEU : int</text><ellipse cx="231" cy="608.3516" fill="none" rx="3" ry="3" style="stroke:#038048;stroke-width:1.0;"/><text fill="#000000" font-family="sans-serif" font-size="14" lengthAdjust="spacing" textLength="86" x="240" y="612.5801">MaxRows : int</text><ellipse cx="231" cy="625.9609" fill="none" rx="3" ry="3" style="stroke:#038048;stroke-width:1.0;"/><text fill="#000000" font-family="sans-serif" font-size="14" lengthAdjust="spacing" textLength="83" x="240" y="630.1895">MaxBays : int</text><ellipse cx="231" cy="643.5703" fill="none" rx="3" ry="3" style="stroke:#038048;stroke-width:1.0;"/><text fill="#000000" font-family="sans-serif" font-size="14" lengthAdjust="spacing" textLength="84" x="240" y="647.7988">MaxTiers : int</text><ellipse cx="231" cy="661.1797" fill="none" rx="3" ry="3" style="stroke:#038048;stroke-width:1.0;"/><text fill="#000000" font-family="sans-serif" font-size="14" lengthAdjust="spacing" textLength="193" x="240" y="665.4082">OperationalConstraints : string</text><line style="stroke:#181818;stroke-width:0.5;" x1="221" x2="438" y1="672.4844" y2="672.4844"/></g><!--class StorageArea--><g id="elem_StorageArea"><rect codeLine="28" fill="#F1F1F1" height="171.2656" id="StorageArea" rx="2.5" ry="2.5" style="stroke:#181818;stroke-width:0.5;" width="199" x="771" y="500.6094"/><ellipse cx="826.25" cy="516.6094" fill="#ADD1B2" rx="11" ry="11" style="stroke:#181818;stroke-width:1.0;"/><path d="M829.0156,512.4844 Q829.1719,512.2656 829.3594,512.1563 Q829.5469,512.0469 829.7656,512.0469 Q830.1406,512.0469 830.375,512.3125 Q830.6094,512.5625 830.6094,513.1719 L830.6094,514.625 Q830.6094,515.2344 830.375,515.5 Q830.1406,515.7656 829.7656,515.7656 Q829.4219,515.7656 829.2188,515.5625 Q829.0156,515.375 828.9063,514.8594 Q828.8594,514.5 828.6719,514.3125 Q828.3438,513.9375 827.7344,513.7188 Q827.125,513.5 826.5,513.5 Q825.7344,513.5 825.0938,513.8281 Q824.4688,514.1563 823.9688,514.9063 Q823.4844,515.6563 823.4844,516.6875 L823.4844,517.7813 Q823.4844,519.0156 824.375,519.8438 Q825.2656,520.6563 826.8594,520.6563 Q827.7969,520.6563 828.4531,520.4063 Q828.8438,520.25 829.2656,519.8125 Q829.5313,519.5469 829.6719,519.4688 Q829.8281,519.3906 830.0313,519.3906 Q830.3594,519.3906 830.6094,519.6563 Q830.875,519.9063 830.875,520.25 Q830.875,520.5938 830.5313,521 Q830.0313,521.5781 829.2344,521.9063 Q828.1563,522.3594 826.8594,522.3594 Q825.3438,522.3594 824.1406,521.7344 Q823.1563,521.2344 822.4688,520.1719 Q821.7813,519.0938 821.7813,517.8125 L821.7813,516.6563 Q821.7813,515.3281 822.3906,514.1875 Q823.0156,513.0313 824.1094,512.4219 Q825.2031,511.7969 826.4375,511.7969 Q827.1719,511.7969 827.8125,511.9688 Q828.4688,512.125 829.0156,512.4844 Z " fill="#000000"/><text fill="#000000" font-family="sans-serif" font-size="14" lengthAdjust="spacing" textLength="80" x="846.75" y="522.3379">StorageArea</text><line style="stroke:#181818;stroke-width:0.5;" x1="772" x2="969" y1="532.6094" y2="532.6094"/><ellipse cx="782" cy="546.9141" fill="none" rx="3" ry="3" style="stroke:#038048;stroke-width:1.0;"/><text fill="#000000" font-family="sans-serif" font-size="14" lengthAdjust="spacing" textLength="138" x="791" y="551.1426">StorageAreaId : string</text><ellipse cx="782" cy="564.5234" fill="none" rx="3" ry="3" style="stroke:#038048;stroke-width:1.0;"/><text fill="#000000" font-family="sans-serif" font-size="14" lengthAdjust="spacing" textLength="83" x="791" y="568.752">Name : string</text><ellipse cx="782" cy="582.1328" fill="none" rx="3" ry="3" style="stroke:#038048;stroke-width:1.0;"/><text fill="#000000" font-family="sans-serif" font-size="14" lengthAdjust="spacing" textLength="101" x="791" y="586.3613">Location : string</text><ellipse cx="782" cy="599.7422" fill="none" rx="3" ry="3" style="stroke:#038048;stroke-width:1.0;"/><text fill="#000000" font-family="sans-serif" font-size="14" lengthAdjust="spacing" textLength="134" x="791" y="603.9707">MaxCapacityTEU : int</text><ellipse cx="782" cy="617.3516" fill="none" rx="3" ry="3" style="stroke:#038048;stroke-width:1.0;"/><text fill="#000000" font-family="sans-serif" font-size="14" lengthAdjust="spacing" textLength="173" x="791" y="621.5801">CurrentOccupancyTEU : int</text><ellipse cx="782" cy="634.9609" fill="none" rx="3" ry="3" style="stroke:#038048;stroke-width:1.0;"/><text fill="#000000" font-family="sans-serif" font-size="14" lengthAdjust="spacing" textLength="137" x="791" y="639.1895">ServesAllDocks : bool</text><ellipse cx="782" cy="652.5703" fill="none" rx="3" ry="3" style="stroke:#038048;stroke-width:1.0;"/><text fill="#000000" font-family="sans-serif" font-size="14" lengthAdjust="spacing" textLength="156" x="791" y="656.7988">Type : StorageAreaType</text><line style="stroke:#181818;stroke-width:0.5;" x1="772" x2="969" y1="663.875" y2="663.875"/></g><!--class DockStorageDistance--><g id="elem_DockStorageDistance"><rect codeLine="38" fill="#F1F1F1" height="65.6094" id="DockStorageDistance" rx="2.5" ry="2.5" style="stroke:#181818;stroke-width:0.5;" width="169" x="592" y="45.6094"/><ellipse cx="607" cy="61.6094" fill="#ADD1B2" rx="11" ry="11" style="stroke:#181818;stroke-width:1.0;"/><path d="M609.7656,57.4844 Q609.9219,57.2656 610.1094,57.1563 Q610.2969,57.0469 610.5156,57.0469 Q610.8906,57.0469 611.125,57.3125 Q611.3594,57.5625 611.3594,58.1719 L611.3594,59.625 Q611.3594,60.2344 611.125,60.5 Q610.8906,60.7656 610.5156,60.7656 Q610.1719,60.7656 609.9688,60.5625 Q609.7656,60.375 609.6563,59.8594 Q609.6094,59.5 609.4219,59.3125 Q609.0938,58.9375 608.4844,58.7188 Q607.875,58.5 607.25,58.5 Q606.4844,58.5 605.8438,58.8281 Q605.2188,59.1563 604.7188,59.9063 Q604.2344,60.6563 604.2344,61.6875 L604.2344,62.7813 Q604.2344,64.0156 605.125,64.8438 Q606.0156,65.6563 607.6094,65.6563 Q608.5469,65.6563 609.2031,65.4063 Q609.5938,65.25 610.0156,64.8125 Q610.2813,64.5469 610.4219,64.4688 Q610.5781,64.3906 610.7813,64.3906 Q611.1094,64.3906 611.3594,64.6563 Q611.625,64.9063 611.625,65.25 Q611.625,65.5938 611.2813,66 Q610.7813,66.5781 609.9844,66.9063 Q608.9063,67.3594 607.6094,67.3594 Q606.0938,67.3594 604.8906,66.7344 Q603.9063,66.2344 603.2188,65.1719 Q602.5313,64.0938 602.5313,62.8125 L602.5313,61.6563 Q602.5313,60.3281 603.1406,59.1875 Q603.7656,58.0313 604.8594,57.4219 Q605.9531,56.7969 607.1875,56.7969 Q607.9219,56.7969 608.5625,56.9688 Q609.2188,57.125 609.7656,57.4844 Z " fill="#000000"/><text fill="#000000" font-family="sans-serif" font-size="14" lengthAdjust="spacing" textLength="137" x="621" y="67.3379">DockStorageDistance</text><line style="stroke:#181818;stroke-width:0.5;" x1="593" x2="760" y1="77.6094" y2="77.6094"/><ellipse cx="603" cy="91.9141" fill="none" rx="3" ry="3" style="stroke:#038048;stroke-width:1.0;"/><text fill="#000000" font-family="sans-serif" font-size="14" lengthAdjust="spacing" textLength="125" x="612" y="96.1426">DistanceMeters : int</text><line style="stroke:#181818;stroke-width:0.5;" x1="593" x2="760" y1="103.2188" y2="103.2188"/></g><g id="elem_GMN10"><path d="M687.5,255.6094 L687.5,297.6094 L652.2,301.6094 L687.5,305.6094 L687.5,347.3672 A0,0 0 0 0 687.5,347.3672 L953.5,347.3672 A0,0 0 0 0 953.5,347.3672 L953.5,265.6094 L943.5,255.6094 L687.5,255.6094 A0,0 0 0 0 687.5,255.6094 " fill="#FEFFDD" style="stroke:#181818;stroke-width:0.5;"/><path d="M943.5,255.6094 L943.5,265.6094 L953.5,265.6094 L943.5,255.6094 " fill="#FEFFDD" style="stroke:#181818;stroke-width:0.5;"/><text fill="#000000" font-family="sans-serif" font-size="13" font-weight="bold" lengthAdjust="spacing" textLength="82" x="693.5" y="274.1045">Primary Key:</text><text fill="#000000" font-family="sans-serif" font-size="13" lengthAdjust="spacing" textLength="102" x="779.5" y="274.1045">Code (immutable)</text><text fill="#000000" font-family="sans-serif" font-size="13" font-weight="bold" lengthAdjust="spacing" textLength="98" x="693.5" y="290.4561">Business Rules:</text><text fill="#000000" font-family="sans-serif" font-size="13" lengthAdjust="spacing" textLength="245" x="693.5" y="306.8076">- Physical characteristics must be positive</text><text fill="#000000" font-family="sans-serif" font-size="13" lengthAdjust="spacing" textLength="183" x="693.5" y="323.1592">- Code is unique and uppercase</text><text fill="#000000" font-family="sans-serif" font-size="13" lengthAdjust="spacing" textLength="199" x="693.5" y="339.5107">- Can specify allowed vessel types</text></g><!--link Dock to VesselType--><g id="link_Dock_VesselType"><path codeLine="43" d="M329.5,413.8594 C329.5,439.4894 329.5,460.4994 329.5,485.2994 " fill="none" id="Dock-to-VesselType" style="stroke:#181818;stroke-width:1.0;"/><polygon fill="#181818" points="329.5,491.2994,333.5,482.2994,329.5,486.2994,325.5,482.2994,329.5,491.2994" style="stroke:#181818;stroke-width:1.0;"/><text fill="#000000" font-family="sans-serif" font-size="13" lengthAdjust="spacing" textLength="119" x="330.5" y="458.1045">allowed vessel types</text><text fill="#000000" font-family="sans-serif" font-size="13" lengthAdjust="spacing" textLength="20" x="308.8594" y="435.0663">0..*</text><text fill="#000000" font-family="sans-serif" font-size="13" lengthAdjust="spacing" textLength="20" x="308.7031" y="480.6208">0..*</text></g><!--link Dock to StorageArea--><g id="link_Dock_StorageArea"><path codeLine="44" d="M542.15,413.6494 C621,454.8294 701.4014,496.8122 765.4814,530.2722 " fill="none" id="Dock-to-StorageArea" style="stroke:#181818;stroke-width:1.0;"/><polygon fill="#181818" points="770.8,533.0494,764.6735,525.3379,766.3678,530.7351,760.9707,532.4294,770.8,533.0494" style="stroke:#181818;stroke-width:1.0;"/><text fill="#000000" font-family="sans-serif" font-size="13" lengthAdjust="spacing" textLength="55" x="632.5" y="458.1045">served by</text><text fill="#000000" font-family="sans-serif" font-size="13" lengthAdjust="spacing" textLength="20" x="535.7655" y="435.2183">0..*</text><text fill="#000000" font-family="sans-serif" font-size="13" lengthAdjust="spacing" textLength="20" x="743.0867" y="526.2542">0..*</text></g><!--link DockStorageDistance to Dock--><g id="link_DockStorageDistance_Dock"><path codeLine="45" d="M626.04,111.7494 C593.34,132.5794 553.6709,157.8364 508.8709,186.3664 " fill="none" id="DockStorageDistance-to-Dock" style="stroke:#181818;stroke-width:1.0;"/><polygon fill="#181818" points="503.81,189.5894,513.55,188.1289,508.0274,186.9036,509.2527,181.381,503.81,189.5894" style="stroke:#181818;stroke-width:1.0;"/><text fill="#000000" font-family="sans-serif" font-size="13" lengthAdjust="spacing" textLength="25" x="574.5" y="156.1045">from</text><text fill="#000000" font-family="sans-serif" font-size="13" lengthAdjust="spacing" textLength="7" x="609.4284" y="132.6387">1</text><text fill="#000000" font-family="sans-serif" font-size="13" lengthAdjust="spacing" textLength="7" x="508.8201" y="178.6546">1</text></g><!--link DockStorageDistance to StorageArea--><g id="link_DockStorageDistance_StorageArea"><path codeLine="46" d="M761.26,85.7794 C830.56,95.8094 924.5,121.9294 971.5,189.6094 C1036.47,283.1794 983.1095,410.0299 932.1095,495.3099 " fill="none" id="DockStorageDistance-to-StorageArea" style="stroke:#181818;stroke-width:1.0;"/><polygon fill="#181818" points="929.03,500.4594,937.0822,494.7882,931.5963,496.1682,930.2163,490.6822,929.03,500.4594" style="stroke:#181818;stroke-width:1.0;"/><text fill="#000000" font-family="sans-serif" font-size="13" lengthAdjust="spacing" textLength="11" x="1001.5" y="307.1045">to</text><text fill="#000000" font-family="sans-serif" font-size="13" lengthAdjust="spacing" textLength="7" x="769.1207" y="83.2336">1</text><text fill="#000000" font-family="sans-serif" font-size="13" lengthAdjust="spacing" textLength="7" x="926.9311" y="489.6176">1</text></g><!--SRC=[hLHDRzim3BtxLn0zRAdN15jtCuO2QT93iMKjyj4x8pE9C5do93cTCUo_ZvRjs4apvBAJhIUIx_5BNdf5C3KPIWqpavA28QmMS3kw7Ns6mPosqdcoy0vMUOg-CXK_t7KK2ONEXHFyZW0-m8IT8G7dhTJRW7p7x0JvPWHwQVG9IdhhTpC6KrEi5GLmIlaRR8Q_fXOt_WWU3cjxLZ8Gh26f8z-0Plh3GJNC7L2J9dMS6qW3t-6OjLGDSXr8wXeC_czaJcPlP1e85kJ7IfbNIb_8ELBBCYSts7V_oUE3BZAoo9vVEfkxeoWJr6CXJ9QPIcvdrGlqc3PwAyUrCIhwq_Qqisyw-zBpkjJXAJbXPVwsoHFCKKXVBXzMV26rRpiwDw_k6Bd7yWHPIh9zw2dd2bGSg2P6CmjFhtSTuI6NXJSMjpIsX4qoFUHoDkVdbGMTpsPIM4lQFmbHvAZ5oUs2BDUVsnjMg2rxTHDgdVIbLKYNHUNGN4vv7JbqsvhsE2FVLOZztiESL93kTZ9tKTZJgu-ZKNp52tFN_lPQdG3MWmVra82lnkrVZlswScsgp59Obz4vfLUV6bV-Xd09RAp9BjeUStWJHThm0sJbTkV1R4AiA8wVhSpGbl2LoYIEwsTe8BEiy1ZsDexl2oSr9mNpGl46nN4qXETTwQH01MA75WLNZoL8uI0hd8SrGMwSz79FR1j2IWU5bZyB0jGf53bFe40Nhb63oqd8JNc-XiGEbVJeBm00]--></g></svg>