<?xml version="1.0" encoding="us-ascii" standalone="no"?><svg xmlns="http://www.w3.org/2000/svg" xmlns:xlink="http://www.w3.org/1999/xlink" contentStyleType="text/css" height="1017px" preserveAspectRatio="none" style="width:1805px;height:1017px;background:#FFFFFF;" version="1.1" viewBox="0 0 1805 1017" width="1805px" zoomAndPan="magnify"><defs/><g><text fill="#000000" font-family="sans-serif" font-size="14" font-weight="bold" lengthAdjust="spacing" textLength="358" x="716.5" y="24.5332">System Diagram - US 2.2.3 Register &amp; Update Docks</text><!--cluster Client Layer--><g id="cluster_Client Layer"><rect fill="none" height="100" rx="2.5" ry="2.5" style="stroke:#181818;stroke-width:1.0;" width="202" x="347" y="186.1094"/><text fill="#000000" font-family="sans-serif" font-size="14" font-weight="bold" lengthAdjust="spacing" textLength="83" x="406.5" y="202.6426">Client Layer</text></g><!--cluster Web API--><g id="cluster_Web API"><polygon fill="none" points="361,362.1094,371,352.1094,535,352.1094,535,447.1094,525,457.1094,361,457.1094,361,362.1094" style="stroke:#181818;stroke-width:1.0;"/><line style="stroke:#181818;stroke-width:1.0;" x1="525" x2="535" y1="362.1094" y2="352.1094"/><line style="stroke:#181818;stroke-width:1.0;" x1="361" x2="525" y1="362.1094" y2="362.1094"/><line style="stroke:#181818;stroke-width:1.0;" x1="525" x2="525" y1="362.1094" y2="457.1094"/><text fill="#000000" font-family="sans-serif" font-size="14" font-weight="bold" lengthAdjust="spacing" textLength="57" x="415.5" y="379.6426">Web API</text></g><!--cluster Application DTOs--><g id="cluster_Application DTOs"><path d="M8.5,507.1094 L128.5,507.1094 A3.75,3.75 0 0 1 131,509.6094 L138,530.7188 L540.5,530.7188 A2.5,2.5 0 0 1 543,533.2188 L543,752.6094 A2.5,2.5 0 0 1 540.5,755.1094 L8.5,755.1094 A2.5,2.5 0 0 1 6,752.6094 L6,509.6094 A2.5,2.5 0 0 1 8.5,507.1094 " fill="none" style="stroke:#000000;stroke-width:1.5;"/><line style="stroke:#000000;stroke-width:1.5;" x1="6" x2="138" y1="530.7188" y2="530.7188"/><text fill="#000000" font-family="sans-serif" font-size="14" font-weight="bold" lengthAdjust="spacing" textLength="119" x="10" y="523.6426">Application DTOs</text></g><!--cluster Infrastructure--><g id="cluster_Infrastructure"><path d="M569.5,507.1094 L667.5,507.1094 A3.75,3.75 0 0 1 670,509.6094 L677,530.7188 L1146.5,530.7188 A2.5,2.5 0 0 1 1149,533.2188 L1149,880.1094 A2.5,2.5 0 0 1 1146.5,882.6094 L569.5,882.6094 A2.5,2.5 0 0 1 567,880.1094 L567,509.6094 A2.5,2.5 0 0 1 569.5,507.1094 " fill="none" style="stroke:#000000;stroke-width:1.5;"/><line style="stroke:#000000;stroke-width:1.5;" x1="567" x2="677" y1="530.7188" y2="530.7188"/><text fill="#000000" font-family="sans-serif" font-size="14" font-weight="bold" lengthAdjust="spacing" textLength="97" x="571" y="523.6426">Infrastructure</text></g><!--cluster Domain--><g id="cluster_Domain"><path d="M1175.5,655.1094 L1228.5,655.1094 A3.75,3.75 0 0 1 1231,657.6094 L1238,678.7188 L1795.5,678.7188 A2.5,2.5 0 0 1 1798,681.2188 L1798,1008.1094 A2.5,2.5 0 0 1 1795.5,1010.6094 L1175.5,1010.6094 A2.5,2.5 0 0 1 1173,1008.1094 L1173,657.6094 A2.5,2.5 0 0 1 1175.5,655.1094 " fill="none" style="stroke:#000000;stroke-width:1.5;"/><line style="stroke:#000000;stroke-width:1.5;" x1="1173" x2="1238" y1="678.7188" y2="678.7188"/><text fill="#000000" font-family="sans-serif" font-size="14" font-weight="bold" lengthAdjust="spacing" textLength="52" x="1177" y="671.6426">Domain</text></g><!--entity ApiClient--><g id="elem_ApiClient"><rect fill="#F1F1F1" height="47.6094" rx="2.5" ry="2.5" style="stroke:#181818;stroke-width:0.5;" width="169" x="363.5" y="222.1094"/><rect fill="#F1F1F1" height="10" style="stroke:#181818;stroke-width:0.5;" width="15" x="512.5" y="227.1094"/><rect fill="#F1F1F1" height="2" style="stroke:#181818;stroke-width:0.5;" width="4" x="510.5" y="229.1094"/><rect fill="#F1F1F1" height="2" style="stroke:#181818;stroke-width:0.5;" width="4" x="510.5" y="233.1094"/><text fill="#000000" font-family="sans-serif" font-size="14" lengthAdjust="spacing" textLength="129" x="378.5" y="256.6426">Scalar UI / API Client</text></g><!--entity C_D--><g id="elem_C_D"><rect fill="#F1F1F1" height="47.6094" rx="2.5" ry="2.5" style="stroke:#181818;stroke-width:0.5;" width="141" x="377.5" y="393.1094"/><rect fill="#F1F1F1" height="10" style="stroke:#181818;stroke-width:0.5;" width="15" x="498.5" y="398.1094"/><rect fill="#F1F1F1" height="2" style="stroke:#181818;stroke-width:0.5;" width="4" x="496.5" y="400.1094"/><rect fill="#F1F1F1" height="2" style="stroke:#181818;stroke-width:0.5;" width="4" x="496.5" y="404.1094"/><text fill="#000000" font-family="sans-serif" font-size="14" lengthAdjust="spacing" textLength="101" x="392.5" y="427.6426">DocksController</text></g><!--entity CreateDockDto--><g id="elem_CreateDockDto"><rect fill="#F1F1F1" height="47.6094" rx="2.5" ry="2.5" style="stroke:#181818;stroke-width:0.5;" width="137" x="22.5" y="543.1094"/><rect fill="#F1F1F1" height="10" style="stroke:#181818;stroke-width:0.5;" width="15" x="139.5" y="548.1094"/><rect fill="#F1F1F1" height="2" style="stroke:#181818;stroke-width:0.5;" width="4" x="137.5" y="550.1094"/><rect fill="#F1F1F1" height="2" style="stroke:#181818;stroke-width:0.5;" width="4" x="137.5" y="554.1094"/><text fill="#000000" font-family="sans-serif" font-size="14" lengthAdjust="spacing" textLength="97" x="37.5" y="577.6426">CreateDockDto</text></g><!--entity UpdateDockDto--><g id="elem_UpdateDockDto"><rect fill="#F1F1F1" height="47.6094" rx="2.5" ry="2.5" style="stroke:#181818;stroke-width:0.5;" width="139" x="194.5" y="543.1094"/><rect fill="#F1F1F1" height="10" style="stroke:#181818;stroke-width:0.5;" width="15" x="313.5" y="548.1094"/><rect fill="#F1F1F1" height="2" style="stroke:#181818;stroke-width:0.5;" width="4" x="311.5" y="550.1094"/><rect fill="#F1F1F1" height="2" style="stroke:#181818;stroke-width:0.5;" width="4" x="311.5" y="554.1094"/><text fill="#000000" font-family="sans-serif" font-size="14" lengthAdjust="spacing" textLength="99" x="209.5" y="577.6426">UpdateDockDto</text></g><!--entity DockResponseDto--><g id="elem_DockResponseDto"><rect fill="#F1F1F1" height="47.6094" rx="2.5" ry="2.5" style="stroke:#181818;stroke-width:0.5;" width="158" x="369" y="543.1094"/><rect fill="#F1F1F1" height="10" style="stroke:#181818;stroke-width:0.5;" width="15" x="507" y="548.1094"/><rect fill="#F1F1F1" height="2" style="stroke:#181818;stroke-width:0.5;" width="4" x="505" y="550.1094"/><rect fill="#F1F1F1" height="2" style="stroke:#181818;stroke-width:0.5;" width="4" x="505" y="554.1094"/><text fill="#000000" font-family="sans-serif" font-size="14" lengthAdjust="spacing" textLength="118" x="384" y="577.6426">DockResponseDto</text></g><!--entity VesselTypeInfoDto--><g id="elem_VesselTypeInfoDto"><rect fill="#F1F1F1" height="47.6094" rx="2.5" ry="2.5" style="stroke:#181818;stroke-width:0.5;" width="159" x="367.5" y="691.1094"/><rect fill="#F1F1F1" height="10" style="stroke:#181818;stroke-width:0.5;" width="15" x="506.5" y="696.1094"/><rect fill="#F1F1F1" height="2" style="stroke:#181818;stroke-width:0.5;" width="4" x="504.5" y="698.1094"/><rect fill="#F1F1F1" height="2" style="stroke:#181818;stroke-width:0.5;" width="4" x="504.5" y="702.1094"/><text fill="#000000" font-family="sans-serif" font-size="14" lengthAdjust="spacing" textLength="119" x="382.5" y="725.6426">VesselTypeInfoDto</text></g><!--entity DR--><g id="elem_DR"><rect fill="#F1F1F1" height="47.6094" rx="2.5" ry="2.5" style="stroke:#181818;stroke-width:0.5;" width="140" x="993" y="543.1094"/><rect fill="#F1F1F1" height="10" style="stroke:#181818;stroke-width:0.5;" width="15" x="1113" y="548.1094"/><rect fill="#F1F1F1" height="2" style="stroke:#181818;stroke-width:0.5;" width="4" x="1111" y="550.1094"/><rect fill="#F1F1F1" height="2" style="stroke:#181818;stroke-width:0.5;" width="4" x="1111" y="554.1094"/><text fill="#000000" font-family="sans-serif" font-size="14" lengthAdjust="spacing" textLength="100" x="1008" y="577.6426">DockRepository</text></g><!--entity VTR--><g id="elem_VTR"><rect fill="#F1F1F1" height="47.6094" rx="2.5" ry="2.5" style="stroke:#181818;stroke-width:0.5;" width="182" x="583" y="543.1094"/><rect fill="#F1F1F1" height="10" style="stroke:#181818;stroke-width:0.5;" width="15" x="745" y="548.1094"/><rect fill="#F1F1F1" height="2" style="stroke:#181818;stroke-width:0.5;" width="4" x="743" y="550.1094"/><rect fill="#F1F1F1" height="2" style="stroke:#181818;stroke-width:0.5;" width="4" x="743" y="554.1094"/><text fill="#000000" font-family="sans-serif" font-size="14" lengthAdjust="spacing" textLength="142" x="598" y="577.6426">VesselTypeRepository</text></g><!--entity Db--><g id="elem_Db"><rect fill="#F1F1F1" height="47.6094" rx="2.5" ry="2.5" style="stroke:#181818;stroke-width:0.5;" width="132" x="866" y="691.1094"/><rect fill="#F1F1F1" height="10" style="stroke:#181818;stroke-width:0.5;" width="15" x="978" y="696.1094"/><rect fill="#F1F1F1" height="2" style="stroke:#181818;stroke-width:0.5;" width="4" x="976" y="698.1094"/><rect fill="#F1F1F1" height="2" style="stroke:#181818;stroke-width:0.5;" width="4" x="976" y="702.1094"/><text fill="#000000" font-family="sans-serif" font-size="14" lengthAdjust="spacing" textLength="92" x="881" y="725.6426">PortDbContext</text></g><!--entity DC--><g id="elem_DC"><rect fill="#F1F1F1" height="47.6094" rx="2.5" ry="2.5" style="stroke:#181818;stroke-width:0.5;" width="157" x="800.5" y="543.1094"/><rect fill="#F1F1F1" height="10" style="stroke:#181818;stroke-width:0.5;" width="15" x="937.5" y="548.1094"/><rect fill="#F1F1F1" height="2" style="stroke:#181818;stroke-width:0.5;" width="4" x="935.5" y="550.1094"/><rect fill="#F1F1F1" height="2" style="stroke:#181818;stroke-width:0.5;" width="4" x="935.5" y="554.1094"/><text fill="#000000" font-family="sans-serif" font-size="14" lengthAdjust="spacing" textLength="117" x="815.5" y="577.6426">DockConfiguration</text></g><!--entity Store--><g id="elem_Store"><path d="M985,829.6094 C985,819.6094 1059,819.6094 1059,819.6094 C1059,819.6094 1133,819.6094 1133,829.6094 L1133,856.2188 C1133,866.2188 1059,866.2188 1059,866.2188 C1059,866.2188 985,866.2188 985,856.2188 L985,829.6094 " fill="#F1F1F1" style="stroke:#181818;stroke-width:0.5;"/><path d="M985,829.6094 C985,839.6094 1059,839.6094 1059,839.6094 C1059,839.6094 1133,839.6094 1133,829.6094 " fill="none" style="stroke:#181818;stroke-width:0.5;"/><text fill="#000000" font-family="sans-serif" font-size="14" lengthAdjust="spacing" textLength="128" x="995" y="858.1426">EF Core (InMemory)</text></g><!--entity Dock--><g id="elem_Dock"><rect fill="#F1F1F1" height="47.6094" rx="2.5" ry="2.5" style="stroke:#181818;stroke-width:0.5;" width="72" x="1345" y="819.1094"/><rect fill="#F1F1F1" height="10" style="stroke:#181818;stroke-width:0.5;" width="15" x="1397" y="824.1094"/><rect fill="#F1F1F1" height="2" style="stroke:#181818;stroke-width:0.5;" width="4" x="1395" y="826.1094"/><rect fill="#F1F1F1" height="2" style="stroke:#181818;stroke-width:0.5;" width="4" x="1395" y="830.1094"/><text fill="#000000" font-family="sans-serif" font-size="14" lengthAdjust="spacing" textLength="32" x="1360" y="853.6426">Dock</text></g><!--entity VesselType--><g id="elem_VesselType"><rect fill="#F1F1F1" height="47.6094" rx="2.5" ry="2.5" style="stroke:#181818;stroke-width:0.5;" width="114" x="1189" y="946.6094"/><rect fill="#F1F1F1" height="10" style="stroke:#181818;stroke-width:0.5;" width="15" x="1283" y="951.6094"/><rect fill="#F1F1F1" height="2" style="stroke:#181818;stroke-width:0.5;" width="4" x="1281" y="953.6094"/><rect fill="#F1F1F1" height="2" style="stroke:#181818;stroke-width:0.5;" width="4" x="1281" y="957.6094"/><text fill="#000000" font-family="sans-serif" font-size="14" lengthAdjust="spacing" textLength="74" x="1204" y="981.1426">VesselType</text></g><!--entity StorageArea--><g id="elem_StorageArea"><rect fill="#F1F1F1" height="47.6094" rx="2.5" ry="2.5" style="stroke:#181818;stroke-width:0.5;" width="120" x="1338" y="946.6094"/><rect fill="#F1F1F1" height="10" style="stroke:#181818;stroke-width:0.5;" width="15" x="1438" y="951.6094"/><rect fill="#F1F1F1" height="2" style="stroke:#181818;stroke-width:0.5;" width="4" x="1436" y="953.6094"/><rect fill="#F1F1F1" height="2" style="stroke:#181818;stroke-width:0.5;" width="4" x="1436" y="957.6094"/><text fill="#000000" font-family="sans-serif" font-size="14" lengthAdjust="spacing" textLength="80" x="1353" y="981.1426">StorageArea</text></g><!--entity MobileEquipment--><g id="elem_MobileEquipment"><rect fill="#F1F1F1" height="47.6094" rx="2.5" ry="2.5" style="stroke:#181818;stroke-width:0.5;" width="148" x="1493" y="946.6094"/><rect fill="#F1F1F1" height="10" style="stroke:#181818;stroke-width:0.5;" width="15" x="1621" y="951.6094"/><rect fill="#F1F1F1" height="2" style="stroke:#181818;stroke-width:0.5;" width="4" x="1619" y="953.6094"/><rect fill="#F1F1F1" height="2" style="stroke:#181818;stroke-width:0.5;" width="4" x="1619" y="957.6094"/><text fill="#000000" font-family="sans-serif" font-size="14" lengthAdjust="spacing" textLength="108" x="1508" y="981.1426">MobileEquipment</text></g><!--entity STSCrane--><g id="elem_STSCrane"><rect fill="#F1F1F1" height="47.6094" rx="2.5" ry="2.5" style="stroke:#181818;stroke-width:0.5;" width="106" x="1676" y="946.6094"/><rect fill="#F1F1F1" height="10" style="stroke:#181818;stroke-width:0.5;" width="15" x="1762" y="951.6094"/><rect fill="#F1F1F1" height="2" style="stroke:#181818;stroke-width:0.5;" width="4" x="1760" y="953.6094"/><rect fill="#F1F1F1" height="2" style="stroke:#181818;stroke-width:0.5;" width="4" x="1760" y="957.6094"/><text fill="#000000" font-family="sans-serif" font-size="14" lengthAdjust="spacing" textLength="66" x="1691" y="981.1426">STSCrane</text></g><!--entity DockStorageDistance--><g id="elem_DockStorageDistance"><rect fill="#F1F1F1" height="47.6094" rx="2.5" ry="2.5" style="stroke:#181818;stroke-width:0.5;" width="177" x="1204.5" y="691.1094"/><rect fill="#F1F1F1" height="10" style="stroke:#181818;stroke-width:0.5;" width="15" x="1361.5" y="696.1094"/><rect fill="#F1F1F1" height="2" style="stroke:#181818;stroke-width:0.5;" width="4" x="1359.5" y="698.1094"/><rect fill="#F1F1F1" height="2" style="stroke:#181818;stroke-width:0.5;" width="4" x="1359.5" y="702.1094"/><text fill="#000000" font-family="sans-serif" font-size="14" lengthAdjust="spacing" textLength="137" x="1219.5" y="725.6426">DockStorageDistance</text></g><!--entity Officer--><g id="elem_Officer"><ellipse cx="448" cy="52.6094" fill="#F1F1F1" rx="8" ry="8" style="stroke:#181818;stroke-width:0.5;"/><path d="M448,60.6094 L448,87.6094 M435,68.6094 L461,68.6094 M448,87.6094 L435,102.6094 M448,87.6094 L461,102.6094 " fill="none" style="stroke:#181818;stroke-width:0.5;"/><text fill="#000000" font-family="sans-serif" font-size="14" lengthAdjust="spacing" textLength="132" x="382" y="118.6426">Port Authority Officer</text></g><!--link Officer to ApiClient--><g id="link_Officer_ApiClient"><path d="M448,122.2594 C448,153.1394 448,189.6194 448,215.6794 " fill="none" id="Officer-to-ApiClient" style="stroke:#181818;stroke-width:1.0;"/><polygon fill="#181818" points="448,221.6794,452,212.6794,448,216.6794,444,212.6794,448,221.6794" style="stroke:#181818;stroke-width:1.0;"/><text fill="#000000" font-family="sans-serif" font-size="13" lengthAdjust="spacing" textLength="69" x="449" y="166.6045">uses API UI</text></g><!--link ApiClient to C_D--><g id="link_ApiClient_C_D"><path d="M448,270.2494 C448,302.5294 448,354.7094 448,386.9694 " fill="none" id="ApiClient-to-C_D" style="stroke:#181818;stroke-width:1.0;"/><polygon fill="#181818" points="448,392.9694,452,383.9694,448,387.9694,444,383.9694,448,392.9694" style="stroke:#181818;stroke-width:1.0;"/><text fill="#000000" font-family="sans-serif" font-size="13" lengthAdjust="spacing" textLength="32" x="520" y="316.6045">HTTP</text><text fill="#000000" font-family="sans-serif" font-size="13" lengthAdjust="spacing" textLength="174" x="449" y="332.9561">POST / PUT / GET /api/docks</text></g><!--link C_D to DR--><g id="link_C_D_DR"><path d="M518.78,418.0594 C622.85,420.3494 821.42,433.8894 975,499.1094 C999.21,509.3894 1018.2478,523.8483 1034.8678,538.7883 " fill="none" id="C_D-to-DR" style="stroke:#181818;stroke-width:1.0;"/><polygon fill="#181818" points="1039.33,542.7994,1035.3108,533.8079,1035.6115,539.4568,1029.9627,539.7575,1039.33,542.7994" style="stroke:#181818;stroke-width:1.0;"/><text fill="#000000" font-family="sans-serif" font-size="13" lengthAdjust="spacing" textLength="100" x="949" y="487.6045">CRUD operations</text></g><!--link C_D to VTR--><g id="link_C_D_VTR"><path d="M483.31,441.2294 C525.65,468.9594 591.1505,511.8523 633.5405,539.6123 " fill="none" id="C_D-to-VTR" style="stroke:#181818;stroke-width:1.0;"/><polygon fill="#181818" points="638.56,542.8994,633.2222,534.6224,634.3771,540.1601,628.8394,541.315,638.56,542.8994" style="stroke:#181818;stroke-width:1.0;"/><text fill="#000000" font-family="sans-serif" font-size="13" lengthAdjust="spacing" textLength="114" x="555" y="487.6045">lookup vessel types</text></g><!--link DR to Db--><g id="link_DR_Db"><path d="M1047.6,591.2894 C1037.73,605.5694 1024.32,623.9694 1011,639.1094 C994.76,657.5594 979.1002,672.6061 963.2302,686.8861 " fill="none" id="DR-to-Db" style="stroke:#181818;stroke-width:1.0;"/><polygon fill="#181818" points="958.77,690.8994,968.1358,687.8528,962.4868,687.5549,962.7847,681.9059,958.77,690.8994" style="stroke:#181818;stroke-width:1.0;"/><text fill="#000000" font-family="sans-serif" font-size="13" lengthAdjust="spacing" textLength="75" x="1025" y="635.6045">query/persist</text></g><!--link VTR to Db--><g id="link_VTR_Db"><path d="M714.88,591.2394 C763.19,618.5794 837.858,660.8346 886.088,688.1246 " fill="none" id="VTR-to-Db" style="stroke:#181818;stroke-width:1.0;"/><polygon fill="#181818" points="891.31,691.0794,885.4468,683.1659,886.9583,688.6171,881.5071,690.1286,891.31,691.0794" style="stroke:#181818;stroke-width:1.0;"/><text fill="#000000" font-family="sans-serif" font-size="13" lengthAdjust="spacing" textLength="32" x="796" y="635.6045">query</text></g><!--link Db to Store--><g id="link_Db_Store"><path d="M955.29,739.2194 C978.35,762.0994 1009.1715,792.6626 1032.0215,815.3426 " fill="none" id="Db-to-Store" style="stroke:#181818;stroke-width:1.0;"/><polygon fill="#181818" points="1036.28,819.5694,1032.7102,810.3903,1032.7313,816.0471,1027.0745,816.0682,1036.28,819.5694" style="stroke:#181818;stroke-width:1.0;"/><text fill="#000000" font-family="sans-serif" font-size="13" lengthAdjust="spacing" textLength="68" x="1004" y="785.6045">persist data</text></g><!--link DC to Db--><g id="link_DC_Db"><path d="M881.86,591.2494 C884.02,605.3494 887.56,623.5794 893,639.1094 C899.36,657.2494 906.4273,671.269 914.7373,685.709 " fill="none" id="DC-to-Db" style="stroke:#181818;stroke-width:1.0;"/><polygon fill="#181818" points="917.73,690.9094,916.7078,681.1137,915.2361,686.5758,909.774,685.104,917.73,690.9094" style="stroke:#181818;stroke-width:1.0;"/><text fill="#000000" font-family="sans-serif" font-size="13" lengthAdjust="spacing" textLength="112" x="894" y="635.6045">configure mappings</text></g><!--link C_D to CreateDockDto--><g id="link_C_D_CreateDockDto"><path d="M377.34,431.6594 C320.99,444.2294 241.16,466.0194 177,499.1094 C154.46,510.7294 136.4598,524.5919 120.1298,538.9219 " fill="none" id="C_D-to-CreateDockDto" style="stroke:#181818;stroke-width:1.0;stroke-dasharray:7.0,7.0;"/><polygon fill="#181818" points="115.62,542.8794,125.023,539.9497,119.3782,539.5815,119.7464,533.9366,115.62,542.8794" style="stroke:#181818;stroke-width:1.0;"/></g><!--link C_D to UpdateDockDto--><g id="link_C_D_UpdateDockDto"><path d="M419.25,441.2294 C384.78,468.9594 332.0352,511.3787 297.5252,539.1387 " fill="none" id="C_D-to-UpdateDockDto" style="stroke:#181818;stroke-width:1.0;stroke-dasharray:7.0,7.0;"/><polygon fill="#181818" points="292.85,542.8994,302.3699,540.3751,296.746,539.7654,297.3556,534.1415,292.85,542.8994" style="stroke:#181818;stroke-width:1.0;"/></g><!--link C_D to DockResponseDto--><g id="link_C_D_DockResponseDto"><path d="M448,441.2294 C448,468.8794 448,508.8694 448,536.6594 " fill="none" id="C_D-to-DockResponseDto" style="stroke:#181818;stroke-width:1.0;stroke-dasharray:7.0,7.0;"/><polygon fill="#181818" points="448,542.6594,452,533.6594,448,537.6594,444,533.6594,448,542.6594" style="stroke:#181818;stroke-width:1.0;"/></g><!--link DockResponseDto to VesselTypeInfoDto--><g id="link_DockResponseDto_VesselTypeInfoDto"><path d="M447.84,591.2394 C447.65,618.5794 447.3796,657.7895 447.1996,685.0795 " fill="none" id="DockResponseDto-to-VesselTypeInfoDto" style="stroke:#181818;stroke-width:1.0;stroke-dasharray:7.0,7.0;"/><polygon fill="#181818" points="447.16,691.0794,451.2193,682.106,447.193,686.0795,443.2194,682.0532,447.16,691.0794" style="stroke:#181818;stroke-width:1.0;"/></g><!--link Db to Dock--><g id="link_Db_Dock"><path d="M998.25,734.6994 C1094.49,761.7094 1263.8732,809.2382 1339.2032,830.3782 " fill="none" id="Db-to-Dock" style="stroke:#181818;stroke-width:1.0;stroke-dasharray:7.0,7.0;"/><polygon fill="#181818" points="1344.98,831.9994,1337.3955,825.7164,1340.166,830.6484,1335.234,833.4189,1344.98,831.9994" style="stroke:#181818;stroke-width:1.0;"/></g><!--link Db to VesselType--><g id="link_Db_VesselType"><path d="M919.06,739.1194 C897.96,780.0394 862.63,865.9494 906,916.6094 C941.75,958.3594 1095.7513,967.3435 1182.9313,969.1735 " fill="none" id="Db-to-VesselType" style="stroke:#181818;stroke-width:1.0;stroke-dasharray:7.0,7.0;"/><polygon fill="#181818" points="1188.93,969.2994,1180.0159,965.1114,1183.9311,969.1944,1179.848,973.1096,1188.93,969.2994" style="stroke:#181818;stroke-width:1.0;"/></g><!--link Db to StorageArea--><g id="link_Db_StorageArea"><path d="M929.27,739.1994 C926.24,776.7594 926.39,850.8794 968,890.6094 C1025.44,945.4594 1243.56,928.9794 1321,946.6094 C1326.44,947.8494 1326.2636,947.7095 1331.8736,949.2095 " fill="none" id="Db-to-StorageArea" style="stroke:#181818;stroke-width:1.0;stroke-dasharray:7.0,7.0;"/><polygon fill="#181818" points="1337.67,950.7594,1330.0087,944.5704,1332.8397,949.4678,1327.9422,952.2989,1337.67,950.7594" style="stroke:#181818;stroke-width:1.0;"/></g><!--link Dock to VesselType--><g id="link_Dock_VesselType"><path d="M1344.76,854.4794 C1321.17,862.8994 1291.31,876.9894 1272,898.6094 C1260.02,912.0194 1254.7942,925.5689 1251.2342,940.6989 " fill="none" id="Dock-to-VesselType" style="stroke:#181818;stroke-width:1.0;"/><polygon fill="#181818" points="1249.86,946.5394,1255.815,938.6948,1251.0052,941.6723,1248.0277,936.8625,1249.86,946.5394" style="stroke:#181818;stroke-width:1.0;"/><text fill="#000000" font-family="sans-serif" font-size="13" lengthAdjust="spacing" textLength="119" x="1273" y="913.1045">allowed vessel types</text><text fill="#000000" font-family="sans-serif" font-size="13" lengthAdjust="spacing" textLength="20" x="1317.1015" y="852.5941">0..*</text><text fill="#000000" font-family="sans-serif" font-size="13" lengthAdjust="spacing" textLength="20" x="1228.2866" y="935.9116">0..*</text></g><!--link Dock to StorageArea--><g id="link_Dock_StorageArea"><path d="M1391.52,867.2194 C1395.31,876.7294 1399.11,887.9894 1401,898.6094 C1403.81,914.3994 1403.6268,926.4933 1402.1368,940.4533 " fill="none" id="Dock-to-StorageArea" style="stroke:#181818;stroke-width:1.0;"/><polygon fill="#181818" points="1401.5,946.4194,1406.4326,937.8947,1402.0307,941.4476,1398.4778,937.0457,1401.5,946.4194" style="stroke:#181818;stroke-width:1.0;"/><text fill="#000000" font-family="sans-serif" font-size="13" lengthAdjust="spacing" textLength="55" x="1403" y="913.1045">served by</text><text fill="#000000" font-family="sans-serif" font-size="13" lengthAdjust="spacing" textLength="20" x="1371.6403" y="888.2257">0..*</text><text fill="#000000" font-family="sans-serif" font-size="13" lengthAdjust="spacing" textLength="20" x="1379.8344" y="935.7609">0..*</text></g><!--link Dock to MobileEquipment--><g id="link_Dock_MobileEquipment"><path d="M1417.26,866.4994 C1432.71,876.1894 1450.86,887.7694 1467,898.6094 C1490.16,914.1494 1510.9362,928.8661 1530.4562,942.9661 " fill="none" id="Dock-to-MobileEquipment" style="stroke:#181818;stroke-width:1.0;"/><polygon fill="#181818" points="1535.32,946.4794,1530.3665,937.9669,1531.2668,943.5516,1525.6821,944.452,1535.32,946.4794" style="stroke:#181818;stroke-width:1.0;"/><text fill="#000000" font-family="sans-serif" font-size="13" lengthAdjust="spacing" textLength="99" x="1492" y="913.1045">current allocation</text><text fill="#000000" font-family="sans-serif" font-size="13" lengthAdjust="spacing" textLength="7" x="1425.0878" y="867.0975">1</text><text fill="#000000" font-family="sans-serif" font-size="13" lengthAdjust="spacing" textLength="20" x="1504.6395" y="935.8363">0..*</text></g><!--link Dock to STSCrane--><g id="link_Dock_STSCrane"><path d="M1417.15,850.1294 C1461.31,858.1494 1537.8,874.2294 1600,898.6094 C1632.85,911.4794 1662.6461,927.9875 1687.8561,943.3475 " fill="none" id="Dock-to-STSCrane" style="stroke:#181818;stroke-width:1.0;"/><polygon fill="#181818" points="1692.98,946.4694,1687.3755,938.3707,1688.7101,943.8678,1683.213,945.2025,1692.98,946.4694" style="stroke:#181818;stroke-width:1.0;"/><text fill="#000000" font-family="sans-serif" font-size="13" lengthAdjust="spacing" textLength="63" x="1637" y="913.1045">installed at</text><text fill="#000000" font-family="sans-serif" font-size="13" lengthAdjust="spacing" textLength="7" x="1424.9561" y="847.5046">1</text><text fill="#000000" font-family="sans-serif" font-size="13" lengthAdjust="spacing" textLength="22" x="1658.9311" y="935.8237">0..1</text></g><!--link DockStorageDistance to Dock--><g id="link_DockStorageDistance_Dock"><path d="M1309.14,739.2194 C1324.92,761.8094 1345.3855,791.1096 1361.2255,813.7996 " fill="none" id="DockStorageDistance-to-Dock" style="stroke:#181818;stroke-width:1.0;"/><polygon fill="#181818" points="1364.66,818.7194,1362.7881,809.05,1361.7979,814.6196,1356.2284,813.6294,1364.66,818.7194" style="stroke:#181818;stroke-width:1.0;"/><text fill="#000000" font-family="sans-serif" font-size="13" lengthAdjust="spacing" textLength="25" x="1343" y="785.6045">from</text></g><!--link DockStorageDistance to StorageArea--><g id="link_DockStorageDistance_StorageArea"><path d="M1277.94,739.1394 C1253.96,778.9794 1213.56,861.7694 1252,916.6094 C1257.38,924.2794 1294.2448,937.4229 1332.0448,949.5029 " fill="none" id="DockStorageDistance-to-StorageArea" style="stroke:#181818;stroke-width:1.0;"/><polygon fill="#181818" points="1337.76,951.3294,1330.4048,944.7795,1332.9973,949.8073,1327.9695,952.3998,1337.76,951.3294" style="stroke:#181818;stroke-width:1.0;"/><text fill="#000000" font-family="sans-serif" font-size="13" lengthAdjust="spacing" textLength="11" x="1243" y="848.6045">to</text></g><!--SRC=[TLHDRzim3BthLn0vx0j8kdMt7WO4LhO5MD4WSRh3LWoomwH2RKcLv6v6iVy-IhPZEyqk1lr8Ff5Fp_RI5mYRsdaiWKjniAA4AMmtS3cxd7s4DHuavIoyWgtP2O_0TVxW61EvrnOcAsqzp2j_hwtqDTpizp97Em7XkfYnrp2TJY4f92eFtqHDR0GmYxaNwa37JuQv2JmpW1-RN1J2mdO95p1VBTlskq0yDx9vOtyxyk-OnQgUNUaT4RTuonb7JxJoLXS5saYM_E8zpToOGkR2Iwq6L4Ra3-90RCCqJszSIvjO9642EVVwBY2DL4Can6jqHYk77NQBpc6HrWQNQgyZUfo442kSjrNkAuldXXbN33PSez5EqktKSK6-7fzrahvDOpxS8y-2DlYdKPbd7I6XUtceR5oyoIMKenL59XoDilWCYQOftopLDPR4_3OQO4E7OByIrwMGPtLjCeCLJkI9hu6DgkSaTdo_rfaiSF5OILC6PyIQT9DOeV0eUTl4oSD2vJWIc5nD9gQLN9ocjIl5dtg7mHLK3btqrdR9UZnKaNKe_pLDLp_LwcQJabDNs_3yig2dCF9Y5x-LK1Vg-PhAa_MMWpROgDadwHueMsZzK1buYgk3fzqTexROdL7-iK9RNr2teurOw1cd68K1YT8Js5R6ks8ywQlpzauHIc6CL0SNX25JWyMY6UrUccQysOns7NhyY8vyVaHFlCvEtcFD2- -7urVDj4Wt1ILzlqLOfsFiuhwpGmREY4iqFXll4HXWydusUpU98hHXJqQQYABGlt5telxvni6PrEdGFb5ZLhVb7qQr9quDwbVMXYYSsFnFNZPIsDcPEgGY1zDFQmV2ipFERcusS5p1tkholpNZmKdtVm00]--></g></svg>