<?xml version="1.0" encoding="us-ascii" standalone="no"?><svg xmlns="http://www.w3.org/2000/svg" xmlns:xlink="http://www.w3.org/1999/xlink" contentStyleType="text/css" height="1064px" preserveAspectRatio="none" style="width:1798px;height:1064px;background:#FFFFFF;" version="1.1" viewBox="0 0 1798 1064" width="1798px" zoomAndPan="magnify"><defs/><g><text fill="#000000" font-family="sans-serif" font-size="14" font-weight="bold" lengthAdjust="spacing" textLength="201" x="800.25" y="29.5332">SSD - Register Dock (Create)</text><rect fill="#FFFFFF" height="339.2188" style="stroke:#181818;stroke-width:1.0;" width="10" x="919" y="200.2734"/><rect fill="#FFFFFF" height="60.7031" style="stroke:#181818;stroke-width:1.0;" width="10" x="1122" y="290.3281"/><rect fill="#FFFFFF" height="91.0547" style="stroke:#181818;stroke-width:1.0;" width="10" x="1122" y="826.6563"/><rect fill="#FFFFFF" height="60.7031" style="stroke:#181818;stroke-width:1.0;" width="10" x="1267" y="406.7344"/><rect fill="#FFFFFF" height="90.0547" style="stroke:#181818;stroke-width:1.0;" width="10" x="1525" y="600.1953"/><rect fill="#FFFFFF" height="36.3516" style="stroke:#181818;stroke-width:1.0;" width="10" x="1525" y="745.9531"/><rect fill="none" height="188.4609" style="stroke:#000000;stroke-width:1.5;" width="1313" x="479.5" y="366.0313"/><rect fill="none" height="65.0547" style="stroke:#000000;stroke-width:1.5;" width="502" x="489.5" y="482.4375"/><rect fill="none" height="92.0547" style="stroke:#000000;stroke-width:1.5;" width="851.5" x="856.5" y="705.25"/><line style="stroke:#181818;stroke-width:0.5;stroke-dasharray:5.0,5.0;" x1="74" x2="74" y1="121.2188" y2="982.4141"/><line style="stroke:#181818;stroke-width:0.5;stroke-dasharray:5.0,5.0;" x1="562.5" x2="562.5" y1="121.2188" y2="982.4141"/><line style="stroke:#181818;stroke-width:0.5;stroke-dasharray:5.0,5.0;" x1="923.5" x2="923.5" y1="121.2188" y2="982.4141"/><line style="stroke:#181818;stroke-width:0.5;stroke-dasharray:5.0,5.0;" x1="1127" x2="1127" y1="121.2188" y2="982.4141"/><line style="stroke:#181818;stroke-width:0.5;stroke-dasharray:5.0,5.0;" x1="1272" x2="1272" y1="121.2188" y2="982.4141"/><line style="stroke:#181818;stroke-width:0.5;stroke-dasharray:5.0,5.0;" x1="1413" x2="1413" y1="121.2188" y2="982.4141"/><line style="stroke:#181818;stroke-width:0.5;stroke-dasharray:5.0,5.0;" x1="1530" x2="1530" y1="121.2188" y2="982.4141"/><line style="stroke:#181818;stroke-width:0.5;stroke-dasharray:5.0,5.0;" x1="1732.5" x2="1732.5" y1="121.2188" y2="982.4141"/><text fill="#000000" font-family="sans-serif" font-size="14" lengthAdjust="spacing" textLength="132" x="5" y="118.1426">Port Authority Officer</text><ellipse cx="74" cy="52.1094" fill="#E2E2F0" rx="8" ry="8" style="stroke:#181818;stroke-width:0.5;"/><path d="M74,60.1094 L74,87.1094 M61,68.1094 L87,68.1094 M74,87.1094 L61,102.1094 M74,87.1094 L87,102.1094 " fill="none" style="stroke:#181818;stroke-width:0.5;"/><text fill="#000000" font-family="sans-serif" font-size="14" lengthAdjust="spacing" textLength="132" x="5" y="995.9473">Port Authority Officer</text><ellipse cx="74" cy="1007.5234" fill="#E2E2F0" rx="8" ry="8" style="stroke:#181818;stroke-width:0.5;"/><path d="M74,1015.5234 L74,1042.5234 M61,1023.5234 L87,1023.5234 M74,1042.5234 L61,1057.5234 M74,1042.5234 L87,1057.5234 " fill="none" style="stroke:#181818;stroke-width:0.5;"/><rect fill="#E2E2F0" height="31.6094" rx="2.5" ry="2.5" style="stroke:#181818;stroke-width:0.5;" width="127" x="499.5" y="88.6094"/><text fill="#000000" font-family="sans-serif" font-size="14" lengthAdjust="spacing" textLength="113" x="506.5" y="110.1426">Scalar / API Client</text><rect fill="#E2E2F0" height="31.6094" rx="2.5" ry="2.5" style="stroke:#181818;stroke-width:0.5;" width="127" x="499.5" y="981.4141"/><text fill="#000000" font-family="sans-serif" font-size="14" lengthAdjust="spacing" textLength="113" x="506.5" y="1002.9473">Scalar / API Client</text><rect fill="#E2E2F0" height="31.6094" rx="2.5" ry="2.5" style="stroke:#181818;stroke-width:0.5;" width="115" x="866.5" y="88.6094"/><text fill="#000000" font-family="sans-serif" font-size="14" lengthAdjust="spacing" textLength="101" x="873.5" y="110.1426">DocksController</text><rect fill="#E2E2F0" height="31.6094" rx="2.5" ry="2.5" style="stroke:#181818;stroke-width:0.5;" width="115" x="866.5" y="981.4141"/><text fill="#000000" font-family="sans-serif" font-size="14" lengthAdjust="spacing" textLength="101" x="873.5" y="1002.9473">DocksController</text><rect fill="#E2E2F0" height="31.6094" rx="2.5" ry="2.5" style="stroke:#181818;stroke-width:0.5;" width="114" x="1070" y="88.6094"/><text fill="#000000" font-family="sans-serif" font-size="14" lengthAdjust="spacing" textLength="100" x="1077" y="110.1426">DockRepository</text><rect fill="#E2E2F0" height="31.6094" rx="2.5" ry="2.5" style="stroke:#181818;stroke-width:0.5;" width="114" x="1070" y="981.4141"/><text fill="#000000" font-family="sans-serif" font-size="14" lengthAdjust="spacing" textLength="100" x="1077" y="1002.9473">DockRepository</text><rect fill="#E2E2F0" height="31.6094" rx="2.5" ry="2.5" style="stroke:#181818;stroke-width:0.5;" width="156" x="1194" y="88.6094"/><text fill="#000000" font-family="sans-serif" font-size="14" lengthAdjust="spacing" textLength="142" x="1201" y="110.1426">VesselTypeRepository</text><rect fill="#E2E2F0" height="31.6094" rx="2.5" ry="2.5" style="stroke:#181818;stroke-width:0.5;" width="156" x="1194" y="981.4141"/><text fill="#000000" font-family="sans-serif" font-size="14" lengthAdjust="spacing" textLength="142" x="1201" y="1002.9473">VesselTypeRepository</text><rect fill="#E2E2F0" height="31.6094" rx="2.5" ry="2.5" style="stroke:#181818;stroke-width:0.5;" width="106" x="1360" y="88.6094"/><text fill="#000000" font-family="sans-serif" font-size="14" lengthAdjust="spacing" textLength="92" x="1367" y="110.1426">PortDbContext</text><rect fill="#E2E2F0" height="31.6094" rx="2.5" ry="2.5" style="stroke:#181818;stroke-width:0.5;" width="106" x="1360" y="981.4141"/><text fill="#000000" font-family="sans-serif" font-size="14" lengthAdjust="spacing" textLength="92" x="1367" y="1002.9473">PortDbContext</text><rect fill="#E2E2F0" height="31.6094" rx="2.5" ry="2.5" style="stroke:#181818;stroke-width:0.5;" width="108" x="1476" y="88.6094"/><text fill="#000000" font-family="sans-serif" font-size="14" lengthAdjust="spacing" textLength="94" x="1483" y="110.1426">Dock (Domain)</text><rect fill="#E2E2F0" height="31.6094" rx="2.5" ry="2.5" style="stroke:#181818;stroke-width:0.5;" width="108" x="1476" y="981.4141"/><text fill="#000000" font-family="sans-serif" font-size="14" lengthAdjust="spacing" textLength="94" x="1483" y="1002.9473">Dock (Domain)</text><text fill="#000000" font-family="sans-serif" font-size="14" lengthAdjust="spacing" textLength="93" x="1683.5" y="118.1426">EF (InMemory)</text><path d="M1715,67.6094 C1715,57.6094 1733,57.6094 1733,57.6094 C1733,57.6094 1751,57.6094 1751,67.6094 L1751,93.6094 C1751,103.6094 1733,103.6094 1733,103.6094 C1733,103.6094 1715,103.6094 1715,93.6094 L1715,67.6094 " fill="#E2E2F0" style="stroke:#181818;stroke-width:1.5;"/><path d="M1715,67.6094 C1715,77.6094 1733,77.6094 1733,77.6094 C1733,77.6094 1751,77.6094 1751,67.6094 " fill="none" style="stroke:#181818;stroke-width:1.5;"/><text fill="#000000" font-family="sans-serif" font-size="14" lengthAdjust="spacing" textLength="93" x="1683.5" y="995.9473">EF (InMemory)</text><path d="M1715,1009.0234 C1715,999.0234 1733,999.0234 1733,999.0234 C1733,999.0234 1751,999.0234 1751,1009.0234 L1751,1035.0234 C1751,1045.0234 1733,1045.0234 1733,1045.0234 C1733,1045.0234 1715,1045.0234 1715,1035.0234 L1715,1009.0234 " fill="#E2E2F0" style="stroke:#181818;stroke-width:1.5;"/><path d="M1715,1009.0234 C1715,1019.0234 1733,1019.0234 1733,1019.0234 C1733,1019.0234 1751,1019.0234 1751,1009.0234 " fill="none" style="stroke:#181818;stroke-width:1.5;"/><rect fill="#FFFFFF" height="339.2188" style="stroke:#181818;stroke-width:1.0;" width="10" x="919" y="200.2734"/><rect fill="#FFFFFF" height="60.7031" style="stroke:#181818;stroke-width:1.0;" width="10" x="1122" y="290.3281"/><rect fill="#FFFFFF" height="91.0547" style="stroke:#181818;stroke-width:1.0;" width="10" x="1122" y="826.6563"/><rect fill="#FFFFFF" height="60.7031" style="stroke:#181818;stroke-width:1.0;" width="10" x="1267" y="406.7344"/><rect fill="#FFFFFF" height="90.0547" style="stroke:#181818;stroke-width:1.0;" width="10" x="1525" y="600.1953"/><rect fill="#FFFFFF" height="36.3516" style="stroke:#181818;stroke-width:1.0;" width="10" x="1525" y="745.9531"/><polygon fill="#181818" points="551,165.9219,561,169.9219,551,173.9219,555,169.9219" style="stroke:#181818;stroke-width:1.0;"/><line style="stroke:#181818;stroke-width:1.0;" x1="74" x2="557" y1="169.9219" y2="169.9219"/><text fill="#000000" font-family="sans-serif" font-size="13" lengthAdjust="spacing" textLength="99" x="81" y="148.7139">POST /api/docks</text><text fill="#000000" font-family="sans-serif" font-size="13" lengthAdjust="spacing" textLength="465" x="81" y="165.0654">{ Code, Name, Location, LengthM, DepthM, MaxDraftM, AllowedVesselTypeIds }</text><polygon fill="#181818" points="907,196.2734,917,200.2734,907,204.2734,911,200.2734" style="stroke:#181818;stroke-width:1.0;"/><line style="stroke:#181818;stroke-width:1.0;" x1="563" x2="913" y1="200.2734" y2="200.2734"/><text fill="#000000" font-family="sans-serif" font-size="13" lengthAdjust="spacing" textLength="64" x="570" y="195.417">Create(dto)</text><line style="stroke:#181818;stroke-width:1.0;" x1="929" x2="971" y1="246.9766" y2="246.9766"/><line style="stroke:#181818;stroke-width:1.0;" x1="971" x2="971" y1="246.9766" y2="259.9766"/><line style="stroke:#181818;stroke-width:1.0;" x1="930" x2="971" y1="259.9766" y2="259.9766"/><polygon fill="#181818" points="940,255.9766,930,259.9766,940,263.9766,936,259.9766" style="stroke:#181818;stroke-width:1.0;"/><text fill="#000000" font-family="sans-serif" font-size="13" lengthAdjust="spacing" textLength="73" x="936" y="225.7686">validate DTO</text><text fill="#000000" font-family="sans-serif" font-size="13" lengthAdjust="spacing" textLength="179" x="936" y="242.1201">(required fields, positive values)</text><polygon fill="#181818" points="1110,286.3281,1120,290.3281,1110,294.3281,1114,290.3281" style="stroke:#181818;stroke-width:1.0;"/><line style="stroke:#181818;stroke-width:1.0;" x1="929" x2="1116" y1="290.3281" y2="290.3281"/><text fill="#000000" font-family="sans-serif" font-size="13" lengthAdjust="spacing" textLength="144" x="936" y="285.4717">ExistsAsync(codeUpper)</text><polygon fill="#181818" points="1721,316.6797,1731,320.6797,1721,324.6797,1725,320.6797" style="stroke:#181818;stroke-width:1.0;"/><line style="stroke:#181818;stroke-width:1.0;" x1="1132" x2="1727" y1="320.6797" y2="320.6797"/><text fill="#000000" font-family="sans-serif" font-size="13" lengthAdjust="spacing" textLength="32" x="1139" y="315.8232">query</text><polygon fill="#181818" points="1138,347.0313,1128,351.0313,1138,355.0313,1134,351.0313" style="stroke:#181818;stroke-width:1.0;"/><line style="stroke:#181818;stroke-width:1.0;stroke-dasharray:2.0,2.0;" x1="1132" x2="1732" y1="351.0313" y2="351.0313"/><text fill="#000000" font-family="sans-serif" font-size="13" lengthAdjust="spacing" textLength="27" x="1144" y="346.1748">false</text><path d="M479.5,366.0313 L540.5,366.0313 L540.5,374.3828 L530.5,384.3828 L479.5,384.3828 L479.5,366.0313 " fill="#EEEEEE" style="stroke:#000000;stroke-width:1.5;"/><rect fill="none" height="188.4609" style="stroke:#000000;stroke-width:1.5;" width="1313" x="479.5" y="366.0313"/><text fill="#000000" font-family="sans-serif" font-size="13" font-weight="bold" lengthAdjust="spacing" textLength="16" x="494.5" y="380.5264">alt</text><text fill="#000000" font-family="sans-serif" font-size="11" font-weight="bold" lengthAdjust="spacing" textLength="131" x="555.5" y="379.4502">[vessel types provided]</text><polygon fill="#181818" points="1255,402.7344,1265,406.7344,1255,410.7344,1259,406.7344" style="stroke:#181818;stroke-width:1.0;"/><line style="stroke:#181818;stroke-width:1.0;" x1="929" x2="1261" y1="406.7344" y2="406.7344"/><text fill="#000000" font-family="sans-serif" font-size="13" lengthAdjust="spacing" textLength="251" x="936" y="401.8779">GetByIdsAsync(dto.AllowedVesselTypeIds)</text><polygon fill="#181818" points="1721,433.0859,1731,437.0859,1721,441.0859,1725,437.0859" style="stroke:#181818;stroke-width:1.0;"/><line style="stroke:#181818;stroke-width:1.0;" x1="1277" x2="1727" y1="437.0859" y2="437.0859"/><text fill="#000000" font-family="sans-serif" font-size="13" lengthAdjust="spacing" textLength="32" x="1284" y="432.2295">query</text><polygon fill="#181818" points="1283,463.4375,1273,467.4375,1283,471.4375,1279,467.4375" style="stroke:#181818;stroke-width:1.0;"/><line style="stroke:#181818;stroke-width:1.0;stroke-dasharray:2.0,2.0;" x1="1277" x2="1732" y1="467.4375" y2="467.4375"/><text fill="#000000" font-family="sans-serif" font-size="13" lengthAdjust="spacing" textLength="105" x="1289" y="462.5811">List&lt;VesselType&gt;</text><path d="M489.5,482.4375 L550.5,482.4375 L550.5,490.7891 L540.5,500.7891 L489.5,500.7891 L489.5,482.4375 " fill="#EEEEEE" style="stroke:#000000;stroke-width:1.5;"/><rect fill="none" height="65.0547" style="stroke:#000000;stroke-width:1.5;" width="502" x="489.5" y="482.4375"/><text fill="#000000" font-family="sans-serif" font-size="13" font-weight="bold" lengthAdjust="spacing" textLength="16" x="504.5" y="496.9326">alt</text><text fill="#000000" font-family="sans-serif" font-size="11" font-weight="bold" lengthAdjust="spacing" textLength="170" x="565.5" y="495.8564">[some vessel types not found]</text><polygon fill="#181818" points="574,535.4922,564,539.4922,574,543.4922,570,539.4922" style="stroke:#181818;stroke-width:1.0;"/><line style="stroke:#181818;stroke-width:1.0;stroke-dasharray:2.0,2.0;" x1="568" x2="923" y1="539.4922" y2="539.4922"/><text fill="#000000" font-family="sans-serif" font-size="13" lengthAdjust="spacing" textLength="100" x="580" y="518.2842">400 Bad Request</text><text fill="#000000" font-family="sans-serif" font-size="13" lengthAdjust="spacing" textLength="171" x="580" y="534.6357">"Vessel type(s) not found: ..."</text><polygon fill="#181818" points="1513,596.1953,1523,600.1953,1513,604.1953,1517,600.1953" style="stroke:#181818;stroke-width:1.0;"/><line style="stroke:#181818;stroke-width:1.0;" x1="924" x2="1519" y1="600.1953" y2="600.1953"/><text fill="#000000" font-family="sans-serif" font-size="13" lengthAdjust="spacing" textLength="270" x="931" y="578.9873">new Dock(codeUpper, dto.Name, dto.Location,</text><text fill="#000000" font-family="sans-serif" font-size="13" lengthAdjust="spacing" textLength="244" x="931" y="595.3389">dto.LengthM, dto.DepthM, dto.MaxDraftM)</text><line style="stroke:#181818;stroke-width:1.0;" x1="1535" x2="1577" y1="646.8984" y2="646.8984"/><line style="stroke:#181818;stroke-width:1.0;" x1="1577" x2="1577" y1="646.8984" y2="659.8984"/><line style="stroke:#181818;stroke-width:1.0;" x1="1536" x2="1577" y1="659.8984" y2="659.8984"/><polygon fill="#181818" points="1546,655.8984,1536,659.8984,1546,663.8984,1542,659.8984" style="stroke:#181818;stroke-width:1.0;"/><text fill="#000000" font-family="sans-serif" font-size="13" lengthAdjust="spacing" textLength="131" x="1542" y="625.6904">validate business rules</text><text fill="#000000" font-family="sans-serif" font-size="13" lengthAdjust="spacing" textLength="179" x="1542" y="642.042">(positive values, required fields)</text><polygon fill="#181818" points="935,686.25,925,690.25,935,694.25,931,690.25" style="stroke:#181818;stroke-width:1.0;"/><line style="stroke:#181818;stroke-width:1.0;stroke-dasharray:2.0,2.0;" x1="929" x2="1529" y1="690.25" y2="690.25"/><text fill="#000000" font-family="sans-serif" font-size="13" lengthAdjust="spacing" textLength="28" x="941" y="685.3936">dock</text><path d="M856.5,705.25 L917.5,705.25 L917.5,713.6016 L907.5,723.6016 L856.5,723.6016 L856.5,705.25 " fill="#EEEEEE" style="stroke:#000000;stroke-width:1.5;"/><rect fill="none" height="92.0547" style="stroke:#000000;stroke-width:1.5;" width="851.5" x="856.5" y="705.25"/><text fill="#000000" font-family="sans-serif" font-size="13" font-weight="bold" lengthAdjust="spacing" textLength="16" x="871.5" y="719.7451">alt</text><text fill="#000000" font-family="sans-serif" font-size="11" font-weight="bold" lengthAdjust="spacing" textLength="131" x="932.5" y="718.6689">[vessel types provided]</text><polygon fill="#181818" points="1513,741.9531,1523,745.9531,1513,749.9531,1517,745.9531" style="stroke:#181818;stroke-width:1.0;"/><line style="stroke:#181818;stroke-width:1.0;" x1="924" x2="1519" y1="745.9531" y2="745.9531"/><text fill="#000000" font-family="sans-serif" font-size="13" lengthAdjust="spacing" textLength="219" x="931" y="741.0967">SetAllowedVesselTypes(vesselTypes)</text><line style="stroke:#181818;stroke-width:1.0;" x1="1535" x2="1577" y1="781.3047" y2="781.3047"/><line style="stroke:#181818;stroke-width:1.0;" x1="1577" x2="1577" y1="781.3047" y2="794.3047"/><line style="stroke:#181818;stroke-width:1.0;" x1="1530" x2="1577" y1="794.3047" y2="794.3047"/><polygon fill="#181818" points="1540,790.3047,1530,794.3047,1540,798.3047,1536,794.3047" style="stroke:#181818;stroke-width:1.0;"/><text fill="#000000" font-family="sans-serif" font-size="13" lengthAdjust="spacing" textLength="154" x="1542" y="776.4482">clear and add vessel types</text><polygon fill="#181818" points="1110,822.6563,1120,826.6563,1110,830.6563,1114,826.6563" style="stroke:#181818;stroke-width:1.0;"/><line style="stroke:#181818;stroke-width:1.0;" x1="924" x2="1116" y1="826.6563" y2="826.6563"/><text fill="#000000" font-family="sans-serif" font-size="13" lengthAdjust="spacing" textLength="96" x="931" y="821.7998">AddAsync(dock)</text><polygon fill="#181818" points="1401,853.0078,1411,857.0078,1401,861.0078,1405,857.0078" style="stroke:#181818;stroke-width:1.0;"/><line style="stroke:#181818;stroke-width:1.0;" x1="924" x2="1407" y1="857.0078" y2="857.0078"/><text fill="#000000" font-family="sans-serif" font-size="13" lengthAdjust="spacing" textLength="124" x="931" y="852.1514">SaveChangesAsync()</text><polygon fill="#181818" points="1721,883.3594,1731,887.3594,1721,891.3594,1725,887.3594" style="stroke:#181818;stroke-width:1.0;"/><line style="stroke:#181818;stroke-width:1.0;" x1="1413" x2="1727" y1="887.3594" y2="887.3594"/><text fill="#000000" font-family="sans-serif" font-size="13" lengthAdjust="spacing" textLength="32" x="1420" y="882.5029">insert</text><polygon fill="#181818" points="1424,913.7109,1414,917.7109,1424,921.7109,1420,917.7109" style="stroke:#181818;stroke-width:1.0;"/><line style="stroke:#181818;stroke-width:1.0;stroke-dasharray:2.0,2.0;" x1="1418" x2="1732" y1="917.7109" y2="917.7109"/><text fill="#000000" font-family="sans-serif" font-size="13" lengthAdjust="spacing" textLength="14" x="1430" y="912.8545">ok</text><polygon fill="#181818" points="574,960.4141,564,964.4141,574,968.4141,570,964.4141" style="stroke:#181818;stroke-width:1.0;"/><line style="stroke:#181818;stroke-width:1.0;stroke-dasharray:2.0,2.0;" x1="568" x2="923" y1="964.4141" y2="964.4141"/><text fill="#000000" font-family="sans-serif" font-size="13" lengthAdjust="spacing" textLength="194" x="580" y="943.2061">201 Created + DockResponseDto</text><text fill="#000000" font-family="sans-serif" font-size="13" lengthAdjust="spacing" textLength="337" x="580" y="959.5576">(Code, Name, Location, dimensions, allowedVesselTypes)</text><!--SRC=[ZLHDRzim3BthLn0vsLW-kc6dOYYGMjrGe5sB9Eqf5yLYKg6Av4goss3OVnzbEucTzB134ifvv7iadnnKq0ZpEOSHp72ZV407tEQla6GEHS2KCP47ws3mQ5s0QHbUh5DX1m_hjShH3K1uUFBeM25SKBagX0amcET22mSJc3xUGgOLcb0Zcx2FZNG-ioOugtLRCJk7pB2mNf6KNOtWipxa6Rr7lTWLU09yNfmWOoDy5Gdner75L-Tqa72x5Sga3O994SHAU8J1pKz8RiqzRecX-NTEPCXO70EChjecuH8U7-OBc8X2JMJiSMd-G6Ob3k6tsDBtdSr5KDPGX6OJNkw7mB6eV-_51tTY7IYSQctVKHxxkvKU_hAM9D8HKxEiH0QRndsfYauqH9Rj0PNGIiQ7VF6mD8d3jr8vbB1MgAKVGZqoLM44bkZJDfNFAFVcWtpXftvdyYGd_Kz5WQx3GwiW7A7hEL32MubknvhJQ5zbBRH79h6RneGEKDMTGQ3MF1JELagYP02r0DeUvVx2SBsZlXiDrENuiwcab7Ie7jSETVgPC82ZjAR-7JNuurZhYY0TeKsfM9pKUhl5lcHZ0wnjQQBcMdNN0jylBk1QIBfSnEt3qhH6hNCJdnwpBs4y7W_g6XtkZ1uWbOwVTYLKrU1xVKkFwnX2d4hZgnWTlBKqzN5li7ZOcop61wDrzydudkXWcrNfbI7bu4gDvEJan313EB5K6ekqvelkxst-FnOVsUSOplRia-eOzpREwN0Gdckazuym4eIKFQR-Rdbtij4AKobRbv7eliaRq2eA4nLcBy9iiBKaTRlg6aqPUXU4xXM8QVRrrFydRlbsyRMzoXA-GFFMyuMbOZnO6lhdRm-fjcWyXRG5SJQljCkP_GC0]--></g></svg>