<?xml version="1.0" encoding="us-ascii" standalone="no"?><svg xmlns="http://www.w3.org/2000/svg" xmlns:xlink="http://www.w3.org/1999/xlink" contentStyleType="text/css" height="703px" preserveAspectRatio="none" style="width:1808px;height:703px;background:#FFFFFF;" version="1.1" viewBox="0 0 1808 703" width="1808px" zoomAndPan="magnify"><defs/><g><text fill="#000000" font-family="sans-serif" font-size="14" font-weight="bold" lengthAdjust="spacing" textLength="358" x="726.25" y="29.5332">SSD - Search Docks (Name / Location / Vessel Type)</text><rect fill="#FFFFFF" height="419.7578" style="stroke:#181818;stroke-width:1.0;" width="10" x="675" y="183.9219"/><rect fill="#FFFFFF" height="160.1094" style="stroke:#181818;stroke-width:1.0;" width="10" x="957" y="239.625"/><rect fill="#FFFFFF" height="60.7031" style="stroke:#181818;stroke-width:1.0;" width="10" x="957" y="445.9219"/><rect fill="none" height="315.7031" style="stroke:#000000;stroke-width:1.5;" width="1189" x="612.5" y="198.9219"/><line style="stroke:#181818;stroke-width:0.5;stroke-dasharray:5.0,5.0;" x1="74" x2="74" y1="121.2188" y2="621.6797"/><line style="stroke:#181818;stroke-width:0.5;stroke-dasharray:5.0,5.0;" x1="423.5" x2="423.5" y1="121.2188" y2="621.6797"/><line style="stroke:#181818;stroke-width:0.5;stroke-dasharray:5.0,5.0;" x1="679.5" x2="679.5" y1="121.2188" y2="621.6797"/><line style="stroke:#181818;stroke-width:0.5;stroke-dasharray:5.0,5.0;" x1="962" x2="962" y1="121.2188" y2="621.6797"/><line style="stroke:#181818;stroke-width:0.5;stroke-dasharray:5.0,5.0;" x1="1237" x2="1237" y1="121.2188" y2="621.6797"/><line style="stroke:#181818;stroke-width:0.5;stroke-dasharray:5.0,5.0;" x1="1349" x2="1349" y1="121.2188" y2="621.6797"/><text fill="#000000" font-family="sans-serif" font-size="14" lengthAdjust="spacing" textLength="132" x="5" y="118.1426">Port Authority Officer</text><ellipse cx="74" cy="52.1094" fill="#E2E2F0" rx="8" ry="8" style="stroke:#181818;stroke-width:0.5;"/><path d="M74,60.1094 L74,87.1094 M61,68.1094 L87,68.1094 M74,87.1094 L61,102.1094 M74,87.1094 L87,102.1094 " fill="none" style="stroke:#181818;stroke-width:0.5;"/><text fill="#000000" font-family="sans-serif" font-size="14" lengthAdjust="spacing" textLength="132" x="5" y="635.2129">Port Authority Officer</text><ellipse cx="74" cy="646.7891" fill="#E2E2F0" rx="8" ry="8" style="stroke:#181818;stroke-width:0.5;"/><path d="M74,654.7891 L74,681.7891 M61,662.7891 L87,662.7891 M74,681.7891 L61,696.7891 M74,681.7891 L87,696.7891 " fill="none" style="stroke:#181818;stroke-width:0.5;"/><rect fill="#E2E2F0" height="31.6094" rx="2.5" ry="2.5" style="stroke:#181818;stroke-width:0.5;" width="127" x="360.5" y="88.6094"/><text fill="#000000" font-family="sans-serif" font-size="14" lengthAdjust="spacing" textLength="113" x="367.5" y="110.1426">Scalar / API Client</text><rect fill="#E2E2F0" height="31.6094" rx="2.5" ry="2.5" style="stroke:#181818;stroke-width:0.5;" width="127" x="360.5" y="620.6797"/><text fill="#000000" font-family="sans-serif" font-size="14" lengthAdjust="spacing" textLength="113" x="367.5" y="642.2129">Scalar / API Client</text><rect fill="#E2E2F0" height="31.6094" rx="2.5" ry="2.5" style="stroke:#181818;stroke-width:0.5;" width="115" x="622.5" y="88.6094"/><text fill="#000000" font-family="sans-serif" font-size="14" lengthAdjust="spacing" textLength="101" x="629.5" y="110.1426">DocksController</text><rect fill="#E2E2F0" height="31.6094" rx="2.5" ry="2.5" style="stroke:#181818;stroke-width:0.5;" width="115" x="622.5" y="620.6797"/><text fill="#000000" font-family="sans-serif" font-size="14" lengthAdjust="spacing" textLength="101" x="629.5" y="642.2129">DocksController</text><rect fill="#E2E2F0" height="31.6094" rx="2.5" ry="2.5" style="stroke:#181818;stroke-width:0.5;" width="114" x="905" y="88.6094"/><text fill="#000000" font-family="sans-serif" font-size="14" lengthAdjust="spacing" textLength="100" x="912" y="110.1426">DockRepository</text><rect fill="#E2E2F0" height="31.6094" rx="2.5" ry="2.5" style="stroke:#181818;stroke-width:0.5;" width="114" x="905" y="620.6797"/><text fill="#000000" font-family="sans-serif" font-size="14" lengthAdjust="spacing" textLength="100" x="912" y="642.2129">DockRepository</text><rect fill="#E2E2F0" height="31.6094" rx="2.5" ry="2.5" style="stroke:#181818;stroke-width:0.5;" width="106" x="1184" y="88.6094"/><text fill="#000000" font-family="sans-serif" font-size="14" lengthAdjust="spacing" textLength="92" x="1191" y="110.1426">PortDbContext</text><rect fill="#E2E2F0" height="31.6094" rx="2.5" ry="2.5" style="stroke:#181818;stroke-width:0.5;" width="106" x="1184" y="620.6797"/><text fill="#000000" font-family="sans-serif" font-size="14" lengthAdjust="spacing" textLength="92" x="1191" y="642.2129">PortDbContext</text><text fill="#000000" font-family="sans-serif" font-size="14" lengthAdjust="spacing" textLength="93" x="1300" y="118.1426">EF (InMemory)</text><path d="M1331.5,67.6094 C1331.5,57.6094 1349.5,57.6094 1349.5,57.6094 C1349.5,57.6094 1367.5,57.6094 1367.5,67.6094 L1367.5,93.6094 C1367.5,103.6094 1349.5,103.6094 1349.5,103.6094 C1349.5,103.6094 1331.5,103.6094 1331.5,93.6094 L1331.5,67.6094 " fill="#E2E2F0" style="stroke:#181818;stroke-width:1.5;"/><path d="M1331.5,67.6094 C1331.5,77.6094 1349.5,77.6094 1349.5,77.6094 C1349.5,77.6094 1367.5,77.6094 1367.5,67.6094 " fill="none" style="stroke:#181818;stroke-width:1.5;"/><text fill="#000000" font-family="sans-serif" font-size="14" lengthAdjust="spacing" textLength="93" x="1300" y="635.2129">EF (InMemory)</text><path d="M1331.5,648.2891 C1331.5,638.2891 1349.5,638.2891 1349.5,638.2891 C1349.5,638.2891 1367.5,638.2891 1367.5,648.2891 L1367.5,674.2891 C1367.5,684.2891 1349.5,684.2891 1349.5,684.2891 C1349.5,684.2891 1331.5,684.2891 1331.5,674.2891 L1331.5,648.2891 " fill="#E2E2F0" style="stroke:#181818;stroke-width:1.5;"/><path d="M1331.5,648.2891 C1331.5,658.2891 1349.5,658.2891 1349.5,658.2891 C1349.5,658.2891 1367.5,658.2891 1367.5,648.2891 " fill="none" style="stroke:#181818;stroke-width:1.5;"/><rect fill="#FFFFFF" height="419.7578" style="stroke:#181818;stroke-width:1.0;" width="10" x="675" y="183.9219"/><rect fill="#FFFFFF" height="160.1094" style="stroke:#181818;stroke-width:1.0;" width="10" x="957" y="239.625"/><rect fill="#FFFFFF" height="60.7031" style="stroke:#181818;stroke-width:1.0;" width="10" x="957" y="445.9219"/><polygon fill="#181818" points="412,149.5703,422,153.5703,412,157.5703,416,153.5703" style="stroke:#181818;stroke-width:1.0;"/><line style="stroke:#181818;stroke-width:1.0;" x1="74" x2="418" y1="153.5703" y2="153.5703"/><text fill="#000000" font-family="sans-serif" font-size="13" lengthAdjust="spacing" textLength="326" x="81" y="148.7139">GET /api/docks?name=...&amp;location=...&amp;vesselTypeId=...</text><polygon fill="#181818" points="663,179.9219,673,183.9219,663,187.9219,667,183.9219" style="stroke:#181818;stroke-width:1.0;"/><line style="stroke:#181818;stroke-width:1.0;" x1="424" x2="669" y1="183.9219" y2="183.9219"/><text fill="#000000" font-family="sans-serif" font-size="13" lengthAdjust="spacing" textLength="232" x="431" y="179.0654">GetAll(name?, location?, vesselTypeId?)</text><path d="M612.5,198.9219 L673.5,198.9219 L673.5,207.2734 L663.5,217.2734 L612.5,217.2734 L612.5,198.9219 " fill="#EEEEEE" style="stroke:#000000;stroke-width:1.5;"/><rect fill="none" height="315.7031" style="stroke:#000000;stroke-width:1.5;" width="1189" x="612.5" y="198.9219"/><text fill="#000000" font-family="sans-serif" font-size="13" font-weight="bold" lengthAdjust="spacing" textLength="16" x="627.5" y="213.417">alt</text><text fill="#000000" font-family="sans-serif" font-size="11" font-weight="bold" lengthAdjust="spacing" textLength="93" x="688.5" y="212.3408">[filters provided]</text><polygon fill="#181818" points="945,235.625,955,239.625,945,243.625,949,239.625" style="stroke:#181818;stroke-width:1.0;"/><line style="stroke:#181818;stroke-width:1.0;" x1="685" x2="951" y1="239.625" y2="239.625"/><text fill="#000000" font-family="sans-serif" font-size="13" lengthAdjust="spacing" textLength="253" x="692" y="234.7686">SearchAsync(name, location, vesselTypeId)</text><polygon fill="#181818" points="1225,265.9766,1235,269.9766,1225,273.9766,1229,269.9766" style="stroke:#181818;stroke-width:1.0;"/><line style="stroke:#181818;stroke-width:1.0;" x1="967" x2="1231" y1="269.9766" y2="269.9766"/><text fill="#000000" font-family="sans-serif" font-size="13" lengthAdjust="spacing" textLength="246" x="974" y="265.1201">query Docks.Include(AllowedVesselTypes)</text><polygon fill="#181818" points="1337.5,315.6797,1347.5,319.6797,1337.5,323.6797,1341.5,319.6797" style="stroke:#181818;stroke-width:1.0;"/><line style="stroke:#181818;stroke-width:1.0;" x1="1237" x2="1343.5" y1="319.6797" y2="319.6797"/><text fill="#000000" font-family="sans-serif" font-size="13" lengthAdjust="spacing" textLength="70" x="1244" y="314.8232">apply filters:</text><path d="M1354,282.9766 L1354,341.9766 L1786,341.9766 L1786,292.9766 L1776,282.9766 L1354,282.9766 " fill="#FEFFDD" style="stroke:#181818;stroke-width:0.5;"/><path d="M1776,282.9766 L1776,292.9766 L1786,292.9766 L1776,282.9766 " fill="#FEFFDD" style="stroke:#181818;stroke-width:0.5;"/><text fill="#000000" font-family="sans-serif" font-size="13" lengthAdjust="spacing" textLength="318" x="1360" y="301.4717">- if (name) where d.Name contains\nor d.Code contains</text><text fill="#000000" font-family="sans-serif" font-size="13" lengthAdjust="spacing" textLength="226" x="1360" y="317.8232">- if (location) where d.Location contains</text><text fill="#000000" font-family="sans-serif" font-size="13" lengthAdjust="spacing" textLength="411" x="1360" y="334.1748">- if (vesselTypeId) where d.AllowedVesselTypes\ncontains vesselTypeId</text><polygon fill="#181818" points="1248,365.3828,1238,369.3828,1248,373.3828,1244,369.3828" style="stroke:#181818;stroke-width:1.0;"/><line style="stroke:#181818;stroke-width:1.0;stroke-dasharray:2.0,2.0;" x1="1242" x2="1348.5" y1="369.3828" y2="369.3828"/><text fill="#000000" font-family="sans-serif" font-size="13" lengthAdjust="spacing" textLength="17" x="1254" y="364.5264">list</text><polygon fill="#181818" points="973,395.7344,963,399.7344,973,403.7344,969,399.7344" style="stroke:#181818;stroke-width:1.0;"/><line style="stroke:#181818;stroke-width:1.0;stroke-dasharray:2.0,2.0;" x1="967" x2="1236" y1="399.7344" y2="399.7344"/><text fill="#000000" font-family="sans-serif" font-size="13" lengthAdjust="spacing" textLength="67" x="979" y="394.8779">List&lt;Dock&gt;</text><line style="stroke:#000000;stroke-width:1.0;stroke-dasharray:2.0,2.0;" x1="612.5" x2="1801.5" y1="408.7344" y2="408.7344"/><text fill="#000000" font-family="sans-serif" font-size="11" font-weight="bold" lengthAdjust="spacing" textLength="58" x="617.5" y="420.1533">[no filters]</text><polygon fill="#181818" points="945,441.9219,955,445.9219,945,449.9219,949,445.9219" style="stroke:#181818;stroke-width:1.0;"/><line style="stroke:#181818;stroke-width:1.0;" x1="685" x2="951" y1="445.9219" y2="445.9219"/><text fill="#000000" font-family="sans-serif" font-size="13" lengthAdjust="spacing" textLength="227" x="692" y="441.0654">GetAllAsync(includeVesselTypes: true)</text><polygon fill="#181818" points="1337.5,472.2734,1347.5,476.2734,1337.5,480.2734,1341.5,476.2734" style="stroke:#181818;stroke-width:1.0;"/><line style="stroke:#181818;stroke-width:1.0;" x1="967" x2="1343.5" y1="476.2734" y2="476.2734"/><text fill="#000000" font-family="sans-serif" font-size="13" lengthAdjust="spacing" textLength="49" x="974" y="471.417">query all</text><polygon fill="#181818" points="973,502.625,963,506.625,973,510.625,969,506.625" style="stroke:#181818;stroke-width:1.0;"/><line style="stroke:#181818;stroke-width:1.0;stroke-dasharray:2.0,2.0;" x1="967" x2="1348.5" y1="506.625" y2="506.625"/><text fill="#000000" font-family="sans-serif" font-size="13" lengthAdjust="spacing" textLength="67" x="979" y="501.7686">List&lt;Dock&gt;</text><line style="stroke:#181818;stroke-width:1.0;" x1="685" x2="727" y1="543.9766" y2="543.9766"/><line style="stroke:#181818;stroke-width:1.0;" x1="727" x2="727" y1="543.9766" y2="556.9766"/><line style="stroke:#181818;stroke-width:1.0;" x1="686" x2="727" y1="556.9766" y2="556.9766"/><polygon fill="#181818" points="696,552.9766,686,556.9766,696,560.9766,692,556.9766" style="stroke:#181818;stroke-width:1.0;"/><text fill="#000000" font-family="sans-serif" font-size="13" lengthAdjust="spacing" textLength="189" x="692" y="539.1201">map to List&lt;DockResponseDto&gt;</text><polygon fill="#181818" points="435,599.6797,425,603.6797,435,607.6797,431,603.6797" style="stroke:#181818;stroke-width:1.0;"/><line style="stroke:#181818;stroke-width:1.0;stroke-dasharray:2.0,2.0;" x1="429" x2="679" y1="603.6797" y2="603.6797"/><text fill="#000000" font-family="sans-serif" font-size="13" lengthAdjust="spacing" textLength="176" x="441" y="582.4717">200 OK [DockResponseDto...]</text><text fill="#000000" font-family="sans-serif" font-size="13" lengthAdjust="spacing" textLength="154" x="441" y="598.8232">(with allowed vessel types)</text><!--SRC=[XL9DZzem5BpxLpnng40gOTKZQa4esLQes-wAxEwbz63YHx5gxDH-GFFl-vmF84LLRuuzCvatyqYJGSZp3CQGe_J53Z9N_0mm_2ht21DuS8KaxImVNp44DF1SbJWIGXRaF0oUd2TO76ZdlAOA7hTRNQ0VW0pm4j2BKdhIXIwb9HZaXJJIizJYQGcfqMYfHZR7FhQsaJfBtXdJAgQta1MMBcYsKjM8RDM7H7lP9ihWx-PVsKOeIN8Z0yBW_YCCb_OBxfa_gfzpba8XedSOprfdC8LFzyymaQMUgEXhRZcT3qcIl35jFlN7iKue1hHKyKAqz2WKDP0MnWmZT_uMEYOVhtdpKOnM7oKXpoka8TXgG-W3bDuTjK8bWELOCrknQDFQ8bIsg9KlmdtT4RFEmXmJH7eKsR38hmFwgca-MTh271GEsQexeNezQuGemN0crIanJvQbgJf_KtwsZjMz_h4Z_XY3ta9jQWId7J939VLQ5To7r3QiBQ-GIbAdBdTdNZV6XNlUnHjiRz0p_dQ2jUselMnO1wsgpVEn6MxSPMDqe7RmBlC7ldeVqvhnWyBhMD7mNbdNPTAhgkc_gKetALzvcmBv0_whfYxnfYbfJD_e_rnP9KJQxU5Uba3kWbzXA9qDc96RHTJrth-xkuF7p_3jBnmlz_Ur7PuqxQAP67ERA52pAbS6qZy0]--></g></svg>