<?xml version="1.0" encoding="us-ascii" standalone="no"?><svg xmlns="http://www.w3.org/2000/svg" xmlns:xlink="http://www.w3.org/1999/xlink" contentStyleType="text/css" height="1325px" preserveAspectRatio="none" style="width:2353px;height:1325px;background:#FFFFFF;" version="1.1" viewBox="0 0 2353 1325" width="2353px" zoomAndPan="magnify"><defs/><g><text fill="#000000" font-family="sans-serif" font-size="14" font-weight="bold" lengthAdjust="spacing" textLength="382" x="978.5" y="24.5332">Class Diagram - US 2.2.1 Create &amp; Update Vessel Types</text><!--class VesselType--><g id="elem_VesselType"><rect codeLine="4" fill="#F1F1F1" height="294.5313" id="VesselType" rx="2.5" ry="2.5" style="stroke:#181818;stroke-width:0.5;" width="1053" x="7" y="650.6094"/><ellipse cx="492.25" cy="666.6094" fill="#ADD1B2" rx="11" ry="11" style="stroke:#181818;stroke-width:1.0;"/><path d="M495.0156,662.4844 Q495.1719,662.2656 495.3594,662.1563 Q495.5469,662.0469 495.7656,662.0469 Q496.1406,662.0469 496.375,662.3125 Q496.6094,662.5625 496.6094,663.1719 L496.6094,664.625 Q496.6094,665.2344 496.375,665.5 Q496.1406,665.7656 495.7656,665.7656 Q495.4219,665.7656 495.2188,665.5625 Q495.0156,665.375 494.9063,664.8594 Q494.8594,664.5 494.6719,664.3125 Q494.3438,663.9375 493.7344,663.7188 Q493.125,663.5 492.5,663.5 Q491.7344,663.5 491.0938,663.8281 Q490.4688,664.1563 489.9688,664.9063 Q489.4844,665.6563 489.4844,666.6875 L489.4844,667.7813 Q489.4844,669.0156 490.375,669.8438 Q491.2656,670.6563 492.8594,670.6563 Q493.7969,670.6563 494.4531,670.4063 Q494.8438,670.25 495.2656,669.8125 Q495.5313,669.5469 495.6719,669.4688 Q495.8281,669.3906 496.0313,669.3906 Q496.3594,669.3906 496.6094,669.6563 Q496.875,669.9063 496.875,670.25 Q496.875,670.5938 496.5313,671 Q496.0313,671.5781 495.2344,671.9063 Q494.1563,672.3594 492.8594,672.3594 Q491.3438,672.3594 490.1406,671.7344 Q489.1563,671.2344 488.4688,670.1719 Q487.7813,669.0938 487.7813,667.8125 L487.7813,666.6563 Q487.7813,665.3281 488.3906,664.1875 Q489.0156,663.0313 490.1094,662.4219 Q491.2031,661.7969 492.4375,661.7969 Q493.1719,661.7969 493.8125,661.9688 Q494.4688,662.125 495.0156,662.4844 Z " fill="#000000"/><text fill="#000000" font-family="sans-serif" font-size="14" lengthAdjust="spacing" textLength="74" x="512.75" y="672.3379">VesselType</text><line style="stroke:#181818;stroke-width:0.5;" x1="8" x2="1059" y1="682.6094" y2="682.6094"/><ellipse cx="18" cy="696.9141" fill="none" rx="3" ry="3" style="stroke:#038048;stroke-width:1.0;"/><text fill="#000000" font-family="sans-serif" font-size="14" lengthAdjust="spacing" textLength="124" x="27" y="701.1426">string VesselTypeId</text><ellipse cx="18" cy="714.5234" fill="none" rx="3" ry="3" style="stroke:#038048;stroke-width:1.0;"/><text fill="#000000" font-family="sans-serif" font-size="14" lengthAdjust="spacing" textLength="75" x="27" y="718.752">string Name</text><ellipse cx="18" cy="732.1328" fill="none" rx="3" ry="3" style="stroke:#038048;stroke-width:1.0;"/><text fill="#000000" font-family="sans-serif" font-size="14" lengthAdjust="spacing" textLength="110" x="27" y="736.3613">string Description</text><ellipse cx="18" cy="749.7422" fill="none" rx="3" ry="3" style="stroke:#038048;stroke-width:1.0;"/><text fill="#000000" font-family="sans-serif" font-size="14" lengthAdjust="spacing" textLength="126" x="27" y="753.9707">int MaxCapacityTEU</text><ellipse cx="18" cy="767.3516" fill="none" rx="3" ry="3" style="stroke:#038048;stroke-width:1.0;"/><text fill="#000000" font-family="sans-serif" font-size="14" lengthAdjust="spacing" textLength="78" x="27" y="771.5801">int MaxRows</text><ellipse cx="18" cy="784.9609" fill="none" rx="3" ry="3" style="stroke:#038048;stroke-width:1.0;"/><text fill="#000000" font-family="sans-serif" font-size="14" lengthAdjust="spacing" textLength="75" x="27" y="789.1895">int MaxBays</text><ellipse cx="18" cy="802.5703" fill="none" rx="3" ry="3" style="stroke:#038048;stroke-width:1.0;"/><text fill="#000000" font-family="sans-serif" font-size="14" lengthAdjust="spacing" textLength="76" x="27" y="806.7988">int MaxTiers</text><ellipse cx="18" cy="820.1797" fill="none" rx="3" ry="3" style="stroke:#038048;stroke-width:1.0;"/><text fill="#000000" font-family="sans-serif" font-size="14" lengthAdjust="spacing" textLength="121" x="27" y="824.4082">decimal MaxLength</text><ellipse cx="18" cy="837.7891" fill="none" rx="3" ry="3" style="stroke:#038048;stroke-width:1.0;"/><text fill="#000000" font-family="sans-serif" font-size="14" lengthAdjust="spacing" textLength="113" x="27" y="842.0176">decimal MaxBeam</text><ellipse cx="18" cy="855.3984" fill="none" rx="3" ry="3" style="stroke:#038048;stroke-width:1.0;"/><text fill="#000000" font-family="sans-serif" font-size="14" lengthAdjust="spacing" textLength="108" x="27" y="859.627">decimal MaxDraft</text><ellipse cx="18" cy="873.0078" fill="none" rx="3" ry="3" style="stroke:#038048;stroke-width:1.0;"/><text fill="#000000" font-family="sans-serif" font-size="14" lengthAdjust="spacing" textLength="176" x="27" y="877.2363">ICollection&lt;Vessel&gt; Vessels</text><line style="stroke:#181818;stroke-width:1.0;" x1="8" x2="1059" y1="884.3125" y2="884.3125"/><ellipse cx="18" cy="898.6172" fill="#84BE84" rx="3" ry="3" style="stroke:#038048;stroke-width:1.0;"/><text fill="#000000" font-family="sans-serif" font-size="14" lengthAdjust="spacing" textLength="1027" x="27" y="902.8457">VesselType(string name, string description, int maxCapacityTEU, int maxRows, int maxBays, int maxTiers, decimal maxLength, decimal maxBeam, decimal maxDraft)</text><ellipse cx="18" cy="916.2266" fill="#84BE84" rx="3" ry="3" style="stroke:#038048;stroke-width:1.0;"/><text fill="#000000" font-family="sans-serif" font-size="14" lengthAdjust="spacing" textLength="1018" x="27" y="920.4551">Update(string? description, int? maxCapacityTEU, int? maxRows, int? maxBays, int? maxTiers, decimal? maxLength, decimal? maxBeam, decimal? maxDraft) : void</text><ellipse cx="18" cy="933.8359" fill="#84BE84" rx="3" ry="3" style="stroke:#038048;stroke-width:1.0;"/><text fill="#000000" font-family="sans-serif" font-size="14" lengthAdjust="spacing" textLength="203" x="27" y="938.0645">UpdateName(string name) : void</text></g><!--class Vessel--><g id="elem_Vessel"><rect codeLine="22" fill="#F1F1F1" height="294.5313" id="Vessel" rx="2.5" ry="2.5" style="stroke:#181818;stroke-width:0.5;" width="978" x="502.5" y="1023.6094"/><ellipse cx="966.25" cy="1039.6094" fill="#ADD1B2" rx="11" ry="11" style="stroke:#181818;stroke-width:1.0;"/><path d="M969.0156,1035.4844 Q969.1719,1035.2656 969.3594,1035.1563 Q969.5469,1035.0469 969.7656,1035.0469 Q970.1406,1035.0469 970.375,1035.3125 Q970.6094,1035.5625 970.6094,1036.1719 L970.6094,1037.625 Q970.6094,1038.2344 970.375,1038.5 Q970.1406,1038.7656 969.7656,1038.7656 Q969.4219,1038.7656 969.2188,1038.5625 Q969.0156,1038.375 968.9063,1037.8594 Q968.8594,1037.5 968.6719,1037.3125 Q968.3438,1036.9375 967.7344,1036.7188 Q967.125,1036.5 966.5,1036.5 Q965.7344,1036.5 965.0938,1036.8281 Q964.4688,1037.1563 963.9688,1037.9063 Q963.4844,1038.6563 963.4844,1039.6875 L963.4844,1040.7813 Q963.4844,1042.0156 964.375,1042.8438 Q965.2656,1043.6563 966.8594,1043.6563 Q967.7969,1043.6563 968.4531,1043.4063 Q968.8438,1043.25 969.2656,1042.8125 Q969.5313,1042.5469 969.6719,1042.4688 Q969.8281,1042.3906 970.0313,1042.3906 Q970.3594,1042.3906 970.6094,1042.6563 Q970.875,1042.9063 970.875,1043.25 Q970.875,1043.5938 970.5313,1044 Q970.0313,1044.5781 969.2344,1044.9063 Q968.1563,1045.3594 966.8594,1045.3594 Q965.3438,1045.3594 964.1406,1044.7344 Q963.1563,1044.2344 962.4688,1043.1719 Q961.7813,1042.0938 961.7813,1040.8125 L961.7813,1039.6563 Q961.7813,1038.3281 962.3906,1037.1875 Q963.0156,1036.0313 964.1094,1035.4219 Q965.2031,1034.7969 966.4375,1034.7969 Q967.1719,1034.7969 967.8125,1034.9688 Q968.4688,1035.125 969.0156,1035.4844 Z " fill="#000000"/><text fill="#000000" font-family="sans-serif" font-size="14" lengthAdjust="spacing" textLength="42" x="986.75" y="1045.3379">Vessel</text><line style="stroke:#181818;stroke-width:0.5;" x1="503.5" x2="1479.5" y1="1055.6094" y2="1055.6094"/><ellipse cx="513.5" cy="1069.9141" fill="none" rx="3" ry="3" style="stroke:#038048;stroke-width:1.0;"/><text fill="#000000" font-family="sans-serif" font-size="14" lengthAdjust="spacing" textLength="110" x="522.5" y="1074.1426">string ImoNumber</text><ellipse cx="513.5" cy="1087.5234" fill="none" rx="3" ry="3" style="stroke:#038048;stroke-width:1.0;"/><text fill="#000000" font-family="sans-serif" font-size="14" lengthAdjust="spacing" textLength="75" x="522.5" y="1091.752">string Name</text><ellipse cx="513.5" cy="1105.1328" fill="none" rx="3" ry="3" style="stroke:#038048;stroke-width:1.0;"/><text fill="#000000" font-family="sans-serif" font-size="14" lengthAdjust="spacing" textLength="124" x="522.5" y="1109.3613">string VesselTypeId</text><ellipse cx="513.5" cy="1122.7422" fill="none" rx="3" ry="3" style="stroke:#038048;stroke-width:1.0;"/><text fill="#000000" font-family="sans-serif" font-size="14" lengthAdjust="spacing" textLength="160" x="522.5" y="1126.9707">VesselType? VesselType</text><ellipse cx="513.5" cy="1140.3516" fill="none" rx="3" ry="3" style="stroke:#038048;stroke-width:1.0;"/><text fill="#000000" font-family="sans-serif" font-size="14" lengthAdjust="spacing" textLength="186" x="522.5" y="1144.5801">OrganizationId OrganizationId</text><ellipse cx="513.5" cy="1157.9609" fill="none" rx="3" ry="3" style="stroke:#038048;stroke-width:1.0;"/><text fill="#000000" font-family="sans-serif" font-size="14" lengthAdjust="spacing" textLength="172" x="522.5" y="1162.1895">Organization? Organization</text><ellipse cx="513.5" cy="1175.5703" fill="none" rx="3" ry="3" style="stroke:#038048;stroke-width:1.0;"/><text fill="#000000" font-family="sans-serif" font-size="14" lengthAdjust="spacing" textLength="96" x="522.5" y="1179.7988">decimal Length</text><ellipse cx="513.5" cy="1193.1797" fill="none" rx="3" ry="3" style="stroke:#038048;stroke-width:1.0;"/><text fill="#000000" font-family="sans-serif" font-size="14" lengthAdjust="spacing" textLength="88" x="522.5" y="1197.4082">decimal Beam</text><ellipse cx="513.5" cy="1210.7891" fill="none" rx="3" ry="3" style="stroke:#038048;stroke-width:1.0;"/><text fill="#000000" font-family="sans-serif" font-size="14" lengthAdjust="spacing" textLength="83" x="522.5" y="1215.0176">decimal Draft</text><ellipse cx="513.5" cy="1228.3984" fill="none" rx="3" ry="3" style="stroke:#038048;stroke-width:1.0;"/><text fill="#000000" font-family="sans-serif" font-size="14" lengthAdjust="spacing" textLength="101" x="522.5" y="1232.627">int CapacityTEU</text><ellipse cx="513.5" cy="1246.0078" fill="none" rx="3" ry="3" style="stroke:#038048;stroke-width:1.0;"/><text fill="#000000" font-family="sans-serif" font-size="14" lengthAdjust="spacing" textLength="366" x="522.5" y="1250.2363">ICollection&lt;VesselVisitNotification&gt; VesselVisitNotifications</text><line style="stroke:#181818;stroke-width:1.0;" x1="503.5" x2="1479.5" y1="1257.3125" y2="1257.3125"/><ellipse cx="513.5" cy="1271.6172" fill="#84BE84" rx="3" ry="3" style="stroke:#038048;stroke-width:1.0;"/><text fill="#000000" font-family="sans-serif" font-size="14" lengthAdjust="spacing" textLength="952" x="522.5" y="1275.8457">Vessel(string imoNumber, string name, string vesselTypeId, OrganizationId organizationId, decimal length, decimal beam, decimal draft, int capacityTeu)</text><ellipse cx="513.5" cy="1289.2266" fill="#84BE84" rx="3" ry="3" style="stroke:#038048;stroke-width:1.0;"/><text fill="#000000" font-family="sans-serif" font-size="14" lengthAdjust="spacing" textLength="210" x="522.5" y="1293.4551">static IsValidImo(string imo) : bool</text><ellipse cx="513.5" cy="1306.8359" fill="#84BE84" rx="3" ry="3" style="stroke:#038048;stroke-width:1.0;"/><text fill="#000000" font-family="sans-serif" font-size="14" lengthAdjust="spacing" textLength="238" x="522.5" y="1311.0645">static NormalizeImo(string imo) : string</text></g><!--class PortDbContext--><g id="elem_PortDbContext"><rect codeLine="41" fill="#F1F1F1" height="153.6563" id="PortDbContext" rx="2.5" ry="2.5" style="stroke:#181818;stroke-width:0.5;" width="401" x="790" y="400.6094"/><ellipse cx="940.25" cy="416.6094" fill="#ADD1B2" rx="11" ry="11" style="stroke:#181818;stroke-width:1.0;"/><path d="M943.0156,412.4844 Q943.1719,412.2656 943.3594,412.1563 Q943.5469,412.0469 943.7656,412.0469 Q944.1406,412.0469 944.375,412.3125 Q944.6094,412.5625 944.6094,413.1719 L944.6094,414.625 Q944.6094,415.2344 944.375,415.5 Q944.1406,415.7656 943.7656,415.7656 Q943.4219,415.7656 943.2188,415.5625 Q943.0156,415.375 942.9063,414.8594 Q942.8594,414.5 942.6719,414.3125 Q942.3438,413.9375 941.7344,413.7188 Q941.125,413.5 940.5,413.5 Q939.7344,413.5 939.0938,413.8281 Q938.4688,414.1563 937.9688,414.9063 Q937.4844,415.6563 937.4844,416.6875 L937.4844,417.7813 Q937.4844,419.0156 938.375,419.8438 Q939.2656,420.6563 940.8594,420.6563 Q941.7969,420.6563 942.4531,420.4063 Q942.8438,420.25 943.2656,419.8125 Q943.5313,419.5469 943.6719,419.4688 Q943.8281,419.3906 944.0313,419.3906 Q944.3594,419.3906 944.6094,419.6563 Q944.875,419.9063 944.875,420.25 Q944.875,420.5938 944.5313,421 Q944.0313,421.5781 943.2344,421.9063 Q942.1563,422.3594 940.8594,422.3594 Q939.3438,422.3594 938.1406,421.7344 Q937.1563,421.2344 936.4688,420.1719 Q935.7813,419.0938 935.7813,417.8125 L935.7813,416.6563 Q935.7813,415.3281 936.3906,414.1875 Q937.0156,413.0313 938.1094,412.4219 Q939.2031,411.7969 940.4375,411.7969 Q941.1719,411.7969 941.8125,411.9688 Q942.4688,412.125 943.0156,412.4844 Z " fill="#000000"/><text fill="#000000" font-family="sans-serif" font-size="14" lengthAdjust="spacing" textLength="92" x="960.75" y="422.3379">PortDbContext</text><line style="stroke:#181818;stroke-width:0.5;" x1="791" x2="1190" y1="432.6094" y2="432.6094"/><ellipse cx="801" cy="446.9141" fill="none" rx="3" ry="3" style="stroke:#038048;stroke-width:1.0;"/><text fill="#000000" font-family="sans-serif" font-size="14" lengthAdjust="spacing" textLength="214" x="810" y="451.1426">DbSet&lt;VesselType&gt; VesselTypes</text><ellipse cx="801" cy="464.5234" fill="none" rx="3" ry="3" style="stroke:#038048;stroke-width:1.0;"/><text fill="#000000" font-family="sans-serif" font-size="14" lengthAdjust="spacing" textLength="150" x="810" y="468.752">DbSet&lt;Vessel&gt; Vessels</text><ellipse cx="801" cy="482.1328" fill="none" rx="3" ry="3" style="stroke:#038048;stroke-width:1.0;"/><text fill="#000000" font-family="sans-serif" font-size="14" lengthAdjust="spacing" textLength="226" x="810" y="486.3613">DbSet&lt;Organization&gt; Organizations</text><ellipse cx="801" cy="499.7422" fill="none" rx="3" ry="3" style="stroke:#038048;stroke-width:1.0;"/><text fill="#000000" font-family="sans-serif" font-size="14" lengthAdjust="spacing" textLength="124" x="810" y="503.9707">DbSet&lt;User&gt; Users</text><line style="stroke:#181818;stroke-width:1.0;" x1="791" x2="1190" y1="511.0469" y2="511.0469"/><ellipse cx="801" cy="525.3516" fill="#84BE84" rx="3" ry="3" style="stroke:#038048;stroke-width:1.0;"/><text fill="#000000" font-family="sans-serif" font-size="14" lengthAdjust="spacing" textLength="375" x="810" y="529.5801">PortDbContext(DbContextOptions&lt;PortDbContext&gt; options)</text><polygon fill="#FFFF44" points="801,537.9609,805,541.9609,801,545.9609,797,541.9609" style="stroke:#B38D22;stroke-width:1.0;"/><text fill="#000000" font-family="sans-serif" font-size="14" lengthAdjust="spacing" textLength="327" x="810" y="547.1895">OnModelCreating(ModelBuilder modelBuilder) : void</text></g><!--class VesselTypesController--><g id="elem_VesselTypesController"><rect codeLine="52" fill="#F1F1F1" height="241.7031" id="VesselTypesController" rx="2.5" ry="2.5" style="stroke:#181818;stroke-width:0.5;" width="1019" x="1009" y="45.6094"/><ellipse cx="1442.75" cy="61.6094" fill="#ADD1B2" rx="11" ry="11" style="stroke:#181818;stroke-width:1.0;"/><path d="M1445.5156,57.4844 Q1445.6719,57.2656 1445.8594,57.1563 Q1446.0469,57.0469 1446.2656,57.0469 Q1446.6406,57.0469 1446.875,57.3125 Q1447.1094,57.5625 1447.1094,58.1719 L1447.1094,59.625 Q1447.1094,60.2344 1446.875,60.5 Q1446.6406,60.7656 1446.2656,60.7656 Q1445.9219,60.7656 1445.7188,60.5625 Q1445.5156,60.375 1445.4063,59.8594 Q1445.3594,59.5 1445.1719,59.3125 Q1444.8438,58.9375 1444.2344,58.7188 Q1443.625,58.5 1443,58.5 Q1442.2344,58.5 1441.5938,58.8281 Q1440.9688,59.1563 1440.4688,59.9063 Q1439.9844,60.6563 1439.9844,61.6875 L1439.9844,62.7813 Q1439.9844,64.0156 1440.875,64.8438 Q1441.7656,65.6563 1443.3594,65.6563 Q1444.2969,65.6563 1444.9531,65.4063 Q1445.3438,65.25 1445.7656,64.8125 Q1446.0313,64.5469 1446.1719,64.4688 Q1446.3281,64.3906 1446.5313,64.3906 Q1446.8594,64.3906 1447.1094,64.6563 Q1447.375,64.9063 1447.375,65.25 Q1447.375,65.5938 1447.0313,66 Q1446.5313,66.5781 1445.7344,66.9063 Q1444.6563,67.3594 1443.3594,67.3594 Q1441.8438,67.3594 1440.6406,66.7344 Q1439.6563,66.2344 1438.9688,65.1719 Q1438.2813,64.0938 1438.2813,62.8125 L1438.2813,61.6563 Q1438.2813,60.3281 1438.8906,59.1875 Q1439.5156,58.0313 1440.6094,57.4219 Q1441.7031,56.7969 1442.9375,56.7969 Q1443.6719,56.7969 1444.3125,56.9688 Q1444.9688,57.125 1445.5156,57.4844 Z " fill="#000000"/><text fill="#000000" font-family="sans-serif" font-size="14" lengthAdjust="spacing" textLength="143" x="1463.25" y="67.3379">VesselTypesController</text><line style="stroke:#181818;stroke-width:0.5;" x1="1010" x2="2027" y1="77.6094" y2="77.6094"/><rect fill="none" height="6" style="stroke:#C82930;stroke-width:1.0;" width="6" x="1017" y="88.9141"/><text fill="#000000" font-family="sans-serif" font-size="14" lengthAdjust="spacing" textLength="149" x="1029" y="96.1426">PortDbContext _context</text><line style="stroke:#181818;stroke-width:1.0;" x1="1010" x2="2027" y1="103.2188" y2="103.2188"/><ellipse cx="1020" cy="117.5234" fill="#84BE84" rx="3" ry="3" style="stroke:#038048;stroke-width:1.0;"/><text fill="#000000" font-family="sans-serif" font-size="14" lengthAdjust="spacing" textLength="294" x="1029" y="121.752">VesselTypesController(PortDbContext context)</text><ellipse cx="1020" cy="135.1328" fill="#84BE84" rx="3" ry="3" style="stroke:#038048;stroke-width:1.0;"/><text fill="#000000" font-family="sans-serif" font-size="14" lengthAdjust="spacing" textLength="357" x="1029" y="139.3613">Create(CreateVesselTypeDto dto) : Task&lt;IActionResult&gt;</text><ellipse cx="1020" cy="152.7422" fill="#84BE84" rx="3" ry="3" style="stroke:#038048;stroke-width:1.0;"/><text fill="#000000" font-family="sans-serif" font-size="14" lengthAdjust="spacing" textLength="419" x="1029" y="156.9707">Update(string id, UpdateVesselTypeDto dto) : Task&lt;IActionResult&gt;</text><ellipse cx="1020" cy="170.3516" fill="#84BE84" rx="3" ry="3" style="stroke:#038048;stroke-width:1.0;"/><text fill="#000000" font-family="sans-serif" font-size="14" lengthAdjust="spacing" textLength="251" x="1029" y="174.5801">GetById(string id) : Task&lt;IActionResult&gt;</text><ellipse cx="1020" cy="187.9609" fill="#84BE84" rx="3" ry="3" style="stroke:#038048;stroke-width:1.0;"/><text fill="#000000" font-family="sans-serif" font-size="14" lengthAdjust="spacing" textLength="189" x="1029" y="192.1895">GetAll() : Task&lt;IActionResult&gt;</text><ellipse cx="1020" cy="205.5703" fill="#84BE84" rx="3" ry="3" style="stroke:#038048;stroke-width:1.0;"/><text fill="#000000" font-family="sans-serif" font-size="14" lengthAdjust="spacing" textLength="621" x="1029" y="209.7988">Search(string? nameFilter, string? descriptionFilter, string? searchOperator) : Task&lt;IActionResult&gt;</text><ellipse cx="1020" cy="223.1797" fill="#84BE84" rx="3" ry="3" style="stroke:#038048;stroke-width:1.0;"/><text fill="#000000" font-family="sans-serif" font-size="14" lengthAdjust="spacing" textLength="242" x="1029" y="227.4082">Delete(string id) : Task&lt;IActionResult&gt;</text><text fill="#000000" font-family="sans-serif" font-size="14" lengthAdjust="spacing" textLength="10" x="1029" y="245.0176">--</text><rect fill="#F24D5C" height="6" style="stroke:#C82930;stroke-width:1.0;" width="6" x="1017" y="255.3984"/><text fill="#000000" font-family="sans-serif" font-size="14" lengthAdjust="spacing" textLength="352" x="1029" y="262.627">ToResponse(VesselType vt) : VesselTypeResponseDto</text><rect fill="#F24D5C" height="6" style="stroke:#C82930;stroke-width:1.0;" width="6" x="1017" y="273.0078"/><text fill="#000000" font-family="sans-serif" font-size="14" lengthAdjust="spacing" textLength="993" x="1029" y="280.2363">ValidatePositiveValues(int? maxCapacityTEU, int? maxRows, int? maxBays, int? maxTiers, decimal? maxLength, decimal? maxBeam, decimal? maxDraft) : bool</text></g><!--class CreateVesselTypeDto--><g id="elem_CreateVesselTypeDto"><rect codeLine="68" fill="#F1F1F1" height="206.4844" id="CreateVesselTypeDto" rx="2.5" ry="2.5" style="stroke:#181818;stroke-width:0.5;" width="171" x="1226" y="374.6094"/><ellipse cx="1241" cy="390.6094" fill="#ADD1B2" rx="11" ry="11" style="stroke:#181818;stroke-width:1.0;"/><path d="M1243.7656,386.4844 Q1243.9219,386.2656 1244.1094,386.1563 Q1244.2969,386.0469 1244.5156,386.0469 Q1244.8906,386.0469 1245.125,386.3125 Q1245.3594,386.5625 1245.3594,387.1719 L1245.3594,388.625 Q1245.3594,389.2344 1245.125,389.5 Q1244.8906,389.7656 1244.5156,389.7656 Q1244.1719,389.7656 1243.9688,389.5625 Q1243.7656,389.375 1243.6563,388.8594 Q1243.6094,388.5 1243.4219,388.3125 Q1243.0938,387.9375 1242.4844,387.7188 Q1241.875,387.5 1241.25,387.5 Q1240.4844,387.5 1239.8438,387.8281 Q1239.2188,388.1563 1238.7188,388.9063 Q1238.2344,389.6563 1238.2344,390.6875 L1238.2344,391.7813 Q1238.2344,393.0156 1239.125,393.8438 Q1240.0156,394.6563 1241.6094,394.6563 Q1242.5469,394.6563 1243.2031,394.4063 Q1243.5938,394.25 1244.0156,393.8125 Q1244.2813,393.5469 1244.4219,393.4688 Q1244.5781,393.3906 1244.7813,393.3906 Q1245.1094,393.3906 1245.3594,393.6563 Q1245.625,393.9063 1245.625,394.25 Q1245.625,394.5938 1245.2813,395 Q1244.7813,395.5781 1243.9844,395.9063 Q1242.9063,396.3594 1241.6094,396.3594 Q1240.0938,396.3594 1238.8906,395.7344 Q1237.9063,395.2344 1237.2188,394.1719 Q1236.5313,393.0938 1236.5313,391.8125 L1236.5313,390.6563 Q1236.5313,389.3281 1237.1406,388.1875 Q1237.7656,387.0313 1238.8594,386.4219 Q1239.9531,385.7969 1241.1875,385.7969 Q1241.9219,385.7969 1242.5625,385.9688 Q1243.2188,386.125 1243.7656,386.4844 Z " fill="#000000"/><text fill="#000000" font-family="sans-serif" font-size="14" lengthAdjust="spacing" textLength="139" x="1255" y="396.3379">CreateVesselTypeDto</text><line style="stroke:#181818;stroke-width:0.5;" x1="1227" x2="1396" y1="406.6094" y2="406.6094"/><ellipse cx="1237" cy="420.9141" fill="none" rx="3" ry="3" style="stroke:#038048;stroke-width:1.0;"/><text fill="#000000" font-family="sans-serif" font-size="14" lengthAdjust="spacing" textLength="75" x="1246" y="425.1426">string Name</text><ellipse cx="1237" cy="438.5234" fill="none" rx="3" ry="3" style="stroke:#038048;stroke-width:1.0;"/><text fill="#000000" font-family="sans-serif" font-size="14" lengthAdjust="spacing" textLength="110" x="1246" y="442.752">string Description</text><ellipse cx="1237" cy="456.1328" fill="none" rx="3" ry="3" style="stroke:#038048;stroke-width:1.0;"/><text fill="#000000" font-family="sans-serif" font-size="14" lengthAdjust="spacing" textLength="126" x="1246" y="460.3613">int MaxCapacityTEU</text><ellipse cx="1237" cy="473.7422" fill="none" rx="3" ry="3" style="stroke:#038048;stroke-width:1.0;"/><text fill="#000000" font-family="sans-serif" font-size="14" lengthAdjust="spacing" textLength="78" x="1246" y="477.9707">int MaxRows</text><ellipse cx="1237" cy="491.3516" fill="none" rx="3" ry="3" style="stroke:#038048;stroke-width:1.0;"/><text fill="#000000" font-family="sans-serif" font-size="14" lengthAdjust="spacing" textLength="75" x="1246" y="495.5801">int MaxBays</text><ellipse cx="1237" cy="508.9609" fill="none" rx="3" ry="3" style="stroke:#038048;stroke-width:1.0;"/><text fill="#000000" font-family="sans-serif" font-size="14" lengthAdjust="spacing" textLength="76" x="1246" y="513.1895">int MaxTiers</text><ellipse cx="1237" cy="526.5703" fill="none" rx="3" ry="3" style="stroke:#038048;stroke-width:1.0;"/><text fill="#000000" font-family="sans-serif" font-size="14" lengthAdjust="spacing" textLength="121" x="1246" y="530.7988">decimal MaxLength</text><ellipse cx="1237" cy="544.1797" fill="none" rx="3" ry="3" style="stroke:#038048;stroke-width:1.0;"/><text fill="#000000" font-family="sans-serif" font-size="14" lengthAdjust="spacing" textLength="113" x="1246" y="548.4082">decimal MaxBeam</text><ellipse cx="1237" cy="561.7891" fill="none" rx="3" ry="3" style="stroke:#038048;stroke-width:1.0;"/><text fill="#000000" font-family="sans-serif" font-size="14" lengthAdjust="spacing" textLength="108" x="1246" y="566.0176">decimal MaxDraft</text><line style="stroke:#181818;stroke-width:0.5;" x1="1227" x2="1396" y1="573.0938" y2="573.0938"/></g><!--class UpdateVesselTypeDto--><g id="elem_UpdateVesselTypeDto"><rect codeLine="80" fill="#F1F1F1" height="206.4844" id="UpdateVesselTypeDto" rx="2.5" ry="2.5" style="stroke:#181818;stroke-width:0.5;" width="173" x="1432" y="374.6094"/><ellipse cx="1447" cy="390.6094" fill="#ADD1B2" rx="11" ry="11" style="stroke:#181818;stroke-width:1.0;"/><path d="M1449.7656,386.4844 Q1449.9219,386.2656 1450.1094,386.1563 Q1450.2969,386.0469 1450.5156,386.0469 Q1450.8906,386.0469 1451.125,386.3125 Q1451.3594,386.5625 1451.3594,387.1719 L1451.3594,388.625 Q1451.3594,389.2344 1451.125,389.5 Q1450.8906,389.7656 1450.5156,389.7656 Q1450.1719,389.7656 1449.9688,389.5625 Q1449.7656,389.375 1449.6563,388.8594 Q1449.6094,388.5 1449.4219,388.3125 Q1449.0938,387.9375 1448.4844,387.7188 Q1447.875,387.5 1447.25,387.5 Q1446.4844,387.5 1445.8438,387.8281 Q1445.2188,388.1563 1444.7188,388.9063 Q1444.2344,389.6563 1444.2344,390.6875 L1444.2344,391.7813 Q1444.2344,393.0156 1445.125,393.8438 Q1446.0156,394.6563 1447.6094,394.6563 Q1448.5469,394.6563 1449.2031,394.4063 Q1449.5938,394.25 1450.0156,393.8125 Q1450.2813,393.5469 1450.4219,393.4688 Q1450.5781,393.3906 1450.7813,393.3906 Q1451.1094,393.3906 1451.3594,393.6563 Q1451.625,393.9063 1451.625,394.25 Q1451.625,394.5938 1451.2813,395 Q1450.7813,395.5781 1449.9844,395.9063 Q1448.9063,396.3594 1447.6094,396.3594 Q1446.0938,396.3594 1444.8906,395.7344 Q1443.9063,395.2344 1443.2188,394.1719 Q1442.5313,393.0938 1442.5313,391.8125 L1442.5313,390.6563 Q1442.5313,389.3281 1443.1406,388.1875 Q1443.7656,387.0313 1444.8594,386.4219 Q1445.9531,385.7969 1447.1875,385.7969 Q1447.9219,385.7969 1448.5625,385.9688 Q1449.2188,386.125 1449.7656,386.4844 Z " fill="#000000"/><text fill="#000000" font-family="sans-serif" font-size="14" lengthAdjust="spacing" textLength="141" x="1461" y="396.3379">UpdateVesselTypeDto</text><line style="stroke:#181818;stroke-width:0.5;" x1="1433" x2="1604" y1="406.6094" y2="406.6094"/><ellipse cx="1443" cy="420.9141" fill="none" rx="3" ry="3" style="stroke:#038048;stroke-width:1.0;"/><text fill="#000000" font-family="sans-serif" font-size="14" lengthAdjust="spacing" textLength="83" x="1452" y="425.1426">string? Name</text><ellipse cx="1443" cy="438.5234" fill="none" rx="3" ry="3" style="stroke:#038048;stroke-width:1.0;"/><text fill="#000000" font-family="sans-serif" font-size="14" lengthAdjust="spacing" textLength="118" x="1452" y="442.752">string? Description</text><ellipse cx="1443" cy="456.1328" fill="none" rx="3" ry="3" style="stroke:#038048;stroke-width:1.0;"/><text fill="#000000" font-family="sans-serif" font-size="14" lengthAdjust="spacing" textLength="134" x="1452" y="460.3613">int? MaxCapacityTEU</text><ellipse cx="1443" cy="473.7422" fill="none" rx="3" ry="3" style="stroke:#038048;stroke-width:1.0;"/><text fill="#000000" font-family="sans-serif" font-size="14" lengthAdjust="spacing" textLength="86" x="1452" y="477.9707">int? MaxRows</text><ellipse cx="1443" cy="491.3516" fill="none" rx="3" ry="3" style="stroke:#038048;stroke-width:1.0;"/><text fill="#000000" font-family="sans-serif" font-size="14" lengthAdjust="spacing" textLength="83" x="1452" y="495.5801">int? MaxBays</text><ellipse cx="1443" cy="508.9609" fill="none" rx="3" ry="3" style="stroke:#038048;stroke-width:1.0;"/><text fill="#000000" font-family="sans-serif" font-size="14" lengthAdjust="spacing" textLength="84" x="1452" y="513.1895">int? MaxTiers</text><ellipse cx="1443" cy="526.5703" fill="none" rx="3" ry="3" style="stroke:#038048;stroke-width:1.0;"/><text fill="#000000" font-family="sans-serif" font-size="14" lengthAdjust="spacing" textLength="129" x="1452" y="530.7988">decimal? MaxLength</text><ellipse cx="1443" cy="544.1797" fill="none" rx="3" ry="3" style="stroke:#038048;stroke-width:1.0;"/><text fill="#000000" font-family="sans-serif" font-size="14" lengthAdjust="spacing" textLength="121" x="1452" y="548.4082">decimal? MaxBeam</text><ellipse cx="1443" cy="561.7891" fill="none" rx="3" ry="3" style="stroke:#038048;stroke-width:1.0;"/><text fill="#000000" font-family="sans-serif" font-size="14" lengthAdjust="spacing" textLength="116" x="1452" y="566.0176">decimal? MaxDraft</text><line style="stroke:#181818;stroke-width:0.5;" x1="1433" x2="1604" y1="573.0938" y2="573.0938"/></g><!--class VesselTypeResponseDto--><g id="elem_VesselTypeResponseDto"><rect codeLine="92" fill="#F1F1F1" height="224.0938" id="VesselTypeResponseDto" rx="2.5" ry="2.5" style="stroke:#181818;stroke-width:0.5;" width="192" x="1640.5" y="365.6094"/><ellipse cx="1655.5" cy="381.6094" fill="#ADD1B2" rx="11" ry="11" style="stroke:#181818;stroke-width:1.0;"/><path d="M1658.2656,377.4844 Q1658.4219,377.2656 1658.6094,377.1563 Q1658.7969,377.0469 1659.0156,377.0469 Q1659.3906,377.0469 1659.625,377.3125 Q1659.8594,377.5625 1659.8594,378.1719 L1659.8594,379.625 Q1659.8594,380.2344 1659.625,380.5 Q1659.3906,380.7656 1659.0156,380.7656 Q1658.6719,380.7656 1658.4688,380.5625 Q1658.2656,380.375 1658.1563,379.8594 Q1658.1094,379.5 1657.9219,379.3125 Q1657.5938,378.9375 1656.9844,378.7188 Q1656.375,378.5 1655.75,378.5 Q1654.9844,378.5 1654.3438,378.8281 Q1653.7188,379.1563 1653.2188,379.9063 Q1652.7344,380.6563 1652.7344,381.6875 L1652.7344,382.7813 Q1652.7344,384.0156 1653.625,384.8438 Q1654.5156,385.6563 1656.1094,385.6563 Q1657.0469,385.6563 1657.7031,385.4063 Q1658.0938,385.25 1658.5156,384.8125 Q1658.7813,384.5469 1658.9219,384.4688 Q1659.0781,384.3906 1659.2813,384.3906 Q1659.6094,384.3906 1659.8594,384.6563 Q1660.125,384.9063 1660.125,385.25 Q1660.125,385.5938 1659.7813,386 Q1659.2813,386.5781 1658.4844,386.9063 Q1657.4063,387.3594 1656.1094,387.3594 Q1654.5938,387.3594 1653.3906,386.7344 Q1652.4063,386.2344 1651.7188,385.1719 Q1651.0313,384.0938 1651.0313,382.8125 L1651.0313,381.6563 Q1651.0313,380.3281 1651.6406,379.1875 Q1652.2656,378.0313 1653.3594,377.4219 Q1654.4531,376.7969 1655.6875,376.7969 Q1656.4219,376.7969 1657.0625,376.9688 Q1657.7188,377.125 1658.2656,377.4844 Z " fill="#000000"/><text fill="#000000" font-family="sans-serif" font-size="14" lengthAdjust="spacing" textLength="160" x="1669.5" y="387.3379">VesselTypeResponseDto</text><line style="stroke:#181818;stroke-width:0.5;" x1="1641.5" x2="1831.5" y1="397.6094" y2="397.6094"/><ellipse cx="1651.5" cy="411.9141" fill="none" rx="3" ry="3" style="stroke:#038048;stroke-width:1.0;"/><text fill="#000000" font-family="sans-serif" font-size="14" lengthAdjust="spacing" textLength="124" x="1660.5" y="416.1426">string VesselTypeId</text><ellipse cx="1651.5" cy="429.5234" fill="none" rx="3" ry="3" style="stroke:#038048;stroke-width:1.0;"/><text fill="#000000" font-family="sans-serif" font-size="14" lengthAdjust="spacing" textLength="75" x="1660.5" y="433.752">string Name</text><ellipse cx="1651.5" cy="447.1328" fill="none" rx="3" ry="3" style="stroke:#038048;stroke-width:1.0;"/><text fill="#000000" font-family="sans-serif" font-size="14" lengthAdjust="spacing" textLength="110" x="1660.5" y="451.3613">string Description</text><ellipse cx="1651.5" cy="464.7422" fill="none" rx="3" ry="3" style="stroke:#038048;stroke-width:1.0;"/><text fill="#000000" font-family="sans-serif" font-size="14" lengthAdjust="spacing" textLength="126" x="1660.5" y="468.9707">int MaxCapacityTEU</text><ellipse cx="1651.5" cy="482.3516" fill="none" rx="3" ry="3" style="stroke:#038048;stroke-width:1.0;"/><text fill="#000000" font-family="sans-serif" font-size="14" lengthAdjust="spacing" textLength="78" x="1660.5" y="486.5801">int MaxRows</text><ellipse cx="1651.5" cy="499.9609" fill="none" rx="3" ry="3" style="stroke:#038048;stroke-width:1.0;"/><text fill="#000000" font-family="sans-serif" font-size="14" lengthAdjust="spacing" textLength="75" x="1660.5" y="504.1895">int MaxBays</text><ellipse cx="1651.5" cy="517.5703" fill="none" rx="3" ry="3" style="stroke:#038048;stroke-width:1.0;"/><text fill="#000000" font-family="sans-serif" font-size="14" lengthAdjust="spacing" textLength="76" x="1660.5" y="521.7988">int MaxTiers</text><ellipse cx="1651.5" cy="535.1797" fill="none" rx="3" ry="3" style="stroke:#038048;stroke-width:1.0;"/><text fill="#000000" font-family="sans-serif" font-size="14" lengthAdjust="spacing" textLength="121" x="1660.5" y="539.4082">decimal MaxLength</text><ellipse cx="1651.5" cy="552.7891" fill="none" rx="3" ry="3" style="stroke:#038048;stroke-width:1.0;"/><text fill="#000000" font-family="sans-serif" font-size="14" lengthAdjust="spacing" textLength="113" x="1660.5" y="557.0176">decimal MaxBeam</text><ellipse cx="1651.5" cy="570.3984" fill="none" rx="3" ry="3" style="stroke:#038048;stroke-width:1.0;"/><text fill="#000000" font-family="sans-serif" font-size="14" lengthAdjust="spacing" textLength="108" x="1660.5" y="574.627">decimal MaxDraft</text><line style="stroke:#181818;stroke-width:0.5;" x1="1641.5" x2="1831.5" y1="581.7031" y2="581.7031"/></g><!--class CallerContext--><g id="elem_CallerContext"><rect codeLine="106" fill="#F1F1F1" height="153.6563" id="CallerContext" rx="2.5" ry="2.5" style="stroke:#181818;stroke-width:0.5;" width="386" x="1867.5" y="400.6094"/><ellipse cx="2013.75" cy="416.6094" fill="#ADD1B2" rx="11" ry="11" style="stroke:#181818;stroke-width:1.0;"/><path d="M2016.5156,412.4844 Q2016.6719,412.2656 2016.8594,412.1563 Q2017.0469,412.0469 2017.2656,412.0469 Q2017.6406,412.0469 2017.875,412.3125 Q2018.1094,412.5625 2018.1094,413.1719 L2018.1094,414.625 Q2018.1094,415.2344 2017.875,415.5 Q2017.6406,415.7656 2017.2656,415.7656 Q2016.9219,415.7656 2016.7188,415.5625 Q2016.5156,415.375 2016.4063,414.8594 Q2016.3594,414.5 2016.1719,414.3125 Q2015.8438,413.9375 2015.2344,413.7188 Q2014.625,413.5 2014,413.5 Q2013.2344,413.5 2012.5938,413.8281 Q2011.9688,414.1563 2011.4688,414.9063 Q2010.9844,415.6563 2010.9844,416.6875 L2010.9844,417.7813 Q2010.9844,419.0156 2011.875,419.8438 Q2012.7656,420.6563 2014.3594,420.6563 Q2015.2969,420.6563 2015.9531,420.4063 Q2016.3438,420.25 2016.7656,419.8125 Q2017.0313,419.5469 2017.1719,419.4688 Q2017.3281,419.3906 2017.5313,419.3906 Q2017.8594,419.3906 2018.1094,419.6563 Q2018.375,419.9063 2018.375,420.25 Q2018.375,420.5938 2018.0313,421 Q2017.5313,421.5781 2016.7344,421.9063 Q2015.6563,422.3594 2014.3594,422.3594 Q2012.8438,422.3594 2011.6406,421.7344 Q2010.6563,421.2344 2009.9688,420.1719 Q2009.2813,419.0938 2009.2813,417.8125 L2009.2813,416.6563 Q2009.2813,415.3281 2009.8906,414.1875 Q2010.5156,413.0313 2011.6094,412.4219 Q2012.7031,411.7969 2013.9375,411.7969 Q2014.6719,411.7969 2015.3125,411.9688 Q2015.9688,412.125 2016.5156,412.4844 Z " fill="#000000"/><text fill="#000000" font-family="sans-serif" font-size="14" lengthAdjust="spacing" textLength="85" x="2034.25" y="422.3379">CallerContext</text><line style="stroke:#181818;stroke-width:0.5;" x1="1868.5" x2="2252.5" y1="432.6094" y2="432.6094"/><ellipse cx="1878.5" cy="446.9141" fill="none" rx="3" ry="3" style="stroke:#038048;stroke-width:1.0;"/><text fill="#000000" font-family="sans-serif" font-size="14" lengthAdjust="spacing" textLength="87" x="1887.5" y="451.1426">string? UserId</text><ellipse cx="1878.5" cy="464.5234" fill="none" rx="3" ry="3" style="stroke:#038048;stroke-width:1.0;"/><text fill="#000000" font-family="sans-serif" font-size="14" lengthAdjust="spacing" textLength="69" x="1887.5" y="468.752">Guid OrgId</text><ellipse cx="1878.5" cy="482.1328" fill="none" rx="3" ry="3" style="stroke:#038048;stroke-width:1.0;"/><text fill="#000000" font-family="sans-serif" font-size="14" lengthAdjust="spacing" textLength="68" x="1887.5" y="486.3613">string Role</text><line style="stroke:#181818;stroke-width:1.0;" x1="1868.5" x2="2252.5" y1="493.4375" y2="493.4375"/><ellipse cx="1878.5" cy="507.7422" fill="#84BE84" rx="3" ry="3" style="stroke:#038048;stroke-width:1.0;"/><text fill="#000000" font-family="sans-serif" font-size="14" lengthAdjust="spacing" textLength="360" x="1887.5" y="511.9707">static FromHeaders(HttpRequest request) : CallerContext</text><ellipse cx="1878.5" cy="525.3516" fill="#84BE84" rx="3" ry="3" style="stroke:#038048;stroke-width:1.0;"/><text fill="#000000" font-family="sans-serif" font-size="14" lengthAdjust="spacing" textLength="141" x="1887.5" y="529.5801">IsPortAuthority() : bool</text><ellipse cx="1878.5" cy="542.9609" fill="#84BE84" rx="3" ry="3" style="stroke:#038048;stroke-width:1.0;"/><text fill="#000000" font-family="sans-serif" font-size="14" lengthAdjust="spacing" textLength="151" x="1887.5" y="547.1895">IsShippingAgent() : bool</text></g><g id="elem_GMN18"><path d="M1095.5,760.6094 L1095.5,794.1094 L1060.2,798.1094 L1095.5,802.1094 L1095.5,836.0156 A0,0 0 0 0 1095.5,836.0156 L1395.5,836.0156 A0,0 0 0 0 1395.5,836.0156 L1395.5,770.6094 L1385.5,760.6094 L1095.5,760.6094 A0,0 0 0 0 1095.5,760.6094 " fill="#FEFFDD" style="stroke:#181818;stroke-width:0.5;"/><path d="M1385.5,760.6094 L1385.5,770.6094 L1395.5,770.6094 L1385.5,760.6094 " fill="#FEFFDD" style="stroke:#181818;stroke-width:0.5;"/><text fill="#000000" font-family="sans-serif" font-size="13" lengthAdjust="spacing" textLength="179" x="1101.5" y="779.1045">Aggregate Root with invariants:</text><text fill="#000000" font-family="sans-serif" font-size="13" lengthAdjust="spacing" textLength="239" x="1101.5" y="795.4561">- Name uniqueness (enforced at DB level)</text><text fill="#000000" font-family="sans-serif" font-size="13" lengthAdjust="spacing" textLength="211" x="1101.5" y="811.8076">- All numeric values must be positive</text><text fill="#000000" font-family="sans-serif" font-size="13" lengthAdjust="spacing" textLength="279" x="1101.5" y="828.1592">- Serves as upper bounds for Vessel dimensions</text></g><g id="elem_GMN21"><path d="M2063,137.1094 L2063,162.6094 L2028.31,166.6094 L2063,170.6094 L2063,196.1641 A0,0 0 0 0 2063,196.1641 L2346,196.1641 A0,0 0 0 0 2346,196.1641 L2346,147.1094 L2336,137.1094 L2063,137.1094 A0,0 0 0 0 2063,137.1094 " fill="#FEFFDD" style="stroke:#181818;stroke-width:0.5;"/><path d="M2336,137.1094 L2336,147.1094 L2346,147.1094 L2336,137.1094 " fill="#FEFFDD" style="stroke:#181818;stroke-width:0.5;"/><text fill="#000000" font-family="sans-serif" font-size="13" lengthAdjust="spacing" textLength="243" x="2069" y="155.6045">Authorization: Only Port Authority Officers</text><text fill="#000000" font-family="sans-serif" font-size="13" lengthAdjust="spacing" textLength="246" x="2069" y="171.9561">can create, update, or delete vessel types.</text><text fill="#000000" font-family="sans-serif" font-size="13" lengthAdjust="spacing" textLength="262" x="2069" y="188.3076">Search is available to all authenticated users.</text></g><!--reverse link VesselType to Vessel--><g id="link_VesselType_Vessel"><path codeLine="117" d="M723.8352,953.2919 C755.3452,978.8119 778.79,997.8094 810.3,1023.3294 " fill="none" id="VesselType-backto-Vessel" style="stroke:#181818;stroke-width:1.0;"/><polygon fill="none" points="714.51,945.7394,716.6551,952.624,723.8352,953.2919,721.6901,946.4072,714.51,945.7394" style="stroke:#181818;stroke-width:1.0;"/><text fill="#000000" font-family="sans-serif" font-size="13" lengthAdjust="spacing" textLength="47" x="763.5" y="990.1045">Vessels</text><text fill="#000000" font-family="sans-serif" font-size="13" lengthAdjust="spacing" textLength="7" x="716.1081" y="966.7927">1</text><text fill="#000000" font-family="sans-serif" font-size="13" lengthAdjust="spacing" textLength="20" x="780.4413" y="1012.8132">0..*</text></g><!--link PortDbContext to VesselType--><g id="link_PortDbContext_VesselType"><path codeLine="118" d="M881.33,554.6994 C840.01,583.4894 796.3725,613.9088 748.8625,647.0188 " fill="none" id="PortDbContext-to-VesselType" style="stroke:#181818;stroke-width:1.0;"/><polygon fill="#181818" points="743.94,650.4494,753.6108,648.5852,748.0421,647.5906,749.0368,642.0219,743.94,650.4494" style="stroke:#181818;stroke-width:1.0;"/></g><!--link PortDbContext to Vessel--><g id="link_PortDbContext_Vessel"><path codeLine="119" d="M1130.67,554.6394 C1156.2,567.1494 1182.87,579.3494 1208.5,589.6094 C1296.36,624.7794 1355.98,574.7094 1412.5,650.6094 C1490.81,755.7594 1479.96,833.1894 1412.5,945.6094 C1394.81,975.0894 1376.3429,996.9899 1350.1829,1019.5599 " fill="none" id="PortDbContext-to-Vessel" style="stroke:#181818;stroke-width:1.0;"/><polygon fill="#181818" points="1345.64,1023.4794,1355.0673,1020.6288,1349.4257,1020.2132,1349.8414,1014.5716,1345.64,1023.4794" style="stroke:#181818;stroke-width:1.0;"/></g><!--link VesselTypesController to PortDbContext--><g id="link_VesselTypesController_PortDbContext"><path codeLine="120" d="M1313.23,287.7394 C1248.48,325.6394 1183.9388,363.4094 1125.9288,397.3494 " fill="none" id="VesselTypesController-to-PortDbContext" style="stroke:#181818;stroke-width:1.0;"/><polygon fill="#181818" points="1120.75,400.3794,1130.5381,399.287,1125.0656,397.8544,1126.4982,392.382,1120.75,400.3794" style="stroke:#181818;stroke-width:1.0;"/><text fill="#000000" font-family="sans-serif" font-size="13" lengthAdjust="spacing" textLength="28" x="1255.5" y="332.1045">uses</text></g><!--link VesselTypesController to CreateVesselTypeDto--><g id="link_VesselTypesController_CreateVesselTypeDto"><path codeLine="121" d="M1437.88,287.9594 C1418.8,316.4294 1401.979,341.5443 1383.499,369.1343 " fill="none" id="VesselTypesController-to-CreateVesselTypeDto" style="stroke:#181818;stroke-width:1.0;stroke-dasharray:7.0,7.0;"/><polygon fill="#181818" points="1380.16,374.1194,1388.4919,368.8678,1382.9425,369.9652,1381.8452,364.4158,1380.16,374.1194" style="stroke:#181818;stroke-width:1.0;"/><text fill="#000000" font-family="sans-serif" font-size="13" lengthAdjust="spacing" textLength="47" x="1416.5" y="332.1045">receives</text></g><!--link VesselTypesController to UpdateVesselTypeDto--><g id="link_VesselTypesController_UpdateVesselTypeDto"><path codeLine="122" d="M1518.5,287.9594 C1518.5,316.4294 1518.5,340.5294 1518.5,368.1194 " fill="none" id="VesselTypesController-to-UpdateVesselTypeDto" style="stroke:#181818;stroke-width:1.0;stroke-dasharray:7.0,7.0;"/><polygon fill="#181818" points="1518.5,374.1194,1522.5,365.1194,1518.5,369.1194,1514.5,365.1194,1518.5,374.1194" style="stroke:#181818;stroke-width:1.0;"/><text fill="#000000" font-family="sans-serif" font-size="13" lengthAdjust="spacing" textLength="47" x="1519.5" y="332.1045">receives</text></g><!--link VesselTypesController to VesselTypeResponseDto--><g id="link_VesselTypesController_VesselTypeResponseDto"><path codeLine="123" d="M1603.41,287.9594 C1621.4,313.4694 1636.8607,335.377 1654.6007,360.517 " fill="none" id="VesselTypesController-to-VesselTypeResponseDto" style="stroke:#181818;stroke-width:1.0;stroke-dasharray:7.0,7.0;"/><polygon fill="#181818" points="1658.06,365.4194,1656.1392,355.7596,1655.1772,361.3341,1649.6028,360.3721,1658.06,365.4194" style="stroke:#181818;stroke-width:1.0;"/><text fill="#000000" font-family="sans-serif" font-size="13" lengthAdjust="spacing" textLength="40" x="1635.5" y="332.1045">returns</text></g><!--link VesselTypesController to CallerContext--><g id="link_VesselTypesController_CallerContext"><path codeLine="124" d="M1729.22,287.7394 C1795.68,325.6394 1862.0372,363.4684 1921.5872,397.4084 " fill="none" id="VesselTypesController-to-CallerContext" style="stroke:#181818;stroke-width:1.0;stroke-dasharray:7.0,7.0;"/><polygon fill="#181818" points="1926.8,400.3794,1920.9615,392.4477,1922.456,397.9036,1917.0001,399.3981,1926.8,400.3794" style="stroke:#181818;stroke-width:1.0;"/><text fill="#000000" font-family="sans-serif" font-size="13" lengthAdjust="spacing" textLength="128" x="1807.5" y="332.1045">validates authorization</text></g><!--SRC=[tLVTRzis47_tNt78W4tfOcFjev5QIEArDR36XUtaTQ2biqrC8ZMISfiM-zztfBv8IScsfs7BGwmx7gdx7N_t8SDDXd2NCQrXoTbHiHocyB25DxCtizTmfv0PXE_XeKZjmoDgZHdidWhKayaFyDR-mLBcZ8jAc2JkhChGsi6t2S2Fe8tYukZfLwcllsSv-l8ITQ9uORWKJis5WO_ionqhMCBDq-xd1r-zaP-rBz-ofq3USLIL8iM4voopobzG7Csfhxr5blTrIyKEnYbNTpBBCB5kNLTG5ZKaU_nqwemwZ56DHX2wgmPQsa6xSWxc0QvMPq6rWaNK2WxELUjXtc09L1P8e70eBfs7rMtMtiK3Z-8nb-B0fpXmAXvw5O-u5G_yYZl7O0vdoLFFFyi9FuAjoH-JW6KXmrQvl2_pFQgNw3MWOQU8lMUtj5P79lXNPiEpIdlYm28Ef8198uGRiAsZchthFjs7z7lacfjxQVY19-wD3Hy72mE2Dg7bJS1QXWPqFNkXkke7GmPYHxUinyTzGCRKWgpOd3G8iRoiBuWEIs2b7rd6KxfCpqrBWBsKcMzuBnKToR_YqBIIB5kQGhKI1yL8NIQcL1WKh4zIcUN-JWg3NqpDgEL-Y-QweyF2euOUMFYLe5dnmxK8WkTRFMXK2x3_lKiA78hQfxLBKtqTB2z0LceRm-zWBJxA53DNl2a2aPDkIvwbg23t13-ZcXZP8vMbcTBFL7JTcRX0JNl1-pMf7iOgehSt2dVLcoeML7qdgdwwtKiZ8JNkSdTC_tQzkd6vi45TPcOnB6t0YPELvXyTyXxDxTCgxKxv2-ERB8jUCjaYKycfhRSslzxnp7Gf5zJW_f9skzS5AcQaUkazIypG1_-yxNGAxkPsadG5CGSZhsMVNJdk58qDXSxjShb9GVqagSZmCv9Seex-nTRXoeB7ukLk7T9tZ4hV_cCJIDltnYZjWudxQE8nEF4pUE8-eBYFA1w558zZYiT0nIEeHldslnaVFN9kCIaLkH4IbDcY63QWvl9iQwW1lo-vcq52_1kPOLTkwzRuJidy0pAgyphwO4onmTyfImsewjUcJV3IQiJGjYpVbEOahOjHq7DNUdlYHK5ll3cYCD5OvcqmgneSMJOfw9MMYzSN8AdwNFmqcxswQ2QuUTixmwOmdVezzzd5oNXpiWRXbZcKcbhtkFbijXWj4tEAM89KvbxQE9QIVslZEEljLffHn8k-1eoXJbvNPGsikhvw1fq8IPzkYXzF1kGX76zlZaU5H_jfjv7Im6TkJiJwCrES2QFdhjhRv89IS6ADeBqGeJX8bM0ApC3obeQzCsQNpfGQ8OWoHqNqExkc07b9bDiZ57MlS7PRL6VhfuQoeBv692f5ge6ERHYHyXo5TeCIYXGiXEU1U96nc7pqSvg6iYT70sXP3Ui3ZSLLKYTCGE9k_OgSITqlkP6wLbfFls3iIsPaNNLouEJxcV6CxUdhcQwBRi85dPB2ZjiKcj9ESxFEzpy1]--></g></svg>