<?xml version="1.0" encoding="us-ascii" standalone="no"?><svg xmlns="http://www.w3.org/2000/svg" xmlns:xlink="http://www.w3.org/1999/xlink" contentStyleType="text/css" height="1469px" preserveAspectRatio="none" style="width:1255px;height:1469px;background:#FFFFFF;" version="1.1" viewBox="0 0 1255 1469" width="1255px" zoomAndPan="magnify"><defs/><g><text fill="#000000" font-family="sans-serif" font-size="14" font-weight="bold" lengthAdjust="spacing" textLength="179" x="539.25" y="29.5332">SSD - Update Vessel Type</text><rect fill="#FFFFFF" height="1158.0547" style="stroke:#181818;stroke-width:1.0;" width="10" x="324" y="218.9766"/><rect fill="#FFFFFF" height="1127.7031" style="stroke:#181818;stroke-width:1.0;" width="10" x="671" y="249.3281"/><rect fill="#FFFFFF" height="60.7031" style="stroke:#181818;stroke-width:1.0;" width="10" x="1064" y="397.9219"/><rect fill="#FFFFFF" height="60.7031" style="stroke:#181818;stroke-width:1.0;" width="10" x="1064" y="581.8672"/><rect fill="#FFFFFF" height="60.7031" style="stroke:#181818;stroke-width:1.0;" width="10" x="1064" y="672.9219"/><rect fill="#FFFFFF" height="60.7031" style="stroke:#181818;stroke-width:1.0;" width="10" x="1064" y="856.8672"/><rect fill="#FFFFFF" height="60.7031" style="stroke:#181818;stroke-width:1.0;" width="10" x="1064" y="1040.8125"/><rect fill="#FFFFFF" height="60.7031" style="stroke:#181818;stroke-width:1.0;" width="10" x="1064" y="1191.5703"/><rect fill="#FFFFFF" height="30.3516" style="stroke:#181818;stroke-width:1.0;" width="10" x="1184" y="428.2734"/><rect fill="#FFFFFF" height="30.3516" style="stroke:#181818;stroke-width:1.0;" width="10" x="1184" y="612.2188"/><rect fill="#FFFFFF" height="30.3516" style="stroke:#181818;stroke-width:1.0;" width="10" x="1184" y="703.2734"/><rect fill="#FFFFFF" height="30.3516" style="stroke:#181818;stroke-width:1.0;" width="10" x="1184" y="887.2188"/><rect fill="#FFFFFF" height="30.3516" style="stroke:#181818;stroke-width:1.0;" width="10" x="1184" y="1071.1641"/><rect fill="#FFFFFF" height="30.3516" style="stroke:#181818;stroke-width:1.0;" width="10" x="1184" y="1221.9219"/><rect fill="none" height="1105.7031" style="stroke:#000000;stroke-width:1.5;" width="1238.5" x="10" y="264.3281"/><line style="stroke:#181818;stroke-width:0.5;stroke-dasharray:5.0,5.0;" x1="89" x2="89" y1="121.2188" y2="1387.0313"/><line style="stroke:#181818;stroke-width:0.5;stroke-dasharray:5.0,5.0;" x1="328.5" x2="328.5" y1="121.2188" y2="1387.0313"/><line style="stroke:#181818;stroke-width:0.5;stroke-dasharray:5.0,5.0;" x1="675.5" x2="675.5" y1="121.2188" y2="1387.0313"/><line style="stroke:#181818;stroke-width:0.5;stroke-dasharray:5.0,5.0;" x1="1069" x2="1069" y1="121.2188" y2="1387.0313"/><line style="stroke:#181818;stroke-width:0.5;stroke-dasharray:5.0,5.0;" x1="1188.5" x2="1188.5" y1="121.2188" y2="1387.0313"/><text fill="#000000" font-family="sans-serif" font-size="14" lengthAdjust="spacing" textLength="132" x="20" y="118.1426">Port Authority Officer</text><ellipse cx="89" cy="52.1094" fill="#E2E2F0" rx="8" ry="8" style="stroke:#181818;stroke-width:0.5;"/><path d="M89,60.1094 L89,87.1094 M76,68.1094 L102,68.1094 M89,87.1094 L76,102.1094 M89,87.1094 L102,102.1094 " fill="none" style="stroke:#181818;stroke-width:0.5;"/><text fill="#000000" font-family="sans-serif" font-size="14" lengthAdjust="spacing" textLength="132" x="20" y="1400.5645">Port Authority Officer</text><ellipse cx="89" cy="1412.1406" fill="#E2E2F0" rx="8" ry="8" style="stroke:#181818;stroke-width:0.5;"/><path d="M89,1420.1406 L89,1447.1406 M76,1428.1406 L102,1428.1406 M89,1447.1406 L76,1462.1406 M89,1447.1406 L102,1462.1406 " fill="none" style="stroke:#181818;stroke-width:0.5;"/><rect fill="#E2E2F0" height="31.6094" rx="2.5" ry="2.5" style="stroke:#181818;stroke-width:0.5;" width="127" x="265.5" y="88.6094"/><text fill="#000000" font-family="sans-serif" font-size="14" lengthAdjust="spacing" textLength="113" x="272.5" y="110.1426">Scalar / API Client</text><rect fill="#E2E2F0" height="31.6094" rx="2.5" ry="2.5" style="stroke:#181818;stroke-width:0.5;" width="127" x="265.5" y="1386.0313"/><text fill="#000000" font-family="sans-serif" font-size="14" lengthAdjust="spacing" textLength="113" x="272.5" y="1407.5645">Scalar / API Client</text><rect fill="#E2E2F0" height="31.6094" rx="2.5" ry="2.5" style="stroke:#181818;stroke-width:0.5;" width="157" x="597.5" y="88.6094"/><text fill="#000000" font-family="sans-serif" font-size="14" lengthAdjust="spacing" textLength="143" x="604.5" y="110.1426">VesselTypesController</text><rect fill="#E2E2F0" height="31.6094" rx="2.5" ry="2.5" style="stroke:#181818;stroke-width:0.5;" width="157" x="597.5" y="1386.0313"/><text fill="#000000" font-family="sans-serif" font-size="14" lengthAdjust="spacing" textLength="143" x="604.5" y="1407.5645">VesselTypesController</text><rect fill="#E2E2F0" height="31.6094" rx="2.5" ry="2.5" style="stroke:#181818;stroke-width:0.5;" width="106" x="1016" y="88.6094"/><text fill="#000000" font-family="sans-serif" font-size="14" lengthAdjust="spacing" textLength="92" x="1023" y="110.1426">PortDbContext</text><rect fill="#E2E2F0" height="31.6094" rx="2.5" ry="2.5" style="stroke:#181818;stroke-width:0.5;" width="106" x="1016" y="1386.0313"/><text fill="#000000" font-family="sans-serif" font-size="14" lengthAdjust="spacing" textLength="92" x="1023" y="1407.5645">PortDbContext</text><text fill="#000000" font-family="sans-serif" font-size="14" lengthAdjust="spacing" textLength="93" x="1139.5" y="118.1426">EF (InMemory)</text><path d="M1171,67.6094 C1171,57.6094 1189,57.6094 1189,57.6094 C1189,57.6094 1207,57.6094 1207,67.6094 L1207,93.6094 C1207,103.6094 1189,103.6094 1189,103.6094 C1189,103.6094 1171,103.6094 1171,93.6094 L1171,67.6094 " fill="#E2E2F0" style="stroke:#181818;stroke-width:1.5;"/><path d="M1171,67.6094 C1171,77.6094 1189,77.6094 1189,77.6094 C1189,77.6094 1207,77.6094 1207,67.6094 " fill="none" style="stroke:#181818;stroke-width:1.5;"/><text fill="#000000" font-family="sans-serif" font-size="14" lengthAdjust="spacing" textLength="93" x="1139.5" y="1400.5645">EF (InMemory)</text><path d="M1171,1413.6406 C1171,1403.6406 1189,1403.6406 1189,1403.6406 C1189,1403.6406 1207,1403.6406 1207,1413.6406 L1207,1439.6406 C1207,1449.6406 1189,1449.6406 1189,1449.6406 C1189,1449.6406 1171,1449.6406 1171,1439.6406 L1171,1413.6406 " fill="#E2E2F0" style="stroke:#181818;stroke-width:1.5;"/><path d="M1171,1413.6406 C1171,1423.6406 1189,1423.6406 1189,1423.6406 C1189,1423.6406 1207,1423.6406 1207,1413.6406 " fill="none" style="stroke:#181818;stroke-width:1.5;"/><rect fill="#FFFFFF" height="1158.0547" style="stroke:#181818;stroke-width:1.0;" width="10" x="324" y="218.9766"/><rect fill="#FFFFFF" height="1127.7031" style="stroke:#181818;stroke-width:1.0;" width="10" x="671" y="249.3281"/><rect fill="#FFFFFF" height="60.7031" style="stroke:#181818;stroke-width:1.0;" width="10" x="1064" y="397.9219"/><rect fill="#FFFFFF" height="60.7031" style="stroke:#181818;stroke-width:1.0;" width="10" x="1064" y="581.8672"/><rect fill="#FFFFFF" height="60.7031" style="stroke:#181818;stroke-width:1.0;" width="10" x="1064" y="672.9219"/><rect fill="#FFFFFF" height="60.7031" style="stroke:#181818;stroke-width:1.0;" width="10" x="1064" y="856.8672"/><rect fill="#FFFFFF" height="60.7031" style="stroke:#181818;stroke-width:1.0;" width="10" x="1064" y="1040.8125"/><rect fill="#FFFFFF" height="60.7031" style="stroke:#181818;stroke-width:1.0;" width="10" x="1064" y="1191.5703"/><rect fill="#FFFFFF" height="30.3516" style="stroke:#181818;stroke-width:1.0;" width="10" x="1184" y="428.2734"/><rect fill="#FFFFFF" height="30.3516" style="stroke:#181818;stroke-width:1.0;" width="10" x="1184" y="612.2188"/><rect fill="#FFFFFF" height="30.3516" style="stroke:#181818;stroke-width:1.0;" width="10" x="1184" y="703.2734"/><rect fill="#FFFFFF" height="30.3516" style="stroke:#181818;stroke-width:1.0;" width="10" x="1184" y="887.2188"/><rect fill="#FFFFFF" height="30.3516" style="stroke:#181818;stroke-width:1.0;" width="10" x="1184" y="1071.1641"/><rect fill="#FFFFFF" height="30.3516" style="stroke:#181818;stroke-width:1.0;" width="10" x="1184" y="1221.9219"/><polygon fill="#181818" points="312,214.9766,322,218.9766,312,222.9766,316,218.9766" style="stroke:#181818;stroke-width:1.0;"/><line style="stroke:#181818;stroke-width:1.0;" x1="89" x2="318" y1="218.9766" y2="218.9766"/><text fill="#000000" font-family="sans-serif" font-size="13" lengthAdjust="spacing" textLength="148" x="96" y="148.7139">PUT /api/vessel-types/{id}</text><text fill="#000000" font-family="sans-serif" font-size="13" lengthAdjust="spacing" textLength="200" x="96" y="165.0654">{ Description?, MaxCapacityTEU?,</text><text fill="#000000" font-family="sans-serif" font-size="13" lengthAdjust="spacing" textLength="206" x="96" y="181.417">MaxRows?, MaxBays?, MaxTiers?,</text><text fill="#000000" font-family="sans-serif" font-size="13" lengthAdjust="spacing" textLength="216" x="96" y="197.7686">MaxLength?, MaxBeam?, MaxDraft?,</text><text fill="#000000" font-family="sans-serif" font-size="13" lengthAdjust="spacing" textLength="49" x="96" y="214.1201">Name? }</text><polygon fill="#181818" points="659,245.3281,669,249.3281,659,253.3281,663,249.3281" style="stroke:#181818;stroke-width:1.0;"/><line style="stroke:#181818;stroke-width:1.0;" x1="334" x2="665" y1="249.3281" y2="249.3281"/><text fill="#000000" font-family="sans-serif" font-size="13" lengthAdjust="spacing" textLength="85" x="341" y="244.4717">Update(id, dto)</text><path d="M10,264.3281 L71,264.3281 L71,272.6797 L61,282.6797 L10,282.6797 L10,264.3281 " fill="#EEEEEE" style="stroke:#000000;stroke-width:1.5;"/><rect fill="none" height="1105.7031" style="stroke:#000000;stroke-width:1.5;" width="1238.5" x="10" y="264.3281"/><text fill="#000000" font-family="sans-serif" font-size="13" font-weight="bold" lengthAdjust="spacing" textLength="16" x="25" y="278.8232">alt</text><text fill="#000000" font-family="sans-serif" font-size="11" font-weight="bold" lengthAdjust="spacing" textLength="273" x="86" y="277.7471">[invalid authentication (not Port Authority Officer)]</text><polygon fill="#181818" points="345,317.3828,335,321.3828,345,325.3828,341,321.3828" style="stroke:#181818;stroke-width:1.0;"/><line style="stroke:#181818;stroke-width:1.0;stroke-dasharray:2.0,2.0;" x1="339" x2="670" y1="321.3828" y2="321.3828"/><text fill="#000000" font-family="sans-serif" font-size="13" lengthAdjust="spacing" textLength="82" x="351" y="300.1748">403 Forbidden</text><text fill="#000000" font-family="sans-serif" font-size="13" lengthAdjust="spacing" textLength="313" x="351" y="316.5264">"Only Port Authority Officers can update vessel types"</text><polygon fill="#181818" points="100,347.7344,90,351.7344,100,355.7344,96,351.7344" style="stroke:#181818;stroke-width:1.0;"/><line style="stroke:#181818;stroke-width:1.0;stroke-dasharray:2.0,2.0;" x1="94" x2="323" y1="351.7344" y2="351.7344"/><text fill="#000000" font-family="sans-serif" font-size="13" lengthAdjust="spacing" textLength="122" x="106" y="346.8779">Error: Access denied</text><line style="stroke:#000000;stroke-width:1.0;stroke-dasharray:2.0,2.0;" x1="10" x2="1248.5" y1="360.7344" y2="360.7344"/><text fill="#000000" font-family="sans-serif" font-size="11" font-weight="bold" lengthAdjust="spacing" textLength="128" x="15" y="372.1533">[vessel type not found]</text><polygon fill="#181818" points="1052,393.9219,1062,397.9219,1052,401.9219,1056,397.9219" style="stroke:#181818;stroke-width:1.0;"/><line style="stroke:#181818;stroke-width:1.0;" x1="681" x2="1058" y1="397.9219" y2="397.9219"/><text fill="#000000" font-family="sans-serif" font-size="13" lengthAdjust="spacing" textLength="164" x="688" y="393.0654">FindAsync&lt;VesselType&gt;(id)</text><polygon fill="#181818" points="1172,424.2734,1182,428.2734,1172,432.2734,1176,428.2734" style="stroke:#181818;stroke-width:1.0;"/><line style="stroke:#181818;stroke-width:1.0;" x1="1074" x2="1178" y1="428.2734" y2="428.2734"/><text fill="#000000" font-family="sans-serif" font-size="13" lengthAdjust="spacing" textLength="32" x="1081" y="423.417">query</text><polygon fill="#181818" points="1080,454.625,1070,458.625,1080,462.625,1076,458.625" style="stroke:#181818;stroke-width:1.0;"/><line style="stroke:#181818;stroke-width:1.0;stroke-dasharray:2.0,2.0;" x1="1074" x2="1188" y1="458.625" y2="458.625"/><text fill="#000000" font-family="sans-serif" font-size="13" lengthAdjust="spacing" textLength="20" x="1086" y="453.7686">null</text><polygon fill="#181818" points="345,501.3281,335,505.3281,345,509.3281,341,505.3281" style="stroke:#181818;stroke-width:1.0;"/><line style="stroke:#181818;stroke-width:1.0;stroke-dasharray:2.0,2.0;" x1="339" x2="670" y1="505.3281" y2="505.3281"/><text fill="#000000" font-family="sans-serif" font-size="13" lengthAdjust="spacing" textLength="85" x="351" y="484.1201">404 Not Found</text><text fill="#000000" font-family="sans-serif" font-size="13" lengthAdjust="spacing" textLength="136" x="351" y="500.4717">"Vessel type not found"</text><polygon fill="#181818" points="100,531.6797,90,535.6797,100,539.6797,96,535.6797" style="stroke:#181818;stroke-width:1.0;"/><line style="stroke:#181818;stroke-width:1.0;stroke-dasharray:2.0,2.0;" x1="94" x2="323" y1="535.6797" y2="535.6797"/><text fill="#000000" font-family="sans-serif" font-size="13" lengthAdjust="spacing" textLength="191" x="106" y="530.8232">Error: Vessel type does not exist</text><line style="stroke:#000000;stroke-width:1.0;stroke-dasharray:2.0,2.0;" x1="10" x2="1248.5" y1="544.6797" y2="544.6797"/><text fill="#000000" font-family="sans-serif" font-size="11" font-weight="bold" lengthAdjust="spacing" textLength="192" x="15" y="556.0986">[name change and duplicate name]</text><polygon fill="#181818" points="1052,577.8672,1062,581.8672,1052,585.8672,1056,581.8672" style="stroke:#181818;stroke-width:1.0;"/><line style="stroke:#181818;stroke-width:1.0;" x1="681" x2="1058" y1="581.8672" y2="581.8672"/><text fill="#000000" font-family="sans-serif" font-size="13" lengthAdjust="spacing" textLength="164" x="688" y="577.0107">FindAsync&lt;VesselType&gt;(id)</text><polygon fill="#181818" points="1172,608.2188,1182,612.2188,1172,616.2188,1176,612.2188" style="stroke:#181818;stroke-width:1.0;"/><line style="stroke:#181818;stroke-width:1.0;" x1="1074" x2="1178" y1="612.2188" y2="612.2188"/><text fill="#000000" font-family="sans-serif" font-size="13" lengthAdjust="spacing" textLength="32" x="1081" y="607.3623">query</text><polygon fill="#181818" points="1080,638.5703,1070,642.5703,1080,646.5703,1076,642.5703" style="stroke:#181818;stroke-width:1.0;"/><line style="stroke:#181818;stroke-width:1.0;stroke-dasharray:2.0,2.0;" x1="1074" x2="1188" y1="642.5703" y2="642.5703"/><text fill="#000000" font-family="sans-serif" font-size="13" lengthAdjust="spacing" textLength="64" x="1086" y="637.7139">vesselType</text><polygon fill="#181818" points="1052,668.9219,1062,672.9219,1052,676.9219,1056,672.9219" style="stroke:#181818;stroke-width:1.0;"/><line style="stroke:#181818;stroke-width:1.0;" x1="681" x2="1058" y1="672.9219" y2="672.9219"/><text fill="#000000" font-family="sans-serif" font-size="13" lengthAdjust="spacing" textLength="364" x="688" y="668.0654">AnyAsync(VesselTypes where Name == dto.Name &amp;&amp; Id != id)</text><polygon fill="#181818" points="1172,699.2734,1182,703.2734,1172,707.2734,1176,703.2734" style="stroke:#181818;stroke-width:1.0;"/><line style="stroke:#181818;stroke-width:1.0;" x1="1074" x2="1178" y1="703.2734" y2="703.2734"/><text fill="#000000" font-family="sans-serif" font-size="13" lengthAdjust="spacing" textLength="32" x="1081" y="698.417">query</text><polygon fill="#181818" points="1080,729.625,1070,733.625,1080,737.625,1076,733.625" style="stroke:#181818;stroke-width:1.0;"/><line style="stroke:#181818;stroke-width:1.0;stroke-dasharray:2.0,2.0;" x1="1074" x2="1188" y1="733.625" y2="733.625"/><text fill="#000000" font-family="sans-serif" font-size="13" lengthAdjust="spacing" textLength="86" x="1086" y="728.7686">true (duplicate)</text><polygon fill="#181818" points="345,776.3281,335,780.3281,345,784.3281,341,780.3281" style="stroke:#181818;stroke-width:1.0;"/><line style="stroke:#181818;stroke-width:1.0;stroke-dasharray:2.0,2.0;" x1="339" x2="670" y1="780.3281" y2="780.3281"/><text fill="#000000" font-family="sans-serif" font-size="13" lengthAdjust="spacing" textLength="68" x="351" y="759.1201">409 Conflict</text><text fill="#000000" font-family="sans-serif" font-size="13" lengthAdjust="spacing" textLength="297" x="351" y="775.4717">"Another vessel type with this name already exists"</text><polygon fill="#181818" points="100,806.6797,90,810.6797,100,814.6797,96,810.6797" style="stroke:#181818;stroke-width:1.0;"/><line style="stroke:#181818;stroke-width:1.0;stroke-dasharray:2.0,2.0;" x1="94" x2="323" y1="810.6797" y2="810.6797"/><text fill="#000000" font-family="sans-serif" font-size="13" lengthAdjust="spacing" textLength="126" x="106" y="805.8232">Error: Duplicate name</text><line style="stroke:#000000;stroke-width:1.0;stroke-dasharray:2.0,2.0;" x1="10" x2="1248.5" y1="819.6797" y2="819.6797"/><text fill="#000000" font-family="sans-serif" font-size="11" font-weight="bold" lengthAdjust="spacing" textLength="146" x="15" y="831.0986">[negative values provided]</text><polygon fill="#181818" points="1052,852.8672,1062,856.8672,1052,860.8672,1056,856.8672" style="stroke:#181818;stroke-width:1.0;"/><line style="stroke:#181818;stroke-width:1.0;" x1="681" x2="1058" y1="856.8672" y2="856.8672"/><text fill="#000000" font-family="sans-serif" font-size="13" lengthAdjust="spacing" textLength="164" x="688" y="852.0107">FindAsync&lt;VesselType&gt;(id)</text><polygon fill="#181818" points="1172,883.2188,1182,887.2188,1172,891.2188,1176,887.2188" style="stroke:#181818;stroke-width:1.0;"/><line style="stroke:#181818;stroke-width:1.0;" x1="1074" x2="1178" y1="887.2188" y2="887.2188"/><text fill="#000000" font-family="sans-serif" font-size="13" lengthAdjust="spacing" textLength="32" x="1081" y="882.3623">query</text><polygon fill="#181818" points="1080,913.5703,1070,917.5703,1080,921.5703,1076,917.5703" style="stroke:#181818;stroke-width:1.0;"/><line style="stroke:#181818;stroke-width:1.0;stroke-dasharray:2.0,2.0;" x1="1074" x2="1188" y1="917.5703" y2="917.5703"/><text fill="#000000" font-family="sans-serif" font-size="13" lengthAdjust="spacing" textLength="64" x="1086" y="912.7139">vesselType</text><polygon fill="#181818" points="345,960.2734,335,964.2734,345,968.2734,341,964.2734" style="stroke:#181818;stroke-width:1.0;"/><line style="stroke:#181818;stroke-width:1.0;stroke-dasharray:2.0,2.0;" x1="339" x2="670" y1="964.2734" y2="964.2734"/><text fill="#000000" font-family="sans-serif" font-size="13" lengthAdjust="spacing" textLength="100" x="351" y="943.0654">400 Bad Request</text><text fill="#000000" font-family="sans-serif" font-size="13" lengthAdjust="spacing" textLength="213" x="351" y="959.417">"All numeric values must be positive"</text><polygon fill="#181818" points="100,990.625,90,994.625,100,998.625,96,994.625" style="stroke:#181818;stroke-width:1.0;"/><line style="stroke:#181818;stroke-width:1.0;stroke-dasharray:2.0,2.0;" x1="94" x2="323" y1="994.625" y2="994.625"/><text fill="#000000" font-family="sans-serif" font-size="13" lengthAdjust="spacing" textLength="103" x="106" y="989.7686">Error: Invalid input</text><line style="stroke:#000000;stroke-width:1.0;stroke-dasharray:2.0,2.0;" x1="10" x2="1248.5" y1="1003.625" y2="1003.625"/><text fill="#000000" font-family="sans-serif" font-size="11" font-weight="bold" lengthAdjust="spacing" textLength="74" x="15" y="1015.0439">[valid update]</text><polygon fill="#181818" points="1052,1036.8125,1062,1040.8125,1052,1044.8125,1056,1040.8125" style="stroke:#181818;stroke-width:1.0;"/><line style="stroke:#181818;stroke-width:1.0;" x1="681" x2="1058" y1="1040.8125" y2="1040.8125"/><text fill="#000000" font-family="sans-serif" font-size="13" lengthAdjust="spacing" textLength="164" x="688" y="1035.9561">FindAsync&lt;VesselType&gt;(id)</text><polygon fill="#181818" points="1172,1067.1641,1182,1071.1641,1172,1075.1641,1176,1071.1641" style="stroke:#181818;stroke-width:1.0;"/><line style="stroke:#181818;stroke-width:1.0;" x1="1074" x2="1178" y1="1071.1641" y2="1071.1641"/><text fill="#000000" font-family="sans-serif" font-size="13" lengthAdjust="spacing" textLength="32" x="1081" y="1066.3076">query</text><polygon fill="#181818" points="1080,1097.5156,1070,1101.5156,1080,1105.5156,1076,1101.5156" style="stroke:#181818;stroke-width:1.0;"/><line style="stroke:#181818;stroke-width:1.0;stroke-dasharray:2.0,2.0;" x1="1074" x2="1188" y1="1101.5156" y2="1101.5156"/><text fill="#000000" font-family="sans-serif" font-size="13" lengthAdjust="spacing" textLength="64" x="1086" y="1096.6592">vesselType</text><line style="stroke:#181818;stroke-width:1.0;" x1="681" x2="723" y1="1148.2188" y2="1148.2188"/><line style="stroke:#181818;stroke-width:1.0;" x1="723" x2="723" y1="1148.2188" y2="1161.2188"/><line style="stroke:#181818;stroke-width:1.0;" x1="682" x2="723" y1="1161.2188" y2="1161.2188"/><polygon fill="#181818" points="692,1157.2188,682,1161.2188,692,1165.2188,688,1161.2188" style="stroke:#181818;stroke-width:1.0;"/><text fill="#000000" font-family="sans-serif" font-size="13" lengthAdjust="spacing" textLength="169" x="688" y="1127.0107">Apply changes to vesselType</text><text fill="#000000" font-family="sans-serif" font-size="13" lengthAdjust="spacing" textLength="160" x="688" y="1143.3623">(update only provided fields)</text><polygon fill="#181818" points="1052,1187.5703,1062,1191.5703,1052,1195.5703,1056,1191.5703" style="stroke:#181818;stroke-width:1.0;"/><line style="stroke:#181818;stroke-width:1.0;" x1="681" x2="1058" y1="1191.5703" y2="1191.5703"/><text fill="#000000" font-family="sans-serif" font-size="13" lengthAdjust="spacing" textLength="124" x="688" y="1186.7139">SaveChangesAsync()</text><polygon fill="#181818" points="1172,1217.9219,1182,1221.9219,1172,1225.9219,1176,1221.9219" style="stroke:#181818;stroke-width:1.0;"/><line style="stroke:#181818;stroke-width:1.0;" x1="1074" x2="1178" y1="1221.9219" y2="1221.9219"/><text fill="#000000" font-family="sans-serif" font-size="13" lengthAdjust="spacing" textLength="39" x="1081" y="1217.0654">update</text><polygon fill="#181818" points="1080,1248.2734,1070,1252.2734,1080,1256.2734,1076,1252.2734" style="stroke:#181818;stroke-width:1.0;"/><line style="stroke:#181818;stroke-width:1.0;stroke-dasharray:2.0,2.0;" x1="1074" x2="1188" y1="1252.2734" y2="1252.2734"/><text fill="#000000" font-family="sans-serif" font-size="13" lengthAdjust="spacing" textLength="14" x="1086" y="1247.417">ok</text><polygon fill="#181818" points="345,1327.6797,335,1331.6797,345,1335.6797,341,1331.6797" style="stroke:#181818;stroke-width:1.0;"/><line style="stroke:#181818;stroke-width:1.0;stroke-dasharray:2.0,2.0;" x1="339" x2="670" y1="1331.6797" y2="1331.6797"/><text fill="#000000" font-family="sans-serif" font-size="13" lengthAdjust="spacing" textLength="206" x="351" y="1277.7686">200 OK + VesselTypeResponseDto</text><text fill="#000000" font-family="sans-serif" font-size="13" lengthAdjust="spacing" textLength="205" x="351" y="1294.1201">{ VesselTypeId, Name, Description,</text><text fill="#000000" font-family="sans-serif" font-size="13" lengthAdjust="spacing" textLength="233" x="351" y="1310.4717">MaxCapacityTEU, MaxRows, MaxBays,</text><text fill="#000000" font-family="sans-serif" font-size="13" lengthAdjust="spacing" textLength="260" x="351" y="1326.8232">MaxTiers, MaxLength, MaxBeam, MaxDraft }</text><polygon fill="#181818" points="100,1358.0313,90,1362.0313,100,1366.0313,96,1362.0313" style="stroke:#181818;stroke-width:1.0;"/><line style="stroke:#181818;stroke-width:1.0;stroke-dasharray:2.0,2.0;" x1="94" x2="323" y1="1362.0313" y2="1362.0313"/><text fill="#000000" font-family="sans-serif" font-size="13" lengthAdjust="spacing" textLength="204" x="106" y="1357.1748">Display updated vessel type details</text><!--SRC=[rLLDJnin4BtlhvZcW18rQQgMIr41XIn8KSk7IC8f5sSz8LOTUsjx0ol4V-_ONf9TDGKLLPMuxThpyUQz6OyJJYACnodqO9fpvX1kq5gKC2bpJ1AMEMsWTQMDWq7Xbje8LyBbOY4oD2rW5gOMJP8puqGcSgOSjCOPayn07mPN8nXAWSe5o_ZPj8t9V2uxrCePBMKLTzWqz0ZIkRV1-nWkdIU4bysPHMYTda5xfCvnfKtP2TTZ0au5U7ZGEwgImm5SJIVGPxdehqFgdlEv-m-2FyxK0wHeCoDo9xGwxi8vkn-od6LKy-HqUjoTAJgvrdSstfsmilgQ23Iskl-EwjOjAmjag_YL6hPmtkA2hV0O7ZspOktvhcYf07geX39gqHQy2zpfJisQD94EX5epAJWmqeJSHCOyP6WhxM2tM9q4A7AlJiN-nyzmfirSS8vgfbgNIfP_yBQGCGL5x93870JcMZvi1PrY1xeFuDGORGvWa6La2XHT84zGseOlUB0BNIWUeHsHfEHx9XGVs59bNxVDSKHC-08sD93uuCt9AGXDVZyBD6NT9dO0L0Qzf_Yga99EEVvcM3iAyNSnjWyNXFhCeoR6RdPLyombTG-kqGOtl1VMHNuKjGTaIwPk4PZYm8jSUdNZpNybQhs9-ZTqLSu3LGPixTg4mzqIAO6V03Wyz8tz8NplxS68mxj3-7VOdIaGsXloEgyN_0lGexEWC8xq7f1QL4EZY- -4Mu9R2XkrOz8WusNKzFdnI9lQHltnbaPvJOF2P46KvKQl1KV-1fHlylOHJXY7QwISDb0d9OtU2et8dcfR5TR1727NLlYQdoLhLBruGkL5DIln83vARs8o_Ci-o7DwPUE4Mt2w5cocsjKBg_rB_2GzB0HARZkD4iTiZSCO9CxPIxLjQ7gfEFtZjQ9_8j4lly5xsB9-ZJRNocBgj5-lsuiHRJO__DtwoeqBjBPom-hq2tUpRwD9sBVXB6xRpRBTxbfQiRkwAHKsbwoiwE2DIURec90sGTf8IQtSOUCdXFm5]--></g></svg>