<?xml version="1.0" encoding="us-ascii" standalone="no"?><svg xmlns="http://www.w3.org/2000/svg" xmlns:xlink="http://www.w3.org/1999/xlink" contentStyleType="text/css" height="908px" preserveAspectRatio="none" style="width:1403px;height:908px;background:#FFFFFF;" version="1.1" viewBox="0 0 1403 908" width="1403px" zoomAndPan="magnify"><defs/><g><text fill="#000000" font-family="sans-serif" font-size="14" font-weight="bold" lengthAdjust="spacing" textLength="393" x="498" y="24.5332">Domain Model - US 2.2.1 (Create &amp; Update Vessel Types)</text><!--class VesselType--><g id="elem_VesselType"><rect codeLine="3" fill="#F1F1F1" height="270.0156" id="VesselType" rx="2.5" ry="2.5" style="stroke:#181818;stroke-width:0.5;" width="1053" x="7" y="294.6094"/><ellipse cx="481.25" cy="315.9609" fill="#ADD1B2" rx="11" ry="11" style="stroke:#181818;stroke-width:1.0;"/><path d="M484.0156,311.8359 Q484.1719,311.6172 484.3594,311.5078 Q484.5469,311.3984 484.7656,311.3984 Q485.1406,311.3984 485.375,311.6641 Q485.6094,311.9141 485.6094,312.5234 L485.6094,313.9766 Q485.6094,314.5859 485.375,314.8516 Q485.1406,315.1172 484.7656,315.1172 Q484.4219,315.1172 484.2188,314.9141 Q484.0156,314.7266 483.9063,314.2109 Q483.8594,313.8516 483.6719,313.6641 Q483.3438,313.2891 482.7344,313.0703 Q482.125,312.8516 481.5,312.8516 Q480.7344,312.8516 480.0938,313.1797 Q479.4688,313.5078 478.9688,314.2578 Q478.4844,315.0078 478.4844,316.0391 L478.4844,317.1328 Q478.4844,318.3672 479.375,319.1953 Q480.2656,320.0078 481.8594,320.0078 Q482.7969,320.0078 483.4531,319.7578 Q483.8438,319.6016 484.2656,319.1641 Q484.5313,318.8984 484.6719,318.8203 Q484.8281,318.7422 485.0313,318.7422 Q485.3594,318.7422 485.6094,319.0078 Q485.875,319.2578 485.875,319.6016 Q485.875,319.9453 485.5313,320.3516 Q485.0313,320.9297 484.2344,321.2578 Q483.1563,321.7109 481.8594,321.7109 Q480.3438,321.7109 479.1406,321.0859 Q478.1563,320.5859 477.4688,319.5234 Q476.7813,318.4453 476.7813,317.1641 L476.7813,316.0078 Q476.7813,314.6797 477.3906,313.5391 Q478.0156,312.3828 479.1094,311.7734 Q480.2031,311.1484 481.4375,311.1484 Q482.1719,311.1484 482.8125,311.3203 Q483.4688,311.4766 484.0156,311.8359 Z " fill="#000000"/><text fill="#000000" font-family="sans-serif" font-size="12" font-style="italic" lengthAdjust="spacing" textLength="100" x="499.75" y="312.0664">&#171;Aggregate Root&#187;</text><text fill="#000000" font-family="sans-serif" font-size="14" lengthAdjust="spacing" textLength="74" x="512.75" y="329.2363">VesselType</text><line style="stroke:#181818;stroke-width:0.5;" x1="8" x2="1059" y1="337.3125" y2="337.3125"/><ellipse cx="18" cy="351.6172" fill="none" rx="3" ry="3" style="stroke:#038048;stroke-width:1.0;"/><text fill="#000000" font-family="sans-serif" font-size="14" lengthAdjust="spacing" textLength="132" x="27" y="355.8457">VesselTypeId : string</text><ellipse cx="18" cy="369.2266" fill="none" rx="3" ry="3" style="stroke:#038048;stroke-width:1.0;"/><text fill="#000000" font-family="sans-serif" font-size="14" lengthAdjust="spacing" textLength="83" x="27" y="373.4551">Name : string</text><ellipse cx="18" cy="386.8359" fill="none" rx="3" ry="3" style="stroke:#038048;stroke-width:1.0;"/><text fill="#000000" font-family="sans-serif" font-size="14" lengthAdjust="spacing" textLength="118" x="27" y="391.0645">Description : string</text><ellipse cx="18" cy="404.4453" fill="none" rx="3" ry="3" style="stroke:#038048;stroke-width:1.0;"/><text fill="#000000" font-family="sans-serif" font-size="14" lengthAdjust="spacing" textLength="134" x="27" y="408.6738">MaxCapacityTEU : int</text><ellipse cx="18" cy="422.0547" fill="none" rx="3" ry="3" style="stroke:#038048;stroke-width:1.0;"/><text fill="#000000" font-family="sans-serif" font-size="14" lengthAdjust="spacing" textLength="86" x="27" y="426.2832">MaxRows : int</text><ellipse cx="18" cy="439.6641" fill="none" rx="3" ry="3" style="stroke:#038048;stroke-width:1.0;"/><text fill="#000000" font-family="sans-serif" font-size="14" lengthAdjust="spacing" textLength="83" x="27" y="443.8926">MaxBays : int</text><ellipse cx="18" cy="457.2734" fill="none" rx="3" ry="3" style="stroke:#038048;stroke-width:1.0;"/><text fill="#000000" font-family="sans-serif" font-size="14" lengthAdjust="spacing" textLength="84" x="27" y="461.502">MaxTiers : int</text><ellipse cx="18" cy="474.8828" fill="none" rx="3" ry="3" style="stroke:#038048;stroke-width:1.0;"/><text fill="#000000" font-family="sans-serif" font-size="14" lengthAdjust="spacing" textLength="129" x="27" y="479.1113">MaxLength : decimal</text><ellipse cx="18" cy="492.4922" fill="none" rx="3" ry="3" style="stroke:#038048;stroke-width:1.0;"/><text fill="#000000" font-family="sans-serif" font-size="14" lengthAdjust="spacing" textLength="121" x="27" y="496.7207">MaxBeam : decimal</text><ellipse cx="18" cy="510.1016" fill="none" rx="3" ry="3" style="stroke:#038048;stroke-width:1.0;"/><text fill="#000000" font-family="sans-serif" font-size="14" lengthAdjust="spacing" textLength="116" x="27" y="514.3301">MaxDraft : decimal</text><line style="stroke:#181818;stroke-width:1.0;" x1="8" x2="1059" y1="521.4063" y2="521.4063"/><ellipse cx="18" cy="535.7109" fill="#84BE84" rx="3" ry="3" style="stroke:#038048;stroke-width:1.0;"/><text fill="#000000" font-family="sans-serif" font-size="14" lengthAdjust="spacing" textLength="1027" x="27" y="539.9395">VesselType(name:string, description:string, maxCapacityTEU:int, maxRows:int, maxBays:int, maxTiers:int, maxLength:decimal, maxBeam:decimal, maxDraft:decimal)</text><ellipse cx="18" cy="553.3203" fill="#84BE84" rx="3" ry="3" style="stroke:#038048;stroke-width:1.0;"/><text fill="#000000" font-family="sans-serif" font-size="14" lengthAdjust="spacing" textLength="954" x="27" y="557.5488">Update(description:string, maxCapacityTEU:int, maxRows:int, maxBays:int, maxTiers:int, maxLength:decimal, maxBeam:decimal, maxDraft:decimal) : void</text></g><!--class Vessel--><g id="elem_Vessel"><rect codeLine="19" fill="#F1F1F1" height="259.3125" id="Vessel" rx="2.5" ry="2.5" style="stroke:#181818;stroke-width:0.5;" width="303" x="382" y="642.6094"/><ellipse cx="508.25" cy="658.6094" fill="#ADD1B2" rx="11" ry="11" style="stroke:#181818;stroke-width:1.0;"/><path d="M511.0156,654.4844 Q511.1719,654.2656 511.3594,654.1563 Q511.5469,654.0469 511.7656,654.0469 Q512.1406,654.0469 512.375,654.3125 Q512.6094,654.5625 512.6094,655.1719 L512.6094,656.625 Q512.6094,657.2344 512.375,657.5 Q512.1406,657.7656 511.7656,657.7656 Q511.4219,657.7656 511.2188,657.5625 Q511.0156,657.375 510.9063,656.8594 Q510.8594,656.5 510.6719,656.3125 Q510.3438,655.9375 509.7344,655.7188 Q509.125,655.5 508.5,655.5 Q507.7344,655.5 507.0938,655.8281 Q506.4688,656.1563 505.9688,656.9063 Q505.4844,657.6563 505.4844,658.6875 L505.4844,659.7813 Q505.4844,661.0156 506.375,661.8438 Q507.2656,662.6563 508.8594,662.6563 Q509.7969,662.6563 510.4531,662.4063 Q510.8438,662.25 511.2656,661.8125 Q511.5313,661.5469 511.6719,661.4688 Q511.8281,661.3906 512.0313,661.3906 Q512.3594,661.3906 512.6094,661.6563 Q512.875,661.9063 512.875,662.25 Q512.875,662.5938 512.5313,663 Q512.0313,663.5781 511.2344,663.9063 Q510.1563,664.3594 508.8594,664.3594 Q507.3438,664.3594 506.1406,663.7344 Q505.1563,663.2344 504.4688,662.1719 Q503.7813,661.0938 503.7813,659.8125 L503.7813,658.6563 Q503.7813,657.3281 504.3906,656.1875 Q505.0156,655.0313 506.1094,654.4219 Q507.2031,653.7969 508.4375,653.7969 Q509.1719,653.7969 509.8125,653.9688 Q510.4688,654.125 511.0156,654.4844 Z " fill="#000000"/><text fill="#000000" font-family="sans-serif" font-size="14" lengthAdjust="spacing" textLength="42" x="528.75" y="664.3379">Vessel</text><line style="stroke:#181818;stroke-width:0.5;" x1="383" x2="684" y1="674.6094" y2="674.6094"/><ellipse cx="393" cy="688.9141" fill="none" rx="3" ry="3" style="stroke:#038048;stroke-width:1.0;"/><text fill="#000000" font-family="sans-serif" font-size="14" lengthAdjust="spacing" textLength="118" x="402" y="693.1426">ImoNumber : string</text><ellipse cx="393" cy="706.5234" fill="none" rx="3" ry="3" style="stroke:#038048;stroke-width:1.0;"/><text fill="#000000" font-family="sans-serif" font-size="14" lengthAdjust="spacing" textLength="83" x="402" y="710.752">Name : string</text><ellipse cx="393" cy="724.1328" fill="none" rx="3" ry="3" style="stroke:#038048;stroke-width:1.0;"/><text fill="#000000" font-family="sans-serif" font-size="14" lengthAdjust="spacing" textLength="132" x="402" y="728.3613">VesselTypeId : string</text><ellipse cx="393" cy="741.7422" fill="none" rx="3" ry="3" style="stroke:#038048;stroke-width:1.0;"/><text fill="#000000" font-family="sans-serif" font-size="14" lengthAdjust="spacing" textLength="104" x="402" y="745.9707">Length : decimal</text><ellipse cx="393" cy="759.3516" fill="none" rx="3" ry="3" style="stroke:#038048;stroke-width:1.0;"/><text fill="#000000" font-family="sans-serif" font-size="14" lengthAdjust="spacing" textLength="96" x="402" y="763.5801">Beam : decimal</text><ellipse cx="393" cy="776.9609" fill="none" rx="3" ry="3" style="stroke:#038048;stroke-width:1.0;"/><text fill="#000000" font-family="sans-serif" font-size="14" lengthAdjust="spacing" textLength="91" x="402" y="781.1895">Draft : decimal</text><ellipse cx="393" cy="794.5703" fill="none" rx="3" ry="3" style="stroke:#038048;stroke-width:1.0;"/><text fill="#000000" font-family="sans-serif" font-size="14" lengthAdjust="spacing" textLength="109" x="402" y="798.7988">CapacityTEU : int</text><line style="stroke:#181818;stroke-width:1.0;" x1="383" x2="684" y1="805.875" y2="805.875"/><text fill="#000000" font-family="sans-serif" font-size="14" lengthAdjust="spacing" textLength="76" x="388" y="824.4082">Constraints:</text><text fill="#000000" font-family="sans-serif" font-size="14" lengthAdjust="spacing" textLength="215" x="388" y="842.0176">Length &lt;= VesselType.MaxLength</text><text fill="#000000" font-family="sans-serif" font-size="14" lengthAdjust="spacing" textLength="199" x="388" y="859.627">Beam &lt;= VesselType.MaxBeam</text><text fill="#000000" font-family="sans-serif" font-size="14" lengthAdjust="spacing" textLength="189" x="388" y="877.2363">Draft &lt;= VesselType.MaxDraft</text><text fill="#000000" font-family="sans-serif" font-size="14" lengthAdjust="spacing" textLength="291" x="388" y="894.8457">CapacityTEU &lt;= VesselType.MaxCapacityTEU</text></g><!--class Dock--><g id="elem_Dock"><rect codeLine="35" fill="#F1F1F1" height="171.2656" id="Dock" rx="2.5" ry="2.5" style="stroke:#181818;stroke-width:0.5;" width="227" x="420" y="45.6094"/><ellipse cx="513.25" cy="61.6094" fill="#ADD1B2" rx="11" ry="11" style="stroke:#181818;stroke-width:1.0;"/><path d="M516.0156,57.4844 Q516.1719,57.2656 516.3594,57.1563 Q516.5469,57.0469 516.7656,57.0469 Q517.1406,57.0469 517.375,57.3125 Q517.6094,57.5625 517.6094,58.1719 L517.6094,59.625 Q517.6094,60.2344 517.375,60.5 Q517.1406,60.7656 516.7656,60.7656 Q516.4219,60.7656 516.2188,60.5625 Q516.0156,60.375 515.9063,59.8594 Q515.8594,59.5 515.6719,59.3125 Q515.3438,58.9375 514.7344,58.7188 Q514.125,58.5 513.5,58.5 Q512.7344,58.5 512.0938,58.8281 Q511.4688,59.1563 510.9688,59.9063 Q510.4844,60.6563 510.4844,61.6875 L510.4844,62.7813 Q510.4844,64.0156 511.375,64.8438 Q512.2656,65.6563 513.8594,65.6563 Q514.7969,65.6563 515.4531,65.4063 Q515.8438,65.25 516.2656,64.8125 Q516.5313,64.5469 516.6719,64.4688 Q516.8281,64.3906 517.0313,64.3906 Q517.3594,64.3906 517.6094,64.6563 Q517.875,64.9063 517.875,65.25 Q517.875,65.5938 517.5313,66 Q517.0313,66.5781 516.2344,66.9063 Q515.1563,67.3594 513.8594,67.3594 Q512.3438,67.3594 511.1406,66.7344 Q510.1563,66.2344 509.4688,65.1719 Q508.7813,64.0938 508.7813,62.8125 L508.7813,61.6563 Q508.7813,60.3281 509.3906,59.1875 Q510.0156,58.0313 511.1094,57.4219 Q512.2031,56.7969 513.4375,56.7969 Q514.1719,56.7969 514.8125,56.9688 Q515.4688,57.125 516.0156,57.4844 Z " fill="#000000"/><text fill="#000000" font-family="sans-serif" font-size="14" lengthAdjust="spacing" textLength="32" x="533.75" y="67.3379">Dock</text><line style="stroke:#181818;stroke-width:0.5;" x1="421" x2="646" y1="77.6094" y2="77.6094"/><ellipse cx="431" cy="91.9141" fill="none" rx="3" ry="3" style="stroke:#038048;stroke-width:1.0;"/><text fill="#000000" font-family="sans-serif" font-size="14" lengthAdjust="spacing" textLength="113" x="440" y="96.1426">DockCode : string</text><ellipse cx="431" cy="109.5234" fill="none" rx="3" ry="3" style="stroke:#038048;stroke-width:1.0;"/><text fill="#000000" font-family="sans-serif" font-size="14" lengthAdjust="spacing" textLength="104" x="440" y="113.752">Length : decimal</text><ellipse cx="431" cy="127.1328" fill="none" rx="3" ry="3" style="stroke:#038048;stroke-width:1.0;"/><text fill="#000000" font-family="sans-serif" font-size="14" lengthAdjust="spacing" textLength="98" x="440" y="131.3613">Depth : decimal</text><ellipse cx="431" cy="144.7422" fill="none" rx="3" ry="3" style="stroke:#038048;stroke-width:1.0;"/><text fill="#000000" font-family="sans-serif" font-size="14" lengthAdjust="spacing" textLength="111" x="440" y="148.9707">DockType : enum</text><line style="stroke:#181818;stroke-width:1.0;" x1="421" x2="646" y1="156.0469" y2="156.0469"/><text fill="#000000" font-family="sans-serif" font-size="14" lengthAdjust="spacing" textLength="215" x="426" y="174.5801">Can accommodate vessels where:</text><text fill="#000000" font-family="sans-serif" font-size="14" lengthAdjust="spacing" textLength="194" x="426" y="192.1895">Vessel.Length &lt;= Dock.Length</text><text fill="#000000" font-family="sans-serif" font-size="14" lengthAdjust="spacing" textLength="175" x="426" y="209.7988">Vessel.Draft &lt;= Dock.Depth</text></g><g id="elem_GMN5"><path d="M1095,359.1094 L1095,425.6094 L1060.2,429.6094 L1095,433.6094 L1095,499.9219 A0,0 0 0 0 1095,499.9219 L1396,499.9219 A0,0 0 0 0 1396,499.9219 L1396,369.1094 L1386,359.1094 L1095,359.1094 A0,0 0 0 0 1095,359.1094 " fill="#FEFFDD" style="stroke:#181818;stroke-width:0.5;"/><path d="M1386,359.1094 L1386,369.1094 L1396,369.1094 L1386,359.1094 " fill="#FEFFDD" style="stroke:#181818;stroke-width:0.5;"/><text fill="#000000" font-family="sans-serif" font-size="13" font-weight="bold" lengthAdjust="spacing" textLength="66" x="1101" y="377.6045">Invariants:</text><text fill="#000000" font-family="sans-serif" font-size="13" lengthAdjust="spacing" textLength="135" x="1101" y="393.9561">- Name must be unique</text><text fill="#000000" font-family="sans-serif" font-size="13" lengthAdjust="spacing" textLength="211" x="1101" y="410.3076">- All numeric values must be positive</text><text fill="#000000" font-family="sans-serif" font-size="13" lengthAdjust="spacing" textLength="182" x="1101" y="426.6592">- Name cannot be null or empty</text><text fill="#000000" font-family="sans-serif" font-size="13" lengthAdjust="spacing" textLength="4" x="1101" y="443.0107">&#160;</text><text fill="#000000" font-family="sans-serif" font-size="13" font-weight="bold" lengthAdjust="spacing" textLength="56" x="1101" y="459.3623">Purpose:</text><text fill="#000000" font-family="sans-serif" font-size="13" lengthAdjust="spacing" textLength="239" x="1101" y="475.7139">Defines maximum operational constraints</text><text fill="#000000" font-family="sans-serif" font-size="13" lengthAdjust="spacing" textLength="280" x="1101" y="492.0654">and physical dimensions for vessel classification</text></g><g id="elem_GMN8"><path d="M62.5,742.6094 L62.5,801.6641 A0,0 0 0 0 62.5,801.6641 L346.5,801.6641 A0,0 0 0 0 346.5,801.6641 L346.5,776.1094 L381.94,772.1094 L346.5,768.1094 L346.5,752.6094 L336.5,742.6094 L62.5,742.6094 A0,0 0 0 0 62.5,742.6094 " fill="#FEFFDD" style="stroke:#181818;stroke-width:0.5;"/><path d="M336.5,742.6094 L336.5,752.6094 L346.5,752.6094 L336.5,742.6094 " fill="#FEFFDD" style="stroke:#181818;stroke-width:0.5;"/><text fill="#000000" font-family="sans-serif" font-size="13" lengthAdjust="spacing" textLength="239" x="68.5" y="761.1045">Individual vessels reference a VesselType</text><text fill="#000000" font-family="sans-serif" font-size="13" lengthAdjust="spacing" textLength="263" x="68.5" y="777.4561">and cannot exceed its maximum dimensions.</text><text fill="#000000" font-family="sans-serif" font-size="13" lengthAdjust="spacing" textLength="165" x="68.5" y="793.8076">This is validated in US 2.2.2.</text></g><g id="elem_GMN11"><path d="M682.5,93.6094 L682.5,127.1094 L647.17,131.1094 L682.5,135.1094 L682.5,169.0156 A0,0 0 0 0 682.5,169.0156 L956.5,169.0156 A0,0 0 0 0 956.5,169.0156 L956.5,103.6094 L946.5,93.6094 L682.5,93.6094 A0,0 0 0 0 682.5,93.6094 " fill="#FEFFDD" style="stroke:#181818;stroke-width:0.5;"/><path d="M946.5,93.6094 L946.5,103.6094 L956.5,103.6094 L946.5,93.6094 " fill="#FEFFDD" style="stroke:#181818;stroke-width:0.5;"/><text fill="#000000" font-family="sans-serif" font-size="13" lengthAdjust="spacing" textLength="217" x="688.5" y="112.1045">Docks must be able to accommodate</text><text fill="#000000" font-family="sans-serif" font-size="13" lengthAdjust="spacing" textLength="253" x="688.5" y="128.4561">vessel types based on physical constraints.</text><text fill="#000000" font-family="sans-serif" font-size="13" lengthAdjust="spacing" textLength="238" x="688.5" y="144.8076">VesselType max dimensions inform dock</text><text fill="#000000" font-family="sans-serif" font-size="13" lengthAdjust="spacing" textLength="105" x="688.5" y="161.1592">capacity planning.</text></g><!--reverse link VesselType to Vessel--><g id="link_VesselType_Vessel"><path codeLine="71" d="M533.5,576.6994 C533.5,602.2894 533.5,617.0194 533.5,642.4294 " fill="none" id="VesselType-backto-Vessel" style="stroke:#181818;stroke-width:1.0;"/><polygon fill="none" points="533.5,564.6994,529.5,570.6994,533.5,576.6994,537.5,570.6994,533.5,564.6994" style="stroke:#181818;stroke-width:1.0;"/><polygon fill="#000000" points="538.5,608.7852,541.4389,599.7401,535.5611,599.7401,538.5,608.7852" style="stroke:#000000;stroke-width:1.0;"/><text fill="#000000" font-family="sans-serif" font-size="13" lengthAdjust="spacing" textLength="54" x="547.5" y="609.1045">classifies</text><text fill="#000000" font-family="sans-serif" font-size="13" lengthAdjust="spacing" textLength="7" x="526.3086" y="586.0289">1</text><text fill="#000000" font-family="sans-serif" font-size="13" lengthAdjust="spacing" textLength="20" x="512.9219" y="631.966">0..*</text></g><!--link Dock to VesselType--><g id="link_Dock_VesselType"><path codeLine="72" d="M533.5,216.6794 C533.5,240.8994 533.5,267.9194 533.5,294.3394 " fill="none" id="Dock-VesselType" style="stroke:#181818;stroke-width:1.0;"/><polygon fill="#000000" points="538.5,260.7852,541.4389,251.7401,535.5611,251.7401,538.5,260.7852" style="stroke:#000000;stroke-width:1.0;"/><text fill="#000000" font-family="sans-serif" font-size="13" lengthAdjust="spacing" textLength="107" x="547.5" y="261.1045">can accommodate</text><text fill="#000000" font-family="sans-serif" font-size="13" lengthAdjust="spacing" textLength="20" x="512.6094" y="238.5119">0..*</text><text fill="#000000" font-family="sans-serif" font-size="13" lengthAdjust="spacing" textLength="20" x="512.9219" y="283.5614">0..*</text></g><!--SRC=[pLN1Rjim3BtxAuWSjZPTZBN7e0lG9Ji4M8kXItTNP2OXPacU9ASDXltxADcHxQJ3TXmG8FRZa_ZuICcUV8cmC4gGXdjJO0aJUFeAD_bDVWqNSul28xo1fwe83z_GEQQi3XMwoooJfN2k1GC6jxTtswt5RU0-6kDdC_YP0LprECi2fk2y9RsDaGUXS8Wiq4bBbIUZXu5xyJ8NbP3a3wjFJnmZxO-1H_FiXiX7SJX1LeJs1FgCUkjtZ1KeIOaoBKQXpj655Hi_W2UJa_8kDDSpRKI_Os8g9M5gKCMKnKGi591UWlRq4cMdjqRnj9NGi5di08WwZyXbLDWqyEA_4CGExWqLsQ_X1BMZibJceLPhj7-Rap_FrAjTVQMbv_syWjScB7PvRZIdu7FYtPHVsnot7tewyZHHJ8Zvpi81vM2J-ImQuP2h9-ACr0js5YwC_DuQ61xdV9J_mPC5LkSOBu-7UGgeQvNA5ng4b4Of4w-2VTJau7c75eCXZSYyyoLib2Sxsd0gF4PZ_b24DhobfUtEWzdqwkM5u_5IxuKb4OmVZuEUPXXKxJoi4MfDFsgC-5rP0cj6InBsegpH9LPb77dQOxTU2irfGqpNlCvOG5Nv0nDYrY-rvJNOf5pWXdJOJRoGgXMO2gq8fqYK8Bl1OARG1LIxWoF9eO8KQiSq1nlUl_4COiTemuomGuQy8jJVkb3YfcS2xxZK1Usfg7c_e-aMD-owbWXYQ5R8tjQ5BnAn0FATwavEpjpLZXpmZusYq5BcwkFTVvEVoahD2OqBZl1VvwvOysV4c_w4CAUjruVF1Qo5unHyfoTtUiRbQKBYwB7WldUasJsMtsIMxVn3LNAbFDzzhM_X4SlegzjHvRBUfgFh4PZ914RlytmyEbuwqzGErZZBuZbg6QVSzbJ8avCmotu3]--></g></svg>