<?xml version="1.0" encoding="us-ascii" standalone="no"?><svg xmlns="http://www.w3.org/2000/svg" xmlns:xlink="http://www.w3.org/1999/xlink" contentStyleType="text/css" height="760px" preserveAspectRatio="none" style="width:1437px;height:760px;background:#FFFFFF;" version="1.1" viewBox="0 0 1437 760" width="1437px" zoomAndPan="magnify"><defs/><g><text fill="#000000" font-family="sans-serif" font-size="14" font-weight="bold" lengthAdjust="spacing" textLength="186" x="626.75" y="29.5332">SSD - Search Vessel Types</text><rect fill="#FFFFFF" height="413.4609" style="stroke:#181818;stroke-width:1.0;" width="10" x="420" y="169.9219"/><rect fill="#FFFFFF" height="383.1094" style="stroke:#181818;stroke-width:1.0;" width="10" x="756" y="200.2734"/><rect fill="#FFFFFF" height="60.7031" style="stroke:#181818;stroke-width:1.0;" width="10" x="1201" y="381.5703"/><rect fill="#FFFFFF" height="30.3516" style="stroke:#181818;stroke-width:1.0;" width="10" x="1366" y="411.9219"/><rect fill="none" height="361.1094" style="stroke:#000000;stroke-width:1.5;" width="1420.5" x="10" y="215.2734"/><line style="stroke:#181818;stroke-width:0.5;stroke-dasharray:5.0,5.0;" x1="89" x2="89" y1="121.2188" y2="678.7891"/><line style="stroke:#181818;stroke-width:0.5;stroke-dasharray:5.0,5.0;" x1="424.5" x2="424.5" y1="121.2188" y2="678.7891"/><line style="stroke:#181818;stroke-width:0.5;stroke-dasharray:5.0,5.0;" x1="760.5" x2="760.5" y1="121.2188" y2="678.7891"/><line style="stroke:#181818;stroke-width:0.5;stroke-dasharray:5.0,5.0;" x1="1206" x2="1206" y1="121.2188" y2="678.7891"/><line style="stroke:#181818;stroke-width:0.5;stroke-dasharray:5.0,5.0;" x1="1370.5" x2="1370.5" y1="121.2188" y2="678.7891"/><text fill="#000000" font-family="sans-serif" font-size="14" lengthAdjust="spacing" textLength="132" x="20" y="118.1426">Port Authority Officer</text><ellipse cx="89" cy="52.1094" fill="#E2E2F0" rx="8" ry="8" style="stroke:#181818;stroke-width:0.5;"/><path d="M89,60.1094 L89,87.1094 M76,68.1094 L102,68.1094 M89,87.1094 L76,102.1094 M89,87.1094 L102,102.1094 " fill="none" style="stroke:#181818;stroke-width:0.5;"/><text fill="#000000" font-family="sans-serif" font-size="14" lengthAdjust="spacing" textLength="132" x="20" y="692.3223">Port Authority Officer</text><ellipse cx="89" cy="703.8984" fill="#E2E2F0" rx="8" ry="8" style="stroke:#181818;stroke-width:0.5;"/><path d="M89,711.8984 L89,738.8984 M76,719.8984 L102,719.8984 M89,738.8984 L76,753.8984 M89,738.8984 L102,753.8984 " fill="none" style="stroke:#181818;stroke-width:0.5;"/><rect fill="#E2E2F0" height="31.6094" rx="2.5" ry="2.5" style="stroke:#181818;stroke-width:0.5;" width="127" x="361.5" y="88.6094"/><text fill="#000000" font-family="sans-serif" font-size="14" lengthAdjust="spacing" textLength="113" x="368.5" y="110.1426">Scalar / API Client</text><rect fill="#E2E2F0" height="31.6094" rx="2.5" ry="2.5" style="stroke:#181818;stroke-width:0.5;" width="127" x="361.5" y="677.7891"/><text fill="#000000" font-family="sans-serif" font-size="14" lengthAdjust="spacing" textLength="113" x="368.5" y="699.3223">Scalar / API Client</text><rect fill="#E2E2F0" height="31.6094" rx="2.5" ry="2.5" style="stroke:#181818;stroke-width:0.5;" width="157" x="682.5" y="88.6094"/><text fill="#000000" font-family="sans-serif" font-size="14" lengthAdjust="spacing" textLength="143" x="689.5" y="110.1426">VesselTypesController</text><rect fill="#E2E2F0" height="31.6094" rx="2.5" ry="2.5" style="stroke:#181818;stroke-width:0.5;" width="157" x="682.5" y="677.7891"/><text fill="#000000" font-family="sans-serif" font-size="14" lengthAdjust="spacing" textLength="143" x="689.5" y="699.3223">VesselTypesController</text><rect fill="#E2E2F0" height="31.6094" rx="2.5" ry="2.5" style="stroke:#181818;stroke-width:0.5;" width="106" x="1153" y="88.6094"/><text fill="#000000" font-family="sans-serif" font-size="14" lengthAdjust="spacing" textLength="92" x="1160" y="110.1426">PortDbContext</text><rect fill="#E2E2F0" height="31.6094" rx="2.5" ry="2.5" style="stroke:#181818;stroke-width:0.5;" width="106" x="1153" y="677.7891"/><text fill="#000000" font-family="sans-serif" font-size="14" lengthAdjust="spacing" textLength="92" x="1160" y="699.3223">PortDbContext</text><text fill="#000000" font-family="sans-serif" font-size="14" lengthAdjust="spacing" textLength="93" x="1321.5" y="118.1426">EF (InMemory)</text><path d="M1353,67.6094 C1353,57.6094 1371,57.6094 1371,57.6094 C1371,57.6094 1389,57.6094 1389,67.6094 L1389,93.6094 C1389,103.6094 1371,103.6094 1371,103.6094 C1371,103.6094 1353,103.6094 1353,93.6094 L1353,67.6094 " fill="#E2E2F0" style="stroke:#181818;stroke-width:1.5;"/><path d="M1353,67.6094 C1353,77.6094 1371,77.6094 1371,77.6094 C1371,77.6094 1389,77.6094 1389,67.6094 " fill="none" style="stroke:#181818;stroke-width:1.5;"/><text fill="#000000" font-family="sans-serif" font-size="14" lengthAdjust="spacing" textLength="93" x="1321.5" y="692.3223">EF (InMemory)</text><path d="M1353,705.3984 C1353,695.3984 1371,695.3984 1371,695.3984 C1371,695.3984 1389,695.3984 1389,705.3984 L1389,731.3984 C1389,741.3984 1371,741.3984 1371,741.3984 C1371,741.3984 1353,741.3984 1353,731.3984 L1353,705.3984 " fill="#E2E2F0" style="stroke:#181818;stroke-width:1.5;"/><path d="M1353,705.3984 C1353,715.3984 1371,715.3984 1371,715.3984 C1371,715.3984 1389,715.3984 1389,705.3984 " fill="none" style="stroke:#181818;stroke-width:1.5;"/><rect fill="#FFFFFF" height="413.4609" style="stroke:#181818;stroke-width:1.0;" width="10" x="420" y="169.9219"/><rect fill="#FFFFFF" height="383.1094" style="stroke:#181818;stroke-width:1.0;" width="10" x="756" y="200.2734"/><rect fill="#FFFFFF" height="60.7031" style="stroke:#181818;stroke-width:1.0;" width="10" x="1201" y="381.5703"/><rect fill="#FFFFFF" height="30.3516" style="stroke:#181818;stroke-width:1.0;" width="10" x="1366" y="411.9219"/><polygon fill="#181818" points="408,165.9219,418,169.9219,408,173.9219,412,169.9219" style="stroke:#181818;stroke-width:1.0;"/><line style="stroke:#181818;stroke-width:1.0;" x1="89" x2="414" y1="169.9219" y2="169.9219"/><text fill="#000000" font-family="sans-serif" font-size="13" lengthAdjust="spacing" textLength="170" x="96" y="148.7139">GET /api/vessel-types/search</text><text fill="#000000" font-family="sans-serif" font-size="13" lengthAdjust="spacing" textLength="267" x="96" y="165.0654">?nameFilter=tanker&amp;searchOperator=contains</text><polygon fill="#181818" points="744,196.2734,754,200.2734,744,204.2734,748,200.2734" style="stroke:#181818;stroke-width:1.0;"/><line style="stroke:#181818;stroke-width:1.0;" x1="430" x2="750" y1="200.2734" y2="200.2734"/><text fill="#000000" font-family="sans-serif" font-size="13" lengthAdjust="spacing" textLength="307" x="437" y="195.417">Search(nameFilter, descriptionFilter, searchOperator)</text><path d="M10,215.2734 L71,215.2734 L71,223.625 L61,233.625 L10,233.625 L10,215.2734 " fill="#EEEEEE" style="stroke:#000000;stroke-width:1.5;"/><rect fill="none" height="361.1094" style="stroke:#000000;stroke-width:1.5;" width="1420.5" x="10" y="215.2734"/><text fill="#000000" font-family="sans-serif" font-size="13" font-weight="bold" lengthAdjust="spacing" textLength="16" x="25" y="229.7686">alt</text><text fill="#000000" font-family="sans-serif" font-size="11" font-weight="bold" lengthAdjust="spacing" textLength="124" x="86" y="228.6924">[invalid authentication]</text><polygon fill="#181818" points="441,268.3281,431,272.3281,441,276.3281,437,272.3281" style="stroke:#181818;stroke-width:1.0;"/><line style="stroke:#181818;stroke-width:1.0;stroke-dasharray:2.0,2.0;" x1="435" x2="755" y1="272.3281" y2="272.3281"/><text fill="#000000" font-family="sans-serif" font-size="13" lengthAdjust="spacing" textLength="82" x="447" y="251.1201">403 Forbidden</text><text fill="#000000" font-family="sans-serif" font-size="13" lengthAdjust="spacing" textLength="143" x="447" y="267.4717">"Authentication required"</text><polygon fill="#181818" points="100,298.6797,90,302.6797,100,306.6797,96,302.6797" style="stroke:#181818;stroke-width:1.0;"/><line style="stroke:#181818;stroke-width:1.0;stroke-dasharray:2.0,2.0;" x1="94" x2="419" y1="302.6797" y2="302.6797"/><text fill="#000000" font-family="sans-serif" font-size="13" lengthAdjust="spacing" textLength="122" x="106" y="297.8232">Error: Access denied</text><line style="stroke:#000000;stroke-width:1.0;stroke-dasharray:2.0,2.0;" x1="10" x2="1430.5" y1="311.6797" y2="311.6797"/><text fill="#000000" font-family="sans-serif" font-size="11" font-weight="bold" lengthAdjust="spacing" textLength="112" x="15" y="323.0986">[authenticated user]</text><polygon fill="#181818" points="1189,377.5703,1199,381.5703,1189,385.5703,1193,381.5703" style="stroke:#181818;stroke-width:1.0;"/><line style="stroke:#181818;stroke-width:1.0;" x1="766" x2="1195" y1="381.5703" y2="381.5703"/><text fill="#000000" font-family="sans-serif" font-size="13" lengthAdjust="spacing" textLength="111" x="773" y="344.0107">VesselTypes query</text><text fill="#000000" font-family="sans-serif" font-size="13" lengthAdjust="spacing" textLength="336" x="773" y="360.3623">where (nameFilter == null OR Name.Contains(nameFilter))</text><text fill="#000000" font-family="sans-serif" font-size="13" lengthAdjust="spacing" textLength="416" x="773" y="376.7139">and (descriptionFilter == null OR Description.Contains(descriptionFilter))</text><polygon fill="#181818" points="1354,407.9219,1364,411.9219,1354,415.9219,1358,411.9219" style="stroke:#181818;stroke-width:1.0;"/><line style="stroke:#181818;stroke-width:1.0;" x1="1211" x2="1360" y1="411.9219" y2="411.9219"/><text fill="#000000" font-family="sans-serif" font-size="13" lengthAdjust="spacing" textLength="136" x="1218" y="407.0654">query (case-insensitive)</text><polygon fill="#181818" points="1217,438.2734,1207,442.2734,1217,446.2734,1213,442.2734" style="stroke:#181818;stroke-width:1.0;"/><line style="stroke:#181818;stroke-width:1.0;stroke-dasharray:2.0,2.0;" x1="1211" x2="1370" y1="442.2734" y2="442.2734"/><text fill="#000000" font-family="sans-serif" font-size="13" lengthAdjust="spacing" textLength="79" x="1223" y="437.417">vesselTypes[]</text><polygon fill="#181818" points="441,517.6797,431,521.6797,441,525.6797,437,521.6797" style="stroke:#181818;stroke-width:1.0;"/><line style="stroke:#181818;stroke-width:1.0;stroke-dasharray:2.0,2.0;" x1="435" x2="755" y1="521.6797" y2="521.6797"/><text fill="#000000" font-family="sans-serif" font-size="13" lengthAdjust="spacing" textLength="214" x="447" y="467.7686">200 OK + VesselTypeResponseDto[]</text><text fill="#000000" font-family="sans-serif" font-size="13" lengthAdjust="spacing" textLength="209" x="447" y="484.1201">[{ VesselTypeId, Name, Description,</text><text fill="#000000" font-family="sans-serif" font-size="13" lengthAdjust="spacing" textLength="233" x="447" y="500.4717">MaxCapacityTEU, MaxRows, MaxBays,</text><text fill="#000000" font-family="sans-serif" font-size="13" lengthAdjust="spacing" textLength="284" x="447" y="516.8232">MaxTiers, MaxLength, MaxBeam, MaxDraft }, ...]</text><polygon fill="#181818" points="100,564.3828,90,568.3828,100,572.3828,96,568.3828" style="stroke:#181818;stroke-width:1.0;"/><line style="stroke:#181818;stroke-width:1.0;stroke-dasharray:2.0,2.0;" x1="94" x2="419" y1="568.3828" y2="568.3828"/><text fill="#000000" font-family="sans-serif" font-size="13" lengthAdjust="spacing" textLength="182" x="106" y="547.1748">Display filtered vessel types list</text><text fill="#000000" font-family="sans-serif" font-size="13" lengthAdjust="spacing" textLength="307" x="106" y="563.5264">(e.g., "Oil Tanker", "Gas Tanker", "Chemical Tanker")</text><path d="M94,588.3828 L94,663.3828 L358,663.3828 L358,598.3828 L348,588.3828 L94,588.3828 " fill="#FEFFDD" style="stroke:#181818;stroke-width:0.5;"/><path d="M348,588.3828 L348,598.3828 L358,598.3828 L348,588.3828 " fill="#FEFFDD" style="stroke:#181818;stroke-width:0.5;"/><text fill="#000000" font-family="sans-serif" font-size="13" lengthAdjust="spacing" textLength="191" x="100" y="606.8779">Search supports partial matching</text><text fill="#000000" font-family="sans-serif" font-size="13" lengthAdjust="spacing" textLength="228" x="100" y="623.2295">by default (searchOperator="contains").</text><text fill="#000000" font-family="sans-serif" font-size="13" lengthAdjust="spacing" textLength="157" x="100" y="639.5811">User can refine search with</text><text fill="#000000" font-family="sans-serif" font-size="13" lengthAdjust="spacing" textLength="243" x="100" y="655.9326">searchOperator="equals" for exact match.</text><!--SRC=[RLHDRzf04BtxLunygB0A9cfxYaGgQaWKjIbH8Bt4EGps6A-wh9tTXO2g_lVEhaqmeRVTdO_tvktCM64bmNm-WG7C2NLMmYyoXYGizZMP8C3CLXh2-qfR66ziMMbXzp0h2f6H3W4DF1hIGOtQYapKg2o4ymmbQXZ2-FuM4Yb8MU_P74zz6pGFbbJAwahADczowkWOJ9REXtPDkiaooD7Y4Wr1EBs6tgswetMbzv4tpvau1O6Z1uEh5XmkuMQwW27MOhZrq0Fhi8V65v-ghmhNT2sa9Jsog7wJ_j2OPZLfv9IZZ2cWKCP98xPewL1NY-2m6APHitTCruUSJAP5RKMb3a-dkQDEJfPUMX1gYrBaW2mz9nSPkkW066BGBUhBnMUuhlHIv3cfL8NZ4t_GzB8HclBGHROqETnhSmbJhIjz2UCiOqMOfHAK1oHPrWuivR1nF-sXhrXy3kny7hniIEzJzLgI9kYK3QCHg8sKC7k0d_mQ9wr-7PyeIXMg77fd2dMZ9qVZCSbPH1GnnJSPkKV0SMN6lX-Oj2SAlOpRPi0PI1d1pdGIrlGEj363GxtROxrFpspEwIoYy-Inpx_gqyK5pBx3nuvw3sJgYgbCRFNqdAgdFntRRTxtklMxzVTJTOUx16lCU1mNqyS-yFsXUZN-y0ttfd5P2DBDsmzIArisPiArFqmq5XR-zY6Eu-V_jiP4c5hY7WglBVT08m7ueG4fZ4rLZ-9Lt8Tm9dXh-949-NR38tYy9IMjkOlU7AA0L1u47RMIaqipKO6g-AB5ghHG5SscWSEUCfkwvfrWmAy9Jhr6cvL2hPpcopt_H84R7g7Uk_aD3mCSHZ5x-a8pT3DI24NjHCAhiALBz3wO1mcb2Q7WhKWx9jp0nguUS7J_0G00]--></g></svg>