<?xml version="1.0" encoding="us-ascii" standalone="no"?><svg xmlns="http://www.w3.org/2000/svg" xmlns:xlink="http://www.w3.org/1999/xlink" contentStyleType="text/css" height="1149px" preserveAspectRatio="none" style="width:1237px;height:1149px;background:#FFFFFF;" version="1.1" viewBox="0 0 1237 1149" width="1237px" zoomAndPan="magnify"><defs/><g><text fill="#000000" font-family="sans-serif" font-size="14" font-weight="bold" lengthAdjust="spacing" textLength="176" x="531.75" y="29.5332">SSD - Create Vessel Type</text><rect fill="#FFFFFF" height="855.0547" style="stroke:#181818;stroke-width:1.0;" width="10" x="336" y="202.625"/><rect fill="#FFFFFF" height="824.7031" style="stroke:#181818;stroke-width:1.0;" width="10" x="680" y="232.9766"/><rect fill="#FFFFFF" height="60.7031" style="stroke:#181818;stroke-width:1.0;" width="10" x="1008" y="381.5703"/><rect fill="#FFFFFF" height="60.7031" style="stroke:#181818;stroke-width:1.0;" width="10" x="1008" y="658.4063"/><rect fill="#FFFFFF" height="91.0547" style="stroke:#181818;stroke-width:1.0;" width="10" x="1008" y="841.8672"/><rect fill="#FFFFFF" height="30.3516" style="stroke:#181818;stroke-width:1.0;" width="10" x="1166" y="411.9219"/><rect fill="#FFFFFF" height="30.3516" style="stroke:#181818;stroke-width:1.0;" width="10" x="1166" y="688.7578"/><rect fill="#FFFFFF" height="30.3516" style="stroke:#181818;stroke-width:1.0;" width="10" x="1166" y="902.5703"/><rect fill="none" height="802.7031" style="stroke:#000000;stroke-width:1.5;" width="1220.5" x="10" y="247.9766"/><line style="stroke:#181818;stroke-width:0.5;stroke-dasharray:5.0,5.0;" x1="89" x2="89" y1="121.2188" y2="1067.6797"/><line style="stroke:#181818;stroke-width:0.5;stroke-dasharray:5.0,5.0;" x1="340.5" x2="340.5" y1="121.2188" y2="1067.6797"/><line style="stroke:#181818;stroke-width:0.5;stroke-dasharray:5.0,5.0;" x1="684.5" x2="684.5" y1="121.2188" y2="1067.6797"/><line style="stroke:#181818;stroke-width:0.5;stroke-dasharray:5.0,5.0;" x1="1013" x2="1013" y1="121.2188" y2="1067.6797"/><line style="stroke:#181818;stroke-width:0.5;stroke-dasharray:5.0,5.0;" x1="1170.5" x2="1170.5" y1="121.2188" y2="1067.6797"/><text fill="#000000" font-family="sans-serif" font-size="14" lengthAdjust="spacing" textLength="132" x="20" y="118.1426">Port Authority Officer</text><ellipse cx="89" cy="52.1094" fill="#E2E2F0" rx="8" ry="8" style="stroke:#181818;stroke-width:0.5;"/><path d="M89,60.1094 L89,87.1094 M76,68.1094 L102,68.1094 M89,87.1094 L76,102.1094 M89,87.1094 L102,102.1094 " fill="none" style="stroke:#181818;stroke-width:0.5;"/><text fill="#000000" font-family="sans-serif" font-size="14" lengthAdjust="spacing" textLength="132" x="20" y="1081.2129">Port Authority Officer</text><ellipse cx="89" cy="1092.7891" fill="#E2E2F0" rx="8" ry="8" style="stroke:#181818;stroke-width:0.5;"/><path d="M89,1100.7891 L89,1127.7891 M76,1108.7891 L102,1108.7891 M89,1127.7891 L76,1142.7891 M89,1127.7891 L102,1142.7891 " fill="none" style="stroke:#181818;stroke-width:0.5;"/><rect fill="#E2E2F0" height="31.6094" rx="2.5" ry="2.5" style="stroke:#181818;stroke-width:0.5;" width="127" x="277.5" y="88.6094"/><text fill="#000000" font-family="sans-serif" font-size="14" lengthAdjust="spacing" textLength="113" x="284.5" y="110.1426">Scalar / API Client</text><rect fill="#E2E2F0" height="31.6094" rx="2.5" ry="2.5" style="stroke:#181818;stroke-width:0.5;" width="127" x="277.5" y="1066.6797"/><text fill="#000000" font-family="sans-serif" font-size="14" lengthAdjust="spacing" textLength="113" x="284.5" y="1088.2129">Scalar / API Client</text><rect fill="#E2E2F0" height="31.6094" rx="2.5" ry="2.5" style="stroke:#181818;stroke-width:0.5;" width="157" x="606.5" y="88.6094"/><text fill="#000000" font-family="sans-serif" font-size="14" lengthAdjust="spacing" textLength="143" x="613.5" y="110.1426">VesselTypesController</text><rect fill="#E2E2F0" height="31.6094" rx="2.5" ry="2.5" style="stroke:#181818;stroke-width:0.5;" width="157" x="606.5" y="1066.6797"/><text fill="#000000" font-family="sans-serif" font-size="14" lengthAdjust="spacing" textLength="143" x="613.5" y="1088.2129">VesselTypesController</text><rect fill="#E2E2F0" height="31.6094" rx="2.5" ry="2.5" style="stroke:#181818;stroke-width:0.5;" width="106" x="960" y="88.6094"/><text fill="#000000" font-family="sans-serif" font-size="14" lengthAdjust="spacing" textLength="92" x="967" y="110.1426">PortDbContext</text><rect fill="#E2E2F0" height="31.6094" rx="2.5" ry="2.5" style="stroke:#181818;stroke-width:0.5;" width="106" x="960" y="1066.6797"/><text fill="#000000" font-family="sans-serif" font-size="14" lengthAdjust="spacing" textLength="92" x="967" y="1088.2129">PortDbContext</text><text fill="#000000" font-family="sans-serif" font-size="14" lengthAdjust="spacing" textLength="93" x="1121.5" y="118.1426">EF (InMemory)</text><path d="M1153,67.6094 C1153,57.6094 1171,57.6094 1171,57.6094 C1171,57.6094 1189,57.6094 1189,67.6094 L1189,93.6094 C1189,103.6094 1171,103.6094 1171,103.6094 C1171,103.6094 1153,103.6094 1153,93.6094 L1153,67.6094 " fill="#E2E2F0" style="stroke:#181818;stroke-width:1.5;"/><path d="M1153,67.6094 C1153,77.6094 1171,77.6094 1171,77.6094 C1171,77.6094 1189,77.6094 1189,67.6094 " fill="none" style="stroke:#181818;stroke-width:1.5;"/><text fill="#000000" font-family="sans-serif" font-size="14" lengthAdjust="spacing" textLength="93" x="1121.5" y="1081.2129">EF (InMemory)</text><path d="M1153,1094.2891 C1153,1084.2891 1171,1084.2891 1171,1084.2891 C1171,1084.2891 1189,1084.2891 1189,1094.2891 L1189,1120.2891 C1189,1130.2891 1171,1130.2891 1171,1130.2891 C1171,1130.2891 1153,1130.2891 1153,1120.2891 L1153,1094.2891 " fill="#E2E2F0" style="stroke:#181818;stroke-width:1.5;"/><path d="M1153,1094.2891 C1153,1104.2891 1171,1104.2891 1171,1104.2891 C1171,1104.2891 1189,1104.2891 1189,1094.2891 " fill="none" style="stroke:#181818;stroke-width:1.5;"/><rect fill="#FFFFFF" height="855.0547" style="stroke:#181818;stroke-width:1.0;" width="10" x="336" y="202.625"/><rect fill="#FFFFFF" height="824.7031" style="stroke:#181818;stroke-width:1.0;" width="10" x="680" y="232.9766"/><rect fill="#FFFFFF" height="60.7031" style="stroke:#181818;stroke-width:1.0;" width="10" x="1008" y="381.5703"/><rect fill="#FFFFFF" height="60.7031" style="stroke:#181818;stroke-width:1.0;" width="10" x="1008" y="658.4063"/><rect fill="#FFFFFF" height="91.0547" style="stroke:#181818;stroke-width:1.0;" width="10" x="1008" y="841.8672"/><rect fill="#FFFFFF" height="30.3516" style="stroke:#181818;stroke-width:1.0;" width="10" x="1166" y="411.9219"/><rect fill="#FFFFFF" height="30.3516" style="stroke:#181818;stroke-width:1.0;" width="10" x="1166" y="688.7578"/><rect fill="#FFFFFF" height="30.3516" style="stroke:#181818;stroke-width:1.0;" width="10" x="1166" y="902.5703"/><polygon fill="#181818" points="324,198.625,334,202.625,324,206.625,328,202.625" style="stroke:#181818;stroke-width:1.0;"/><line style="stroke:#181818;stroke-width:1.0;" x1="89" x2="330" y1="202.625" y2="202.625"/><text fill="#000000" font-family="sans-serif" font-size="13" lengthAdjust="spacing" textLength="136" x="96" y="148.7139">POST /api/vessel-types</text><text fill="#000000" font-family="sans-serif" font-size="13" lengthAdjust="spacing" textLength="228" x="96" y="165.0654">{ Name, Description, MaxCapacityTEU,</text><text fill="#000000" font-family="sans-serif" font-size="13" lengthAdjust="spacing" textLength="185" x="96" y="181.417">MaxRows, MaxBays, MaxTiers,</text><text fill="#000000" font-family="sans-serif" font-size="13" lengthAdjust="spacing" textLength="199" x="96" y="197.7686">MaxLength, MaxBeam, MaxDraft }</text><polygon fill="#181818" points="668,228.9766,678,232.9766,668,236.9766,672,232.9766" style="stroke:#181818;stroke-width:1.0;"/><line style="stroke:#181818;stroke-width:1.0;" x1="346" x2="674" y1="232.9766" y2="232.9766"/><text fill="#000000" font-family="sans-serif" font-size="13" lengthAdjust="spacing" textLength="64" x="353" y="228.1201">Create(dto)</text><path d="M10,247.9766 L71,247.9766 L71,256.3281 L61,266.3281 L10,266.3281 L10,247.9766 " fill="#EEEEEE" style="stroke:#000000;stroke-width:1.5;"/><rect fill="none" height="802.7031" style="stroke:#000000;stroke-width:1.5;" width="1220.5" x="10" y="247.9766"/><text fill="#000000" font-family="sans-serif" font-size="13" font-weight="bold" lengthAdjust="spacing" textLength="16" x="25" y="262.4717">alt</text><text fill="#000000" font-family="sans-serif" font-size="11" font-weight="bold" lengthAdjust="spacing" textLength="273" x="86" y="261.3955">[invalid authentication (not Port Authority Officer)]</text><polygon fill="#181818" points="357,301.0313,347,305.0313,357,309.0313,353,305.0313" style="stroke:#181818;stroke-width:1.0;"/><line style="stroke:#181818;stroke-width:1.0;stroke-dasharray:2.0,2.0;" x1="351" x2="679" y1="305.0313" y2="305.0313"/><text fill="#000000" font-family="sans-serif" font-size="13" lengthAdjust="spacing" textLength="82" x="363" y="283.8232">403 Forbidden</text><text fill="#000000" font-family="sans-serif" font-size="13" lengthAdjust="spacing" textLength="310" x="363" y="300.1748">"Only Port Authority Officers can create vessel types"</text><polygon fill="#181818" points="100,331.3828,90,335.3828,100,339.3828,96,335.3828" style="stroke:#181818;stroke-width:1.0;"/><line style="stroke:#181818;stroke-width:1.0;stroke-dasharray:2.0,2.0;" x1="94" x2="335" y1="335.3828" y2="335.3828"/><text fill="#000000" font-family="sans-serif" font-size="13" lengthAdjust="spacing" textLength="122" x="106" y="330.5264">Error: Access denied</text><line style="stroke:#000000;stroke-width:1.0;stroke-dasharray:2.0,2.0;" x1="10" x2="1230.5" y1="344.3828" y2="344.3828"/><text fill="#000000" font-family="sans-serif" font-size="11" font-weight="bold" lengthAdjust="spacing" textLength="119" x="15" y="355.8018">[name already exists]</text><polygon fill="#181818" points="996,377.5703,1006,381.5703,996,385.5703,1000,381.5703" style="stroke:#181818;stroke-width:1.0;"/><line style="stroke:#181818;stroke-width:1.0;" x1="690" x2="1002" y1="381.5703" y2="381.5703"/><text fill="#000000" font-family="sans-serif" font-size="13" lengthAdjust="spacing" textLength="299" x="697" y="376.7139">AnyAsync(VesselTypes where Name == dto.Name)</text><polygon fill="#181818" points="1154,407.9219,1164,411.9219,1154,415.9219,1158,411.9219" style="stroke:#181818;stroke-width:1.0;"/><line style="stroke:#181818;stroke-width:1.0;" x1="1018" x2="1160" y1="411.9219" y2="411.9219"/><text fill="#000000" font-family="sans-serif" font-size="13" lengthAdjust="spacing" textLength="32" x="1025" y="407.0654">query</text><polygon fill="#181818" points="1024,438.2734,1014,442.2734,1024,446.2734,1020,442.2734" style="stroke:#181818;stroke-width:1.0;"/><line style="stroke:#181818;stroke-width:1.0;stroke-dasharray:2.0,2.0;" x1="1018" x2="1170" y1="442.2734" y2="442.2734"/><text fill="#000000" font-family="sans-serif" font-size="13" lengthAdjust="spacing" textLength="86" x="1030" y="437.417">true (duplicate)</text><polygon fill="#181818" points="357,484.9766,347,488.9766,357,492.9766,353,488.9766" style="stroke:#181818;stroke-width:1.0;"/><line style="stroke:#181818;stroke-width:1.0;stroke-dasharray:2.0,2.0;" x1="351" x2="679" y1="488.9766" y2="488.9766"/><text fill="#000000" font-family="sans-serif" font-size="13" lengthAdjust="spacing" textLength="68" x="363" y="467.7686">409 Conflict</text><text fill="#000000" font-family="sans-serif" font-size="13" lengthAdjust="spacing" textLength="252" x="363" y="484.1201">"Vessel type with this name already exists"</text><polygon fill="#181818" points="100,515.3281,90,519.3281,100,523.3281,96,519.3281" style="stroke:#181818;stroke-width:1.0;"/><line style="stroke:#181818;stroke-width:1.0;stroke-dasharray:2.0,2.0;" x1="94" x2="335" y1="519.3281" y2="519.3281"/><text fill="#000000" font-family="sans-serif" font-size="13" lengthAdjust="spacing" textLength="126" x="106" y="514.4717">Error: Duplicate name</text><line style="stroke:#000000;stroke-width:1.0;stroke-dasharray:2.0,2.0;" x1="10" x2="1230.5" y1="528.3281" y2="528.3281"/><text fill="#000000" font-family="sans-serif" font-size="11" font-weight="bold" lengthAdjust="spacing" textLength="238" x="15" y="539.7471">[negative values in capacity or dimensions]</text><polygon fill="#181818" points="357,577.8672,347,581.8672,357,585.8672,353,581.8672" style="stroke:#181818;stroke-width:1.0;"/><line style="stroke:#181818;stroke-width:1.0;stroke-dasharray:2.0,2.0;" x1="351" x2="679" y1="581.8672" y2="581.8672"/><text fill="#000000" font-family="sans-serif" font-size="13" lengthAdjust="spacing" textLength="100" x="363" y="560.6592">400 Bad Request</text><text fill="#000000" font-family="sans-serif" font-size="13" lengthAdjust="spacing" textLength="213" x="363" y="577.0107">"All numeric values must be positive"</text><polygon fill="#181818" points="100,608.2188,90,612.2188,100,616.2188,96,612.2188" style="stroke:#181818;stroke-width:1.0;"/><line style="stroke:#181818;stroke-width:1.0;stroke-dasharray:2.0,2.0;" x1="94" x2="335" y1="612.2188" y2="612.2188"/><text fill="#000000" font-family="sans-serif" font-size="13" lengthAdjust="spacing" textLength="103" x="106" y="607.3623">Error: Invalid input</text><line style="stroke:#000000;stroke-width:1.0;stroke-dasharray:2.0,2.0;" x1="10" x2="1230.5" y1="621.2188" y2="621.2188"/><text fill="#000000" font-family="sans-serif" font-size="11" font-weight="bold" lengthAdjust="spacing" textLength="59" x="15" y="632.6377">[valid data]</text><polygon fill="#181818" points="996,654.4063,1006,658.4063,996,662.4063,1000,658.4063" style="stroke:#181818;stroke-width:1.0;"/><line style="stroke:#181818;stroke-width:1.0;" x1="690" x2="1002" y1="658.4063" y2="658.4063"/><text fill="#000000" font-family="sans-serif" font-size="13" lengthAdjust="spacing" textLength="299" x="697" y="653.5498">AnyAsync(VesselTypes where Name == dto.Name)</text><polygon fill="#181818" points="1154,684.7578,1164,688.7578,1154,692.7578,1158,688.7578" style="stroke:#181818;stroke-width:1.0;"/><line style="stroke:#181818;stroke-width:1.0;" x1="1018" x2="1160" y1="688.7578" y2="688.7578"/><text fill="#000000" font-family="sans-serif" font-size="13" lengthAdjust="spacing" textLength="32" x="1025" y="683.9014">query</text><polygon fill="#181818" points="1024,715.1094,1014,719.1094,1024,723.1094,1020,719.1094" style="stroke:#181818;stroke-width:1.0;"/><line style="stroke:#181818;stroke-width:1.0;stroke-dasharray:2.0,2.0;" x1="1018" x2="1170" y1="719.1094" y2="719.1094"/><text fill="#000000" font-family="sans-serif" font-size="13" lengthAdjust="spacing" textLength="124" x="1030" y="714.2529">false (name available)</text><line style="stroke:#181818;stroke-width:1.0;" x1="690" x2="732" y1="798.5156" y2="798.5156"/><line style="stroke:#181818;stroke-width:1.0;" x1="732" x2="732" y1="798.5156" y2="811.5156"/><line style="stroke:#181818;stroke-width:1.0;" x1="691" x2="732" y1="811.5156" y2="811.5156"/><polygon fill="#181818" points="701,807.5156,691,811.5156,701,815.5156,697,811.5156" style="stroke:#181818;stroke-width:1.0;"/><text fill="#000000" font-family="sans-serif" font-size="13" lengthAdjust="spacing" textLength="254" x="697" y="744.6045">new VesselType(dto.Name, dto.Description,</text><text fill="#000000" font-family="sans-serif" font-size="13" lengthAdjust="spacing" textLength="214" x="697" y="760.9561">dto.MaxCapacityTEU, dto.MaxRows,</text><text fill="#000000" font-family="sans-serif" font-size="13" lengthAdjust="spacing" textLength="164" x="697" y="777.3076">dto.MaxBays, dto.MaxTiers,</text><text fill="#000000" font-family="sans-serif" font-size="13" lengthAdjust="spacing" textLength="261" x="697" y="793.6592">dto.MaxLength, dto.MaxBeam, dto.MaxDraft)</text><polygon fill="#181818" points="996,837.8672,1006,841.8672,996,845.8672,1000,841.8672" style="stroke:#181818;stroke-width:1.0;"/><line style="stroke:#181818;stroke-width:1.0;" x1="690" x2="1002" y1="841.8672" y2="841.8672"/><text fill="#000000" font-family="sans-serif" font-size="13" lengthAdjust="spacing" textLength="95" x="697" y="837.0107">Add(vesselType)</text><polygon fill="#181818" points="996,868.2188,1006,872.2188,996,876.2188,1000,872.2188" style="stroke:#181818;stroke-width:1.0;"/><line style="stroke:#181818;stroke-width:1.0;" x1="690" x2="1002" y1="872.2188" y2="872.2188"/><text fill="#000000" font-family="sans-serif" font-size="13" lengthAdjust="spacing" textLength="124" x="697" y="867.3623">SaveChangesAsync()</text><polygon fill="#181818" points="1154,898.5703,1164,902.5703,1154,906.5703,1158,902.5703" style="stroke:#181818;stroke-width:1.0;"/><line style="stroke:#181818;stroke-width:1.0;" x1="1018" x2="1160" y1="902.5703" y2="902.5703"/><text fill="#000000" font-family="sans-serif" font-size="13" lengthAdjust="spacing" textLength="32" x="1025" y="897.7139">insert</text><polygon fill="#181818" points="1024,928.9219,1014,932.9219,1024,936.9219,1020,932.9219" style="stroke:#181818;stroke-width:1.0;"/><line style="stroke:#181818;stroke-width:1.0;stroke-dasharray:2.0,2.0;" x1="1018" x2="1170" y1="932.9219" y2="932.9219"/><text fill="#000000" font-family="sans-serif" font-size="13" lengthAdjust="spacing" textLength="14" x="1030" y="928.0654">ok</text><polygon fill="#181818" points="357,1008.3281,347,1012.3281,357,1016.3281,353,1012.3281" style="stroke:#181818;stroke-width:1.0;"/><line style="stroke:#181818;stroke-width:1.0;stroke-dasharray:2.0,2.0;" x1="351" x2="679" y1="1012.3281" y2="1012.3281"/><text fill="#000000" font-family="sans-serif" font-size="13" lengthAdjust="spacing" textLength="232" x="363" y="958.417">201 Created + VesselTypeResponseDto</text><text fill="#000000" font-family="sans-serif" font-size="13" lengthAdjust="spacing" textLength="205" x="363" y="974.7686">{ VesselTypeId, Name, Description,</text><text fill="#000000" font-family="sans-serif" font-size="13" lengthAdjust="spacing" textLength="233" x="363" y="991.1201">MaxCapacityTEU, MaxRows, MaxBays,</text><text fill="#000000" font-family="sans-serif" font-size="13" lengthAdjust="spacing" textLength="260" x="363" y="1007.4717">MaxTiers, MaxLength, MaxBeam, MaxDraft }</text><polygon fill="#181818" points="100,1038.6797,90,1042.6797,100,1046.6797,96,1042.6797" style="stroke:#181818;stroke-width:1.0;"/><line style="stroke:#181818;stroke-width:1.0;stroke-dasharray:2.0,2.0;" x1="94" x2="335" y1="1042.6797" y2="1042.6797"/><text fill="#000000" font-family="sans-serif" font-size="13" lengthAdjust="spacing" textLength="201" x="106" y="1037.8232">Display created vessel type details</text><!--SRC=[nLJBRjim4BphAnO-oQZTf8zB0oI0OoM0WRO9OYSdNzRYEYPAKof9oH6A_dkNf1pBjPi-BhtniToTdLcEaquHJASP365i21t10rbB2cPDIKc2kIiCz6uBus1KkLLXf6lWPhcKEPaUe8LxIoOfqJYPonArWzuqHuK6Jc1qEu6nagHTY8pB_TXOpDUouq8xKoZLvXtl1te4sSB7q5DCboqIWGuNQ0bwLzUGJlGdMXUcwOVhAGFd1Zmy65wqnU4CRc-cCpZ1KfxKeVRG-U9p_Gq-uve6a97DZIoTBFG0Fk7J64lCkUdPrVrWhldWhjZOS7E9JLpC91aRBp-IVdIhU4su3elCuDB1Ty-bh3t3BH4j90-ESKNsK-6AVYUI5L0EfAvHIG782l0JcQE71wak71oNffy0Pnrs6tz_-Wwk2xEGGf2UwzwDLiqlNbl8KKCUvo7I186cda_RmkRSWTmpk3AcC6SmodCE1SukIIIaM1VDb08gJYGQe2TfdOt0BbW-VZdIpSWsEayxSm2R5HaAQi3vEJ0Xh_tQT_JC2siFFWFd2JfpggyLcQOR4mS0se3XjgGp5K4ggb9v6aDQGGUFEaUXrZ4wFm2FuvBJE6RpOSSIRAHRWLj9Uwp_5odCjh32ovP3UcIvQnO2LSNqI5QcdKdWlodachJbSR37C9x29Ggu8sR7UfWZfK1NQp8ot-PRLzR1Wg0ihFHrNWGuQITHwh9o4Lyyy5_nVqkxH8ydZQJNA1KkrDy97B-YfWtiKATRc8C0kEiFS-rFVZ89QC-2Jpn7HBDeDrl3QBTRqzY61kDeDy4y-llC2f7Mp_0EoTj5Jh6cyGhr8zceHV-0MwbPN_S7v1PV_lMdl3rzqxgRW5STOk_8bZosbBd2s-_kOY86Hymu-EiUqGTc748YkV0RCpusuvcqfSAcDJxHTJvkq_50sOIqI99Ep-EzJKZv0m00]--></g></svg>