<?xml version="1.0" encoding="us-ascii" standalone="no"?><svg xmlns="http://www.w3.org/2000/svg" xmlns:xlink="http://www.w3.org/1999/xlink" contentStyleType="text/css" height="1637px" preserveAspectRatio="none" style="width:1542px;height:1637px;background:#FFFFFF;" version="1.1" viewBox="0 0 1542 1637" width="1542px" zoomAndPan="magnify"><defs/><g><text fill="#000000" font-family="sans-serif" font-size="14" font-weight="bold" lengthAdjust="spacing" textLength="352" x="596" y="29.5332">Sequence Diagram - Update Vessel Type (US 2.2.1)</text><rect fill="#FFFFFF" height="1391.8125" style="stroke:#181818;stroke-width:1.0;" width="10" x="304" y="153.5703"/><rect fill="#FFFFFF" height="1361.4609" style="stroke:#181818;stroke-width:1.0;" width="10" x="594" y="183.9219"/><rect fill="#FFFFFF" height="60.7031" style="stroke:#181818;stroke-width:1.0;" width="10" x="1122" y="402.8672"/><rect fill="#FFFFFF" height="60.7031" style="stroke:#181818;stroke-width:1.0;" width="10" x="1122" y="570.4609"/><rect fill="#FFFFFF" height="77.0547" style="stroke:#181818;stroke-width:1.0;" width="10" x="1122" y="661.5156"/><rect fill="#FFFFFF" height="60.7031" style="stroke:#181818;stroke-width:1.0;" width="10" x="1122" y="861.8125"/><rect fill="#FFFFFF" height="60.7031" style="stroke:#181818;stroke-width:1.0;" width="10" x="1122" y="1089.1094"/><rect fill="#FFFFFF" height="60.7031" style="stroke:#181818;stroke-width:1.0;" width="10" x="1122" y="1349.2734"/><rect fill="#FFFFFF" height="30.3516" style="stroke:#181818;stroke-width:1.0;" width="10" x="1489" y="433.2188"/><rect fill="#FFFFFF" height="30.3516" style="stroke:#181818;stroke-width:1.0;" width="10" x="1489" y="600.8125"/><rect fill="#FFFFFF" height="30.3516" style="stroke:#181818;stroke-width:1.0;" width="10" x="1489" y="708.2188"/><rect fill="#FFFFFF" height="30.3516" style="stroke:#181818;stroke-width:1.0;" width="10" x="1489" y="892.1641"/><rect fill="#FFFFFF" height="30.3516" style="stroke:#181818;stroke-width:1.0;" width="10" x="1489" y="1119.4609"/><rect fill="#FFFFFF" height="30.3516" style="stroke:#181818;stroke-width:1.0;" width="10" x="1489" y="1379.625"/><rect fill="none" height="1252.7578" style="stroke:#000000;stroke-width:1.5;" width="1525" x="10" y="285.625"/><rect fill="none" height="48.7031" style="stroke:#000000;stroke-width:1.5;" width="777.5" x="510.5" y="1271.2188"/><line style="stroke:#181818;stroke-width:0.5;stroke-dasharray:5.0,5.0;" x1="89" x2="89" y1="121.2188" y2="1555.3828"/><line style="stroke:#181818;stroke-width:0.5;stroke-dasharray:5.0,5.0;" x1="308.5" x2="308.5" y1="121.2188" y2="1555.3828"/><line style="stroke:#181818;stroke-width:0.5;stroke-dasharray:5.0,5.0;" x1="598.5" x2="598.5" y1="121.2188" y2="1555.3828"/><line style="stroke:#181818;stroke-width:0.5;stroke-dasharray:5.0,5.0;" x1="1127" x2="1127" y1="121.2188" y2="1555.3828"/><line style="stroke:#181818;stroke-width:0.5;stroke-dasharray:5.0,5.0;" x1="1234" x2="1234" y1="121.2188" y2="1555.3828"/><line style="stroke:#181818;stroke-width:0.5;stroke-dasharray:5.0,5.0;" x1="1494" x2="1494" y1="121.2188" y2="1555.3828"/><text fill="#000000" font-family="sans-serif" font-size="14" lengthAdjust="spacing" textLength="132" x="20" y="118.1426">Port Authority Officer</text><ellipse cx="89" cy="52.1094" fill="#E2E2F0" rx="8" ry="8" style="stroke:#181818;stroke-width:0.5;"/><path d="M89,60.1094 L89,87.1094 M76,68.1094 L102,68.1094 M89,87.1094 L76,102.1094 M89,87.1094 L102,102.1094 " fill="none" style="stroke:#181818;stroke-width:0.5;"/><text fill="#000000" font-family="sans-serif" font-size="14" lengthAdjust="spacing" textLength="132" x="20" y="1568.916">Port Authority Officer</text><ellipse cx="89" cy="1580.4922" fill="#E2E2F0" rx="8" ry="8" style="stroke:#181818;stroke-width:0.5;"/><path d="M89,1588.4922 L89,1615.4922 M76,1596.4922 L102,1596.4922 M89,1615.4922 L76,1630.4922 M89,1615.4922 L102,1630.4922 " fill="none" style="stroke:#181818;stroke-width:0.5;"/><rect fill="#E2E2F0" height="31.6094" rx="2.5" ry="2.5" style="stroke:#181818;stroke-width:0.5;" width="75" x="271.5" y="88.6094"/><text fill="#000000" font-family="sans-serif" font-size="14" lengthAdjust="spacing" textLength="61" x="278.5" y="110.1426">API Client</text><rect fill="#E2E2F0" height="31.6094" rx="2.5" ry="2.5" style="stroke:#181818;stroke-width:0.5;" width="75" x="271.5" y="1554.3828"/><text fill="#000000" font-family="sans-serif" font-size="14" lengthAdjust="spacing" textLength="61" x="278.5" y="1575.916">API Client</text><rect fill="#E2E2F0" height="31.6094" rx="2.5" ry="2.5" style="stroke:#181818;stroke-width:0.5;" width="157" x="520.5" y="88.6094"/><text fill="#000000" font-family="sans-serif" font-size="14" lengthAdjust="spacing" textLength="143" x="527.5" y="110.1426">VesselTypesController</text><rect fill="#E2E2F0" height="31.6094" rx="2.5" ry="2.5" style="stroke:#181818;stroke-width:0.5;" width="157" x="520.5" y="1554.3828"/><text fill="#000000" font-family="sans-serif" font-size="14" lengthAdjust="spacing" textLength="143" x="527.5" y="1575.916">VesselTypesController</text><rect fill="#E2E2F0" height="31.6094" rx="2.5" ry="2.5" style="stroke:#181818;stroke-width:0.5;" width="106" x="1074" y="88.6094"/><text fill="#000000" font-family="sans-serif" font-size="14" lengthAdjust="spacing" textLength="92" x="1081" y="110.1426">PortDbContext</text><rect fill="#E2E2F0" height="31.6094" rx="2.5" ry="2.5" style="stroke:#181818;stroke-width:0.5;" width="106" x="1074" y="1554.3828"/><text fill="#000000" font-family="sans-serif" font-size="14" lengthAdjust="spacing" textLength="92" x="1081" y="1575.916">PortDbContext</text><rect fill="#E2E2F0" height="49.2188" rx="2.5" ry="2.5" style="stroke:#181818;stroke-width:0.5;" width="88" x="1190" y="71"/><text fill="#000000" font-family="sans-serif" font-size="14" lengthAdjust="spacing" textLength="74" x="1197" y="92.5332">VesselType</text><text fill="#000000" font-family="sans-serif" font-size="14" lengthAdjust="spacing" textLength="58" x="1205" y="110.1426">(Domain)</text><rect fill="#E2E2F0" height="49.2188" rx="2.5" ry="2.5" style="stroke:#181818;stroke-width:0.5;" width="88" x="1190" y="1554.3828"/><text fill="#000000" font-family="sans-serif" font-size="14" lengthAdjust="spacing" textLength="74" x="1197" y="1575.916">VesselType</text><text fill="#000000" font-family="sans-serif" font-size="14" lengthAdjust="spacing" textLength="58" x="1205" y="1593.5254">(Domain)</text><text fill="#000000" font-family="sans-serif" font-size="14" lengthAdjust="spacing" textLength="56" x="1463" y="118.1426">EF Store</text><path d="M1476,67.6094 C1476,57.6094 1494,57.6094 1494,57.6094 C1494,57.6094 1512,57.6094 1512,67.6094 L1512,93.6094 C1512,103.6094 1494,103.6094 1494,103.6094 C1494,103.6094 1476,103.6094 1476,93.6094 L1476,67.6094 " fill="#E2E2F0" style="stroke:#181818;stroke-width:1.5;"/><path d="M1476,67.6094 C1476,77.6094 1494,77.6094 1494,77.6094 C1494,77.6094 1512,77.6094 1512,67.6094 " fill="none" style="stroke:#181818;stroke-width:1.5;"/><text fill="#000000" font-family="sans-serif" font-size="14" lengthAdjust="spacing" textLength="56" x="1463" y="1568.916">EF Store</text><path d="M1476,1581.9922 C1476,1571.9922 1494,1571.9922 1494,1571.9922 C1494,1571.9922 1512,1571.9922 1512,1581.9922 L1512,1607.9922 C1512,1617.9922 1494,1617.9922 1494,1617.9922 C1494,1617.9922 1476,1617.9922 1476,1607.9922 L1476,1581.9922 " fill="#E2E2F0" style="stroke:#181818;stroke-width:1.5;"/><path d="M1476,1581.9922 C1476,1591.9922 1494,1591.9922 1494,1591.9922 C1494,1591.9922 1512,1591.9922 1512,1581.9922 " fill="none" style="stroke:#181818;stroke-width:1.5;"/><rect fill="#FFFFFF" height="1391.8125" style="stroke:#181818;stroke-width:1.0;" width="10" x="304" y="153.5703"/><rect fill="#FFFFFF" height="1361.4609" style="stroke:#181818;stroke-width:1.0;" width="10" x="594" y="183.9219"/><rect fill="#FFFFFF" height="60.7031" style="stroke:#181818;stroke-width:1.0;" width="10" x="1122" y="402.8672"/><rect fill="#FFFFFF" height="60.7031" style="stroke:#181818;stroke-width:1.0;" width="10" x="1122" y="570.4609"/><rect fill="#FFFFFF" height="77.0547" style="stroke:#181818;stroke-width:1.0;" width="10" x="1122" y="661.5156"/><rect fill="#FFFFFF" height="60.7031" style="stroke:#181818;stroke-width:1.0;" width="10" x="1122" y="861.8125"/><rect fill="#FFFFFF" height="60.7031" style="stroke:#181818;stroke-width:1.0;" width="10" x="1122" y="1089.1094"/><rect fill="#FFFFFF" height="60.7031" style="stroke:#181818;stroke-width:1.0;" width="10" x="1122" y="1349.2734"/><rect fill="#FFFFFF" height="30.3516" style="stroke:#181818;stroke-width:1.0;" width="10" x="1489" y="433.2188"/><rect fill="#FFFFFF" height="30.3516" style="stroke:#181818;stroke-width:1.0;" width="10" x="1489" y="600.8125"/><rect fill="#FFFFFF" height="30.3516" style="stroke:#181818;stroke-width:1.0;" width="10" x="1489" y="708.2188"/><rect fill="#FFFFFF" height="30.3516" style="stroke:#181818;stroke-width:1.0;" width="10" x="1489" y="892.1641"/><rect fill="#FFFFFF" height="30.3516" style="stroke:#181818;stroke-width:1.0;" width="10" x="1489" y="1119.4609"/><rect fill="#FFFFFF" height="30.3516" style="stroke:#181818;stroke-width:1.0;" width="10" x="1489" y="1379.625"/><polygon fill="#181818" points="292,149.5703,302,153.5703,292,157.5703,296,153.5703" style="stroke:#181818;stroke-width:1.0;"/><line style="stroke:#181818;stroke-width:1.0;" x1="89" x2="298" y1="153.5703" y2="153.5703"/><text fill="#000000" font-family="sans-serif" font-size="13" lengthAdjust="spacing" textLength="148" x="96" y="148.7139">PUT /api/vessel-types/{id}</text><polygon fill="#181818" points="582,179.9219,592,183.9219,582,187.9219,586,183.9219" style="stroke:#181818;stroke-width:1.0;"/><line style="stroke:#181818;stroke-width:1.0;" x1="314" x2="588" y1="183.9219" y2="183.9219"/><text fill="#000000" font-family="sans-serif" font-size="13" lengthAdjust="spacing" textLength="196" x="321" y="179.0654">Update(id, UpdateVesselTypeDto)</text><line style="stroke:#181818;stroke-width:1.0;" x1="604" x2="646" y1="214.2734" y2="214.2734"/><line style="stroke:#181818;stroke-width:1.0;" x1="646" x2="646" y1="214.2734" y2="227.2734"/><line style="stroke:#181818;stroke-width:1.0;" x1="605" x2="646" y1="227.2734" y2="227.2734"/><polygon fill="#181818" points="615,223.2734,605,227.2734,615,231.2734,611,227.2734" style="stroke:#181818;stroke-width:1.0;"/><text fill="#000000" font-family="sans-serif" font-size="13" lengthAdjust="spacing" textLength="216" x="611" y="209.417">CallerContext.FromHeaders(Request)</text><line style="stroke:#181818;stroke-width:1.0;" x1="604" x2="646" y1="257.625" y2="257.625"/><line style="stroke:#181818;stroke-width:1.0;" x1="646" x2="646" y1="257.625" y2="270.625"/><line style="stroke:#181818;stroke-width:1.0;" x1="605" x2="646" y1="270.625" y2="270.625"/><polygon fill="#181818" points="615,266.625,605,270.625,615,274.625,611,270.625" style="stroke:#181818;stroke-width:1.0;"/><text fill="#000000" font-family="sans-serif" font-size="13" lengthAdjust="spacing" textLength="175" x="611" y="252.7686">ValidatePortAuthorityAccess()</text><path d="M10,285.625 L71,285.625 L71,293.9766 L61,303.9766 L10,303.9766 L10,285.625 " fill="#EEEEEE" style="stroke:#000000;stroke-width:1.5;"/><rect fill="none" height="1252.7578" style="stroke:#000000;stroke-width:1.5;" width="1525" x="10" y="285.625"/><text fill="#000000" font-family="sans-serif" font-size="13" font-weight="bold" lengthAdjust="spacing" textLength="16" x="25" y="300.1201">alt</text><text fill="#000000" font-family="sans-serif" font-size="11" font-weight="bold" lengthAdjust="spacing" textLength="146" x="86" y="299.0439">[not Port Authority Officer]</text><polygon fill="#181818" points="325,322.3281,315,326.3281,325,330.3281,321,326.3281" style="stroke:#181818;stroke-width:1.0;"/><line style="stroke:#181818;stroke-width:1.0;stroke-dasharray:2.0,2.0;" x1="319" x2="593" y1="326.3281" y2="326.3281"/><text fill="#000000" font-family="sans-serif" font-size="13" lengthAdjust="spacing" textLength="82" x="331" y="321.4717">403 Forbidden</text><polygon fill="#181818" points="100,352.6797,90,356.6797,100,360.6797,96,356.6797" style="stroke:#181818;stroke-width:1.0;"/><line style="stroke:#181818;stroke-width:1.0;stroke-dasharray:2.0,2.0;" x1="94" x2="303" y1="356.6797" y2="356.6797"/><text fill="#000000" font-family="sans-serif" font-size="13" lengthAdjust="spacing" textLength="122" x="106" y="351.8232">Error: Access denied</text><line style="stroke:#000000;stroke-width:1.0;stroke-dasharray:2.0,2.0;" x1="10" x2="1535" y1="365.6797" y2="365.6797"/><text fill="#000000" font-family="sans-serif" font-size="11" font-weight="bold" lengthAdjust="spacing" textLength="128" x="15" y="377.0986">[vessel type not found]</text><polygon fill="#181818" points="1110,398.8672,1120,402.8672,1110,406.8672,1114,402.8672" style="stroke:#181818;stroke-width:1.0;"/><line style="stroke:#181818;stroke-width:1.0;" x1="604" x2="1116" y1="402.8672" y2="402.8672"/><text fill="#000000" font-family="sans-serif" font-size="13" lengthAdjust="spacing" textLength="164" x="611" y="398.0107">FindAsync&lt;VesselType&gt;(id)</text><polygon fill="#181818" points="1477,429.2188,1487,433.2188,1477,437.2188,1481,433.2188" style="stroke:#181818;stroke-width:1.0;"/><line style="stroke:#181818;stroke-width:1.0;" x1="1132" x2="1483" y1="433.2188" y2="433.2188"/><text fill="#000000" font-family="sans-serif" font-size="13" lengthAdjust="spacing" textLength="338" x="1139" y="428.3623">SELECT * FROM VesselTypes WHERE VesselTypeId = ?</text><polygon fill="#181818" points="1138,459.5703,1128,463.5703,1138,467.5703,1134,463.5703" style="stroke:#181818;stroke-width:1.0;"/><line style="stroke:#181818;stroke-width:1.0;stroke-dasharray:2.0,2.0;" x1="1132" x2="1493" y1="463.5703" y2="463.5703"/><text fill="#000000" font-family="sans-serif" font-size="13" lengthAdjust="spacing" textLength="20" x="1144" y="458.7139">null</text><polygon fill="#181818" points="325,489.9219,315,493.9219,325,497.9219,321,493.9219" style="stroke:#181818;stroke-width:1.0;"/><line style="stroke:#181818;stroke-width:1.0;stroke-dasharray:2.0,2.0;" x1="319" x2="593" y1="493.9219" y2="493.9219"/><text fill="#000000" font-family="sans-serif" font-size="13" lengthAdjust="spacing" textLength="85" x="331" y="489.0654">404 Not Found</text><polygon fill="#181818" points="100,520.2734,90,524.2734,100,528.2734,96,524.2734" style="stroke:#181818;stroke-width:1.0;"/><line style="stroke:#181818;stroke-width:1.0;stroke-dasharray:2.0,2.0;" x1="94" x2="303" y1="524.2734" y2="524.2734"/><text fill="#000000" font-family="sans-serif" font-size="13" lengthAdjust="spacing" textLength="191" x="106" y="519.417">Error: Vessel type does not exist</text><line style="stroke:#000000;stroke-width:1.0;stroke-dasharray:2.0,2.0;" x1="10" x2="1535" y1="533.2734" y2="533.2734"/><text fill="#000000" font-family="sans-serif" font-size="11" font-weight="bold" lengthAdjust="spacing" textLength="92" x="15" y="544.6924">[duplicate name]</text><polygon fill="#181818" points="1110,566.4609,1120,570.4609,1110,574.4609,1114,570.4609" style="stroke:#181818;stroke-width:1.0;"/><line style="stroke:#181818;stroke-width:1.0;" x1="604" x2="1116" y1="570.4609" y2="570.4609"/><text fill="#000000" font-family="sans-serif" font-size="13" lengthAdjust="spacing" textLength="164" x="611" y="565.6045">FindAsync&lt;VesselType&gt;(id)</text><polygon fill="#181818" points="1477,596.8125,1487,600.8125,1477,604.8125,1481,600.8125" style="stroke:#181818;stroke-width:1.0;"/><line style="stroke:#181818;stroke-width:1.0;" x1="1132" x2="1483" y1="600.8125" y2="600.8125"/><text fill="#000000" font-family="sans-serif" font-size="13" lengthAdjust="spacing" textLength="338" x="1139" y="595.9561">SELECT * FROM VesselTypes WHERE VesselTypeId = ?</text><polygon fill="#181818" points="1138,627.1641,1128,631.1641,1138,635.1641,1134,631.1641" style="stroke:#181818;stroke-width:1.0;"/><line style="stroke:#181818;stroke-width:1.0;stroke-dasharray:2.0,2.0;" x1="1132" x2="1493" y1="631.1641" y2="631.1641"/><text fill="#000000" font-family="sans-serif" font-size="13" lengthAdjust="spacing" textLength="64" x="1144" y="626.3076">vesselType</text><polygon fill="#181818" points="1110,657.5156,1120,661.5156,1110,665.5156,1114,661.5156" style="stroke:#181818;stroke-width:1.0;"/><line style="stroke:#181818;stroke-width:1.0;" x1="604" x2="1116" y1="661.5156" y2="661.5156"/><text fill="#000000" font-family="sans-serif" font-size="13" lengthAdjust="spacing" textLength="499" x="611" y="656.6592">AnyAsync(VesselTypes.Where(vt =&gt; vt.Name == dto.Name &amp;&amp; vt.VesselTypeId != id))</text><polygon fill="#181818" points="1477,704.2188,1487,708.2188,1477,712.2188,1481,708.2188" style="stroke:#181818;stroke-width:1.0;"/><line style="stroke:#181818;stroke-width:1.0;" x1="1132" x2="1483" y1="708.2188" y2="708.2188"/><text fill="#000000" font-family="sans-serif" font-size="13" lengthAdjust="spacing" textLength="232" x="1139" y="687.0107">SELECT COUNT(*) FROM VesselTypes</text><text fill="#000000" font-family="sans-serif" font-size="13" lengthAdjust="spacing" textLength="249" x="1139" y="703.3623">WHERE Name = ? AND VesselTypeId != ?</text><polygon fill="#181818" points="1138,734.5703,1128,738.5703,1138,742.5703,1134,738.5703" style="stroke:#181818;stroke-width:1.0;"/><line style="stroke:#181818;stroke-width:1.0;stroke-dasharray:2.0,2.0;" x1="1132" x2="1493" y1="738.5703" y2="738.5703"/><text fill="#000000" font-family="sans-serif" font-size="13" lengthAdjust="spacing" textLength="106" x="1144" y="733.7139">1 (duplicate found)</text><polygon fill="#181818" points="325,781.2734,315,785.2734,325,789.2734,321,785.2734" style="stroke:#181818;stroke-width:1.0;"/><line style="stroke:#181818;stroke-width:1.0;stroke-dasharray:2.0,2.0;" x1="319" x2="593" y1="785.2734" y2="785.2734"/><text fill="#000000" font-family="sans-serif" font-size="13" lengthAdjust="spacing" textLength="68" x="331" y="764.0654">409 Conflict</text><text fill="#000000" font-family="sans-serif" font-size="13" lengthAdjust="spacing" textLength="256" x="331" y="780.417">"Another vessel type already has this name"</text><polygon fill="#181818" points="100,811.625,90,815.625,100,819.625,96,815.625" style="stroke:#181818;stroke-width:1.0;"/><line style="stroke:#181818;stroke-width:1.0;stroke-dasharray:2.0,2.0;" x1="94" x2="303" y1="815.625" y2="815.625"/><text fill="#000000" font-family="sans-serif" font-size="13" lengthAdjust="spacing" textLength="126" x="106" y="810.7686">Error: Duplicate name</text><line style="stroke:#000000;stroke-width:1.0;stroke-dasharray:2.0,2.0;" x1="10" x2="1535" y1="824.625" y2="824.625"/><text fill="#000000" font-family="sans-serif" font-size="11" font-weight="bold" lengthAdjust="spacing" textLength="137" x="15" y="836.0439">[negative or zero values]</text><polygon fill="#181818" points="1110,857.8125,1120,861.8125,1110,865.8125,1114,861.8125" style="stroke:#181818;stroke-width:1.0;"/><line style="stroke:#181818;stroke-width:1.0;" x1="604" x2="1116" y1="861.8125" y2="861.8125"/><text fill="#000000" font-family="sans-serif" font-size="13" lengthAdjust="spacing" textLength="164" x="611" y="856.9561">FindAsync&lt;VesselType&gt;(id)</text><polygon fill="#181818" points="1477,888.1641,1487,892.1641,1477,896.1641,1481,892.1641" style="stroke:#181818;stroke-width:1.0;"/><line style="stroke:#181818;stroke-width:1.0;" x1="1132" x2="1483" y1="892.1641" y2="892.1641"/><text fill="#000000" font-family="sans-serif" font-size="13" lengthAdjust="spacing" textLength="338" x="1139" y="887.3076">SELECT * FROM VesselTypes WHERE VesselTypeId = ?</text><polygon fill="#181818" points="1138,918.5156,1128,922.5156,1138,926.5156,1134,922.5156" style="stroke:#181818;stroke-width:1.0;"/><line style="stroke:#181818;stroke-width:1.0;stroke-dasharray:2.0,2.0;" x1="1132" x2="1493" y1="922.5156" y2="922.5156"/><text fill="#000000" font-family="sans-serif" font-size="13" lengthAdjust="spacing" textLength="64" x="1144" y="917.6592">vesselType</text><line style="stroke:#181818;stroke-width:1.0;" x1="604" x2="646" y1="952.8672" y2="952.8672"/><line style="stroke:#181818;stroke-width:1.0;" x1="646" x2="646" y1="952.8672" y2="965.8672"/><line style="stroke:#181818;stroke-width:1.0;" x1="605" x2="646" y1="965.8672" y2="965.8672"/><polygon fill="#181818" points="615,961.8672,605,965.8672,615,969.8672,611,965.8672" style="stroke:#181818;stroke-width:1.0;"/><text fill="#000000" font-family="sans-serif" font-size="13" lengthAdjust="spacing" textLength="158" x="611" y="948.0107">ValidatePositiveValues(dto)</text><polygon fill="#181818" points="325,1008.5703,315,1012.5703,325,1016.5703,321,1012.5703" style="stroke:#181818;stroke-width:1.0;"/><line style="stroke:#181818;stroke-width:1.0;stroke-dasharray:2.0,2.0;" x1="319" x2="593" y1="1012.5703" y2="1012.5703"/><text fill="#000000" font-family="sans-serif" font-size="13" lengthAdjust="spacing" textLength="100" x="331" y="991.3623">400 Bad Request</text><text fill="#000000" font-family="sans-serif" font-size="13" lengthAdjust="spacing" textLength="213" x="331" y="1007.7139">"All numeric values must be positive"</text><polygon fill="#181818" points="100,1038.9219,90,1042.9219,100,1046.9219,96,1042.9219" style="stroke:#181818;stroke-width:1.0;"/><line style="stroke:#181818;stroke-width:1.0;stroke-dasharray:2.0,2.0;" x1="94" x2="303" y1="1042.9219" y2="1042.9219"/><text fill="#000000" font-family="sans-serif" font-size="13" lengthAdjust="spacing" textLength="103" x="106" y="1038.0654">Error: Invalid input</text><line style="stroke:#000000;stroke-width:1.0;stroke-dasharray:2.0,2.0;" x1="10" x2="1535" y1="1051.9219" y2="1051.9219"/><text fill="#000000" font-family="sans-serif" font-size="11" font-weight="bold" lengthAdjust="spacing" textLength="126" x="15" y="1063.3408">[all validations passed]</text><polygon fill="#181818" points="1110,1085.1094,1120,1089.1094,1110,1093.1094,1114,1089.1094" style="stroke:#181818;stroke-width:1.0;"/><line style="stroke:#181818;stroke-width:1.0;" x1="604" x2="1116" y1="1089.1094" y2="1089.1094"/><text fill="#000000" font-family="sans-serif" font-size="13" lengthAdjust="spacing" textLength="164" x="611" y="1084.2529">FindAsync&lt;VesselType&gt;(id)</text><polygon fill="#181818" points="1477,1115.4609,1487,1119.4609,1477,1123.4609,1481,1119.4609" style="stroke:#181818;stroke-width:1.0;"/><line style="stroke:#181818;stroke-width:1.0;" x1="1132" x2="1483" y1="1119.4609" y2="1119.4609"/><text fill="#000000" font-family="sans-serif" font-size="13" lengthAdjust="spacing" textLength="338" x="1139" y="1114.6045">SELECT * FROM VesselTypes WHERE VesselTypeId = ?</text><polygon fill="#181818" points="1138,1145.8125,1128,1149.8125,1138,1153.8125,1134,1149.8125" style="stroke:#181818;stroke-width:1.0;"/><line style="stroke:#181818;stroke-width:1.0;stroke-dasharray:2.0,2.0;" x1="1132" x2="1493" y1="1149.8125" y2="1149.8125"/><text fill="#000000" font-family="sans-serif" font-size="13" lengthAdjust="spacing" textLength="64" x="1144" y="1144.9561">vesselType</text><line style="stroke:#181818;stroke-width:1.0;" x1="604" x2="646" y1="1180.1641" y2="1180.1641"/><line style="stroke:#181818;stroke-width:1.0;" x1="646" x2="646" y1="1180.1641" y2="1193.1641"/><line style="stroke:#181818;stroke-width:1.0;" x1="605" x2="646" y1="1193.1641" y2="1193.1641"/><polygon fill="#181818" points="615,1189.1641,605,1193.1641,615,1197.1641,611,1193.1641" style="stroke:#181818;stroke-width:1.0;"/><text fill="#000000" font-family="sans-serif" font-size="13" lengthAdjust="spacing" textLength="158" x="611" y="1175.3076">ValidatePositiveValues(dto)</text><polygon fill="#181818" points="1222,1252.2188,1232,1256.2188,1222,1260.2188,1226,1256.2188" style="stroke:#181818;stroke-width:1.0;"/><line style="stroke:#181818;stroke-width:1.0;" x1="604" x2="1228" y1="1256.2188" y2="1256.2188"/><text fill="#000000" font-family="sans-serif" font-size="13" lengthAdjust="spacing" textLength="267" x="611" y="1218.6592">Update(dto.Description, dto.MaxCapacityTEU,</text><text fill="#000000" font-family="sans-serif" font-size="13" lengthAdjust="spacing" textLength="251" x="611" y="1235.0107">dto.MaxRows, dto.MaxBays, dto.MaxTiers,</text><text fill="#000000" font-family="sans-serif" font-size="13" lengthAdjust="spacing" textLength="261" x="611" y="1251.3623">dto.MaxLength, dto.MaxBeam, dto.MaxDraft)</text><path d="M510.5,1271.2188 L571.5,1271.2188 L571.5,1279.5703 L561.5,1289.5703 L510.5,1289.5703 L510.5,1271.2188 " fill="#EEEEEE" style="stroke:#000000;stroke-width:1.5;"/><rect fill="none" height="48.7031" style="stroke:#000000;stroke-width:1.5;" width="777.5" x="510.5" y="1271.2188"/><text fill="#000000" font-family="sans-serif" font-size="13" font-weight="bold" lengthAdjust="spacing" textLength="16" x="525.5" y="1285.7139">alt</text><text fill="#000000" font-family="sans-serif" font-size="11" font-weight="bold" lengthAdjust="spacing" textLength="112" x="586.5" y="1284.6377">[dto.Name provided]</text><polygon fill="#181818" points="1222,1307.9219,1232,1311.9219,1222,1315.9219,1226,1311.9219" style="stroke:#181818;stroke-width:1.0;"/><line style="stroke:#181818;stroke-width:1.0;" x1="604" x2="1228" y1="1311.9219" y2="1311.9219"/><text fill="#000000" font-family="sans-serif" font-size="13" lengthAdjust="spacing" textLength="139" x="611" y="1307.0654">UpdateName(dto.Name)</text><polygon fill="#181818" points="1110,1345.2734,1120,1349.2734,1110,1353.2734,1114,1349.2734" style="stroke:#181818;stroke-width:1.0;"/><line style="stroke:#181818;stroke-width:1.0;" x1="604" x2="1116" y1="1349.2734" y2="1349.2734"/><text fill="#000000" font-family="sans-serif" font-size="13" lengthAdjust="spacing" textLength="124" x="611" y="1344.417">SaveChangesAsync()</text><polygon fill="#181818" points="1477,1375.625,1487,1379.625,1477,1383.625,1481,1379.625" style="stroke:#181818;stroke-width:1.0;"/><line style="stroke:#181818;stroke-width:1.0;" x1="1132" x2="1483" y1="1379.625" y2="1379.625"/><text fill="#000000" font-family="sans-serif" font-size="13" lengthAdjust="spacing" textLength="176" x="1139" y="1374.7686">UPDATE VesselTypes SET ...</text><polygon fill="#181818" points="1138,1405.9766,1128,1409.9766,1138,1413.9766,1134,1409.9766" style="stroke:#181818;stroke-width:1.0;"/><line style="stroke:#181818;stroke-width:1.0;stroke-dasharray:2.0,2.0;" x1="1132" x2="1493" y1="1409.9766" y2="1409.9766"/><text fill="#000000" font-family="sans-serif" font-size="13" lengthAdjust="spacing" textLength="14" x="1144" y="1405.1201">ok</text><line style="stroke:#181818;stroke-width:1.0;" x1="604" x2="646" y1="1440.3281" y2="1440.3281"/><line style="stroke:#181818;stroke-width:1.0;" x1="646" x2="646" y1="1440.3281" y2="1453.3281"/><line style="stroke:#181818;stroke-width:1.0;" x1="605" x2="646" y1="1453.3281" y2="1453.3281"/><polygon fill="#181818" points="615,1449.3281,605,1453.3281,615,1457.3281,611,1453.3281" style="stroke:#181818;stroke-width:1.0;"/><text fill="#000000" font-family="sans-serif" font-size="13" lengthAdjust="spacing" textLength="144" x="611" y="1435.4717">ToResponse(vesselType)</text><polygon fill="#181818" points="325,1496.0313,315,1500.0313,325,1504.0313,321,1500.0313" style="stroke:#181818;stroke-width:1.0;"/><line style="stroke:#181818;stroke-width:1.0;stroke-dasharray:2.0,2.0;" x1="319" x2="593" y1="1500.0313" y2="1500.0313"/><text fill="#000000" font-family="sans-serif" font-size="13" lengthAdjust="spacing" textLength="44" x="331" y="1478.8232">200 OK</text><text fill="#000000" font-family="sans-serif" font-size="13" lengthAdjust="spacing" textLength="184" x="331" y="1495.1748">Body: VesselTypeResponseDto</text><polygon fill="#181818" points="100,1526.3828,90,1530.3828,100,1534.3828,96,1530.3828" style="stroke:#181818;stroke-width:1.0;"/><line style="stroke:#181818;stroke-width:1.0;stroke-dasharray:2.0,2.0;" x1="94" x2="303" y1="1530.3828" y2="1530.3828"/><text fill="#000000" font-family="sans-serif" font-size="13" lengthAdjust="spacing" textLength="162" x="106" y="1525.5264">Display updated vessel type</text><!--SRC=[vLRFSzeu5BxxhtZBeJ6TGDgqbyqiwH0Rffbj4mOClN0HrYDeQYIl97j3E_tV-oGRR9gqc-sfitkJvFVp-vu-sGgR8Spmhm9bYX0BTgVP5demppcp20iq1ZD8TZb2E9_1UV-y_x8R12orIaDdehI5OM4tIWkxWzlrMgIeEy0Cp0tg86VQYbJaJ5he32VN46K2fVK6rVBOf4hdifb8IQjLbjNXecD3bpXUEHkyhyB5g- -5MiemLbicPDSRBfA0McChPX0wep7Cg1FqN_mg25pbqBki2uGBcCmJE6EvE2jzp9vrzPrz5loBmq6K3gYwczh7UPDZ1M8e-6czR8gAhUgsl8FWP8_Z9sQ5af1kCFqOHFjG4NDGr0ttnrfjtoBZg4quTUGPssri5omJBfi3wK3EC4qfUUYuoon8PU5nyWAW6Brs-wzVl8AnqYl1EKhtkUwHR3nK5p3IMkaBg580MGda0MO4S8KOECHyphKg9AzIN19bv3iMaW_DJgP_DE1S4cHTiZhWG-I2CoSdJnBvpKRlHb42ps4ylNqFhS613sz7qr7hv9h30DwqmrL4Gnshjoz55bb6fnmV6BQEV2cFWVGQRgZ1yRx1xu6qQ2725PNhOC5xOMo562_oJAGkasHR_5MXAWyk_mQmsdaeTxwDi5LA_yC6DOQbXS4bbBP_Gyt3O03Sgchzx9axFYhrjm5Gyq_iFhgTtoJXy-u349QoGg7A26zWU1F3jtcUWibB21lo_A1tVtwQVWUwwsiAPfUoCwGP8NYERXFBD0d03ZOaN7OZZ1-NpeycBpwUB3zj4kz8Rae4KlDFg1MKB2Cr-Q-DtR4g6k5QNlXEG-w4-74ENi0Lur3hgwCXoqWZjgX5MkC4sy9OM27aTT0V4d0jIrS329aNzMqdLOUoAen4tq3Eg47-luJ_PF_FmVrZ3OGXFKlx48kaUK-T9iHeKYroXzgf5udtx3vYEKl99ndDJvUoFfoglyt1uehjcaqYwFbi3D-XlBERnXJPzh29DLlRkaxtV1vKATUg5Dmpzh1GPn7kJPqt-gV1zpgXtAJvzCmpUVVDXPkn4gFglDB9Vw9wFec7oUY8uzaeWNw__mHIrSSdata2LuN8E6WqEKqhjlbDrBG-3PinwJwyLkTqhMx_NCehnNSNhPBttlHZzEWTYeN9CxQ3maFBsreOE5o3LhtHqSQ7-We0]--></g></svg>