<?xml version="1.0" encoding="us-ascii" standalone="no"?><svg xmlns="http://www.w3.org/2000/svg" xmlns:xlink="http://www.w3.org/1999/xlink" contentStyleType="text/css" height="1376px" preserveAspectRatio="none" style="width:1368px;height:1376px;background:#FFFFFF;" version="1.1" viewBox="0 0 1368 1376" width="1368px" zoomAndPan="magnify"><defs/><g><text fill="#000000" font-family="sans-serif" font-size="14" font-weight="bold" lengthAdjust="spacing" textLength="349" x="510.5" y="29.5332">Sequence Diagram - Create Vessel Type (US 2.2.1)</text><rect fill="#FFFFFF" height="1131.1641" style="stroke:#181818;stroke-width:1.0;" width="10" x="272" y="153.5703"/><rect fill="#FFFFFF" height="1100.8125" style="stroke:#181818;stroke-width:1.0;" width="10" x="558" y="183.9219"/><rect fill="#FFFFFF" height="60.7031" style="stroke:#181818;stroke-width:1.0;" width="10" x="940" y="402.8672"/><rect fill="#FFFFFF" height="60.7031" style="stroke:#181818;stroke-width:1.0;" width="10" x="940" y="586.8125"/><rect fill="#FFFFFF" height="60.7031" style="stroke:#181818;stroke-width:1.0;" width="10" x="940" y="814.1094"/><rect fill="#FFFFFF" height="91.0547" style="stroke:#181818;stroke-width:1.0;" width="10" x="940" y="1041.9219"/><rect fill="#FFFFFF" height="30.3516" style="stroke:#181818;stroke-width:1.0;" width="10" x="1315" y="433.2188"/><rect fill="#FFFFFF" height="30.3516" style="stroke:#181818;stroke-width:1.0;" width="10" x="1315" y="617.1641"/><rect fill="#FFFFFF" height="30.3516" style="stroke:#181818;stroke-width:1.0;" width="10" x="1315" y="844.4609"/><rect fill="#FFFFFF" height="30.3516" style="stroke:#181818;stroke-width:1.0;" width="10" x="1315" y="1102.625"/><rect fill="none" height="992.1094" style="stroke:#000000;stroke-width:1.5;" width="1351" x="10" y="285.625"/><line style="stroke:#181818;stroke-width:0.5;stroke-dasharray:5.0,5.0;" x1="89" x2="89" y1="121.2188" y2="1294.7344"/><line style="stroke:#181818;stroke-width:0.5;stroke-dasharray:5.0,5.0;" x1="276.5" x2="276.5" y1="121.2188" y2="1294.7344"/><line style="stroke:#181818;stroke-width:0.5;stroke-dasharray:5.0,5.0;" x1="562.5" x2="562.5" y1="121.2188" y2="1294.7344"/><line style="stroke:#181818;stroke-width:0.5;stroke-dasharray:5.0,5.0;" x1="945" x2="945" y1="121.2188" y2="1294.7344"/><line style="stroke:#181818;stroke-width:0.5;stroke-dasharray:5.0,5.0;" x1="1052" x2="1052" y1="967.6914" y2="1294.7344"/><line style="stroke:#181818;stroke-width:0.5;stroke-dasharray:5.0,5.0;" x1="1320" x2="1320" y1="121.2188" y2="1294.7344"/><text fill="#000000" font-family="sans-serif" font-size="14" lengthAdjust="spacing" textLength="132" x="20" y="118.1426">Port Authority Officer</text><ellipse cx="89" cy="52.1094" fill="#E2E2F0" rx="8" ry="8" style="stroke:#181818;stroke-width:0.5;"/><path d="M89,60.1094 L89,87.1094 M76,68.1094 L102,68.1094 M89,87.1094 L76,102.1094 M89,87.1094 L102,102.1094 " fill="none" style="stroke:#181818;stroke-width:0.5;"/><text fill="#000000" font-family="sans-serif" font-size="14" lengthAdjust="spacing" textLength="132" x="20" y="1308.2676">Port Authority Officer</text><ellipse cx="89" cy="1319.8438" fill="#E2E2F0" rx="8" ry="8" style="stroke:#181818;stroke-width:0.5;"/><path d="M89,1327.8438 L89,1354.8438 M76,1335.8438 L102,1335.8438 M89,1354.8438 L76,1369.8438 M89,1354.8438 L102,1369.8438 " fill="none" style="stroke:#181818;stroke-width:0.5;"/><rect fill="#E2E2F0" height="31.6094" rx="2.5" ry="2.5" style="stroke:#181818;stroke-width:0.5;" width="75" x="239.5" y="88.6094"/><text fill="#000000" font-family="sans-serif" font-size="14" lengthAdjust="spacing" textLength="61" x="246.5" y="110.1426">API Client</text><rect fill="#E2E2F0" height="31.6094" rx="2.5" ry="2.5" style="stroke:#181818;stroke-width:0.5;" width="75" x="239.5" y="1293.7344"/><text fill="#000000" font-family="sans-serif" font-size="14" lengthAdjust="spacing" textLength="61" x="246.5" y="1315.2676">API Client</text><rect fill="#E2E2F0" height="31.6094" rx="2.5" ry="2.5" style="stroke:#181818;stroke-width:0.5;" width="157" x="484.5" y="88.6094"/><text fill="#000000" font-family="sans-serif" font-size="14" lengthAdjust="spacing" textLength="143" x="491.5" y="110.1426">VesselTypesController</text><rect fill="#E2E2F0" height="31.6094" rx="2.5" ry="2.5" style="stroke:#181818;stroke-width:0.5;" width="157" x="484.5" y="1293.7344"/><text fill="#000000" font-family="sans-serif" font-size="14" lengthAdjust="spacing" textLength="143" x="491.5" y="1315.2676">VesselTypesController</text><rect fill="#E2E2F0" height="31.6094" rx="2.5" ry="2.5" style="stroke:#181818;stroke-width:0.5;" width="106" x="892" y="88.6094"/><text fill="#000000" font-family="sans-serif" font-size="14" lengthAdjust="spacing" textLength="92" x="899" y="110.1426">PortDbContext</text><rect fill="#E2E2F0" height="31.6094" rx="2.5" ry="2.5" style="stroke:#181818;stroke-width:0.5;" width="106" x="892" y="1293.7344"/><text fill="#000000" font-family="sans-serif" font-size="14" lengthAdjust="spacing" textLength="92" x="899" y="1315.2676">PortDbContext</text><rect fill="#E2E2F0" height="49.2188" rx="2.5" ry="2.5" style="stroke:#181818;stroke-width:0.5;" width="88" x="1008" y="1293.7344"/><text fill="#000000" font-family="sans-serif" font-size="14" lengthAdjust="spacing" textLength="74" x="1015" y="1315.2676">VesselType</text><text fill="#000000" font-family="sans-serif" font-size="14" lengthAdjust="spacing" textLength="58" x="1023" y="1332.877">(Domain)</text><text fill="#000000" font-family="sans-serif" font-size="14" lengthAdjust="spacing" textLength="56" x="1289" y="118.1426">EF Store</text><path d="M1302,67.6094 C1302,57.6094 1320,57.6094 1320,57.6094 C1320,57.6094 1338,57.6094 1338,67.6094 L1338,93.6094 C1338,103.6094 1320,103.6094 1320,103.6094 C1320,103.6094 1302,103.6094 1302,93.6094 L1302,67.6094 " fill="#E2E2F0" style="stroke:#181818;stroke-width:1.5;"/><path d="M1302,67.6094 C1302,77.6094 1320,77.6094 1320,77.6094 C1320,77.6094 1338,77.6094 1338,67.6094 " fill="none" style="stroke:#181818;stroke-width:1.5;"/><text fill="#000000" font-family="sans-serif" font-size="14" lengthAdjust="spacing" textLength="56" x="1289" y="1308.2676">EF Store</text><path d="M1302,1321.3438 C1302,1311.3438 1320,1311.3438 1320,1311.3438 C1320,1311.3438 1338,1311.3438 1338,1321.3438 L1338,1347.3438 C1338,1357.3438 1320,1357.3438 1320,1357.3438 C1320,1357.3438 1302,1357.3438 1302,1347.3438 L1302,1321.3438 " fill="#E2E2F0" style="stroke:#181818;stroke-width:1.5;"/><path d="M1302,1321.3438 C1302,1331.3438 1320,1331.3438 1320,1331.3438 C1320,1331.3438 1338,1331.3438 1338,1321.3438 " fill="none" style="stroke:#181818;stroke-width:1.5;"/><rect fill="#FFFFFF" height="1131.1641" style="stroke:#181818;stroke-width:1.0;" width="10" x="272" y="153.5703"/><rect fill="#FFFFFF" height="1100.8125" style="stroke:#181818;stroke-width:1.0;" width="10" x="558" y="183.9219"/><rect fill="#FFFFFF" height="60.7031" style="stroke:#181818;stroke-width:1.0;" width="10" x="940" y="402.8672"/><rect fill="#FFFFFF" height="60.7031" style="stroke:#181818;stroke-width:1.0;" width="10" x="940" y="586.8125"/><rect fill="#FFFFFF" height="60.7031" style="stroke:#181818;stroke-width:1.0;" width="10" x="940" y="814.1094"/><rect fill="#FFFFFF" height="91.0547" style="stroke:#181818;stroke-width:1.0;" width="10" x="940" y="1041.9219"/><rect fill="#FFFFFF" height="30.3516" style="stroke:#181818;stroke-width:1.0;" width="10" x="1315" y="433.2188"/><rect fill="#FFFFFF" height="30.3516" style="stroke:#181818;stroke-width:1.0;" width="10" x="1315" y="617.1641"/><rect fill="#FFFFFF" height="30.3516" style="stroke:#181818;stroke-width:1.0;" width="10" x="1315" y="844.4609"/><rect fill="#FFFFFF" height="30.3516" style="stroke:#181818;stroke-width:1.0;" width="10" x="1315" y="1102.625"/><polygon fill="#181818" points="260,149.5703,270,153.5703,260,157.5703,264,153.5703" style="stroke:#181818;stroke-width:1.0;"/><line style="stroke:#181818;stroke-width:1.0;" x1="89" x2="266" y1="153.5703" y2="153.5703"/><text fill="#000000" font-family="sans-serif" font-size="13" lengthAdjust="spacing" textLength="136" x="96" y="148.7139">POST /api/vessel-types</text><polygon fill="#181818" points="546,179.9219,556,183.9219,546,187.9219,550,183.9219" style="stroke:#181818;stroke-width:1.0;"/><line style="stroke:#181818;stroke-width:1.0;" x1="282" x2="552" y1="183.9219" y2="183.9219"/><text fill="#000000" font-family="sans-serif" font-size="13" lengthAdjust="spacing" textLength="172" x="289" y="179.0654">Create(CreateVesselTypeDto)</text><line style="stroke:#181818;stroke-width:1.0;" x1="568" x2="610" y1="214.2734" y2="214.2734"/><line style="stroke:#181818;stroke-width:1.0;" x1="610" x2="610" y1="214.2734" y2="227.2734"/><line style="stroke:#181818;stroke-width:1.0;" x1="569" x2="610" y1="227.2734" y2="227.2734"/><polygon fill="#181818" points="579,223.2734,569,227.2734,579,231.2734,575,227.2734" style="stroke:#181818;stroke-width:1.0;"/><text fill="#000000" font-family="sans-serif" font-size="13" lengthAdjust="spacing" textLength="216" x="575" y="209.417">CallerContext.FromHeaders(Request)</text><line style="stroke:#181818;stroke-width:1.0;" x1="568" x2="610" y1="257.625" y2="257.625"/><line style="stroke:#181818;stroke-width:1.0;" x1="610" x2="610" y1="257.625" y2="270.625"/><line style="stroke:#181818;stroke-width:1.0;" x1="569" x2="610" y1="270.625" y2="270.625"/><polygon fill="#181818" points="579,266.625,569,270.625,579,274.625,575,270.625" style="stroke:#181818;stroke-width:1.0;"/><text fill="#000000" font-family="sans-serif" font-size="13" lengthAdjust="spacing" textLength="175" x="575" y="252.7686">ValidatePortAuthorityAccess()</text><path d="M10,285.625 L71,285.625 L71,293.9766 L61,303.9766 L10,303.9766 L10,285.625 " fill="#EEEEEE" style="stroke:#000000;stroke-width:1.5;"/><rect fill="none" height="992.1094" style="stroke:#000000;stroke-width:1.5;" width="1351" x="10" y="285.625"/><text fill="#000000" font-family="sans-serif" font-size="13" font-weight="bold" lengthAdjust="spacing" textLength="16" x="25" y="300.1201">alt</text><text fill="#000000" font-family="sans-serif" font-size="11" font-weight="bold" lengthAdjust="spacing" textLength="146" x="86" y="299.0439">[not Port Authority Officer]</text><polygon fill="#181818" points="293,322.3281,283,326.3281,293,330.3281,289,326.3281" style="stroke:#181818;stroke-width:1.0;"/><line style="stroke:#181818;stroke-width:1.0;stroke-dasharray:2.0,2.0;" x1="287" x2="557" y1="326.3281" y2="326.3281"/><text fill="#000000" font-family="sans-serif" font-size="13" lengthAdjust="spacing" textLength="82" x="299" y="321.4717">403 Forbidden</text><polygon fill="#181818" points="100,352.6797,90,356.6797,100,360.6797,96,356.6797" style="stroke:#181818;stroke-width:1.0;"/><line style="stroke:#181818;stroke-width:1.0;stroke-dasharray:2.0,2.0;" x1="94" x2="271" y1="356.6797" y2="356.6797"/><text fill="#000000" font-family="sans-serif" font-size="13" lengthAdjust="spacing" textLength="122" x="106" y="351.8232">Error: Access denied</text><line style="stroke:#000000;stroke-width:1.0;stroke-dasharray:2.0,2.0;" x1="10" x2="1361" y1="365.6797" y2="365.6797"/><text fill="#000000" font-family="sans-serif" font-size="11" font-weight="bold" lengthAdjust="spacing" textLength="119" x="15" y="377.0986">[name already exists]</text><polygon fill="#181818" points="928,398.8672,938,402.8672,928,406.8672,932,402.8672" style="stroke:#181818;stroke-width:1.0;"/><line style="stroke:#181818;stroke-width:1.0;" x1="568" x2="934" y1="402.8672" y2="402.8672"/><text fill="#000000" font-family="sans-serif" font-size="13" lengthAdjust="spacing" textLength="353" x="575" y="398.0107">AnyAsync(VesselTypes.Where(vt =&gt; vt.Name == dto.Name))</text><polygon fill="#181818" points="1303,429.2188,1313,433.2188,1303,437.2188,1307,433.2188" style="stroke:#181818;stroke-width:1.0;"/><line style="stroke:#181818;stroke-width:1.0;" x1="950" x2="1309" y1="433.2188" y2="433.2188"/><text fill="#000000" font-family="sans-serif" font-size="13" lengthAdjust="spacing" textLength="346" x="957" y="428.3623">SELECT COUNT(*) FROM VesselTypes WHERE Name = ?</text><polygon fill="#181818" points="956,459.5703,946,463.5703,956,467.5703,952,463.5703" style="stroke:#181818;stroke-width:1.0;"/><line style="stroke:#181818;stroke-width:1.0;stroke-dasharray:2.0,2.0;" x1="950" x2="1319" y1="463.5703" y2="463.5703"/><text fill="#000000" font-family="sans-serif" font-size="13" lengthAdjust="spacing" textLength="106" x="962" y="458.7139">1 (duplicate found)</text><polygon fill="#181818" points="293,506.2734,283,510.2734,293,514.2734,289,510.2734" style="stroke:#181818;stroke-width:1.0;"/><line style="stroke:#181818;stroke-width:1.0;stroke-dasharray:2.0,2.0;" x1="287" x2="557" y1="510.2734" y2="510.2734"/><text fill="#000000" font-family="sans-serif" font-size="13" lengthAdjust="spacing" textLength="68" x="299" y="489.0654">409 Conflict</text><text fill="#000000" font-family="sans-serif" font-size="13" lengthAdjust="spacing" textLength="252" x="299" y="505.417">"Vessel type with this name already exists"</text><polygon fill="#181818" points="100,536.625,90,540.625,100,544.625,96,540.625" style="stroke:#181818;stroke-width:1.0;"/><line style="stroke:#181818;stroke-width:1.0;stroke-dasharray:2.0,2.0;" x1="94" x2="271" y1="540.625" y2="540.625"/><text fill="#000000" font-family="sans-serif" font-size="13" lengthAdjust="spacing" textLength="126" x="106" y="535.7686">Error: Duplicate name</text><line style="stroke:#000000;stroke-width:1.0;stroke-dasharray:2.0,2.0;" x1="10" x2="1361" y1="549.625" y2="549.625"/><text fill="#000000" font-family="sans-serif" font-size="11" font-weight="bold" lengthAdjust="spacing" textLength="137" x="15" y="561.0439">[negative or zero values]</text><polygon fill="#181818" points="928,582.8125,938,586.8125,928,590.8125,932,586.8125" style="stroke:#181818;stroke-width:1.0;"/><line style="stroke:#181818;stroke-width:1.0;" x1="568" x2="934" y1="586.8125" y2="586.8125"/><text fill="#000000" font-family="sans-serif" font-size="13" lengthAdjust="spacing" textLength="353" x="575" y="581.9561">AnyAsync(VesselTypes.Where(vt =&gt; vt.Name == dto.Name))</text><polygon fill="#181818" points="1303,613.1641,1313,617.1641,1303,621.1641,1307,617.1641" style="stroke:#181818;stroke-width:1.0;"/><line style="stroke:#181818;stroke-width:1.0;" x1="950" x2="1309" y1="617.1641" y2="617.1641"/><text fill="#000000" font-family="sans-serif" font-size="13" lengthAdjust="spacing" textLength="346" x="957" y="612.3076">SELECT COUNT(*) FROM VesselTypes WHERE Name = ?</text><polygon fill="#181818" points="956,643.5156,946,647.5156,956,651.5156,952,647.5156" style="stroke:#181818;stroke-width:1.0;"/><line style="stroke:#181818;stroke-width:1.0;stroke-dasharray:2.0,2.0;" x1="950" x2="1319" y1="647.5156" y2="647.5156"/><text fill="#000000" font-family="sans-serif" font-size="13" lengthAdjust="spacing" textLength="96" x="962" y="642.6592">0 (no duplicates)</text><line style="stroke:#181818;stroke-width:1.0;" x1="568" x2="610" y1="677.8672" y2="677.8672"/><line style="stroke:#181818;stroke-width:1.0;" x1="610" x2="610" y1="677.8672" y2="690.8672"/><line style="stroke:#181818;stroke-width:1.0;" x1="569" x2="610" y1="690.8672" y2="690.8672"/><polygon fill="#181818" points="579,686.8672,569,690.8672,579,694.8672,575,690.8672" style="stroke:#181818;stroke-width:1.0;"/><text fill="#000000" font-family="sans-serif" font-size="13" lengthAdjust="spacing" textLength="158" x="575" y="673.0107">ValidatePositiveValues(dto)</text><polygon fill="#181818" points="293,733.5703,283,737.5703,293,741.5703,289,737.5703" style="stroke:#181818;stroke-width:1.0;"/><line style="stroke:#181818;stroke-width:1.0;stroke-dasharray:2.0,2.0;" x1="287" x2="557" y1="737.5703" y2="737.5703"/><text fill="#000000" font-family="sans-serif" font-size="13" lengthAdjust="spacing" textLength="100" x="299" y="716.3623">400 Bad Request</text><text fill="#000000" font-family="sans-serif" font-size="13" lengthAdjust="spacing" textLength="213" x="299" y="732.7139">"All numeric values must be positive"</text><polygon fill="#181818" points="100,763.9219,90,767.9219,100,771.9219,96,767.9219" style="stroke:#181818;stroke-width:1.0;"/><line style="stroke:#181818;stroke-width:1.0;stroke-dasharray:2.0,2.0;" x1="94" x2="271" y1="767.9219" y2="767.9219"/><text fill="#000000" font-family="sans-serif" font-size="13" lengthAdjust="spacing" textLength="103" x="106" y="763.0654">Error: Invalid input</text><line style="stroke:#000000;stroke-width:1.0;stroke-dasharray:2.0,2.0;" x1="10" x2="1361" y1="776.9219" y2="776.9219"/><text fill="#000000" font-family="sans-serif" font-size="11" font-weight="bold" lengthAdjust="spacing" textLength="126" x="15" y="788.3408">[all validations passed]</text><polygon fill="#181818" points="928,810.1094,938,814.1094,928,818.1094,932,814.1094" style="stroke:#181818;stroke-width:1.0;"/><line style="stroke:#181818;stroke-width:1.0;" x1="568" x2="934" y1="814.1094" y2="814.1094"/><text fill="#000000" font-family="sans-serif" font-size="13" lengthAdjust="spacing" textLength="353" x="575" y="809.2529">AnyAsync(VesselTypes.Where(vt =&gt; vt.Name == dto.Name))</text><polygon fill="#181818" points="1303,840.4609,1313,844.4609,1303,848.4609,1307,844.4609" style="stroke:#181818;stroke-width:1.0;"/><line style="stroke:#181818;stroke-width:1.0;" x1="950" x2="1309" y1="844.4609" y2="844.4609"/><text fill="#000000" font-family="sans-serif" font-size="13" lengthAdjust="spacing" textLength="346" x="957" y="839.6045">SELECT COUNT(*) FROM VesselTypes WHERE Name = ?</text><polygon fill="#181818" points="956,870.8125,946,874.8125,956,878.8125,952,874.8125" style="stroke:#181818;stroke-width:1.0;"/><line style="stroke:#181818;stroke-width:1.0;stroke-dasharray:2.0,2.0;" x1="950" x2="1319" y1="874.8125" y2="874.8125"/><text fill="#000000" font-family="sans-serif" font-size="13" lengthAdjust="spacing" textLength="96" x="962" y="869.9561">0 (no duplicates)</text><line style="stroke:#181818;stroke-width:1.0;" x1="568" x2="610" y1="905.1641" y2="905.1641"/><line style="stroke:#181818;stroke-width:1.0;" x1="610" x2="610" y1="905.1641" y2="918.1641"/><line style="stroke:#181818;stroke-width:1.0;" x1="569" x2="610" y1="918.1641" y2="918.1641"/><polygon fill="#181818" points="579,914.1641,569,918.1641,579,922.1641,575,918.1641" style="stroke:#181818;stroke-width:1.0;"/><text fill="#000000" font-family="sans-serif" font-size="13" lengthAdjust="spacing" textLength="158" x="575" y="900.3076">ValidatePositiveValues(dto)</text><polygon fill="#181818" points="996,977.2188,1006,981.2188,996,985.2188,1000,981.2188" style="stroke:#181818;stroke-width:1.0;"/><line style="stroke:#181818;stroke-width:1.0;" x1="568" x2="1002" y1="981.2188" y2="981.2188"/><text fill="#000000" font-family="sans-serif" font-size="13" lengthAdjust="spacing" textLength="254" x="575" y="943.6592">new VesselType(dto.Name, dto.Description,</text><text fill="#000000" font-family="sans-serif" font-size="13" lengthAdjust="spacing" textLength="299" x="575" y="960.0107">dto.MaxCapacityTEU, dto.MaxRows, dto.MaxBays,</text><text fill="#000000" font-family="sans-serif" font-size="13" lengthAdjust="spacing" textLength="344" x="575" y="976.3623">dto.MaxTiers, dto.MaxLength, dto.MaxBeam, dto.MaxDraft)</text><rect fill="#E2E2F0" height="49.2188" rx="2.5" ry="2.5" style="stroke:#181818;stroke-width:0.5;" width="88" x="1008" y="929"/><text fill="#000000" font-family="sans-serif" font-size="14" lengthAdjust="spacing" textLength="74" x="1015" y="950.5332">VesselType</text><text fill="#000000" font-family="sans-serif" font-size="14" lengthAdjust="spacing" textLength="58" x="1023" y="968.1426">(Domain)</text><polygon fill="#181818" points="579,1007.5703,569,1011.5703,579,1015.5703,575,1011.5703" style="stroke:#181818;stroke-width:1.0;"/><line style="stroke:#181818;stroke-width:1.0;stroke-dasharray:2.0,2.0;" x1="573" x2="1051" y1="1011.5703" y2="1011.5703"/><text fill="#000000" font-family="sans-serif" font-size="13" lengthAdjust="spacing" textLength="64" x="585" y="1006.7139">vesselType</text><polygon fill="#181818" points="928,1037.9219,938,1041.9219,928,1045.9219,932,1041.9219" style="stroke:#181818;stroke-width:1.0;"/><line style="stroke:#181818;stroke-width:1.0;" x1="568" x2="934" y1="1041.9219" y2="1041.9219"/><text fill="#000000" font-family="sans-serif" font-size="13" lengthAdjust="spacing" textLength="174" x="575" y="1037.0654">VesselTypes.Add(vesselType)</text><polygon fill="#181818" points="928,1068.2734,938,1072.2734,928,1076.2734,932,1072.2734" style="stroke:#181818;stroke-width:1.0;"/><line style="stroke:#181818;stroke-width:1.0;" x1="568" x2="934" y1="1072.2734" y2="1072.2734"/><text fill="#000000" font-family="sans-serif" font-size="13" lengthAdjust="spacing" textLength="124" x="575" y="1067.417">SaveChangesAsync()</text><polygon fill="#181818" points="1303,1098.625,1313,1102.625,1303,1106.625,1307,1102.625" style="stroke:#181818;stroke-width:1.0;"/><line style="stroke:#181818;stroke-width:1.0;" x1="950" x2="1309" y1="1102.625" y2="1102.625"/><text fill="#000000" font-family="sans-serif" font-size="13" lengthAdjust="spacing" textLength="158" x="957" y="1097.7686">INSERT INTO VesselTypes</text><polygon fill="#181818" points="956,1128.9766,946,1132.9766,956,1136.9766,952,1132.9766" style="stroke:#181818;stroke-width:1.0;"/><line style="stroke:#181818;stroke-width:1.0;stroke-dasharray:2.0,2.0;" x1="950" x2="1319" y1="1132.9766" y2="1132.9766"/><text fill="#000000" font-family="sans-serif" font-size="13" lengthAdjust="spacing" textLength="14" x="962" y="1128.1201">ok</text><line style="stroke:#181818;stroke-width:1.0;" x1="568" x2="610" y1="1163.3281" y2="1163.3281"/><line style="stroke:#181818;stroke-width:1.0;" x1="610" x2="610" y1="1163.3281" y2="1176.3281"/><line style="stroke:#181818;stroke-width:1.0;" x1="569" x2="610" y1="1176.3281" y2="1176.3281"/><polygon fill="#181818" points="579,1172.3281,569,1176.3281,579,1180.3281,575,1176.3281" style="stroke:#181818;stroke-width:1.0;"/><text fill="#000000" font-family="sans-serif" font-size="13" lengthAdjust="spacing" textLength="144" x="575" y="1158.4717">ToResponse(vesselType)</text><polygon fill="#181818" points="293,1235.3828,283,1239.3828,293,1243.3828,289,1239.3828" style="stroke:#181818;stroke-width:1.0;"/><line style="stroke:#181818;stroke-width:1.0;stroke-dasharray:2.0,2.0;" x1="287" x2="557" y1="1239.3828" y2="1239.3828"/><text fill="#000000" font-family="sans-serif" font-size="13" lengthAdjust="spacing" textLength="70" x="299" y="1201.8232">201 Created</text><text fill="#000000" font-family="sans-serif" font-size="13" lengthAdjust="spacing" textLength="176" x="299" y="1218.1748">Location: /api/vessel-types/{id}</text><text fill="#000000" font-family="sans-serif" font-size="13" lengthAdjust="spacing" textLength="184" x="299" y="1234.5264">Body: VesselTypeResponseDto</text><polygon fill="#181818" points="100,1265.7344,90,1269.7344,100,1273.7344,96,1269.7344" style="stroke:#181818;stroke-width:1.0;"/><line style="stroke:#181818;stroke-width:1.0;stroke-dasharray:2.0,2.0;" x1="94" x2="271" y1="1269.7344" y2="1269.7344"/><text fill="#000000" font-family="sans-serif" font-size="13" lengthAdjust="spacing" textLength="159" x="106" y="1264.8779">Display created vessel type</text><!--SRC=[xLNVJzim47xFNt7g2-b4ou_jPKWmbQG894QhDfINlhZnbLgaTcQxWJBjVzyvSTC07MAFa_OKnxxxxkxxxcmhR8OmnXyhb2b2BDYzPaleGAIHMOG96eCP9EiS8RmTmt7tk7lK3WAMMgMXDLJQGczb5qeBkuR1V2vIr2rW1cuDwY1dsefKv4nQQFM6Ln1b0gKj3QhbIvCgd8jc8YMjLbdcuQANXYvmF7Cs-5J1nRC_GKrb6Aib4x9T6awIW3FBPimWjFeNCAPAi3mfLq7WCeVEcKyGJc0u62Tmm79nK9IW7UiIT1o8mf7aA_7spfESAWB3whDD9hQgtV0CWhqDVy_C2YKXNM3w44Gr37CK-4Ax5rejBv5nr2OSET6CRMzj9omJL1ewScfHUcbAmKEdMMP1AWkxHGk0C3hDihySVeOBfMU2SvJksDT7DYL59z3NMkaJg480MGda0MP4h6HB19PHyNmD-2ICDLM0CnAAF7jotJDhcOODnRjt2zGO5XPEpw2mtHk7SNeAtAfotMuJH4qTwGqEYn1BtGXqtB_kHmb4WzkR9FpKXelHu3iq0i3TPN_KXmeNlZNHAkd1GtKsQHv1o5Tv9b9dCrShoLqE7D_uDRRAn7Qn-HL8nZc1sQdqxGcka-1Hs0NOXJ2xQ6kzntnS9-SyFVLuJvrK8D20FgDMKB2C6kLVfFyGGgcWLi3y5VclPy88nyga92FaRWntotG8vuo3dovIgfTb85TBr2BrLC9oPIpC478F-gv6Lx9mEO2G-SfM4j5CGr4bHYDl86T44l-lq6w5zZQF4IzlSI2QwTwYWzI_KSa6Rf8GdiJ7HatXXfpzagOOJQf5xcZVdqgtyvqzHIndAK4c_TlAYlP6wj7KF-TiRRRcYQ3hjpwxHdbl5rjJPClw9zPiRbqLb5Z7brlKgMsg6n8SJVeB-PkgzpWFjrvlDTvwZLc1qOB9UpHLyxJVjC3LpRW_IkYJ39f1FY2rUlYmjdjmlX8P1uqcf_x6fjo96ldTLqMz6iJZmoElEv_AQvMMetBozXa- -2duhwayLtpTf6qJXDxRdSCP2vDdRErxY7jPoliuGCc3e55MzEAdXFeD]--></g></svg>