<?xml version="1.0" encoding="us-ascii" standalone="no"?><svg xmlns="http://www.w3.org/2000/svg" xmlns:xlink="http://www.w3.org/1999/xlink" contentStyleType="text/css" height="1043px" preserveAspectRatio="none" style="width:2764px;height:1043px;background:#FFFFFF;" version="1.1" viewBox="0 0 2764 1043" width="2764px" zoomAndPan="magnify"><defs/><g><text fill="#000000" font-family="sans-serif" font-size="14" font-weight="bold" lengthAdjust="spacing" textLength="386" x="1182" y="24.5332">CD - US 4.1.1 OEM Module Architecture (Class Diagram)</text><!--cluster Presentation Layer--><g id="cluster_Presentation Layer"><path d="M355.5,44.6094 L488.5,44.6094 A3.75,3.75 0 0 1 491,47.1094 L498,68.2188 L1455.5,68.2188 A2.5,2.5 0 0 1 1458,70.7188 L1458,230.1094 A2.5,2.5 0 0 1 1455.5,232.6094 L355.5,232.6094 A2.5,2.5 0 0 1 353,230.1094 L353,47.1094 A2.5,2.5 0 0 1 355.5,44.6094 " fill="none" style="stroke:#000000;stroke-width:1.5;"/><line style="stroke:#000000;stroke-width:1.5;" x1="353" x2="498" y1="68.2188" y2="68.2188"/><text fill="#000000" font-family="sans-serif" font-size="14" font-weight="bold" lengthAdjust="spacing" textLength="132" x="357" y="61.1426">Presentation Layer</text></g><!--cluster Application Layer--><g id="cluster_Application Layer"><path d="M748.5,282.6094 L869.5,282.6094 A3.75,3.75 0 0 1 872,285.1094 L879,306.2188 L1547.5,306.2188 A2.5,2.5 0 0 1 1550,308.7188 L1550,722.1094 A2.5,2.5 0 0 1 1547.5,724.6094 L748.5,724.6094 A2.5,2.5 0 0 1 746,722.1094 L746,285.1094 A2.5,2.5 0 0 1 748.5,282.6094 " fill="none" style="stroke:#000000;stroke-width:1.5;"/><line style="stroke:#000000;stroke-width:1.5;" x1="746" x2="879" y1="306.2188" y2="306.2188"/><text fill="#000000" font-family="sans-serif" font-size="14" font-weight="bold" lengthAdjust="spacing" textLength="120" x="750" y="299.1426">Application Layer</text></g><!--cluster Domain Layer--><g id="cluster_Domain Layer"><path d="M1576.5,536.6094 L1671.5,536.6094 A3.75,3.75 0 0 1 1674,539.1094 L1681,560.2188 L2754.5,560.2188 A2.5,2.5 0 0 1 2757,562.7188 L2757,1034.1094 A2.5,2.5 0 0 1 2754.5,1036.6094 L1576.5,1036.6094 A2.5,2.5 0 0 1 1574,1034.1094 L1574,539.1094 A2.5,2.5 0 0 1 1576.5,536.6094 " fill="none" style="stroke:#000000;stroke-width:1.5;"/><line style="stroke:#000000;stroke-width:1.5;" x1="1574" x2="1681" y1="560.2188" y2="560.2188"/><text fill="#000000" font-family="sans-serif" font-size="14" font-weight="bold" lengthAdjust="spacing" textLength="94" x="1578" y="553.1426">Domain Layer</text></g><!--cluster Infrastructure Layer--><g id="cluster_Infrastructure Layer"><path d="M8.5,843.6094 L148.5,843.6094 A3.75,3.75 0 0 1 151,846.1094 L158,867.2188 L1316.5,867.2188 A2.5,2.5 0 0 1 1319,869.7188 L1319,1011.1094 A2.5,2.5 0 0 1 1316.5,1013.6094 L8.5,1013.6094 A2.5,2.5 0 0 1 6,1011.1094 L6,846.1094 A2.5,2.5 0 0 1 8.5,843.6094 " fill="none" style="stroke:#000000;stroke-width:1.5;"/><line style="stroke:#000000;stroke-width:1.5;" x1="6" x2="158" y1="867.2188" y2="867.2188"/><text fill="#000000" font-family="sans-serif" font-size="14" font-weight="bold" lengthAdjust="spacing" textLength="139" x="10" y="860.1426">Infrastructure Layer</text></g><!--class OperationPlanController--><g id="elem_OperationPlanController"><rect codeLine="7" fill="#F1F1F1" height="136.0469" id="OperationPlanController" rx="2.5" ry="2.5" style="stroke:#181818;stroke-width:0.5;" width="262" x="899" y="80.6094"/><ellipse cx="949.25" cy="96.6094" fill="#ADD1B2" rx="11" ry="11" style="stroke:#181818;stroke-width:1.0;"/><path d="M952.0156,92.4844 Q952.1719,92.2656 952.3594,92.1563 Q952.5469,92.0469 952.7656,92.0469 Q953.1406,92.0469 953.375,92.3125 Q953.6094,92.5625 953.6094,93.1719 L953.6094,94.625 Q953.6094,95.2344 953.375,95.5 Q953.1406,95.7656 952.7656,95.7656 Q952.4219,95.7656 952.2188,95.5625 Q952.0156,95.375 951.9063,94.8594 Q951.8594,94.5 951.6719,94.3125 Q951.3438,93.9375 950.7344,93.7188 Q950.125,93.5 949.5,93.5 Q948.7344,93.5 948.0938,93.8281 Q947.4688,94.1563 946.9688,94.9063 Q946.4844,95.6563 946.4844,96.6875 L946.4844,97.7813 Q946.4844,99.0156 947.375,99.8438 Q948.2656,100.6563 949.8594,100.6563 Q950.7969,100.6563 951.4531,100.4063 Q951.8438,100.25 952.2656,99.8125 Q952.5313,99.5469 952.6719,99.4688 Q952.8281,99.3906 953.0313,99.3906 Q953.3594,99.3906 953.6094,99.6563 Q953.875,99.9063 953.875,100.25 Q953.875,100.5938 953.5313,101 Q953.0313,101.5781 952.2344,101.9063 Q951.1563,102.3594 949.8594,102.3594 Q948.3438,102.3594 947.1406,101.7344 Q946.1563,101.2344 945.4688,100.1719 Q944.7813,99.0938 944.7813,97.8125 L944.7813,96.6563 Q944.7813,95.3281 945.3906,94.1875 Q946.0156,93.0313 947.1094,92.4219 Q948.2031,91.7969 949.4375,91.7969 Q950.1719,91.7969 950.8125,91.9688 Q951.4688,92.125 952.0156,92.4844 Z " fill="#000000"/><text fill="#000000" font-family="sans-serif" font-size="14" lengthAdjust="spacing" textLength="153" x="969.75" y="102.3379">OperationPlanController</text><line style="stroke:#181818;stroke-width:0.5;" x1="900" x2="1160" y1="112.6094" y2="112.6094"/><text fill="#000000" font-family="sans-serif" font-size="14" lengthAdjust="spacing" textLength="196" x="905" y="131.1426">-service: OperationPlanService</text><line style="stroke:#181818;stroke-width:0.5;" x1="900" x2="1160" y1="138.2188" y2="138.2188"/><text fill="#000000" font-family="sans-serif" font-size="14" lengthAdjust="spacing" textLength="186" x="905" y="156.752">+generatePlan(req, res, next)</text><text fill="#000000" font-family="sans-serif" font-size="14" lengthAdjust="spacing" textLength="153" x="905" y="174.3613">+listPlans(req, res, next)</text><text fill="#000000" font-family="sans-serif" font-size="14" lengthAdjust="spacing" textLength="176" x="905" y="191.9707">+getPlanById(req, res, next)</text><text fill="#000000" font-family="sans-serif" font-size="14" lengthAdjust="spacing" textLength="250" x="905" y="209.5801">+updateDockAssignment(req, res, next)</text></g><!--class VesselVisitExecutionController--><g id="elem_VesselVisitExecutionController"><rect codeLine="15" fill="#F1F1F1" height="136.0469" id="VesselVisitExecutionController" rx="2.5" ry="2.5" style="stroke:#181818;stroke-width:0.5;" width="246" x="1196" y="80.6094"/><ellipse cx="1221.35" cy="96.6094" fill="#ADD1B2" rx="11" ry="11" style="stroke:#181818;stroke-width:1.0;"/><path d="M1224.1156,92.4844 Q1224.2719,92.2656 1224.4594,92.1563 Q1224.6469,92.0469 1224.8656,92.0469 Q1225.2406,92.0469 1225.475,92.3125 Q1225.7094,92.5625 1225.7094,93.1719 L1225.7094,94.625 Q1225.7094,95.2344 1225.475,95.5 Q1225.2406,95.7656 1224.8656,95.7656 Q1224.5219,95.7656 1224.3188,95.5625 Q1224.1156,95.375 1224.0063,94.8594 Q1223.9594,94.5 1223.7719,94.3125 Q1223.4438,93.9375 1222.8344,93.7188 Q1222.225,93.5 1221.6,93.5 Q1220.8344,93.5 1220.1938,93.8281 Q1219.5688,94.1563 1219.0688,94.9063 Q1218.5844,95.6563 1218.5844,96.6875 L1218.5844,97.7813 Q1218.5844,99.0156 1219.475,99.8438 Q1220.3656,100.6563 1221.9594,100.6563 Q1222.8969,100.6563 1223.5531,100.4063 Q1223.9438,100.25 1224.3656,99.8125 Q1224.6313,99.5469 1224.7719,99.4688 Q1224.9281,99.3906 1225.1313,99.3906 Q1225.4594,99.3906 1225.7094,99.6563 Q1225.975,99.9063 1225.975,100.25 Q1225.975,100.5938 1225.6313,101 Q1225.1313,101.5781 1224.3344,101.9063 Q1223.2563,102.3594 1221.9594,102.3594 Q1220.4438,102.3594 1219.2406,101.7344 Q1218.2563,101.2344 1217.5688,100.1719 Q1216.8813,99.0938 1216.8813,97.8125 L1216.8813,96.6563 Q1216.8813,95.3281 1217.4906,94.1875 Q1218.1156,93.0313 1219.2094,92.4219 Q1220.3031,91.7969 1221.5375,91.7969 Q1222.2719,91.7969 1222.9125,91.9688 Q1223.5688,92.125 1224.1156,92.4844 Z " fill="#000000"/><text fill="#000000" font-family="sans-serif" font-size="14" lengthAdjust="spacing" textLength="191" x="1237.65" y="102.3379">VesselVisitExecutionController</text><line style="stroke:#181818;stroke-width:0.5;" x1="1197" x2="1441" y1="112.6094" y2="112.6094"/><text fill="#000000" font-family="sans-serif" font-size="14" lengthAdjust="spacing" textLength="234" x="1202" y="131.1426">-service: VesselVisitExecutionService</text><line style="stroke:#181818;stroke-width:0.5;" x1="1197" x2="1441" y1="138.2188" y2="138.2188"/><text fill="#000000" font-family="sans-serif" font-size="14" lengthAdjust="spacing" textLength="211" x="1202" y="156.752">+initializeFromPlan(req, res, next)</text><text fill="#000000" font-family="sans-serif" font-size="14" lengthAdjust="spacing" textLength="195" x="1202" y="174.3613">+recordBerthing(req, res, next)</text><text fill="#000000" font-family="sans-serif" font-size="14" lengthAdjust="spacing" textLength="211" x="1202" y="191.9707">+recordUnberthing(req, res, next)</text><text fill="#000000" font-family="sans-serif" font-size="14" lengthAdjust="spacing" textLength="182" x="1202" y="209.5801">+completeVve(req, res, next)</text></g><!--class AuthMiddleware--><g id="elem_AuthMiddleware"><rect codeLine="23" fill="#F1F1F1" height="83.2188" id="AuthMiddleware" rx="2.5" ry="2.5" style="stroke:#181818;stroke-width:0.5;" width="214" x="650" y="107.1094"/><ellipse cx="702.75" cy="123.1094" fill="#ADD1B2" rx="11" ry="11" style="stroke:#181818;stroke-width:1.0;"/><path d="M705.5156,118.9844 Q705.6719,118.7656 705.8594,118.6563 Q706.0469,118.5469 706.2656,118.5469 Q706.6406,118.5469 706.875,118.8125 Q707.1094,119.0625 707.1094,119.6719 L707.1094,121.125 Q707.1094,121.7344 706.875,122 Q706.6406,122.2656 706.2656,122.2656 Q705.9219,122.2656 705.7188,122.0625 Q705.5156,121.875 705.4063,121.3594 Q705.3594,121 705.1719,120.8125 Q704.8438,120.4375 704.2344,120.2188 Q703.625,120 703,120 Q702.2344,120 701.5938,120.3281 Q700.9688,120.6563 700.4688,121.4063 Q699.9844,122.1563 699.9844,123.1875 L699.9844,124.2813 Q699.9844,125.5156 700.875,126.3438 Q701.7656,127.1563 703.3594,127.1563 Q704.2969,127.1563 704.9531,126.9063 Q705.3438,126.75 705.7656,126.3125 Q706.0313,126.0469 706.1719,125.9688 Q706.3281,125.8906 706.5313,125.8906 Q706.8594,125.8906 707.1094,126.1563 Q707.375,126.4063 707.375,126.75 Q707.375,127.0938 707.0313,127.5 Q706.5313,128.0781 705.7344,128.4063 Q704.6563,128.8594 703.3594,128.8594 Q701.8438,128.8594 700.6406,128.2344 Q699.6563,127.7344 698.9688,126.6719 Q698.2813,125.5938 698.2813,124.3125 L698.2813,123.1563 Q698.2813,121.8281 698.8906,120.6875 Q699.5156,119.5313 700.6094,118.9219 Q701.7031,118.2969 702.9375,118.2969 Q703.6719,118.2969 704.3125,118.4688 Q704.9688,118.625 705.5156,118.9844 Z " fill="#000000"/><text fill="#000000" font-family="sans-serif" font-size="14" lengthAdjust="spacing" textLength="100" x="723.25" y="128.8379">AuthMiddleware</text><line style="stroke:#181818;stroke-width:0.5;" x1="651" x2="863" y1="139.1094" y2="139.1094"/><line style="stroke:#181818;stroke-width:0.5;" x1="651" x2="863" y1="147.1094" y2="147.1094"/><text fill="#000000" font-family="sans-serif" font-size="14" lengthAdjust="spacing" text-decoration="underline" textLength="200" x="656" y="165.6426">+authMiddleware(req, res, next)</text><text fill="#000000" font-family="sans-serif" font-size="14" lengthAdjust="spacing" textLength="202" x="656" y="183.252">-verifyToken(token): JwtPayload</text></g><!--class ErrorMiddleware--><g id="elem_ErrorMiddleware"><rect codeLine="28" fill="#F1F1F1" height="83.2188" id="ErrorMiddleware" rx="2.5" ry="2.5" style="stroke:#181818;stroke-width:0.5;" width="245" x="369.5" y="107.1094"/><ellipse cx="436.25" cy="123.1094" fill="#ADD1B2" rx="11" ry="11" style="stroke:#181818;stroke-width:1.0;"/><path d="M439.0156,118.9844 Q439.1719,118.7656 439.3594,118.6563 Q439.5469,118.5469 439.7656,118.5469 Q440.1406,118.5469 440.375,118.8125 Q440.6094,119.0625 440.6094,119.6719 L440.6094,121.125 Q440.6094,121.7344 440.375,122 Q440.1406,122.2656 439.7656,122.2656 Q439.4219,122.2656 439.2188,122.0625 Q439.0156,121.875 438.9063,121.3594 Q438.8594,121 438.6719,120.8125 Q438.3438,120.4375 437.7344,120.2188 Q437.125,120 436.5,120 Q435.7344,120 435.0938,120.3281 Q434.4688,120.6563 433.9688,121.4063 Q433.4844,122.1563 433.4844,123.1875 L433.4844,124.2813 Q433.4844,125.5156 434.375,126.3438 Q435.2656,127.1563 436.8594,127.1563 Q437.7969,127.1563 438.4531,126.9063 Q438.8438,126.75 439.2656,126.3125 Q439.5313,126.0469 439.6719,125.9688 Q439.8281,125.8906 440.0313,125.8906 Q440.3594,125.8906 440.6094,126.1563 Q440.875,126.4063 440.875,126.75 Q440.875,127.0938 440.5313,127.5 Q440.0313,128.0781 439.2344,128.4063 Q438.1563,128.8594 436.8594,128.8594 Q435.3438,128.8594 434.1406,128.2344 Q433.1563,127.7344 432.4688,126.6719 Q431.7813,125.5938 431.7813,124.3125 L431.7813,123.1563 Q431.7813,121.8281 432.3906,120.6875 Q433.0156,119.5313 434.1094,118.9219 Q435.2031,118.2969 436.4375,118.2969 Q437.1719,118.2969 437.8125,118.4688 Q438.4688,118.625 439.0156,118.9844 Z " fill="#000000"/><text fill="#000000" font-family="sans-serif" font-size="14" lengthAdjust="spacing" textLength="103" x="456.75" y="128.8379">ErrorMiddleware</text><line style="stroke:#181818;stroke-width:0.5;" x1="370.5" x2="613.5" y1="139.1094" y2="139.1094"/><line style="stroke:#181818;stroke-width:0.5;" x1="370.5" x2="613.5" y1="147.1094" y2="147.1094"/><text fill="#000000" font-family="sans-serif" font-size="14" lengthAdjust="spacing" text-decoration="underline" textLength="229" x="375.5" y="165.6426">+errorMiddleware(err, req, res, next)</text><text fill="#000000" font-family="sans-serif" font-size="14" lengthAdjust="spacing" text-decoration="underline" textLength="233" x="375.5" y="183.252">+notFoundMiddleware(req, res, next)</text></g><!--class OperationPlanService--><g id="elem_OperationPlanService"><rect codeLine="35" fill="#F1F1F1" height="153.6563" id="OperationPlanService" rx="2.5" ry="2.5" style="stroke:#181818;stroke-width:0.5;" width="393" x="762.5" y="318.6094"/><ellipse cx="885.75" cy="334.6094" fill="#ADD1B2" rx="11" ry="11" style="stroke:#181818;stroke-width:1.0;"/><path d="M888.5156,330.4844 Q888.6719,330.2656 888.8594,330.1563 Q889.0469,330.0469 889.2656,330.0469 Q889.6406,330.0469 889.875,330.3125 Q890.1094,330.5625 890.1094,331.1719 L890.1094,332.625 Q890.1094,333.2344 889.875,333.5 Q889.6406,333.7656 889.2656,333.7656 Q888.9219,333.7656 888.7188,333.5625 Q888.5156,333.375 888.4063,332.8594 Q888.3594,332.5 888.1719,332.3125 Q887.8438,331.9375 887.2344,331.7188 Q886.625,331.5 886,331.5 Q885.2344,331.5 884.5938,331.8281 Q883.9688,332.1563 883.4688,332.9063 Q882.9844,333.6563 882.9844,334.6875 L882.9844,335.7813 Q882.9844,337.0156 883.875,337.8438 Q884.7656,338.6563 886.3594,338.6563 Q887.2969,338.6563 887.9531,338.4063 Q888.3438,338.25 888.7656,337.8125 Q889.0313,337.5469 889.1719,337.4688 Q889.3281,337.3906 889.5313,337.3906 Q889.8594,337.3906 890.1094,337.6563 Q890.375,337.9063 890.375,338.25 Q890.375,338.5938 890.0313,339 Q889.5313,339.5781 888.7344,339.9063 Q887.6563,340.3594 886.3594,340.3594 Q884.8438,340.3594 883.6406,339.7344 Q882.6563,339.2344 881.9688,338.1719 Q881.2813,337.0938 881.2813,335.8125 L881.2813,334.6563 Q881.2813,333.3281 881.8906,332.1875 Q882.5156,331.0313 883.6094,330.4219 Q884.7031,329.7969 885.9375,329.7969 Q886.6719,329.7969 887.3125,329.9688 Q887.9688,330.125 888.5156,330.4844 Z " fill="#000000"/><text fill="#000000" font-family="sans-serif" font-size="14" lengthAdjust="spacing" textLength="138" x="906.25" y="340.3379">OperationPlanService</text><line style="stroke:#181818;stroke-width:0.5;" x1="763.5" x2="1154.5" y1="350.6094" y2="350.6094"/><text fill="#000000" font-family="sans-serif" font-size="14" lengthAdjust="spacing" textLength="204" x="768.5" y="369.1426">-repo: IOperationPlanRepository</text><text fill="#000000" font-family="sans-serif" font-size="14" lengthAdjust="spacing" textLength="202" x="768.5" y="386.752">-coreClient: ICoreBackendClient</text><text fill="#000000" font-family="sans-serif" font-size="14" lengthAdjust="spacing" textLength="197" x="768.5" y="404.3613">-planningClient: IPlanningClient</text><line style="stroke:#181818;stroke-width:0.5;" x1="763.5" x2="1154.5" y1="411.4375" y2="411.4375"/><text fill="#000000" font-family="sans-serif" font-size="14" lengthAdjust="spacing" textLength="381" x="768.5" y="429.9707">+generatePlanSimple(targetDate, algorithm, userId, vvnIds?)</text><text fill="#000000" font-family="sans-serif" font-size="14" lengthAdjust="spacing" textLength="225" x="768.5" y="447.5801">+getPlanById(id): OperationPlanDto</text><text fill="#000000" font-family="sans-serif" font-size="14" lengthAdjust="spacing" textLength="283" x="768.5" y="465.1895">+updateOperation(id, dto, userId, userName)</text></g><!--class VesselVisitExecutionService--><g id="elem_VesselVisitExecutionService"><rect codeLine="44" fill="#F1F1F1" height="136.0469" id="VesselVisitExecutionService" rx="2.5" ry="2.5" style="stroke:#181818;stroke-width:0.5;" width="343" x="1190.5" y="327.6094"/><ellipse cx="1269.75" cy="343.6094" fill="#ADD1B2" rx="11" ry="11" style="stroke:#181818;stroke-width:1.0;"/><path d="M1272.5156,339.4844 Q1272.6719,339.2656 1272.8594,339.1563 Q1273.0469,339.0469 1273.2656,339.0469 Q1273.6406,339.0469 1273.875,339.3125 Q1274.1094,339.5625 1274.1094,340.1719 L1274.1094,341.625 Q1274.1094,342.2344 1273.875,342.5 Q1273.6406,342.7656 1273.2656,342.7656 Q1272.9219,342.7656 1272.7188,342.5625 Q1272.5156,342.375 1272.4063,341.8594 Q1272.3594,341.5 1272.1719,341.3125 Q1271.8438,340.9375 1271.2344,340.7188 Q1270.625,340.5 1270,340.5 Q1269.2344,340.5 1268.5938,340.8281 Q1267.9688,341.1563 1267.4688,341.9063 Q1266.9844,342.6563 1266.9844,343.6875 L1266.9844,344.7813 Q1266.9844,346.0156 1267.875,346.8438 Q1268.7656,347.6563 1270.3594,347.6563 Q1271.2969,347.6563 1271.9531,347.4063 Q1272.3438,347.25 1272.7656,346.8125 Q1273.0313,346.5469 1273.1719,346.4688 Q1273.3281,346.3906 1273.5313,346.3906 Q1273.8594,346.3906 1274.1094,346.6563 Q1274.375,346.9063 1274.375,347.25 Q1274.375,347.5938 1274.0313,348 Q1273.5313,348.5781 1272.7344,348.9063 Q1271.6563,349.3594 1270.3594,349.3594 Q1268.8438,349.3594 1267.6406,348.7344 Q1266.6563,348.2344 1265.9688,347.1719 Q1265.2813,346.0938 1265.2813,344.8125 L1265.2813,343.6563 Q1265.2813,342.3281 1265.8906,341.1875 Q1266.5156,340.0313 1267.6094,339.4219 Q1268.7031,338.7969 1269.9375,338.7969 Q1270.6719,338.7969 1271.3125,338.9688 Q1271.9688,339.125 1272.5156,339.4844 Z " fill="#000000"/><text fill="#000000" font-family="sans-serif" font-size="14" lengthAdjust="spacing" textLength="176" x="1290.25" y="349.3379">VesselVisitExecutionService</text><line style="stroke:#181818;stroke-width:0.5;" x1="1191.5" x2="1532.5" y1="359.6094" y2="359.6094"/><text fill="#000000" font-family="sans-serif" font-size="14" lengthAdjust="spacing" textLength="269" x="1196.5" y="378.1426">-vveRepo: IVesselVisitExecutionRepository</text><text fill="#000000" font-family="sans-serif" font-size="14" lengthAdjust="spacing" textLength="236" x="1196.5" y="395.752">-planRepo: IOperationPlanRepository</text><line style="stroke:#181818;stroke-width:0.5;" x1="1191.5" x2="1532.5" y1="402.8281" y2="402.8281"/><text fill="#000000" font-family="sans-serif" font-size="14" lengthAdjust="spacing" textLength="331" x="1196.5" y="421.3613">+initializeVveFromPlan(dto): VesselVisitExecutionDto</text><text fill="#000000" font-family="sans-serif" font-size="14" lengthAdjust="spacing" textLength="310" x="1196.5" y="438.9707">+recordBerthing(id, dto): VesselVisitExecutionDto</text><text fill="#000000" font-family="sans-serif" font-size="14" lengthAdjust="spacing" textLength="297" x="1196.5" y="456.5801">+completeVve(id, dto): VesselVisitExecutionDto</text></g><!--class ICoreBackendClient--><g id="elem_ICoreBackendClient"><rect codeLine="52" fill="#F1F1F1" height="65.6094" id="ICoreBackendClient" rx="2.5" ry="2.5" style="stroke:#181818;stroke-width:0.5;" width="284" x="1147" y="642.6094"/><ellipse cx="1221.25" cy="658.6094" fill="#B4A7E5" rx="11" ry="11" style="stroke:#181818;stroke-width:1.0;"/><path d="M1222.2031,655.25 L1222.2031,661.9063 L1223.9219,661.9063 Q1224.5313,661.9063 1224.7969,662.1406 Q1225.0625,662.375 1225.0625,662.7656 Q1225.0625,663.1406 1224.7969,663.375 Q1224.5313,663.6094 1223.9219,663.6094 L1218.7813,663.6094 Q1218.1719,663.6094 1217.9063,663.375 Q1217.6406,663.1406 1217.6406,662.75 Q1217.6406,662.375 1217.9063,662.1406 Q1218.1719,661.9063 1218.7813,661.9063 L1220.5,661.9063 L1220.5,655.25 L1218.7813,655.25 Q1218.1719,655.25 1217.9063,655.0156 Q1217.6406,654.7813 1217.6406,654.3906 Q1217.6406,654.0156 1217.9063,653.7813 Q1218.1719,653.5469 1218.7813,653.5469 L1223.9219,653.5469 Q1224.5313,653.5469 1224.7969,653.7813 Q1225.0625,654.0156 1225.0625,654.3906 Q1225.0625,654.7813 1224.7969,655.0156 Q1224.5313,655.25 1223.9219,655.25 L1222.2031,655.25 Z " fill="#000000"/><text fill="#000000" font-family="sans-serif" font-size="14" font-style="italic" lengthAdjust="spacing" textLength="127" x="1241.75" y="664.3379">ICoreBackendClient</text><line style="stroke:#181818;stroke-width:0.5;" x1="1148" x2="1430" y1="674.6094" y2="674.6094"/><line style="stroke:#181818;stroke-width:0.5;" x1="1148" x2="1430" y1="682.6094" y2="682.6094"/><text fill="#000000" font-family="sans-serif" font-size="14" lengthAdjust="spacing" textLength="272" x="1153" y="701.1426">+getApprovedVvnsForDate(date): VvnDto[]</text></g><!--class IPlanningClient--><g id="elem_IPlanningClient"><rect codeLine="56" fill="#F1F1F1" height="65.6094" id="IPlanningClient" rx="2.5" ry="2.5" style="stroke:#181818;stroke-width:0.5;" width="349" x="762.5" y="642.6094"/><ellipse cx="885.25" cy="658.6094" fill="#B4A7E5" rx="11" ry="11" style="stroke:#181818;stroke-width:1.0;"/><path d="M886.2031,655.25 L886.2031,661.9063 L887.9219,661.9063 Q888.5313,661.9063 888.7969,662.1406 Q889.0625,662.375 889.0625,662.7656 Q889.0625,663.1406 888.7969,663.375 Q888.5313,663.6094 887.9219,663.6094 L882.7813,663.6094 Q882.1719,663.6094 881.9063,663.375 Q881.6406,663.1406 881.6406,662.75 Q881.6406,662.375 881.9063,662.1406 Q882.1719,661.9063 882.7813,661.9063 L884.5,661.9063 L884.5,655.25 L882.7813,655.25 Q882.1719,655.25 881.9063,655.0156 Q881.6406,654.7813 881.6406,654.3906 Q881.6406,654.0156 881.9063,653.7813 Q882.1719,653.5469 882.7813,653.5469 L887.9219,653.5469 Q888.5313,653.5469 888.7969,653.7813 Q889.0625,654.0156 889.0625,654.3906 Q889.0625,654.7813 888.7969,655.0156 Q888.5313,655.25 887.9219,655.25 L886.2031,655.25 Z " fill="#000000"/><text fill="#000000" font-family="sans-serif" font-size="14" font-style="italic" lengthAdjust="spacing" textLength="95" x="905.75" y="664.3379">IPlanningClient</text><line style="stroke:#181818;stroke-width:0.5;" x1="763.5" x2="1110.5" y1="674.6094" y2="674.6094"/><line style="stroke:#181818;stroke-width:0.5;" x1="763.5" x2="1110.5" y1="682.6094" y2="682.6094"/><text fill="#000000" font-family="sans-serif" font-size="14" lengthAdjust="spacing" textLength="337" x="768.5" y="701.1426">+generatePlan(date, algorithm, vvns): PlanningResult</text></g><!--class OperationPlan--><g id="elem_OperationPlan"><rect codeLine="62" fill="#F1F1F1" height="206.4844" id="OperationPlan" rx="2.5" ry="2.5" style="stroke:#181818;stroke-width:0.5;" width="218" x="2202" y="572.6094"/><ellipse cx="2261.25" cy="588.6094" fill="#ADD1B2" rx="11" ry="11" style="stroke:#181818;stroke-width:1.0;"/><path d="M2264.0156,584.4844 Q2264.1719,584.2656 2264.3594,584.1563 Q2264.5469,584.0469 2264.7656,584.0469 Q2265.1406,584.0469 2265.375,584.3125 Q2265.6094,584.5625 2265.6094,585.1719 L2265.6094,586.625 Q2265.6094,587.2344 2265.375,587.5 Q2265.1406,587.7656 2264.7656,587.7656 Q2264.4219,587.7656 2264.2188,587.5625 Q2264.0156,587.375 2263.9063,586.8594 Q2263.8594,586.5 2263.6719,586.3125 Q2263.3438,585.9375 2262.7344,585.7188 Q2262.125,585.5 2261.5,585.5 Q2260.7344,585.5 2260.0938,585.8281 Q2259.4688,586.1563 2258.9688,586.9063 Q2258.4844,587.6563 2258.4844,588.6875 L2258.4844,589.7813 Q2258.4844,591.0156 2259.375,591.8438 Q2260.2656,592.6563 2261.8594,592.6563 Q2262.7969,592.6563 2263.4531,592.4063 Q2263.8438,592.25 2264.2656,591.8125 Q2264.5313,591.5469 2264.6719,591.4688 Q2264.8281,591.3906 2265.0313,591.3906 Q2265.3594,591.3906 2265.6094,591.6563 Q2265.875,591.9063 2265.875,592.25 Q2265.875,592.5938 2265.5313,593 Q2265.0313,593.5781 2264.2344,593.9063 Q2263.1563,594.3594 2261.8594,594.3594 Q2260.3438,594.3594 2259.1406,593.7344 Q2258.1563,593.2344 2257.4688,592.1719 Q2256.7813,591.0938 2256.7813,589.8125 L2256.7813,588.6563 Q2256.7813,587.3281 2257.3906,586.1875 Q2258.0156,585.0313 2259.1094,584.4219 Q2260.2031,583.7969 2261.4375,583.7969 Q2262.1719,583.7969 2262.8125,583.9688 Q2263.4688,584.125 2264.0156,584.4844 Z " fill="#000000"/><text fill="#000000" font-family="sans-serif" font-size="14" lengthAdjust="spacing" textLength="91" x="2281.75" y="594.3379">OperationPlan</text><line style="stroke:#181818;stroke-width:0.5;" x1="2203" x2="2419" y1="604.6094" y2="604.6094"/><text fill="#000000" font-family="sans-serif" font-size="14" lengthAdjust="spacing" textLength="150" x="2208" y="623.1426">+operationPlanId: string</text><text fill="#000000" font-family="sans-serif" font-size="14" lengthAdjust="spacing" textLength="113" x="2208" y="640.752">+targetDate: Date</text><text fill="#000000" font-family="sans-serif" font-size="14" lengthAdjust="spacing" textLength="188" x="2208" y="658.3613">+algorithm: PlanningAlgorithm</text><text fill="#000000" font-family="sans-serif" font-size="14" lengthAdjust="spacing" textLength="185" x="2208" y="675.9707">+status: OperationPlanStatus</text><text fill="#000000" font-family="sans-serif" font-size="14" lengthAdjust="spacing" textLength="206" x="2208" y="693.5801">+operations: PlannedOperation[]</text><text fill="#000000" font-family="sans-serif" font-size="14" lengthAdjust="spacing" textLength="144" x="2208" y="711.1895">+auditLog: AuditEntry[]</text><line style="stroke:#181818;stroke-width:0.5;" x1="2203" x2="2419" y1="718.2656" y2="718.2656"/><text fill="#000000" font-family="sans-serif" font-size="14" lengthAdjust="spacing" textLength="125" x="2208" y="736.7988">+constructor(props)</text><text fill="#000000" font-family="sans-serif" font-size="14" lengthAdjust="spacing" textLength="107" x="2208" y="754.4082">+startExecution()</text><text fill="#000000" font-family="sans-serif" font-size="14" lengthAdjust="spacing" textLength="70" x="2208" y="772.0176">+approve()</text></g><!--class VesselVisitExecution--><g id="elem_VesselVisitExecution"><rect codeLine="74" fill="#F1F1F1" height="188.875" id="VesselVisitExecution" rx="2.5" ry="2.5" style="stroke:#181818;stroke-width:0.5;" width="285" x="2455.5" y="581.1094"/><ellipse cx="2529.25" cy="597.1094" fill="#ADD1B2" rx="11" ry="11" style="stroke:#181818;stroke-width:1.0;"/><path d="M2532.0156,592.9844 Q2532.1719,592.7656 2532.3594,592.6563 Q2532.5469,592.5469 2532.7656,592.5469 Q2533.1406,592.5469 2533.375,592.8125 Q2533.6094,593.0625 2533.6094,593.6719 L2533.6094,595.125 Q2533.6094,595.7344 2533.375,596 Q2533.1406,596.2656 2532.7656,596.2656 Q2532.4219,596.2656 2532.2188,596.0625 Q2532.0156,595.875 2531.9063,595.3594 Q2531.8594,595 2531.6719,594.8125 Q2531.3438,594.4375 2530.7344,594.2188 Q2530.125,594 2529.5,594 Q2528.7344,594 2528.0938,594.3281 Q2527.4688,594.6563 2526.9688,595.4063 Q2526.4844,596.1563 2526.4844,597.1875 L2526.4844,598.2813 Q2526.4844,599.5156 2527.375,600.3438 Q2528.2656,601.1563 2529.8594,601.1563 Q2530.7969,601.1563 2531.4531,600.9063 Q2531.8438,600.75 2532.2656,600.3125 Q2532.5313,600.0469 2532.6719,599.9688 Q2532.8281,599.8906 2533.0313,599.8906 Q2533.3594,599.8906 2533.6094,600.1563 Q2533.875,600.4063 2533.875,600.75 Q2533.875,601.0938 2533.5313,601.5 Q2533.0313,602.0781 2532.2344,602.4063 Q2531.1563,602.8594 2529.8594,602.8594 Q2528.3438,602.8594 2527.1406,602.2344 Q2526.1563,601.7344 2525.4688,600.6719 Q2524.7813,599.5938 2524.7813,598.3125 L2524.7813,597.1563 Q2524.7813,595.8281 2525.3906,594.6875 Q2526.0156,593.5313 2527.1094,592.9219 Q2528.2031,592.2969 2529.4375,592.2969 Q2530.1719,592.2969 2530.8125,592.4688 Q2531.4688,592.625 2532.0156,592.9844 Z " fill="#000000"/><text fill="#000000" font-family="sans-serif" font-size="14" lengthAdjust="spacing" textLength="129" x="2549.75" y="602.8379">VesselVisitExecution</text><line style="stroke:#181818;stroke-width:0.5;" x1="2456.5" x2="2739.5" y1="613.1094" y2="613.1094"/><text fill="#000000" font-family="sans-serif" font-size="14" lengthAdjust="spacing" textLength="84" x="2461.5" y="631.6426">+vveId: string</text><text fill="#000000" font-family="sans-serif" font-size="14" lengthAdjust="spacing" textLength="84" x="2461.5" y="649.252">+vvnId: string</text><text fill="#000000" font-family="sans-serif" font-size="14" lengthAdjust="spacing" textLength="150" x="2461.5" y="666.8613">+operationPlanId: string</text><text fill="#000000" font-family="sans-serif" font-size="14" lengthAdjust="spacing" textLength="223" x="2461.5" y="684.4707">+status: VesselVisitExecutionStatus</text><text fill="#000000" font-family="sans-serif" font-size="14" lengthAdjust="spacing" textLength="212" x="2461.5" y="702.0801">+operations: ExecutedOperation[]</text><line style="stroke:#181818;stroke-width:0.5;" x1="2456.5" x2="2739.5" y1="709.1563" y2="709.1563"/><text fill="#000000" font-family="sans-serif" font-size="14" lengthAdjust="spacing" textLength="125" x="2461.5" y="727.6895">+constructor(props)</text><text fill="#000000" font-family="sans-serif" font-size="14" lengthAdjust="spacing" textLength="187" x="2461.5" y="745.2988">+recordBerthing(time, dockId)</text><text fill="#000000" font-family="sans-serif" font-size="14" lengthAdjust="spacing" textLength="273" x="2461.5" y="762.9082">+markAsCompleted(departureTime, userId)</text></g><!--class PlannedOperation--><g id="elem_PlannedOperation"><rect codeLine="85" fill="#F1F1F1" height="164.3594" id="PlannedOperation" rx="2.5" ry="2.5" style="stroke:#181818;stroke-width:0.5;" width="215" x="2203.5" y="856.6094"/><ellipse cx="2249.25" cy="877.9609" fill="#ADD1B2" rx="11" ry="11" style="stroke:#181818;stroke-width:1.0;"/><path d="M2252.0156,873.8359 Q2252.1719,873.6172 2252.3594,873.5078 Q2252.5469,873.3984 2252.7656,873.3984 Q2253.1406,873.3984 2253.375,873.6641 Q2253.6094,873.9141 2253.6094,874.5234 L2253.6094,875.9766 Q2253.6094,876.5859 2253.375,876.8516 Q2253.1406,877.1172 2252.7656,877.1172 Q2252.4219,877.1172 2252.2188,876.9141 Q2252.0156,876.7266 2251.9063,876.2109 Q2251.8594,875.8516 2251.6719,875.6641 Q2251.3438,875.2891 2250.7344,875.0703 Q2250.125,874.8516 2249.5,874.8516 Q2248.7344,874.8516 2248.0938,875.1797 Q2247.4688,875.5078 2246.9688,876.2578 Q2246.4844,877.0078 2246.4844,878.0391 L2246.4844,879.1328 Q2246.4844,880.3672 2247.375,881.1953 Q2248.2656,882.0078 2249.8594,882.0078 Q2250.7969,882.0078 2251.4531,881.7578 Q2251.8438,881.6016 2252.2656,881.1641 Q2252.5313,880.8984 2252.6719,880.8203 Q2252.8281,880.7422 2253.0313,880.7422 Q2253.3594,880.7422 2253.6094,881.0078 Q2253.875,881.2578 2253.875,881.6016 Q2253.875,881.9453 2253.5313,882.3516 Q2253.0313,882.9297 2252.2344,883.2578 Q2251.1563,883.7109 2249.8594,883.7109 Q2248.3438,883.7109 2247.1406,883.0859 Q2246.1563,882.5859 2245.4688,881.5234 Q2244.7813,880.4453 2244.7813,879.1641 L2244.7813,878.0078 Q2244.7813,876.6797 2245.3906,875.5391 Q2246.0156,874.3828 2247.1094,873.7734 Q2248.2031,873.1484 2249.4375,873.1484 Q2250.1719,873.1484 2250.8125,873.3203 Q2251.4688,873.4766 2252.0156,873.8359 Z " fill="#000000"/><text fill="#000000" font-family="sans-serif" font-size="12" font-style="italic" lengthAdjust="spacing" textLength="85" x="2284.75" y="874.0664">&#171;Value Object&#187;</text><text fill="#000000" font-family="sans-serif" font-size="14" lengthAdjust="spacing" textLength="115" x="2269.75" y="891.2363">PlannedOperation</text><line style="stroke:#181818;stroke-width:0.5;" x1="2204.5" x2="2417.5" y1="899.3125" y2="899.3125"/><text fill="#000000" font-family="sans-serif" font-size="14" lengthAdjust="spacing" textLength="84" x="2209.5" y="917.8457">+vvnId: string</text><text fill="#000000" font-family="sans-serif" font-size="14" lengthAdjust="spacing" textLength="203" x="2209.5" y="935.4551">+operationType: OperationType</text><text fill="#000000" font-family="sans-serif" font-size="14" lengthAdjust="spacing" textLength="140" x="2209.5" y="953.0645">+assignedDock: string</text><text fill="#000000" font-family="sans-serif" font-size="14" lengthAdjust="spacing" textLength="162" x="2209.5" y="970.6738">+assignedCranes: string[]</text><text fill="#000000" font-family="sans-serif" font-size="14" lengthAdjust="spacing" textLength="127" x="2209.5" y="988.2832">+plannedStart: Date</text><text fill="#000000" font-family="sans-serif" font-size="14" lengthAdjust="spacing" textLength="122" x="2209.5" y="1005.8926">+plannedEnd: Date</text><line style="stroke:#181818;stroke-width:0.5;" x1="2204.5" x2="2417.5" y1="1012.9688" y2="1012.9688"/></g><!--class ExecutedOperation--><g id="elem_ExecutedOperation"><rect codeLine="94" fill="#F1F1F1" height="146.75" id="ExecutedOperation" rx="2.5" ry="2.5" style="stroke:#181818;stroke-width:0.5;" width="227" x="2484.5" y="865.1094"/><ellipse cx="2533.25" cy="886.4609" fill="#ADD1B2" rx="11" ry="11" style="stroke:#181818;stroke-width:1.0;"/><path d="M2536.0156,882.3359 Q2536.1719,882.1172 2536.3594,882.0078 Q2536.5469,881.8984 2536.7656,881.8984 Q2537.1406,881.8984 2537.375,882.1641 Q2537.6094,882.4141 2537.6094,883.0234 L2537.6094,884.4766 Q2537.6094,885.0859 2537.375,885.3516 Q2537.1406,885.6172 2536.7656,885.6172 Q2536.4219,885.6172 2536.2188,885.4141 Q2536.0156,885.2266 2535.9063,884.7109 Q2535.8594,884.3516 2535.6719,884.1641 Q2535.3438,883.7891 2534.7344,883.5703 Q2534.125,883.3516 2533.5,883.3516 Q2532.7344,883.3516 2532.0938,883.6797 Q2531.4688,884.0078 2530.9688,884.7578 Q2530.4844,885.5078 2530.4844,886.5391 L2530.4844,887.6328 Q2530.4844,888.8672 2531.375,889.6953 Q2532.2656,890.5078 2533.8594,890.5078 Q2534.7969,890.5078 2535.4531,890.2578 Q2535.8438,890.1016 2536.2656,889.6641 Q2536.5313,889.3984 2536.6719,889.3203 Q2536.8281,889.2422 2537.0313,889.2422 Q2537.3594,889.2422 2537.6094,889.5078 Q2537.875,889.7578 2537.875,890.1016 Q2537.875,890.4453 2537.5313,890.8516 Q2537.0313,891.4297 2536.2344,891.7578 Q2535.1563,892.2109 2533.8594,892.2109 Q2532.3438,892.2109 2531.1406,891.5859 Q2530.1563,891.0859 2529.4688,890.0234 Q2528.7813,888.9453 2528.7813,887.6641 L2528.7813,886.5078 Q2528.7813,885.1797 2529.3906,884.0391 Q2530.0156,882.8828 2531.1094,882.2734 Q2532.2031,881.6484 2533.4375,881.6484 Q2534.1719,881.6484 2534.8125,881.8203 Q2535.4688,881.9766 2536.0156,882.3359 Z " fill="#000000"/><text fill="#000000" font-family="sans-serif" font-size="12" font-style="italic" lengthAdjust="spacing" textLength="85" x="2571.75" y="882.5664">&#171;Value Object&#187;</text><text fill="#000000" font-family="sans-serif" font-size="14" lengthAdjust="spacing" textLength="121" x="2553.75" y="899.7363">ExecutedOperation</text><line style="stroke:#181818;stroke-width:0.5;" x1="2485.5" x2="2710.5" y1="907.8125" y2="907.8125"/><text fill="#000000" font-family="sans-serif" font-size="14" lengthAdjust="spacing" textLength="203" x="2490.5" y="926.3457">+operationType: OperationType</text><text fill="#000000" font-family="sans-serif" font-size="14" lengthAdjust="spacing" textLength="105" x="2490.5" y="943.9551">+startTime: Date</text><text fill="#000000" font-family="sans-serif" font-size="14" lengthAdjust="spacing" textLength="101" x="2490.5" y="961.5645">+endTime: Date</text><text fill="#000000" font-family="sans-serif" font-size="14" lengthAdjust="spacing" textLength="215" x="2490.5" y="979.1738">+status: ExecutedOperationStatus</text><text fill="#000000" font-family="sans-serif" font-size="14" lengthAdjust="spacing" textLength="176" x="2490.5" y="996.7832">+plannedOperationId: string</text><line style="stroke:#181818;stroke-width:0.5;" x1="2485.5" x2="2710.5" y1="1003.8594" y2="1003.8594"/></g><!--class IOperationPlanRepository--><g id="elem_IOperationPlanRepository"><rect codeLine="102" fill="#F1F1F1" height="118.4375" id="IOperationPlanRepository" rx="2.5" ry="2.5" style="stroke:#181818;stroke-width:0.5;" width="268" x="1590" y="616.6094"/><ellipse cx="1638.25" cy="632.6094" fill="#B4A7E5" rx="11" ry="11" style="stroke:#181818;stroke-width:1.0;"/><path d="M1639.2031,629.25 L1639.2031,635.9063 L1640.9219,635.9063 Q1641.5313,635.9063 1641.7969,636.1406 Q1642.0625,636.375 1642.0625,636.7656 Q1642.0625,637.1406 1641.7969,637.375 Q1641.5313,637.6094 1640.9219,637.6094 L1635.7813,637.6094 Q1635.1719,637.6094 1634.9063,637.375 Q1634.6406,637.1406 1634.6406,636.75 Q1634.6406,636.375 1634.9063,636.1406 Q1635.1719,635.9063 1635.7813,635.9063 L1637.5,635.9063 L1637.5,629.25 L1635.7813,629.25 Q1635.1719,629.25 1634.9063,629.0156 Q1634.6406,628.7813 1634.6406,628.3906 Q1634.6406,628.0156 1634.9063,627.7813 Q1635.1719,627.5469 1635.7813,627.5469 L1640.9219,627.5469 Q1641.5313,627.5469 1641.7969,627.7813 Q1642.0625,628.0156 1642.0625,628.3906 Q1642.0625,628.7813 1641.7969,629.0156 Q1641.5313,629.25 1640.9219,629.25 L1639.2031,629.25 Z " fill="#000000"/><text fill="#000000" font-family="sans-serif" font-size="14" font-style="italic" lengthAdjust="spacing" textLength="163" x="1658.75" y="638.3379">IOperationPlanRepository</text><line style="stroke:#181818;stroke-width:0.5;" x1="1591" x2="1857" y1="648.6094" y2="648.6094"/><line style="stroke:#181818;stroke-width:0.5;" x1="1591" x2="1857" y1="656.6094" y2="656.6094"/><text fill="#000000" font-family="sans-serif" font-size="14" lengthAdjust="spacing" textLength="174" x="1596" y="675.1426">+save(plan): OperationPlan</text><text fill="#000000" font-family="sans-serif" font-size="14" lengthAdjust="spacing" textLength="178" x="1596" y="692.752">+findById(id): OperationPlan</text><text fill="#000000" font-family="sans-serif" font-size="14" lengthAdjust="spacing" textLength="256" x="1596" y="710.3613">+findByTargetDate(date): OperationPlan</text><text fill="#000000" font-family="sans-serif" font-size="14" lengthAdjust="spacing" textLength="188" x="1596" y="727.9707">+update(plan): OperationPlan</text></g><!--class IVesselVisitExecutionRepository--><g id="elem_IVesselVisitExecutionRepository"><rect codeLine="109" fill="#F1F1F1" height="118.4375" id="IVesselVisitExecutionRepository" rx="2.5" ry="2.5" style="stroke:#181818;stroke-width:0.5;" width="274" x="1893" y="616.6094"/><ellipse cx="1926.45" cy="632.6094" fill="#B4A7E5" rx="11" ry="11" style="stroke:#181818;stroke-width:1.0;"/><path d="M1927.4031,629.25 L1927.4031,635.9063 L1929.1219,635.9063 Q1929.7313,635.9063 1929.9969,636.1406 Q1930.2625,636.375 1930.2625,636.7656 Q1930.2625,637.1406 1929.9969,637.375 Q1929.7313,637.6094 1929.1219,637.6094 L1923.9813,637.6094 Q1923.3719,637.6094 1923.1063,637.375 Q1922.8406,637.1406 1922.8406,636.75 Q1922.8406,636.375 1923.1063,636.1406 Q1923.3719,635.9063 1923.9813,635.9063 L1925.7,635.9063 L1925.7,629.25 L1923.9813,629.25 Q1923.3719,629.25 1923.1063,629.0156 Q1922.8406,628.7813 1922.8406,628.3906 Q1922.8406,628.0156 1923.1063,627.7813 Q1923.3719,627.5469 1923.9813,627.5469 L1929.1219,627.5469 Q1929.7313,627.5469 1929.9969,627.7813 Q1930.2625,628.0156 1930.2625,628.3906 Q1930.2625,628.7813 1929.9969,629.0156 Q1929.7313,629.25 1929.1219,629.25 L1927.4031,629.25 Z " fill="#000000"/><text fill="#000000" font-family="sans-serif" font-size="14" font-style="italic" lengthAdjust="spacing" textLength="201" x="1944.55" y="638.3379">IVesselVisitExecutionRepository</text><line style="stroke:#181818;stroke-width:0.5;" x1="1894" x2="2166" y1="648.6094" y2="648.6094"/><line style="stroke:#181818;stroke-width:0.5;" x1="1894" x2="2166" y1="656.6094" y2="656.6094"/><text fill="#000000" font-family="sans-serif" font-size="14" lengthAdjust="spacing" textLength="207" x="1899" y="675.1426">+save(vve): VesselVisitExecution</text><text fill="#000000" font-family="sans-serif" font-size="14" lengthAdjust="spacing" textLength="216" x="1899" y="692.752">+findById(id): VesselVisitExecution</text><text fill="#000000" font-family="sans-serif" font-size="14" lengthAdjust="spacing" textLength="262" x="1899" y="710.3613">+findByVvnId(vvnId): VesselVisitExecution</text><text fill="#000000" font-family="sans-serif" font-size="14" lengthAdjust="spacing" textLength="221" x="1899" y="727.9707">+update(vve): VesselVisitExecution</text></g><!--class OperationPlanRepository--><g id="elem_OperationPlanRepository"><rect codeLine="118" fill="#F1F1F1" height="100.8281" id="OperationPlanRepository" rx="2.5" ry="2.5" style="stroke:#181818;stroke-width:0.5;" width="268" x="726" y="888.1094"/><ellipse cx="776.25" cy="904.1094" fill="#ADD1B2" rx="11" ry="11" style="stroke:#181818;stroke-width:1.0;"/><path d="M779.0156,899.9844 Q779.1719,899.7656 779.3594,899.6563 Q779.5469,899.5469 779.7656,899.5469 Q780.1406,899.5469 780.375,899.8125 Q780.6094,900.0625 780.6094,900.6719 L780.6094,902.125 Q780.6094,902.7344 780.375,903 Q780.1406,903.2656 779.7656,903.2656 Q779.4219,903.2656 779.2188,903.0625 Q779.0156,902.875 778.9063,902.3594 Q778.8594,902 778.6719,901.8125 Q778.3438,901.4375 777.7344,901.2188 Q777.125,901 776.5,901 Q775.7344,901 775.0938,901.3281 Q774.4688,901.6563 773.9688,902.4063 Q773.4844,903.1563 773.4844,904.1875 L773.4844,905.2813 Q773.4844,906.5156 774.375,907.3438 Q775.2656,908.1563 776.8594,908.1563 Q777.7969,908.1563 778.4531,907.9063 Q778.8438,907.75 779.2656,907.3125 Q779.5313,907.0469 779.6719,906.9688 Q779.8281,906.8906 780.0313,906.8906 Q780.3594,906.8906 780.6094,907.1563 Q780.875,907.4063 780.875,907.75 Q780.875,908.0938 780.5313,908.5 Q780.0313,909.0781 779.2344,909.4063 Q778.1563,909.8594 776.8594,909.8594 Q775.3438,909.8594 774.1406,909.2344 Q773.1563,908.7344 772.4688,907.6719 Q771.7813,906.5938 771.7813,905.3125 L771.7813,904.1563 Q771.7813,902.8281 772.3906,901.6875 Q773.0156,900.5313 774.1094,899.9219 Q775.2031,899.2969 776.4375,899.2969 Q777.1719,899.2969 777.8125,899.4688 Q778.4688,899.625 779.0156,899.9844 Z " fill="#000000"/><text fill="#000000" font-family="sans-serif" font-size="14" lengthAdjust="spacing" textLength="159" x="796.75" y="909.8379">OperationPlanRepository</text><line style="stroke:#181818;stroke-width:0.5;" x1="727" x2="993" y1="920.1094" y2="920.1094"/><text fill="#000000" font-family="sans-serif" font-size="14" lengthAdjust="spacing" textLength="155" x="732" y="938.6426">-model: MongooseModel</text><line style="stroke:#181818;stroke-width:0.5;" x1="727" x2="993" y1="945.7188" y2="945.7188"/><text fill="#000000" font-family="sans-serif" font-size="14" lengthAdjust="spacing" textLength="174" x="732" y="964.252">+save(plan): OperationPlan</text><text fill="#000000" font-family="sans-serif" font-size="14" lengthAdjust="spacing" textLength="256" x="732" y="981.8613">+findByTargetDate(date): OperationPlan</text></g><!--class VesselVisitExecutionRepository--><g id="elem_VesselVisitExecutionRepository"><rect codeLine="124" fill="#F1F1F1" height="118.4375" id="VesselVisitExecutionRepository" rx="2.5" ry="2.5" style="stroke:#181818;stroke-width:0.5;" width="274" x="1029" y="879.6094"/><ellipse cx="1064.25" cy="895.6094" fill="#ADD1B2" rx="11" ry="11" style="stroke:#181818;stroke-width:1.0;"/><path d="M1067.0156,891.4844 Q1067.1719,891.2656 1067.3594,891.1563 Q1067.5469,891.0469 1067.7656,891.0469 Q1068.1406,891.0469 1068.375,891.3125 Q1068.6094,891.5625 1068.6094,892.1719 L1068.6094,893.625 Q1068.6094,894.2344 1068.375,894.5 Q1068.1406,894.7656 1067.7656,894.7656 Q1067.4219,894.7656 1067.2188,894.5625 Q1067.0156,894.375 1066.9063,893.8594 Q1066.8594,893.5 1066.6719,893.3125 Q1066.3438,892.9375 1065.7344,892.7188 Q1065.125,892.5 1064.5,892.5 Q1063.7344,892.5 1063.0938,892.8281 Q1062.4688,893.1563 1061.9688,893.9063 Q1061.4844,894.6563 1061.4844,895.6875 L1061.4844,896.7813 Q1061.4844,898.0156 1062.375,898.8438 Q1063.2656,899.6563 1064.8594,899.6563 Q1065.7969,899.6563 1066.4531,899.4063 Q1066.8438,899.25 1067.2656,898.8125 Q1067.5313,898.5469 1067.6719,898.4688 Q1067.8281,898.3906 1068.0313,898.3906 Q1068.3594,898.3906 1068.6094,898.6563 Q1068.875,898.9063 1068.875,899.25 Q1068.875,899.5938 1068.5313,900 Q1068.0313,900.5781 1067.2344,900.9063 Q1066.1563,901.3594 1064.8594,901.3594 Q1063.3438,901.3594 1062.1406,900.7344 Q1061.1563,900.2344 1060.4688,899.1719 Q1059.7813,898.0938 1059.7813,896.8125 L1059.7813,895.6563 Q1059.7813,894.3281 1060.3906,893.1875 Q1061.0156,892.0313 1062.1094,891.4219 Q1063.2031,890.7969 1064.4375,890.7969 Q1065.1719,890.7969 1065.8125,890.9688 Q1066.4688,891.125 1067.0156,891.4844 Z " fill="#000000"/><text fill="#000000" font-family="sans-serif" font-size="14" lengthAdjust="spacing" textLength="197" x="1082.75" y="901.3379">VesselVisitExecutionRepository</text><line style="stroke:#181818;stroke-width:0.5;" x1="1030" x2="1302" y1="911.6094" y2="911.6094"/><text fill="#000000" font-family="sans-serif" font-size="14" lengthAdjust="spacing" textLength="155" x="1035" y="930.1426">-model: MongooseModel</text><line style="stroke:#181818;stroke-width:0.5;" x1="1030" x2="1302" y1="937.2188" y2="937.2188"/><text fill="#000000" font-family="sans-serif" font-size="14" lengthAdjust="spacing" textLength="207" x="1035" y="955.752">+save(vve): VesselVisitExecution</text><text fill="#000000" font-family="sans-serif" font-size="14" lengthAdjust="spacing" textLength="262" x="1035" y="973.3613">+findByVvnId(vvnId): VesselVisitExecution</text><text fill="#000000" font-family="sans-serif" font-size="14" lengthAdjust="spacing" textLength="237" x="1035" y="990.9707">+getNextSequentialNumber(): number</text></g><!--class CoreBackendClient--><g id="elem_CoreBackendClient"><rect codeLine="131" fill="#F1F1F1" height="100.8281" id="CoreBackendClient" rx="2.5" ry="2.5" style="stroke:#181818;stroke-width:0.5;" width="284" x="407" y="888.1094"/><ellipse cx="483.75" cy="904.1094" fill="#ADD1B2" rx="11" ry="11" style="stroke:#181818;stroke-width:1.0;"/><path d="M486.5156,899.9844 Q486.6719,899.7656 486.8594,899.6563 Q487.0469,899.5469 487.2656,899.5469 Q487.6406,899.5469 487.875,899.8125 Q488.1094,900.0625 488.1094,900.6719 L488.1094,902.125 Q488.1094,902.7344 487.875,903 Q487.6406,903.2656 487.2656,903.2656 Q486.9219,903.2656 486.7188,903.0625 Q486.5156,902.875 486.4063,902.3594 Q486.3594,902 486.1719,901.8125 Q485.8438,901.4375 485.2344,901.2188 Q484.625,901 484,901 Q483.2344,901 482.5938,901.3281 Q481.9688,901.6563 481.4688,902.4063 Q480.9844,903.1563 480.9844,904.1875 L480.9844,905.2813 Q480.9844,906.5156 481.875,907.3438 Q482.7656,908.1563 484.3594,908.1563 Q485.2969,908.1563 485.9531,907.9063 Q486.3438,907.75 486.7656,907.3125 Q487.0313,907.0469 487.1719,906.9688 Q487.3281,906.8906 487.5313,906.8906 Q487.8594,906.8906 488.1094,907.1563 Q488.375,907.4063 488.375,907.75 Q488.375,908.0938 488.0313,908.5 Q487.5313,909.0781 486.7344,909.4063 Q485.6563,909.8594 484.3594,909.8594 Q482.8438,909.8594 481.6406,909.2344 Q480.6563,908.7344 479.9688,907.6719 Q479.2813,906.5938 479.2813,905.3125 L479.2813,904.1563 Q479.2813,902.8281 479.8906,901.6875 Q480.5156,900.5313 481.6094,899.9219 Q482.7031,899.2969 483.9375,899.2969 Q484.6719,899.2969 485.3125,899.4688 Q485.9688,899.625 486.5156,899.9844 Z " fill="#000000"/><text fill="#000000" font-family="sans-serif" font-size="14" lengthAdjust="spacing" textLength="122" x="504.25" y="909.8379">CoreBackendClient</text><line style="stroke:#181818;stroke-width:0.5;" x1="408" x2="690" y1="920.1094" y2="920.1094"/><text fill="#000000" font-family="sans-serif" font-size="14" lengthAdjust="spacing" textLength="96" x="413" y="938.6426">-baseUrl: string</text><text fill="#000000" font-family="sans-serif" font-size="14" lengthAdjust="spacing" textLength="159" x="413" y="956.252">-httpClient: AxiosInstance</text><line style="stroke:#181818;stroke-width:0.5;" x1="408" x2="690" y1="963.3281" y2="963.3281"/><text fill="#000000" font-family="sans-serif" font-size="14" lengthAdjust="spacing" textLength="272" x="413" y="981.8613">+getApprovedVvnsForDate(date): VvnDto[]</text></g><!--class PlanningClient--><g id="elem_PlanningClient"><rect codeLine="137" fill="#F1F1F1" height="100.8281" id="PlanningClient" rx="2.5" ry="2.5" style="stroke:#181818;stroke-width:0.5;" width="349" x="22.5" y="888.1094"/><ellipse cx="147.25" cy="904.1094" fill="#ADD1B2" rx="11" ry="11" style="stroke:#181818;stroke-width:1.0;"/><path d="M150.0156,899.9844 Q150.1719,899.7656 150.3594,899.6563 Q150.5469,899.5469 150.7656,899.5469 Q151.1406,899.5469 151.375,899.8125 Q151.6094,900.0625 151.6094,900.6719 L151.6094,902.125 Q151.6094,902.7344 151.375,903 Q151.1406,903.2656 150.7656,903.2656 Q150.4219,903.2656 150.2188,903.0625 Q150.0156,902.875 149.9063,902.3594 Q149.8594,902 149.6719,901.8125 Q149.3438,901.4375 148.7344,901.2188 Q148.125,901 147.5,901 Q146.7344,901 146.0938,901.3281 Q145.4688,901.6563 144.9688,902.4063 Q144.4844,903.1563 144.4844,904.1875 L144.4844,905.2813 Q144.4844,906.5156 145.375,907.3438 Q146.2656,908.1563 147.8594,908.1563 Q148.7969,908.1563 149.4531,907.9063 Q149.8438,907.75 150.2656,907.3125 Q150.5313,907.0469 150.6719,906.9688 Q150.8281,906.8906 151.0313,906.8906 Q151.3594,906.8906 151.6094,907.1563 Q151.875,907.4063 151.875,907.75 Q151.875,908.0938 151.5313,908.5 Q151.0313,909.0781 150.2344,909.4063 Q149.1563,909.8594 147.8594,909.8594 Q146.3438,909.8594 145.1406,909.2344 Q144.1563,908.7344 143.4688,907.6719 Q142.7813,906.5938 142.7813,905.3125 L142.7813,904.1563 Q142.7813,902.8281 143.3906,901.6875 Q144.0156,900.5313 145.1094,899.9219 Q146.2031,899.2969 147.4375,899.2969 Q148.1719,899.2969 148.8125,899.4688 Q149.4688,899.625 150.0156,899.9844 Z " fill="#000000"/><text fill="#000000" font-family="sans-serif" font-size="14" lengthAdjust="spacing" textLength="91" x="167.75" y="909.8379">PlanningClient</text><line style="stroke:#181818;stroke-width:0.5;" x1="23.5" x2="370.5" y1="920.1094" y2="920.1094"/><text fill="#000000" font-family="sans-serif" font-size="14" lengthAdjust="spacing" textLength="96" x="28.5" y="938.6426">-baseUrl: string</text><text fill="#000000" font-family="sans-serif" font-size="14" lengthAdjust="spacing" textLength="159" x="28.5" y="956.252">-httpClient: AxiosInstance</text><line style="stroke:#181818;stroke-width:0.5;" x1="23.5" x2="370.5" y1="963.3281" y2="963.3281"/><text fill="#000000" font-family="sans-serif" font-size="14" lengthAdjust="spacing" textLength="337" x="28.5" y="981.8613">+generatePlan(date, algorithm, vvns): PlanningResult</text></g><g id="elem_GMN39"><path d="M1569,366.1094 L1569,425.1641 L1825,425.1641 L1825,376.1094 L1815,366.1094 L1569,366.1094 " fill="#FEFFDD" style="stroke:#181818;stroke-width:0.5;"/><path d="M1815,366.1094 L1815,376.1094 L1825,376.1094 L1815,366.1094 " fill="#FEFFDD" style="stroke:#181818;stroke-width:1.0;"/><text fill="#000000" font-family="sans-serif" font-size="13" font-weight="bold" lengthAdjust="spacing" textLength="202" x="1575" y="384.6045">Dependency Inversion Principle</text><text fill="#000000" font-family="sans-serif" font-size="13" lengthAdjust="spacing" textLength="167" x="1575" y="400.9561">Application layer depends on</text><text fill="#000000" font-family="sans-serif" font-size="13" lengthAdjust="spacing" textLength="235" x="1575" y="417.3076">interfaces, not concrete implementations</text></g><g id="elem_GMN42"><path d="M1338,901.1094 L1338,976.5156 L1558,976.5156 L1558,911.1094 L1548,901.1094 L1338,901.1094 " fill="#FEFFDD" style="stroke:#181818;stroke-width:0.5;"/><path d="M1548,901.1094 L1548,911.1094 L1558,911.1094 L1548,901.1094 " fill="#FEFFDD" style="stroke:#181818;stroke-width:1.0;"/><text fill="#000000" font-family="sans-serif" font-size="13" font-weight="bold" lengthAdjust="spacing" textLength="199" x="1344" y="919.6045">Domain Entity (Aggregate Root)</text><text fill="#000000" font-family="sans-serif" font-size="13" lengthAdjust="spacing" textLength="176" x="1344" y="935.9561">&#8226; Encapsulates business rules</text><text fill="#000000" font-family="sans-serif" font-size="13" lengthAdjust="spacing" textLength="121" x="1344" y="952.3076">&#8226; Validates invariants</text><text fill="#000000" font-family="sans-serif" font-size="13" lengthAdjust="spacing" textLength="147" x="1344" y="968.6592">&#8226; Framework-independent</text></g><!--link OperationPlanController to OperationPlanService--><g id="link_OperationPlanController_OperationPlanService"><path codeLine="145" d="M1010.51,216.8794 C1001.39,248.3294 992.1708,280.1567 982.7508,312.6467 " fill="none" id="OperationPlanController-to-OperationPlanService" style="stroke:#181818;stroke-width:1.0;"/><polygon fill="#181818" points="981.08,318.4094,987.428,310.8792,982.4723,313.6071,979.7444,308.6515,981.08,318.4094" style="stroke:#181818;stroke-width:1.0;"/><text fill="#000000" font-family="sans-serif" font-size="13" lengthAdjust="spacing" textLength="28" x="1001" y="263.1045">uses</text></g><!--link VesselVisitExecutionController to VesselVisitExecutionService--><g id="link_VesselVisitExecutionController_VesselVisitExecutionService"><path codeLine="146" d="M1330.81,216.8794 C1336.85,251.2994 1343.1424,287.1798 1349.1824,321.5798 " fill="none" id="VesselVisitExecutionController-to-VesselVisitExecutionService" style="stroke:#181818;stroke-width:1.0;"/><polygon fill="#181818" points="1350.22,327.4894,1352.6033,317.9332,1349.3553,322.5647,1344.7238,319.3167,1350.22,327.4894" style="stroke:#181818;stroke-width:1.0;"/><text fill="#000000" font-family="sans-serif" font-size="13" lengthAdjust="spacing" textLength="28" x="1340" y="263.1045">uses</text></g><!--link OperationPlanService to IOperationPlanRepository--><g id="link_OperationPlanService_IOperationPlanRepository"><path codeLine="148" d="M1155.66,467.9394 C1161.48,469.5694 1167.27,471.1294 1173,472.6094 C1300.36,505.4094 1334.56,503.7694 1465,520.6094 C1502.63,525.4694 1514.99,513.9694 1550,528.6094 C1596.75,548.1594 1636.156,580.6281 1668.046,612.3481 " fill="none" id="OperationPlanService-to-IOperationPlanRepository" style="stroke:#181818;stroke-width:1.0;"/><polygon fill="#181818" points="1672.3,616.5794,1668.7399,607.3965,1668.755,613.0533,1663.0982,613.0684,1672.3,616.5794" style="stroke:#181818;stroke-width:1.0;"/><text fill="#000000" font-family="sans-serif" font-size="13" lengthAdjust="spacing" textLength="100" x="1466" y="517.1045">depends on (DIP)</text></g><!--link OperationPlanService to ICoreBackendClient--><g id="link_OperationPlanService_ICoreBackendClient"><path codeLine="149" d="M1059.83,472.7794 C1082.84,490.7494 1106.99,510.0794 1129,528.6094 C1173.87,566.3994 1219.1081,608.2295 1251.0081,638.3595 " fill="none" id="OperationPlanService-to-ICoreBackendClient" style="stroke:#181818;stroke-width:1.0;"/><polygon fill="#181818" points="1255.37,642.4794,1251.5737,633.3916,1251.7351,639.0461,1246.0805,639.2075,1255.37,642.4794" style="stroke:#181818;stroke-width:1.0;"/><text fill="#000000" font-family="sans-serif" font-size="13" lengthAdjust="spacing" textLength="100" x="1116" y="517.1045">depends on (DIP)</text></g><!--link OperationPlanService to IPlanningClient--><g id="link_OperationPlanService_IPlanningClient"><path codeLine="150" d="M952.96,472.9394 C948.56,528.5594 943.2933,595.1181 940.0333,636.3181 " fill="none" id="OperationPlanService-to-IPlanningClient" style="stroke:#181818;stroke-width:1.0;"/><polygon fill="#181818" points="939.56,642.2994,944.2575,633.6429,939.9544,637.315,936.2824,633.0119,939.56,642.2994" style="stroke:#181818;stroke-width:1.0;"/><text fill="#000000" font-family="sans-serif" font-size="13" lengthAdjust="spacing" textLength="100" x="950" y="517.1045">depends on (DIP)</text></g><!--link VesselVisitExecutionService to IVesselVisitExecutionRepository--><g id="link_VesselVisitExecutionService_IVesselVisitExecutionRepository"><path codeLine="151" d="M1522.9,463.6294 C1532.68,466.8794 1542.43,469.8994 1552,472.6094 C1692.61,512.4094 1745.38,463.0894 1876,528.6094 C1917.66,549.5094 1951.7357,580.9401 1979.6157,611.9101 " fill="none" id="VesselVisitExecutionService-to-IVesselVisitExecutionRepository" style="stroke:#181818;stroke-width:1.0;"/><polygon fill="#181818" points="1983.63,616.3694,1980.5813,607.0042,1980.2847,612.6533,1974.6356,612.3567,1983.63,616.3694" style="stroke:#181818;stroke-width:1.0;"/><text fill="#000000" font-family="sans-serif" font-size="13" lengthAdjust="spacing" textLength="100" x="1854" y="517.1045">depends on (DIP)</text></g><!--link VesselVisitExecutionService to IOperationPlanRepository--><g id="link_VesselVisitExecutionService_IOperationPlanRepository"><path codeLine="152" d="M1515.41,463.6694 C1536.24,475.3994 1556.72,488.4394 1575,502.6094 C1616.69,534.9194 1651.778,575.5412 1679.298,611.5712 " fill="none" id="VesselVisitExecutionService-to-IOperationPlanRepository" style="stroke:#181818;stroke-width:1.0;"/><polygon fill="#181818" points="1682.94,616.3394,1680.6558,606.7591,1679.905,612.3659,1674.2982,611.6151,1682.94,616.3394" style="stroke:#181818;stroke-width:1.0;"/><text fill="#000000" font-family="sans-serif" font-size="13" lengthAdjust="spacing" textLength="100" x="1594" y="517.1045">depends on (DIP)</text></g><!--link OperationPlanService to OperationPlan--><g id="link_OperationPlanService_OperationPlan"><path codeLine="154" d="M1155.73,468.9594 C1161.53,470.2894 1167.29,471.5094 1173,472.6094 C1394.2,515.0594 1986.03,423.0694 2185,528.6094 C2205.56,539.5094 2220.1052,550.9116 2236.4152,568.0616 " fill="none" id="OperationPlanService-to-OperationPlan" style="stroke:#181818;stroke-width:1.0;stroke-dasharray:7.0,7.0;"/><polygon fill="#181818" points="2240.55,572.4094,2237.2463,563.1312,2237.1043,568.7862,2231.4492,568.6443,2240.55,572.4094" style="stroke:#181818;stroke-width:1.0;"/><text fill="#000000" font-family="sans-serif" font-size="13" lengthAdjust="spacing" textLength="43" x="2160" y="517.1045">creates</text></g><!--link VesselVisitExecutionService to VesselVisitExecution--><g id="link_VesselVisitExecutionService_VesselVisitExecution"><path codeLine="155" d="M1517.51,463.6194 C1529.05,467.0994 1540.62,470.1594 1552,472.6094 C1744.87,514.0794 2259.33,444.9694 2438,528.6094 C2465.42,541.4394 2486.9323,556.6456 2509.6923,576.9456 " fill="none" id="VesselVisitExecutionService-to-VesselVisitExecution" style="stroke:#181818;stroke-width:1.0;stroke-dasharray:7.0,7.0;"/><polygon fill="#181818" points="2514.17,580.9394,2510.1159,571.9636,2510.4386,577.6113,2504.7909,577.9339,2514.17,580.9394" style="stroke:#181818;stroke-width:1.0;"/><text fill="#000000" font-family="sans-serif" font-size="13" lengthAdjust="spacing" textLength="43" x="2415" y="517.1045">creates</text></g><!--reverse link OperationPlan to PlannedOperation--><g id="link_OperationPlan_PlannedOperation"><path codeLine="157" d="M2311,790.6394 C2311,816.3794 2311,831.6594 2311,856.2294 " fill="none" id="OperationPlan-backto-PlannedOperation" style="stroke:#181818;stroke-width:1.0;"/><polygon fill="none" points="2311,778.6394,2307,784.6394,2311,790.6394,2315,784.6394,2311,778.6394" style="stroke:#181818;stroke-width:1.0;"/><text fill="#000000" font-family="sans-serif" font-size="13" lengthAdjust="spacing" textLength="49" x="2312" y="823.1045">contains</text><text fill="#000000" font-family="sans-serif" font-size="13" lengthAdjust="spacing" textLength="7" x="2303.732" y="800.6301">1</text><text fill="#000000" font-family="sans-serif" font-size="13" lengthAdjust="spacing" textLength="5" x="2305.7773" y="845.6747">*</text></g><!--reverse link VesselVisitExecution to ExecutedOperation--><g id="link_VesselVisitExecution_ExecutedOperation"><path codeLine="158" d="M2598,782.4694 C2598,813.5994 2598,835.7494 2598,865.0294 " fill="none" id="VesselVisitExecution-backto-ExecutedOperation" style="stroke:#181818;stroke-width:1.0;"/><polygon fill="none" points="2598,770.4694,2594,776.4694,2598,782.4694,2602,776.4694,2598,770.4694" style="stroke:#181818;stroke-width:1.0;"/><text fill="#000000" font-family="sans-serif" font-size="13" lengthAdjust="spacing" textLength="49" x="2599" y="823.1045">contains</text><text fill="#000000" font-family="sans-serif" font-size="13" lengthAdjust="spacing" textLength="7" x="2590.743" y="791.5358">1</text><text fill="#000000" font-family="sans-serif" font-size="13" lengthAdjust="spacing" textLength="5" x="2592.7422" y="854.1426">*</text></g><!--reverse link IOperationPlanRepository to OperationPlanRepository--><g id="link_IOperationPlanRepository_OperationPlanRepository"><path codeLine="160" d="M1626.277,744.1162 C1598.397,761.0562 1581.66,768.3894 1550,778.6094 C1321.18,852.4794 1237.35,751.7394 1012,835.6094 C979.09,847.8594 946.27,868.5394 919.59,888.0894 " fill="none" id="IOperationPlanRepository-backto-OperationPlanRepository" style="stroke:#181818;stroke-width:1.0;stroke-dasharray:7.0,7.0;"/><polygon fill="none" points="1641.66,734.7694,1623.1614,738.9885,1629.3926,749.2438,1641.66,734.7694" style="stroke:#181818;stroke-width:1.0;"/><text fill="#000000" font-family="sans-serif" font-size="13" lengthAdjust="spacing" textLength="67" x="1100" y="823.1045">implements</text></g><!--reverse link IVesselVisitExecutionRepository to VesselVisitExecutionRepository--><g id="link_IVesselVisitExecutionRepository_VesselVisitExecutionRepository"><path codeLine="161" d="M1943.5946,744.9521 C1918.8846,762.0021 1904.92,768.5294 1876,778.6094 C1728.57,829.9794 1681.21,791.7494 1526,808.6094 C1434.64,818.5394 1407.12,803.5394 1321,835.6094 C1292.62,846.1794 1264.19,862.7394 1239.56,879.4594 " fill="none" id="IVesselVisitExecutionRepository-backto-VesselVisitExecutionRepository" style="stroke:#181818;stroke-width:1.0;stroke-dasharray:7.0,7.0;"/><polygon fill="none" points="1958.41,734.7294,1940.187,740.0136,1947.0022,749.8905,1958.41,734.7294" style="stroke:#181818;stroke-width:1.0;"/><text fill="#000000" font-family="sans-serif" font-size="13" lengthAdjust="spacing" textLength="67" x="1527" y="823.1045">implements</text></g><!--reverse link ICoreBackendClient to CoreBackendClient--><g id="link_ICoreBackendClient_CoreBackendClient"><path codeLine="162" d="M1235.1347,719.5754 C1204.2347,742.9054 1173.54,762.2894 1129,778.6094 C952.12,843.4194 885.88,770.7994 709,835.6094 C674.98,848.0794 640.65,868.6594 612.56,888.0894 " fill="none" id="ICoreBackendClient-backto-CoreBackendClient" style="stroke:#181818;stroke-width:1.0;stroke-dasharray:7.0,7.0;"/><polygon fill="none" points="1249.5,708.7294,1231.5193,714.787,1238.75,724.3639,1249.5,708.7294" style="stroke:#181818;stroke-width:1.0;"/><text fill="#000000" font-family="sans-serif" font-size="13" lengthAdjust="spacing" textLength="67" x="821" y="823.1045">implements</text></g><!--reverse link IPlanningClient to PlanningClient--><g id="link_IPlanningClient_PlanningClient"><path codeLine="163" d="M780.6305,713.0072 C668.4705,740.8572 525.1,780.9394 390,835.6094 C353.46,850.3994 314.76,869.9994 281.68,888.0694 " fill="none" id="IPlanningClient-backto-PlanningClient" style="stroke:#181818;stroke-width:1.0;stroke-dasharray:7.0,7.0;"/><polygon fill="none" points="798.1,708.6694,779.1846,707.184,782.0764,718.8303,798.1,708.6694" style="stroke:#181818;stroke-width:1.0;"/><text fill="#000000" font-family="sans-serif" font-size="13" lengthAdjust="spacing" textLength="67" x="448" y="823.1045">implements</text></g><!--link OperationPlanService to GMN39--><g id="link_OperationPlanService_GMN39"><path d="M1061.3,318.5394 C1099.75,294.0494 1145.16,270.0994 1190.5,257.6094 C1227.14,247.5194 1496.79,244.6194 1532.5,257.6094 C1591.7,279.1494 1644.43,332.3894 1673.43,366.0894 " fill="none" id="OperationPlanService-GMN39" style="stroke:#181818;stroke-width:1.0;stroke-dasharray:7.0,7.0;"/></g><!--link OperationPlan to GMN42--><g id="link_OperationPlan_GMN42"><path d="M2201.62,770.8294 C2196.16,773.7094 2190.6,776.3294 2185,778.6094 C1932.41,881.4894 1826.59,732.7294 1574,835.6094 C1538.55,850.0494 1505.21,877.9294 1481.73,900.8994 " fill="none" id="OperationPlan-GMN42" style="stroke:#181818;stroke-width:1.0;stroke-dasharray:7.0,7.0;"/></g><!--SRC=[dLZTRYet4BxVfx2uwP83g95wXQ9K11A9wYH18U6cweLP3ukRnTvZUycXfv7wB7sqFad7-mFxloGNIS0puvdvvjSnt0H0fZCo92zByileSdH97c_loRra4H8cojjo0vw9511t6b2joOnJNz5Ttt7qAnSXnS_4ivI9COgl8mDpJueb_ml8ppaMlQLCld7XamqDD3XEIBrNwWFfBHHe48OQBWNvIW-WUkI7Gv9BoMC8AYOj0YgcKXWbWm1Kp478K8FQSm_6HRvbSXgpVF51M19OWglWsu2WmW4HyDtq4uw0QsEfkfxiGqozESnPFKCKChn_9htNYTRS5pjqfuRp7N-EVgr0QmXMN7Dp-nsyo9hUubuTUy5BBhZXD43OxvJSDVkgm9EAtO0oMmn66y-BMBToUN8N1c1WjOSkPoUHsTvpnW9uevX9YNDVVcWRTE-Tq0AvLjjm3ufl3i_o5OHhxE_-cFpsPXRq44ZAoWflbPAgHICKwIv-jofhl3oA26dkP2HOgw7lpdikioTX673ldCHEGvc5NK4ensHUO7d2Cuo-L8U41qC4qu1ZgY7d5B_Se5eGB3bBU4AK4nZ08z-YS52jZoMtCNKDLPZqCpmS41huKd6ptGr8XEauPmEotuivqx_Mb0Td_L8fpepC5ycHXgm3memytMh_Fj0Td5Kg9S3sUtXACAjZBaCNfd1sG9ohASpnOrcXqVtwWZpwMYgorDKkgNn1dIEIWiI50RMX24Or3RB4nnXXCYgv1xRQ2tqdbGskQoDYLUpjZR__KNjdCMLE5-QQAYid2YQ8ndipqIVGKM0gvJ6JEygxAYDJAFE7SpOc6gUDy1FYAL_7nFvEJey6dIoPP4S9XwtjI9U7HtnOqghJEu0TUMEyh9g8SVDL-cDiS_Zf5dlu8QFX94Gx8mzpoaNuGzq_AbQdSBhfAKr2v9vL0HamcFfbEEBwB1wrmfV1K5je3MWa33LmDBbSgWd3TvWp36VcdAKSEwfmW4xJAc0k0rmTxEhn7FCcVQA2JJaivEfgHOC8oEFwJznShgzFG3MZydm8ypk4_Pg691xemEnmByfcbAcY0dH6or084wkMDixvd4pFRmKxdXO7LndMHdUwRO-Jp6ANDm1RG_ae2tz5TpxsOGdc0fJLhj7GLpFZDSKqjrUMnqL2td316kP9dk7vMFPP9wjXJUPEaxAgvUq3fE00bbv3WwvpeujlPVFJZREqbJjrg5LviT7EnKRHf2Zj8j_US2k-3dUIGJ36Du7mfTHmRxz-88pTKUhiTH-swRp8d8iucl-02zuIlaKu0d4ZU8Xsk1kxA2JYJsKVckRmS4qrlAYWq4c6MsF2R4ERVETIpx63Kd5wltniTkVQOdbiVrB_fqVzJ-G9WcHYR7cedQR7t71uNRyFZstNrqx7OycAjos9wIrEhGehtDYknWI744PH4-p4xco-wBTSKetwXyHB4QkHRVCnlgAZTZvpvGUGgVTjD2h55aKz1PX7kbMxbQlTUqxYHOMaTzaZSZWalOjUTIj0AKmOt3VhjHQ4gqCu9-qqGdBrzsX4cl6AdrRsNmFQwGfKV5DdCFCNLdCllgCk9VDYfPoBPIfvc1Dmy1KCH75_QuZSDFtJvU9Y5kS62Ez0vWAVxjg2kC2Mut6yw-82cVAFuy1Ef5n2vIUoVLrBO_77iAFoepL9Nt5Gn390QjjQ6YDt5UCIgv871sxet1o8E_5z1Jvc4dcIqlHZg_xxvr-aUpJ4DcPpZAmZpN6_qqH50UYK0pSopc8o5tkgEBNO9AGxXK_ODwbUXpXYKXJCoSZ_0G00]--></g></svg>