<?xml version="1.0" encoding="us-ascii" standalone="no"?><svg xmlns="http://www.w3.org/2000/svg" xmlns:xlink="http://www.w3.org/1999/xlink" contentStyleType="text/css" height="2079px" preserveAspectRatio="none" style="width:1684px;height:2079px;background:#FFFFFF;" version="1.1" viewBox="0 0 1684 2079" width="1684px" zoomAndPan="magnify"><defs/><g><!--cluster <<aggregate>> Organizations--><g id="cluster_&lt;&lt;aggregate&gt;&gt; Organizations"><path d="M986.5,1086 L1176.5,1086 A3.75,3.75 0 0 1 1179,1088.5 L1186,1109.6094 L1674.5,1109.6094 A2.5,2.5 0 0 1 1677,1112.1094 L1677,1539.5 A2.5,2.5 0 0 1 1674.5,1542 L986.5,1542 A2.5,2.5 0 0 1 984,1539.5 L984,1088.5 A2.5,2.5 0 0 1 986.5,1086 " fill="#DCDCDC" style="stroke:#000000;stroke-width:1.5;"/><line style="stroke:#000000;stroke-width:1.5;" x1="984" x2="1186" y1="1109.6094" y2="1109.6094"/><text fill="#000000" font-family="sans-serif" font-size="14" font-weight="bold" lengthAdjust="spacing" textLength="189" x="988" y="1102.5332">&#171;aggregate&#187; Organizations</text></g><!--cluster <<aggregate>> Users--><g id="cluster_&lt;&lt;aggregate&gt;&gt; Users"><path d="M1466.5,1566 L1600.5,1566 A3.75,3.75 0 0 1 1603,1568.5 L1610,1589.6094 L1610.5,1589.6094 A2.5,2.5 0 0 1 1613,1592.1094 L1613,1821.5 A2.5,2.5 0 0 1 1610.5,1824 L1466.5,1824 A2.5,2.5 0 0 1 1464,1821.5 L1464,1568.5 A2.5,2.5 0 0 1 1466.5,1566 " fill="#DCDCDC" style="stroke:#000000;stroke-width:1.5;"/><line style="stroke:#000000;stroke-width:1.5;" x1="1464" x2="1610" y1="1589.6094" y2="1589.6094"/><text fill="#000000" font-family="sans-serif" font-size="14" font-weight="bold" lengthAdjust="spacing" textLength="133" x="1468" y="1582.5332">&#171;aggregate&#187; Users</text></g><!--cluster <<aggregate>> Vessels--><g id="cluster_&lt;&lt;aggregate&gt;&gt; Vessels"><path d="M383.5,756 L531.5,756 A3.75,3.75 0 0 1 534,758.5 L541,779.6094 L1196.5,779.6094 A2.5,2.5 0 0 1 1199,782.1094 L1199,995.5 A2.5,2.5 0 0 1 1196.5,998 L383.5,998 A2.5,2.5 0 0 1 381,995.5 L381,758.5 A2.5,2.5 0 0 1 383.5,756 " fill="#DCDCDC" style="stroke:#000000;stroke-width:1.5;"/><line style="stroke:#000000;stroke-width:1.5;" x1="381" x2="541" y1="779.6094" y2="779.6094"/><text fill="#000000" font-family="sans-serif" font-size="14" font-weight="bold" lengthAdjust="spacing" textLength="147" x="385" y="772.5332">&#171;aggregate&#187; Vessels</text></g><!--cluster <<aggregate>> Docks--><g id="cluster_&lt;&lt;aggregate&gt;&gt; Docks"><path d="M1022.5,1759 L1158.5,1759 A3.75,3.75 0 0 1 1161,1761.5 L1168,1782.6094 L1191.5,1782.6094 A2.5,2.5 0 0 1 1194,1785.1094 L1194,1980.5 A2.5,2.5 0 0 1 1191.5,1983 L1022.5,1983 A2.5,2.5 0 0 1 1020,1980.5 L1020,1761.5 A2.5,2.5 0 0 1 1022.5,1759 " fill="#DCDCDC" style="stroke:#000000;stroke-width:1.5;"/><line style="stroke:#000000;stroke-width:1.5;" x1="1020" x2="1168" y1="1782.6094" y2="1782.6094"/><text fill="#000000" font-family="sans-serif" font-size="14" font-weight="bold" lengthAdjust="spacing" textLength="135" x="1024" y="1775.5332">&#171;aggregate&#187; Docks</text></g><!--cluster <<aggregate>> StorageAreas--><g id="cluster_&lt;&lt;aggregate&gt;&gt; StorageAreas"><path d="M1428,1848 L1616,1848 A3.75,3.75 0 0 1 1618.5,1850.5 L1625.5,1871.6094 L1648,1871.6094 A2.5,2.5 0 0 1 1650.5,1874.1094 L1650.5,2069.5 A2.5,2.5 0 0 1 1648,2072 L1428,2072 A2.5,2.5 0 0 1 1425.5,2069.5 L1425.5,1850.5 A2.5,2.5 0 0 1 1428,1848 " fill="#DCDCDC" style="stroke:#000000;stroke-width:1.5;"/><line style="stroke:#000000;stroke-width:1.5;" x1="1425.5" x2="1625.5" y1="1871.6094" y2="1871.6094"/><text fill="#000000" font-family="sans-serif" font-size="14" font-weight="bold" lengthAdjust="spacing" textLength="187" x="1429.5" y="1864.5332">&#171;aggregate&#187; StorageAreas</text></g><!--cluster <<aggregate>> DockAssignments--><g id="cluster_&lt;&lt;aggregate&gt;&gt; DockAssignments"><path d="M402.5,1705 L620.5,1705 A3.75,3.75 0 0 1 623,1707.5 L630,1728.6094 L646.5,1728.6094 A2.5,2.5 0 0 1 649,1731.1094 L649,2035.5 A2.5,2.5 0 0 1 646.5,2038 L402.5,2038 A2.5,2.5 0 0 1 400,2035.5 L400,1707.5 A2.5,2.5 0 0 1 402.5,1705 " fill="#DCDCDC" style="stroke:#000000;stroke-width:1.5;"/><line style="stroke:#000000;stroke-width:1.5;" x1="400" x2="630" y1="1728.6094" y2="1728.6094"/><text fill="#000000" font-family="sans-serif" font-size="14" font-weight="bold" lengthAdjust="spacing" textLength="217" x="404" y="1721.5332">&#171;aggregate&#187; DockAssignments</text></g><!--cluster <<aggregate>> Visits (VVN)--><g id="cluster_&lt;&lt;aggregate&gt;&gt; Visits (VVN)"><path d="M8.5,6 L181.5,6 A3.75,3.75 0 0 1 184,8.5 L191,29.6094 L1214.5,29.6094 A2.5,2.5 0 0 1 1217,32.1094 L1217,729.5 A2.5,2.5 0 0 1 1214.5,732 L8.5,732 A2.5,2.5 0 0 1 6,729.5 L6,8.5 A2.5,2.5 0 0 1 8.5,6 " fill="#DCDCDC" style="stroke:#000000;stroke-width:1.5;"/><line style="stroke:#000000;stroke-width:1.5;" x1="6" x2="191" y1="29.6094" y2="29.6094"/><text fill="#000000" font-family="sans-serif" font-size="14" font-weight="bold" lengthAdjust="spacing" textLength="172" x="10" y="22.5332">&#171;aggregate&#187; Visits (VVN)</text></g><!--cluster Shared--><g id="cluster_Shared"><path d="M1432,470 L1483,470 A3.75,3.75 0 0 1 1485.5,472.5 L1492.5,493.6094 L1644,493.6094 A2.5,2.5 0 0 1 1646.5,496.1094 L1646.5,743.5 A2.5,2.5 0 0 1 1644,746 L1432,746 A2.5,2.5 0 0 1 1429.5,743.5 L1429.5,472.5 A2.5,2.5 0 0 1 1432,470 " fill="#DCDCDC" style="stroke:#000000;stroke-width:1.5;"/><line style="stroke:#000000;stroke-width:1.5;" x1="1429.5" x2="1492.5" y1="493.6094" y2="493.6094"/><text fill="#000000" font-family="sans-serif" font-size="14" font-weight="bold" lengthAdjust="spacing" textLength="50" x="1433.5" y="486.5332">Shared</text></g><!--class Organization--><g id="elem_Organization"><rect codeLine="14" fill="#F5F5F5" height="189.0625" id="Organization" rx="2.5" ry="2.5" style="stroke:#181818;stroke-width:0.5;" width="214" x="1000" y="1336.5"/><ellipse cx="1062.75" cy="1365.3984" fill="#ADD1B2" rx="11" ry="11" style="stroke:#181818;stroke-width:1.0;"/><path d="M1061.6094,1366.1953 L1061.6094,1368.6953 L1065.9375,1368.6953 L1065.9375,1367.7734 Q1065.9375,1367.1641 1066.1719,1366.8984 Q1066.4219,1366.6328 1066.7969,1366.6328 Q1067.1719,1366.6328 1067.4063,1366.8984 Q1067.6406,1367.1641 1067.6406,1367.7734 L1067.6406,1370.3984 L1059.6406,1370.3984 Q1059.0156,1370.3984 1058.75,1370.1641 Q1058.5,1369.9297 1058.5,1369.5391 Q1058.5,1369.1641 1058.7656,1368.9297 Q1059.0313,1368.6953 1059.6406,1368.6953 L1059.9063,1368.6953 L1059.9063,1362.0391 L1059.6406,1362.0391 Q1059.0156,1362.0391 1058.75,1361.8047 Q1058.5,1361.5703 1058.5,1361.1797 Q1058.5,1360.8047 1058.75,1360.5703 Q1059.0156,1360.3359 1059.6406,1360.3359 L1067.2656,1360.3359 L1067.2656,1362.9297 Q1067.2656,1363.5391 1067.0313,1363.8047 Q1066.8125,1364.0547 1066.4219,1364.0547 Q1066.0469,1364.0547 1065.8125,1363.8047 Q1065.5781,1363.5391 1065.5781,1362.9297 L1065.5781,1362.0391 L1061.6094,1362.0391 L1061.6094,1364.4922 L1063.0938,1364.4922 Q1063.0938,1363.8359 1063.2188,1363.6484 Q1063.4844,1363.2422 1063.9531,1363.2422 Q1064.3281,1363.2422 1064.5625,1363.5078 Q1064.7969,1363.7578 1064.7969,1364.3672 L1064.7969,1366.3359 Q1064.7969,1366.8828 1064.6719,1367.0703 Q1064.4063,1367.4609 1063.9531,1367.4609 Q1063.4844,1367.4609 1063.2188,1367.0547 Q1063.0938,1366.8672 1063.0938,1366.1953 L1061.6094,1366.1953 Z " fill="#000000"/><text fill="#000000" font-family="sans-serif" font-size="12" font-style="italic" lengthAdjust="spacing" textLength="43" x="1101.75" y="1353.957">&#171;entity&#187;</text><text fill="#000000" font-family="sans-serif" font-size="12" font-style="italic" lengthAdjust="spacing" textLength="35" x="1105.75" y="1369.0508">&#171;root&#187;</text><text fill="#000000" font-family="sans-serif" font-size="14" lengthAdjust="spacing" textLength="80" x="1083.25" y="1386.2207">Organization</text><line style="stroke:#181818;stroke-width:0.5;" x1="1001" x2="1213" y1="1394.2969" y2="1394.2969"/><text fill="#000000" font-family="sans-serif" font-size="14" lengthAdjust="spacing" textLength="202" x="1006" y="1412.8301">+OrganizationId : OrganizationId</text><text fill="#000000" font-family="sans-serif" font-size="14" lengthAdjust="spacing" textLength="109" x="1006" y="1430.4395">+Identifier : string</text><text fill="#000000" font-family="sans-serif" font-size="14" lengthAdjust="spacing" textLength="126" x="1006" y="1448.0488">+LegalName : string</text><text fill="#000000" font-family="sans-serif" font-size="14" lengthAdjust="spacing" textLength="158" x="1006" y="1465.6582">+AlternativeName : string</text><text fill="#000000" font-family="sans-serif" font-size="14" lengthAdjust="spacing" textLength="134" x="1006" y="1483.2676">+AddressLine : string</text><text fill="#000000" font-family="sans-serif" font-size="14" lengthAdjust="spacing" textLength="127" x="1006" y="1500.877">+TaxNumber : string</text><text fill="#000000" font-family="sans-serif" font-size="14" lengthAdjust="spacing" textLength="164" x="1006" y="1518.4863">+Type : OrganizationType</text></g><!--class OrganizationId--><g id="elem_OrganizationId"><rect codeLine="24" fill="#F5F5F5" height="50.7031" id="OrganizationId" rx="2.5" ry="2.5" style="stroke:#181818;stroke-width:0.5;" width="123" x="1045.5" y="1250.5"/><ellipse cx="1060.5" cy="1271.8516" fill="#FFA500" rx="11" ry="11" style="stroke:#181818;stroke-width:1.0;"/><path d="M1061.0938,1275.1172 L1063.5625,1269.2422 L1063.1719,1269.2422 Q1062.5625,1269.2422 1062.2969,1269.0078 Q1062.0313,1268.7734 1062.0313,1268.3828 Q1062.0313,1268.0078 1062.2969,1267.7734 Q1062.5625,1267.5391 1063.1719,1267.5391 L1065.4531,1267.5391 Q1066.0625,1267.5391 1066.3281,1267.7734 Q1066.5938,1268.0078 1066.5938,1268.3828 Q1066.5938,1268.8516 1066.1875,1269.1172 Q1066,1269.2422 1065.4063,1269.2422 L1061.9219,1277.6016 L1060.2813,1277.6016 L1056.7969,1269.2422 Q1056.2031,1269.2422 1056.0156,1269.1172 Q1055.6094,1268.8516 1055.6094,1268.3828 Q1055.6094,1268.0078 1055.875,1267.7734 Q1056.1406,1267.5391 1056.75,1267.5391 L1059.0469,1267.5391 Q1059.6563,1267.5391 1059.9063,1267.7734 Q1060.1719,1268.0078 1060.1719,1268.3828 Q1060.1719,1268.7734 1059.9063,1269.0078 Q1059.6563,1269.2422 1059.0469,1269.2422 L1058.6406,1269.2422 L1061.0938,1275.1172 Z " fill="#000000"/><text fill="#000000" font-family="sans-serif" font-size="12" font-style="italic" lengthAdjust="spacing" textLength="81" x="1079.5" y="1267.957">&#171;value object&#187;</text><text fill="#000000" font-family="sans-serif" font-size="14" lengthAdjust="spacing" textLength="91" x="1074.5" y="1285.127">OrganizationId</text><line style="stroke:#181818;stroke-width:0.5;" x1="1046.5" x2="1167.5" y1="1293.2031" y2="1293.2031"/></g><!--class OrganizationType--><g id="elem_OrganizationType"><rect codeLine="25" fill="#F5F5F5" height="92.8281" id="OrganizationType" rx="2.5" ry="2.5" style="stroke:#181818;stroke-width:0.5;" width="171" x="1021.5" y="1122.5"/><ellipse cx="1048.65" cy="1138.5" fill="#EB937F" rx="11" ry="11" style="stroke:#181818;stroke-width:1.0;"/><path d="M1047.5094,1139.2969 L1047.5094,1141.7969 L1051.8375,1141.7969 L1051.8375,1140.875 Q1051.8375,1140.2656 1052.0719,1140 Q1052.3219,1139.7344 1052.6969,1139.7344 Q1053.0719,1139.7344 1053.3063,1140 Q1053.5406,1140.2656 1053.5406,1140.875 L1053.5406,1143.5 L1045.5406,1143.5 Q1044.9156,1143.5 1044.65,1143.2656 Q1044.4,1143.0313 1044.4,1142.6406 Q1044.4,1142.2656 1044.6656,1142.0313 Q1044.9313,1141.7969 1045.5406,1141.7969 L1045.8063,1141.7969 L1045.8063,1135.1406 L1045.5406,1135.1406 Q1044.9156,1135.1406 1044.65,1134.9063 Q1044.4,1134.6719 1044.4,1134.2813 Q1044.4,1133.9063 1044.65,1133.6719 Q1044.9156,1133.4375 1045.5406,1133.4375 L1053.1656,1133.4375 L1053.1656,1136.0313 Q1053.1656,1136.6406 1052.9313,1136.9063 Q1052.7125,1137.1563 1052.3219,1137.1563 Q1051.9469,1137.1563 1051.7125,1136.9063 Q1051.4781,1136.6406 1051.4781,1136.0313 L1051.4781,1135.1406 L1047.5094,1135.1406 L1047.5094,1137.5938 L1048.9938,1137.5938 Q1048.9938,1136.9375 1049.1188,1136.75 Q1049.3844,1136.3438 1049.8531,1136.3438 Q1050.2281,1136.3438 1050.4625,1136.6094 Q1050.6969,1136.8594 1050.6969,1137.4688 L1050.6969,1139.4375 Q1050.6969,1139.9844 1050.5719,1140.1719 Q1050.3063,1140.5625 1049.8531,1140.5625 Q1049.3844,1140.5625 1049.1188,1140.1563 Q1048.9938,1139.9688 1048.9938,1139.2969 L1047.5094,1139.2969 Z " fill="#000000"/><text fill="#000000" font-family="sans-serif" font-size="14" lengthAdjust="spacing" textLength="112" x="1065.35" y="1144.2285">OrganizationType</text><line style="stroke:#181818;stroke-width:0.5;" x1="1022.5" x2="1191.5" y1="1154.5" y2="1154.5"/><text fill="#000000" font-family="sans-serif" font-size="14" lengthAdjust="spacing" textLength="117" x="1027.5" y="1173.0332">SHIPPING_AGENT</text><text fill="#000000" font-family="sans-serif" font-size="14" lengthAdjust="spacing" textLength="125" x="1027.5" y="1190.6426">PORT_AUTHORITY</text><text fill="#000000" font-family="sans-serif" font-size="14" lengthAdjust="spacing" textLength="159" x="1027.5" y="1208.252">LOGISTICS_OPERATOR</text></g><!--class Representative--><g id="elem_Representative"><rect codeLine="31" fill="#F5F5F5" height="209.1875" id="Representative" rx="2.5" ry="2.5" style="stroke:#181818;stroke-width:0.5;" width="246" x="1415" y="1316.5"/><ellipse cx="1485.75" cy="1337.8516" fill="#ADD1B2" rx="11" ry="11" style="stroke:#181818;stroke-width:1.0;"/><path d="M1484.6094,1338.6484 L1484.6094,1341.1484 L1488.9375,1341.1484 L1488.9375,1340.2266 Q1488.9375,1339.6172 1489.1719,1339.3516 Q1489.4219,1339.0859 1489.7969,1339.0859 Q1490.1719,1339.0859 1490.4063,1339.3516 Q1490.6406,1339.6172 1490.6406,1340.2266 L1490.6406,1342.8516 L1482.6406,1342.8516 Q1482.0156,1342.8516 1481.75,1342.6172 Q1481.5,1342.3828 1481.5,1341.9922 Q1481.5,1341.6172 1481.7656,1341.3828 Q1482.0313,1341.1484 1482.6406,1341.1484 L1482.9063,1341.1484 L1482.9063,1334.4922 L1482.6406,1334.4922 Q1482.0156,1334.4922 1481.75,1334.2578 Q1481.5,1334.0234 1481.5,1333.6328 Q1481.5,1333.2578 1481.75,1333.0234 Q1482.0156,1332.7891 1482.6406,1332.7891 L1490.2656,1332.7891 L1490.2656,1335.3828 Q1490.2656,1335.9922 1490.0313,1336.2578 Q1489.8125,1336.5078 1489.4219,1336.5078 Q1489.0469,1336.5078 1488.8125,1336.2578 Q1488.5781,1335.9922 1488.5781,1335.3828 L1488.5781,1334.4922 L1484.6094,1334.4922 L1484.6094,1336.9453 L1486.0938,1336.9453 Q1486.0938,1336.2891 1486.2188,1336.1016 Q1486.4844,1335.6953 1486.9531,1335.6953 Q1487.3281,1335.6953 1487.5625,1335.9609 Q1487.7969,1336.2109 1487.7969,1336.8203 L1487.7969,1338.7891 Q1487.7969,1339.3359 1487.6719,1339.5234 Q1487.4063,1339.9141 1486.9531,1339.9141 Q1486.4844,1339.9141 1486.2188,1339.5078 Q1486.0938,1339.3203 1486.0938,1338.6484 L1484.6094,1338.6484 Z " fill="#000000"/><text fill="#000000" font-family="sans-serif" font-size="12" font-style="italic" lengthAdjust="spacing" textLength="43" x="1532.75" y="1333.957">&#171;entity&#187;</text><text fill="#000000" font-family="sans-serif" font-size="14" lengthAdjust="spacing" textLength="96" x="1506.25" y="1351.127">Representative</text><line style="stroke:#181818;stroke-width:0.5;" x1="1416" x2="1660" y1="1359.2031" y2="1359.2031"/><text fill="#000000" font-family="sans-serif" font-size="14" lengthAdjust="spacing" textLength="61" x="1421" y="1377.7363">+Id : Guid</text><text fill="#000000" font-family="sans-serif" font-size="14" lengthAdjust="spacing" textLength="234" x="1421" y="1395.3457">+RepresentativeId : RepresentativeId</text><text fill="#000000" font-family="sans-serif" font-size="14" lengthAdjust="spacing" textLength="91" x="1421" y="1412.9551">+Name : string</text><text fill="#000000" font-family="sans-serif" font-size="14" lengthAdjust="spacing" textLength="108" x="1421" y="1430.5645">+CitizenId : string</text><text fill="#000000" font-family="sans-serif" font-size="14" lengthAdjust="spacing" textLength="120" x="1421" y="1448.1738">+Nationality : string</text><text fill="#000000" font-family="sans-serif" font-size="14" lengthAdjust="spacing" textLength="89" x="1421" y="1465.7832">+Email : string</text><text fill="#000000" font-family="sans-serif" font-size="14" lengthAdjust="spacing" textLength="96" x="1421" y="1483.3926">+Phone : string</text><text fill="#000000" font-family="sans-serif" font-size="14" lengthAdjust="spacing" textLength="95" x="1421" y="1501.002">+IsActive : bool</text><text fill="#000000" font-family="sans-serif" font-size="14" lengthAdjust="spacing" textLength="145" x="1421" y="1518.6113">+CreatedAt : DateTime</text></g><!--class RepresentativeId--><g id="elem_RepresentativeId"><rect codeLine="42" fill="#F5F5F5" height="50.7031" id="RepresentativeId" rx="2.5" ry="2.5" style="stroke:#181818;stroke-width:0.5;" width="139" x="1468.5" y="1230.5"/><ellipse cx="1483.5" cy="1251.8516" fill="#FFA500" rx="11" ry="11" style="stroke:#181818;stroke-width:1.0;"/><path d="M1484.0938,1255.1172 L1486.5625,1249.2422 L1486.1719,1249.2422 Q1485.5625,1249.2422 1485.2969,1249.0078 Q1485.0313,1248.7734 1485.0313,1248.3828 Q1485.0313,1248.0078 1485.2969,1247.7734 Q1485.5625,1247.5391 1486.1719,1247.5391 L1488.4531,1247.5391 Q1489.0625,1247.5391 1489.3281,1247.7734 Q1489.5938,1248.0078 1489.5938,1248.3828 Q1489.5938,1248.8516 1489.1875,1249.1172 Q1489,1249.2422 1488.4063,1249.2422 L1484.9219,1257.6016 L1483.2813,1257.6016 L1479.7969,1249.2422 Q1479.2031,1249.2422 1479.0156,1249.1172 Q1478.6094,1248.8516 1478.6094,1248.3828 Q1478.6094,1248.0078 1478.875,1247.7734 Q1479.1406,1247.5391 1479.75,1247.5391 L1482.0469,1247.5391 Q1482.6563,1247.5391 1482.9063,1247.7734 Q1483.1719,1248.0078 1483.1719,1248.3828 Q1483.1719,1248.7734 1482.9063,1249.0078 Q1482.6563,1249.2422 1482.0469,1249.2422 L1481.6406,1249.2422 L1484.0938,1255.1172 Z " fill="#000000"/><text fill="#000000" font-family="sans-serif" font-size="12" font-style="italic" lengthAdjust="spacing" textLength="81" x="1510.5" y="1247.957">&#171;value object&#187;</text><text fill="#000000" font-family="sans-serif" font-size="14" lengthAdjust="spacing" textLength="107" x="1497.5" y="1265.127">RepresentativeId</text><line style="stroke:#181818;stroke-width:0.5;" x1="1469.5" x2="1606.5" y1="1273.2031" y2="1273.2031"/></g><!--class User--><g id="elem_User"><rect codeLine="48" fill="#F5F5F5" height="118.625" id="User" rx="2.5" ry="2.5" style="stroke:#181818;stroke-width:0.5;" width="112" x="1482" y="1602.5"/><ellipse cx="1515.45" cy="1631.3984" fill="#ADD1B2" rx="11" ry="11" style="stroke:#181818;stroke-width:1.0;"/><path d="M1514.3094,1632.1953 L1514.3094,1634.6953 L1518.6375,1634.6953 L1518.6375,1633.7734 Q1518.6375,1633.1641 1518.8719,1632.8984 Q1519.1219,1632.6328 1519.4969,1632.6328 Q1519.8719,1632.6328 1520.1063,1632.8984 Q1520.3406,1633.1641 1520.3406,1633.7734 L1520.3406,1636.3984 L1512.3406,1636.3984 Q1511.7156,1636.3984 1511.45,1636.1641 Q1511.2,1635.9297 1511.2,1635.5391 Q1511.2,1635.1641 1511.4656,1634.9297 Q1511.7313,1634.6953 1512.3406,1634.6953 L1512.6063,1634.6953 L1512.6063,1628.0391 L1512.3406,1628.0391 Q1511.7156,1628.0391 1511.45,1627.8047 Q1511.2,1627.5703 1511.2,1627.1797 Q1511.2,1626.8047 1511.45,1626.5703 Q1511.7156,1626.3359 1512.3406,1626.3359 L1519.9656,1626.3359 L1519.9656,1628.9297 Q1519.9656,1629.5391 1519.7313,1629.8047 Q1519.5125,1630.0547 1519.1219,1630.0547 Q1518.7469,1630.0547 1518.5125,1629.8047 Q1518.2781,1629.5391 1518.2781,1628.9297 L1518.2781,1628.0391 L1514.3094,1628.0391 L1514.3094,1630.4922 L1515.7938,1630.4922 Q1515.7938,1629.8359 1515.9188,1629.6484 Q1516.1844,1629.2422 1516.6531,1629.2422 Q1517.0281,1629.2422 1517.2625,1629.5078 Q1517.4969,1629.7578 1517.4969,1630.3672 L1517.4969,1632.3359 Q1517.4969,1632.8828 1517.3719,1633.0703 Q1517.1063,1633.4609 1516.6531,1633.4609 Q1516.1844,1633.4609 1515.9188,1633.0547 Q1515.7938,1632.8672 1515.7938,1632.1953 L1514.3094,1632.1953 Z " fill="#000000"/><text fill="#000000" font-family="sans-serif" font-size="12" font-style="italic" lengthAdjust="spacing" textLength="43" x="1531.55" y="1619.957">&#171;entity&#187;</text><text fill="#000000" font-family="sans-serif" font-size="12" font-style="italic" lengthAdjust="spacing" textLength="35" x="1535.55" y="1635.0508">&#171;root&#187;</text><text fill="#000000" font-family="sans-serif" font-size="14" lengthAdjust="spacing" textLength="29" x="1538.55" y="1652.2207">User</text><line style="stroke:#181818;stroke-width:0.5;" x1="1483" x2="1593" y1="1660.2969" y2="1660.2969"/><text fill="#000000" font-family="sans-serif" font-size="14" lengthAdjust="spacing" textLength="100" x="1488" y="1678.8301">+UserId : UserId</text><text fill="#000000" font-family="sans-serif" font-size="14" lengthAdjust="spacing" textLength="91" x="1488" y="1696.4395">+Name : string</text><text fill="#000000" font-family="sans-serif" font-size="14" lengthAdjust="spacing" textLength="89" x="1488" y="1714.0488">+Email : string</text></g><!--class UserId--><g id="elem_UserId"><rect codeLine="53" fill="#F5F5F5" height="50.7031" id="UserId" rx="2.5" ry="2.5" style="stroke:#181818;stroke-width:0.5;" width="109" x="1483.5" y="1756.5"/><ellipse cx="1498.5" cy="1777.8516" fill="#FFA500" rx="11" ry="11" style="stroke:#181818;stroke-width:1.0;"/><path d="M1499.0938,1781.1172 L1501.5625,1775.2422 L1501.1719,1775.2422 Q1500.5625,1775.2422 1500.2969,1775.0078 Q1500.0313,1774.7734 1500.0313,1774.3828 Q1500.0313,1774.0078 1500.2969,1773.7734 Q1500.5625,1773.5391 1501.1719,1773.5391 L1503.4531,1773.5391 Q1504.0625,1773.5391 1504.3281,1773.7734 Q1504.5938,1774.0078 1504.5938,1774.3828 Q1504.5938,1774.8516 1504.1875,1775.1172 Q1504,1775.2422 1503.4063,1775.2422 L1499.9219,1783.6016 L1498.2813,1783.6016 L1494.7969,1775.2422 Q1494.2031,1775.2422 1494.0156,1775.1172 Q1493.6094,1774.8516 1493.6094,1774.3828 Q1493.6094,1774.0078 1493.875,1773.7734 Q1494.1406,1773.5391 1494.75,1773.5391 L1497.0469,1773.5391 Q1497.6563,1773.5391 1497.9063,1773.7734 Q1498.1719,1774.0078 1498.1719,1774.3828 Q1498.1719,1774.7734 1497.9063,1775.0078 Q1497.6563,1775.2422 1497.0469,1775.2422 L1496.6406,1775.2422 L1499.0938,1781.1172 Z " fill="#000000"/><text fill="#000000" font-family="sans-serif" font-size="12" font-style="italic" lengthAdjust="spacing" textLength="81" x="1510.5" y="1773.957">&#171;value object&#187;</text><text fill="#000000" font-family="sans-serif" font-size="14" lengthAdjust="spacing" textLength="40" x="1531" y="1791.127">UserId</text><line style="stroke:#181818;stroke-width:0.5;" x1="1484.5" x2="1591.5" y1="1799.2031" y2="1799.2031"/></g><!--class Vessel--><g id="elem_Vessel"><rect codeLine="59" fill="#F5F5F5" height="153.8438" id="Vessel" rx="2.5" ry="2.5" style="stroke:#181818;stroke-width:0.5;" width="255" x="397" y="819"/><ellipse cx="499.25" cy="847.8984" fill="#ADD1B2" rx="11" ry="11" style="stroke:#181818;stroke-width:1.0;"/><path d="M498.1094,848.6953 L498.1094,851.1953 L502.4375,851.1953 L502.4375,850.2734 Q502.4375,849.6641 502.6719,849.3984 Q502.9219,849.1328 503.2969,849.1328 Q503.6719,849.1328 503.9063,849.3984 Q504.1406,849.6641 504.1406,850.2734 L504.1406,852.8984 L496.1406,852.8984 Q495.5156,852.8984 495.25,852.6641 Q495,852.4297 495,852.0391 Q495,851.6641 495.2656,851.4297 Q495.5313,851.1953 496.1406,851.1953 L496.4063,851.1953 L496.4063,844.5391 L496.1406,844.5391 Q495.5156,844.5391 495.25,844.3047 Q495,844.0703 495,843.6797 Q495,843.3047 495.25,843.0703 Q495.5156,842.8359 496.1406,842.8359 L503.7656,842.8359 L503.7656,845.4297 Q503.7656,846.0391 503.5313,846.3047 Q503.3125,846.5547 502.9219,846.5547 Q502.5469,846.5547 502.3125,846.3047 Q502.0781,846.0391 502.0781,845.4297 L502.0781,844.5391 L498.1094,844.5391 L498.1094,846.9922 L499.5938,846.9922 Q499.5938,846.3359 499.7188,846.1484 Q499.9844,845.7422 500.4531,845.7422 Q500.8281,845.7422 501.0625,846.0078 Q501.2969,846.2578 501.2969,846.8672 L501.2969,848.8359 Q501.2969,849.3828 501.1719,849.5703 Q500.9063,849.9609 500.4531,849.9609 Q499.9844,849.9609 499.7188,849.5547 Q499.5938,849.3672 499.5938,848.6953 L498.1094,848.6953 Z " fill="#000000"/><text fill="#000000" font-family="sans-serif" font-size="12" font-style="italic" lengthAdjust="spacing" textLength="43" x="519.25" y="836.457">&#171;entity&#187;</text><text fill="#000000" font-family="sans-serif" font-size="12" font-style="italic" lengthAdjust="spacing" textLength="35" x="523.25" y="851.5508">&#171;root&#187;</text><text fill="#000000" font-family="sans-serif" font-size="14" lengthAdjust="spacing" textLength="42" x="519.75" y="868.7207">Vessel</text><line style="stroke:#181818;stroke-width:0.5;" x1="398" x2="651" y1="876.7969" y2="876.7969"/><text fill="#000000" font-family="sans-serif" font-size="14" lengthAdjust="spacing" textLength="126" x="403" y="895.3301">+ImoNumber : string</text><text fill="#000000" font-family="sans-serif" font-size="14" lengthAdjust="spacing" textLength="91" x="403" y="912.9395">+Name : string</text><text fill="#000000" font-family="sans-serif" font-size="14" lengthAdjust="spacing" textLength="125" x="403" y="930.5488">+CapacityTEU : int?</text><text fill="#000000" font-family="sans-serif" font-size="14" lengthAdjust="spacing" textLength="140" x="403" y="948.1582">+VesselTypeId : string</text><text fill="#000000" font-family="sans-serif" font-size="14" lengthAdjust="spacing" textLength="243" x="403" y="965.7676">+OwnerOrganizationId : OrganizationId</text></g><!--class VesselType--><g id="elem_VesselType"><rect codeLine="66" fill="#F5F5F5" height="189.0625" id="VesselType" rx="2.5" ry="2.5" style="stroke:#181818;stroke-width:0.5;" width="152" x="1031" y="792.5"/><ellipse cx="1066.7" cy="821.3984" fill="#ADD1B2" rx="11" ry="11" style="stroke:#181818;stroke-width:1.0;"/><path d="M1065.5594,822.1953 L1065.5594,824.6953 L1069.8875,824.6953 L1069.8875,823.7734 Q1069.8875,823.1641 1070.1219,822.8984 Q1070.3719,822.6328 1070.7469,822.6328 Q1071.1219,822.6328 1071.3563,822.8984 Q1071.5906,823.1641 1071.5906,823.7734 L1071.5906,826.3984 L1063.5906,826.3984 Q1062.9656,826.3984 1062.7,826.1641 Q1062.45,825.9297 1062.45,825.5391 Q1062.45,825.1641 1062.7156,824.9297 Q1062.9813,824.6953 1063.5906,824.6953 L1063.8563,824.6953 L1063.8563,818.0391 L1063.5906,818.0391 Q1062.9656,818.0391 1062.7,817.8047 Q1062.45,817.5703 1062.45,817.1797 Q1062.45,816.8047 1062.7,816.5703 Q1062.9656,816.3359 1063.5906,816.3359 L1071.2156,816.3359 L1071.2156,818.9297 Q1071.2156,819.5391 1070.9813,819.8047 Q1070.7625,820.0547 1070.3719,820.0547 Q1069.9969,820.0547 1069.7625,819.8047 Q1069.5281,819.5391 1069.5281,818.9297 L1069.5281,818.0391 L1065.5594,818.0391 L1065.5594,820.4922 L1067.0438,820.4922 Q1067.0438,819.8359 1067.1688,819.6484 Q1067.4344,819.2422 1067.9031,819.2422 Q1068.2781,819.2422 1068.5125,819.5078 Q1068.7469,819.7578 1068.7469,820.3672 L1068.7469,822.3359 Q1068.7469,822.8828 1068.6219,823.0703 Q1068.3563,823.4609 1067.9031,823.4609 Q1067.4344,823.4609 1067.1688,823.0547 Q1067.0438,822.8672 1067.0438,822.1953 L1065.5594,822.1953 Z " fill="#000000"/><text fill="#000000" font-family="sans-serif" font-size="12" font-style="italic" lengthAdjust="spacing" textLength="43" x="1100.8" y="809.957">&#171;entity&#187;</text><text fill="#000000" font-family="sans-serif" font-size="12" font-style="italic" lengthAdjust="spacing" textLength="35" x="1104.8" y="825.0508">&#171;root&#187;</text><text fill="#000000" font-family="sans-serif" font-size="14" lengthAdjust="spacing" textLength="74" x="1085.3" y="842.2207">VesselType</text><line style="stroke:#181818;stroke-width:0.5;" x1="1032" x2="1182" y1="850.2969" y2="850.2969"/><text fill="#000000" font-family="sans-serif" font-size="14" lengthAdjust="spacing" textLength="140" x="1037" y="868.8301">+VesselTypeId : string</text><text fill="#000000" font-family="sans-serif" font-size="14" lengthAdjust="spacing" textLength="91" x="1037" y="886.4395">+Name : string</text><text fill="#000000" font-family="sans-serif" font-size="14" lengthAdjust="spacing" textLength="134" x="1037" y="904.0488">+Description : string?</text><text fill="#000000" font-family="sans-serif" font-size="14" lengthAdjust="spacing" textLength="125" x="1037" y="921.6582">+CapacityTEU : int?</text><text fill="#000000" font-family="sans-serif" font-size="14" lengthAdjust="spacing" textLength="102" x="1037" y="939.2676">+MaxRows : int?</text><text fill="#000000" font-family="sans-serif" font-size="14" lengthAdjust="spacing" textLength="100" x="1037" y="956.877">+MaxTiers : int?</text><text fill="#000000" font-family="sans-serif" font-size="14" lengthAdjust="spacing" textLength="99" x="1037" y="974.4863">+MaxBays : int?</text></g><!--class Dock--><g id="elem_Dock"><rect codeLine="81" fill="#F5F5F5" height="171.4531" id="Dock" rx="2.5" ry="2.5" style="stroke:#181818;stroke-width:0.5;" width="142" x="1036" y="1795.5"/><ellipse cx="1083.25" cy="1824.3984" fill="#ADD1B2" rx="11" ry="11" style="stroke:#181818;stroke-width:1.0;"/><path d="M1082.1094,1825.1953 L1082.1094,1827.6953 L1086.4375,1827.6953 L1086.4375,1826.7734 Q1086.4375,1826.1641 1086.6719,1825.8984 Q1086.9219,1825.6328 1087.2969,1825.6328 Q1087.6719,1825.6328 1087.9063,1825.8984 Q1088.1406,1826.1641 1088.1406,1826.7734 L1088.1406,1829.3984 L1080.1406,1829.3984 Q1079.5156,1829.3984 1079.25,1829.1641 Q1079,1828.9297 1079,1828.5391 Q1079,1828.1641 1079.2656,1827.9297 Q1079.5313,1827.6953 1080.1406,1827.6953 L1080.4063,1827.6953 L1080.4063,1821.0391 L1080.1406,1821.0391 Q1079.5156,1821.0391 1079.25,1820.8047 Q1079,1820.5703 1079,1820.1797 Q1079,1819.8047 1079.25,1819.5703 Q1079.5156,1819.3359 1080.1406,1819.3359 L1087.7656,1819.3359 L1087.7656,1821.9297 Q1087.7656,1822.5391 1087.5313,1822.8047 Q1087.3125,1823.0547 1086.9219,1823.0547 Q1086.5469,1823.0547 1086.3125,1822.8047 Q1086.0781,1822.5391 1086.0781,1821.9297 L1086.0781,1821.0391 L1082.1094,1821.0391 L1082.1094,1823.4922 L1083.5938,1823.4922 Q1083.5938,1822.8359 1083.7188,1822.6484 Q1083.9844,1822.2422 1084.4531,1822.2422 Q1084.8281,1822.2422 1085.0625,1822.5078 Q1085.2969,1822.7578 1085.2969,1823.3672 L1085.2969,1825.3359 Q1085.2969,1825.8828 1085.1719,1826.0703 Q1084.9063,1826.4609 1084.4531,1826.4609 Q1083.9844,1826.4609 1083.7188,1826.0547 Q1083.5938,1825.8672 1083.5938,1825.1953 L1082.1094,1825.1953 Z " fill="#000000"/><text fill="#000000" font-family="sans-serif" font-size="12" font-style="italic" lengthAdjust="spacing" textLength="43" x="1101.75" y="1812.957">&#171;entity&#187;</text><text fill="#000000" font-family="sans-serif" font-size="12" font-style="italic" lengthAdjust="spacing" textLength="35" x="1105.75" y="1828.0508">&#171;root&#187;</text><text fill="#000000" font-family="sans-serif" font-size="14" lengthAdjust="spacing" textLength="32" x="1107.25" y="1845.2207">Dock</text><line style="stroke:#181818;stroke-width:0.5;" x1="1037" x2="1177" y1="1853.2969" y2="1853.2969"/><text fill="#000000" font-family="sans-serif" font-size="14" lengthAdjust="spacing" textLength="89" x="1042" y="1871.8301">+Code : string</text><text fill="#000000" font-family="sans-serif" font-size="14" lengthAdjust="spacing" textLength="91" x="1042" y="1889.4395">+Name : string</text><text fill="#000000" font-family="sans-serif" font-size="14" lengthAdjust="spacing" textLength="109" x="1042" y="1907.0488">+Location : string</text><text fill="#000000" font-family="sans-serif" font-size="14" lengthAdjust="spacing" textLength="118" x="1042" y="1924.6582">+LengthM : double</text><text fill="#000000" font-family="sans-serif" font-size="14" lengthAdjust="spacing" textLength="112" x="1042" y="1942.2676">+DepthM : double</text><text fill="#000000" font-family="sans-serif" font-size="14" lengthAdjust="spacing" textLength="130" x="1042" y="1959.877">+MaxDraftM : double</text></g><!--class StorageArea--><g id="elem_StorageArea"><rect codeLine="92" fill="#F5F5F5" height="171.4531" id="StorageArea" rx="2.5" ry="2.5" style="stroke:#181818;stroke-width:0.5;" width="193" x="1441.5" y="1884.5"/><ellipse cx="1493.75" cy="1913.3984" fill="#ADD1B2" rx="11" ry="11" style="stroke:#181818;stroke-width:1.0;"/><path d="M1492.6094,1914.1953 L1492.6094,1916.6953 L1496.9375,1916.6953 L1496.9375,1915.7734 Q1496.9375,1915.1641 1497.1719,1914.8984 Q1497.4219,1914.6328 1497.7969,1914.6328 Q1498.1719,1914.6328 1498.4063,1914.8984 Q1498.6406,1915.1641 1498.6406,1915.7734 L1498.6406,1918.3984 L1490.6406,1918.3984 Q1490.0156,1918.3984 1489.75,1918.1641 Q1489.5,1917.9297 1489.5,1917.5391 Q1489.5,1917.1641 1489.7656,1916.9297 Q1490.0313,1916.6953 1490.6406,1916.6953 L1490.9063,1916.6953 L1490.9063,1910.0391 L1490.6406,1910.0391 Q1490.0156,1910.0391 1489.75,1909.8047 Q1489.5,1909.5703 1489.5,1909.1797 Q1489.5,1908.8047 1489.75,1908.5703 Q1490.0156,1908.3359 1490.6406,1908.3359 L1498.2656,1908.3359 L1498.2656,1910.9297 Q1498.2656,1911.5391 1498.0313,1911.8047 Q1497.8125,1912.0547 1497.4219,1912.0547 Q1497.0469,1912.0547 1496.8125,1911.8047 Q1496.5781,1911.5391 1496.5781,1910.9297 L1496.5781,1910.0391 L1492.6094,1910.0391 L1492.6094,1912.4922 L1494.0938,1912.4922 Q1494.0938,1911.8359 1494.2188,1911.6484 Q1494.4844,1911.2422 1494.9531,1911.2422 Q1495.3281,1911.2422 1495.5625,1911.5078 Q1495.7969,1911.7578 1495.7969,1912.3672 L1495.7969,1914.3359 Q1495.7969,1914.8828 1495.6719,1915.0703 Q1495.4063,1915.4609 1494.9531,1915.4609 Q1494.4844,1915.4609 1494.2188,1915.0547 Q1494.0938,1914.8672 1494.0938,1914.1953 L1492.6094,1914.1953 Z " fill="#000000"/><text fill="#000000" font-family="sans-serif" font-size="12" font-style="italic" lengthAdjust="spacing" textLength="43" x="1532.75" y="1901.957">&#171;entity&#187;</text><text fill="#000000" font-family="sans-serif" font-size="12" font-style="italic" lengthAdjust="spacing" textLength="35" x="1536.75" y="1917.0508">&#171;root&#187;</text><text fill="#000000" font-family="sans-serif" font-size="14" lengthAdjust="spacing" textLength="80" x="1514.25" y="1934.2207">StorageArea</text><line style="stroke:#181818;stroke-width:0.5;" x1="1442.5" x2="1633.5" y1="1942.2969" y2="1942.2969"/><text fill="#000000" font-family="sans-serif" font-size="14" lengthAdjust="spacing" textLength="146" x="1447.5" y="1960.8301">+StorageAreaId : string</text><text fill="#000000" font-family="sans-serif" font-size="14" lengthAdjust="spacing" textLength="91" x="1447.5" y="1978.4395">+Name : string</text><text fill="#000000" font-family="sans-serif" font-size="14" lengthAdjust="spacing" textLength="109" x="1447.5" y="1996.0488">+Location : string</text><text fill="#000000" font-family="sans-serif" font-size="14" lengthAdjust="spacing" textLength="142" x="1447.5" y="2013.6582">+MaxCapacityTEU : int</text><text fill="#000000" font-family="sans-serif" font-size="14" lengthAdjust="spacing" textLength="181" x="1447.5" y="2031.2676">+CurrentOccupancyTEU : int</text><text fill="#000000" font-family="sans-serif" font-size="14" lengthAdjust="spacing" textLength="145" x="1447.5" y="2048.877">+ServesAllDocks : bool</text></g><!--class DockAssignment--><g id="elem_DockAssignment"><rect codeLine="105" fill="#F5F5F5" height="136.2344" id="DockAssignment" rx="2.5" ry="2.5" style="stroke:#181818;stroke-width:0.5;" width="217" x="416" y="1741"/><ellipse cx="467.75" cy="1769.8984" fill="#ADD1B2" rx="11" ry="11" style="stroke:#181818;stroke-width:1.0;"/><path d="M466.6094,1770.6953 L466.6094,1773.1953 L470.9375,1773.1953 L470.9375,1772.2734 Q470.9375,1771.6641 471.1719,1771.3984 Q471.4219,1771.1328 471.7969,1771.1328 Q472.1719,1771.1328 472.4063,1771.3984 Q472.6406,1771.6641 472.6406,1772.2734 L472.6406,1774.8984 L464.6406,1774.8984 Q464.0156,1774.8984 463.75,1774.6641 Q463.5,1774.4297 463.5,1774.0391 Q463.5,1773.6641 463.7656,1773.4297 Q464.0313,1773.1953 464.6406,1773.1953 L464.9063,1773.1953 L464.9063,1766.5391 L464.6406,1766.5391 Q464.0156,1766.5391 463.75,1766.3047 Q463.5,1766.0703 463.5,1765.6797 Q463.5,1765.3047 463.75,1765.0703 Q464.0156,1764.8359 464.6406,1764.8359 L472.2656,1764.8359 L472.2656,1767.4297 Q472.2656,1768.0391 472.0313,1768.3047 Q471.8125,1768.5547 471.4219,1768.5547 Q471.0469,1768.5547 470.8125,1768.3047 Q470.5781,1768.0391 470.5781,1767.4297 L470.5781,1766.5391 L466.6094,1766.5391 L466.6094,1768.9922 L468.0938,1768.9922 Q468.0938,1768.3359 468.2188,1768.1484 Q468.4844,1767.7422 468.9531,1767.7422 Q469.3281,1767.7422 469.5625,1768.0078 Q469.7969,1768.2578 469.7969,1768.8672 L469.7969,1770.8359 Q469.7969,1771.3828 469.6719,1771.5703 Q469.4063,1771.9609 468.9531,1771.9609 Q468.4844,1771.9609 468.2188,1771.5547 Q468.0938,1771.3672 468.0938,1770.6953 L466.6094,1770.6953 Z " fill="#000000"/><text fill="#000000" font-family="sans-serif" font-size="12" font-style="italic" lengthAdjust="spacing" textLength="43" x="519.25" y="1758.457">&#171;entity&#187;</text><text fill="#000000" font-family="sans-serif" font-size="12" font-style="italic" lengthAdjust="spacing" textLength="35" x="523.25" y="1773.5508">&#171;root&#187;</text><text fill="#000000" font-family="sans-serif" font-size="14" lengthAdjust="spacing" textLength="105" x="488.25" y="1790.7207">DockAssignment</text><line style="stroke:#181818;stroke-width:0.5;" x1="417" x2="632" y1="1798.7969" y2="1798.7969"/><text fill="#000000" font-family="sans-serif" font-size="14" lengthAdjust="spacing" textLength="166" x="422" y="1817.3301">+DockAssignmentId : Guid</text><text fill="#000000" font-family="sans-serif" font-size="14" lengthAdjust="spacing" textLength="131" x="422" y="1834.9395">+StartUtc : DateTime</text><text fill="#000000" font-family="sans-serif" font-size="14" lengthAdjust="spacing" textLength="126" x="422" y="1852.5488">+EndUtc : DateTime</text><text fill="#000000" font-family="sans-serif" font-size="14" lengthAdjust="spacing" textLength="205" x="422" y="1870.1582">+Status : DockAssignmentStatus</text></g><!--class DockAssignmentStatus--><g id="elem_DockAssignmentStatus"><rect codeLine="112" fill="#F5F5F5" height="110.4375" id="DockAssignmentStatus" rx="2.5" ry="2.5" style="stroke:#181818;stroke-width:0.5;" width="177" x="436" y="1912"/><ellipse cx="451" cy="1928" fill="#EB937F" rx="11" ry="11" style="stroke:#181818;stroke-width:1.0;"/><path d="M449.8594,1928.7969 L449.8594,1931.2969 L454.1875,1931.2969 L454.1875,1930.375 Q454.1875,1929.7656 454.4219,1929.5 Q454.6719,1929.2344 455.0469,1929.2344 Q455.4219,1929.2344 455.6563,1929.5 Q455.8906,1929.7656 455.8906,1930.375 L455.8906,1933 L447.8906,1933 Q447.2656,1933 447,1932.7656 Q446.75,1932.5313 446.75,1932.1406 Q446.75,1931.7656 447.0156,1931.5313 Q447.2813,1931.2969 447.8906,1931.2969 L448.1563,1931.2969 L448.1563,1924.6406 L447.8906,1924.6406 Q447.2656,1924.6406 447,1924.4063 Q446.75,1924.1719 446.75,1923.7813 Q446.75,1923.4063 447,1923.1719 Q447.2656,1922.9375 447.8906,1922.9375 L455.5156,1922.9375 L455.5156,1925.5313 Q455.5156,1926.1406 455.2813,1926.4063 Q455.0625,1926.6563 454.6719,1926.6563 Q454.2969,1926.6563 454.0625,1926.4063 Q453.8281,1926.1406 453.8281,1925.5313 L453.8281,1924.6406 L449.8594,1924.6406 L449.8594,1927.0938 L451.3438,1927.0938 Q451.3438,1926.4375 451.4688,1926.25 Q451.7344,1925.8438 452.2031,1925.8438 Q452.5781,1925.8438 452.8125,1926.1094 Q453.0469,1926.3594 453.0469,1926.9688 L453.0469,1928.9375 Q453.0469,1929.4844 452.9219,1929.6719 Q452.6563,1930.0625 452.2031,1930.0625 Q451.7344,1930.0625 451.4688,1929.6563 Q451.3438,1929.4688 451.3438,1928.7969 L449.8594,1928.7969 Z " fill="#000000"/><text fill="#000000" font-family="sans-serif" font-size="14" lengthAdjust="spacing" textLength="145" x="465" y="1933.7285">DockAssignmentStatus</text><line style="stroke:#181818;stroke-width:0.5;" x1="437" x2="612" y1="1944" y2="1944"/><text fill="#000000" font-family="sans-serif" font-size="14" lengthAdjust="spacing" textLength="83" x="442" y="1962.5332">SCHEDULED</text><text fill="#000000" font-family="sans-serif" font-size="14" lengthAdjust="spacing" textLength="98" x="442" y="1980.1426">IN_PROGRESS</text><text fill="#000000" font-family="sans-serif" font-size="14" lengthAdjust="spacing" textLength="86" x="442" y="1997.752">COMPLETED</text><text fill="#000000" font-family="sans-serif" font-size="14" lengthAdjust="spacing" textLength="82" x="442" y="2015.3613">CANCELLED</text></g><!--class VVNState--><g id="elem_VVNState"><rect codeLine="123" fill="#F5F5F5" height="110.4375" id="VVNState" rx="2.5" ry="2.5" style="stroke:#181818;stroke-width:0.5;" width="110" x="62" y="187"/><ellipse cx="85.1" cy="203" fill="#EB937F" rx="11" ry="11" style="stroke:#181818;stroke-width:1.0;"/><path d="M83.9594,203.7969 L83.9594,206.2969 L88.2875,206.2969 L88.2875,205.375 Q88.2875,204.7656 88.5219,204.5 Q88.7719,204.2344 89.1469,204.2344 Q89.5219,204.2344 89.7563,204.5 Q89.9906,204.7656 89.9906,205.375 L89.9906,208 L81.9906,208 Q81.3656,208 81.1,207.7656 Q80.85,207.5313 80.85,207.1406 Q80.85,206.7656 81.1156,206.5313 Q81.3813,206.2969 81.9906,206.2969 L82.2563,206.2969 L82.2563,199.6406 L81.9906,199.6406 Q81.3656,199.6406 81.1,199.4063 Q80.85,199.1719 80.85,198.7813 Q80.85,198.4063 81.1,198.1719 Q81.3656,197.9375 81.9906,197.9375 L89.6156,197.9375 L89.6156,200.5313 Q89.6156,201.1406 89.3813,201.4063 Q89.1625,201.6563 88.7719,201.6563 Q88.3969,201.6563 88.1625,201.4063 Q87.9281,201.1406 87.9281,200.5313 L87.9281,199.6406 L83.9594,199.6406 L83.9594,202.0938 L85.4438,202.0938 Q85.4438,201.4375 85.5688,201.25 Q85.8344,200.8438 86.3031,200.8438 Q86.6781,200.8438 86.9125,201.1094 Q87.1469,201.3594 87.1469,201.9688 L87.1469,203.9375 Q87.1469,204.4844 87.0219,204.6719 Q86.7563,205.0625 86.3031,205.0625 Q85.8344,205.0625 85.5688,204.6563 Q85.4438,204.4688 85.4438,203.7969 L83.9594,203.7969 Z " fill="#000000"/><text fill="#000000" font-family="sans-serif" font-size="14" lengthAdjust="spacing" textLength="60" x="100.9" y="208.7285">VVNState</text><line style="stroke:#181818;stroke-width:0.5;" x1="63" x2="171" y1="219" y2="219"/><text fill="#000000" font-family="sans-serif" font-size="14" lengthAdjust="spacing" textLength="98" x="68" y="237.5332">IN_PROGRESS</text><text fill="#000000" font-family="sans-serif" font-size="14" lengthAdjust="spacing" textLength="78" x="68" y="255.1426">SUBMITTED</text><text fill="#000000" font-family="sans-serif" font-size="14" lengthAdjust="spacing" textLength="76" x="68" y="272.752">APPROVED</text><text fill="#000000" font-family="sans-serif" font-size="14" lengthAdjust="spacing" textLength="72" x="68" y="290.3613">REJECTED</text></g><!--class VisitPurpose--><g id="elem_VisitPurpose"><rect codeLine="130" fill="#F5F5F5" height="110.4375" id="VisitPurpose" rx="2.5" ry="2.5" style="stroke:#181818;stroke-width:0.5;" width="111" x="61.5" y="42"/><ellipse cx="76.5" cy="58" fill="#EB937F" rx="11" ry="11" style="stroke:#181818;stroke-width:1.0;"/><path d="M75.3594,58.7969 L75.3594,61.2969 L79.6875,61.2969 L79.6875,60.375 Q79.6875,59.7656 79.9219,59.5 Q80.1719,59.2344 80.5469,59.2344 Q80.9219,59.2344 81.1563,59.5 Q81.3906,59.7656 81.3906,60.375 L81.3906,63 L73.3906,63 Q72.7656,63 72.5,62.7656 Q72.25,62.5313 72.25,62.1406 Q72.25,61.7656 72.5156,61.5313 Q72.7813,61.2969 73.3906,61.2969 L73.6563,61.2969 L73.6563,54.6406 L73.3906,54.6406 Q72.7656,54.6406 72.5,54.4063 Q72.25,54.1719 72.25,53.7813 Q72.25,53.4063 72.5,53.1719 Q72.7656,52.9375 73.3906,52.9375 L81.0156,52.9375 L81.0156,55.5313 Q81.0156,56.1406 80.7813,56.4063 Q80.5625,56.6563 80.1719,56.6563 Q79.7969,56.6563 79.5625,56.4063 Q79.3281,56.1406 79.3281,55.5313 L79.3281,54.6406 L75.3594,54.6406 L75.3594,57.0938 L76.8438,57.0938 Q76.8438,56.4375 76.9688,56.25 Q77.2344,55.8438 77.7031,55.8438 Q78.0781,55.8438 78.3125,56.1094 Q78.5469,56.3594 78.5469,56.9688 L78.5469,58.9375 Q78.5469,59.4844 78.4219,59.6719 Q78.1563,60.0625 77.7031,60.0625 Q77.2344,60.0625 76.9688,59.6563 Q76.8438,59.4688 76.8438,58.7969 L75.3594,58.7969 Z " fill="#000000"/><text fill="#000000" font-family="sans-serif" font-size="14" lengthAdjust="spacing" textLength="79" x="90.5" y="63.7285">VisitPurpose</text><line style="stroke:#181818;stroke-width:0.5;" x1="62.5" x2="171.5" y1="74" y2="74"/><text fill="#000000" font-family="sans-serif" font-size="14" lengthAdjust="spacing" textLength="38" x="67.5" y="92.5332">LOAD</text><text fill="#000000" font-family="sans-serif" font-size="14" lengthAdjust="spacing" textLength="56" x="67.5" y="110.1426">UNLOAD</text><text fill="#000000" font-family="sans-serif" font-size="14" lengthAdjust="spacing" textLength="38" x="67.5" y="127.752">BOTH</text><text fill="#000000" font-family="sans-serif" font-size="14" lengthAdjust="spacing" textLength="96" x="67.5" y="145.3613">MAINTENANCE</text></g><!--class VesselVisitNotification--><g id="elem_VesselVisitNotification"><rect codeLine="137" fill="#F5F5F5" height="382.7656" id="VesselVisitNotification" rx="2.5" ry="2.5" style="stroke:#181818;stroke-width:0.5;" width="190" x="22" y="332.5"/><ellipse cx="46.45" cy="361.3984" fill="#ADD1B2" rx="11" ry="11" style="stroke:#181818;stroke-width:1.0;"/><path d="M45.3094,362.1953 L45.3094,364.6953 L49.6375,364.6953 L49.6375,363.7734 Q49.6375,363.1641 49.8719,362.8984 Q50.1219,362.6328 50.4969,362.6328 Q50.8719,362.6328 51.1063,362.8984 Q51.3406,363.1641 51.3406,363.7734 L51.3406,366.3984 L43.3406,366.3984 Q42.7156,366.3984 42.45,366.1641 Q42.2,365.9297 42.2,365.5391 Q42.2,365.1641 42.4656,364.9297 Q42.7313,364.6953 43.3406,364.6953 L43.6063,364.6953 L43.6063,358.0391 L43.3406,358.0391 Q42.7156,358.0391 42.45,357.8047 Q42.2,357.5703 42.2,357.1797 Q42.2,356.8047 42.45,356.5703 Q42.7156,356.3359 43.3406,356.3359 L50.9656,356.3359 L50.9656,358.9297 Q50.9656,359.5391 50.7313,359.8047 Q50.5125,360.0547 50.1219,360.0547 Q49.7469,360.0547 49.5125,359.8047 Q49.2781,359.5391 49.2781,358.9297 L49.2781,358.0391 L45.3094,358.0391 L45.3094,360.4922 L46.7938,360.4922 Q46.7938,359.8359 46.9188,359.6484 Q47.1844,359.2422 47.6531,359.2422 Q48.0281,359.2422 48.2625,359.5078 Q48.4969,359.7578 48.4969,360.3672 L48.4969,362.3359 Q48.4969,362.8828 48.3719,363.0703 Q48.1063,363.4609 47.6531,363.4609 Q47.1844,363.4609 46.9188,363.0547 Q46.7938,362.8672 46.7938,362.1953 L45.3094,362.1953 Z " fill="#000000"/><text fill="#000000" font-family="sans-serif" font-size="12" font-style="italic" lengthAdjust="spacing" textLength="43" x="109.55" y="349.957">&#171;entity&#187;</text><text fill="#000000" font-family="sans-serif" font-size="12" font-style="italic" lengthAdjust="spacing" textLength="35" x="113.55" y="365.0508">&#171;root&#187;</text><text fill="#000000" font-family="sans-serif" font-size="14" lengthAdjust="spacing" textLength="137" x="62.55" y="382.2207">VesselVisitNotification</text><line style="stroke:#181818;stroke-width:0.5;" x1="23" x2="211" y1="390.2969" y2="390.2969"/><text fill="#000000" font-family="sans-serif" font-size="14" lengthAdjust="spacing" textLength="104" x="28" y="408.8301">+VvnGuid : Guid</text><text fill="#000000" font-family="sans-serif" font-size="14" lengthAdjust="spacing" textLength="90" x="28" y="426.4395">+VvnId : string</text><text fill="#000000" font-family="sans-serif" font-size="14" lengthAdjust="spacing" textLength="113" x="28" y="444.0488">+State : VVNState</text><text fill="#000000" font-family="sans-serif" font-size="14" lengthAdjust="spacing" textLength="178" x="28" y="461.6582">+VisitPurpose : VisitPurpose</text><text fill="#000000" font-family="sans-serif" font-size="14" lengthAdjust="spacing" textLength="119" x="28" y="479.2676">+VesselImo : string</text><text fill="#000000" font-family="sans-serif" font-size="14" lengthAdjust="spacing" textLength="102" x="28" y="496.877">+Eta : DateTime</text><text fill="#000000" font-family="sans-serif" font-size="14" lengthAdjust="spacing" textLength="102" x="28" y="514.4863">+Etd : DateTime</text><text fill="#000000" font-family="sans-serif" font-size="14" lengthAdjust="spacing" textLength="145" x="28" y="532.0957">+CreatedAt : DateTime</text><text fill="#000000" font-family="sans-serif" font-size="14" lengthAdjust="spacing" textLength="165" x="28" y="549.7051">+SubmittedAt : DateTime?</text><text fill="#000000" font-family="sans-serif" font-size="14" lengthAdjust="spacing" textLength="163" x="28" y="567.3145">+ApprovedAt : DateTime?</text><text fill="#000000" font-family="sans-serif" font-size="14" lengthAdjust="spacing" textLength="158" x="28" y="584.9238">+RejectedAt : DateTime?</text><text fill="#000000" font-family="sans-serif" font-size="14" lengthAdjust="spacing" textLength="171" x="28" y="602.5332">+RejectionReason : string?</text><text fill="#000000" font-family="sans-serif" font-size="14" lengthAdjust="spacing" textLength="4" x="28" y="620.1426">&#160;</text><text fill="#000000" font-family="sans-serif" font-size="14" lengthAdjust="spacing" textLength="124" x="28" y="637.752">+LoadingCount : int</text><text fill="#000000" font-family="sans-serif" font-size="14" lengthAdjust="spacing" textLength="136" x="28" y="655.3613">+UnloadingCount : int</text><text fill="#000000" font-family="sans-serif" font-size="14" lengthAdjust="spacing" textLength="4" x="28" y="672.9707">&#160;</text><text fill="#000000" font-family="sans-serif" font-size="14" lengthAdjust="spacing" textLength="140" x="28" y="690.5801">+CaptainName : string</text><text fill="#000000" font-family="sans-serif" font-size="14" lengthAdjust="spacing" textLength="105" x="28" y="708.1895">+CrewCount : int</text></g><!--class CargoManifest--><g id="elem_CargoManifest"><rect codeLine="159" fill="#F5F5F5" height="75.2188" id="CargoManifest" rx="2.5" ry="2.5" style="stroke:#181818;stroke-width:0.5;" width="125" x="462" y="283.5"/><ellipse cx="477" cy="299.5" fill="#A9DCDF" rx="11" ry="11" style="stroke:#181818;stroke-width:1.0;"/><path d="M479.1875,301.2656 L475.0469,301.2656 L474.625,302.2969 L475.0469,302.2969 Q475.6563,302.2969 475.9219,302.5313 Q476.1875,302.7656 476.1875,303.1563 Q476.1875,303.5313 475.9219,303.7656 Q475.6563,304 475.0469,304 L472.75,304 Q472.1406,304 471.8906,303.7656 Q471.625,303.5313 471.625,303.1406 Q471.625,302.7656 471.9063,302.5313 Q472.1719,302.2813 472.7969,302.2969 L475.4688,295.6406 L474.3594,295.6406 Q473.75,295.6406 473.4844,295.4063 Q473.2188,295.1719 473.2188,294.7813 Q473.2188,294.4063 473.4844,294.1719 Q473.75,293.9375 474.3594,293.9375 L478.0313,293.9375 L481.4219,302.2969 Q482.0156,302.2969 482.2031,302.4375 Q482.5938,302.7031 482.5938,303.1563 Q482.5938,303.5313 482.3281,303.7656 Q482.0781,304 481.4688,304 L479.1719,304 Q478.5625,304 478.2969,303.7656 Q478.0313,303.5313 478.0313,303.1406 Q478.0313,302.7656 478.2969,302.5313 Q478.5625,302.2969 479.1719,302.2969 L479.5938,302.2969 L479.1875,301.2656 Z M478.4688,299.5625 L477.1094,296.1875 L475.7344,299.5625 L478.4688,299.5625 Z " fill="#000000"/><text fill="#000000" font-family="sans-serif" font-size="14" font-style="italic" lengthAdjust="spacing" textLength="93" x="491" y="305.2285">CargoManifest</text><line style="stroke:#181818;stroke-width:0.5;" x1="463" x2="586" y1="315.5" y2="315.5"/><text fill="#000000" font-family="sans-serif" font-size="14" lengthAdjust="spacing" textLength="61" x="468" y="334.0332">+Id : Guid</text><text fill="#000000" font-family="sans-serif" font-size="14" lengthAdjust="spacing" textLength="104" x="468" y="351.6426">+VvnGuid : Guid</text></g><!--class LoadingCargoManifest--><g id="elem_LoadingCargoManifest"><rect codeLine="163" fill="#F5F5F5" height="50.7031" id="LoadingCargoManifest" rx="2.5" ry="2.5" style="stroke:#181818;stroke-width:0.5;" width="175" x="437" y="653.5"/><ellipse cx="452" cy="674.8516" fill="#ADD8E6" rx="11" ry="11" style="stroke:#181818;stroke-width:1.0;"/><path d="M450.1094,679.4141 Q449.8906,679.6797 449.75,679.7578 Q449.6094,679.8359 449.4219,679.8359 Q449.0313,679.8359 448.7813,679.5703 Q448.5469,679.3047 448.5469,678.7109 L448.5469,677.5547 Q448.5469,676.9453 448.7813,676.6953 Q449.0313,676.4297 449.4219,676.4297 Q449.7188,676.4297 449.9219,676.5859 Q450.125,676.7422 450.2344,677.1172 Q450.3438,677.4766 450.4531,677.6172 Q450.7031,677.8672 451.3125,678.1328 Q451.9219,678.3984 452.6563,678.3984 Q453.7969,678.3984 454.5156,677.8672 Q454.9844,677.5391 454.9844,677.0703 Q454.9844,676.7578 454.7656,676.4766 Q454.5469,676.1953 454.0313,676.0234 Q453.7031,675.8984 452.5469,675.6797 Q451.1563,675.4141 450.4375,675.0547 Q449.7188,674.6953 449.2969,674.0391 Q448.8906,673.3672 448.8906,672.5859 Q448.8906,671.3672 449.9063,670.4609 Q450.9375,669.5391 452.5781,669.5391 Q453.2344,669.5391 453.7813,669.6797 Q454.3438,669.8203 454.8125,670.1172 Q455.1406,669.8047 455.4688,669.8047 Q455.8438,669.8047 456.0781,670.0703 Q456.3125,670.3203 456.3125,670.9297 L456.3125,672.2109 Q456.3125,672.8203 456.0781,673.0859 Q455.8438,673.3359 455.4688,673.3359 Q455.1563,673.3359 454.9219,673.1484 Q454.7344,673.0078 454.6406,672.5859 Q454.5625,672.1641 454.4219,671.9766 Q454.1719,671.6641 453.6875,671.4609 Q453.2188,671.2422 452.5781,671.2422 Q451.6563,671.2422 451.125,671.6641 Q450.5938,672.0859 450.5938,672.5547 Q450.5938,672.8672 450.8125,673.1641 Q451.0313,673.4609 451.4531,673.6328 Q451.7344,673.7422 453.0313,674.0078 Q454.3438,674.2578 455.0469,674.5703 Q455.75,674.8672 456.2188,675.5234 Q456.6875,676.1797 456.6875,677.0859 Q456.6875,678.3516 455.7969,679.1016 Q454.6094,680.1016 452.7813,680.1016 Q452.0781,680.1016 451.4063,679.9297 Q450.75,679.7578 450.1094,679.4141 Z " fill="#000000"/><text fill="#000000" font-family="sans-serif" font-size="12" font-style="italic" lengthAdjust="spacing" textLength="63" x="506" y="670.957">&#171;subclass&#187;</text><text fill="#000000" font-family="sans-serif" font-size="14" lengthAdjust="spacing" textLength="143" x="466" y="688.127">LoadingCargoManifest</text><line style="stroke:#181818;stroke-width:0.5;" x1="438" x2="611" y1="696.2031" y2="696.2031"/></g><!--class UnloadingCargoManifest--><g id="elem_UnloadingCargoManifest"><rect codeLine="164" fill="#F5F5F5" height="50.7031" id="UnloadingCargoManifest" rx="2.5" ry="2.5" style="stroke:#181818;stroke-width:0.5;" width="187" x="431" y="567.5"/><ellipse cx="446" cy="588.8516" fill="#ADD8E6" rx="11" ry="11" style="stroke:#181818;stroke-width:1.0;"/><path d="M444.1094,593.4141 Q443.8906,593.6797 443.75,593.7578 Q443.6094,593.8359 443.4219,593.8359 Q443.0313,593.8359 442.7813,593.5703 Q442.5469,593.3047 442.5469,592.7109 L442.5469,591.5547 Q442.5469,590.9453 442.7813,590.6953 Q443.0313,590.4297 443.4219,590.4297 Q443.7188,590.4297 443.9219,590.5859 Q444.125,590.7422 444.2344,591.1172 Q444.3438,591.4766 444.4531,591.6172 Q444.7031,591.8672 445.3125,592.1328 Q445.9219,592.3984 446.6563,592.3984 Q447.7969,592.3984 448.5156,591.8672 Q448.9844,591.5391 448.9844,591.0703 Q448.9844,590.7578 448.7656,590.4766 Q448.5469,590.1953 448.0313,590.0234 Q447.7031,589.8984 446.5469,589.6797 Q445.1563,589.4141 444.4375,589.0547 Q443.7188,588.6953 443.2969,588.0391 Q442.8906,587.3672 442.8906,586.5859 Q442.8906,585.3672 443.9063,584.4609 Q444.9375,583.5391 446.5781,583.5391 Q447.2344,583.5391 447.7813,583.6797 Q448.3438,583.8203 448.8125,584.1172 Q449.1406,583.8047 449.4688,583.8047 Q449.8438,583.8047 450.0781,584.0703 Q450.3125,584.3203 450.3125,584.9297 L450.3125,586.2109 Q450.3125,586.8203 450.0781,587.0859 Q449.8438,587.3359 449.4688,587.3359 Q449.1563,587.3359 448.9219,587.1484 Q448.7344,587.0078 448.6406,586.5859 Q448.5625,586.1641 448.4219,585.9766 Q448.1719,585.6641 447.6875,585.4609 Q447.2188,585.2422 446.5781,585.2422 Q445.6563,585.2422 445.125,585.6641 Q444.5938,586.0859 444.5938,586.5547 Q444.5938,586.8672 444.8125,587.1641 Q445.0313,587.4609 445.4531,587.6328 Q445.7344,587.7422 447.0313,588.0078 Q448.3438,588.2578 449.0469,588.5703 Q449.75,588.8672 450.2188,589.5234 Q450.6875,590.1797 450.6875,591.0859 Q450.6875,592.3516 449.7969,593.1016 Q448.6094,594.1016 446.7813,594.1016 Q446.0781,594.1016 445.4063,593.9297 Q444.75,593.7578 444.1094,593.4141 Z " fill="#000000"/><text fill="#000000" font-family="sans-serif" font-size="12" font-style="italic" lengthAdjust="spacing" textLength="63" x="506" y="584.957">&#171;subclass&#187;</text><text fill="#000000" font-family="sans-serif" font-size="14" lengthAdjust="spacing" textLength="155" x="460" y="602.127">UnloadingCargoManifest</text><line style="stroke:#181818;stroke-width:0.5;" x1="432" x2="617" y1="610.2031" y2="610.2031"/></g><!--class ManifestEntry--><g id="elem_ManifestEntry"><rect codeLine="166" fill="#F5F5F5" height="173.9688" id="ManifestEntry" rx="2.5" ry="2.5" style="stroke:#181818;stroke-width:0.5;" width="188" x="1013" y="531"/><ellipse cx="1059.75" cy="552.3516" fill="#ADD1B2" rx="11" ry="11" style="stroke:#181818;stroke-width:1.0;"/><path d="M1058.6094,553.1484 L1058.6094,555.6484 L1062.9375,555.6484 L1062.9375,554.7266 Q1062.9375,554.1172 1063.1719,553.8516 Q1063.4219,553.5859 1063.7969,553.5859 Q1064.1719,553.5859 1064.4063,553.8516 Q1064.6406,554.1172 1064.6406,554.7266 L1064.6406,557.3516 L1056.6406,557.3516 Q1056.0156,557.3516 1055.75,557.1172 Q1055.5,556.8828 1055.5,556.4922 Q1055.5,556.1172 1055.7656,555.8828 Q1056.0313,555.6484 1056.6406,555.6484 L1056.9063,555.6484 L1056.9063,548.9922 L1056.6406,548.9922 Q1056.0156,548.9922 1055.75,548.7578 Q1055.5,548.5234 1055.5,548.1328 Q1055.5,547.7578 1055.75,547.5234 Q1056.0156,547.2891 1056.6406,547.2891 L1064.2656,547.2891 L1064.2656,549.8828 Q1064.2656,550.4922 1064.0313,550.7578 Q1063.8125,551.0078 1063.4219,551.0078 Q1063.0469,551.0078 1062.8125,550.7578 Q1062.5781,550.4922 1062.5781,549.8828 L1062.5781,548.9922 L1058.6094,548.9922 L1058.6094,551.4453 L1060.0938,551.4453 Q1060.0938,550.7891 1060.2188,550.6016 Q1060.4844,550.1953 1060.9531,550.1953 Q1061.3281,550.1953 1061.5625,550.4609 Q1061.7969,550.7109 1061.7969,551.3203 L1061.7969,553.2891 Q1061.7969,553.8359 1061.6719,554.0234 Q1061.4063,554.4141 1060.9531,554.4141 Q1060.4844,554.4141 1060.2188,554.0078 Q1060.0938,553.8203 1060.0938,553.1484 L1058.6094,553.1484 Z " fill="#000000"/><text fill="#000000" font-family="sans-serif" font-size="12" font-style="italic" lengthAdjust="spacing" textLength="43" x="1101.75" y="548.457">&#171;entity&#187;</text><text fill="#000000" font-family="sans-serif" font-size="14" lengthAdjust="spacing" textLength="86" x="1080.25" y="565.627">ManifestEntry</text><line style="stroke:#181818;stroke-width:0.5;" x1="1014" x2="1200" y1="573.7031" y2="573.7031"/><text fill="#000000" font-family="sans-serif" font-size="14" lengthAdjust="spacing" textLength="61" x="1019" y="592.2363">+Id : Guid</text><text fill="#000000" font-family="sans-serif" font-size="14" lengthAdjust="spacing" textLength="172" x="1019" y="609.8457">+ContainerUniqueId : string</text><text fill="#000000" font-family="sans-serif" font-size="14" lengthAdjust="spacing" textLength="156" x="1019" y="627.4551">+HazardousGoods : bool</text><text fill="#000000" font-family="sans-serif" font-size="14" lengthAdjust="spacing" textLength="135" x="1019" y="645.0645">+ContainerBayNr : int</text><text fill="#000000" font-family="sans-serif" font-size="14" lengthAdjust="spacing" textLength="138" x="1019" y="662.6738">+ContainerRowNr : int</text><text fill="#000000" font-family="sans-serif" font-size="14" lengthAdjust="spacing" textLength="136" x="1019" y="680.2832">+ContainerTierNr : int</text><text fill="#000000" font-family="sans-serif" font-size="14" lengthAdjust="spacing" textLength="176" x="1019" y="697.8926">+GoodsDescription : string?</text></g><!--class CrewMember--><g id="elem_CrewMember"><rect codeLine="176" fill="#F5F5F5" height="138.75" id="CrewMember" rx="2.5" ry="2.5" style="stroke:#181818;stroke-width:0.5;" width="210" x="419.5" y="393.5"/><ellipse cx="478.75" cy="414.8516" fill="#ADD1B2" rx="11" ry="11" style="stroke:#181818;stroke-width:1.0;"/><path d="M477.6094,415.6484 L477.6094,418.1484 L481.9375,418.1484 L481.9375,417.2266 Q481.9375,416.6172 482.1719,416.3516 Q482.4219,416.0859 482.7969,416.0859 Q483.1719,416.0859 483.4063,416.3516 Q483.6406,416.6172 483.6406,417.2266 L483.6406,419.8516 L475.6406,419.8516 Q475.0156,419.8516 474.75,419.6172 Q474.5,419.3828 474.5,418.9922 Q474.5,418.6172 474.7656,418.3828 Q475.0313,418.1484 475.6406,418.1484 L475.9063,418.1484 L475.9063,411.4922 L475.6406,411.4922 Q475.0156,411.4922 474.75,411.2578 Q474.5,411.0234 474.5,410.6328 Q474.5,410.2578 474.75,410.0234 Q475.0156,409.7891 475.6406,409.7891 L483.2656,409.7891 L483.2656,412.3828 Q483.2656,412.9922 483.0313,413.2578 Q482.8125,413.5078 482.4219,413.5078 Q482.0469,413.5078 481.8125,413.2578 Q481.5781,412.9922 481.5781,412.3828 L481.5781,411.4922 L477.6094,411.4922 L477.6094,413.9453 L479.0938,413.9453 Q479.0938,413.2891 479.2188,413.1016 Q479.4844,412.6953 479.9531,412.6953 Q480.3281,412.6953 480.5625,412.9609 Q480.7969,413.2109 480.7969,413.8203 L480.7969,415.7891 Q480.7969,416.3359 480.6719,416.5234 Q480.4063,416.9141 479.9531,416.9141 Q479.4844,416.9141 479.2188,416.5078 Q479.0938,416.3203 479.0938,415.6484 L477.6094,415.6484 Z " fill="#000000"/><text fill="#000000" font-family="sans-serif" font-size="12" font-style="italic" lengthAdjust="spacing" textLength="43" x="519.25" y="410.957">&#171;entity&#187;</text><text fill="#000000" font-family="sans-serif" font-size="14" lengthAdjust="spacing" textLength="83" x="499.25" y="428.127">CrewMember</text><line style="stroke:#181818;stroke-width:0.5;" x1="420.5" x2="628.5" y1="436.2031" y2="436.2031"/><text fill="#000000" font-family="sans-serif" font-size="14" lengthAdjust="spacing" textLength="144" x="425.5" y="454.7363">+CrewMemberId : Guid</text><text fill="#000000" font-family="sans-serif" font-size="14" lengthAdjust="spacing" textLength="91" x="425.5" y="472.3457">+Name : string</text><text fill="#000000" font-family="sans-serif" font-size="14" lengthAdjust="spacing" textLength="108" x="425.5" y="489.9551">+CitizenId : string</text><text fill="#000000" font-family="sans-serif" font-size="14" lengthAdjust="spacing" textLength="120" x="425.5" y="507.5645">+Nationality : string</text><text fill="#000000" font-family="sans-serif" font-size="14" lengthAdjust="spacing" textLength="198" x="425.5" y="525.1738">+VesselVisitNotificationId : Guid</text></g><!--class ImoValidator--><g id="elem_ImoValidator"><rect codeLine="202" fill="#F5F5F5" height="50.7031" id="ImoValidator" rx="2.5" ry="2.5" style="stroke:#181818;stroke-width:0.5;" width="110" x="1483" y="678.5"/><ellipse cx="1498" cy="699.8516" fill="#ADD1B2" rx="11" ry="11" style="stroke:#181818;stroke-width:1.0;"/><path d="M1500.7656,695.7266 Q1500.9219,695.5078 1501.1094,695.3984 Q1501.2969,695.2891 1501.5156,695.2891 Q1501.8906,695.2891 1502.125,695.5547 Q1502.3594,695.8047 1502.3594,696.4141 L1502.3594,697.8672 Q1502.3594,698.4766 1502.125,698.7422 Q1501.8906,699.0078 1501.5156,699.0078 Q1501.1719,699.0078 1500.9688,698.8047 Q1500.7656,698.6172 1500.6563,698.1016 Q1500.6094,697.7422 1500.4219,697.5547 Q1500.0938,697.1797 1499.4844,696.9609 Q1498.875,696.7422 1498.25,696.7422 Q1497.4844,696.7422 1496.8438,697.0703 Q1496.2188,697.3984 1495.7188,698.1484 Q1495.2344,698.8984 1495.2344,699.9297 L1495.2344,701.0234 Q1495.2344,702.2578 1496.125,703.0859 Q1497.0156,703.8984 1498.6094,703.8984 Q1499.5469,703.8984 1500.2031,703.6484 Q1500.5938,703.4922 1501.0156,703.0547 Q1501.2813,702.7891 1501.4219,702.7109 Q1501.5781,702.6328 1501.7813,702.6328 Q1502.1094,702.6328 1502.3594,702.8984 Q1502.625,703.1484 1502.625,703.4922 Q1502.625,703.8359 1502.2813,704.2422 Q1501.7813,704.8203 1500.9844,705.1484 Q1499.9063,705.6016 1498.6094,705.6016 Q1497.0938,705.6016 1495.8906,704.9766 Q1494.9063,704.4766 1494.2188,703.4141 Q1493.5313,702.3359 1493.5313,701.0547 L1493.5313,699.8984 Q1493.5313,698.5703 1494.1406,697.4297 Q1494.7656,696.2734 1495.8594,695.6641 Q1496.9531,695.0391 1498.1875,695.0391 Q1498.9219,695.0391 1499.5625,695.2109 Q1500.2188,695.3672 1500.7656,695.7266 Z " fill="#000000"/><text fill="#000000" font-family="sans-serif" font-size="12" font-style="italic" lengthAdjust="spacing" textLength="42" x="1530" y="695.957">&#171;utility&#187;</text><text fill="#000000" font-family="sans-serif" font-size="14" lengthAdjust="spacing" textLength="78" x="1512" y="713.127">ImoValidator</text><line style="stroke:#181818;stroke-width:0.5;" x1="1484" x2="1592" y1="721.2031" y2="721.2031"/></g><!--class Iso6346--><g id="elem_Iso6346"><rect codeLine="203" fill="#F5F5F5" height="50.7031" id="Iso6346" rx="2.5" ry="2.5" style="stroke:#181818;stroke-width:0.5;" width="82" x="1497" y="592.5"/><ellipse cx="1512" cy="613.8516" fill="#ADD1B2" rx="11" ry="11" style="stroke:#181818;stroke-width:1.0;"/><path d="M1514.7656,609.7266 Q1514.9219,609.5078 1515.1094,609.3984 Q1515.2969,609.2891 1515.5156,609.2891 Q1515.8906,609.2891 1516.125,609.5547 Q1516.3594,609.8047 1516.3594,610.4141 L1516.3594,611.8672 Q1516.3594,612.4766 1516.125,612.7422 Q1515.8906,613.0078 1515.5156,613.0078 Q1515.1719,613.0078 1514.9688,612.8047 Q1514.7656,612.6172 1514.6563,612.1016 Q1514.6094,611.7422 1514.4219,611.5547 Q1514.0938,611.1797 1513.4844,610.9609 Q1512.875,610.7422 1512.25,610.7422 Q1511.4844,610.7422 1510.8438,611.0703 Q1510.2188,611.3984 1509.7188,612.1484 Q1509.2344,612.8984 1509.2344,613.9297 L1509.2344,615.0234 Q1509.2344,616.2578 1510.125,617.0859 Q1511.0156,617.8984 1512.6094,617.8984 Q1513.5469,617.8984 1514.2031,617.6484 Q1514.5938,617.4922 1515.0156,617.0547 Q1515.2813,616.7891 1515.4219,616.7109 Q1515.5781,616.6328 1515.7813,616.6328 Q1516.1094,616.6328 1516.3594,616.8984 Q1516.625,617.1484 1516.625,617.4922 Q1516.625,617.8359 1516.2813,618.2422 Q1515.7813,618.8203 1514.9844,619.1484 Q1513.9063,619.6016 1512.6094,619.6016 Q1511.0938,619.6016 1509.8906,618.9766 Q1508.9063,618.4766 1508.2188,617.4141 Q1507.5313,616.3359 1507.5313,615.0547 L1507.5313,613.8984 Q1507.5313,612.5703 1508.1406,611.4297 Q1508.7656,610.2734 1509.8594,609.6641 Q1510.9531,609.0391 1512.1875,609.0391 Q1512.9219,609.0391 1513.5625,609.2109 Q1514.2188,609.3672 1514.7656,609.7266 Z " fill="#000000"/><text fill="#000000" font-family="sans-serif" font-size="12" font-style="italic" lengthAdjust="spacing" textLength="42" x="1530" y="609.957">&#171;utility&#187;</text><text fill="#000000" font-family="sans-serif" font-size="14" lengthAdjust="spacing" textLength="50" x="1526" y="627.127">Iso6346</text><line style="stroke:#181818;stroke-width:0.5;" x1="1498" x2="1578" y1="635.2031" y2="635.2031"/></g><!--class JsonDateTimeConverter--><g id="elem_JsonDateTimeConverter"><rect codeLine="204" fill="#F5F5F5" height="50.7031" id="JsonDateTimeConverter" rx="2.5" ry="2.5" style="stroke:#181818;stroke-width:0.5;" width="185" x="1445.5" y="506.5"/><ellipse cx="1460.5" cy="527.8516" fill="#ADD1B2" rx="11" ry="11" style="stroke:#181818;stroke-width:1.0;"/><path d="M1463.2656,523.7266 Q1463.4219,523.5078 1463.6094,523.3984 Q1463.7969,523.2891 1464.0156,523.2891 Q1464.3906,523.2891 1464.625,523.5547 Q1464.8594,523.8047 1464.8594,524.4141 L1464.8594,525.8672 Q1464.8594,526.4766 1464.625,526.7422 Q1464.3906,527.0078 1464.0156,527.0078 Q1463.6719,527.0078 1463.4688,526.8047 Q1463.2656,526.6172 1463.1563,526.1016 Q1463.1094,525.7422 1462.9219,525.5547 Q1462.5938,525.1797 1461.9844,524.9609 Q1461.375,524.7422 1460.75,524.7422 Q1459.9844,524.7422 1459.3438,525.0703 Q1458.7188,525.3984 1458.2188,526.1484 Q1457.7344,526.8984 1457.7344,527.9297 L1457.7344,529.0234 Q1457.7344,530.2578 1458.625,531.0859 Q1459.5156,531.8984 1461.1094,531.8984 Q1462.0469,531.8984 1462.7031,531.6484 Q1463.0938,531.4922 1463.5156,531.0547 Q1463.7813,530.7891 1463.9219,530.7109 Q1464.0781,530.6328 1464.2813,530.6328 Q1464.6094,530.6328 1464.8594,530.8984 Q1465.125,531.1484 1465.125,531.4922 Q1465.125,531.8359 1464.7813,532.2422 Q1464.2813,532.8203 1463.4844,533.1484 Q1462.4063,533.6016 1461.1094,533.6016 Q1459.5938,533.6016 1458.3906,532.9766 Q1457.4063,532.4766 1456.7188,531.4141 Q1456.0313,530.3359 1456.0313,529.0547 L1456.0313,527.8984 Q1456.0313,526.5703 1456.6406,525.4297 Q1457.2656,524.2734 1458.3594,523.6641 Q1459.4531,523.0391 1460.6875,523.0391 Q1461.4219,523.0391 1462.0625,523.2109 Q1462.7188,523.3672 1463.2656,523.7266 Z " fill="#000000"/><text fill="#000000" font-family="sans-serif" font-size="12" font-style="italic" lengthAdjust="spacing" textLength="42" x="1530" y="523.957">&#171;utility&#187;</text><text fill="#000000" font-family="sans-serif" font-size="14" lengthAdjust="spacing" textLength="153" x="1474.5" y="541.127">JsonDateTimeConverter</text><line style="stroke:#181818;stroke-width:0.5;" x1="1446.5" x2="1629.5" y1="549.2031" y2="549.2031"/></g><!--reverse link Organization to Representative--><g id="link_Organization_Representative"><path codeLine="45" d="M1226.0367,1428.2498 C1286.8367,1426.8298 1351.4,1425.33 1414.72,1423.85 " fill="none" id="Organization-backto-Representative" style="stroke:#000000;stroke-width:1.0;"/><polygon fill="none" points="1214.04,1428.53,1220.1318,1432.3888,1226.0367,1428.2498,1219.945,1424.391,1214.04,1428.53" style="stroke:#000000;stroke-width:1.0;"/><polygon fill="#000000" points="1306.4986,1415.0592,1297.3875,1412.332,1297.5245,1418.2082,1306.4986,1415.0592" style="stroke:#000000;stroke-width:1.0;"/><text fill="#000000" font-family="sans-serif" font-size="13" lengthAdjust="spacing" textLength="21" x="1310.5" y="1420.4951">has</text><text fill="#000000" font-family="sans-serif" font-size="13" lengthAdjust="spacing" textLength="7" x="1222.1578" y="1442.4418">1</text><text fill="#000000" font-family="sans-serif" font-size="13" lengthAdjust="spacing" textLength="20" x="1387.0148" y="1437.9771">0..*</text></g><!--reverse link Organization to User--><g id="link_Organization_User"><path codeLine="56" d="M1219.3229,1490.9444 C1304.1829,1536.6344 1414.49,1596.03 1481.9,1632.33 " fill="none" id="Organization-backto-User" style="stroke:#000000;stroke-width:1.0;stroke-dasharray:7.0,7.0;"/><polygon fill="#000000" points="1214.04,1488.1,1220.0681,1495.8886,1218.4424,1490.4703,1223.8607,1488.8447,1214.04,1488.1" style="stroke:#000000;stroke-width:1.0;"/><polygon fill="#000000" points="1291.9024,1498.5463,1285.3317,1491.6704,1282.5451,1496.8457,1291.9024,1498.5463" style="stroke:#000000;stroke-width:1.0;"/><text fill="#000000" font-family="sans-serif" font-size="13" lengthAdjust="spacing" textLength="49" x="1296.5" y="1501.4951">employs</text><text fill="#000000" font-family="sans-serif" font-size="13" lengthAdjust="spacing" textLength="7" x="1222.1578" y="1506.3865">1</text><text fill="#000000" font-family="sans-serif" font-size="13" lengthAdjust="spacing" textLength="20" x="1453.8441" y="1643.2284">0..*</text></g><!--link Vessel to VesselType--><g id="link_Vessel_VesselType"><path codeLine="77" d="M652.18,894.04 C767.77,892.24 928.7607,889.7426 1024.6307,888.2626 " fill="none" id="Vessel-to-VesselType" style="stroke:#000000;stroke-width:1.0;"/><polygon fill="#000000" points="1030.63,888.17,1021.5693,884.3094,1025.6306,888.2472,1021.6928,892.3084,1030.63,888.17" style="stroke:#000000;stroke-width:1.0;"/><polygon fill="#000000" points="814.9994,880.0982,805.9098,877.2999,806.001,883.1771,814.9994,880.0982" style="stroke:#000000;stroke-width:1.0;"/><text fill="#000000" font-family="sans-serif" font-size="13" lengthAdjust="spacing" textLength="25" x="819" y="885.4951">type</text><text fill="#000000" font-family="sans-serif" font-size="13" lengthAdjust="spacing" textLength="5" x="660.1128" y="907.9187">*</text><text fill="#000000" font-family="sans-serif" font-size="13" lengthAdjust="spacing" textLength="7" x="1016.0174" y="902.5529">1</text></g><!--link Vessel to Organization--><g id="link_Vessel_Organization"><path codeLine="78" d="M586.69,973.37 C614.53,1007 648.65,1046.14 682,1079 C783.87,1179.4 906.6155,1278.9072 995.0655,1347.3772 " fill="none" id="Vessel-to-Organization" style="stroke:#000000;stroke-width:1.0;"/><polygon fill="#000000" points="999.81,1351.05,995.1417,1342.3778,995.8562,1347.9893,990.2447,1348.7038,999.81,1351.05" style="stroke:#000000;stroke-width:1.0;"/><polygon fill="#000000" points="809.1873,1073.5528,804.5019,1065.2764,800.532,1069.6111,809.1873,1073.5528" style="stroke:#000000;stroke-width:1.0;"/><text fill="#000000" font-family="sans-serif" font-size="13" lengthAdjust="spacing" textLength="34" x="814.5" y="1075.4951">owner</text><text fill="#000000" font-family="sans-serif" font-size="13" lengthAdjust="spacing" textLength="5" x="586.8196" y="994.2234">*</text><text fill="#000000" font-family="sans-serif" font-size="13" lengthAdjust="spacing" textLength="7" x="985.0271" y="1359.4963">1</text></g><!--link Dock to StorageArea--><g id="link_Dock_StorageArea"><path codeLine="102" d="M1178.36,1895.6 C1250.03,1910.47 1361.65,1933.62 1441.33,1950.15 " fill="none" id="Dock-StorageArea" style="stroke:#000000;stroke-width:1.0;"/><text fill="#000000" font-family="sans-serif" font-size="13" lengthAdjust="spacing" textLength="37" x="1296" y="1905.4951">serves</text><text fill="#000000" font-family="sans-serif" font-size="13" lengthAdjust="spacing" textLength="20" x="1186.1146" y="1911.2443">0..*</text><text fill="#000000" font-family="sans-serif" font-size="13" lengthAdjust="spacing" textLength="20" x="1413.4964" y="1962.7712">0..*</text></g><!--link DockAssignment to Dock--><g id="link_DockAssignment_Dock"><path codeLine="120" d="M633.33,1822.37 C750.87,1836.95 929.5956,1859.1217 1029.7656,1871.5417 " fill="none" id="DockAssignment-to-Dock" style="stroke:#000000;stroke-width:1.0;"/><polygon fill="#000000" points="1035.72,1872.28,1027.2806,1867.203,1030.758,1871.6648,1026.2962,1875.1422,1035.72,1872.28" style="stroke:#000000;stroke-width:1.0;"/><polygon fill="#000000" points="793.962,1820.7912,785.3474,1816.7613,784.6239,1822.5944,793.962,1820.7912" style="stroke:#000000;stroke-width:1.0;"/><text fill="#000000" font-family="sans-serif" font-size="13" lengthAdjust="spacing" textLength="67" x="798" y="1825.4951">assigned to</text><text fill="#000000" font-family="sans-serif" font-size="13" lengthAdjust="spacing" textLength="5" x="641.1579" y="1837.3718">*</text><text fill="#000000" font-family="sans-serif" font-size="13" lengthAdjust="spacing" textLength="7" x="1021.0083" y="1885.6956">1</text></g><!--reverse link VesselVisitNotification to Vessel--><g id="link_VesselVisitNotification_Vessel"><path codeLine="186" d="M216.2458,634.3477 C226.1558,644.6677 232.08,650.49 242,660 C300.22,715.85 369.64,774.13 424.97,818.8 " fill="none" id="VesselVisitNotification-backto-Vessel" style="stroke:#000000;stroke-width:1.0;"/><polygon fill="#000000" points="212.09,630.02,215.4385,639.2821,215.5532,633.6264,221.2089,633.7411,212.09,630.02" style="stroke:#000000;stroke-width:1.0;"/><polygon fill="#000000" points="250.7467,654.4868,245.915,646.2949,242.0227,650.6994,250.7467,654.4868" style="stroke:#000000;stroke-width:1.0;"/><text fill="#000000" font-family="sans-serif" font-size="13" lengthAdjust="spacing" textLength="108" x="256" y="656.4951">for vessel (by IMO)</text><text fill="#000000" font-family="sans-serif" font-size="13" lengthAdjust="spacing" textLength="5" x="219.8667" y="652.6244">*</text><text fill="#000000" font-family="sans-serif" font-size="13" lengthAdjust="spacing" textLength="7" x="408.15" y="808.1987">1</text></g><!--reverse link VesselVisitNotification to LoadingCargoManifest--><g id="link_VesselVisitNotification_LoadingCargoManifest"><path codeLine="187" d="M222.8024,581.2779 C232.8124,586.2379 232.17,585.69 242,590 C305.37,617.8 380.18,641.03 436.75,656.78 " fill="none" id="VesselVisitNotification-backto-LoadingCargoManifest" style="stroke:#000000;stroke-width:1.0;"/><polygon fill="none" points="212.05,575.95,215.6502,582.1981,222.8024,581.2779,219.2021,575.0298,212.05,575.95" style="stroke:#000000;stroke-width:1.0;"/><polygon fill="#000000" points="295.215,582.8397,287.6635,577.0582,285.7074,582.601,295.215,582.8397" style="stroke:#000000;stroke-width:1.0;"/><text fill="#000000" font-family="sans-serif" font-size="13" lengthAdjust="spacing" textLength="21" x="299.5" y="586.4951">has</text><text fill="#000000" font-family="sans-serif" font-size="13" lengthAdjust="spacing" textLength="7" x="219.9032" y="594.2457">1</text><text fill="#000000" font-family="sans-serif" font-size="13" lengthAdjust="spacing" textLength="22" x="406.8809" y="669.1678">0..1</text></g><!--reverse link VesselVisitNotification to UnloadingCargoManifest--><g id="link_VesselVisitNotification_UnloadingCargoManifest"><path codeLine="188" d="M223.8798,542.0136 C289.6198,553.2036 365.19,566.06 430.66,577.2 " fill="none" id="VesselVisitNotification-backto-UnloadingCargoManifest" style="stroke:#000000;stroke-width:1.0;"/><polygon fill="none" points="212.05,540,217.2937,544.9501,223.8798,542.0136,218.6361,537.0635,212.05,540" style="stroke:#000000;stroke-width:1.0;"/><polygon fill="#000000" points="295.4291,538.0145,287.0052,533.5999,286.0192,539.3945,295.4291,538.0145" style="stroke:#000000;stroke-width:1.0;"/><text fill="#000000" font-family="sans-serif" font-size="13" lengthAdjust="spacing" textLength="21" x="299.5" y="542.4951">has</text><text fill="#000000" font-family="sans-serif" font-size="13" lengthAdjust="spacing" textLength="7" x="219.9032" y="555.431">1</text><text fill="#000000" font-family="sans-serif" font-size="13" lengthAdjust="spacing" textLength="22" x="400.9608" y="590.1461">0..1</text></g><!--reverse link LoadingCargoManifest to ManifestEntry--><g id="link_LoadingCargoManifest_ManifestEntry"><path codeLine="189" d="M624.0567,670.851 C713.3467,663.241 844.59,651.35 968,637 C982.53,635.31 997.91,633.36 1012.91,631.36 " fill="none" id="LoadingCargoManifest-backto-ManifestEntry" style="stroke:#000000;stroke-width:1.0;"/><polygon fill="none" points="612.1,671.87,618.418,675.346,624.0567,670.851,617.7386,667.3749,612.1,671.87" style="stroke:#000000;stroke-width:1.0;"/><polygon fill="#000000" points="807.9744,627.6706,798.6787,625.6606,799.2726,631.5084,807.9744,627.6706" style="stroke:#000000;stroke-width:1.0;"/><text fill="#000000" font-family="sans-serif" font-size="13" lengthAdjust="spacing" textLength="39" x="812" y="633.4951">entries</text><text fill="#000000" font-family="sans-serif" font-size="13" lengthAdjust="spacing" textLength="7" x="619.9289" y="685.4677">1</text><text fill="#000000" font-family="sans-serif" font-size="13" lengthAdjust="spacing" textLength="20" x="984.9406" y="646.5051">0..*</text></g><!--reverse link UnloadingCargoManifest to ManifestEntry--><g id="link_UnloadingCargoManifest_ManifestEntry"><path codeLine="190" d="M630.1089,597.5063 C738.3089,602.1663 904.28,609.31 1012.75,613.98 " fill="none" id="UnloadingCargoManifest-backto-ManifestEntry" style="stroke:#000000;stroke-width:1.0;"/><polygon fill="none" points="618.12,596.99,623.9423,601.2445,630.1089,597.5063,624.2866,593.2519,618.12,596.99" style="stroke:#000000;stroke-width:1.0;"/><polygon fill="#000000" points="807.9954,591.3908,799.0851,588.0656,798.8322,593.938,807.9954,591.3908" style="stroke:#000000;stroke-width:1.0;"/><text fill="#000000" font-family="sans-serif" font-size="13" lengthAdjust="spacing" textLength="39" x="812" y="596.4951">entries</text><text fill="#000000" font-family="sans-serif" font-size="13" lengthAdjust="spacing" textLength="7" x="625.8593" y="611.4664">1</text><text fill="#000000" font-family="sans-serif" font-size="13" lengthAdjust="spacing" textLength="20" x="985.0941" y="627.7815">0..*</text></g><!--reverse link VesselVisitNotification to CrewMember--><g id="link_VesselVisitNotification_CrewMember"><path codeLine="191" d="M223.9167,508.0662 C285.9167,498.7462 355.3,488.3 419.27,478.68 " fill="none" id="VesselVisitNotification-backto-CrewMember" style="stroke:#000000;stroke-width:1.0;"/><polygon fill="none" points="212.05,509.85,218.5779,512.9136,223.9167,508.0662,217.3887,505.0025,212.05,509.85" style="stroke:#000000;stroke-width:1.0;"/><polygon fill="#000000" points="292.4444,479.432,283.0627,477.8713,283.9371,483.6837,292.4444,479.432" style="stroke:#000000;stroke-width:1.0;"/><text fill="#000000" font-family="sans-serif" font-size="13" lengthAdjust="spacing" textLength="27" x="296.5" y="485.4951">crew</text><text fill="#000000" font-family="sans-serif" font-size="13" lengthAdjust="spacing" textLength="7" x="219.9032" y="522.8784">1</text><text fill="#000000" font-family="sans-serif" font-size="13" lengthAdjust="spacing" textLength="20" x="391.528" y="493.7863">0..*</text></g><!--link VesselVisitNotification to DockAssignment--><g id="link_VesselVisitNotification_DockAssignment"><path codeLine="193" d="M118.26,715.69 C122.07,996.55 142.99,1502.76 242,1652 C282.37,1712.85 349.1501,1750.2544 410.4001,1774.4644 " fill="none" id="VesselVisitNotification-to-DockAssignment" style="stroke:#000000;stroke-width:1.0;"/><polygon fill="#000000" points="415.98,1776.67,409.0805,1769.6417,411.3301,1774.832,406.1397,1777.0816,415.98,1776.67" style="stroke:#000000;stroke-width:1.0;"/><polygon fill="#000000" points="263.8299,1647.9957,264.2571,1638.4947,258.591,1640.0581,263.8299,1647.9957" style="stroke:#000000;stroke-width:1.0;"/><text fill="#000000" font-family="sans-serif" font-size="13" lengthAdjust="spacing" textLength="77" x="271.5" y="1648.4951">scheduled on</text><text fill="#000000" font-family="sans-serif" font-size="13" lengthAdjust="spacing" textLength="22" x="95.8795" y="736.997">0..1</text><text fill="#000000" font-family="sans-serif" font-size="13" lengthAdjust="spacing" textLength="7" x="401.1036" y="1788.4585">1</text></g><!--link VesselVisitNotification to User--><g id="link_VesselVisitNotification_User"><path codeLine="196" d="M210.85,715.57 C221.16,735.74 231.67,755.86 242,775 C394.02,1056.62 440.73,1134.75 682,1345 C800.58,1448.34 831.16,1480.67 976,1542 C1151.87,1616.47 1373.0509,1646.0917 1475.9909,1656.5817 " fill="none" id="VesselVisitNotification-to-User" style="stroke:#000000;stroke-width:1.0;"/><polygon fill="#000000" points="1481.96,1657.19,1473.4119,1652.2982,1476.9858,1656.6831,1472.6009,1660.257,1481.96,1657.19" style="stroke:#000000;stroke-width:1.0;"/><text fill="#000000" font-family="sans-serif" font-size="13" lengthAdjust="spacing" textLength="284" x="683" y="1341.4951">CreatedBy/SubmittedBy/ApprovedBy/RejectedBy</text><text fill="#000000" font-family="sans-serif" font-size="13" lengthAdjust="spacing" textLength="20" x="194.1254" y="736.8723">0..*</text><text fill="#000000" font-family="sans-serif" font-size="13" lengthAdjust="spacing" textLength="22" x="1452.2085" y="1671.096">0..1</text></g><!--link Vessel to ImoValidator--><g id="link_Vessel_ImoValidator"><path codeLine="207" d="M652.07,958.6 C795.87,1020.6 1035.2,1095.8 1225,1017 C1369.91,956.84 1479.2358,798.1578 1518.6258,734.6978 " fill="none" id="Vessel-to-ImoValidator" style="stroke:#000000;stroke-width:1.0;stroke-dasharray:7.0,7.0;"/><polygon fill="#000000" points="1521.79,729.6,1513.6451,735.1372,1519.1531,733.8482,1520.4422,739.3562,1521.79,729.6" style="stroke:#000000;stroke-width:1.0;"/><text fill="#000000" font-family="sans-serif" font-size="13" lengthAdjust="spacing" textLength="78" x="1068" y="1013.4951">validates IMO</text></g><!--link ManifestEntry to Iso6346--><g id="link_ManifestEntry_Iso6346"><path codeLine="208" d="M1201.09,618 C1293.13,618 1423.64,618 1490.76,618 " fill="none" id="ManifestEntry-to-Iso6346" style="stroke:#000000;stroke-width:1.0;stroke-dasharray:7.0,7.0;"/><polygon fill="#000000" points="1496.76,618,1487.76,614,1491.76,618,1487.76,622,1496.76,618" style="stroke:#000000;stroke-width:1.0;"/><text fill="#000000" font-family="sans-serif" font-size="13" lengthAdjust="spacing" textLength="139" x="1245" y="614.4951">validates container code</text></g><!--link VesselVisitNotification to JsonDateTimeConverter--><g id="link_VesselVisitNotification_JsonDateTimeConverter"><path codeLine="209" d="M212.21,391.29 C255.05,342.23 310.24,292.21 373,266 C792.62,90.75 1342.7625,407.9775 1493.0425,503.2475 " fill="none" id="VesselVisitNotification-to-JsonDateTimeConverter" style="stroke:#000000;stroke-width:1.0;stroke-dasharray:7.0,7.0;"/><polygon fill="#000000" points="1498.11,506.46,1492.6504,498.2629,1493.8871,503.7829,1488.3671,505.0195,1498.11,506.46" style="stroke:#000000;stroke-width:1.0;"/><text fill="#000000" font-family="sans-serif" font-size="13" lengthAdjust="spacing" textLength="95" x="777.5" y="212.4951">JSON formatting</text></g><!--SRC=[hHZBRkCsyEwl87pe9kqctMABFHYk5ufj95hOac7B1deAQ8cHsSYYIrBEUXS1-X7zmdv9XzJ3ebvnWUQGY3F3UR-O7Gq8sXEvOu7eYMSQ7p37U-H7M8Wxx3-7d2LnC6OHu-XbHoKHU_PCIfGMv-mbnMyZk5127U28Gr9b4s8QYotZh2hFafBJRIA9xRDuHRyHzA4NaIU994ESXZk90ig9BocBUxrtwBUE7q1ROSX9Y45Zz0CQCqxG8jL7l7MtbocE-iCXphcCHiZb8OxfDwmK47tqlOSGYIML9mE3XiCK2ZU6GywOX0z5Yz1F1g4Te445a57PWUBmH0a72W5EYSCCCmDT8WVlIHLXHPBm6DWSIICw23WHOaRZ6ih3NvralwtByau7Kj5GWG3xseDVEcHLWuR3gyrxnd4Sacjqn5524Dl-0J4RZRItadsD7_gEjC3LWxrOsCxzetK_TJmDMhXBxz5QUm_kqlP-rw2PUs-lF7kyUdGNqwNbkSkUrYOBn98Sm4uuQ4-KG_6zy2tOT9_GtDVc3OsjWZBA9h-EgOGyJKDf81nj7uwKKXNKT8zfL0KkTgmU6bjOlhPZWBQCHRbCJY0V0qi2U09V7jsdGSbZKZEfAohWFIDx-x_q4RkvGVqFjxS_zgiE7Q0T5cZKMY9hGRXP6WhIMHAAGFil_UXmTirnPvCp9l_LqE7jRMwerdE0oFuGiLENYHke8nAPHgQmJZFjFMikiyQqmY0S67dJDQ1eB3zdY5IGAfjwohalCU5lDvZNgjgw2BjKxnBQfFs429_JW_PoZlhybcLp_7N9NaGDw44Nh4FlyAa4V5N1pMBGXrZUt8nqU4ls3P1KVqPDP4PQ311JVkn8W0dpdytmAqYd1ySi89TuRiPyRBYjQFjnA7Tp00SisKQaSFIX0GhkcN3y90s4Tb6BGIi99HCI2_gAQLS9qMbUYUwo36cp4rIl9KZkmeHpqC3r_UI0Ox-6Nn5-9CAA8XsUSyVKXki0POL-xcrbyq0HpQ0pwfOGD8pte4Oz_cTSfwjCqkemMadCvLhwPcVNlIyE6k5mGoRAN9Dn2iv7jPwxJGJ5x1q_J2VhsNII7ctdSR5qxvVJrKgVn-vyCPjwqqbwifpnT0R4lSAt9UFBXQNTFa1OOqcWzhYElae5bG9TRJRETUvTK1kEIjTYJIZfbkc-lflRNgwSjG3i9Ziifr-cOqzPfPfUmL49MYJym4J1TUPQwPMrKtpUkTw3_fXRjkDD7MLsIbtUED9-edawJ2rj_jjRuEOOgw2RiGTWlNXIqmU55tBQiWa3usZqR1WwjI4gSKDsoQ0ERDapj5h9Tazb5PdtP-jmuEpOWbmIDOyxaU2-9RGYOteKZGC7S1x3Qq8QvR-EephgF7Cal3aQ1oqdBoOp7Tjtq8bY-aI4L3M4jt07-pBRDSQOXop7j-wLjHYVbvNS28CFh2whzv5wvMnXRRb68jbgQhquPqjEOUEbDyzfcbDFOybFb-p5OnOhfn6-ZkcVISFaVy3VC8Vv8kuPl1qhAsf-6UQqmyq-dgDWshUXrColuBIGjiMYN8ygedEY5wq6Ay_Oght_rtRVqWzi8nDUrVjrIQBqAOcmVXsh8k-rjHFLLeTgT1Lh3V1xWjVqCJrSRK_8dhlNnORJmAAqsSDdOnRc-_s5F5eoCkVIAABom30JSw32o2bHjrkONtp_4Xk0GIbX1iY7WvfHhNTJkyi3hZJx81Ny7GcI26OT48zKbFMx0YS1bOZd0T_HW-WKaS_GpClfqoJhntUdduls2zzviuNFlBNUdIxuzyXgXpcekPOKibWvx2fc4XK3MLoZV_xw6x53ckZeI4K2-PukoMznBoPyAYITvcaFWucq0Ju1XjqB2ZJHua-b9cSBzkdZhvyQSLzW9kGZ0vh5aN19J2xdTy3jxSWKDb0FGlKDjaAbzCp4qUIPw3Abd_Sa-0f8Qz3KzMRj1kZBodLKgUwnbAfF_0i0]--></g></svg>