<?xml version="1.0" encoding="us-ascii" standalone="no"?><svg xmlns="http://www.w3.org/2000/svg" xmlns:xlink="http://www.w3.org/1999/xlink" contentStyleType="text/css" height="1022px" preserveAspectRatio="none" style="width:1770px;height:1022px;background:#FFFFFF;" version="1.1" viewBox="0 0 1770 1022" width="1770px" zoomAndPan="magnify"><defs/><g><text fill="#000000" font-family="sans-serif" font-size="14" font-weight="bold" lengthAdjust="spacing" textLength="186" x="793.25" y="29.5332">SSD - Update Storage Area</text><rect fill="#FFFFFF" height="146.7578" style="stroke:#181818;stroke-width:1.0;" width="10" x="1018" y="200.2734"/><rect fill="none" height="617.1875" style="stroke:#000000;stroke-width:1.5;" width="1143" x="620.5" y="306.3281"/><rect fill="none" height="495.2969" style="stroke:#000000;stroke-width:1.5;" width="1123" x="630.5" y="421.2188"/><rect fill="none" height="94.8906" style="stroke:#000000;stroke-width:1.5;" width="688.5" x="931.5" y="539.4609"/><rect fill="none" height="139.7578" style="stroke:#000000;stroke-width:1.5;" width="812" x="931.5" y="648.3516"/><line style="stroke:#181818;stroke-width:0.5;stroke-dasharray:5.0,5.0;" x1="74" x2="74" y1="121.2188" y2="940.5156"/><line style="stroke:#181818;stroke-width:0.5;stroke-dasharray:5.0,5.0;" x1="703.5" x2="703.5" y1="121.2188" y2="940.5156"/><line style="stroke:#181818;stroke-width:0.5;stroke-dasharray:5.0,5.0;" x1="1022.5" x2="1022.5" y1="121.2188" y2="940.5156"/><line style="stroke:#181818;stroke-width:0.5;stroke-dasharray:5.0,5.0;" x1="1557" x2="1557" y1="121.2188" y2="940.5156"/><line style="stroke:#181818;stroke-width:0.5;stroke-dasharray:5.0,5.0;" x1="1683.5" x2="1683.5" y1="121.2188" y2="940.5156"/><text fill="#000000" font-family="sans-serif" font-size="14" lengthAdjust="spacing" textLength="132" x="5" y="118.1426">Port Authority Officer</text><ellipse cx="74" cy="52.1094" fill="#E2E2F0" rx="8" ry="8" style="stroke:#181818;stroke-width:0.5;"/><path d="M74,60.1094 L74,87.1094 M61,68.1094 L87,68.1094 M74,87.1094 L61,102.1094 M74,87.1094 L87,102.1094 " fill="none" style="stroke:#181818;stroke-width:0.5;"/><text fill="#000000" font-family="sans-serif" font-size="14" lengthAdjust="spacing" textLength="132" x="5" y="954.0488">Port Authority Officer</text><ellipse cx="74" cy="965.625" fill="#E2E2F0" rx="8" ry="8" style="stroke:#181818;stroke-width:0.5;"/><path d="M74,973.625 L74,1000.625 M61,981.625 L87,981.625 M74,1000.625 L61,1015.625 M74,1000.625 L87,1015.625 " fill="none" style="stroke:#181818;stroke-width:0.5;"/><rect fill="#E2E2F0" height="31.6094" rx="2.5" ry="2.5" style="stroke:#181818;stroke-width:0.5;" width="127" x="640.5" y="88.6094"/><text fill="#000000" font-family="sans-serif" font-size="14" lengthAdjust="spacing" textLength="113" x="647.5" y="110.1426">Scalar / API Client</text><rect fill="#E2E2F0" height="31.6094" rx="2.5" ry="2.5" style="stroke:#181818;stroke-width:0.5;" width="127" x="640.5" y="939.5156"/><text fill="#000000" font-family="sans-serif" font-size="14" lengthAdjust="spacing" textLength="113" x="647.5" y="961.0488">Scalar / API Client</text><rect fill="#E2E2F0" height="31.6094" rx="2.5" ry="2.5" style="stroke:#181818;stroke-width:0.5;" width="163" x="941.5" y="88.6094"/><text fill="#000000" font-family="sans-serif" font-size="14" lengthAdjust="spacing" textLength="149" x="948.5" y="110.1426">StorageAreasController</text><rect fill="#E2E2F0" height="31.6094" rx="2.5" ry="2.5" style="stroke:#181818;stroke-width:0.5;" width="163" x="941.5" y="939.5156"/><text fill="#000000" font-family="sans-serif" font-size="14" lengthAdjust="spacing" textLength="149" x="948.5" y="961.0488">StorageAreasController</text><rect fill="#E2E2F0" height="31.6094" rx="2.5" ry="2.5" style="stroke:#181818;stroke-width:0.5;" width="106" x="1504" y="88.6094"/><text fill="#000000" font-family="sans-serif" font-size="14" lengthAdjust="spacing" textLength="92" x="1511" y="110.1426">PortDbContext</text><rect fill="#E2E2F0" height="31.6094" rx="2.5" ry="2.5" style="stroke:#181818;stroke-width:0.5;" width="106" x="1504" y="939.5156"/><text fill="#000000" font-family="sans-serif" font-size="14" lengthAdjust="spacing" textLength="92" x="1511" y="961.0488">PortDbContext</text><text fill="#000000" font-family="sans-serif" font-size="14" lengthAdjust="spacing" textLength="93" x="1634.5" y="118.1426">EF (InMemory)</text><path d="M1666,67.6094 C1666,57.6094 1684,57.6094 1684,57.6094 C1684,57.6094 1702,57.6094 1702,67.6094 L1702,93.6094 C1702,103.6094 1684,103.6094 1684,103.6094 C1684,103.6094 1666,103.6094 1666,93.6094 L1666,67.6094 " fill="#E2E2F0" style="stroke:#181818;stroke-width:1.5;"/><path d="M1666,67.6094 C1666,77.6094 1684,77.6094 1684,77.6094 C1684,77.6094 1702,77.6094 1702,67.6094 " fill="none" style="stroke:#181818;stroke-width:1.5;"/><text fill="#000000" font-family="sans-serif" font-size="14" lengthAdjust="spacing" textLength="93" x="1634.5" y="954.0488">EF (InMemory)</text><path d="M1666,967.125 C1666,957.125 1684,957.125 1684,957.125 C1684,957.125 1702,957.125 1702,967.125 L1702,993.125 C1702,1003.125 1684,1003.125 1684,1003.125 C1684,1003.125 1666,1003.125 1666,993.125 L1666,967.125 " fill="#E2E2F0" style="stroke:#181818;stroke-width:1.5;"/><path d="M1666,967.125 C1666,977.125 1684,977.125 1684,977.125 C1684,977.125 1702,977.125 1702,967.125 " fill="none" style="stroke:#181818;stroke-width:1.5;"/><rect fill="#FFFFFF" height="146.7578" style="stroke:#181818;stroke-width:1.0;" width="10" x="1018" y="200.2734"/><polygon fill="#181818" points="692,165.9219,702,169.9219,692,173.9219,696,169.9219" style="stroke:#181818;stroke-width:1.0;"/><line style="stroke:#181818;stroke-width:1.0;" x1="74" x2="698" y1="169.9219" y2="169.9219"/><text fill="#000000" font-family="sans-serif" font-size="13" lengthAdjust="spacing" textLength="151" x="81" y="148.7139">PUT /api/storageareas/{id}</text><text fill="#000000" font-family="sans-serif" font-size="13" lengthAdjust="spacing" textLength="606" x="81" y="165.0654">{ Name, Location, MaxCapacityTEU, ServesAllDocks, ServedDockCodes, YardNotes, WarehouseNotes }</text><polygon fill="#181818" points="1006,196.2734,1016,200.2734,1006,204.2734,1010,200.2734" style="stroke:#181818;stroke-width:1.0;"/><line style="stroke:#181818;stroke-width:1.0;" x1="704" x2="1012" y1="200.2734" y2="200.2734"/><text fill="#000000" font-family="sans-serif" font-size="13" lengthAdjust="spacing" textLength="85" x="711" y="195.417">Update(id, dto)</text><polygon fill="#181818" points="1545,226.625,1555,230.625,1545,234.625,1549,230.625" style="stroke:#181818;stroke-width:1.0;"/><line style="stroke:#181818;stroke-width:1.0;" x1="1028" x2="1551" y1="230.625" y2="230.625"/><text fill="#000000" font-family="sans-serif" font-size="13" lengthAdjust="spacing" textLength="443" x="1035" y="225.7686">Include(sa =&gt; sa.Docks).FirstOrDefaultAsync(sa =&gt; sa.StorageAreaId == id)</text><polygon fill="#181818" points="1672,256.9766,1682,260.9766,1672,264.9766,1676,260.9766" style="stroke:#181818;stroke-width:1.0;"/><line style="stroke:#181818;stroke-width:1.0;" x1="1557" x2="1678" y1="260.9766" y2="260.9766"/><text fill="#000000" font-family="sans-serif" font-size="13" lengthAdjust="spacing" textLength="32" x="1564" y="256.1201">query</text><polygon fill="#181818" points="1568,287.3281,1558,291.3281,1568,295.3281,1564,291.3281" style="stroke:#181818;stroke-width:1.0;"/><line style="stroke:#181818;stroke-width:1.0;stroke-dasharray:2.0,2.0;" x1="1562" x2="1683" y1="291.3281" y2="291.3281"/><text fill="#000000" font-family="sans-serif" font-size="13" lengthAdjust="spacing" textLength="103" x="1574" y="286.4717">StorageArea | null</text><path d="M620.5,306.3281 L681.5,306.3281 L681.5,314.6797 L671.5,324.6797 L620.5,324.6797 L620.5,306.3281 " fill="#EEEEEE" style="stroke:#000000;stroke-width:1.5;"/><rect fill="none" height="617.1875" style="stroke:#000000;stroke-width:1.5;" width="1143" x="620.5" y="306.3281"/><text fill="#000000" font-family="sans-serif" font-size="13" font-weight="bold" lengthAdjust="spacing" textLength="16" x="635.5" y="320.8232">alt</text><text fill="#000000" font-family="sans-serif" font-size="11" font-weight="bold" lengthAdjust="spacing" textLength="61" x="696.5" y="319.7471">[not found]</text><polygon fill="#181818" points="715,343.0313,705,347.0313,715,351.0313,711,347.0313" style="stroke:#181818;stroke-width:1.0;"/><line style="stroke:#181818;stroke-width:1.0;stroke-dasharray:2.0,2.0;" x1="709" x2="1022" y1="347.0313" y2="347.0313"/><text fill="#000000" font-family="sans-serif" font-size="13" lengthAdjust="spacing" textLength="85" x="721" y="342.1748">404 Not Found</text><line style="stroke:#000000;stroke-width:1.0;stroke-dasharray:2.0,2.0;" x1="620.5" x2="1763.5" y1="356.0313" y2="356.0313"/><text fill="#000000" font-family="sans-serif" font-size="11" font-weight="bold" lengthAdjust="spacing" textLength="40" x="625.5" y="367.4502">[found]</text><line style="stroke:#181818;stroke-width:1.0;" x1="1023" x2="1065" y1="393.2188" y2="393.2188"/><line style="stroke:#181818;stroke-width:1.0;" x1="1065" x2="1065" y1="393.2188" y2="406.2188"/><line style="stroke:#181818;stroke-width:1.0;" x1="1024" x2="1065" y1="406.2188" y2="406.2188"/><polygon fill="#181818" points="1034,402.2188,1024,406.2188,1034,410.2188,1030,406.2188" style="stroke:#181818;stroke-width:1.0;"/><text fill="#000000" font-family="sans-serif" font-size="13" lengthAdjust="spacing" textLength="401" x="1030" y="388.3623">validate dto.MaxCapacityTEU &gt;= storageArea.CurrentOccupancyTEU</text><path d="M630.5,421.2188 L691.5,421.2188 L691.5,429.5703 L681.5,439.5703 L630.5,439.5703 L630.5,421.2188 " fill="#EEEEEE" style="stroke:#000000;stroke-width:1.5;"/><rect fill="none" height="495.2969" style="stroke:#000000;stroke-width:1.5;" width="1123" x="630.5" y="421.2188"/><text fill="#000000" font-family="sans-serif" font-size="13" font-weight="bold" lengthAdjust="spacing" textLength="16" x="645.5" y="435.7139">alt</text><text fill="#000000" font-family="sans-serif" font-size="11" font-weight="bold" lengthAdjust="spacing" textLength="96" x="706.5" y="434.6377">[capacity too low]</text><polygon fill="#181818" points="715,474.2734,705,478.2734,715,482.2734,711,478.2734" style="stroke:#181818;stroke-width:1.0;"/><line style="stroke:#181818;stroke-width:1.0;stroke-dasharray:2.0,2.0;" x1="709" x2="1022" y1="478.2734" y2="478.2734"/><text fill="#000000" font-family="sans-serif" font-size="13" lengthAdjust="spacing" textLength="100" x="721" y="457.0654">400 Bad Request</text><text fill="#000000" font-family="sans-serif" font-size="13" lengthAdjust="spacing" textLength="295" x="721" y="473.417">"Cannot reduce capacity below current occupancy"</text><line style="stroke:#000000;stroke-width:1.0;stroke-dasharray:2.0,2.0;" x1="630.5" x2="1753.5" y1="487.2734" y2="487.2734"/><text fill="#000000" font-family="sans-serif" font-size="11" font-weight="bold" lengthAdjust="spacing" textLength="74" x="635.5" y="498.6924">[valid update]</text><polygon fill="#181818" points="1545,520.4609,1555,524.4609,1545,528.4609,1549,524.4609" style="stroke:#181818;stroke-width:1.0;"/><line style="stroke:#181818;stroke-width:1.0;" x1="1023" x2="1551" y1="524.4609" y2="524.4609"/><text fill="#000000" font-family="sans-serif" font-size="13" lengthAdjust="spacing" textLength="510" x="1030" y="519.6045">storageArea.Update(dto.Name, dto.Location, dto.MaxCapacityTEU, dto.ServesAllDocks)</text><path d="M931.5,539.4609 L992.5,539.4609 L992.5,547.8125 L982.5,557.8125 L931.5,557.8125 L931.5,539.4609 " fill="#EEEEEE" style="stroke:#000000;stroke-width:1.5;"/><rect fill="none" height="94.8906" style="stroke:#000000;stroke-width:1.5;" width="688.5" x="931.5" y="539.4609"/><text fill="#000000" font-family="sans-serif" font-size="13" font-weight="bold" lengthAdjust="spacing" textLength="16" x="946.5" y="553.9561">alt</text><text fill="#000000" font-family="sans-serif" font-size="11" font-weight="bold" lengthAdjust="spacing" textLength="236" x="1007.5" y="552.8799">[Type is YARD and dto.YardNotes provided]</text><polygon fill="#181818" points="1545,576.1641,1555,580.1641,1545,584.1641,1549,580.1641" style="stroke:#181818;stroke-width:1.0;"/><line style="stroke:#181818;stroke-width:1.0;" x1="1023" x2="1551" y1="580.1641" y2="580.1641"/><text fill="#000000" font-family="sans-serif" font-size="13" lengthAdjust="spacing" textLength="242" x="1030" y="575.3076">storageArea.SetYardSpec(dto.YardNotes)</text><line style="stroke:#000000;stroke-width:1.0;stroke-dasharray:2.0,2.0;" x1="931.5" x2="1620" y1="589.1641" y2="589.1641"/><text fill="#000000" font-family="sans-serif" font-size="11" font-weight="bold" lengthAdjust="spacing" textLength="311" x="936.5" y="600.583">[Type is WAREHOUSE and dto.WarehouseNotes provided]</text><polygon fill="#181818" points="1545,622.3516,1555,626.3516,1545,630.3516,1549,626.3516" style="stroke:#181818;stroke-width:1.0;"/><line style="stroke:#181818;stroke-width:1.0;" x1="1023" x2="1551" y1="626.3516" y2="626.3516"/><text fill="#000000" font-family="sans-serif" font-size="13" lengthAdjust="spacing" textLength="320" x="1030" y="621.4951">storageArea.SetWarehouseSpec(dto.WarehouseNotes)</text><path d="M931.5,648.3516 L992.5,648.3516 L992.5,656.7031 L982.5,666.7031 L931.5,666.7031 L931.5,648.3516 " fill="#EEEEEE" style="stroke:#000000;stroke-width:1.5;"/><rect fill="none" height="139.7578" style="stroke:#000000;stroke-width:1.5;" width="812" x="931.5" y="648.3516"/><text fill="#000000" font-family="sans-serif" font-size="13" font-weight="bold" lengthAdjust="spacing" textLength="16" x="946.5" y="662.8467">alt</text><text fill="#000000" font-family="sans-serif" font-size="11" font-weight="bold" lengthAdjust="spacing" textLength="296" x="1007.5" y="661.7705">[not ServesAllDocks and ServedDockCodes provided]</text><polygon fill="#181818" points="1545,685.0547,1555,689.0547,1545,693.0547,1549,689.0547" style="stroke:#181818;stroke-width:1.0;"/><line style="stroke:#181818;stroke-width:1.0;" x1="1023" x2="1551" y1="689.0547" y2="689.0547"/><text fill="#000000" font-family="sans-serif" font-size="13" lengthAdjust="spacing" textLength="393" x="1030" y="684.1982">Where(d =&gt; dto.ServedDockCodes.Contains(d.Code)).ToListAsync()</text><polygon fill="#181818" points="1672,715.4063,1682,719.4063,1672,723.4063,1676,719.4063" style="stroke:#181818;stroke-width:1.0;"/><line style="stroke:#181818;stroke-width:1.0;" x1="1557" x2="1678" y1="719.4063" y2="719.4063"/><text fill="#000000" font-family="sans-serif" font-size="13" lengthAdjust="spacing" textLength="32" x="1564" y="714.5498">query</text><polygon fill="#181818" points="1568,745.7578,1558,749.7578,1568,753.7578,1564,749.7578" style="stroke:#181818;stroke-width:1.0;"/><line style="stroke:#181818;stroke-width:1.0;stroke-dasharray:2.0,2.0;" x1="1562" x2="1683" y1="749.7578" y2="749.7578"/><text fill="#000000" font-family="sans-serif" font-size="13" lengthAdjust="spacing" textLength="67" x="1574" y="744.9014">List&lt;Dock&gt;</text><polygon fill="#181818" points="1545,776.1094,1555,780.1094,1545,784.1094,1549,780.1094" style="stroke:#181818;stroke-width:1.0;"/><line style="stroke:#181818;stroke-width:1.0;" x1="1023" x2="1551" y1="780.1094" y2="780.1094"/><text fill="#000000" font-family="sans-serif" font-size="13" lengthAdjust="spacing" textLength="213" x="1030" y="775.2529">storageArea.SetServedDocks(docks)</text><polygon fill="#181818" points="1545,813.4609,1555,817.4609,1545,821.4609,1549,817.4609" style="stroke:#181818;stroke-width:1.0;"/><line style="stroke:#181818;stroke-width:1.0;" x1="1023" x2="1551" y1="817.4609" y2="817.4609"/><text fill="#000000" font-family="sans-serif" font-size="13" lengthAdjust="spacing" textLength="124" x="1030" y="812.6045">SaveChangesAsync()</text><polygon fill="#181818" points="1672,843.8125,1682,847.8125,1672,851.8125,1676,847.8125" style="stroke:#181818;stroke-width:1.0;"/><line style="stroke:#181818;stroke-width:1.0;" x1="1557" x2="1678" y1="847.8125" y2="847.8125"/><text fill="#000000" font-family="sans-serif" font-size="13" lengthAdjust="spacing" textLength="39" x="1564" y="842.9561">update</text><polygon fill="#181818" points="1568,874.1641,1558,878.1641,1568,882.1641,1564,878.1641" style="stroke:#181818;stroke-width:1.0;"/><line style="stroke:#181818;stroke-width:1.0;stroke-dasharray:2.0,2.0;" x1="1562" x2="1683" y1="878.1641" y2="878.1641"/><text fill="#000000" font-family="sans-serif" font-size="13" lengthAdjust="spacing" textLength="14" x="1574" y="873.3076">ok</text><polygon fill="#181818" points="715,904.5156,705,908.5156,715,912.5156,711,908.5156" style="stroke:#181818;stroke-width:1.0;"/><line style="stroke:#181818;stroke-width:1.0;stroke-dasharray:2.0,2.0;" x1="709" x2="1022" y1="908.5156" y2="908.5156"/><text fill="#000000" font-family="sans-serif" font-size="13" lengthAdjust="spacing" textLength="210" x="721" y="903.6592">200 OK + StorageAreaResponseDto</text><!--SRC=[ZLJTRzem47_FNt7YYMXyL5EVfe744ggXjQKYeAfINunz5AkkdTaEA-hwlyzs0aaOrVO0yiVTx-Dy5ykjGCYo5FgmoXcnRcEL9ay84uqaYWXrM-ZSAMrXKjYjqjpkORxPS8gw0yJ0og2ESg8jfpmdqa8deqGG3KEOtCqW4Hob3P7byYIsPFDa9b7IQYL41Poq8xs4TErZyBN4IzUHKqpMn21qfbVGdSaRV55w7uTh3urHvFL1VronmnUuMorXI78-D2KtyTp3DyxU7-KRt98NxC6reiHo9NjmGruJaXFgR2-dgnvag7Te9aAaYZwRQi_y9b4CtS43qUnMMR-yTz1RLHWCUtYFAWrUZHDI5hpBMG-OLR6lDT_v9qYYAF51wTf5pIGL1SEk8J0QWo63G1mFhhWsTgvJt912s8dPIrh7DCewOp0Q0MTnvE0SQ2YBm_rPeDv7vQv_86lamM-GXH2k1OG5gIniL25P14vwlrdEoujBSFxWghfcsF21mhrD8x4qlYE2XrvpjWVj0iDu1AOMCKWAhHtFdDB2jG7r8Gx9Iw9L4bYbGAXVxlYCjWluHXWiqBarzb5s4YAz5usie5XZhD4X02t9G1tOEW6qvGWWU0eMe0WlU62kQjYKNpsnzrasbb_LpVMt__AitMHn80X_tlXodoDm0m-JHGf4if1nx3h8jTfnXYp4VwGhG-ipiXnfjvLUSWMB1vxxoMBwVRxAfaUoaxx-NyPZsf6s3LHnkruvUlLlrIv6474oT1yhkD-YTkNtKt6iQvqty5yJmgNfie4_YEF1KbrpKqrJNC6TcvlovcHwVEfNZpx-Lobg8OwxVkEZzpen8pjCjaG-kH8qLBKrDVhmH99wZiuDncSt6FCVyAavy0iqkP86KwlEjhtJvdv_0000]--></g></svg>