<?xml version="1.0" encoding="us-ascii" standalone="no"?><svg xmlns="http://www.w3.org/2000/svg" xmlns:xlink="http://www.w3.org/1999/xlink" contentStyleType="text/css" height="965px" preserveAspectRatio="none" style="width:560px;height:965px;background:#FFFFFF;" version="1.1" viewBox="0 0 560 965" width="560px" zoomAndPan="magnify"><defs/><g><text fill="#000000" font-family="sans-serif" font-size="14" font-weight="bold" lengthAdjust="spacing" textLength="262" x="142" y="24.5332">C4 Container - US 2.2.4 Storage Areas</text><!--cluster Client Layer--><g id="cluster_Client Layer"><polygon fill="none" points="161,213.1094,171,203.1094,320,203.1094,320,298.1094,310,308.1094,161,308.1094,161,213.1094" style="stroke:#181818;stroke-width:1.0;"/><line style="stroke:#181818;stroke-width:1.0;" x1="310" x2="320" y1="213.1094" y2="203.1094"/><line style="stroke:#181818;stroke-width:1.0;" x1="161" x2="310" y1="213.1094" y2="213.1094"/><line style="stroke:#181818;stroke-width:1.0;" x1="310" x2="310" y1="213.1094" y2="308.1094"/><text fill="#000000" font-family="sans-serif" font-size="14" font-weight="bold" lengthAdjust="spacing" textLength="83" x="195" y="230.6426">Client Layer</text></g><!--cluster Web API--><g id="cluster_Web API"><polygon fill="none" points="129,368.1094,139,358.1094,351,358.1094,351,453.1094,341,463.1094,129,463.1094,129,368.1094" style="stroke:#181818;stroke-width:1.0;"/><line style="stroke:#181818;stroke-width:1.0;" x1="341" x2="351" y1="368.1094" y2="358.1094"/><line style="stroke:#181818;stroke-width:1.0;" x1="129" x2="341" y1="368.1094" y2="368.1094"/><line style="stroke:#181818;stroke-width:1.0;" x1="341" x2="341" y1="368.1094" y2="463.1094"/><text fill="#000000" font-family="sans-serif" font-size="14" font-weight="bold" lengthAdjust="spacing" textLength="57" x="207.5" y="385.6426">Web API</text></g><!--cluster Application Layer--><g id="cluster_Application Layer"><polygon fill="none" points="140,523.1094,150,513.1094,340,513.1094,340,608.1094,330,618.1094,140,618.1094,140,523.1094" style="stroke:#181818;stroke-width:1.0;"/><line style="stroke:#181818;stroke-width:1.0;" x1="330" x2="340" y1="523.1094" y2="513.1094"/><line style="stroke:#181818;stroke-width:1.0;" x1="140" x2="330" y1="523.1094" y2="523.1094"/><line style="stroke:#181818;stroke-width:1.0;" x1="330" x2="330" y1="523.1094" y2="618.1094"/><text fill="#000000" font-family="sans-serif" font-size="14" font-weight="bold" lengthAdjust="spacing" textLength="120" x="176" y="540.6426">Application Layer</text></g><!--cluster Dom--><g id="cluster_Dom"><polygon fill="none" points="16,689.1094,26,679.1094,248,679.1094,248,938.1094,238,948.1094,16,948.1094,16,689.1094" style="stroke:#181818;stroke-width:1.0;"/><line style="stroke:#181818;stroke-width:1.0;" x1="238" x2="248" y1="689.1094" y2="679.1094"/><line style="stroke:#181818;stroke-width:1.0;" x1="16" x2="238" y1="689.1094" y2="689.1094"/><line style="stroke:#181818;stroke-width:1.0;" x1="238" x2="238" y1="689.1094" y2="948.1094"/><text fill="#000000" font-family="sans-serif" font-size="14" font-weight="bold" lengthAdjust="spacing" textLength="52" x="102" y="706.6426">Domain</text></g><!--entity Client--><g id="elem_Client"><rect fill="#F1F1F1" height="47.6094" rx="2.5" ry="2.5" style="stroke:#181818;stroke-width:0.5;" width="125" x="177.5" y="244.1094"/><rect fill="#F1F1F1" height="10" style="stroke:#181818;stroke-width:0.5;" width="15" x="282.5" y="249.1094"/><rect fill="#F1F1F1" height="2" style="stroke:#181818;stroke-width:0.5;" width="4" x="280.5" y="251.1094"/><rect fill="#F1F1F1" height="2" style="stroke:#181818;stroke-width:0.5;" width="4" x="280.5" y="255.1094"/><text fill="#000000" font-family="sans-serif" font-size="14" lengthAdjust="spacing" textLength="85" x="192.5" y="278.6426">UI / API Client</text></g><!--entity Ctl--><g id="elem_Ctl"><rect fill="#F1F1F1" height="47.6094" rx="2.5" ry="2.5" style="stroke:#181818;stroke-width:0.5;" width="189" x="145.5" y="399.1094"/><rect fill="#F1F1F1" height="10" style="stroke:#181818;stroke-width:0.5;" width="15" x="314.5" y="404.1094"/><rect fill="#F1F1F1" height="2" style="stroke:#181818;stroke-width:0.5;" width="4" x="312.5" y="406.1094"/><rect fill="#F1F1F1" height="2" style="stroke:#181818;stroke-width:0.5;" width="4" x="312.5" y="410.1094"/><text fill="#000000" font-family="sans-serif" font-size="14" lengthAdjust="spacing" textLength="149" x="160.5" y="433.6426">StorageAreasController</text></g><!--entity Svc--><g id="elem_Svc"><rect fill="#F1F1F1" height="47.6094" rx="2.5" ry="2.5" style="stroke:#181818;stroke-width:0.5;" width="167" x="156.5" y="554.1094"/><rect fill="#F1F1F1" height="10" style="stroke:#181818;stroke-width:0.5;" width="15" x="303.5" y="559.1094"/><rect fill="#F1F1F1" height="2" style="stroke:#181818;stroke-width:0.5;" width="4" x="301.5" y="561.1094"/><rect fill="#F1F1F1" height="2" style="stroke:#181818;stroke-width:0.5;" width="4" x="301.5" y="565.1094"/><text fill="#000000" font-family="sans-serif" font-size="14" lengthAdjust="spacing" textLength="127" x="171.5" y="588.6426">StorageAreaService</text></g><!--entity SA--><g id="elem_SA"><rect fill="#F1F1F1" height="47.6094" rx="2.5" ry="2.5" style="stroke:#181818;stroke-width:0.5;" width="120" x="109" y="720.1094"/><rect fill="#F1F1F1" height="10" style="stroke:#181818;stroke-width:0.5;" width="15" x="209" y="725.1094"/><rect fill="#F1F1F1" height="2" style="stroke:#181818;stroke-width:0.5;" width="4" x="207" y="727.1094"/><rect fill="#F1F1F1" height="2" style="stroke:#181818;stroke-width:0.5;" width="4" x="207" y="731.1094"/><text fill="#000000" font-family="sans-serif" font-size="14" lengthAdjust="spacing" textLength="80" x="124" y="754.6426">StorageArea</text></g><!--entity D--><g id="elem_D"><rect fill="#F1F1F1" height="47.6094" rx="2.5" ry="2.5" style="stroke:#181818;stroke-width:0.5;" width="72" x="32" y="884.1094"/><rect fill="#F1F1F1" height="10" style="stroke:#181818;stroke-width:0.5;" width="15" x="84" y="889.1094"/><rect fill="#F1F1F1" height="2" style="stroke:#181818;stroke-width:0.5;" width="4" x="82" y="891.1094"/><rect fill="#F1F1F1" height="2" style="stroke:#181818;stroke-width:0.5;" width="4" x="82" y="895.1094"/><text fill="#000000" font-family="sans-serif" font-size="14" lengthAdjust="spacing" textLength="32" x="47" y="918.6426">Dock</text></g><!--entity Officer--><g id="elem_Officer"><ellipse cx="240" cy="52.6094" fill="#F1F1F1" rx="8" ry="8" style="stroke:#181818;stroke-width:0.5;"/><path d="M240,60.6094 L240,87.6094 M227,68.6094 L253,68.6094 M240,87.6094 L227,102.6094 M240,87.6094 L253,102.6094 " fill="none" style="stroke:#181818;stroke-width:0.5;"/><text fill="#000000" font-family="sans-serif" font-size="14" lengthAdjust="spacing" textLength="86" x="197" y="118.6426">Port Authority</text><text fill="#000000" font-family="sans-serif" font-size="14" lengthAdjust="spacing" textLength="42" x="197" y="136.252">Officer</text></g><!--entity Db--><g id="elem_Db"><path d="M264,730.6094 C264,720.6094 311,720.6094 311,720.6094 C311,720.6094 358,720.6094 358,730.6094 L358,757.2188 C358,767.2188 311,767.2188 311,767.2188 C311,767.2188 264,767.2188 264,757.2188 L264,730.6094 " fill="#F1F1F1" style="stroke:#181818;stroke-width:0.5;"/><path d="M264,730.6094 C264,740.6094 311,740.6094 311,740.6094 C311,740.6094 358,740.6094 358,730.6094 " fill="none" style="stroke:#181818;stroke-width:0.5;"/><text fill="#000000" font-family="sans-serif" font-size="14" lengthAdjust="spacing" textLength="74" x="274" y="759.1426">Persistence</text></g><g id="elem_GMN19"><path d="M393,682.1094 L393,806.5703 L553,806.5703 L553,692.1094 L543,682.1094 L393,682.1094 " fill="#FEFFDD" style="stroke:#181818;stroke-width:0.5;"/><path d="M543,682.1094 L543,692.1094 L553,692.1094 L543,682.1094 " fill="#FEFFDD" style="stroke:#181818;stroke-width:1.0;"/><text fill="#000000" font-family="sans-serif" font-size="13" lengthAdjust="spacing" textLength="80" x="399" y="700.6045">Storage Area:</text><text fill="#000000" font-family="sans-serif" font-size="13" lengthAdjust="spacing" textLength="64" x="399" y="716.9561">- Unique ID</text><text fill="#000000" font-family="sans-serif" font-size="13" lengthAdjust="spacing" textLength="139" x="399" y="733.3076">- Type (yard/warehouse)</text><text fill="#000000" font-family="sans-serif" font-size="13" lengthAdjust="spacing" textLength="57" x="399" y="749.6592">- Location</text><text fill="#000000" font-family="sans-serif" font-size="13" lengthAdjust="spacing" textLength="130" x="399" y="766.0107">- Max capacity (TEUs)</text><text fill="#000000" font-family="sans-serif" font-size="13" lengthAdjust="spacing" textLength="117" x="399" y="782.3623">- Current occupancy</text><text fill="#000000" font-family="sans-serif" font-size="13" lengthAdjust="spacing" textLength="113" x="399" y="798.7139">- Distance to docks</text></g><!--link Officer to Client--><g id="link_Officer_Client"><path d="M240,139.3694 C240,173.0894 240,211.1794 240,237.7494 " fill="none" id="Officer-to-Client" style="stroke:#181818;stroke-width:1.0;"/><polygon fill="#181818" points="240,243.7494,244,234.7494,240,238.7494,236,234.7494,240,243.7494" style="stroke:#181818;stroke-width:1.0;"/><text fill="#000000" font-family="sans-serif" font-size="13" lengthAdjust="spacing" textLength="169" x="241" y="183.6045">register/update storage areas</text></g><!--link Client to Ctl--><g id="link_Client_Ctl"><path d="M240,292.3494 C240,321.0994 240,363.7994 240,392.6494 " fill="none" id="Client-to-Ctl" style="stroke:#181818;stroke-width:1.0;"/><polygon fill="#181818" points="240,398.6494,244,389.6494,240,393.6494,236,389.6494,240,398.6494" style="stroke:#181818;stroke-width:1.0;"/><text fill="#000000" font-family="sans-serif" font-size="13" lengthAdjust="spacing" textLength="94" x="241" y="338.6045">POST/PUT/GET</text></g><!--link Ctl to Svc--><g id="link_Ctl_Svc"><path d="M240,447.3494 C240,476.0994 240,518.7994 240,547.6494 " fill="none" id="Ctl-to-Svc" style="stroke:#181818;stroke-width:1.0;"/><polygon fill="#181818" points="240,553.6494,244,544.6494,240,548.6494,236,544.6494,240,553.6494" style="stroke:#181818;stroke-width:1.0;"/><text fill="#000000" font-family="sans-serif" font-size="13" lengthAdjust="spacing" textLength="100" x="241" y="493.6045">CRUD operations</text></g><!--link Svc to Db--><g id="link_Svc_Db"><path d="M253.03,602.3594 C258.26,612.0494 264.18,623.4994 269,634.1094 C282.26,663.2794 293.1381,692.3067 301.0681,714.5867 " fill="none" id="Svc-to-Db" style="stroke:#181818;stroke-width:1.0;"/><polygon fill="#181818" points="303.08,720.2394,303.8306,710.4192,301.4034,715.5289,296.2937,713.1017,303.08,720.2394" style="stroke:#181818;stroke-width:1.0;"/><text fill="#000000" font-family="sans-serif" font-size="13" lengthAdjust="spacing" textLength="84" x="278" y="648.6045">persist/retrieve</text></g><!--link Svc to SA--><g id="link_Svc_SA"><path d="M206.42,602.2194 C196.24,610.9894 186.14,621.8594 180,634.1094 C166.36,661.3094 165.1419,691.0984 166.4019,714.1084 " fill="none" id="Svc-to-SA" style="stroke:#181818;stroke-width:1.0;stroke-dasharray:7.0,7.0;"/><polygon fill="#181818" points="166.73,720.0994,170.2319,710.8941,166.4566,715.1069,162.2439,711.3315,166.73,720.0994" style="stroke:#181818;stroke-width:1.0;"/><text fill="#000000" font-family="sans-serif" font-size="13" lengthAdjust="spacing" textLength="79" x="181" y="648.6045">create/update</text></g><!--link SA to D--><g id="link_SA_D"><path d="M154.53,768.3194 C135.33,799.1194 104.8051,848.0783 85.6151,878.8483 " fill="none" id="SA-to-D" style="stroke:#181818;stroke-width:1.0;"/><polygon fill="#181818" points="82.44,883.9394,90.5967,878.4195,85.0859,879.6968,83.8086,874.1861,82.44,883.9394" style="stroke:#181818;stroke-width:1.0;"/><text fill="#000000" font-family="sans-serif" font-size="13" lengthAdjust="spacing" textLength="163" x="111" y="850.6045">assigned to docks (optional)</text></g><!--link SA to GMN19--><g id="link_SA_GMN19"><path d="M184.37,719.9594 C200.75,696.6894 229.06,662.9794 263.5,648.6094 C302.47,632.3494 318.8,634.2294 358.5,648.6094 C378.58,655.8794 397.61,668.3894 414.18,681.9994 " fill="none" id="SA-GMN19" style="stroke:#181818;stroke-width:1.0;stroke-dasharray:7.0,7.0;"/></g><!--SRC=[PL9DRzim3BthLn0vfOV4GD5J3mCCknW2jAWnszXXsq6HcKIeAscKdCqOzjz7VMphi9l8nqU-Hp7eC2CqTz1O4wGsIB23iOVR_Ut-3lfWIPuHQaBfXP2AOzXqbWBKIxXOqc7zR9vF9wsGDY0zbBSGnau8csRMQ08yoZNYFmJ0f_405TJT0JBs9RBoK_pyJVk8nrXI64L54X5bafrdf4mCyrzMxToibGpQcdyclk7tI5VMbxZzLKNk98CyIi_y3ibh7z0eJ5xQOsdSsbTUJSxPr_-QvcvrpBPMlQImZQtBCc2tUrSimZqGdkCGgXR7en5ysR5CEovbYH5cBk-U-w7gng5w_p28c8eGIsUe-J2sO1rIikn5p4QqFJBeifcAC936AoPqlsTkpQZYOG6B1C6fn6D0Ug_F1YS85YOsus5hNMmlvvkuPnPC-dm9O4_PyjiJkUUOhyVehml2eKtHi3g4xIffghwnnOjTFDuavD7clqh1a_mEIZgf-A9WEpoCFXSr2r5SY5LgSTAeDMLRTiO1_b4fq4mGrObV]--></g></svg>