<?xml version="1.0" encoding="us-ascii" standalone="no"?><svg xmlns="http://www.w3.org/2000/svg" xmlns:xlink="http://www.w3.org/1999/xlink" contentStyleType="text/css" height="594px" preserveAspectRatio="none" style="width:1993px;height:594px;background:#FFFFFF;" version="1.1" viewBox="0 0 1993 594" width="1993px" zoomAndPan="magnify"><defs/><g><text fill="#000000" font-family="sans-serif" font-size="14" font-weight="bold" lengthAdjust="spacing" textLength="193" x="901.25" y="29.5332">SSD - Search Storage Areas</text><rect fill="#FFFFFF" height="310.8672" style="stroke:#181818;stroke-width:1.0;" width="10" x="844" y="183.9219"/><rect fill="#FFFFFF" height="206.8125" style="stroke:#181818;stroke-width:1.0;" width="10" x="1174" y="214.2734"/><line style="stroke:#181818;stroke-width:0.5;stroke-dasharray:5.0,5.0;" x1="74" x2="74" y1="121.2188" y2="512.7891"/><line style="stroke:#181818;stroke-width:0.5;stroke-dasharray:5.0,5.0;" x1="532.5" x2="532.5" y1="121.2188" y2="512.7891"/><line style="stroke:#181818;stroke-width:0.5;stroke-dasharray:5.0,5.0;" x1="848.5" x2="848.5" y1="121.2188" y2="512.7891"/><line style="stroke:#181818;stroke-width:0.5;stroke-dasharray:5.0,5.0;" x1="1179" x2="1179" y1="121.2188" y2="512.7891"/><line style="stroke:#181818;stroke-width:0.5;stroke-dasharray:5.0,5.0;" x1="1469" x2="1469" y1="121.2188" y2="512.7891"/><line style="stroke:#181818;stroke-width:0.5;stroke-dasharray:5.0,5.0;" x1="1581" x2="1581" y1="121.2188" y2="512.7891"/><text fill="#000000" font-family="sans-serif" font-size="14" lengthAdjust="spacing" textLength="132" x="5" y="118.1426">Port Authority Officer</text><ellipse cx="74" cy="52.1094" fill="#E2E2F0" rx="8" ry="8" style="stroke:#181818;stroke-width:0.5;"/><path d="M74,60.1094 L74,87.1094 M61,68.1094 L87,68.1094 M74,87.1094 L61,102.1094 M74,87.1094 L87,102.1094 " fill="none" style="stroke:#181818;stroke-width:0.5;"/><text fill="#000000" font-family="sans-serif" font-size="14" lengthAdjust="spacing" textLength="132" x="5" y="526.3223">Port Authority Officer</text><ellipse cx="74" cy="537.8984" fill="#E2E2F0" rx="8" ry="8" style="stroke:#181818;stroke-width:0.5;"/><path d="M74,545.8984 L74,572.8984 M61,553.8984 L87,553.8984 M74,572.8984 L61,587.8984 M74,572.8984 L87,587.8984 " fill="none" style="stroke:#181818;stroke-width:0.5;"/><rect fill="#E2E2F0" height="31.6094" rx="2.5" ry="2.5" style="stroke:#181818;stroke-width:0.5;" width="127" x="469.5" y="88.6094"/><text fill="#000000" font-family="sans-serif" font-size="14" lengthAdjust="spacing" textLength="113" x="476.5" y="110.1426">Scalar / API Client</text><rect fill="#E2E2F0" height="31.6094" rx="2.5" ry="2.5" style="stroke:#181818;stroke-width:0.5;" width="127" x="469.5" y="511.7891"/><text fill="#000000" font-family="sans-serif" font-size="14" lengthAdjust="spacing" textLength="113" x="476.5" y="533.3223">Scalar / API Client</text><rect fill="#E2E2F0" height="31.6094" rx="2.5" ry="2.5" style="stroke:#181818;stroke-width:0.5;" width="163" x="767.5" y="88.6094"/><text fill="#000000" font-family="sans-serif" font-size="14" lengthAdjust="spacing" textLength="149" x="774.5" y="110.1426">StorageAreasController</text><rect fill="#E2E2F0" height="31.6094" rx="2.5" ry="2.5" style="stroke:#181818;stroke-width:0.5;" width="163" x="767.5" y="511.7891"/><text fill="#000000" font-family="sans-serif" font-size="14" lengthAdjust="spacing" textLength="149" x="774.5" y="533.3223">StorageAreasController</text><rect fill="#E2E2F0" height="31.6094" rx="2.5" ry="2.5" style="stroke:#181818;stroke-width:0.5;" width="162" x="1098" y="88.6094"/><text fill="#000000" font-family="sans-serif" font-size="14" lengthAdjust="spacing" textLength="148" x="1105" y="110.1426">StorageAreaRepository</text><rect fill="#E2E2F0" height="31.6094" rx="2.5" ry="2.5" style="stroke:#181818;stroke-width:0.5;" width="162" x="1098" y="511.7891"/><text fill="#000000" font-family="sans-serif" font-size="14" lengthAdjust="spacing" textLength="148" x="1105" y="533.3223">StorageAreaRepository</text><rect fill="#E2E2F0" height="31.6094" rx="2.5" ry="2.5" style="stroke:#181818;stroke-width:0.5;" width="106" x="1416" y="88.6094"/><text fill="#000000" font-family="sans-serif" font-size="14" lengthAdjust="spacing" textLength="92" x="1423" y="110.1426">PortDbContext</text><rect fill="#E2E2F0" height="31.6094" rx="2.5" ry="2.5" style="stroke:#181818;stroke-width:0.5;" width="106" x="1416" y="511.7891"/><text fill="#000000" font-family="sans-serif" font-size="14" lengthAdjust="spacing" textLength="92" x="1423" y="533.3223">PortDbContext</text><text fill="#000000" font-family="sans-serif" font-size="14" lengthAdjust="spacing" textLength="93" x="1532" y="118.1426">EF (InMemory)</text><path d="M1563.5,67.6094 C1563.5,57.6094 1581.5,57.6094 1581.5,57.6094 C1581.5,57.6094 1599.5,57.6094 1599.5,67.6094 L1599.5,93.6094 C1599.5,103.6094 1581.5,103.6094 1581.5,103.6094 C1581.5,103.6094 1563.5,103.6094 1563.5,93.6094 L1563.5,67.6094 " fill="#E2E2F0" style="stroke:#181818;stroke-width:1.5;"/><path d="M1563.5,67.6094 C1563.5,77.6094 1581.5,77.6094 1581.5,77.6094 C1581.5,77.6094 1599.5,77.6094 1599.5,67.6094 " fill="none" style="stroke:#181818;stroke-width:1.5;"/><text fill="#000000" font-family="sans-serif" font-size="14" lengthAdjust="spacing" textLength="93" x="1532" y="526.3223">EF (InMemory)</text><path d="M1563.5,539.3984 C1563.5,529.3984 1581.5,529.3984 1581.5,529.3984 C1581.5,529.3984 1599.5,529.3984 1599.5,539.3984 L1599.5,565.3984 C1599.5,575.3984 1581.5,575.3984 1581.5,575.3984 C1581.5,575.3984 1563.5,575.3984 1563.5,565.3984 L1563.5,539.3984 " fill="#E2E2F0" style="stroke:#181818;stroke-width:1.5;"/><path d="M1563.5,539.3984 C1563.5,549.3984 1581.5,549.3984 1581.5,549.3984 C1581.5,549.3984 1599.5,549.3984 1599.5,539.3984 " fill="none" style="stroke:#181818;stroke-width:1.5;"/><rect fill="#FFFFFF" height="310.8672" style="stroke:#181818;stroke-width:1.0;" width="10" x="844" y="183.9219"/><rect fill="#FFFFFF" height="206.8125" style="stroke:#181818;stroke-width:1.0;" width="10" x="1174" y="214.2734"/><polygon fill="#181818" points="521,149.5703,531,153.5703,521,157.5703,525,153.5703" style="stroke:#181818;stroke-width:1.0;"/><line style="stroke:#181818;stroke-width:1.0;" x1="74" x2="527" y1="153.5703" y2="153.5703"/><text fill="#000000" font-family="sans-serif" font-size="13" lengthAdjust="spacing" textLength="435" x="81" y="148.7139">GET /api/storageareas?name=...&amp;location=...&amp;type=...&amp;servesAllDocks=...</text><polygon fill="#181818" points="832,179.9219,842,183.9219,832,187.9219,836,183.9219" style="stroke:#181818;stroke-width:1.0;"/><line style="stroke:#181818;stroke-width:1.0;" x1="533" x2="838" y1="183.9219" y2="183.9219"/><text fill="#000000" font-family="sans-serif" font-size="13" lengthAdjust="spacing" textLength="292" x="540" y="179.0654">Search(name?, location?, type?, servesAllDocks?)</text><polygon fill="#181818" points="1162,210.2734,1172,214.2734,1162,218.2734,1166,214.2734" style="stroke:#181818;stroke-width:1.0;"/><line style="stroke:#181818;stroke-width:1.0;" x1="854" x2="1168" y1="214.2734" y2="214.2734"/><text fill="#000000" font-family="sans-serif" font-size="13" lengthAdjust="spacing" textLength="301" x="861" y="209.417">SearchAsync(name, location, type, servesAllDocks)</text><polygon fill="#181818" points="1457,240.625,1467,244.625,1457,248.625,1461,244.625" style="stroke:#181818;stroke-width:1.0;"/><line style="stroke:#181818;stroke-width:1.0;" x1="1184" x2="1463" y1="244.625" y2="244.625"/><text fill="#000000" font-family="sans-serif" font-size="13" lengthAdjust="spacing" textLength="261" x="1191" y="239.7686">query StorageAreas.Include(sa =&gt; sa.Docks)</text><polygon fill="#181818" points="1569.5,298.5039,1579.5,302.5039,1569.5,306.5039,1573.5,302.5039" style="stroke:#181818;stroke-width:1.0;"/><line style="stroke:#181818;stroke-width:1.0;" x1="1469" x2="1575.5" y1="302.5039" y2="302.5039"/><text fill="#000000" font-family="sans-serif" font-size="13" lengthAdjust="spacing" textLength="70" x="1476" y="297.6475">apply filters:</text><path d="M1586,257.625 L1586,332.625 L1986,332.625 L1986,267.625 L1976,257.625 L1586,257.625 " fill="#FEFFDD" style="stroke:#181818;stroke-width:0.5;"/><path d="M1976,257.625 L1976,267.625 L1986,267.625 L1976,257.625 " fill="#FEFFDD" style="stroke:#181818;stroke-width:0.5;"/><text fill="#000000" font-family="sans-serif" font-size="13" lengthAdjust="spacing" textLength="205" x="1592" y="276.1201">- if (name) where sa.Name contains</text><text fill="#000000" font-family="sans-serif" font-size="13" lengthAdjust="spacing" textLength="233" x="1592" y="292.4717">- if (location) where sa.Location contains</text><text fill="#000000" font-family="sans-serif" font-size="13" lengthAdjust="spacing" textLength="188" x="1592" y="308.8232">- if (type) where sa.Type == type</text><text fill="#000000" font-family="sans-serif" font-size="13" lengthAdjust="spacing" textLength="379" x="1592" y="325.1748">- if (servesAllDocks) where sa.ServesAllDocks == servesAllDocks</text><polygon fill="#181818" points="1480,356.3828,1470,360.3828,1480,364.3828,1476,360.3828" style="stroke:#181818;stroke-width:1.0;"/><line style="stroke:#181818;stroke-width:1.0;stroke-dasharray:2.0,2.0;" x1="1474" x2="1580.5" y1="360.3828" y2="360.3828"/><text fill="#000000" font-family="sans-serif" font-size="13" lengthAdjust="spacing" textLength="17" x="1486" y="355.5264">list</text><polygon fill="#181818" points="1195,386.7344,1185,390.7344,1195,394.7344,1191,390.7344" style="stroke:#181818;stroke-width:1.0;"/><line style="stroke:#181818;stroke-width:1.0;stroke-dasharray:2.0,2.0;" x1="1189" x2="1468" y1="390.7344" y2="390.7344"/><text fill="#000000" font-family="sans-serif" font-size="13" lengthAdjust="spacing" textLength="109" x="1201" y="385.8779">List&lt;StorageArea&gt;</text><polygon fill="#181818" points="865,417.0859,855,421.0859,865,425.0859,861,421.0859" style="stroke:#181818;stroke-width:1.0;"/><line style="stroke:#181818;stroke-width:1.0;stroke-dasharray:2.0,2.0;" x1="859" x2="1178" y1="421.0859" y2="421.0859"/><text fill="#000000" font-family="sans-serif" font-size="13" lengthAdjust="spacing" textLength="109" x="871" y="416.2295">List&lt;StorageArea&gt;</text><line style="stroke:#181818;stroke-width:1.0;" x1="854" x2="896" y1="451.4375" y2="451.4375"/><line style="stroke:#181818;stroke-width:1.0;" x1="896" x2="896" y1="451.4375" y2="464.4375"/><line style="stroke:#181818;stroke-width:1.0;" x1="855" x2="896" y1="464.4375" y2="464.4375"/><polygon fill="#181818" points="865,460.4375,855,464.4375,865,468.4375,861,464.4375" style="stroke:#181818;stroke-width:1.0;"/><text fill="#000000" font-family="sans-serif" font-size="13" lengthAdjust="spacing" textLength="231" x="861" y="446.5811">map to List&lt;StorageAreaResponseDto&gt;</text><polygon fill="#181818" points="544,490.7891,534,494.7891,544,498.7891,540,494.7891" style="stroke:#181818;stroke-width:1.0;"/><line style="stroke:#181818;stroke-width:1.0;stroke-dasharray:2.0,2.0;" x1="538" x2="848" y1="494.7891" y2="494.7891"/><text fill="#000000" font-family="sans-serif" font-size="13" lengthAdjust="spacing" textLength="218" x="550" y="489.9326">200 OK [StorageAreaResponseDto...]</text><!--SRC=[TPB1Rjim38RlUWeYXo815gVeiLWI67Ox1EtMekvEmmwCmZJ25CcJb6v- -r6oipXkUx99_Vf8_bHGGHDKLGbJg0YTt44LhCCNWjmHUY5GSWoZH-i2v8Umiqw51XwsMoN9ZG0zVFVaH8qkAAbgD056bKID3cQGFwwWq8fCIChsTw1jowLgXJN1MQqxSF6XyebgwnN7JHB6y5mRsotNaKT_szhbMcmmu1ezmUZc5iOhyvNsJ9YaumWd8U8iC5rqdS8rVBbvXXdMQkRRwXZxN1hSqppBiWjj9GPbJGf2KxTPXhoIpxKkhVpbOqfqm8XcQclrE6AMd-08uT-8uCyvO3c9Mr2l68Wz4KMan97_WtBV69be9rZB6g9wf6IQI1pcbMkc_JwGQw2_aMnbf3viQEmHvWlmc7KOrlEjv1fVnBhM3MoL3kJyjJ2M-Kwzx8AOWjf2Qcq2VtR4QcPyun0aBmULyPtas7TFTj-bXj8uM4_sp27CvsdUJZ4O-gIjpWxYhNEf8BE1sBveHviUhT7AXpJqoVjxJdtkcRNepEns_FPuGmFpY-Dxs6CDmRwvyaI-jiPJ6UmYYliFy-ho4XxkuCVxSdvoF_lrYdy0]--></g></svg>