<?xml version="1.0" encoding="us-ascii" standalone="no"?><svg xmlns="http://www.w3.org/2000/svg" xmlns:xlink="http://www.w3.org/1999/xlink" contentStyleType="text/css" height="686px" preserveAspectRatio="none" style="width:1023px;height:686px;background:#FFFFFF;" version="1.1" viewBox="0 0 1023 686" width="1023px" zoomAndPan="magnify"><defs/><g><text fill="#000000" font-family="sans-serif" font-size="14" font-weight="bold" lengthAdjust="spacing" textLength="413" x="298" y="24.5332">Domain Model - US 2.2.4 (Register &amp; Update Storage Areas)</text><!--class StorageArea--><g id="elem_StorageArea"><rect codeLine="3" fill="#F1F1F1" height="259.3125" id="StorageArea" rx="2.5" ry="2.5" style="stroke:#181818;stroke-width:0.5;" width="558" x="7" y="241.6094"/><ellipse cx="241.75" cy="257.6094" fill="#ADD1B2" rx="11" ry="11" style="stroke:#181818;stroke-width:1.0;"/><path d="M244.5156,253.4844 Q244.6719,253.2656 244.8594,253.1563 Q245.0469,253.0469 245.2656,253.0469 Q245.6406,253.0469 245.875,253.3125 Q246.1094,253.5625 246.1094,254.1719 L246.1094,255.625 Q246.1094,256.2344 245.875,256.5 Q245.6406,256.7656 245.2656,256.7656 Q244.9219,256.7656 244.7188,256.5625 Q244.5156,256.375 244.4063,255.8594 Q244.3594,255.5 244.1719,255.3125 Q243.8438,254.9375 243.2344,254.7188 Q242.625,254.5 242,254.5 Q241.2344,254.5 240.5938,254.8281 Q239.9688,255.1563 239.4688,255.9063 Q238.9844,256.6563 238.9844,257.6875 L238.9844,258.7813 Q238.9844,260.0156 239.875,260.8438 Q240.7656,261.6563 242.3594,261.6563 Q243.2969,261.6563 243.9531,261.4063 Q244.3438,261.25 244.7656,260.8125 Q245.0313,260.5469 245.1719,260.4688 Q245.3281,260.3906 245.5313,260.3906 Q245.8594,260.3906 246.1094,260.6563 Q246.375,260.9063 246.375,261.25 Q246.375,261.5938 246.0313,262 Q245.5313,262.5781 244.7344,262.9063 Q243.6563,263.3594 242.3594,263.3594 Q240.8438,263.3594 239.6406,262.7344 Q238.6563,262.2344 237.9688,261.1719 Q237.2813,260.0938 237.2813,258.8125 L237.2813,257.6563 Q237.2813,256.3281 237.8906,255.1875 Q238.5156,254.0313 239.6094,253.4219 Q240.7031,252.7969 241.9375,252.7969 Q242.6719,252.7969 243.3125,252.9688 Q243.9688,253.125 244.5156,253.4844 Z " fill="#000000"/><text fill="#000000" font-family="sans-serif" font-size="14" lengthAdjust="spacing" textLength="80" x="262.25" y="263.3379">StorageArea</text><line style="stroke:#181818;stroke-width:0.5;" x1="8" x2="564" y1="273.6094" y2="273.6094"/><ellipse cx="18" cy="287.9141" fill="none" rx="3" ry="3" style="stroke:#038048;stroke-width:1.0;"/><text fill="#000000" font-family="sans-serif" font-size="14" lengthAdjust="spacing" textLength="138" x="27" y="292.1426">StorageAreaId : string</text><ellipse cx="18" cy="305.5234" fill="none" rx="3" ry="3" style="stroke:#038048;stroke-width:1.0;"/><text fill="#000000" font-family="sans-serif" font-size="14" lengthAdjust="spacing" textLength="83" x="27" y="309.752">Name : string</text><ellipse cx="18" cy="323.1328" fill="none" rx="3" ry="3" style="stroke:#038048;stroke-width:1.0;"/><text fill="#000000" font-family="sans-serif" font-size="14" lengthAdjust="spacing" textLength="101" x="27" y="327.3613">Location : string</text><ellipse cx="18" cy="340.7422" fill="none" rx="3" ry="3" style="stroke:#038048;stroke-width:1.0;"/><text fill="#000000" font-family="sans-serif" font-size="14" lengthAdjust="spacing" textLength="134" x="27" y="344.9707">MaxCapacityTEU : int</text><ellipse cx="18" cy="358.3516" fill="none" rx="3" ry="3" style="stroke:#038048;stroke-width:1.0;"/><text fill="#000000" font-family="sans-serif" font-size="14" lengthAdjust="spacing" textLength="173" x="27" y="362.5801">CurrentOccupancyTEU : int</text><ellipse cx="18" cy="375.9609" fill="none" rx="3" ry="3" style="stroke:#038048;stroke-width:1.0;"/><text fill="#000000" font-family="sans-serif" font-size="14" lengthAdjust="spacing" textLength="137" x="27" y="380.1895">ServesAllDocks : bool</text><ellipse cx="18" cy="393.5703" fill="none" rx="3" ry="3" style="stroke:#038048;stroke-width:1.0;"/><text fill="#000000" font-family="sans-serif" font-size="14" lengthAdjust="spacing" textLength="156" x="27" y="397.7988">Type : StorageAreaType</text><line style="stroke:#181818;stroke-width:1.0;" x1="8" x2="564" y1="404.875" y2="404.875"/><ellipse cx="18" cy="419.1797" fill="#84BE84" rx="3" ry="3" style="stroke:#038048;stroke-width:1.0;"/><text fill="#000000" font-family="sans-serif" font-size="14" lengthAdjust="spacing" textLength="532" x="27" y="423.4082">Update(name:string, location:string, maxCapacityTEU:int, servesAllDocks:bool) : void</text><ellipse cx="18" cy="436.7891" fill="#84BE84" rx="3" ry="3" style="stroke:#038048;stroke-width:1.0;"/><text fill="#000000" font-family="sans-serif" font-size="14" lengthAdjust="spacing" textLength="205" x="27" y="441.0176">SetYardSpec(notes:string) : void</text><ellipse cx="18" cy="454.3984" fill="#84BE84" rx="3" ry="3" style="stroke:#038048;stroke-width:1.0;"/><text fill="#000000" font-family="sans-serif" font-size="14" lengthAdjust="spacing" textLength="248" x="27" y="458.627">SetWarehouseSpec(notes:string) : void</text><ellipse cx="18" cy="472.0078" fill="#84BE84" rx="3" ry="3" style="stroke:#038048;stroke-width:1.0;"/><text fill="#000000" font-family="sans-serif" font-size="14" lengthAdjust="spacing" textLength="321" x="27" y="476.2363">SetServedDocks(docks:IEnumerable&lt;Dock&gt;) : void</text><ellipse cx="18" cy="489.6172" fill="#84BE84" rx="3" ry="3" style="stroke:#038048;stroke-width:1.0;"/><text fill="#000000" font-family="sans-serif" font-size="14" lengthAdjust="spacing" textLength="279" x="27" y="493.8457">UpdateOccupancy(newOccupancy:int) : void</text></g><!--class StorageAreaType--><g id="elem_StorageAreaType"><rect codeLine="19" fill="#F1F1F1" height="100.8281" id="StorageAreaType" rx="2.5" ry="2.5" style="stroke:#181818;stroke-width:0.5;" width="144" x="44" y="578.6094"/><ellipse cx="59" cy="594.6094" fill="#EB937F" rx="11" ry="11" style="stroke:#181818;stroke-width:1.0;"/><path d="M57.8594,595.4063 L57.8594,597.9063 L62.1875,597.9063 L62.1875,596.9844 Q62.1875,596.375 62.4219,596.1094 Q62.6719,595.8438 63.0469,595.8438 Q63.4219,595.8438 63.6563,596.1094 Q63.8906,596.375 63.8906,596.9844 L63.8906,599.6094 L55.8906,599.6094 Q55.2656,599.6094 55,599.375 Q54.75,599.1406 54.75,598.75 Q54.75,598.375 55.0156,598.1406 Q55.2813,597.9063 55.8906,597.9063 L56.1563,597.9063 L56.1563,591.25 L55.8906,591.25 Q55.2656,591.25 55,591.0156 Q54.75,590.7813 54.75,590.3906 Q54.75,590.0156 55,589.7813 Q55.2656,589.5469 55.8906,589.5469 L63.5156,589.5469 L63.5156,592.1406 Q63.5156,592.75 63.2813,593.0156 Q63.0625,593.2656 62.6719,593.2656 Q62.2969,593.2656 62.0625,593.0156 Q61.8281,592.75 61.8281,592.1406 L61.8281,591.25 L57.8594,591.25 L57.8594,593.7031 L59.3438,593.7031 Q59.3438,593.0469 59.4688,592.8594 Q59.7344,592.4531 60.2031,592.4531 Q60.5781,592.4531 60.8125,592.7188 Q61.0469,592.9688 61.0469,593.5781 L61.0469,595.5469 Q61.0469,596.0938 60.9219,596.2813 Q60.6563,596.6719 60.2031,596.6719 Q59.7344,596.6719 59.4688,596.2656 Q59.3438,596.0781 59.3438,595.4063 L57.8594,595.4063 Z " fill="#000000"/><text fill="#000000" font-family="sans-serif" font-size="14" lengthAdjust="spacing" textLength="112" x="73" y="600.3379">StorageAreaType</text><line style="stroke:#181818;stroke-width:0.5;" x1="45" x2="187" y1="610.6094" y2="610.6094"/><text fill="#000000" font-family="sans-serif" font-size="14" lengthAdjust="spacing" textLength="71" x="50" y="629.1426">ORDINARY</text><text fill="#000000" font-family="sans-serif" font-size="14" lengthAdjust="spacing" textLength="38" x="50" y="646.752">YARD</text><text fill="#000000" font-family="sans-serif" font-size="14" lengthAdjust="spacing" textLength="88" x="50" y="664.3613">WAREHOUSE</text><line style="stroke:#181818;stroke-width:0.5;" x1="45" x2="187" y1="671.4375" y2="671.4375"/></g><!--class YardSpec--><g id="elem_YardSpec"><rect codeLine="25" fill="#F1F1F1" height="83.2188" id="YardSpec" rx="2.5" ry="2.5" style="stroke:#181818;stroke-width:0.5;" width="126" x="223" y="587.6094"/><ellipse cx="252.4" cy="603.6094" fill="#ADD1B2" rx="11" ry="11" style="stroke:#181818;stroke-width:1.0;"/><path d="M255.1656,599.4844 Q255.3219,599.2656 255.5094,599.1563 Q255.6969,599.0469 255.9156,599.0469 Q256.2906,599.0469 256.525,599.3125 Q256.7594,599.5625 256.7594,600.1719 L256.7594,601.625 Q256.7594,602.2344 256.525,602.5 Q256.2906,602.7656 255.9156,602.7656 Q255.5719,602.7656 255.3688,602.5625 Q255.1656,602.375 255.0563,601.8594 Q255.0094,601.5 254.8219,601.3125 Q254.4938,600.9375 253.8844,600.7188 Q253.275,600.5 252.65,600.5 Q251.8844,600.5 251.2438,600.8281 Q250.6188,601.1563 250.1188,601.9063 Q249.6344,602.6563 249.6344,603.6875 L249.6344,604.7813 Q249.6344,606.0156 250.525,606.8438 Q251.4156,607.6563 253.0094,607.6563 Q253.9469,607.6563 254.6031,607.4063 Q254.9938,607.25 255.4156,606.8125 Q255.6813,606.5469 255.8219,606.4688 Q255.9781,606.3906 256.1813,606.3906 Q256.5094,606.3906 256.7594,606.6563 Q257.025,606.9063 257.025,607.25 Q257.025,607.5938 256.6813,608 Q256.1813,608.5781 255.3844,608.9063 Q254.3063,609.3594 253.0094,609.3594 Q251.4938,609.3594 250.2906,608.7344 Q249.3063,608.2344 248.6188,607.1719 Q247.9313,606.0938 247.9313,604.8125 L247.9313,603.6563 Q247.9313,602.3281 248.5406,601.1875 Q249.1656,600.0313 250.2594,599.4219 Q251.3531,598.7969 252.5875,598.7969 Q253.3219,598.7969 253.9625,598.9688 Q254.6188,599.125 255.1656,599.4844 Z " fill="#000000"/><text fill="#000000" font-family="sans-serif" font-size="14" lengthAdjust="spacing" textLength="62" x="269.6" y="609.3379">YardSpec</text><line style="stroke:#181818;stroke-width:0.5;" x1="224" x2="348" y1="619.6094" y2="619.6094"/><ellipse cx="234" cy="633.9141" fill="none" rx="3" ry="3" style="stroke:#038048;stroke-width:1.0;"/><text fill="#000000" font-family="sans-serif" font-size="14" lengthAdjust="spacing" textLength="100" x="243" y="638.1426">YardSpecId : int</text><ellipse cx="234" cy="651.5234" fill="none" rx="3" ry="3" style="stroke:#038048;stroke-width:1.0;"/><text fill="#000000" font-family="sans-serif" font-size="14" lengthAdjust="spacing" textLength="83" x="243" y="655.752">Notes : string</text><line style="stroke:#181818;stroke-width:0.5;" x1="224" x2="348" y1="662.8281" y2="662.8281"/></g><!--class WarehouseSpec--><g id="elem_WarehouseSpec"><rect codeLine="30" fill="#F1F1F1" height="83.2188" id="WarehouseSpec" rx="2.5" ry="2.5" style="stroke:#181818;stroke-width:0.5;" width="169" x="384.5" y="587.6094"/><ellipse cx="413.9" cy="603.6094" fill="#ADD1B2" rx="11" ry="11" style="stroke:#181818;stroke-width:1.0;"/><path d="M416.6656,599.4844 Q416.8219,599.2656 417.0094,599.1563 Q417.1969,599.0469 417.4156,599.0469 Q417.7906,599.0469 418.025,599.3125 Q418.2594,599.5625 418.2594,600.1719 L418.2594,601.625 Q418.2594,602.2344 418.025,602.5 Q417.7906,602.7656 417.4156,602.7656 Q417.0719,602.7656 416.8688,602.5625 Q416.6656,602.375 416.5563,601.8594 Q416.5094,601.5 416.3219,601.3125 Q415.9938,600.9375 415.3844,600.7188 Q414.775,600.5 414.15,600.5 Q413.3844,600.5 412.7438,600.8281 Q412.1188,601.1563 411.6188,601.9063 Q411.1344,602.6563 411.1344,603.6875 L411.1344,604.7813 Q411.1344,606.0156 412.025,606.8438 Q412.9156,607.6563 414.5094,607.6563 Q415.4469,607.6563 416.1031,607.4063 Q416.4938,607.25 416.9156,606.8125 Q417.1813,606.5469 417.3219,606.4688 Q417.4781,606.3906 417.6813,606.3906 Q418.0094,606.3906 418.2594,606.6563 Q418.525,606.9063 418.525,607.25 Q418.525,607.5938 418.1813,608 Q417.6813,608.5781 416.8844,608.9063 Q415.8063,609.3594 414.5094,609.3594 Q412.9938,609.3594 411.7906,608.7344 Q410.8063,608.2344 410.1188,607.1719 Q409.4313,606.0938 409.4313,604.8125 L409.4313,603.6563 Q409.4313,602.3281 410.0406,601.1875 Q410.6656,600.0313 411.7594,599.4219 Q412.8531,598.7969 414.0875,598.7969 Q414.8219,598.7969 415.4625,598.9688 Q416.1188,599.125 416.6656,599.4844 Z " fill="#000000"/><text fill="#000000" font-family="sans-serif" font-size="14" lengthAdjust="spacing" textLength="105" x="431.1" y="609.3379">WarehouseSpec</text><line style="stroke:#181818;stroke-width:0.5;" x1="385.5" x2="552.5" y1="619.6094" y2="619.6094"/><ellipse cx="395.5" cy="633.9141" fill="none" rx="3" ry="3" style="stroke:#038048;stroke-width:1.0;"/><text fill="#000000" font-family="sans-serif" font-size="14" lengthAdjust="spacing" textLength="143" x="404.5" y="638.1426">WarehouseSpecId : int</text><ellipse cx="395.5" cy="651.5234" fill="none" rx="3" ry="3" style="stroke:#038048;stroke-width:1.0;"/><text fill="#000000" font-family="sans-serif" font-size="14" lengthAdjust="spacing" textLength="83" x="404.5" y="655.752">Notes : string</text><line style="stroke:#181818;stroke-width:0.5;" x1="385.5" x2="552.5" y1="662.8281" y2="662.8281"/></g><!--class Dock--><g id="elem_Dock"><rect codeLine="35" fill="#F1F1F1" height="100.8281" id="Dock" rx="2.5" ry="2.5" style="stroke:#181818;stroke-width:0.5;" width="127" x="800.5" y="578.6094"/><ellipse cx="843.85" cy="594.6094" fill="#ADD1B2" rx="11" ry="11" style="stroke:#181818;stroke-width:1.0;"/><path d="M846.6156,590.4844 Q846.7719,590.2656 846.9594,590.1563 Q847.1469,590.0469 847.3656,590.0469 Q847.7406,590.0469 847.975,590.3125 Q848.2094,590.5625 848.2094,591.1719 L848.2094,592.625 Q848.2094,593.2344 847.975,593.5 Q847.7406,593.7656 847.3656,593.7656 Q847.0219,593.7656 846.8188,593.5625 Q846.6156,593.375 846.5063,592.8594 Q846.4594,592.5 846.2719,592.3125 Q845.9438,591.9375 845.3344,591.7188 Q844.725,591.5 844.1,591.5 Q843.3344,591.5 842.6938,591.8281 Q842.0688,592.1563 841.5688,592.9063 Q841.0844,593.6563 841.0844,594.6875 L841.0844,595.7813 Q841.0844,597.0156 841.975,597.8438 Q842.8656,598.6563 844.4594,598.6563 Q845.3969,598.6563 846.0531,598.4063 Q846.4438,598.25 846.8656,597.8125 Q847.1313,597.5469 847.2719,597.4688 Q847.4281,597.3906 847.6313,597.3906 Q847.9594,597.3906 848.2094,597.6563 Q848.475,597.9063 848.475,598.25 Q848.475,598.5938 848.1313,599 Q847.6313,599.5781 846.8344,599.9063 Q845.7563,600.3594 844.4594,600.3594 Q842.9438,600.3594 841.7406,599.7344 Q840.7563,599.2344 840.0688,598.1719 Q839.3813,597.0938 839.3813,595.8125 L839.3813,594.6563 Q839.3813,593.3281 839.9906,592.1875 Q840.6156,591.0313 841.7094,590.4219 Q842.8031,589.7969 844.0375,589.7969 Q844.7719,589.7969 845.4125,589.9688 Q846.0688,590.125 846.6156,590.4844 Z " fill="#000000"/><text fill="#000000" font-family="sans-serif" font-size="14" lengthAdjust="spacing" textLength="32" x="864.15" y="600.3379">Dock</text><line style="stroke:#181818;stroke-width:0.5;" x1="801.5" x2="926.5" y1="610.6094" y2="610.6094"/><ellipse cx="811.5" cy="624.9141" fill="none" rx="3" ry="3" style="stroke:#038048;stroke-width:1.0;"/><text fill="#000000" font-family="sans-serif" font-size="14" lengthAdjust="spacing" textLength="81" x="820.5" y="629.1426">Code : string</text><ellipse cx="811.5" cy="642.5234" fill="none" rx="3" ry="3" style="stroke:#038048;stroke-width:1.0;"/><text fill="#000000" font-family="sans-serif" font-size="14" lengthAdjust="spacing" textLength="83" x="820.5" y="646.752">Name : string</text><ellipse cx="811.5" cy="660.1328" fill="none" rx="3" ry="3" style="stroke:#038048;stroke-width:1.0;"/><text fill="#000000" font-family="sans-serif" font-size="14" lengthAdjust="spacing" textLength="101" x="820.5" y="664.3613">Location : string</text><line style="stroke:#181818;stroke-width:0.5;" x1="801.5" x2="926.5" y1="671.4375" y2="671.4375"/></g><!--class DockStorageDistance--><g id="elem_DockStorageDistance"><rect codeLine="41" fill="#F1F1F1" height="118.4375" id="DockStorageDistance" rx="2.5" ry="2.5" style="stroke:#181818;stroke-width:0.5;" width="201" x="544.5" y="45.6094"/><ellipse cx="573.9" cy="61.6094" fill="#ADD1B2" rx="11" ry="11" style="stroke:#181818;stroke-width:1.0;"/><path d="M576.6656,57.4844 Q576.8219,57.2656 577.0094,57.1563 Q577.1969,57.0469 577.4156,57.0469 Q577.7906,57.0469 578.025,57.3125 Q578.2594,57.5625 578.2594,58.1719 L578.2594,59.625 Q578.2594,60.2344 578.025,60.5 Q577.7906,60.7656 577.4156,60.7656 Q577.0719,60.7656 576.8688,60.5625 Q576.6656,60.375 576.5563,59.8594 Q576.5094,59.5 576.3219,59.3125 Q575.9938,58.9375 575.3844,58.7188 Q574.775,58.5 574.15,58.5 Q573.3844,58.5 572.7438,58.8281 Q572.1188,59.1563 571.6188,59.9063 Q571.1344,60.6563 571.1344,61.6875 L571.1344,62.7813 Q571.1344,64.0156 572.025,64.8438 Q572.9156,65.6563 574.5094,65.6563 Q575.4469,65.6563 576.1031,65.4063 Q576.4938,65.25 576.9156,64.8125 Q577.1813,64.5469 577.3219,64.4688 Q577.4781,64.3906 577.6813,64.3906 Q578.0094,64.3906 578.2594,64.6563 Q578.525,64.9063 578.525,65.25 Q578.525,65.5938 578.1813,66 Q577.6813,66.5781 576.8844,66.9063 Q575.8063,67.3594 574.5094,67.3594 Q572.9938,67.3594 571.7906,66.7344 Q570.8063,66.2344 570.1188,65.1719 Q569.4313,64.0938 569.4313,62.8125 L569.4313,61.6563 Q569.4313,60.3281 570.0406,59.1875 Q570.6656,58.0313 571.7594,57.4219 Q572.8531,56.7969 574.0875,56.7969 Q574.8219,56.7969 575.4625,56.9688 Q576.1188,57.125 576.6656,57.4844 Z " fill="#000000"/><text fill="#000000" font-family="sans-serif" font-size="14" lengthAdjust="spacing" textLength="137" x="591.1" y="67.3379">DockStorageDistance</text><line style="stroke:#181818;stroke-width:0.5;" x1="545.5" x2="744.5" y1="77.6094" y2="77.6094"/><ellipse cx="555.5" cy="91.9141" fill="none" rx="3" ry="3" style="stroke:#038048;stroke-width:1.0;"/><text fill="#000000" font-family="sans-serif" font-size="14" lengthAdjust="spacing" textLength="175" x="564.5" y="96.1426">DockStorageDistanceId : int</text><ellipse cx="555.5" cy="109.5234" fill="none" rx="3" ry="3" style="stroke:#038048;stroke-width:1.0;"/><text fill="#000000" font-family="sans-serif" font-size="14" lengthAdjust="spacing" textLength="125" x="564.5" y="113.752">DistanceMeters : int</text><ellipse cx="555.5" cy="127.1328" fill="none" rx="3" ry="3" style="stroke:#038048;stroke-width:1.0;"/><text fill="#000000" font-family="sans-serif" font-size="14" lengthAdjust="spacing" textLength="113" x="564.5" y="131.3613">DockCode : string</text><ellipse cx="555.5" cy="144.7422" fill="none" rx="3" ry="3" style="stroke:#038048;stroke-width:1.0;"/><text fill="#000000" font-family="sans-serif" font-size="14" lengthAdjust="spacing" textLength="138" x="564.5" y="148.9707">StorageAreaId : string</text><line style="stroke:#181818;stroke-width:0.5;" x1="545.5" x2="744.5" y1="156.0469" y2="156.0469"/></g><g id="elem_GMN14"><path d="M600,341.6094 L600,367.1094 L565.02,371.1094 L600,375.1094 L600,400.6641 A0,0 0 0 0 600,400.6641 L934,400.6641 A0,0 0 0 0 934,400.6641 L934,351.6094 L924,341.6094 L600,341.6094 A0,0 0 0 0 600,341.6094 " fill="#FEFFDD" style="stroke:#181818;stroke-width:0.5;"/><path d="M924,341.6094 L924,351.6094 L934,351.6094 L924,341.6094 " fill="#FEFFDD" style="stroke:#181818;stroke-width:0.5;"/><text fill="#000000" font-family="sans-serif" font-size="13" lengthAdjust="spacing" textLength="313" x="606" y="360.1045">Invariant: CurrentOccupancyTEU &lt;= MaxCapacityTEU</text><text fill="#000000" font-family="sans-serif" font-size="13" lengthAdjust="spacing" textLength="191" x="606" y="376.4561">By default ServesAllDocks = true</text><text fill="#000000" font-family="sans-serif" font-size="13" lengthAdjust="spacing" textLength="276" x="606" y="392.8076">YardSpec XOR WarehouseSpec based on Type</text></g><!--link StorageArea to StorageAreaType--><g id="link_StorageArea_StorageAreaType"><path codeLine="49" d="M200.5,500.8594 C182.15,528.4994 167.1394,551.1012 152.2694,573.4912 " fill="none" id="StorageArea-to-StorageAreaType" style="stroke:#181818;stroke-width:1.0;"/><polygon fill="#181818" points="148.95,578.4894,157.2612,573.2051,151.7162,574.3243,150.5971,568.7792,148.95,578.4894" style="stroke:#181818;stroke-width:1.0;"/><text fill="#000000" font-family="sans-serif" font-size="13" lengthAdjust="spacing" textLength="50" x="177" y="545.1045">has type</text></g><!--reverse link StorageArea to YardSpec--><g id="link_StorageArea_YardSpec"><path codeLine="50" d="M286,512.8594 C286,544.3594 286,563.7994 286,587.5494 " fill="none" id="StorageArea-backto-YardSpec" style="stroke:#181818;stroke-width:1.0;"/><polygon fill="#181818" points="286,500.8594,282,506.8594,286,512.8594,290,506.8594,286,500.8594" style="stroke:#181818;stroke-width:1.0;"/><text fill="#000000" font-family="sans-serif" font-size="13" lengthAdjust="spacing" textLength="68" x="287" y="545.1045">owns (XOR)</text><text fill="#000000" font-family="sans-serif" font-size="13" lengthAdjust="spacing" textLength="7" x="278.7977" y="522.3193">1</text><text fill="#000000" font-family="sans-serif" font-size="13" lengthAdjust="spacing" textLength="22" x="262.1781" y="576.8471">0..1</text></g><!--reverse link StorageArea to WarehouseSpec--><g id="link_StorageArea_WarehouseSpec"><path codeLine="51" d="M385.0169,510.6227 C407.5269,542.1227 423.03,563.7994 440.01,587.5494 " fill="none" id="StorageArea-backto-WarehouseSpec" style="stroke:#181818;stroke-width:1.0;"/><polygon fill="#181818" points="378.04,500.8594,378.274,508.0667,385.0169,510.6227,384.7829,503.4154,378.04,500.8594" style="stroke:#181818;stroke-width:1.0;"/><text fill="#000000" font-family="sans-serif" font-size="13" lengthAdjust="spacing" textLength="68" x="410" y="545.1045">owns (XOR)</text><text fill="#000000" font-family="sans-serif" font-size="13" lengthAdjust="spacing" textLength="7" x="376.1587" y="522.3193">1</text><text fill="#000000" font-family="sans-serif" font-size="13" lengthAdjust="spacing" textLength="22" x="411.3867" y="576.8471">0..1</text></g><!--link StorageArea to Dock--><g id="link_StorageArea_Dock"><path codeLine="52" d="M565.26,495.7994 C653.38,534.8194 742.7,574.3794 800.41,599.9494 " fill="none" id="StorageArea-Dock" style="stroke:#181818;stroke-width:1.0;"/><text fill="#000000" font-family="sans-serif" font-size="13" lengthAdjust="spacing" textLength="110" x="678" y="545.1045">serves/restricted to</text><text fill="#000000" font-family="sans-serif" font-size="13" lengthAdjust="spacing" textLength="5" x="572.7443" y="496.3946">*</text><text fill="#000000" font-family="sans-serif" font-size="13" lengthAdjust="spacing" textLength="5" x="787.3553" y="592.9475">*</text></g><!--link DockStorageDistance to Dock--><g id="link_DockStorageDistance_Dock"><path codeLine="53" d="M745.81,121.0494 C816.7,137.7294 906.69,171.9794 952,241.6094 C1014.78,338.0894 986.24,390.7094 952,500.6094 C943.2,528.8594 925.71,556.3694 908.63,578.5594 " fill="none" id="DockStorageDistance-Dock" style="stroke:#181818;stroke-width:1.0;"/><text fill="#000000" font-family="sans-serif" font-size="13" lengthAdjust="spacing" textLength="25" x="990" y="376.6045">from</text><text fill="#000000" font-family="sans-serif" font-size="13" lengthAdjust="spacing" textLength="5" x="753.3968" y="119.1611">*</text><text fill="#000000" font-family="sans-serif" font-size="13" lengthAdjust="spacing" textLength="7" x="907.4139" y="567.8577">1</text></g><!--link DockStorageDistance to StorageArea--><g id="link_DockStorageDistance_StorageArea"><path codeLine="54" d="M566.22,163.6594 C534.95,186.6894 497.65,214.1794 460.62,241.4494 " fill="none" id="DockStorageDistance-StorageArea" style="stroke:#181818;stroke-width:1.0;"/><text fill="#000000" font-family="sans-serif" font-size="13" lengthAdjust="spacing" textLength="11" x="519" y="208.1045">to</text><text fill="#000000" font-family="sans-serif" font-size="13" lengthAdjust="spacing" textLength="5" x="550.806" y="185.7398">*</text><text fill="#000000" font-family="sans-serif" font-size="13" lengthAdjust="spacing" textLength="7" x="464.0476" y="230.557">1</text></g><!--SRC=[bLJVRzem47xFNt7YeGjjmzPgJr5RYG7Ia0P8IL77eqaEi1Rio7ReqDJ_VMUJP4bAr-qfpdt-xhxxPSDDXZ2MUyO5p6IA6GImZE5sS3lu37w4MwuDAhY0PPuoWn0RgTWMOQYGwRxd9HdJkh9Q8_po0AwQbcaA8MYZkDWwQCxssBPyamapN8gsTSP-ZbZE4cwEZvCbOLmO1umAfL2OHP8KEHD91urH7L0Fismian-QWBMKcKCUZxaDt91cBGG5WSDFAVg2z8Kd7TUGbT9gmxwbAgIerw1R8KCRi4-13fAdfIIpOYgDSqny8GtgqbltqXDJk9E5ndTlkYHJ5yvFNT3fH1HxL6oTuPsrFxGefzJgYla2d-iVcqDz-SNpa1nrY-IwkeZ6q_amMj5nDOp6z7aQHfElYsKyiRpJA5I9bdDG_ReXg5eqjvdzQNRDRULVEcZP_icBpRuaZsYY_t_uMfxAGenf3wXOM3e-WxIqLSOPqlRe9a34rwhUs1OIyW4Yp9m-lUEvzfgR5WGFh_eKmevfC7QkcrTxDpsu30BeVHeCw5WtAGJvB3JutnTH_s-4TcVUPbtsm9BeuxeGbglnKQ5DAJ6OWf7UkRfMr9kQkb5o_zxLPl3GklRire3Ysvq1kMdYLEYfE335cJ3XsJVaxhxpvX3bon5ItB0YCzs7vHwCAkphKHUJoj4fr9ffofXcopqqA5Amydu3]--></g></svg>