<?xml version="1.0" encoding="us-ascii" standalone="no"?><svg xmlns="http://www.w3.org/2000/svg" xmlns:xlink="http://www.w3.org/1999/xlink" contentStyleType="text/css" height="913px" preserveAspectRatio="none" style="width:1790px;height:913px;background:#FFFFFF;" version="1.1" viewBox="0 0 1790 913" width="1790px" zoomAndPan="magnify"><defs/><g><text fill="#000000" font-family="sans-serif" font-size="14" font-weight="bold" lengthAdjust="spacing" textLength="257" x="767.5" y="29.5332">SSD - Register Storage Area (Create)</text><rect fill="#FFFFFF" height="115.4063" style="stroke:#181818;stroke-width:1.0;" width="10" x="995" y="200.2734"/><rect fill="none" height="556" style="stroke:#000000;stroke-width:1.5;" width="1116.5" x="666.5" y="258.625"/><rect fill="none" height="94.8906" style="stroke:#000000;stroke-width:1.5;" width="755.5" x="908.5" y="407.2188"/><rect fill="none" height="139.7578" style="stroke:#000000;stroke-width:1.5;" width="864.5" x="908.5" y="516.1094"/><line style="stroke:#181818;stroke-width:0.5;stroke-dasharray:5.0,5.0;" x1="74" x2="74" y1="121.2188" y2="831.625"/><line style="stroke:#181818;stroke-width:0.5;stroke-dasharray:5.0,5.0;" x1="739.5" x2="739.5" y1="121.2188" y2="831.625"/><line style="stroke:#181818;stroke-width:0.5;stroke-dasharray:5.0,5.0;" x1="999.5" x2="999.5" y1="121.2188" y2="831.625"/><line style="stroke:#181818;stroke-width:0.5;stroke-dasharray:5.0,5.0;" x1="1417" x2="1417" y1="121.2188" y2="831.625"/><line style="stroke:#181818;stroke-width:0.5;stroke-dasharray:5.0,5.0;" x1="1576" x2="1576" y1="121.2188" y2="831.625"/><line style="stroke:#181818;stroke-width:0.5;stroke-dasharray:5.0,5.0;" x1="1713" x2="1713" y1="121.2188" y2="831.625"/><text fill="#000000" font-family="sans-serif" font-size="14" lengthAdjust="spacing" textLength="132" x="5" y="118.1426">Port Authority Officer</text><ellipse cx="74" cy="52.1094" fill="#E2E2F0" rx="8" ry="8" style="stroke:#181818;stroke-width:0.5;"/><path d="M74,60.1094 L74,87.1094 M61,68.1094 L87,68.1094 M74,87.1094 L61,102.1094 M74,87.1094 L87,102.1094 " fill="none" style="stroke:#181818;stroke-width:0.5;"/><text fill="#000000" font-family="sans-serif" font-size="14" lengthAdjust="spacing" textLength="132" x="5" y="845.1582">Port Authority Officer</text><ellipse cx="74" cy="856.7344" fill="#E2E2F0" rx="8" ry="8" style="stroke:#181818;stroke-width:0.5;"/><path d="M74,864.7344 L74,891.7344 M61,872.7344 L87,872.7344 M74,891.7344 L61,906.7344 M74,891.7344 L87,906.7344 " fill="none" style="stroke:#181818;stroke-width:0.5;"/><rect fill="#E2E2F0" height="31.6094" rx="2.5" ry="2.5" style="stroke:#181818;stroke-width:0.5;" width="127" x="676.5" y="88.6094"/><text fill="#000000" font-family="sans-serif" font-size="14" lengthAdjust="spacing" textLength="113" x="683.5" y="110.1426">Scalar / API Client</text><rect fill="#E2E2F0" height="31.6094" rx="2.5" ry="2.5" style="stroke:#181818;stroke-width:0.5;" width="127" x="676.5" y="830.625"/><text fill="#000000" font-family="sans-serif" font-size="14" lengthAdjust="spacing" textLength="113" x="683.5" y="852.1582">Scalar / API Client</text><rect fill="#E2E2F0" height="31.6094" rx="2.5" ry="2.5" style="stroke:#181818;stroke-width:0.5;" width="163" x="918.5" y="88.6094"/><text fill="#000000" font-family="sans-serif" font-size="14" lengthAdjust="spacing" textLength="149" x="925.5" y="110.1426">StorageAreasController</text><rect fill="#E2E2F0" height="31.6094" rx="2.5" ry="2.5" style="stroke:#181818;stroke-width:0.5;" width="163" x="918.5" y="830.625"/><text fill="#000000" font-family="sans-serif" font-size="14" lengthAdjust="spacing" textLength="149" x="925.5" y="852.1582">StorageAreasController</text><rect fill="#E2E2F0" height="31.6094" rx="2.5" ry="2.5" style="stroke:#181818;stroke-width:0.5;" width="106" x="1364" y="88.6094"/><text fill="#000000" font-family="sans-serif" font-size="14" lengthAdjust="spacing" textLength="92" x="1371" y="110.1426">PortDbContext</text><rect fill="#E2E2F0" height="31.6094" rx="2.5" ry="2.5" style="stroke:#181818;stroke-width:0.5;" width="106" x="1364" y="830.625"/><text fill="#000000" font-family="sans-serif" font-size="14" lengthAdjust="spacing" textLength="92" x="1371" y="852.1582">PortDbContext</text><rect fill="#E2E2F0" height="31.6094" rx="2.5" ry="2.5" style="stroke:#181818;stroke-width:0.5;" width="156" x="1498" y="88.6094"/><text fill="#000000" font-family="sans-serif" font-size="14" lengthAdjust="spacing" textLength="142" x="1505" y="110.1426">StorageArea (Domain)</text><rect fill="#E2E2F0" height="31.6094" rx="2.5" ry="2.5" style="stroke:#181818;stroke-width:0.5;" width="156" x="1498" y="830.625"/><text fill="#000000" font-family="sans-serif" font-size="14" lengthAdjust="spacing" textLength="142" x="1505" y="852.1582">StorageArea (Domain)</text><text fill="#000000" font-family="sans-serif" font-size="14" lengthAdjust="spacing" textLength="93" x="1664" y="118.1426">EF (InMemory)</text><path d="M1695.5,67.6094 C1695.5,57.6094 1713.5,57.6094 1713.5,57.6094 C1713.5,57.6094 1731.5,57.6094 1731.5,67.6094 L1731.5,93.6094 C1731.5,103.6094 1713.5,103.6094 1713.5,103.6094 C1713.5,103.6094 1695.5,103.6094 1695.5,93.6094 L1695.5,67.6094 " fill="#E2E2F0" style="stroke:#181818;stroke-width:1.5;"/><path d="M1695.5,67.6094 C1695.5,77.6094 1713.5,77.6094 1713.5,77.6094 C1713.5,77.6094 1731.5,77.6094 1731.5,67.6094 " fill="none" style="stroke:#181818;stroke-width:1.5;"/><text fill="#000000" font-family="sans-serif" font-size="14" lengthAdjust="spacing" textLength="93" x="1664" y="845.1582">EF (InMemory)</text><path d="M1695.5,858.2344 C1695.5,848.2344 1713.5,848.2344 1713.5,848.2344 C1713.5,848.2344 1731.5,848.2344 1731.5,858.2344 L1731.5,884.2344 C1731.5,894.2344 1713.5,894.2344 1713.5,894.2344 C1713.5,894.2344 1695.5,894.2344 1695.5,884.2344 L1695.5,858.2344 " fill="#E2E2F0" style="stroke:#181818;stroke-width:1.5;"/><path d="M1695.5,858.2344 C1695.5,868.2344 1713.5,868.2344 1713.5,868.2344 C1713.5,868.2344 1731.5,868.2344 1731.5,858.2344 " fill="none" style="stroke:#181818;stroke-width:1.5;"/><rect fill="#FFFFFF" height="115.4063" style="stroke:#181818;stroke-width:1.0;" width="10" x="995" y="200.2734"/><polygon fill="#181818" points="728,165.9219,738,169.9219,728,173.9219,732,169.9219" style="stroke:#181818;stroke-width:1.0;"/><line style="stroke:#181818;stroke-width:1.0;" x1="74" x2="734" y1="169.9219" y2="169.9219"/><text fill="#000000" font-family="sans-serif" font-size="13" lengthAdjust="spacing" textLength="139" x="81" y="148.7139">POST /api/storageareas</text><text fill="#000000" font-family="sans-serif" font-size="13" lengthAdjust="spacing" textLength="642" x="81" y="165.0654">{ Name, Location, MaxCapacityTEU, Type, ServesAllDocks, ServedDockCodes, YardNotes, WarehouseNotes }</text><polygon fill="#181818" points="983,196.2734,993,200.2734,983,204.2734,987,200.2734" style="stroke:#181818;stroke-width:1.0;"/><line style="stroke:#181818;stroke-width:1.0;" x1="740" x2="989" y1="200.2734" y2="200.2734"/><text fill="#000000" font-family="sans-serif" font-size="13" lengthAdjust="spacing" textLength="64" x="747" y="195.417">Create(dto)</text><line style="stroke:#181818;stroke-width:1.0;" x1="1005" x2="1047" y1="230.625" y2="230.625"/><line style="stroke:#181818;stroke-width:1.0;" x1="1047" x2="1047" y1="230.625" y2="243.625"/><line style="stroke:#181818;stroke-width:1.0;" x1="1006" x2="1047" y1="243.625" y2="243.625"/><polygon fill="#181818" points="1016,239.625,1006,243.625,1016,247.625,1012,243.625" style="stroke:#181818;stroke-width:1.0;"/><text fill="#000000" font-family="sans-serif" font-size="13" lengthAdjust="spacing" textLength="201" x="1012" y="225.7686">validate dto (MaxCapacityTEU &gt; 0)</text><path d="M666.5,258.625 L727.5,258.625 L727.5,266.9766 L717.5,276.9766 L666.5,276.9766 L666.5,258.625 " fill="#EEEEEE" style="stroke:#000000;stroke-width:1.5;"/><rect fill="none" height="556" style="stroke:#000000;stroke-width:1.5;" width="1116.5" x="666.5" y="258.625"/><text fill="#000000" font-family="sans-serif" font-size="13" font-weight="bold" lengthAdjust="spacing" textLength="16" x="681.5" y="273.1201">alt</text><text fill="#000000" font-family="sans-serif" font-size="11" font-weight="bold" lengthAdjust="spacing" textLength="90" x="742.5" y="272.0439">[invalid capacity]</text><polygon fill="#181818" points="751,311.6797,741,315.6797,751,319.6797,747,315.6797" style="stroke:#181818;stroke-width:1.0;"/><line style="stroke:#181818;stroke-width:1.0;stroke-dasharray:2.0,2.0;" x1="745" x2="999" y1="315.6797" y2="315.6797"/><text fill="#000000" font-family="sans-serif" font-size="13" lengthAdjust="spacing" textLength="100" x="757" y="294.4717">400 Bad Request</text><text fill="#000000" font-family="sans-serif" font-size="13" lengthAdjust="spacing" textLength="186" x="757" y="310.8232">"Max capacity must be positive"</text><line style="stroke:#000000;stroke-width:1.0;stroke-dasharray:2.0,2.0;" x1="666.5" x2="1783" y1="324.6797" y2="324.6797"/><text fill="#000000" font-family="sans-serif" font-size="11" font-weight="bold" lengthAdjust="spacing" textLength="59" x="671.5" y="336.0986">[valid data]</text><polygon fill="#181818" points="1564,357.8672,1574,361.8672,1564,365.8672,1568,361.8672" style="stroke:#181818;stroke-width:1.0;"/><line style="stroke:#181818;stroke-width:1.0;" x1="1000" x2="1570" y1="361.8672" y2="361.8672"/><text fill="#000000" font-family="sans-serif" font-size="13" lengthAdjust="spacing" textLength="552" x="1007" y="357.0107">new StorageArea(dto.Name, dto.Location, dto.MaxCapacityTEU, dto.Type, dto.ServesAllDocks)</text><polygon fill="#181818" points="1011,388.2188,1001,392.2188,1011,396.2188,1007,392.2188" style="stroke:#181818;stroke-width:1.0;"/><line style="stroke:#181818;stroke-width:1.0;stroke-dasharray:2.0,2.0;" x1="1005" x2="1575" y1="392.2188" y2="392.2188"/><text fill="#000000" font-family="sans-serif" font-size="13" lengthAdjust="spacing" textLength="70" x="1017" y="387.3623">storageArea</text><path d="M908.5,407.2188 L969.5,407.2188 L969.5,415.5703 L959.5,425.5703 L908.5,425.5703 L908.5,407.2188 " fill="#EEEEEE" style="stroke:#000000;stroke-width:1.5;"/><rect fill="none" height="94.8906" style="stroke:#000000;stroke-width:1.5;" width="755.5" x="908.5" y="407.2188"/><text fill="#000000" font-family="sans-serif" font-size="13" font-weight="bold" lengthAdjust="spacing" textLength="16" x="923.5" y="421.7139">alt</text><text fill="#000000" font-family="sans-serif" font-size="11" font-weight="bold" lengthAdjust="spacing" textLength="236" x="984.5" y="420.6377">[Type is YARD and dto.YardNotes provided]</text><polygon fill="#181818" points="1564,443.9219,1574,447.9219,1564,451.9219,1568,447.9219" style="stroke:#181818;stroke-width:1.0;"/><line style="stroke:#181818;stroke-width:1.0;" x1="1000" x2="1570" y1="447.9219" y2="447.9219"/><text fill="#000000" font-family="sans-serif" font-size="13" lengthAdjust="spacing" textLength="242" x="1007" y="443.0654">storageArea.SetYardSpec(dto.YardNotes)</text><line style="stroke:#000000;stroke-width:1.0;stroke-dasharray:2.0,2.0;" x1="908.5" x2="1664" y1="456.9219" y2="456.9219"/><text fill="#000000" font-family="sans-serif" font-size="11" font-weight="bold" lengthAdjust="spacing" textLength="311" x="913.5" y="468.3408">[Type is WAREHOUSE and dto.WarehouseNotes provided]</text><polygon fill="#181818" points="1564,490.1094,1574,494.1094,1564,498.1094,1568,494.1094" style="stroke:#181818;stroke-width:1.0;"/><line style="stroke:#181818;stroke-width:1.0;" x1="1000" x2="1570" y1="494.1094" y2="494.1094"/><text fill="#000000" font-family="sans-serif" font-size="13" lengthAdjust="spacing" textLength="320" x="1007" y="489.2529">storageArea.SetWarehouseSpec(dto.WarehouseNotes)</text><path d="M908.5,516.1094 L969.5,516.1094 L969.5,524.4609 L959.5,534.4609 L908.5,534.4609 L908.5,516.1094 " fill="#EEEEEE" style="stroke:#000000;stroke-width:1.5;"/><rect fill="none" height="139.7578" style="stroke:#000000;stroke-width:1.5;" width="864.5" x="908.5" y="516.1094"/><text fill="#000000" font-family="sans-serif" font-size="13" font-weight="bold" lengthAdjust="spacing" textLength="16" x="923.5" y="530.6045">alt</text><text fill="#000000" font-family="sans-serif" font-size="11" font-weight="bold" lengthAdjust="spacing" textLength="296" x="984.5" y="529.5283">[not ServesAllDocks and ServedDockCodes provided]</text><polygon fill="#181818" points="1405,552.8125,1415,556.8125,1405,560.8125,1409,556.8125" style="stroke:#181818;stroke-width:1.0;"/><line style="stroke:#181818;stroke-width:1.0;" x1="1000" x2="1411" y1="556.8125" y2="556.8125"/><text fill="#000000" font-family="sans-serif" font-size="13" lengthAdjust="spacing" textLength="393" x="1007" y="551.9561">Where(d =&gt; dto.ServedDockCodes.Contains(d.Code)).ToListAsync()</text><polygon fill="#181818" points="1701.5,583.1641,1711.5,587.1641,1701.5,591.1641,1705.5,587.1641" style="stroke:#181818;stroke-width:1.0;"/><line style="stroke:#181818;stroke-width:1.0;" x1="1417" x2="1707.5" y1="587.1641" y2="587.1641"/><text fill="#000000" font-family="sans-serif" font-size="13" lengthAdjust="spacing" textLength="32" x="1424" y="582.3076">query</text><polygon fill="#181818" points="1428,613.5156,1418,617.5156,1428,621.5156,1424,617.5156" style="stroke:#181818;stroke-width:1.0;"/><line style="stroke:#181818;stroke-width:1.0;stroke-dasharray:2.0,2.0;" x1="1422" x2="1712.5" y1="617.5156" y2="617.5156"/><text fill="#000000" font-family="sans-serif" font-size="13" lengthAdjust="spacing" textLength="67" x="1434" y="612.6592">List&lt;Dock&gt;</text><polygon fill="#181818" points="1564,643.8672,1574,647.8672,1564,651.8672,1568,647.8672" style="stroke:#181818;stroke-width:1.0;"/><line style="stroke:#181818;stroke-width:1.0;" x1="1000" x2="1570" y1="647.8672" y2="647.8672"/><text fill="#000000" font-family="sans-serif" font-size="13" lengthAdjust="spacing" textLength="213" x="1007" y="643.0107">storageArea.SetServedDocks(docks)</text><polygon fill="#181818" points="1405,681.2188,1415,685.2188,1405,689.2188,1409,685.2188" style="stroke:#181818;stroke-width:1.0;"/><line style="stroke:#181818;stroke-width:1.0;" x1="1000" x2="1411" y1="685.2188" y2="685.2188"/><text fill="#000000" font-family="sans-serif" font-size="13" lengthAdjust="spacing" textLength="101" x="1007" y="680.3623">Add(storageArea)</text><polygon fill="#181818" points="1405,711.5703,1415,715.5703,1405,719.5703,1409,715.5703" style="stroke:#181818;stroke-width:1.0;"/><line style="stroke:#181818;stroke-width:1.0;" x1="1000" x2="1411" y1="715.5703" y2="715.5703"/><text fill="#000000" font-family="sans-serif" font-size="13" lengthAdjust="spacing" textLength="124" x="1007" y="710.7139">SaveChangesAsync()</text><polygon fill="#181818" points="1701.5,741.9219,1711.5,745.9219,1701.5,749.9219,1705.5,745.9219" style="stroke:#181818;stroke-width:1.0;"/><line style="stroke:#181818;stroke-width:1.0;" x1="1417" x2="1707.5" y1="745.9219" y2="745.9219"/><text fill="#000000" font-family="sans-serif" font-size="13" lengthAdjust="spacing" textLength="32" x="1424" y="741.0654">insert</text><polygon fill="#181818" points="1428,772.2734,1418,776.2734,1428,780.2734,1424,776.2734" style="stroke:#181818;stroke-width:1.0;"/><line style="stroke:#181818;stroke-width:1.0;stroke-dasharray:2.0,2.0;" x1="1422" x2="1712.5" y1="776.2734" y2="776.2734"/><text fill="#000000" font-family="sans-serif" font-size="13" lengthAdjust="spacing" textLength="14" x="1434" y="771.417">ok</text><polygon fill="#181818" points="751,802.625,741,806.625,751,810.625,747,806.625" style="stroke:#181818;stroke-width:1.0;"/><line style="stroke:#181818;stroke-width:1.0;stroke-dasharray:2.0,2.0;" x1="745" x2="999" y1="806.625" y2="806.625"/><text fill="#000000" font-family="sans-serif" font-size="13" lengthAdjust="spacing" textLength="236" x="757" y="801.7686">201 Created + StorageAreaResponseDto</text><!--SRC=[ZLHDRzim3BtxLn0vsLYJPiDEmnR0ipEiGByG9oWAzA9OR2FKaJn9oHeC_UyZBIUnqstOnP0eyht79z5U-GgXA78OmWoVbFDeeV36YYU4rAA0EAElnoIAH4bn6DmQwo7T-9Mnok_Wvl5HbMW781mi7Dge5jQhKjL2UnWKfQY4XND8RoyWgnHgtsI6vKbke6LMbndjhQcg5ZZhPxA4VCav-1BmykLViI3EpLeedOJ4I0elbi8X3ARV8BxGLxWsTXTEkGoZYFk0uQHL2P_WzgQOmxcerRaBm895FkXVS2tMU0QNfXHU6Nq6L-8b4xKeoPhvT746yrrDvmNQBRgqgd9JFhjsBtcJ6OaKk1TMNXlFopl2NfcDmsOFhr6hWlMGb70TiVGcuHjHMzgHFr6sJzYAIaaEKWh4VJqmWJ6LLHwKRlAWR0yZeE9Xj-UFup5y5PAUnOyDEl-W1uHro8VrndbO8jJ6ALA10qAGs5645NaSIDZoG321dA0r_eJE3N4pes0ahuvcykxKK8u5KtdLDpOXaZnqGIpko13H0NVDXQ0StAUp78IM3SR1UwYjsIg9ah8xQZiunESvlQYnZ7krJDrqlAUuIsVJxpUBOdhWERdO_o8xr1mO-oWDhPRx_hJn9s-jOJzvRd-YNXBttGejlIpuCZbwUwmQyRpH7BbOZZYG9AEvkQG_HkfskeoJ1enm2AqP8mAaXsDtJJn4XdicBllCo9D_TdzKGAJx2sxRFSfEfOmxXKdli11Rp5P2Fv4b1vrzbTGIMX-z4McUexTJyM7ylXr12U-wZtY6hZQ4b7lpPXAq_0q0]--></g></svg>