<?xml version="1.0" encoding="us-ascii" standalone="no"?><svg xmlns="http://www.w3.org/2000/svg" xmlns:xlink="http://www.w3.org/1999/xlink" contentStyleType="text/css" height="1017px" preserveAspectRatio="none" style="width:1571px;height:1017px;background:#FFFFFF;" version="1.1" viewBox="0 0 1571 1017" width="1571px" zoomAndPan="magnify"><defs/><g><text fill="#000000" font-family="sans-serif" font-size="14" font-weight="bold" lengthAdjust="spacing" textLength="414" x="571.5" y="24.5332">System Diagram - US 2.2.4 Register &amp; Update Storage Areas</text><!--cluster Client Layer--><g id="cluster_Client Layer"><rect fill="none" height="100" rx="2.5" ry="2.5" style="stroke:#181818;stroke-width:1.0;" width="202" x="467" y="186.1094"/><text fill="#000000" font-family="sans-serif" font-size="14" font-weight="bold" lengthAdjust="spacing" textLength="83" x="526.5" y="202.6426">Client Layer</text></g><!--cluster Web API--><g id="cluster_Web API"><polygon fill="none" points="457,362.1094,467,352.1094,679,352.1094,679,447.1094,669,457.1094,457,457.1094,457,362.1094" style="stroke:#181818;stroke-width:1.0;"/><line style="stroke:#181818;stroke-width:1.0;" x1="669" x2="679" y1="362.1094" y2="352.1094"/><line style="stroke:#181818;stroke-width:1.0;" x1="457" x2="669" y1="362.1094" y2="362.1094"/><line style="stroke:#181818;stroke-width:1.0;" x1="669" x2="669" y1="362.1094" y2="457.1094"/><text fill="#000000" font-family="sans-serif" font-size="14" font-weight="bold" lengthAdjust="spacing" textLength="57" x="535.5" y="379.6426">Web API</text></g><!--cluster Application DTOs--><g id="cluster_Application DTOs"><path d="M8.5,507.1094 L128.5,507.1094 A3.75,3.75 0 0 1 131,509.6094 L138,530.7188 L684.5,530.7188 A2.5,2.5 0 0 1 687,533.2188 L687,604.6094 A2.5,2.5 0 0 1 684.5,607.1094 L8.5,607.1094 A2.5,2.5 0 0 1 6,604.6094 L6,509.6094 A2.5,2.5 0 0 1 8.5,507.1094 " fill="none" style="stroke:#000000;stroke-width:1.5;"/><line style="stroke:#000000;stroke-width:1.5;" x1="6" x2="138" y1="530.7188" y2="530.7188"/><text fill="#000000" font-family="sans-serif" font-size="14" font-weight="bold" lengthAdjust="spacing" textLength="119" x="10" y="523.6426">Application DTOs</text></g><!--cluster Infrastructure--><g id="cluster_Infrastructure"><path d="M713.5,507.1094 L811.5,507.1094 A3.75,3.75 0 0 1 814,509.6094 L821,530.7188 L928.5,530.7188 A2.5,2.5 0 0 1 931,533.2188 L931,880.1094 A2.5,2.5 0 0 1 928.5,882.6094 L713.5,882.6094 A2.5,2.5 0 0 1 711,880.1094 L711,509.6094 A2.5,2.5 0 0 1 713.5,507.1094 " fill="none" style="stroke:#000000;stroke-width:1.5;"/><line style="stroke:#000000;stroke-width:1.5;" x1="711" x2="821" y1="530.7188" y2="530.7188"/><text fill="#000000" font-family="sans-serif" font-size="14" font-weight="bold" lengthAdjust="spacing" textLength="97" x="715" y="523.6426">Infrastructure</text></g><!--cluster Domain--><g id="cluster_Domain"><path d="M957.5,783.1094 L1010.5,783.1094 A3.75,3.75 0 0 1 1013,785.6094 L1020,806.7188 L1561.5,806.7188 A2.5,2.5 0 0 1 1564,809.2188 L1564,1008.1094 A2.5,2.5 0 0 1 1561.5,1010.6094 L957.5,1010.6094 A2.5,2.5 0 0 1 955,1008.1094 L955,785.6094 A2.5,2.5 0 0 1 957.5,783.1094 " fill="none" style="stroke:#000000;stroke-width:1.5;"/><line style="stroke:#000000;stroke-width:1.5;" x1="955" x2="1020" y1="806.7188" y2="806.7188"/><text fill="#000000" font-family="sans-serif" font-size="14" font-weight="bold" lengthAdjust="spacing" textLength="52" x="959" y="799.6426">Domain</text></g><!--entity ApiClient--><g id="elem_ApiClient"><rect fill="#F1F1F1" height="47.6094" rx="2.5" ry="2.5" style="stroke:#181818;stroke-width:0.5;" width="169" x="483.5" y="222.1094"/><rect fill="#F1F1F1" height="10" style="stroke:#181818;stroke-width:0.5;" width="15" x="632.5" y="227.1094"/><rect fill="#F1F1F1" height="2" style="stroke:#181818;stroke-width:0.5;" width="4" x="630.5" y="229.1094"/><rect fill="#F1F1F1" height="2" style="stroke:#181818;stroke-width:0.5;" width="4" x="630.5" y="233.1094"/><text fill="#000000" font-family="sans-serif" font-size="14" lengthAdjust="spacing" textLength="129" x="498.5" y="256.6426">Scalar UI / API Client</text></g><!--entity C_SA--><g id="elem_C_SA"><rect fill="#F1F1F1" height="47.6094" rx="2.5" ry="2.5" style="stroke:#181818;stroke-width:0.5;" width="189" x="473.5" y="393.1094"/><rect fill="#F1F1F1" height="10" style="stroke:#181818;stroke-width:0.5;" width="15" x="642.5" y="398.1094"/><rect fill="#F1F1F1" height="2" style="stroke:#181818;stroke-width:0.5;" width="4" x="640.5" y="400.1094"/><rect fill="#F1F1F1" height="2" style="stroke:#181818;stroke-width:0.5;" width="4" x="640.5" y="404.1094"/><text fill="#000000" font-family="sans-serif" font-size="14" lengthAdjust="spacing" textLength="149" x="488.5" y="427.6426">StorageAreasController</text></g><!--entity CreateStorageAreaDto--><g id="elem_CreateStorageAreaDto"><rect fill="#F1F1F1" height="47.6094" rx="2.5" ry="2.5" style="stroke:#181818;stroke-width:0.5;" width="185" x="22.5" y="543.1094"/><rect fill="#F1F1F1" height="10" style="stroke:#181818;stroke-width:0.5;" width="15" x="187.5" y="548.1094"/><rect fill="#F1F1F1" height="2" style="stroke:#181818;stroke-width:0.5;" width="4" x="185.5" y="550.1094"/><rect fill="#F1F1F1" height="2" style="stroke:#181818;stroke-width:0.5;" width="4" x="185.5" y="554.1094"/><text fill="#000000" font-family="sans-serif" font-size="14" lengthAdjust="spacing" textLength="145" x="37.5" y="577.6426">CreateStorageAreaDto</text></g><!--entity UpdateStorageAreaDto--><g id="elem_UpdateStorageAreaDto"><rect fill="#F1F1F1" height="47.6094" rx="2.5" ry="2.5" style="stroke:#181818;stroke-width:0.5;" width="187" x="242.5" y="543.1094"/><rect fill="#F1F1F1" height="10" style="stroke:#181818;stroke-width:0.5;" width="15" x="409.5" y="548.1094"/><rect fill="#F1F1F1" height="2" style="stroke:#181818;stroke-width:0.5;" width="4" x="407.5" y="550.1094"/><rect fill="#F1F1F1" height="2" style="stroke:#181818;stroke-width:0.5;" width="4" x="407.5" y="554.1094"/><text fill="#000000" font-family="sans-serif" font-size="14" lengthAdjust="spacing" textLength="147" x="257.5" y="577.6426">UpdateStorageAreaDto</text></g><!--entity StorageAreaResponseDto--><g id="elem_StorageAreaResponseDto"><rect fill="#F1F1F1" height="47.6094" rx="2.5" ry="2.5" style="stroke:#181818;stroke-width:0.5;" width="206" x="465" y="543.1094"/><rect fill="#F1F1F1" height="10" style="stroke:#181818;stroke-width:0.5;" width="15" x="651" y="548.1094"/><rect fill="#F1F1F1" height="2" style="stroke:#181818;stroke-width:0.5;" width="4" x="649" y="550.1094"/><rect fill="#F1F1F1" height="2" style="stroke:#181818;stroke-width:0.5;" width="4" x="649" y="554.1094"/><text fill="#000000" font-family="sans-serif" font-size="14" lengthAdjust="spacing" textLength="166" x="480" y="577.6426">StorageAreaResponseDto</text></g><!--entity Db--><g id="elem_Db"><rect fill="#F1F1F1" height="47.6094" rx="2.5" ry="2.5" style="stroke:#181818;stroke-width:0.5;" width="132" x="783" y="671.1094"/><rect fill="#F1F1F1" height="10" style="stroke:#181818;stroke-width:0.5;" width="15" x="895" y="676.1094"/><rect fill="#F1F1F1" height="2" style="stroke:#181818;stroke-width:0.5;" width="4" x="893" y="678.1094"/><rect fill="#F1F1F1" height="2" style="stroke:#181818;stroke-width:0.5;" width="4" x="893" y="682.1094"/><text fill="#000000" font-family="sans-serif" font-size="14" lengthAdjust="spacing" textLength="92" x="798" y="705.6426">PortDbContext</text></g><!--entity Repo--><g id="elem_Repo"><rect fill="#F1F1F1" height="47.6094" rx="2.5" ry="2.5" style="stroke:#181818;stroke-width:0.5;" width="188" x="727" y="543.1094"/><rect fill="#F1F1F1" height="10" style="stroke:#181818;stroke-width:0.5;" width="15" x="895" y="548.1094"/><rect fill="#F1F1F1" height="2" style="stroke:#181818;stroke-width:0.5;" width="4" x="893" y="550.1094"/><rect fill="#F1F1F1" height="2" style="stroke:#181818;stroke-width:0.5;" width="4" x="893" y="554.1094"/><text fill="#000000" font-family="sans-serif" font-size="14" lengthAdjust="spacing" textLength="148" x="742" y="577.6426">StorageAreaRepository</text></g><!--entity Store--><g id="elem_Store"><path d="M767,829.6094 C767,819.6094 841,819.6094 841,819.6094 C841,819.6094 915,819.6094 915,829.6094 L915,856.2188 C915,866.2188 841,866.2188 841,866.2188 C841,866.2188 767,866.2188 767,856.2188 L767,829.6094 " fill="#F1F1F1" style="stroke:#181818;stroke-width:0.5;"/><path d="M767,829.6094 C767,839.6094 841,839.6094 841,839.6094 C841,839.6094 915,839.6094 915,829.6094 " fill="none" style="stroke:#181818;stroke-width:0.5;"/><text fill="#000000" font-family="sans-serif" font-size="14" lengthAdjust="spacing" textLength="128" x="777" y="858.1426">EF Core (InMemory)</text></g><!--entity StorageArea--><g id="elem_StorageArea"><rect fill="#F1F1F1" height="47.6094" rx="2.5" ry="2.5" style="stroke:#181818;stroke-width:0.5;" width="120" x="1081" y="819.1094"/><rect fill="#F1F1F1" height="10" style="stroke:#181818;stroke-width:0.5;" width="15" x="1181" y="824.1094"/><rect fill="#F1F1F1" height="2" style="stroke:#181818;stroke-width:0.5;" width="4" x="1179" y="826.1094"/><rect fill="#F1F1F1" height="2" style="stroke:#181818;stroke-width:0.5;" width="4" x="1179" y="830.1094"/><text fill="#000000" font-family="sans-serif" font-size="14" lengthAdjust="spacing" textLength="80" x="1096" y="853.6426">StorageArea</text></g><!--entity StorageAreaType--><g id="elem_StorageAreaType"><rect fill="#F1F1F1" height="47.6094" rx="2.5" ry="2.5" style="stroke:#181818;stroke-width:0.5;" width="152" x="971" y="946.6094"/><rect fill="#F1F1F1" height="10" style="stroke:#181818;stroke-width:0.5;" width="15" x="1103" y="951.6094"/><rect fill="#F1F1F1" height="2" style="stroke:#181818;stroke-width:0.5;" width="4" x="1101" y="953.6094"/><rect fill="#F1F1F1" height="2" style="stroke:#181818;stroke-width:0.5;" width="4" x="1101" y="957.6094"/><text fill="#000000" font-family="sans-serif" font-size="14" lengthAdjust="spacing" textLength="112" x="986" y="981.1426">StorageAreaType</text></g><!--entity YardSpec--><g id="elem_YardSpec"><rect fill="#F1F1F1" height="47.6094" rx="2.5" ry="2.5" style="stroke:#181818;stroke-width:0.5;" width="102" x="1158" y="946.6094"/><rect fill="#F1F1F1" height="10" style="stroke:#181818;stroke-width:0.5;" width="15" x="1240" y="951.6094"/><rect fill="#F1F1F1" height="2" style="stroke:#181818;stroke-width:0.5;" width="4" x="1238" y="953.6094"/><rect fill="#F1F1F1" height="2" style="stroke:#181818;stroke-width:0.5;" width="4" x="1238" y="957.6094"/><text fill="#000000" font-family="sans-serif" font-size="14" lengthAdjust="spacing" textLength="62" x="1173" y="981.1426">YardSpec</text></g><!--entity WarehouseSpec--><g id="elem_WarehouseSpec"><rect fill="#F1F1F1" height="47.6094" rx="2.5" ry="2.5" style="stroke:#181818;stroke-width:0.5;" width="145" x="1295.5" y="946.6094"/><rect fill="#F1F1F1" height="10" style="stroke:#181818;stroke-width:0.5;" width="15" x="1420.5" y="951.6094"/><rect fill="#F1F1F1" height="2" style="stroke:#181818;stroke-width:0.5;" width="4" x="1418.5" y="953.6094"/><rect fill="#F1F1F1" height="2" style="stroke:#181818;stroke-width:0.5;" width="4" x="1418.5" y="957.6094"/><text fill="#000000" font-family="sans-serif" font-size="14" lengthAdjust="spacing" textLength="105" x="1310.5" y="981.1426">WarehouseSpec</text></g><!--entity Dock--><g id="elem_Dock"><rect fill="#F1F1F1" height="47.6094" rx="2.5" ry="2.5" style="stroke:#181818;stroke-width:0.5;" width="72" x="1476" y="946.6094"/><rect fill="#F1F1F1" height="10" style="stroke:#181818;stroke-width:0.5;" width="15" x="1528" y="951.6094"/><rect fill="#F1F1F1" height="2" style="stroke:#181818;stroke-width:0.5;" width="4" x="1526" y="953.6094"/><rect fill="#F1F1F1" height="2" style="stroke:#181818;stroke-width:0.5;" width="4" x="1526" y="957.6094"/><text fill="#000000" font-family="sans-serif" font-size="14" lengthAdjust="spacing" textLength="32" x="1491" y="981.1426">Dock</text></g><!--entity DockStorageDistance--><g id="elem_DockStorageDistance"><rect fill="#F1F1F1" height="47.6094" rx="2.5" ry="2.5" style="stroke:#181818;stroke-width:0.5;" width="177" x="1236.5" y="819.1094"/><rect fill="#F1F1F1" height="10" style="stroke:#181818;stroke-width:0.5;" width="15" x="1393.5" y="824.1094"/><rect fill="#F1F1F1" height="2" style="stroke:#181818;stroke-width:0.5;" width="4" x="1391.5" y="826.1094"/><rect fill="#F1F1F1" height="2" style="stroke:#181818;stroke-width:0.5;" width="4" x="1391.5" y="830.1094"/><text fill="#000000" font-family="sans-serif" font-size="14" lengthAdjust="spacing" textLength="137" x="1251.5" y="853.6426">DockStorageDistance</text></g><!--entity Officer--><g id="elem_Officer"><ellipse cx="568" cy="52.6094" fill="#F1F1F1" rx="8" ry="8" style="stroke:#181818;stroke-width:0.5;"/><path d="M568,60.6094 L568,87.6094 M555,68.6094 L581,68.6094 M568,87.6094 L555,102.6094 M568,87.6094 L581,102.6094 " fill="none" style="stroke:#181818;stroke-width:0.5;"/><text fill="#000000" font-family="sans-serif" font-size="14" lengthAdjust="spacing" textLength="132" x="502" y="118.6426">Port Authority Officer</text></g><!--link Officer to ApiClient--><g id="link_Officer_ApiClient"><path d="M568,122.2594 C568,153.1394 568,189.6194 568,215.6794 " fill="none" id="Officer-to-ApiClient" style="stroke:#181818;stroke-width:1.0;"/><polygon fill="#181818" points="568,221.6794,572,212.6794,568,216.6794,564,212.6794,568,221.6794" style="stroke:#181818;stroke-width:1.0;"/><text fill="#000000" font-family="sans-serif" font-size="13" lengthAdjust="spacing" textLength="69" x="569" y="166.6045">uses API UI</text></g><!--link ApiClient to C_SA--><g id="link_ApiClient_C_SA"><path d="M568,270.2494 C568,302.5294 568,354.7094 568,386.9694 " fill="none" id="ApiClient-to-C_SA" style="stroke:#181818;stroke-width:1.0;"/><polygon fill="#181818" points="568,392.9694,572,383.9694,568,387.9694,564,383.9694,568,392.9694" style="stroke:#181818;stroke-width:1.0;"/><text fill="#000000" font-family="sans-serif" font-size="13" lengthAdjust="spacing" textLength="32" x="660" y="316.6045">HTTP</text><text fill="#000000" font-family="sans-serif" font-size="13" lengthAdjust="spacing" textLength="214" x="569" y="332.9561">POST / PUT / GET /api/storageareas</text></g><!--link C_SA to Repo--><g id="link_C_SA_Repo"><path d="M607.53,441.2294 C654.92,468.9594 728.7012,512.1096 776.1512,539.8696 " fill="none" id="C_SA-to-Repo" style="stroke:#181818;stroke-width:1.0;"/><polygon fill="#181818" points="781.33,542.8994,775.5816,534.9021,777.0143,540.3745,771.5419,541.8072,781.33,542.8994" style="stroke:#181818;stroke-width:1.0;"/><text fill="#000000" font-family="sans-serif" font-size="13" lengthAdjust="spacing" textLength="42" x="687" y="487.6045">queries</text></g><!--link C_SA to Db--><g id="link_C_SA_Db"><path d="M662.63,425.8894 C759.26,436.0294 899.69,457.5994 933,499.1094 C965.27,539.3194 953.46,567.7894 933,615.1094 C923.15,637.8994 907.8949,653.493 889.8749,667.283 " fill="none" id="C_SA-to-Db" style="stroke:#181818;stroke-width:1.0;"/><polygon fill="#181818" points="885.11,670.9294,894.6882,668.6364,889.0807,667.8907,889.8264,662.2832,885.11,670.9294" style="stroke:#181818;stroke-width:1.0;"/><text fill="#000000" font-family="sans-serif" font-size="13" lengthAdjust="spacing" textLength="107" x="954" y="572.6045">CRUD via EF Core</text></g><!--link Repo to Db--><g id="link_Repo_Db"><path d="M826.14,591.2194 C831.16,613.8094 837.459,642.1721 842.499,664.8621 " fill="none" id="Repo-to-Db" style="stroke:#181818;stroke-width:1.0;"/><polygon fill="#181818" points="843.8,670.7194,845.7533,661.0662,842.7158,665.8383,837.9436,662.8009,843.8,670.7194" style="stroke:#181818;stroke-width:1.0;"/><text fill="#000000" font-family="sans-serif" font-size="13" lengthAdjust="spacing" textLength="28" x="837" y="637.6045">uses</text></g><!--link Db to Store--><g id="link_Db_Store"><path d="M847.73,719.2394 C846.23,746.7394 844.0578,786.3383 842.5678,813.5683 " fill="none" id="Db-to-Store" style="stroke:#181818;stroke-width:1.0;"/><polygon fill="#181818" points="842.24,819.5594,846.7258,810.7914,842.5132,814.5668,838.7377,810.3543,842.24,819.5594" style="stroke:#181818;stroke-width:1.0;"/><text fill="#000000" font-family="sans-serif" font-size="13" lengthAdjust="spacing" textLength="68" x="846" y="763.6045">persist data</text></g><!--link C_SA to CreateStorageAreaDto--><g id="link_C_SA_CreateStorageAreaDto"><path d="M473.45,432.1694 C403.14,444.5794 305.8,465.9394 225,499.1094 C197.07,510.5694 172.969,525.2017 151.739,539.6617 " fill="none" id="C_SA-to-CreateStorageAreaDto" style="stroke:#181818;stroke-width:1.0;stroke-dasharray:7.0,7.0;"/><polygon fill="#181818" points="146.78,543.0394,156.4702,541.2789,150.9125,540.2247,151.9667,534.6669,146.78,543.0394" style="stroke:#181818;stroke-width:1.0;"/></g><!--link C_SA to UpdateStorageAreaDto--><g id="link_C_SA_UpdateStorageAreaDto"><path d="M531.75,441.2294 C488.29,468.9594 420.9482,511.9122 377.4382,539.6722 " fill="none" id="C_SA-to-UpdateStorageAreaDto" style="stroke:#181818;stroke-width:1.0;stroke-dasharray:7.0,7.0;"/><polygon fill="#181818" points="372.38,542.8994,382.1187,541.4307,376.5952,540.21,377.8158,534.6865,372.38,542.8994" style="stroke:#181818;stroke-width:1.0;"/></g><!--link C_SA to StorageAreaResponseDto--><g id="link_C_SA_StorageAreaResponseDto"><path d="M568,441.2294 C568,468.8794 568,508.8694 568,536.6594 " fill="none" id="C_SA-to-StorageAreaResponseDto" style="stroke:#181818;stroke-width:1.0;stroke-dasharray:7.0,7.0;"/><polygon fill="#181818" points="568,542.6594,572,533.6594,568,537.6594,564,533.6594,568,542.6594" style="stroke:#181818;stroke-width:1.0;"/></g><!--link Db to StorageArea--><g id="link_Db_StorageArea"><path d="M895.27,719.2394 C949.94,746.5794 1035.0034,789.1061 1089.5834,816.3961 " fill="none" id="Db-to-StorageArea" style="stroke:#181818;stroke-width:1.0;stroke-dasharray:7.0,7.0;"/><polygon fill="#181818" points="1094.95,819.0794,1088.689,811.4767,1090.4779,816.8433,1085.1113,818.6322,1094.95,819.0794" style="stroke:#181818;stroke-width:1.0;"/></g><!--link Db to Dock--><g id="link_Db_Dock"><path d="M915.13,697.2594 C1049.89,700.8394 1350.34,715.4694 1431,775.1094 C1487.18,816.6494 1503.8772,898.5155 1509.1072,940.4355 " fill="none" id="Db-to-Dock" style="stroke:#181818;stroke-width:1.0;stroke-dasharray:7.0,7.0;"/><polygon fill="#181818" points="1509.85,946.3894,1512.705,936.9634,1509.231,941.4278,1504.7666,937.9538,1509.85,946.3894" style="stroke:#181818;stroke-width:1.0;"/></g><!--link Db to DockStorageDistance--><g id="link_Db_DockStorageDistance"><path d="M915.23,703.0994 C990.92,712.7094 1117.42,733.7094 1219,775.1094 C1246.22,786.1994 1269.3287,800.7404 1289.6987,815.3004 " fill="none" id="Db-to-DockStorageDistance" style="stroke:#181818;stroke-width:1.0;stroke-dasharray:7.0,7.0;"/><polygon fill="#181818" points="1294.58,818.7894,1289.5841,810.3017,1290.5123,815.8819,1284.9321,816.81,1294.58,818.7894" style="stroke:#181818;stroke-width:1.0;"/></g><!--link StorageArea to StorageAreaType--><g id="link_StorageArea_StorageAreaType"><path d="M1123.76,867.1294 C1106.9,889.6294 1084.9773,918.9073 1068.0473,941.5073 " fill="none" id="StorageArea-to-StorageAreaType" style="stroke:#181818;stroke-width:1.0;"/><polygon fill="#181818" points="1064.45,946.3094,1073.0473,941.5045,1067.4477,942.3077,1066.6446,936.7081,1064.45,946.3094" style="stroke:#181818;stroke-width:1.0;"/><text fill="#000000" font-family="sans-serif" font-size="13" lengthAdjust="spacing" textLength="50" x="1100" y="913.1045">has type</text></g><!--reverse link StorageArea to YardSpec--><g id="link_StorageArea_YardSpec"><path d="M1157.0733,878.0326 C1163.9833,892.3926 1168.07,900.3494 1177,916.6094 C1182.43,926.4994 1188.79,937.1994 1194.4,946.3694 " fill="none" id="StorageArea-backto-YardSpec" style="stroke:#181818;stroke-width:1.0;"/><polygon fill="#181818" points="1151.87,867.2194,1150.8672,874.3604,1157.0733,878.0326,1158.0761,870.8916,1151.87,867.2194" style="stroke:#181818;stroke-width:1.0;"/><text fill="#000000" font-family="sans-serif" font-size="13" lengthAdjust="spacing" textLength="64" x="1178" y="913.1045">owns (0..1)</text></g><!--reverse link StorageArea to WarehouseSpec--><g id="link_StorageArea_WarehouseSpec"><path d="M1185.514,873.4943 C1198.764,881.6943 1204.09,884.1694 1219,890.6094 C1230.88,895.7394 1235.1,893.5194 1247,898.6094 C1277.79,911.7894 1310.41,931.2894 1334.01,946.5294 " fill="none" id="StorageArea-backto-WarehouseSpec" style="stroke:#181818;stroke-width:1.0;"/><polygon fill="#181818" points="1175.31,867.1794,1178.307,873.7382,1185.514,873.4943,1182.517,866.9355,1175.31,867.1794" style="stroke:#181818;stroke-width:1.0;"/><text fill="#000000" font-family="sans-serif" font-size="13" lengthAdjust="spacing" textLength="64" x="1282" y="913.1045">owns (0..1)</text></g><!--link StorageArea to Dock--><g id="link_StorageArea_Dock"><path d="M1172,867.2594 C1185.69,876.2094 1202.42,885.5194 1219,890.6094 C1276.88,908.3994 1296.21,884.1194 1355,898.6094 C1367.42,901.6694 1433.3,932.3194 1475.68,952.3394 " fill="none" id="StorageArea-Dock" style="stroke:#181818;stroke-width:1.0;"/><text fill="#000000" font-family="sans-serif" font-size="13" lengthAdjust="spacing" textLength="83" x="1398" y="913.1045">many-to-many</text><text fill="#000000" font-family="sans-serif" font-size="13" lengthAdjust="spacing" textLength="5" x="1173.5906" y="888.275">*</text><text fill="#000000" font-family="sans-serif" font-size="13" lengthAdjust="spacing" textLength="5" x="1463.0373" y="944.7356">*</text></g><!--SRC=[VLF1ZjCm4BtdAqOvmEvAoSAA4mUaA5cW4gZHfj4AmGfDqsbhRH8RsmKgnBypTj8cRICkYJtp_FncvjaAMnCKUsEfWKpWHcC34PG5tCLtyHjue8tWd8ONKAeLMiPQgN53a6X24mHOyHx2N6eBoSvkfHPs3_FrMbIaGq1pM0V1IuYY2D9QK6lX4-wPbGE1fifYks4PuJWNmfy0u6jHOOqQoXdSGfBF-kDFZZXHeji5Vm_aZxJqg86zbIicxkC7pgu4Nq4gMwjbNPFsdEdt8Xde4gLgKQ4LiXrHAgoUNGV2SJfRp4rFdpAlfT4bcPLFBj5rS28n2ZsGKR8rv5D78RDshT5OlQliJjEKbbD4hyHD9Lkw4kbtrxDiUN6VaaRmVk_pRii8rebBDCnx_nvIoLTUpThFr33isW_LCT2WBvCDYiaUTPdBnf_NlTWhyh4lg5U5eifl7b7JLkuC7IEPh9wFY_vynXR5jgAJXh5fsPiy6kC5zIxazRl1EF0McDjuovIpO8WxbBC20puk5lctDfyN2tPWNhhlXtl-eXAtfhiV_LFmU7VGzP0F_jYH5ZIAPqkEfWzb1Zy5Gj_OmAEFQISdu9KB-1vpJ94sNA4VYgkFhGQQQkyxinMgloAEMVE4zORibF-6xBG9tOLv9u2unT3mUwgTmhCZXv0RotXzDYAllpFBQGaZgcFn8sjm6xPiEylB4-WDp_hW6CR8NppkgrTn_Fhw0dRYfVzWmvkG5VYVAu2H3RRxoCh8_OD_]--></g></svg>