<svg xmlns="http://www.w3.org/2000/svg" xmlns:xlink="http://www.w3.org/1999/xlink" contentStyleType="text/css" height="601px" preserveAspectRatio="none" style="width:1242px;height:601px;background:#FFFFFF;" version="1.1" viewBox="0 0 1242 601" width="1242px" zoomAndPan="magnify"><title>Domain Model - US 2.2.6 (Manage Representatives)</title><defs/><g><text fill="#000000" font-family="sans-serif" font-size="14" font-weight="bold" lengthAdjust="spacing" textLength="339.9785" x="444.3296" y="25.1074">Domain Model - US 2.2.6 (Manage Representatives)</text><!--class Organization--><g id="elem_Organization"><rect codeLine="3" fill="#F1F1F1" height="215.5898" id="Organization" rx="2.5" ry="2.5" style="stroke:#181818;stroke-width:0.5;" width="337.2607" x="557.5" y="46.6211"/><ellipse cx="682.1909" cy="62.6211" fill="#ADD1B2" rx="11" ry="11" style="stroke:#181818;stroke-width:1.0;"/><path d="M684.9565,58.4961 Q685.1128,58.2773 685.3003,58.168 Q685.4878,58.0586 685.7065,58.0586 Q686.0815,58.0586 686.3159,58.3242 Q686.5503,58.5742 686.5503,59.1836 L686.5503,60.6367 Q686.5503,61.2461 686.3159,61.5117 Q686.0815,61.7773 685.7065,61.7773 Q685.3628,61.7773 685.1597,61.5742 Q684.9565,61.3867 684.8472,60.8711 Q684.8003,60.5117 684.6128,60.3242 Q684.2847,59.9492 683.6753,59.7305 Q683.0659,59.5117 682.4409,59.5117 Q681.6753,59.5117 681.0347,59.8398 Q680.4097,60.168 679.9097,60.918 Q679.4253,61.668 679.4253,62.6992 L679.4253,63.793 Q679.4253,65.0273 680.3159,65.8555 Q681.2065,66.668 682.8003,66.668 Q683.7378,66.668 684.394,66.418 Q684.7847,66.2617 685.2065,65.8242 Q685.4722,65.5586 685.6128,65.4805 Q685.769,65.4023 685.9722,65.4023 Q686.3003,65.4023 686.5503,65.668 Q686.8159,65.918 686.8159,66.2617 Q686.8159,66.6055 686.4722,67.0117 Q685.9722,67.5898 685.1753,67.918 Q684.0972,68.3711 682.8003,68.3711 Q681.2847,68.3711 680.0815,67.7461 Q679.0972,67.2461 678.4097,66.1836 Q677.7222,65.1055 677.7222,63.8242 L677.7222,62.668 Q677.7222,61.3398 678.3315,60.1992 Q678.9565,59.043 680.0503,58.4336 Q681.144,57.8086 682.3784,57.8086 Q683.1128,57.8086 683.7534,57.9805 Q684.4097,58.1367 684.9565,58.4961 Z " fill="#000000"/><text fill="#000000" font-family="sans-serif" font-size="14" lengthAdjust="spacing" textLength="79.3789" x="702.6909" y="68.418">Organization</text><line style="stroke:#181818;stroke-width:0.5;" x1="558.5" x2="893.7607" y1="78.6211" y2="78.6211"/><ellipse cx="568.5" cy="93.4316" fill="none" rx="3" ry="3" style="stroke:#038048;stroke-width:1.0;"/><text fill="#000000" font-family="sans-serif" font-size="14" lengthAdjust="spacing" textLength="132.2959" x="577.5" y="97.7285">OrganizationId : Guid</text><ellipse cx="568.5" cy="112.0527" fill="none" rx="3" ry="3" style="stroke:#038048;stroke-width:1.0;"/><text fill="#000000" font-family="sans-serif" font-size="14" lengthAdjust="spacing" textLength="99.5996" x="577.5" y="116.3496">Identifier : string</text><ellipse cx="568.5" cy="130.6738" fill="none" rx="3" ry="3" style="stroke:#038048;stroke-width:1.0;"/><text fill="#000000" font-family="sans-serif" font-size="14" lengthAdjust="spacing" textLength="117.5029" x="577.5" y="134.9707">LegalName : string</text><ellipse cx="568.5" cy="149.2949" fill="none" rx="3" ry="3" style="stroke:#038048;stroke-width:1.0;"/><text fill="#000000" font-family="sans-serif" font-size="14" lengthAdjust="spacing" textLength="149.3926" x="577.5" y="153.5918">AlternativeName : string</text><ellipse cx="568.5" cy="167.916" fill="none" rx="3" ry="3" style="stroke:#038048;stroke-width:1.0;"/><text fill="#000000" font-family="sans-serif" font-size="14" lengthAdjust="spacing" textLength="123.7305" x="577.5" y="172.2129">AddressLine : string</text><ellipse cx="568.5" cy="186.5371" fill="none" rx="3" ry="3" style="stroke:#038048;stroke-width:1.0;"/><text fill="#000000" font-family="sans-serif" font-size="14" lengthAdjust="spacing" textLength="119.0342" x="577.5" y="190.834">TaxNumber : string</text><ellipse cx="568.5" cy="205.1582" fill="none" rx="3" ry="3" style="stroke:#038048;stroke-width:1.0;"/><text fill="#000000" font-family="sans-serif" font-size="14" lengthAdjust="spacing" textLength="153.2959" x="577.5" y="209.4551">Type : OrganizationType</text><line style="stroke:#181818;stroke-width:1.0;" x1="558.5" x2="893.7607" y1="216.9688" y2="216.9688"/><ellipse cx="568.5" cy="231.7793" fill="#84BE84" rx="3" ry="3" style="stroke:#038048;stroke-width:1.0;"/><text fill="#000000" font-family="sans-serif" font-size="14" lengthAdjust="spacing" textLength="284.04" x="577.5" y="236.0762">AddRepresentative(rep:Representative) : void</text><ellipse cx="568.5" cy="250.4004" fill="#84BE84" rx="3" ry="3" style="stroke:#038048;stroke-width:1.0;"/><text fill="#000000" font-family="sans-serif" font-size="14" lengthAdjust="spacing" textLength="311.2607" x="577.5" y="254.6973">RemoveRepresentative(rep:Representative) : void</text></g><!--class Representative--><g id="elem_Representative"><rect codeLine="17" fill="#F1F1F1" height="252.832" id="Representative" rx="2.5" ry="2.5" style="stroke:#181818;stroke-width:0.5;" width="604.1563" x="7" y="341.6211"/><ellipse cx="257.7456" cy="357.6211" fill="#ADD1B2" rx="11" ry="11" style="stroke:#181818;stroke-width:1.0;"/><path d="M260.5112,353.4961 Q260.6675,353.2773 260.855,353.168 Q261.0425,353.0586 261.2612,353.0586 Q261.6362,353.0586 261.8706,353.3242 Q262.105,353.5742 262.105,354.1836 L262.105,355.6367 Q262.105,356.2461 261.8706,356.5117 Q261.6362,356.7773 261.2612,356.7773 Q260.9175,356.7773 260.7144,356.5742 Q260.5112,356.3867 260.4019,355.8711 Q260.355,355.5117 260.1675,355.3242 Q259.8394,354.9492 259.23,354.7305 Q258.6206,354.5117 257.9956,354.5117 Q257.23,354.5117 256.5894,354.8398 Q255.9644,355.168 255.4644,355.918 Q254.98,356.668 254.98,357.6992 L254.98,358.793 Q254.98,360.0273 255.8706,360.8555 Q256.7612,361.668 258.355,361.668 Q259.2925,361.668 259.9487,361.418 Q260.3394,361.2617 260.7612,360.8242 Q261.0269,360.5586 261.1675,360.4805 Q261.3237,360.4023 261.5269,360.4023 Q261.855,360.4023 262.105,360.668 Q262.3706,360.918 262.3706,361.2617 Q262.3706,361.6055 262.0269,362.0117 Q261.5269,362.5898 260.73,362.918 Q259.6519,363.3711 258.355,363.3711 Q256.8394,363.3711 255.6362,362.7461 Q254.6519,362.2461 253.9644,361.1836 Q253.2769,360.1055 253.2769,358.8242 L253.2769,357.668 Q253.2769,356.3398 253.8862,355.1992 Q254.5112,354.043 255.605,353.4336 Q256.6987,352.8086 257.9331,352.8086 Q258.6675,352.8086 259.3081,352.9805 Q259.9644,353.1367 260.5112,353.4961 Z " fill="#000000"/><text fill="#000000" font-family="sans-serif" font-size="14" lengthAdjust="spacing" textLength="94.165" x="278.2456" y="363.418">Representative</text><line style="stroke:#181818;stroke-width:0.5;" x1="8" x2="610.1563" y1="373.6211" y2="373.6211"/><ellipse cx="18" cy="388.4316" fill="none" rx="3" ry="3" style="stroke:#038048;stroke-width:1.0;"/><text fill="#000000" font-family="sans-serif" font-size="14" lengthAdjust="spacing" textLength="147.082" x="27" y="392.7285">RepresentativeId : Guid</text><ellipse cx="18" cy="407.0527" fill="none" rx="3" ry="3" style="stroke:#038048;stroke-width:1.0;"/><text fill="#000000" font-family="sans-serif" font-size="14" lengthAdjust="spacing" textLength="83.248" x="27" y="411.3496">Name : string</text><ellipse cx="18" cy="425.6738" fill="none" rx="3" ry="3" style="stroke:#038048;stroke-width:1.0;"/><text fill="#000000" font-family="sans-serif" font-size="14" lengthAdjust="spacing" textLength="100.3721" x="27" y="429.9707">CitizenId : string</text><ellipse cx="18" cy="444.2949" fill="none" rx="3" ry="3" style="stroke:#038048;stroke-width:1.0;"/><text fill="#000000" font-family="sans-serif" font-size="14" lengthAdjust="spacing" textLength="111.2686" x="27" y="448.5918">Nationality : string</text><ellipse cx="18" cy="462.916" fill="none" rx="3" ry="3" style="stroke:#038048;stroke-width:1.0;"/><text fill="#000000" font-family="sans-serif" font-size="14" lengthAdjust="spacing" textLength="80.9102" x="27" y="467.2129">Email : string</text><ellipse cx="18" cy="481.5371" fill="none" rx="3" ry="3" style="stroke:#038048;stroke-width:1.0;"/><text fill="#000000" font-family="sans-serif" font-size="14" lengthAdjust="spacing" textLength="86.3857" x="27" y="485.834">Phone : string</text><ellipse cx="18" cy="500.1582" fill="none" rx="3" ry="3" style="stroke:#038048;stroke-width:1.0;"/><text fill="#000000" font-family="sans-serif" font-size="14" lengthAdjust="spacing" textLength="87.1514" x="27" y="504.4551">IsActive : bool</text><ellipse cx="18" cy="518.7793" fill="none" rx="3" ry="3" style="stroke:#038048;stroke-width:1.0;"/><text fill="#000000" font-family="sans-serif" font-size="14" lengthAdjust="spacing" textLength="135.3857" x="27" y="523.0762">CreatedAt : DateTime</text><line style="stroke:#181818;stroke-width:1.0;" x1="8" x2="610.1563" y1="530.5898" y2="530.5898"/><ellipse cx="18" cy="545.4004" fill="#84BE84" rx="3" ry="3" style="stroke:#038048;stroke-width:1.0;"/><text fill="#000000" font-family="sans-serif" font-size="14" lengthAdjust="spacing" textLength="578.1563" x="27" y="549.6973">UpdateDetails(name:string, citizenId:string, nationality:string, email:string, phone:string) : void</text><ellipse cx="18" cy="564.0215" fill="#84BE84" rx="3" ry="3" style="stroke:#038048;stroke-width:1.0;"/><text fill="#000000" font-family="sans-serif" font-size="14" lengthAdjust="spacing" textLength="96.4756" x="27" y="568.3184">Activate() : void</text><ellipse cx="18" cy="582.6426" fill="#84BE84" rx="3" ry="3" style="stroke:#038048;stroke-width:1.0;"/><text fill="#000000" font-family="sans-serif" font-size="14" lengthAdjust="spacing" textLength="112.8203" x="27" y="586.9395">Deactivate() : void</text></g><!--class OrganizationType--><g id="elem_OrganizationType"><rect codeLine="32" fill="#F1F1F1" height="122.4844" id="OrganizationType" rx="2.5" ry="2.5" style="stroke:#181818;stroke-width:0.5;" width="183.1377" x="1052.5" y="407.1211"/><ellipse cx="1085.7856" cy="423.1211" fill="#ADD1B2" rx="11" ry="11" style="stroke:#181818;stroke-width:1.0;"/><path d="M1088.5513,418.9961 Q1088.7075,418.7773 1088.895,418.668 Q1089.0825,418.5586 1089.3013,418.5586 Q1089.6763,418.5586 1089.9106,418.8242 Q1090.145,419.0742 1090.145,419.6836 L1090.145,421.1367 Q1090.145,421.7461 1089.9106,422.0117 Q1089.6763,422.2773 1089.3013,422.2773 Q1088.9575,422.2773 1088.7544,422.0742 Q1088.5513,421.8867 1088.4419,421.3711 Q1088.395,421.0117 1088.2075,420.8242 Q1087.8794,420.4492 1087.27,420.2305 Q1086.6606,420.0117 1086.0356,420.0117 Q1085.27,420.0117 1084.6294,420.3398 Q1084.0044,420.668 1083.5044,421.418 Q1083.02,422.168 1083.02,423.1992 L1083.02,424.293 Q1083.02,425.5273 1083.9106,426.3555 Q1084.8013,427.168 1086.395,427.168 Q1087.3325,427.168 1087.9888,426.918 Q1088.3794,426.7617 1088.8013,426.3242 Q1089.0669,426.0586 1089.2075,425.9805 Q1089.3638,425.9023 1089.5669,425.9023 Q1089.895,425.9023 1090.145,426.168 Q1090.4106,426.418 1090.4106,426.7617 Q1090.4106,427.1055 1090.0669,427.5117 Q1089.5669,428.0898 1088.77,428.418 Q1087.6919,428.8711 1086.395,428.8711 Q1084.8794,428.8711 1083.6763,428.2461 Q1082.6919,427.7461 1082.0044,426.6836 Q1081.3169,425.6055 1081.3169,424.3242 L1081.3169,423.168 Q1081.3169,421.8398 1081.9263,420.6992 Q1082.5513,419.543 1083.645,418.9336 Q1084.7388,418.3086 1085.9731,418.3086 Q1086.7075,418.3086 1087.3481,418.4805 Q1088.0044,418.6367 1088.5513,418.9961 Z " fill="#000000"/><text fill="#000000" font-family="sans-serif" font-size="14" lengthAdjust="spacing" textLength="110.5029" x="1103.8491" y="428.918">OrganizationType</text><line style="stroke:#181818;stroke-width:0.5;" x1="1053.5" x2="1234.6377" y1="439.1211" y2="439.1211"/><text fill="#000000" font-family="sans-serif" font-size="14" lengthAdjust="spacing" textLength="93.3994" x="1072.5" y="458.2285">&#171;enumeration&#187;</text><ellipse cx="1063.5" cy="472.5527" fill="none" rx="3" ry="3" style="stroke:#038048;stroke-width:1.0;"/><text fill="#000000" font-family="sans-serif" font-size="14" lengthAdjust="spacing" textLength="122.917" x="1072.5" y="476.8496">SHIPPING_AGENT</text><ellipse cx="1063.5" cy="491.1738" fill="none" rx="3" ry="3" style="stroke:#038048;stroke-width:1.0;"/><text fill="#000000" font-family="sans-serif" font-size="14" lengthAdjust="spacing" textLength="127.5654" x="1072.5" y="495.4707">PORT_AUTHORITY</text><ellipse cx="1063.5" cy="509.7949" fill="none" rx="3" ry="3" style="stroke:#038048;stroke-width:1.0;"/><text fill="#000000" font-family="sans-serif" font-size="14" lengthAdjust="spacing" textLength="157.1377" x="1072.5" y="514.0918">TERMINAL_OPERATOR</text><line style="stroke:#181818;stroke-width:0.5;" x1="1053.5" x2="1234.6377" y1="521.6055" y2="521.6055"/></g><g id="elem_GMN7"><path d="M646.5,428.6211 L646.5,464.1211 L611.1,468.1211 L646.5,472.1211 L646.5,507.7852 A0,0 0 0 0 646.5,507.7852 L1017.2368,507.7852 A0,0 0 0 0 1017.2368,507.7852 L1017.2368,438.6211 L1007.2368,428.6211 L646.5,428.6211 A0,0 0 0 0 646.5,428.6211 " fill="#FEFFDD" style="stroke:#181818;stroke-width:0.5;"/><path d="M1007.2368,428.6211 L1007.2368,438.6211 L1017.2368,438.6211 L1007.2368,428.6211 " fill="#FEFFDD" style="stroke:#181818;stroke-width:0.5;"/><text fill="#000000" font-family="sans-serif" font-size="13" font-weight="bold" lengthAdjust="spacing" textLength="101.1436" x="652.5" y="447.6494">Business Rules:</text><text fill="#000000" font-family="sans-serif" font-size="13" lengthAdjust="spacing" textLength="330.9795" x="652.5" y="464.9404">- Each representative belongs to exactly one organization</text><text fill="#000000" font-family="sans-serif" font-size="13" lengthAdjust="spacing" textLength="349.7368" x="652.5" y="482.2314">- Required details: name, citizen ID, nationality, email, phone</text><text fill="#000000" font-family="sans-serif" font-size="13" lengthAdjust="spacing" textLength="298.416" x="652.5" y="499.5225">- Can be activated or deactivated for system access</text></g><!--link Organization to Representative--><g id="link_Organization_Representative"><path codeLine="40" d="M582.49,262.8211 C548.57,288.1611 516.8968,311.8201 481.9868,337.9001 " fill="none" id="Organization-to-Representative" style="stroke:#181818;stroke-width:1.0;"/><polygon fill="#181818" points="477.18,341.4911,486.7841,339.3092,481.1856,338.4986,481.9962,332.9001,477.18,341.4911" style="stroke:#181818;stroke-width:1.0;"/><text fill="#000000" font-family="sans-serif" font-size="13" lengthAdjust="spacing" textLength="53.479" x="544" y="307.6494">manages</text><text fill="#000000" font-family="sans-serif" font-size="13" lengthAdjust="spacing" textLength="7.23" x="566.0712" y="284.348">1</text><text fill="#000000" font-family="sans-serif" font-size="13" lengthAdjust="spacing" textLength="19.5127" x="467.8604" y="330.2989">0..*</text></g><!--link Organization to OrganizationType--><g id="link_Organization_OrganizationType"><path codeLine="41" d="M894.86,244.2811 C942.27,272.5611 992.45,305.8711 1035,341.6211 C1057.87,360.8311 1076.2203,380.4106 1094.5503,402.4206 " fill="none" id="Organization-to-OrganizationType" style="stroke:#181818;stroke-width:1.0;"/><polygon fill="#181818" points="1098.39,407.0311,1095.7042,397.5555,1095.1903,403.189,1089.5568,402.6751,1098.39,407.0311" style="stroke:#181818;stroke-width:1.0;"/><text fill="#000000" font-family="sans-serif" font-size="13" lengthAdjust="spacing" textLength="24.5718" x="998" y="307.6494">type</text><text fill="#000000" font-family="sans-serif" font-size="13" lengthAdjust="spacing" textLength="7.23" x="902.6694" y="245.0029">1</text><text fill="#000000" font-family="sans-serif" font-size="13" lengthAdjust="spacing" textLength="7.23" x="1085.717" y="396.0019">1</text></g><!--SRC=[ZLF1Zjem4BtdAqPSoh85jNle8LeXfGjY8q50sN3e2Hay14kEdSOEMhRQV-yu0HR3LkefyHlxpPltR2kiH1ZfWWa5CyrHGX-MB_0mU1ZyWEwCAPOZf5XMQ51PPiKUpLqGR2Gp1kPLpfHu8rGh-1C0t7jGp264IIruKuav4OYjm8fGOokXyWQVOivamWhquKXQh5JJy9CYvoJ8J8MwAcJiDQcBzNMFx52wZPVY74IrVlz4w0_PhR0CVUYE6FRwE4sAXTxZ_vzv3qwc-HkEjlcWRzpj-4_2YZTi_Rs0asOm9eKz-8KnnIjzQB7Jrzx59jeqaa9OQotRJXKoYpoo18xeBnF5XMlBaXCsGalqfgj8PzZoVONDIU8PKH_gpXWwOUTLwJGTLvxPZIxgrFNG4R8R_Fspgzcaxtn-V4HL5rWrw73OiBmynuj5d4nMqMISPAqtypHRHSliUPx6sQ_s0etJMPn4qzLyCKwZR9wwJbyeDjbmcPqeJU0zXyxt3jaqXCwtmQ3NkKuzXA9vMlywHD-R2KAmxiu6Ibk4IkGx2tfxHHpqUZzhGy_2NRHQeWbxlQ0FOxRPGULBMAFKAZTWDU0hEIaFuAw4lcXB9rFyNOiAEV0svH1SpETy8HvvoHuZFMP9vv-OeavmIeeJFr5zBBUqDWTZiQ0z6v8TeEBWHWp-0W00]--></g></svg>