<svg xmlns="http://www.w3.org/2000/svg" xmlns:xlink="http://www.w3.org/1999/xlink" contentStyleType="text/css" height="821px" preserveAspectRatio="none" style="width:1791px;height:821px;background:#FFFFFF;" version="1.1" viewBox="0 0 1791 821" width="1791px" zoomAndPan="magnify"><title>Class Diagram - US 2.2.6 Manage Representatives</title><defs/><g><text fill="#000000" font-family="sans-serif" font-size="14" font-weight="bold" lengthAdjust="spacing" textLength="332.2539" x="722.771" y="25.1074">Class Diagram - US 2.2.6 Manage Representatives</text><!--class Organization--><g id="elem_Organization"><rect codeLine="4" fill="#F1F1F1" height="196.9688" id="Organization" rx="2.5" ry="2.5" style="stroke:#181818;stroke-width:0.5;" width="369.1914" x="82" y="285.6211"/><ellipse cx="222.6563" cy="301.6211" fill="#ADD1B2" rx="11" ry="11" style="stroke:#181818;stroke-width:1.0;"/><path d="M225.4219,297.4961 Q225.5781,297.2773 225.7656,297.168 Q225.9531,297.0586 226.1719,297.0586 Q226.5469,297.0586 226.7813,297.3242 Q227.0156,297.5742 227.0156,298.1836 L227.0156,299.6367 Q227.0156,300.2461 226.7813,300.5117 Q226.5469,300.7773 226.1719,300.7773 Q225.8281,300.7773 225.625,300.5742 Q225.4219,300.3867 225.3125,299.8711 Q225.2656,299.5117 225.0781,299.3242 Q224.75,298.9492 224.1406,298.7305 Q223.5313,298.5117 222.9063,298.5117 Q222.1406,298.5117 221.5,298.8398 Q220.875,299.168 220.375,299.918 Q219.8906,300.668 219.8906,301.6992 L219.8906,302.793 Q219.8906,304.0273 220.7813,304.8555 Q221.6719,305.668 223.2656,305.668 Q224.2031,305.668 224.8594,305.418 Q225.25,305.2617 225.6719,304.8242 Q225.9375,304.5586 226.0781,304.4805 Q226.2344,304.4023 226.4375,304.4023 Q226.7656,304.4023 227.0156,304.668 Q227.2813,304.918 227.2813,305.2617 Q227.2813,305.6055 226.9375,306.0117 Q226.4375,306.5898 225.6406,306.918 Q224.5625,307.3711 223.2656,307.3711 Q221.75,307.3711 220.5469,306.7461 Q219.5625,306.2461 218.875,305.1836 Q218.1875,304.1055 218.1875,302.8242 L218.1875,301.668 Q218.1875,300.3398 218.7969,299.1992 Q219.4219,298.043 220.5156,297.4336 Q221.6094,296.8086 222.8438,296.8086 Q223.5781,296.8086 224.2188,296.9805 Q224.875,297.1367 225.4219,297.4961 Z " fill="#000000"/><text fill="#000000" font-family="sans-serif" font-size="14" lengthAdjust="spacing" textLength="79.3789" x="243.1563" y="307.418">Organization</text><line style="stroke:#181818;stroke-width:0.5;" x1="83" x2="450.1914" y1="317.6211" y2="317.6211"/><ellipse cx="93" cy="332.4316" fill="none" rx="3" ry="3" style="stroke:#038048;stroke-width:1.0;"/><text fill="#000000" font-family="sans-serif" font-size="14" lengthAdjust="spacing" textLength="185.999" x="102" y="336.7285">OrganizationId OrganizationId</text><ellipse cx="93" cy="351.0527" fill="none" rx="3" ry="3" style="stroke:#038048;stroke-width:1.0;"/><text fill="#000000" font-family="sans-serif" font-size="14" lengthAdjust="spacing" textLength="91.8203" x="102" y="355.3496">string Identifier</text><ellipse cx="93" cy="369.6738" fill="none" rx="3" ry="3" style="stroke:#038048;stroke-width:1.0;"/><text fill="#000000" font-family="sans-serif" font-size="14" lengthAdjust="spacing" textLength="109.7236" x="102" y="373.9707">string LegalName</text><ellipse cx="93" cy="388.2949" fill="none" rx="3" ry="3" style="stroke:#038048;stroke-width:1.0;"/><text fill="#000000" font-family="sans-serif" font-size="14" lengthAdjust="spacing" textLength="141.6133" x="102" y="392.5918">string AlternativeName</text><ellipse cx="93" cy="406.916" fill="none" rx="3" ry="3" style="stroke:#038048;stroke-width:1.0;"/><text fill="#000000" font-family="sans-serif" font-size="14" lengthAdjust="spacing" textLength="115.9512" x="102" y="411.2129">string AddressLine</text><ellipse cx="93" cy="425.5371" fill="none" rx="3" ry="3" style="stroke:#038048;stroke-width:1.0;"/><text fill="#000000" font-family="sans-serif" font-size="14" lengthAdjust="spacing" textLength="111.2549" x="102" y="429.834">string TaxNumber</text><ellipse cx="93" cy="444.1582" fill="none" rx="3" ry="3" style="stroke:#038048;stroke-width:1.0;"/><text fill="#000000" font-family="sans-serif" font-size="14" lengthAdjust="spacing" textLength="145.5166" x="102" y="448.4551">OrganizationType Type</text><ellipse cx="93" cy="462.7793" fill="none" rx="3" ry="3" style="stroke:#038048;stroke-width:1.0;"/><text fill="#000000" font-family="sans-serif" font-size="14" lengthAdjust="spacing" textLength="343.1914" x="102" y="467.0762">IReadOnlyCollection&lt;Representative&gt; Representatives</text><line style="stroke:#181818;stroke-width:0.5;" x1="83" x2="450.1914" y1="474.5898" y2="474.5898"/></g><!--class Representative--><g id="elem_Representative"><rect codeLine="15" fill="#F1F1F1" height="252.832" id="Representative" rx="2.5" ry="2.5" style="stroke:#181818;stroke-width:0.5;" width="569.1494" x="7" y="561.6211"/><ellipse cx="240.2422" cy="577.6211" fill="#ADD1B2" rx="11" ry="11" style="stroke:#181818;stroke-width:1.0;"/><path d="M243.0078,573.4961 Q243.1641,573.2773 243.3516,573.168 Q243.5391,573.0586 243.7578,573.0586 Q244.1328,573.0586 244.3672,573.3242 Q244.6016,573.5742 244.6016,574.1836 L244.6016,575.6367 Q244.6016,576.2461 244.3672,576.5117 Q244.1328,576.7773 243.7578,576.7773 Q243.4141,576.7773 243.2109,576.5742 Q243.0078,576.3867 242.8984,575.8711 Q242.8516,575.5117 242.6641,575.3242 Q242.3359,574.9492 241.7266,574.7305 Q241.1172,574.5117 240.4922,574.5117 Q239.7266,574.5117 239.0859,574.8398 Q238.4609,575.168 237.9609,575.918 Q237.4766,576.668 237.4766,577.6992 L237.4766,578.793 Q237.4766,580.0273 238.3672,580.8555 Q239.2578,581.668 240.8516,581.668 Q241.7891,581.668 242.4453,581.418 Q242.8359,581.2617 243.2578,580.8242 Q243.5234,580.5586 243.6641,580.4805 Q243.8203,580.4023 244.0234,580.4023 Q244.3516,580.4023 244.6016,580.668 Q244.8672,580.918 244.8672,581.2617 Q244.8672,581.6055 244.5234,582.0117 Q244.0234,582.5898 243.2266,582.918 Q242.1484,583.3711 240.8516,583.3711 Q239.3359,583.3711 238.1328,582.7461 Q237.1484,582.2461 236.4609,581.1836 Q235.7734,580.1055 235.7734,578.8242 L235.7734,577.668 Q235.7734,576.3398 236.3828,575.1992 Q237.0078,574.043 238.1016,573.4336 Q239.1953,572.8086 240.4297,572.8086 Q241.1641,572.8086 241.8047,572.9805 Q242.4609,573.1367 243.0078,573.4961 Z " fill="#000000"/><text fill="#000000" font-family="sans-serif" font-size="14" lengthAdjust="spacing" textLength="94.165" x="260.7422" y="583.418">Representative</text><line style="stroke:#181818;stroke-width:0.5;" x1="8" x2="575.1494" y1="593.6211" y2="593.6211"/><ellipse cx="18" cy="608.4316" fill="none" rx="3" ry="3" style="stroke:#038048;stroke-width:1.0;"/><text fill="#000000" font-family="sans-serif" font-size="14" lengthAdjust="spacing" textLength="215.5713" x="27" y="612.7285">RepresentativeId RepresentativeId</text><ellipse cx="18" cy="627.0527" fill="none" rx="3" ry="3" style="stroke:#038048;stroke-width:1.0;"/><text fill="#000000" font-family="sans-serif" font-size="14" lengthAdjust="spacing" textLength="75.4688" x="27" y="631.3496">string Name</text><ellipse cx="18" cy="645.6738" fill="none" rx="3" ry="3" style="stroke:#038048;stroke-width:1.0;"/><text fill="#000000" font-family="sans-serif" font-size="14" lengthAdjust="spacing" textLength="92.5928" x="27" y="649.9707">string CitizenId</text><ellipse cx="18" cy="664.2949" fill="none" rx="3" ry="3" style="stroke:#038048;stroke-width:1.0;"/><text fill="#000000" font-family="sans-serif" font-size="14" lengthAdjust="spacing" textLength="103.4893" x="27" y="668.5918">string Nationality</text><ellipse cx="18" cy="682.916" fill="none" rx="3" ry="3" style="stroke:#038048;stroke-width:1.0;"/><text fill="#000000" font-family="sans-serif" font-size="14" lengthAdjust="spacing" textLength="73.1309" x="27" y="687.2129">string Email</text><ellipse cx="18" cy="701.5371" fill="none" rx="3" ry="3" style="stroke:#038048;stroke-width:1.0;"/><text fill="#000000" font-family="sans-serif" font-size="14" lengthAdjust="spacing" textLength="78.6064" x="27" y="705.834">string Phone</text><ellipse cx="18" cy="720.1582" fill="none" rx="3" ry="3" style="stroke:#038048;stroke-width:1.0;"/><text fill="#000000" font-family="sans-serif" font-size="14" lengthAdjust="spacing" textLength="79.3721" x="27" y="724.4551">bool IsActive</text><ellipse cx="18" cy="738.7793" fill="none" rx="3" ry="3" style="stroke:#038048;stroke-width:1.0;"/><text fill="#000000" font-family="sans-serif" font-size="14" lengthAdjust="spacing" textLength="127.6064" x="27" y="743.0762">DateTime CreatedAt</text><line style="stroke:#181818;stroke-width:1.0;" x1="8" x2="575.1494" y1="750.5898" y2="750.5898"/><ellipse cx="18" cy="765.4004" fill="#84BE84" rx="3" ry="3" style="stroke:#038048;stroke-width:1.0;"/><text fill="#000000" font-family="sans-serif" font-size="14" lengthAdjust="spacing" textLength="96.4756" x="27" y="769.6973">Activate() : void</text><ellipse cx="18" cy="784.0215" fill="#84BE84" rx="3" ry="3" style="stroke:#038048;stroke-width:1.0;"/><text fill="#000000" font-family="sans-serif" font-size="14" lengthAdjust="spacing" textLength="112.8203" x="27" y="788.3184">Deactivate() : void</text><ellipse cx="18" cy="802.6426" fill="#84BE84" rx="3" ry="3" style="stroke:#038048;stroke-width:1.0;"/><text fill="#000000" font-family="sans-serif" font-size="14" lengthAdjust="spacing" textLength="543.1494" x="27" y="806.9395">Update(string name, string citizenId, string nationality, string email, string? phone) : void</text></g><!--class PortDbContext--><g id="elem_PortDbContext"><rect codeLine="31" fill="#F1F1F1" height="85.2422" id="PortDbContext" rx="2.5" ry="2.5" style="stroke:#181818;stroke-width:0.5;" width="280.4814" x="710.5" y="645.6211"/><ellipse cx="800.5806" cy="661.6211" fill="#ADD1B2" rx="11" ry="11" style="stroke:#181818;stroke-width:1.0;"/><path d="M803.3462,657.4961 Q803.5024,657.2773 803.6899,657.168 Q803.8774,657.0586 804.0962,657.0586 Q804.4712,657.0586 804.7056,657.3242 Q804.9399,657.5742 804.9399,658.1836 L804.9399,659.6367 Q804.9399,660.2461 804.7056,660.5117 Q804.4712,660.7773 804.0962,660.7773 Q803.7524,660.7773 803.5493,660.5742 Q803.3462,660.3867 803.2368,659.8711 Q803.1899,659.5117 803.0024,659.3242 Q802.6743,658.9492 802.0649,658.7305 Q801.4556,658.5117 800.8306,658.5117 Q800.0649,658.5117 799.4243,658.8398 Q798.7993,659.168 798.2993,659.918 Q797.8149,660.668 797.8149,661.6992 L797.8149,662.793 Q797.8149,664.0273 798.7056,664.8555 Q799.5962,665.668 801.1899,665.668 Q802.1274,665.668 802.7837,665.418 Q803.1743,665.2617 803.5962,664.8242 Q803.8618,664.5586 804.0024,664.4805 Q804.1587,664.4023 804.3618,664.4023 Q804.6899,664.4023 804.9399,664.668 Q805.2056,664.918 805.2056,665.2617 Q805.2056,665.6055 804.8618,666.0117 Q804.3618,666.5898 803.5649,666.918 Q802.4868,667.3711 801.1899,667.3711 Q799.6743,667.3711 798.4712,666.7461 Q797.4868,666.2461 796.7993,665.1836 Q796.1118,664.1055 796.1118,662.8242 L796.1118,661.668 Q796.1118,660.3398 796.7212,659.1992 Q797.3462,658.043 798.4399,657.4336 Q799.5337,656.8086 800.7681,656.8086 Q801.5024,656.8086 802.1431,656.9805 Q802.7993,657.1367 803.3462,657.4961 Z " fill="#000000"/><text fill="#000000" font-family="sans-serif" font-size="14" lengthAdjust="spacing" textLength="91.8203" x="821.0806" y="667.418">PortDbContext</text><line style="stroke:#181818;stroke-width:0.5;" x1="711.5" x2="989.9814" y1="677.6211" y2="677.6211"/><ellipse cx="721.5" cy="692.4316" fill="none" rx="3" ry="3" style="stroke:#038048;stroke-width:1.0;"/><text fill="#000000" font-family="sans-serif" font-size="14" lengthAdjust="spacing" textLength="224.9092" x="730.5" y="696.7285">DbSet&lt;Organization&gt; Organizations</text><ellipse cx="721.5" cy="711.0527" fill="none" rx="3" ry="3" style="stroke:#038048;stroke-width:1.0;"/><text fill="#000000" font-family="sans-serif" font-size="14" lengthAdjust="spacing" textLength="254.4814" x="730.5" y="715.3496">DbSet&lt;Representative&gt; Representatives</text><line style="stroke:#181818;stroke-width:0.5;" x1="711.5" x2="989.9814" y1="722.8633" y2="722.8633"/></g><!--class RepresentativeRepository--><g id="elem_RepresentativeRepository"><rect codeLine="36" fill="#F1F1F1" height="141.1055" id="RepresentativeRepository" rx="2.5" ry="2.5" style="stroke:#181818;stroke-width:0.5;" width="467.9844" x="486.5" y="313.6211"/><ellipse cx="635.7012" cy="329.6211" fill="#ADD1B2" rx="11" ry="11" style="stroke:#181818;stroke-width:1.0;"/><path d="M638.4668,325.4961 Q638.623,325.2773 638.8105,325.168 Q638.998,325.0586 639.2168,325.0586 Q639.5918,325.0586 639.8262,325.3242 Q640.0605,325.5742 640.0605,326.1836 L640.0605,327.6367 Q640.0605,328.2461 639.8262,328.5117 Q639.5918,328.7773 639.2168,328.7773 Q638.873,328.7773 638.6699,328.5742 Q638.4668,328.3867 638.3574,327.8711 Q638.3105,327.5117 638.123,327.3242 Q637.7949,326.9492 637.1855,326.7305 Q636.5762,326.5117 635.9512,326.5117 Q635.1855,326.5117 634.5449,326.8398 Q633.9199,327.168 633.4199,327.918 Q632.9355,328.668 632.9355,329.6992 L632.9355,330.793 Q632.9355,332.0273 633.8262,332.8555 Q634.7168,333.668 636.3105,333.668 Q637.248,333.668 637.9043,333.418 Q638.2949,333.2617 638.7168,332.8242 Q638.9824,332.5586 639.123,332.4805 Q639.2793,332.4023 639.4824,332.4023 Q639.8105,332.4023 640.0605,332.668 Q640.3262,332.918 640.3262,333.2617 Q640.3262,333.6055 639.9824,334.0117 Q639.4824,334.5898 638.6855,334.918 Q637.6074,335.3711 636.3105,335.3711 Q634.7949,335.3711 633.5918,334.7461 Q632.6074,334.2461 631.9199,333.1836 Q631.2324,332.1055 631.2324,330.8242 L631.2324,329.668 Q631.2324,328.3398 631.8418,327.1992 Q632.4668,326.043 633.5605,325.4336 Q634.6543,324.8086 635.8887,324.8086 Q636.623,324.8086 637.2637,324.9805 Q637.9199,325.1367 638.4668,325.4961 Z " fill="#000000"/><text fill="#000000" font-family="sans-serif" font-size="14" lengthAdjust="spacing" textLength="161.082" x="656.2012" y="335.418">RepresentativeRepository</text><line style="stroke:#181818;stroke-width:0.5;" x1="487.5" x2="953.4844" y1="345.6211" y2="345.6211"/><line style="stroke:#181818;stroke-width:0.5;" x1="487.5" x2="953.4844" y1="353.6211" y2="353.6211"/><ellipse cx="497.5" cy="368.4316" fill="#84BE84" rx="3" ry="3" style="stroke:#038048;stroke-width:1.0;"/><text fill="#000000" font-family="sans-serif" font-size="14" lengthAdjust="spacing" textLength="307.3574" x="506.5" y="372.7285">GetByIdAsync(string id) : Task&lt;Representative?&gt;</text><ellipse cx="497.5" cy="387.0527" fill="#84BE84" rx="3" ry="3" style="stroke:#038048;stroke-width:1.0;"/><text fill="#000000" font-family="sans-serif" font-size="14" lengthAdjust="spacing" textLength="441.9844" x="506.5" y="391.3496">GetAllByOrganizationAsync(string orgId) : Task&lt;List&lt;Representative&gt;&gt;</text><ellipse cx="497.5" cy="405.6738" fill="#84BE84" rx="3" ry="3" style="stroke:#038048;stroke-width:1.0;"/><text fill="#000000" font-family="sans-serif" font-size="14" lengthAdjust="spacing" textLength="232.6543" x="506.5" y="409.9707">AddAsync(Representative rep) : Task</text><ellipse cx="497.5" cy="424.2949" fill="#84BE84" rx="3" ry="3" style="stroke:#038048;stroke-width:1.0;"/><text fill="#000000" font-family="sans-serif" font-size="14" lengthAdjust="spacing" textLength="210.1094" x="506.5" y="428.5918">Update(Representative rep) : void</text><ellipse cx="497.5" cy="442.916" fill="#84BE84" rx="3" ry="3" style="stroke:#038048;stroke-width:1.0;"/><text fill="#000000" font-family="sans-serif" font-size="14" lengthAdjust="spacing" textLength="231.1094" x="506.5" y="447.2129">Deactivate(Representative rep) : void</text></g><!--class RepresentativesController--><g id="elem_RepresentativesController"><rect codeLine="45" fill="#F1F1F1" height="178.3477" id="RepresentativesController" rx="2.5" ry="2.5" style="stroke:#181818;stroke-width:0.5;" width="561.3838" x="873" y="46.6211"/><ellipse cx="1068.5146" cy="62.6211" fill="#ADD1B2" rx="11" ry="11" style="stroke:#181818;stroke-width:1.0;"/><path d="M1071.2803,58.4961 Q1071.4365,58.2773 1071.624,58.168 Q1071.8115,58.0586 1072.0303,58.0586 Q1072.4053,58.0586 1072.6396,58.3242 Q1072.874,58.5742 1072.874,59.1836 L1072.874,60.6367 Q1072.874,61.2461 1072.6396,61.5117 Q1072.4053,61.7773 1072.0303,61.7773 Q1071.6865,61.7773 1071.4834,61.5742 Q1071.2803,61.3867 1071.1709,60.8711 Q1071.124,60.5117 1070.9365,60.3242 Q1070.6084,59.9492 1069.999,59.7305 Q1069.3896,59.5117 1068.7646,59.5117 Q1067.999,59.5117 1067.3584,59.8398 Q1066.7334,60.168 1066.2334,60.918 Q1065.749,61.668 1065.749,62.6992 L1065.749,63.793 Q1065.749,65.0273 1066.6396,65.8555 Q1067.5303,66.668 1069.124,66.668 Q1070.0615,66.668 1070.7178,66.418 Q1071.1084,66.2617 1071.5303,65.8242 Q1071.7959,65.5586 1071.9365,65.4805 Q1072.0928,65.4023 1072.2959,65.4023 Q1072.624,65.4023 1072.874,65.668 Q1073.1396,65.918 1073.1396,66.2617 Q1073.1396,66.6055 1072.7959,67.0117 Q1072.2959,67.5898 1071.499,67.918 Q1070.4209,68.3711 1069.124,68.3711 Q1067.6084,68.3711 1066.4053,67.7461 Q1065.4209,67.2461 1064.7334,66.1836 Q1064.0459,65.1055 1064.0459,63.8242 L1064.0459,62.668 Q1064.0459,61.3398 1064.6553,60.1992 Q1065.2803,59.043 1066.374,58.4336 Q1067.4678,57.8086 1068.7021,57.8086 Q1069.4365,57.8086 1070.0771,57.9805 Q1070.7334,58.1367 1071.2803,58.4961 Z " fill="#000000"/><text fill="#000000" font-family="sans-serif" font-size="14" lengthAdjust="spacing" textLength="161.8545" x="1089.0146" y="68.418">RepresentativesController</text><line style="stroke:#181818;stroke-width:0.5;" x1="874" x2="1433.3838" y1="78.6211" y2="78.6211"/><rect fill="none" height="6" style="stroke:#C82930;stroke-width:1.0;" width="6" x="881" y="90.4316"/><text fill="#000000" font-family="sans-serif" font-size="14" lengthAdjust="spacing" textLength="211.6748" x="893" y="97.7285">OrganizationRepository _orgRepo</text><rect fill="none" height="6" style="stroke:#C82930;stroke-width:1.0;" width="6" x="881" y="109.0527"/><text fill="#000000" font-family="sans-serif" font-size="14" lengthAdjust="spacing" textLength="226.4609" x="893" y="116.3496">RepresentativeRepository _repRepo</text><rect fill="none" height="6" style="stroke:#C82930;stroke-width:1.0;" width="6" x="881" y="127.6738"/><text fill="#000000" font-family="sans-serif" font-size="14" lengthAdjust="spacing" textLength="121.3857" x="893" y="134.9707">PortDbContext _ctx</text><line style="stroke:#181818;stroke-width:1.0;" x1="874" x2="1433.3838" y1="142.4844" y2="142.4844"/><ellipse cx="884" cy="157.2949" fill="#84BE84" rx="3" ry="3" style="stroke:#038048;stroke-width:1.0;"/><text fill="#000000" font-family="sans-serif" font-size="14" lengthAdjust="spacing" textLength="440.4395" x="893" y="161.5918">Create(string orgId, RepresentativeInputDto dto) : Task&lt;IActionResult&gt;</text><ellipse cx="884" cy="175.916" fill="#84BE84" rx="3" ry="3" style="stroke:#038048;stroke-width:1.0;"/><text fill="#000000" font-family="sans-serif" font-size="14" lengthAdjust="spacing" textLength="535.3838" x="893" y="180.2129">Update(string orgId, string repId, UpdateRepresentativeDto dto) : Task&lt;IActionResult&gt;</text><ellipse cx="884" cy="194.5371" fill="#84BE84" rx="3" ry="3" style="stroke:#038048;stroke-width:1.0;"/><text fill="#000000" font-family="sans-serif" font-size="14" lengthAdjust="spacing" textLength="364.1572" x="893" y="198.834">Deactivate(string orgId, string repId) : Task&lt;IActionResult&gt;</text><ellipse cx="884" cy="213.1582" fill="#84BE84" rx="3" ry="3" style="stroke:#038048;stroke-width:1.0;"/><text fill="#000000" font-family="sans-serif" font-size="14" lengthAdjust="spacing" textLength="258.3232" x="893" y="217.4551">GetAll(string orgId) : Task&lt;IActionResult&gt;</text></g><!--class RepresentativeInputDto--><g id="elem_RepresentativeInputDto"><rect codeLine="57" fill="#F1F1F1" height="141.1055" id="RepresentativeInputDto" rx="2.5" ry="2.5" style="stroke:#181818;stroke-width:0.5;" width="179.0889" x="1076" y="617.6211"/><ellipse cx="1091" cy="633.6211" fill="#ADD1B2" rx="11" ry="11" style="stroke:#181818;stroke-width:1.0;"/><path d="M1093.7656,629.4961 Q1093.9219,629.2773 1094.1094,629.168 Q1094.2969,629.0586 1094.5156,629.0586 Q1094.8906,629.0586 1095.125,629.3242 Q1095.3594,629.5742 1095.3594,630.1836 L1095.3594,631.6367 Q1095.3594,632.2461 1095.125,632.5117 Q1094.8906,632.7773 1094.5156,632.7773 Q1094.1719,632.7773 1093.9688,632.5742 Q1093.7656,632.3867 1093.6563,631.8711 Q1093.6094,631.5117 1093.4219,631.3242 Q1093.0938,630.9492 1092.4844,630.7305 Q1091.875,630.5117 1091.25,630.5117 Q1090.4844,630.5117 1089.8438,630.8398 Q1089.2188,631.168 1088.7188,631.918 Q1088.2344,632.668 1088.2344,633.6992 L1088.2344,634.793 Q1088.2344,636.0273 1089.125,636.8555 Q1090.0156,637.668 1091.6094,637.668 Q1092.5469,637.668 1093.2031,637.418 Q1093.5938,637.2617 1094.0156,636.8242 Q1094.2813,636.5586 1094.4219,636.4805 Q1094.5781,636.4023 1094.7813,636.4023 Q1095.1094,636.4023 1095.3594,636.668 Q1095.625,636.918 1095.625,637.2617 Q1095.625,637.6055 1095.2813,638.0117 Q1094.7813,638.5898 1093.9844,638.918 Q1092.9063,639.3711 1091.6094,639.3711 Q1090.0938,639.3711 1088.8906,638.7461 Q1087.9063,638.2461 1087.2188,637.1836 Q1086.5313,636.1055 1086.5313,634.8242 L1086.5313,633.668 Q1086.5313,632.3398 1087.1406,631.1992 Q1087.7656,630.043 1088.8594,629.4336 Q1089.9531,628.8086 1091.1875,628.8086 Q1091.9219,628.8086 1092.5625,628.9805 Q1093.2188,629.1367 1093.7656,629.4961 Z " fill="#000000"/><text fill="#000000" font-family="sans-serif" font-size="14" lengthAdjust="spacing" textLength="147.0889" x="1105" y="639.418">RepresentativeInputDto</text><line style="stroke:#181818;stroke-width:0.5;" x1="1077" x2="1254.0889" y1="649.6211" y2="649.6211"/><ellipse cx="1087" cy="664.4316" fill="none" rx="3" ry="3" style="stroke:#038048;stroke-width:1.0;"/><text fill="#000000" font-family="sans-serif" font-size="14" lengthAdjust="spacing" textLength="75.4688" x="1096" y="668.7285">string Name</text><ellipse cx="1087" cy="683.0527" fill="none" rx="3" ry="3" style="stroke:#038048;stroke-width:1.0;"/><text fill="#000000" font-family="sans-serif" font-size="14" lengthAdjust="spacing" textLength="92.5928" x="1096" y="687.3496">string CitizenId</text><ellipse cx="1087" cy="701.6738" fill="none" rx="3" ry="3" style="stroke:#038048;stroke-width:1.0;"/><text fill="#000000" font-family="sans-serif" font-size="14" lengthAdjust="spacing" textLength="103.4893" x="1096" y="705.9707">string Nationality</text><ellipse cx="1087" cy="720.2949" fill="none" rx="3" ry="3" style="stroke:#038048;stroke-width:1.0;"/><text fill="#000000" font-family="sans-serif" font-size="14" lengthAdjust="spacing" textLength="73.1309" x="1096" y="724.5918">string Email</text><ellipse cx="1087" cy="738.916" fill="none" rx="3" ry="3" style="stroke:#038048;stroke-width:1.0;"/><text fill="#000000" font-family="sans-serif" font-size="14" lengthAdjust="spacing" textLength="86.3926" x="1096" y="743.2129">string? Phone</text><line style="stroke:#181818;stroke-width:0.5;" x1="1077" x2="1254.0889" y1="750.7266" y2="750.7266"/></g><!--class UpdateRepresentativeDto--><g id="elem_UpdateRepresentativeDto"><rect codeLine="65" fill="#F1F1F1" height="141.1055" id="UpdateRepresentativeDto" rx="2.5" ry="2.5" style="stroke:#181818;stroke-width:0.5;" width="193.0957" x="1132" y="313.6211"/><ellipse cx="1147" cy="329.6211" fill="#ADD1B2" rx="11" ry="11" style="stroke:#181818;stroke-width:1.0;"/><path d="M1149.7656,325.4961 Q1149.9219,325.2773 1150.1094,325.168 Q1150.2969,325.0586 1150.5156,325.0586 Q1150.8906,325.0586 1151.125,325.3242 Q1151.3594,325.5742 1151.3594,326.1836 L1151.3594,327.6367 Q1151.3594,328.2461 1151.125,328.5117 Q1150.8906,328.7773 1150.5156,328.7773 Q1150.1719,328.7773 1149.9688,328.5742 Q1149.7656,328.3867 1149.6563,327.8711 Q1149.6094,327.5117 1149.4219,327.3242 Q1149.0938,326.9492 1148.4844,326.7305 Q1147.875,326.5117 1147.25,326.5117 Q1146.4844,326.5117 1145.8438,326.8398 Q1145.2188,327.168 1144.7188,327.918 Q1144.2344,328.668 1144.2344,329.6992 L1144.2344,330.793 Q1144.2344,332.0273 1145.125,332.8555 Q1146.0156,333.668 1147.6094,333.668 Q1148.5469,333.668 1149.2031,333.418 Q1149.5938,333.2617 1150.0156,332.8242 Q1150.2813,332.5586 1150.4219,332.4805 Q1150.5781,332.4023 1150.7813,332.4023 Q1151.1094,332.4023 1151.3594,332.668 Q1151.625,332.918 1151.625,333.2617 Q1151.625,333.6055 1151.2813,334.0117 Q1150.7813,334.5898 1149.9844,334.918 Q1148.9063,335.3711 1147.6094,335.3711 Q1146.0938,335.3711 1144.8906,334.7461 Q1143.9063,334.2461 1143.2188,333.1836 Q1142.5313,332.1055 1142.5313,330.8242 L1142.5313,329.668 Q1142.5313,328.3398 1143.1406,327.1992 Q1143.7656,326.043 1144.8594,325.4336 Q1145.9531,324.8086 1147.1875,324.8086 Q1147.9219,324.8086 1148.5625,324.9805 Q1149.2188,325.1367 1149.7656,325.4961 Z " fill="#000000"/><text fill="#000000" font-family="sans-serif" font-size="14" lengthAdjust="spacing" textLength="161.0957" x="1161" y="335.418">UpdateRepresentativeDto</text><line style="stroke:#181818;stroke-width:0.5;" x1="1133" x2="1324.0957" y1="345.6211" y2="345.6211"/><ellipse cx="1143" cy="360.4316" fill="none" rx="3" ry="3" style="stroke:#038048;stroke-width:1.0;"/><text fill="#000000" font-family="sans-serif" font-size="14" lengthAdjust="spacing" textLength="75.4688" x="1152" y="364.7285">string Name</text><ellipse cx="1143" cy="379.0527" fill="none" rx="3" ry="3" style="stroke:#038048;stroke-width:1.0;"/><text fill="#000000" font-family="sans-serif" font-size="14" lengthAdjust="spacing" textLength="92.5928" x="1152" y="383.3496">string CitizenId</text><ellipse cx="1143" cy="397.6738" fill="none" rx="3" ry="3" style="stroke:#038048;stroke-width:1.0;"/><text fill="#000000" font-family="sans-serif" font-size="14" lengthAdjust="spacing" textLength="103.4893" x="1152" y="401.9707">string Nationality</text><ellipse cx="1143" cy="416.2949" fill="none" rx="3" ry="3" style="stroke:#038048;stroke-width:1.0;"/><text fill="#000000" font-family="sans-serif" font-size="14" lengthAdjust="spacing" textLength="73.1309" x="1152" y="420.5918">string Email</text><ellipse cx="1143" cy="434.916" fill="none" rx="3" ry="3" style="stroke:#038048;stroke-width:1.0;"/><text fill="#000000" font-family="sans-serif" font-size="14" lengthAdjust="spacing" textLength="86.3926" x="1152" y="439.2129">string? Phone</text><line style="stroke:#181818;stroke-width:0.5;" x1="1133" x2="1324.0957" y1="446.7266" y2="446.7266"/></g><!--class RepresentativeResponseDto--><g id="elem_RepresentativeResponseDto"><rect codeLine="73" fill="#F1F1F1" height="196.9688" id="RepresentativeResponseDto" rx="2.5" ry="2.5" style="stroke:#181818;stroke-width:0.5;" width="210.9922" x="1360" y="285.6211"/><ellipse cx="1375" cy="301.6211" fill="#ADD1B2" rx="11" ry="11" style="stroke:#181818;stroke-width:1.0;"/><path d="M1377.7656,297.4961 Q1377.9219,297.2773 1378.1094,297.168 Q1378.2969,297.0586 1378.5156,297.0586 Q1378.8906,297.0586 1379.125,297.3242 Q1379.3594,297.5742 1379.3594,298.1836 L1379.3594,299.6367 Q1379.3594,300.2461 1379.125,300.5117 Q1378.8906,300.7773 1378.5156,300.7773 Q1378.1719,300.7773 1377.9688,300.5742 Q1377.7656,300.3867 1377.6563,299.8711 Q1377.6094,299.5117 1377.4219,299.3242 Q1377.0938,298.9492 1376.4844,298.7305 Q1375.875,298.5117 1375.25,298.5117 Q1374.4844,298.5117 1373.8438,298.8398 Q1373.2188,299.168 1372.7188,299.918 Q1372.2344,300.668 1372.2344,301.6992 L1372.2344,302.793 Q1372.2344,304.0273 1373.125,304.8555 Q1374.0156,305.668 1375.6094,305.668 Q1376.5469,305.668 1377.2031,305.418 Q1377.5938,305.2617 1378.0156,304.8242 Q1378.2813,304.5586 1378.4219,304.4805 Q1378.5781,304.4023 1378.7813,304.4023 Q1379.1094,304.4023 1379.3594,304.668 Q1379.625,304.918 1379.625,305.2617 Q1379.625,305.6055 1379.2813,306.0117 Q1378.7813,306.5898 1377.9844,306.918 Q1376.9063,307.3711 1375.6094,307.3711 Q1374.0938,307.3711 1372.8906,306.7461 Q1371.9063,306.2461 1371.2188,305.1836 Q1370.5313,304.1055 1370.5313,302.8242 L1370.5313,301.668 Q1370.5313,300.3398 1371.1406,299.1992 Q1371.7656,298.043 1372.8594,297.4336 Q1373.9531,296.8086 1375.1875,296.8086 Q1375.9219,296.8086 1376.5625,296.9805 Q1377.2188,297.1367 1377.7656,297.4961 Z " fill="#000000"/><text fill="#000000" font-family="sans-serif" font-size="14" lengthAdjust="spacing" textLength="178.9922" x="1389" y="307.418">RepresentativeResponseDto</text><line style="stroke:#181818;stroke-width:0.5;" x1="1361" x2="1569.9922" y1="317.6211" y2="317.6211"/><ellipse cx="1371" cy="332.4316" fill="none" rx="3" ry="3" style="stroke:#038048;stroke-width:1.0;"/><text fill="#000000" font-family="sans-serif" font-size="14" lengthAdjust="spacing" textLength="143.9648" x="1380" y="336.7285">string RepresentativeId</text><ellipse cx="1371" cy="351.0527" fill="none" rx="3" ry="3" style="stroke:#038048;stroke-width:1.0;"/><text fill="#000000" font-family="sans-serif" font-size="14" lengthAdjust="spacing" textLength="75.4688" x="1380" y="355.3496">string Name</text><ellipse cx="1371" cy="369.6738" fill="none" rx="3" ry="3" style="stroke:#038048;stroke-width:1.0;"/><text fill="#000000" font-family="sans-serif" font-size="14" lengthAdjust="spacing" textLength="92.5928" x="1380" y="373.9707">string CitizenId</text><ellipse cx="1371" cy="388.2949" fill="none" rx="3" ry="3" style="stroke:#038048;stroke-width:1.0;"/><text fill="#000000" font-family="sans-serif" font-size="14" lengthAdjust="spacing" textLength="103.4893" x="1380" y="392.5918">string Nationality</text><ellipse cx="1371" cy="406.916" fill="none" rx="3" ry="3" style="stroke:#038048;stroke-width:1.0;"/><text fill="#000000" font-family="sans-serif" font-size="14" lengthAdjust="spacing" textLength="73.1309" x="1380" y="411.2129">string Email</text><ellipse cx="1371" cy="425.5371" fill="none" rx="3" ry="3" style="stroke:#038048;stroke-width:1.0;"/><text fill="#000000" font-family="sans-serif" font-size="14" lengthAdjust="spacing" textLength="78.6064" x="1380" y="429.834">string Phone</text><ellipse cx="1371" cy="444.1582" fill="none" rx="3" ry="3" style="stroke:#038048;stroke-width:1.0;"/><text fill="#000000" font-family="sans-serif" font-size="14" lengthAdjust="spacing" textLength="79.3721" x="1380" y="448.4551">bool IsActive</text><ellipse cx="1371" cy="462.7793" fill="none" rx="3" ry="3" style="stroke:#038048;stroke-width:1.0;"/><text fill="#000000" font-family="sans-serif" font-size="14" lengthAdjust="spacing" textLength="127.6064" x="1380" y="467.0762">DateTime CreatedAt</text><line style="stroke:#181818;stroke-width:0.5;" x1="1361" x2="1569.9922" y1="474.5898" y2="474.5898"/></g><!--class OrganizationRepository--><g id="elem_OrganizationRepository"><rect fill="#F1F1F1" height="48" id="OrganizationRepository" rx="2.5" ry="2.5" style="stroke:#181818;stroke-width:0.5;" width="178.2959" x="1606.5" y="360.1211"/><ellipse cx="1621.5" cy="376.1211" fill="#ADD1B2" rx="11" ry="11" style="stroke:#181818;stroke-width:1.0;"/><path d="M1624.2656,371.9961 Q1624.4219,371.7773 1624.6094,371.668 Q1624.7969,371.5586 1625.0156,371.5586 Q1625.3906,371.5586 1625.625,371.8242 Q1625.8594,372.0742 1625.8594,372.6836 L1625.8594,374.1367 Q1625.8594,374.7461 1625.625,375.0117 Q1625.3906,375.2773 1625.0156,375.2773 Q1624.6719,375.2773 1624.4688,375.0742 Q1624.2656,374.8867 1624.1563,374.3711 Q1624.1094,374.0117 1623.9219,373.8242 Q1623.5938,373.4492 1622.9844,373.2305 Q1622.375,373.0117 1621.75,373.0117 Q1620.9844,373.0117 1620.3438,373.3398 Q1619.7188,373.668 1619.2188,374.418 Q1618.7344,375.168 1618.7344,376.1992 L1618.7344,377.293 Q1618.7344,378.5273 1619.625,379.3555 Q1620.5156,380.168 1622.1094,380.168 Q1623.0469,380.168 1623.7031,379.918 Q1624.0938,379.7617 1624.5156,379.3242 Q1624.7813,379.0586 1624.9219,378.9805 Q1625.0781,378.9023 1625.2813,378.9023 Q1625.6094,378.9023 1625.8594,379.168 Q1626.125,379.418 1626.125,379.7617 Q1626.125,380.1055 1625.7813,380.5117 Q1625.2813,381.0898 1624.4844,381.418 Q1623.4063,381.8711 1622.1094,381.8711 Q1620.5938,381.8711 1619.3906,381.2461 Q1618.4063,380.7461 1617.7188,379.6836 Q1617.0313,378.6055 1617.0313,377.3242 L1617.0313,376.168 Q1617.0313,374.8398 1617.6406,373.6992 Q1618.2656,372.543 1619.3594,371.9336 Q1620.4531,371.3086 1621.6875,371.3086 Q1622.4219,371.3086 1623.0625,371.4805 Q1623.7188,371.6367 1624.2656,371.9961 Z " fill="#000000"/><text fill="#000000" font-family="sans-serif" font-size="14" lengthAdjust="spacing" textLength="146.2959" x="1635.5" y="381.918">OrganizationRepository</text><line style="stroke:#181818;stroke-width:0.5;" x1="1607.5" x2="1783.7959" y1="392.1211" y2="392.1211"/><line style="stroke:#181818;stroke-width:0.5;" x1="1607.5" x2="1783.7959" y1="400.1211" y2="400.1211"/></g><!--reverse link Organization to Representative--><g id="link_Organization_Representative"><path codeLine="85" d="M275.5718,494.71 C277.6518,519.79 278.92,535.1611 281.1,561.4311 " fill="none" id="Organization-backto-Representative" style="stroke:#181818;stroke-width:1.0;"/><polygon fill="none" points="274.58,482.7511,271.0896,489.0612,275.5718,494.71,279.0622,488.4,274.58,482.7511" style="stroke:#181818;stroke-width:1.0;"/><text fill="#000000" font-family="sans-serif" font-size="13" lengthAdjust="spacing" textLength="20.96" x="279.5" y="527.6494">has</text><text fill="#000000" font-family="sans-serif" font-size="13" lengthAdjust="spacing" textLength="7.23" x="267.9178" y="504.6586">1</text><text fill="#000000" font-family="sans-serif" font-size="13" lengthAdjust="spacing" textLength="19.5127" x="260.8984" y="550.2353">0..*</text></g><!--link RepresentativeRepository to PortDbContext--><g id="link_RepresentativeRepository_PortDbContext"><path codeLine="86" d="M750.49,454.7811 C775.83,513.6611 808.9276,590.5501 830.1076,639.7501 " fill="none" id="RepresentativeRepository-to-PortDbContext" style="stroke:#181818;stroke-width:1.0;"/><polygon fill="#181818" points="832.48,645.2611,832.5954,635.4129,830.503,640.6686,825.2473,638.5762,832.48,645.2611" style="stroke:#181818;stroke-width:1.0;"/></g><!--link RepresentativeRepository to Representative--><g id="link_RepresentativeRepository_Representative"><path codeLine="87" d="M621.54,454.7811 C576.5,486.4911 526.6861,521.5571 474.8561,558.0471 " fill="none" id="RepresentativeRepository-to-Representative" style="stroke:#181818;stroke-width:1.0;"/><polygon fill="#181818" points="469.95,561.5011,479.6118,559.5908,474.0384,558.6227,475.0064,553.0493,469.95,561.5011" style="stroke:#181818;stroke-width:1.0;"/></g><!--link RepresentativesController to OrganizationRepository--><g id="link_RepresentativesController_OrganizationRepository"><path codeLine="89" d="M1434.28,213.8511 C1487.26,233.6311 1540.93,257.4611 1588.5,285.6211 C1622.67,305.8511 1651.3602,333.8332 1671.4302,355.6732 " fill="none" id="RepresentativesController-to-OrganizationRepository" style="stroke:#181818;stroke-width:1.0;"/><polygon fill="#181818" points="1675.49,360.0911,1672.3455,350.7577,1672.1068,356.4095,1666.455,356.1708,1675.49,360.0911" style="stroke:#181818;stroke-width:1.0;"/></g><!--link RepresentativesController to RepresentativeRepository--><g id="link_RepresentativesController_RepresentativeRepository"><path codeLine="90" d="M998.71,224.7411 C947.48,253.9011 896.4446,282.9632 848.0046,310.5332 " fill="none" id="RepresentativesController-to-RepresentativeRepository" style="stroke:#181818;stroke-width:1.0;"/><polygon fill="#181818" points="842.79,313.5011,852.5904,312.5256,847.1355,311.0278,848.6332,305.5729,842.79,313.5011" style="stroke:#181818;stroke-width:1.0;"/></g><!--link RepresentativesController to PortDbContext--><g id="link_RepresentativesController_PortDbContext"><path codeLine="91" d="M1108.7,224.7211 C1072.57,295.0411 1019.98,395.8011 971.5,482.6211 C939.62,539.7111 903.9425,599.3715 879.0225,640.4415 " fill="none" id="RepresentativesController-to-PortDbContext" style="stroke:#181818;stroke-width:1.0;"/><polygon fill="#181818" points="875.91,645.5711,883.9984,639.9517,878.5037,641.2964,877.159,635.8018,875.91,645.5711" style="stroke:#181818;stroke-width:1.0;"/></g><!--link RepresentativesController to RepresentativeInputDto--><g id="link_RepresentativesController_RepresentativeInputDto"><path codeLine="92" d="M1126.42,224.9211 C1121.47,244.7011 1117.06,265.7311 1114.5,285.6211 C1103.32,372.4611 1103.83,395.7211 1114.5,482.6211 C1120.1,528.2011 1130.816,572.4707 1141.976,611.6407 " fill="none" id="RepresentativesController-to-RepresentativeInputDto" style="stroke:#181818;stroke-width:1.0;stroke-dasharray:7.0,7.0;"/><polygon fill="#181818" points="1143.62,617.4111,1145.0008,607.6595,1142.25,612.6025,1137.307,609.8516,1143.62,617.4111" style="stroke:#181818;stroke-width:1.0;"/></g><!--link RepresentativesController to UpdateRepresentativeDto--><g id="link_RepresentativesController_UpdateRepresentativeDto"><path codeLine="93" d="M1180.36,224.9211 C1189.23,254.0611 1197.2234,280.3209 1205.6034,307.8609 " fill="none" id="RepresentativesController-to-UpdateRepresentativeDto" style="stroke:#181818;stroke-width:1.0;stroke-dasharray:7.0,7.0;"/><polygon fill="#181818" points="1207.35,313.6011,1208.5568,303.8265,1205.8945,308.8176,1200.9033,306.1553,1207.35,313.6011" style="stroke:#181818;stroke-width:1.0;"/></g><!--link RepresentativesController to RepresentativeResponseDto--><g id="link_RepresentativesController_RepresentativeResponseDto"><path codeLine="94" d="M1265.47,224.8111 C1290.81,244.7911 1317.59,265.9311 1342.5,285.6211 C1348.16,290.1011 1349.2669,290.9654 1355.1369,295.6154 " fill="none" id="RepresentativesController-to-RepresentativeResponseDto" style="stroke:#181818;stroke-width:1.0;stroke-dasharray:7.0,7.0;"/><polygon fill="#181818" points="1359.84,299.3411,1355.2691,290.6172,1355.9207,296.2364,1350.3015,296.888,1359.84,299.3411" style="stroke:#181818;stroke-width:1.0;"/></g><!--link RepresentativeResponseDto to RepresentativeInputDto--><g id="link_RepresentativeResponseDto_RepresentativeInputDto"><path codeLine="96" d="M1368.51,482.7511 C1324.86,526.7011 1278.5588,573.3046 1238.8288,613.2946 " fill="none" id="RepresentativeResponseDto-to-RepresentativeInputDto" style="stroke:#181818;stroke-width:1.0;"/><polygon fill="#181818" points="1234.6,617.5511,1243.7808,613.9856,1238.124,614.004,1238.1055,608.3472,1234.6,617.5511" style="stroke:#181818;stroke-width:1.0;"/></g><!--SRC=[pLLTRzem57tFhx1usLU3jZxieUg2KZ9DaLYfA7r69haDremTsQOYhVhVP-SBEoImJTeq7X0-Fhxt-DphYoAA0ffIB2MA2Cu4tY8VFToZo_7b-3FwZXdE02qW5o21AQp84qZFUuE-c0-A-1OJLYsyf8mo5nbcv5apEKCl7a8V72XEEykI8PKWB4DngdEGHmB2HcUGONgBjs238LKWMAddQ2jDjLev8yo1btX_kzkkwzYsY6MH0p9VvKwy09pE6Iscd5983E7QDI0uCkJLgs_lRjJtTq7jG1UmPNPlCoMAF0FhaemiJ8agRFYhhWQrWRiDhqrOSqvHBCF4P2oH22jOagsklW3zCmsLXds_t2jf6dpx3bsX9qwgv17WNlmXJmrMvsJw0XUDWAHHtoBi8Bt5mEXkLXEK6zLjXjT3kyNiKM3DsYLg9y1fkpikLBIUSgPWhshVe_Kzg6kxqe5JTscn_h32UiKbKLmKTSvle6wAE0rbmPB64PAQooon_D59CmcQCo6bDuMjpGd0HHOVOio8FD9R1TATNvthjA60l3bj5woVrLVk4qohFCPzOHwDa4vjEbuUQALdlbCJoz2LlhPPbfn1srTQJCjoks2LgFsXfwisToozwBv4bkzKf3XA5M_jZiEa4YPtL0Kz3L-7gbTQZbbL53VyBqIsF1-EVYf0rKlzZTEXMvMBblDJ9MjzUVbRasfIZwhscGtvz-yKT3jEvdfY76luNsUvLTq5q6hURKZUbDdvcnvz6Y7k-sZqSJn-F-h-YLsX3PRUu0Fq_S1zTwUfxgRd3Gy7m-uV3MSE3UK_S-pK9MpkU1mCl8ypXmPw-hTIMNteUSCjUcn3g_4d]--></g></svg>