<svg xmlns="http://www.w3.org/2000/svg" xmlns:xlink="http://www.w3.org/1999/xlink" contentStyleType="text/css" height="919px" preserveAspectRatio="none" style="width:1631px;height:919px;background:#FFFFFF;" version="1.1" viewBox="0 0 1631 919" width="1631px" zoomAndPan="magnify"><title>SSD - Update Representative</title><defs/><g><text fill="#000000" font-family="sans-serif" font-size="14" font-weight="bold" lengthAdjust="spacing" textLength="192.9443" x="720.196" y="30.1074">SSD - Update Representative</text><rect fill="#FFFFFF" height="168.7461" style="stroke:#181818;stroke-width:1.0;" width="10" x="659.3501" y="205.1152"/><rect fill="#FFFFFF" height="62.582" style="stroke:#181818;stroke-width:1.0;" width="10" x="830.0322" y="236.4063"/><rect fill="#FFFFFF" height="93.873" style="stroke:#181818;stroke-width:1.0;" width="10" x="830.0322" y="679.0332"/><rect fill="#FFFFFF" height="31.291" style="stroke:#181818;stroke-width:1.0;" width="10" x="1293.0376" y="421.7832"/><rect fill="none" height="505.209" style="stroke:#000000;stroke-width:1.5;" width="1271.9082" x="352.4282" y="313.9883"/><rect fill="none" height="344.123" style="stroke:#000000;stroke-width:1.5;" width="1251.9082" x="362.4282" y="468.0742"/><line style="stroke:#181818;stroke-width:0.5;stroke-dasharray:5.0,5.0;" x1="72" x2="72" y1="123.2422" y2="836.1973"/><line style="stroke:#181818;stroke-width:0.5;stroke-dasharray:5.0,5.0;" x1="410.4282" x2="410.4282" y1="123.2422" y2="836.1973"/><line style="stroke:#181818;stroke-width:0.5;stroke-dasharray:5.0,5.0;" x1="663.8159" x2="663.8159" y1="123.2422" y2="836.1973"/><line style="stroke:#181818;stroke-width:0.5;stroke-dasharray:5.0,5.0;" x1="834.8843" x2="834.8843" y1="123.2422" y2="836.1973"/><line style="stroke:#181818;stroke-width:0.5;stroke-dasharray:5.0,5.0;" x1="977.1802" x2="977.1802" y1="123.2422" y2="836.1973"/><line style="stroke:#181818;stroke-width:0.5;stroke-dasharray:5.0,5.0;" x1="1125.0005" x2="1125.0005" y1="123.2422" y2="836.1973"/><line style="stroke:#181818;stroke-width:0.5;stroke-dasharray:5.0,5.0;" x1="1297.6206" x2="1297.6206" y1="123.2422" y2="836.1973"/><line style="stroke:#181818;stroke-width:0.5;stroke-dasharray:5.0,5.0;" x1="1434.4546" x2="1434.4546" y1="123.2422" y2="836.1973"/><text fill="#000000" font-family="sans-serif" font-size="14" lengthAdjust="spacing" textLength="129.9307" x="5" y="119.7285">Port Authority Officer</text><ellipse cx="72.9653" cy="53.1211" fill="#E2E2F0" rx="8" ry="8" style="stroke:#181818;stroke-width:0.5;"/><path d="M72.9653,61.1211 L72.9653,88.1211 M59.9653,69.1211 L85.9653,69.1211 M72.9653,88.1211 L59.9653,103.1211 M72.9653,88.1211 L85.9653,103.1211 " fill="none" style="stroke:#181818;stroke-width:0.5;"/><text fill="#000000" font-family="sans-serif" font-size="14" lengthAdjust="spacing" textLength="129.9307" x="5" y="850.3047">Port Authority Officer</text><ellipse cx="72.9653" cy="862.3184" fill="#E2E2F0" rx="8" ry="8" style="stroke:#181818;stroke-width:0.5;"/><path d="M72.9653,870.3184 L72.9653,897.3184 M59.9653,878.3184 L85.9653,878.3184 M72.9653,897.3184 L59.9653,912.3184 M72.9653,897.3184 L85.9653,912.3184 " fill="none" style="stroke:#181818;stroke-width:0.5;"/><rect fill="#E2E2F0" height="32.6211" rx="2.5" ry="2.5" style="stroke:#181818;stroke-width:0.5;" width="76.248" x="372.4282" y="89.6211"/><text fill="#000000" font-family="sans-serif" font-size="14" lengthAdjust="spacing" textLength="62.248" x="379.4282" y="111.7285">API Client</text><rect fill="#E2E2F0" height="32.6211" rx="2.5" ry="2.5" style="stroke:#181818;stroke-width:0.5;" width="76.248" x="372.4282" y="835.1973"/><text fill="#000000" font-family="sans-serif" font-size="14" lengthAdjust="spacing" textLength="62.248" x="379.4282" y="857.3047">API Client</text><rect fill="#E2E2F0" height="32.6211" rx="2.5" ry="2.5" style="stroke:#181818;stroke-width:0.5;" width="161.0684" x="583.8159" y="89.6211"/><text fill="#000000" font-family="sans-serif" font-size="14" lengthAdjust="spacing" textLength="147.0684" x="590.8159" y="111.7285">OrganizationsController</text><rect fill="#E2E2F0" height="32.6211" rx="2.5" ry="2.5" style="stroke:#181818;stroke-width:0.5;" width="161.0684" x="583.8159" y="835.1973"/><text fill="#000000" font-family="sans-serif" font-size="14" lengthAdjust="spacing" textLength="147.0684" x="590.8159" y="857.3047">OrganizationsController</text><rect fill="#E2E2F0" height="32.6211" rx="2.5" ry="2.5" style="stroke:#181818;stroke-width:0.5;" width="160.2959" x="754.8843" y="89.6211"/><text fill="#000000" font-family="sans-serif" font-size="14" lengthAdjust="spacing" textLength="146.2959" x="761.8843" y="111.7285">OrganizationRepository</text><rect fill="#E2E2F0" height="32.6211" rx="2.5" ry="2.5" style="stroke:#181818;stroke-width:0.5;" width="160.2959" x="754.8843" y="835.1973"/><text fill="#000000" font-family="sans-serif" font-size="14" lengthAdjust="spacing" textLength="146.2959" x="761.8843" y="857.3047">OrganizationRepository</text><rect fill="#E2E2F0" height="32.6211" rx="2.5" ry="2.5" style="stroke:#181818;stroke-width:0.5;" width="105.8203" x="925.1802" y="89.6211"/><text fill="#000000" font-family="sans-serif" font-size="14" lengthAdjust="spacing" textLength="91.8203" x="932.1802" y="111.7285">PortDbContext</text><rect fill="#E2E2F0" height="32.6211" rx="2.5" ry="2.5" style="stroke:#181818;stroke-width:0.5;" width="105.8203" x="925.1802" y="835.1973"/><text fill="#000000" font-family="sans-serif" font-size="14" lengthAdjust="spacing" textLength="91.8203" x="932.1802" y="857.3047">PortDbContext</text><rect fill="#E2E2F0" height="32.6211" rx="2.5" ry="2.5" style="stroke:#181818;stroke-width:0.5;" width="169.6201" x="1041.0005" y="89.6211"/><text fill="#000000" font-family="sans-serif" font-size="14" lengthAdjust="spacing" textLength="155.6201" x="1048.0005" y="111.7285">Representative (Domain)</text><rect fill="#E2E2F0" height="32.6211" rx="2.5" ry="2.5" style="stroke:#181818;stroke-width:0.5;" width="169.6201" x="1041.0005" y="835.1973"/><text fill="#000000" font-family="sans-serif" font-size="14" lengthAdjust="spacing" textLength="155.6201" x="1048.0005" y="857.3047">Representative (Domain)</text><rect fill="#E2E2F0" height="32.6211" rx="2.5" ry="2.5" style="stroke:#181818;stroke-width:0.5;" width="154.834" x="1220.6206" y="89.6211"/><text fill="#000000" font-family="sans-serif" font-size="14" lengthAdjust="spacing" textLength="140.834" x="1227.6206" y="111.7285">Organization (Domain)</text><rect fill="#E2E2F0" height="32.6211" rx="2.5" ry="2.5" style="stroke:#181818;stroke-width:0.5;" width="154.834" x="1220.6206" y="835.1973"/><text fill="#000000" font-family="sans-serif" font-size="14" lengthAdjust="spacing" textLength="140.834" x="1227.6206" y="857.3047">Organization (Domain)</text><text fill="#000000" font-family="sans-serif" font-size="14" lengthAdjust="spacing" textLength="93.3379" x="1385.4546" y="119.7285">EF (InMemory)</text><path d="M1417.1235,68.6211 C1417.1235,58.6211 1435.1235,58.6211 1435.1235,58.6211 C1435.1235,58.6211 1453.1235,58.6211 1453.1235,68.6211 L1453.1235,94.6211 C1453.1235,104.6211 1435.1235,104.6211 1435.1235,104.6211 C1435.1235,104.6211 1417.1235,104.6211 1417.1235,94.6211 L1417.1235,68.6211 " fill="#E2E2F0" style="stroke:#181818;stroke-width:1.5;"/><path d="M1417.1235,68.6211 C1417.1235,78.6211 1435.1235,78.6211 1435.1235,78.6211 C1435.1235,78.6211 1453.1235,78.6211 1453.1235,68.6211 " fill="none" style="stroke:#181818;stroke-width:1.5;"/><text fill="#000000" font-family="sans-serif" font-size="14" lengthAdjust="spacing" textLength="93.3379" x="1385.4546" y="850.3047">EF (InMemory)</text><path d="M1417.1235,863.8184 C1417.1235,853.8184 1435.1235,853.8184 1435.1235,853.8184 C1435.1235,853.8184 1453.1235,853.8184 1453.1235,863.8184 L1453.1235,889.8184 C1453.1235,899.8184 1435.1235,899.8184 1435.1235,899.8184 C1435.1235,899.8184 1417.1235,899.8184 1417.1235,889.8184 L1417.1235,863.8184 " fill="#E2E2F0" style="stroke:#181818;stroke-width:1.5;"/><path d="M1417.1235,863.8184 C1417.1235,873.8184 1435.1235,873.8184 1435.1235,873.8184 C1435.1235,873.8184 1453.1235,873.8184 1453.1235,863.8184 " fill="none" style="stroke:#181818;stroke-width:1.5;"/><rect fill="#FFFFFF" height="168.7461" style="stroke:#181818;stroke-width:1.0;" width="10" x="659.3501" y="205.1152"/><rect fill="#FFFFFF" height="62.582" style="stroke:#181818;stroke-width:1.0;" width="10" x="830.0322" y="236.4063"/><rect fill="#FFFFFF" height="93.873" style="stroke:#181818;stroke-width:1.0;" width="10" x="830.0322" y="679.0332"/><rect fill="#FFFFFF" height="31.291" style="stroke:#181818;stroke-width:1.0;" width="10" x="1293.0376" y="421.7832"/><polygon fill="#181818" points="398.5522,169.8242,408.5522,173.8242,398.5522,177.8242,402.5522,173.8242" style="stroke:#181818;stroke-width:1.0;"/><line style="stroke:#181818;stroke-width:1.0;" x1="72.9653" x2="404.5522" y1="173.8242" y2="173.8242"/><text fill="#000000" font-family="sans-serif" font-size="13" lengthAdjust="spacing" textLength="307.855" x="79.9653" y="151.2705">PUT /api/organizations/{orgId}/representatives/{repId}</text><text fill="#000000" font-family="sans-serif" font-size="13" lengthAdjust="spacing" textLength="313.5869" x="79.9653" y="168.5615">{ Name, CitizenId, Nationality, Email, Phone, IsActive }</text><polygon fill="#181818" points="647.3501,201.1152,657.3501,205.1152,647.3501,209.1152,651.3501,205.1152" style="stroke:#181818;stroke-width:1.0;"/><line style="stroke:#181818;stroke-width:1.0;" x1="410.5522" x2="653.3501" y1="205.1152" y2="205.1152"/><text fill="#000000" font-family="sans-serif" font-size="13" lengthAdjust="spacing" textLength="229.7979" x="417.5522" y="199.8525">UpdateRepresentative(orgId, repId, dto)</text><polygon fill="#181818" points="818.0322,232.4063,828.0322,236.4063,818.0322,240.4063,822.0322,236.4063" style="stroke:#181818;stroke-width:1.0;"/><line style="stroke:#181818;stroke-width:1.0;" x1="669.3501" x2="824.0322" y1="236.4063" y2="236.4063"/><text fill="#000000" font-family="sans-serif" font-size="13" lengthAdjust="spacing" textLength="120.6563" x="676.3501" y="231.1436">GetByIdAsync(orgId)</text><polygon fill="#181818" points="1423.1235,263.6973,1433.1235,267.6973,1423.1235,271.6973,1427.1235,267.6973" style="stroke:#181818;stroke-width:1.0;"/><line style="stroke:#181818;stroke-width:1.0;" x1="840.0322" x2="1429.1235" y1="267.6973" y2="267.6973"/><text fill="#000000" font-family="sans-serif" font-size="13" lengthAdjust="spacing" textLength="257.9688" x="847.0322" y="262.4346">query Organization.Include(Representatives)</text><polygon fill="#181818" points="846.0322,294.9883,836.0322,298.9883,846.0322,302.9883,842.0322,298.9883" style="stroke:#181818;stroke-width:1.0;"/><line style="stroke:#181818;stroke-width:1.0;stroke-dasharray:2.0,2.0;" x1="840.0322" x2="1434.1235" y1="298.9883" y2="298.9883"/><text fill="#000000" font-family="sans-serif" font-size="13" lengthAdjust="spacing" textLength="104.5459" x="852.0322" y="293.7256">Organization | null</text><path d="M352.4282,313.9883 L412.5991,313.9883 L412.5991,323.2793 L402.5991,333.2793 L352.4282,333.2793 L352.4282,313.9883 " fill="#EEEEEE" style="stroke:#000000;stroke-width:1.5;"/><rect fill="none" height="505.209" style="stroke:#000000;stroke-width:1.5;" width="1271.9082" x="352.4282" y="313.9883"/><text fill="#000000" font-family="sans-serif" font-size="13" font-weight="bold" lengthAdjust="spacing" textLength="15.1709" x="367.4282" y="329.0166">alt</text><text fill="#000000" font-family="sans-serif" font-size="11" font-weight="bold" lengthAdjust="spacing" textLength="126.4678" x="427.5991" y="327.8584">[organization not found]</text><polygon fill="#181818" points="421.5522,369.8613,411.5522,373.8613,421.5522,377.8613,417.5522,373.8613" style="stroke:#181818;stroke-width:1.0;"/><line style="stroke:#181818;stroke-width:1.0;stroke-dasharray:2.0,2.0;" x1="415.5522" x2="663.3501" y1="373.8613" y2="373.8613"/><text fill="#000000" font-family="sans-serif" font-size="13" lengthAdjust="spacing" textLength="86.0044" x="427.5522" y="351.3076">404 Not Found</text><text fill="#000000" font-family="sans-serif" font-size="13" lengthAdjust="spacing" textLength="207.1304" x="427.5522" y="368.5986">"Organization with ID '...' not found."</text><line style="stroke:#000000;stroke-width:1.0;stroke-dasharray:2.0,2.0;" x1="352.4282" x2="1624.3364" y1="382.8613" y2="382.8613"/><text fill="#000000" font-family="sans-serif" font-size="11" font-weight="bold" lengthAdjust="spacing" textLength="106.3101" x="357.4282" y="394.7314">[organization found]</text><polygon fill="#181818" points="1281.0376,417.7832,1291.0376,421.7832,1281.0376,425.7832,1285.0376,421.7832" style="stroke:#181818;stroke-width:1.0;"/><line style="stroke:#181818;stroke-width:1.0;" x1="664.3501" x2="1287.0376" y1="421.7832" y2="421.7832"/><text fill="#000000" font-family="sans-serif" font-size="13" lengthAdjust="spacing" textLength="186.418" x="671.3501" y="416.5205">O.GetRepresentativeById(repId)</text><polygon fill="#181818" points="1136.8105,449.0742,1126.8105,453.0742,1136.8105,457.0742,1132.8105,453.0742" style="stroke:#181818;stroke-width:1.0;"/><line style="stroke:#181818;stroke-width:1.0;" x1="1130.8105" x2="1297.0376" y1="453.0742" y2="453.0742"/><text fill="#000000" font-family="sans-serif" font-size="13" lengthAdjust="spacing" textLength="113.2168" x="1142.8105" y="447.8115">representative | null</text><path d="M362.4282,468.0742 L422.5991,468.0742 L422.5991,477.3652 L412.5991,487.3652 L362.4282,487.3652 L362.4282,468.0742 " fill="#EEEEEE" style="stroke:#000000;stroke-width:1.5;"/><rect fill="none" height="344.123" style="stroke:#000000;stroke-width:1.5;" width="1251.9082" x="362.4282" y="468.0742"/><text fill="#000000" font-family="sans-serif" font-size="13" font-weight="bold" lengthAdjust="spacing" textLength="15.1709" x="377.4282" y="483.1025">alt</text><text fill="#000000" font-family="sans-serif" font-size="11" font-weight="bold" lengthAdjust="spacing" textLength="136.2861" x="437.5991" y="481.9443">[representative not found]</text><polygon fill="#181818" points="421.5522,523.9473,411.5522,527.9473,421.5522,531.9473,417.5522,527.9473" style="stroke:#181818;stroke-width:1.0;"/><line style="stroke:#181818;stroke-width:1.0;stroke-dasharray:2.0,2.0;" x1="415.5522" x2="663.3501" y1="527.9473" y2="527.9473"/><text fill="#000000" font-family="sans-serif" font-size="13" lengthAdjust="spacing" textLength="86.0044" x="427.5522" y="505.3936">404 Not Found</text><text fill="#000000" font-family="sans-serif" font-size="13" lengthAdjust="spacing" textLength="220.8604" x="427.5522" y="522.6846">"Representative with ID '...' not found."</text><line style="stroke:#000000;stroke-width:1.0;stroke-dasharray:2.0,2.0;" x1="362.4282" x2="1614.3364" y1="536.9473" y2="536.9473"/><text fill="#000000" font-family="sans-serif" font-size="11" font-weight="bold" lengthAdjust="spacing" textLength="116.1284" x="367.4282" y="548.8174">[representative found]</text><polygon fill="#181818" points="1113.8105,571.8691,1123.8105,575.8691,1113.8105,579.8691,1117.8105,575.8691" style="stroke:#181818;stroke-width:1.0;"/><line style="stroke:#181818;stroke-width:1.0;" x1="664.3501" x2="1119.8105" y1="575.8691" y2="575.8691"/><text fill="#000000" font-family="sans-serif" font-size="13" lengthAdjust="spacing" textLength="134.3862" x="671.3501" y="570.6064">update fields from DTO</text><line style="stroke:#181818;stroke-width:1.0;" x1="1125.8105" x2="1167.8105" y1="620.9512" y2="620.9512"/><line style="stroke:#181818;stroke-width:1.0;" x1="1167.8105" x2="1167.8105" y1="620.9512" y2="633.9512"/><line style="stroke:#181818;stroke-width:1.0;" x1="1126.8105" x2="1167.8105" y1="633.9512" y2="633.9512"/><polygon fill="#181818" points="1136.8105,629.9512,1126.8105,633.9512,1136.8105,637.9512,1132.8105,633.9512" style="stroke:#181818;stroke-width:1.0;"/><text fill="#000000" font-family="sans-serif" font-size="13" lengthAdjust="spacing" textLength="131.5171" x="1132.8105" y="615.6885">validate business rules</text><path d="M1275.5171,588.8691 L1275.5171,649.8691 L1598.5171,649.8691 L1598.5171,598.8691 L1588.5171,588.8691 L1275.5171,588.8691 " fill="#FEFFDD" style="stroke:#181818;stroke-width:0.5;"/><path d="M1588.5171,588.8691 L1588.5171,598.8691 L1598.5171,598.8691 L1588.5171,588.8691 " fill="#FEFFDD" style="stroke:#181818;stroke-width:0.5;"/><text fill="#000000" font-family="sans-serif" font-size="13" lengthAdjust="spacing" textLength="302.0088" x="1281.5171" y="607.8975">- Required fields: Name, CitizenId, Nationality, Email</text><text fill="#000000" font-family="sans-serif" font-size="13" lengthAdjust="spacing" textLength="274.5806" x="1281.5171" y="625.1885">- Emails must remain unique in the organization</text><text fill="#000000" font-family="sans-serif" font-size="13" lengthAdjust="spacing" textLength="119.9453" x="1281.5171" y="642.4795">- Can toggle IsActive</text><polygon fill="#181818" points="818.0322,675.0332,828.0322,679.0332,818.0322,683.0332,822.0322,679.0332" style="stroke:#181818;stroke-width:1.0;"/><line style="stroke:#181818;stroke-width:1.0;" x1="664.3501" x2="824.0322" y1="679.0332" y2="679.0332"/><text fill="#000000" font-family="sans-serif" font-size="13" lengthAdjust="spacing" textLength="60.6899" x="671.3501" y="673.7705">Update(O)</text><polygon fill="#181818" points="966.0903,706.3242,976.0903,710.3242,966.0903,714.3242,970.0903,710.3242" style="stroke:#181818;stroke-width:1.0;"/><line style="stroke:#181818;stroke-width:1.0;" x1="664.3501" x2="972.0903" y1="710.3242" y2="710.3242"/><text fill="#000000" font-family="sans-serif" font-size="13" lengthAdjust="spacing" textLength="125.728" x="671.3501" y="705.0615">SaveChangesAsync()</text><polygon fill="#181818" points="1423.1235,737.6152,1433.1235,741.6152,1423.1235,745.6152,1427.1235,741.6152" style="stroke:#181818;stroke-width:1.0;"/><line style="stroke:#181818;stroke-width:1.0;" x1="978.0903" x2="1429.1235" y1="741.6152" y2="741.6152"/><text fill="#000000" font-family="sans-serif" font-size="13" lengthAdjust="spacing" textLength="130.8125" x="985.0903" y="736.3525">update Representative</text><polygon fill="#181818" points="989.0903,768.9063,979.0903,772.9063,989.0903,776.9063,985.0903,772.9063" style="stroke:#181818;stroke-width:1.0;"/><line style="stroke:#181818;stroke-width:1.0;stroke-dasharray:2.0,2.0;" x1="983.0903" x2="1434.1235" y1="772.9063" y2="772.9063"/><text fill="#000000" font-family="sans-serif" font-size="13" lengthAdjust="spacing" textLength="18.7827" x="995.0903" y="767.6436">OK</text><polygon fill="#181818" points="421.5522,800.1973,411.5522,804.1973,421.5522,808.1973,417.5522,804.1973" style="stroke:#181818;stroke-width:1.0;"/><line style="stroke:#181818;stroke-width:1.0;stroke-dasharray:2.0,2.0;" x1="415.5522" x2="663.3501" y1="804.1973" y2="804.1973"/><text fill="#000000" font-family="sans-serif" font-size="13" lengthAdjust="spacing" textLength="225.1069" x="427.5522" y="798.9346">200 OK + RepresentativeResponseDto</text><!--SRC=[ZLJ9Rjim4BtpAmQ-n4Qz14LEEHHmfQGGYaQ6dDnoeQsnJO0c5P9owwJvzmufBwBWj3q843blvisRXKuuYJ2Vfp22fwha3g70og15vRWJEsICBvqsq9jfus1QkuqsmkqXNwt44aqFk3t-iueR9vQYuif1RphB8962uWHCynj3ShFcIhmIZrOsqSePBUKXPl8nb1BKLb1I-uQzYA4-qNJXm-6lXZjTn8XO8VHJlUL23GAs-9Wt1kQCgiKNt2BqxkwXdwaVkAMS6kkSqgFQ7Ie3eo-70i0jp9uUOS8hCT5j-PCtEcRb-yH4oT4zNT3zitg31xx58IJ2YLTKMJca2-_B9JLa27UKcnp2RACLeJ8xNGPrx-p0x7CW-gRBSGdwWNi8WMe8fTC3ttQny_EGC9PuvxmWxs_elkwpSchtQjbujP3K2G8HDAWdz4kDXaQbfNESgQMiI-p72TW1Qtn6HwAeyBz1rLAo4jjKZ4i7xHg2qWvMkbOb0v8wQXVzvle67iXyxytFAkxhJ-4saALmDHwFhyvHnZsAq-9C64hgTaJPegF4VTvZAb4ipXUi7qex8EHP0Xrox-Rbnbq_2exeS-QzINC7srRzJzsTqV-RyevsWA2-GnuHDrBgvXbP2PIbXPNHMqWVyu0fZfWTpMn0BMeh55eBffPe0uYo81gnthXm17gP2dofXS7o4FJsVpRXv1nE5hQrzQNp2mor4ZIQG7zk4pVqv9LmCkhrcbx7uoe56weoP7ZM7CQrsQf-FWZtxJ4zuT85uUPyXyc6gpNQPeSQ1xArrgQ- -11xt7b9GhJyUxTFVYykZC7dwsi2mwTEp09jHMyFfavVR3Yrbhu_]--></g></svg>