<svg xmlns="http://www.w3.org/2000/svg" xmlns:xlink="http://www.w3.org/1999/xlink" contentStyleType="text/css" height="820px" preserveAspectRatio="none" style="width:1618px;height:820px;background:#FFFFFF;" version="1.1" viewBox="0 0 1618 820" width="1618px" zoomAndPan="magnify"><title>SSD - Register Representative (Create)</title><defs/><g><text fill="#000000" font-family="sans-serif" font-size="14" font-weight="bold" lengthAdjust="spacing" textLength="258.3096" x="681.0728" y="30.1074">SSD - Register Representative (Create)</text><rect fill="#FFFFFF" height="168.7461" style="stroke:#181818;stroke-width:1.0;" width="10" x="643.8618" y="205.1152"/><rect fill="#FFFFFF" height="62.582" style="stroke:#181818;stroke-width:1.0;" width="10" x="814.5439" y="236.4063"/><rect fill="#FFFFFF" height="93.873" style="stroke:#181818;stroke-width:1.0;" width="10" x="814.5439" y="587.5293"/><rect fill="#FFFFFF" height="134.4551" style="stroke:#181818;stroke-width:1.0;" width="10" x="1097.9292" y="421.7832"/><rect fill="none" height="406.7051" style="stroke:#000000;stroke-width:1.5;" width="1287.2905" x="324.1646" y="313.9883"/><line style="stroke:#181818;stroke-width:0.5;stroke-dasharray:5.0,5.0;" x1="72" x2="72" y1="123.2422" y2="737.6934"/><line style="stroke:#181818;stroke-width:0.5;stroke-dasharray:5.0,5.0;" x1="372.1646" x2="372.1646" y1="123.2422" y2="737.6934"/><line style="stroke:#181818;stroke-width:0.5;stroke-dasharray:5.0,5.0;" x1="648.3276" x2="648.3276" y1="123.2422" y2="737.6934"/><line style="stroke:#181818;stroke-width:0.5;stroke-dasharray:5.0,5.0;" x1="819.396" x2="819.396" y1="123.2422" y2="737.6934"/><line style="stroke:#181818;stroke-width:0.5;stroke-dasharray:5.0,5.0;" x1="961.6919" x2="961.6919" y1="123.2422" y2="737.6934"/><line style="stroke:#181818;stroke-width:0.5;stroke-dasharray:5.0,5.0;" x1="1102.5122" x2="1102.5122" y1="123.2422" y2="737.6934"/><line style="stroke:#181818;stroke-width:0.5;stroke-dasharray:5.0,5.0;" x1="1311.7607" x2="1311.7607" y1="123.2422" y2="737.6934"/><line style="stroke:#181818;stroke-width:0.5;stroke-dasharray:5.0,5.0;" x1="1456.3809" x2="1456.3809" y1="123.2422" y2="737.6934"/><text fill="#000000" font-family="sans-serif" font-size="14" lengthAdjust="spacing" textLength="129.9307" x="5" y="119.7285">Port Authority Officer</text><ellipse cx="72.9653" cy="53.1211" fill="#E2E2F0" rx="8" ry="8" style="stroke:#181818;stroke-width:0.5;"/><path d="M72.9653,61.1211 L72.9653,88.1211 M59.9653,69.1211 L85.9653,69.1211 M72.9653,88.1211 L59.9653,103.1211 M72.9653,88.1211 L85.9653,103.1211 " fill="none" style="stroke:#181818;stroke-width:0.5;"/><text fill="#000000" font-family="sans-serif" font-size="14" lengthAdjust="spacing" textLength="129.9307" x="5" y="751.8008">Port Authority Officer</text><ellipse cx="72.9653" cy="763.8145" fill="#E2E2F0" rx="8" ry="8" style="stroke:#181818;stroke-width:0.5;"/><path d="M72.9653,771.8145 L72.9653,798.8145 M59.9653,779.8145 L85.9653,779.8145 M72.9653,798.8145 L59.9653,813.8145 M72.9653,798.8145 L85.9653,813.8145 " fill="none" style="stroke:#181818;stroke-width:0.5;"/><rect fill="#E2E2F0" height="32.6211" rx="2.5" ry="2.5" style="stroke:#181818;stroke-width:0.5;" width="76.248" x="334.1646" y="89.6211"/><text fill="#000000" font-family="sans-serif" font-size="14" lengthAdjust="spacing" textLength="62.248" x="341.1646" y="111.7285">API Client</text><rect fill="#E2E2F0" height="32.6211" rx="2.5" ry="2.5" style="stroke:#181818;stroke-width:0.5;" width="76.248" x="334.1646" y="736.6934"/><text fill="#000000" font-family="sans-serif" font-size="14" lengthAdjust="spacing" textLength="62.248" x="341.1646" y="758.8008">API Client</text><rect fill="#E2E2F0" height="32.6211" rx="2.5" ry="2.5" style="stroke:#181818;stroke-width:0.5;" width="161.0684" x="568.3276" y="89.6211"/><text fill="#000000" font-family="sans-serif" font-size="14" lengthAdjust="spacing" textLength="147.0684" x="575.3276" y="111.7285">OrganizationsController</text><rect fill="#E2E2F0" height="32.6211" rx="2.5" ry="2.5" style="stroke:#181818;stroke-width:0.5;" width="161.0684" x="568.3276" y="736.6934"/><text fill="#000000" font-family="sans-serif" font-size="14" lengthAdjust="spacing" textLength="147.0684" x="575.3276" y="758.8008">OrganizationsController</text><rect fill="#E2E2F0" height="32.6211" rx="2.5" ry="2.5" style="stroke:#181818;stroke-width:0.5;" width="160.2959" x="739.396" y="89.6211"/><text fill="#000000" font-family="sans-serif" font-size="14" lengthAdjust="spacing" textLength="146.2959" x="746.396" y="111.7285">OrganizationRepository</text><rect fill="#E2E2F0" height="32.6211" rx="2.5" ry="2.5" style="stroke:#181818;stroke-width:0.5;" width="160.2959" x="739.396" y="736.6934"/><text fill="#000000" font-family="sans-serif" font-size="14" lengthAdjust="spacing" textLength="146.2959" x="746.396" y="758.8008">OrganizationRepository</text><rect fill="#E2E2F0" height="32.6211" rx="2.5" ry="2.5" style="stroke:#181818;stroke-width:0.5;" width="105.8203" x="909.6919" y="89.6211"/><text fill="#000000" font-family="sans-serif" font-size="14" lengthAdjust="spacing" textLength="91.8203" x="916.6919" y="111.7285">PortDbContext</text><rect fill="#E2E2F0" height="32.6211" rx="2.5" ry="2.5" style="stroke:#181818;stroke-width:0.5;" width="105.8203" x="909.6919" y="736.6934"/><text fill="#000000" font-family="sans-serif" font-size="14" lengthAdjust="spacing" textLength="91.8203" x="916.6919" y="758.8008">PortDbContext</text><rect fill="#E2E2F0" height="32.6211" rx="2.5" ry="2.5" style="stroke:#181818;stroke-width:0.5;" width="154.834" x="1025.5122" y="89.6211"/><text fill="#000000" font-family="sans-serif" font-size="14" lengthAdjust="spacing" textLength="140.834" x="1032.5122" y="111.7285">Organization (Domain)</text><rect fill="#E2E2F0" height="32.6211" rx="2.5" ry="2.5" style="stroke:#181818;stroke-width:0.5;" width="154.834" x="1025.5122" y="736.6934"/><text fill="#000000" font-family="sans-serif" font-size="14" lengthAdjust="spacing" textLength="140.834" x="1032.5122" y="758.8008">Organization (Domain)</text><rect fill="#E2E2F0" height="32.6211" rx="2.5" ry="2.5" style="stroke:#181818;stroke-width:0.5;" width="169.6201" x="1227.7607" y="89.6211"/><text fill="#000000" font-family="sans-serif" font-size="14" lengthAdjust="spacing" textLength="155.6201" x="1234.7607" y="111.7285">Representative (Domain)</text><rect fill="#E2E2F0" height="32.6211" rx="2.5" ry="2.5" style="stroke:#181818;stroke-width:0.5;" width="169.6201" x="1227.7607" y="736.6934"/><text fill="#000000" font-family="sans-serif" font-size="14" lengthAdjust="spacing" textLength="155.6201" x="1234.7607" y="758.8008">Representative (Domain)</text><text fill="#000000" font-family="sans-serif" font-size="14" lengthAdjust="spacing" textLength="93.3379" x="1407.3809" y="119.7285">EF (InMemory)</text><path d="M1439.0498,68.6211 C1439.0498,58.6211 1457.0498,58.6211 1457.0498,58.6211 C1457.0498,58.6211 1475.0498,58.6211 1475.0498,68.6211 L1475.0498,94.6211 C1475.0498,104.6211 1457.0498,104.6211 1457.0498,104.6211 C1457.0498,104.6211 1439.0498,104.6211 1439.0498,94.6211 L1439.0498,68.6211 " fill="#E2E2F0" style="stroke:#181818;stroke-width:1.5;"/><path d="M1439.0498,68.6211 C1439.0498,78.6211 1457.0498,78.6211 1457.0498,78.6211 C1457.0498,78.6211 1475.0498,78.6211 1475.0498,68.6211 " fill="none" style="stroke:#181818;stroke-width:1.5;"/><text fill="#000000" font-family="sans-serif" font-size="14" lengthAdjust="spacing" textLength="93.3379" x="1407.3809" y="751.8008">EF (InMemory)</text><path d="M1439.0498,765.3145 C1439.0498,755.3145 1457.0498,755.3145 1457.0498,755.3145 C1457.0498,755.3145 1475.0498,755.3145 1475.0498,765.3145 L1475.0498,791.3145 C1475.0498,801.3145 1457.0498,801.3145 1457.0498,801.3145 C1457.0498,801.3145 1439.0498,801.3145 1439.0498,791.3145 L1439.0498,765.3145 " fill="#E2E2F0" style="stroke:#181818;stroke-width:1.5;"/><path d="M1439.0498,765.3145 C1439.0498,775.3145 1457.0498,775.3145 1457.0498,775.3145 C1457.0498,775.3145 1475.0498,775.3145 1475.0498,765.3145 " fill="none" style="stroke:#181818;stroke-width:1.5;"/><rect fill="#FFFFFF" height="168.7461" style="stroke:#181818;stroke-width:1.0;" width="10" x="643.8618" y="205.1152"/><rect fill="#FFFFFF" height="62.582" style="stroke:#181818;stroke-width:1.0;" width="10" x="814.5439" y="236.4063"/><rect fill="#FFFFFF" height="93.873" style="stroke:#181818;stroke-width:1.0;" width="10" x="814.5439" y="587.5293"/><rect fill="#FFFFFF" height="134.4551" style="stroke:#181818;stroke-width:1.0;" width="10" x="1097.9292" y="421.7832"/><polygon fill="#181818" points="360.2886,169.8242,370.2886,173.8242,360.2886,177.8242,364.2886,173.8242" style="stroke:#181818;stroke-width:1.0;"/><line style="stroke:#181818;stroke-width:1.0;" x1="72.9653" x2="366.2886" y1="173.8242" y2="173.8242"/><text fill="#000000" font-family="sans-serif" font-size="13" lengthAdjust="spacing" textLength="275.3232" x="79.9653" y="151.2705">POST /api/organizations/{orgId}/representatives</text><text fill="#000000" font-family="sans-serif" font-size="13" lengthAdjust="spacing" textLength="260.8506" x="79.9653" y="168.5615">{ Name, CitizenId, Nationality, Email, Phone }</text><polygon fill="#181818" points="631.8618,201.1152,641.8618,205.1152,631.8618,209.1152,635.8618,205.1152" style="stroke:#181818;stroke-width:1.0;"/><line style="stroke:#181818;stroke-width:1.0;" x1="372.2886" x2="637.8618" y1="205.1152" y2="205.1152"/><text fill="#000000" font-family="sans-serif" font-size="13" lengthAdjust="spacing" textLength="174.1543" x="379.2886" y="199.8525">AddRepresentative(orgId, dto)</text><polygon fill="#181818" points="802.5439,232.4063,812.5439,236.4063,802.5439,240.4063,806.5439,236.4063" style="stroke:#181818;stroke-width:1.0;"/><line style="stroke:#181818;stroke-width:1.0;" x1="653.8618" x2="808.5439" y1="236.4063" y2="236.4063"/><text fill="#000000" font-family="sans-serif" font-size="13" lengthAdjust="spacing" textLength="120.6563" x="660.8618" y="231.1436">GetByIdAsync(orgId)</text><polygon fill="#181818" points="1445.0498,263.6973,1455.0498,267.6973,1445.0498,271.6973,1449.0498,267.6973" style="stroke:#181818;stroke-width:1.0;"/><line style="stroke:#181818;stroke-width:1.0;" x1="824.5439" x2="1451.0498" y1="267.6973" y2="267.6973"/><text fill="#000000" font-family="sans-serif" font-size="13" lengthAdjust="spacing" textLength="257.9688" x="831.5439" y="262.4346">query Organization.Include(Representatives)</text><polygon fill="#181818" points="830.5439,294.9883,820.5439,298.9883,830.5439,302.9883,826.5439,298.9883" style="stroke:#181818;stroke-width:1.0;"/><line style="stroke:#181818;stroke-width:1.0;stroke-dasharray:2.0,2.0;" x1="824.5439" x2="1456.0498" y1="298.9883" y2="298.9883"/><text fill="#000000" font-family="sans-serif" font-size="13" lengthAdjust="spacing" textLength="104.5459" x="836.5439" y="293.7256">Organization | null</text><path d="M324.1646,313.9883 L384.3354,313.9883 L384.3354,323.2793 L374.3354,333.2793 L324.1646,333.2793 L324.1646,313.9883 " fill="#EEEEEE" style="stroke:#000000;stroke-width:1.5;"/><rect fill="none" height="406.7051" style="stroke:#000000;stroke-width:1.5;" width="1287.2905" x="324.1646" y="313.9883"/><text fill="#000000" font-family="sans-serif" font-size="13" font-weight="bold" lengthAdjust="spacing" textLength="15.1709" x="339.1646" y="329.0166">alt</text><text fill="#000000" font-family="sans-serif" font-size="11" font-weight="bold" lengthAdjust="spacing" textLength="126.4678" x="399.3354" y="327.8584">[organization not found]</text><polygon fill="#181818" points="383.2886,369.8613,373.2886,373.8613,383.2886,377.8613,379.2886,373.8613" style="stroke:#181818;stroke-width:1.0;"/><line style="stroke:#181818;stroke-width:1.0;stroke-dasharray:2.0,2.0;" x1="377.2886" x2="647.8618" y1="373.8613" y2="373.8613"/><text fill="#000000" font-family="sans-serif" font-size="13" lengthAdjust="spacing" textLength="86.0044" x="389.2886" y="351.3076">404 Not Found</text><text fill="#000000" font-family="sans-serif" font-size="13" lengthAdjust="spacing" textLength="207.1304" x="389.2886" y="368.5986">"Organization with ID '...' not found."</text><line style="stroke:#000000;stroke-width:1.0;stroke-dasharray:2.0,2.0;" x1="324.1646" x2="1611.4551" y1="382.8613" y2="382.8613"/><text fill="#000000" font-family="sans-serif" font-size="11" font-weight="bold" lengthAdjust="spacing" textLength="106.3101" x="329.1646" y="394.7314">[organization found]</text><polygon fill="#181818" points="1085.9292,417.7832,1095.9292,421.7832,1085.9292,425.7832,1089.9292,421.7832" style="stroke:#181818;stroke-width:1.0;"/><line style="stroke:#181818;stroke-width:1.0;" x1="648.8618" x2="1091.9292" y1="421.7832" y2="421.7832"/><text fill="#000000" font-family="sans-serif" font-size="13" lengthAdjust="spacing" textLength="157.5234" x="655.8618" y="416.5205">O.AddRepresentatives(dto)</text><line style="stroke:#181818;stroke-width:1.0;" x1="1107.9292" x2="1149.9292" y1="466.8652" y2="466.8652"/><line style="stroke:#181818;stroke-width:1.0;" x1="1149.9292" x2="1149.9292" y1="466.8652" y2="479.8652"/><line style="stroke:#181818;stroke-width:1.0;" x1="1108.9292" x2="1149.9292" y1="479.8652" y2="479.8652"/><polygon fill="#181818" points="1118.9292,475.8652,1108.9292,479.8652,1118.9292,483.8652,1114.9292,479.8652" style="stroke:#181818;stroke-width:1.0;"/><text fill="#000000" font-family="sans-serif" font-size="13" lengthAdjust="spacing" textLength="131.5171" x="1114.9292" y="461.6025">validate business rules</text><path d="M1267.5171,434.7832 L1267.5171,495.7832 L1590.5171,495.7832 L1590.5171,444.7832 L1580.5171,434.7832 L1267.5171,434.7832 " fill="#FEFFDD" style="stroke:#181818;stroke-width:0.5;"/><path d="M1580.5171,434.7832 L1580.5171,444.7832 L1590.5171,444.7832 L1580.5171,434.7832 " fill="#FEFFDD" style="stroke:#181818;stroke-width:0.5;"/><text fill="#000000" font-family="sans-serif" font-size="13" lengthAdjust="spacing" textLength="162.5889" x="1273.5171" y="453.8115">- At least one representative</text><text fill="#000000" font-family="sans-serif" font-size="13" lengthAdjust="spacing" textLength="250.7388" x="1273.5171" y="471.1025">- Emails must be unique within organization</text><text fill="#000000" font-family="sans-serif" font-size="13" lengthAdjust="spacing" textLength="302.0088" x="1273.5171" y="488.3936">- Required fields: Name, CitizenId, Nationality, Email</text><polygon fill="#181818" points="1300.5708,520.9473,1310.5708,524.9473,1300.5708,528.9473,1304.5708,524.9473" style="stroke:#181818;stroke-width:1.0;"/><line style="stroke:#181818;stroke-width:1.0;" x1="1107.9292" x2="1306.5708" y1="524.9473" y2="524.9473"/><text fill="#000000" font-family="sans-serif" font-size="13" lengthAdjust="spacing" textLength="180.6416" x="1114.9292" y="519.6846">create Representative object(s)</text><polygon fill="#181818" points="659.8618,552.2383,649.8618,556.2383,659.8618,560.2383,655.8618,556.2383" style="stroke:#181818;stroke-width:1.0;"/><line style="stroke:#181818;stroke-width:1.0;stroke-dasharray:2.0,2.0;" x1="653.8618" x2="1101.9292" y1="556.2383" y2="556.2383"/><text fill="#000000" font-family="sans-serif" font-size="13" lengthAdjust="spacing" textLength="137.2998" x="665.8618" y="550.9756">representative(s) added</text><polygon fill="#181818" points="802.5439,583.5293,812.5439,587.5293,802.5439,591.5293,806.5439,587.5293" style="stroke:#181818;stroke-width:1.0;"/><line style="stroke:#181818;stroke-width:1.0;" x1="648.8618" x2="808.5439" y1="587.5293" y2="587.5293"/><text fill="#000000" font-family="sans-serif" font-size="13" lengthAdjust="spacing" textLength="60.6899" x="655.8618" y="582.2666">Update(O)</text><polygon fill="#181818" points="950.6021,614.8203,960.6021,618.8203,950.6021,622.8203,954.6021,618.8203" style="stroke:#181818;stroke-width:1.0;"/><line style="stroke:#181818;stroke-width:1.0;" x1="648.8618" x2="956.6021" y1="618.8203" y2="618.8203"/><text fill="#000000" font-family="sans-serif" font-size="13" lengthAdjust="spacing" textLength="125.728" x="655.8618" y="613.5576">SaveChangesAsync()</text><polygon fill="#181818" points="1445.0498,646.1113,1455.0498,650.1113,1445.0498,654.1113,1449.0498,650.1113" style="stroke:#181818;stroke-width:1.0;"/><line style="stroke:#181818;stroke-width:1.0;" x1="962.6021" x2="1451.0498" y1="650.1113" y2="650.1113"/><text fill="#000000" font-family="sans-serif" font-size="13" lengthAdjust="spacing" textLength="129.3398" x="969.6021" y="644.8486">insert Representatives</text><polygon fill="#181818" points="973.6021,677.4023,963.6021,681.4023,973.6021,685.4023,969.6021,681.4023" style="stroke:#181818;stroke-width:1.0;"/><line style="stroke:#181818;stroke-width:1.0;stroke-dasharray:2.0,2.0;" x1="967.6021" x2="1456.0498" y1="681.4023" y2="681.4023"/><text fill="#000000" font-family="sans-serif" font-size="13" lengthAdjust="spacing" textLength="18.7827" x="979.6021" y="676.1396">OK</text><polygon fill="#181818" points="383.2886,708.6934,373.2886,712.6934,383.2886,716.6934,379.2886,712.6934" style="stroke:#181818;stroke-width:1.0;"/><line style="stroke:#181818;stroke-width:1.0;stroke-dasharray:2.0,2.0;" x1="377.2886" x2="647.8618" y1="712.6934" y2="712.6934"/><text fill="#000000" font-family="sans-serif" font-size="13" lengthAdjust="spacing" textLength="252.5732" x="389.2886" y="707.4307">201 Created + RepresentativeResponseDto</text><!--SRC=[ZLJBRjim4BppAnQ-H4RzI8kSSYZWIaaX58qCkRtbGebhcmLDEYJbradpxrbASYCw2D0RAGvtPcTMzD8hXDKgWocKk97EewN5tg93xRcN1uGajSWzZXdZjJSMHajZFImQlpLM-YCKwxMiqOw0kzEQxRdrifPxhZsC5iiSKYMfO8lfbZ6ai1kkvICH6krIexqrIlKrq_UXfDGuIQAE7NiPGuFGh0hby4_7dLNl5uCaCpikzRYh5GFFFHb2IoQuvnLt2AERMqXo_HrtfAaxNP4yPAnt1gQVUmFW6fR5wWVC-LxEpR3_-HDjS_4yjn6fkzTFSCTtE85KUlc8EXSJ-X3kS4L9JE26HAa9BBT68popdYXG4jj2YBYBfAMPWF1c7BAL1ugPx6Pfk5AKTESh-Y_7N2pSKTSTV80akmb4qBP5GZyqQ6aU1htCSbshHc0ICxinw-vCJqHH47z1DqenWKCgnfM7eK-WZOUrQRHWG0rEXyvUNLx17HtVXkDx7UVyM_ejv1bSp6QpYzSgin7L6N2c31L56b4Ew4Xuq3rxOwjBMaC1NjNJfZZTE51M8doj6YSrEWUsKUW8GaeGhDniFMs0_iY51uNSKTiKPpmCFQ8DtC6k8L25q6X96RGDIXqfx_4bFZJIee2rH2NSzV_C4rr5BLfrfpv2OdNxAfm_5gRwXRLFtBY3zgCNQwTJu4AWYFqks3zZG_sV- -1IKiHEbYTCLX5cnG-ORhdUeEj6D83fP32JKZkav-ei8eAz3c1RglXsfgPaRyVgq-L7w5v30H_EQfRezlJpOkRDcpdIuWK0]--></g></svg>