<svg xmlns="http://www.w3.org/2000/svg" xmlns:xlink="http://www.w3.org/1999/xlink" contentStyleType="text/css" height="1036px" preserveAspectRatio="none" style="width:1189px;height:1036px;background:#FFFFFF;" version="1.1" viewBox="0 0 1189 1036" width="1189px" zoomAndPan="magnify"><title>System Diagram - US 2.2.6 Manage Representatives</title><defs/><g><text fill="#000000" font-family="sans-serif" font-size="14" font-weight="bold" lengthAdjust="spacing" textLength="344.7021" x="415.6339" y="25.1074">System Diagram - US 2.2.6 Manage Representatives</text><!--cluster Client Layer--><g id="cluster_Client Layer"><rect fill="none" height="102" rx="2.5" ry="2.5" style="stroke:#181818;stroke-width:1.0;" width="204" x="474" y="189.1211"/><text fill="#000000" font-family="sans-serif" font-size="14" font-weight="bold" lengthAdjust="spacing" textLength="80.1377" x="535.9312" y="206.2285">Client Layer</text></g><!--cluster Web API--><g id="cluster_Web API"><polygon fill="none" points="459,369.1211,469,359.1211,693,359.1211,693,456.1211,683,466.1211,459,466.1211,459,369.1211" style="stroke:#181818;stroke-width:1.0;"/><line style="stroke:#181818;stroke-width:1.0;" x1="683" x2="693" y1="369.1211" y2="359.1211"/><line style="stroke:#181818;stroke-width:1.0;" x1="459" x2="683" y1="369.1211" y2="369.1211"/><line style="stroke:#181818;stroke-width:1.0;" x1="683" x2="683" y1="369.1211" y2="466.1211"/><text fill="#000000" font-family="sans-serif" font-size="14" font-weight="bold" lengthAdjust="spacing" textLength="56.7793" x="543.6104" y="387.2285">Web API</text></g><!--cluster Application DTOs--><g id="cluster_Application DTOs"><path d="M8.5,517.1211 L126.9482,517.1211 A3.75,3.75 0 0 1 129.4482,519.6211 L136.4482,541.7422 L491.5,541.7422 A2.5,2.5 0 0 1 494,544.2422 L494,616.6211 A2.5,2.5 0 0 1 491.5,619.1211 L8.5,619.1211 A2.5,2.5 0 0 1 6,616.6211 L6,519.6211 A2.5,2.5 0 0 1 8.5,517.1211 " fill="none" style="stroke:#000000;stroke-width:1.5;"/><line style="stroke:#000000;stroke-width:1.5;" x1="6" x2="136.4482" y1="541.7422" y2="541.7422"/><text fill="#000000" font-family="sans-serif" font-size="14" font-weight="bold" lengthAdjust="spacing" textLength="117.4482" x="10" y="534.2285">Application DTOs</text></g><!--cluster Infrastructure--><g id="cluster_Infrastructure"><path d="M520.5,517.1211 L612.5205,517.1211 A3.75,3.75 0 0 1 615.0205,519.6211 L622.0205,541.7422 L972.5,541.7422 A2.5,2.5 0 0 1 975,544.2422 L975,897.1211 A2.5,2.5 0 0 1 972.5,899.6211 L520.5,899.6211 A2.5,2.5 0 0 1 518,897.1211 L518,519.6211 A2.5,2.5 0 0 1 520.5,517.1211 " fill="none" style="stroke:#000000;stroke-width:1.5;"/><line style="stroke:#000000;stroke-width:1.5;" x1="518" x2="622.0205" y1="541.7422" y2="541.7422"/><text fill="#000000" font-family="sans-serif" font-size="14" font-weight="bold" lengthAdjust="spacing" textLength="91.0205" x="522" y="534.2285">Infrastructure</text></g><!--cluster Domain--><g id="cluster_Domain"><path d="M1001.5,798.1211 L1053.8379,798.1211 A3.75,3.75 0 0 1 1056.3379,800.6211 L1063.3379,822.7422 L1162.5,822.7422 A2.5,2.5 0 0 1 1165,825.2422 L1165,1027.1211 A2.5,2.5 0 0 1 1162.5,1029.6211 L1001.5,1029.6211 A2.5,2.5 0 0 1 999,1027.1211 L999,800.6211 A2.5,2.5 0 0 1 1001.5,798.1211 " fill="none" style="stroke:#000000;stroke-width:1.5;"/><line style="stroke:#000000;stroke-width:1.5;" x1="999" x2="1063.3379" y1="822.7422" y2="822.7422"/><text fill="#000000" font-family="sans-serif" font-size="14" font-weight="bold" lengthAdjust="spacing" textLength="51.3379" x="1003" y="815.2285">Domain</text></g><!--entity ApiClient--><g id="elem_ApiClient"><rect fill="#F1F1F1" height="48.6211" rx="2.5" ry="2.5" style="stroke:#181818;stroke-width:0.5;" width="171.4893" x="490.5" y="226.1211"/><rect fill="#F1F1F1" height="10" style="stroke:#181818;stroke-width:0.5;" width="15" x="641.9893" y="231.1211"/><rect fill="#F1F1F1" height="2" style="stroke:#181818;stroke-width:0.5;" width="4" x="639.9893" y="233.1211"/><rect fill="#F1F1F1" height="2" style="stroke:#181818;stroke-width:0.5;" width="4" x="639.9893" y="237.1211"/><text fill="#000000" font-family="sans-serif" font-size="14" lengthAdjust="spacing" textLength="131.4893" x="505.5" y="261.2285">Scalar UI / API Client</text></g><!--entity C_R--><g id="elem_C_R"><rect fill="#F1F1F1" height="48.6211" rx="2.5" ry="2.5" style="stroke:#181818;stroke-width:0.5;" width="201.8545" x="475" y="401.1211"/><rect fill="#F1F1F1" height="10" style="stroke:#181818;stroke-width:0.5;" width="15" x="656.8545" y="406.1211"/><rect fill="#F1F1F1" height="2" style="stroke:#181818;stroke-width:0.5;" width="4" x="654.8545" y="408.1211"/><rect fill="#F1F1F1" height="2" style="stroke:#181818;stroke-width:0.5;" width="4" x="654.8545" y="412.1211"/><text fill="#000000" font-family="sans-serif" font-size="14" lengthAdjust="spacing" textLength="161.8545" x="490" y="436.2285">RepresentativesController</text></g><!--entity UpdateRepresentativeDto--><g id="elem_UpdateRepresentativeDto"><rect fill="#F1F1F1" height="48.6211" rx="2.5" ry="2.5" style="stroke:#181818;stroke-width:0.5;" width="201.0957" x="22.5" y="554.1211"/><rect fill="#F1F1F1" height="10" style="stroke:#181818;stroke-width:0.5;" width="15" x="203.5957" y="559.1211"/><rect fill="#F1F1F1" height="2" style="stroke:#181818;stroke-width:0.5;" width="4" x="201.5957" y="561.1211"/><rect fill="#F1F1F1" height="2" style="stroke:#181818;stroke-width:0.5;" width="4" x="201.5957" y="565.1211"/><text fill="#000000" font-family="sans-serif" font-size="14" lengthAdjust="spacing" textLength="161.0957" x="37.5" y="589.2285">UpdateRepresentativeDto</text></g><!--entity RepresentativeResponseDto--><g id="elem_RepresentativeResponseDto"><rect fill="#F1F1F1" height="48.6211" rx="2.5" ry="2.5" style="stroke:#181818;stroke-width:0.5;" width="218.9922" x="258.5" y="554.1211"/><rect fill="#F1F1F1" height="10" style="stroke:#181818;stroke-width:0.5;" width="15" x="457.4922" y="559.1211"/><rect fill="#F1F1F1" height="2" style="stroke:#181818;stroke-width:0.5;" width="4" x="455.4922" y="561.1211"/><rect fill="#F1F1F1" height="2" style="stroke:#181818;stroke-width:0.5;" width="4" x="455.4922" y="565.1211"/><text fill="#000000" font-family="sans-serif" font-size="14" lengthAdjust="spacing" textLength="178.9922" x="273.5" y="589.2285">RepresentativeResponseDto</text></g><!--entity OR--><g id="elem_OR"><rect fill="#F1F1F1" height="48.6211" rx="2.5" ry="2.5" style="stroke:#181818;stroke-width:0.5;" width="186.2959" x="773" y="554.1211"/><rect fill="#F1F1F1" height="10" style="stroke:#181818;stroke-width:0.5;" width="15" x="939.2959" y="559.1211"/><rect fill="#F1F1F1" height="2" style="stroke:#181818;stroke-width:0.5;" width="4" x="937.2959" y="561.1211"/><rect fill="#F1F1F1" height="2" style="stroke:#181818;stroke-width:0.5;" width="4" x="937.2959" y="565.1211"/><text fill="#000000" font-family="sans-serif" font-size="14" lengthAdjust="spacing" textLength="146.2959" x="788" y="589.2285">OrganizationRepository</text></g><!--entity Db--><g id="elem_Db"><rect fill="#F1F1F1" height="48.6211" rx="2.5" ry="2.5" style="stroke:#181818;stroke-width:0.5;" width="131.8203" x="827" y="684.1211"/><rect fill="#F1F1F1" height="10" style="stroke:#181818;stroke-width:0.5;" width="15" x="938.8203" y="689.1211"/><rect fill="#F1F1F1" height="2" style="stroke:#181818;stroke-width:0.5;" width="4" x="936.8203" y="691.1211"/><rect fill="#F1F1F1" height="2" style="stroke:#181818;stroke-width:0.5;" width="4" x="936.8203" y="695.1211"/><text fill="#000000" font-family="sans-serif" font-size="14" lengthAdjust="spacing" textLength="91.8203" x="842" y="719.2285">PortDbContext</text></g><!--entity OC--><g id="elem_OC"><rect fill="#F1F1F1" height="48.6211" rx="2.5" ry="2.5" style="stroke:#181818;stroke-width:0.5;" width="202.6543" x="534.5" y="554.1211"/><rect fill="#F1F1F1" height="10" style="stroke:#181818;stroke-width:0.5;" width="15" x="717.1543" y="559.1211"/><rect fill="#F1F1F1" height="2" style="stroke:#181818;stroke-width:0.5;" width="4" x="715.1543" y="561.1211"/><rect fill="#F1F1F1" height="2" style="stroke:#181818;stroke-width:0.5;" width="4" x="715.1543" y="565.1211"/><text fill="#000000" font-family="sans-serif" font-size="14" lengthAdjust="spacing" textLength="162.6543" x="549.5" y="589.2285">OrganizationConfiguration</text></g><!--entity Store--><g id="elem_Store"><path d="M779.5,845.6211 C779.5,835.6211 869.2378,835.6211 869.2378,835.6211 C869.2378,835.6211 958.9756,835.6211 958.9756,845.6211 L958.9756,873.2422 C958.9756,883.2422 869.2378,883.2422 869.2378,883.2422 C869.2378,883.2422 779.5,883.2422 779.5,873.2422 L779.5,845.6211 " fill="#F1F1F1" style="stroke:#181818;stroke-width:0.5;"/><path d="M779.5,845.6211 C779.5,855.6211 869.2378,855.6211 869.2378,855.6211 C869.2378,855.6211 958.9756,855.6211 958.9756,845.6211 " fill="none" style="stroke:#181818;stroke-width:0.5;"/><text fill="#000000" font-family="sans-serif" font-size="14" lengthAdjust="spacing" textLength="159.4756" x="789.5" y="874.7285">EF Core (InMemory/SQL)</text></g><!--entity Organization--><g id="elem_Organization"><rect fill="#F1F1F1" height="48.6211" rx="2.5" ry="2.5" style="stroke:#181818;stroke-width:0.5;" width="119.3789" x="1015.5" y="835.1211"/><rect fill="#F1F1F1" height="10" style="stroke:#181818;stroke-width:0.5;" width="15" x="1114.8789" y="840.1211"/><rect fill="#F1F1F1" height="2" style="stroke:#181818;stroke-width:0.5;" width="4" x="1112.8789" y="842.1211"/><rect fill="#F1F1F1" height="2" style="stroke:#181818;stroke-width:0.5;" width="4" x="1112.8789" y="846.1211"/><text fill="#000000" font-family="sans-serif" font-size="14" lengthAdjust="spacing" textLength="79.3789" x="1030.5" y="870.2285">Organization</text></g><!--entity Representative--><g id="elem_Representative"><rect fill="#F1F1F1" height="48.6211" rx="2.5" ry="2.5" style="stroke:#181818;stroke-width:0.5;" width="134.165" x="1015" y="964.6211"/><rect fill="#F1F1F1" height="10" style="stroke:#181818;stroke-width:0.5;" width="15" x="1129.165" y="969.6211"/><rect fill="#F1F1F1" height="2" style="stroke:#181818;stroke-width:0.5;" width="4" x="1127.165" y="971.6211"/><rect fill="#F1F1F1" height="2" style="stroke:#181818;stroke-width:0.5;" width="4" x="1127.165" y="975.6211"/><text fill="#000000" font-family="sans-serif" font-size="14" lengthAdjust="spacing" textLength="94.165" x="1030" y="999.7285">Representative</text></g><!--entity Officer--><g id="elem_Officer"><ellipse cx="575.9653" cy="53.6211" fill="#F1F1F1" rx="8" ry="8" style="stroke:#181818;stroke-width:0.5;"/><path d="M575.9653,61.6211 L575.9653,88.6211 M562.9653,69.6211 L588.9653,69.6211 M575.9653,88.6211 L562.9653,103.6211 M575.9653,88.6211 L588.9653,103.6211 " fill="none" style="stroke:#181818;stroke-width:0.5;"/><text fill="#000000" font-family="sans-serif" font-size="14" lengthAdjust="spacing" textLength="129.9307" x="511" y="120.2285">Port Authority Officer</text></g><!--link Officer to ApiClient--><g id="link_Officer_ApiClient"><path d="M576,124.4911 C576,155.9311 576,193.2111 576,219.7611 " fill="none" id="Officer-to-ApiClient" style="stroke:#181818;stroke-width:1.0;"/><polygon fill="#181818" points="576,225.7611,580,216.7611,576,220.7611,572,216.7611,576,225.7611" style="stroke:#181818;stroke-width:1.0;"/><text fill="#000000" font-family="sans-serif" font-size="13" lengthAdjust="spacing" textLength="68.6372" x="577" y="169.1494">uses API UI</text></g><!--link ApiClient to C_R--><g id="link_ApiClient_C_R"><path d="M576,275.3111 C576,308.3511 576,361.9111 576,394.9411 " fill="none" id="ApiClient-to-C_R" style="stroke:#181818;stroke-width:1.0;"/><polygon fill="#181818" points="576,400.9411,580,391.9411,576,395.9411,572,391.9411,576,400.9411" style="stroke:#181818;stroke-width:1.0;"/><text fill="#000000" font-family="sans-serif" font-size="13" lengthAdjust="spacing" textLength="33.9409" x="673.4558" y="322.1494">HTTP</text><text fill="#000000" font-family="sans-serif" font-size="13" lengthAdjust="spacing" textLength="226.8525" x="577" y="339.4404">POST / PUT / GET /api/representatives</text></g><!--link C_R to OR--><g id="link_C_R_OR"><path d="M631.68,450.2011 C667.45,465.8611 714.59,487.4411 755,509.1211 C780.74,522.9311 803.6801,536.981 825.1101,550.731 " fill="none" id="C_R-to-OR" style="stroke:#181818;stroke-width:1.0;"/><polygon fill="#181818" points="830.16,553.9711,824.7452,545.7443,825.9517,551.271,820.4251,552.4775,830.16,553.9711" style="stroke:#181818;stroke-width:1.0;"/><text fill="#000000" font-family="sans-serif" font-size="13" lengthAdjust="spacing" textLength="112.7471" x="737" y="497.1494">lookup organization</text></g><!--link C_R to Db--><g id="link_C_R_Db"><path d="M677.15,433.0311 C783.46,442.1411 940.3,463.1611 977,509.1211 C1009.72,550.1011 997.58,578.8811 977,627.1211 C967.17,650.1611 951.8754,666.0637 933.8554,680.1637 " fill="none" id="C_R-to-Db" style="stroke:#181818;stroke-width:1.0;"/><polygon fill="#181818" points="929.13,683.8611,938.683,681.4652,933.0678,680.7799,933.7531,675.1647,929.13,683.8611" style="stroke:#181818;stroke-width:1.0;"/><text fill="#000000" font-family="sans-serif" font-size="13" lengthAdjust="spacing" textLength="177.0425" x="998" y="584.1494">persist representative changes</text></g><!--link OC to Db--><g id="link_OC_Db"><path d="M683.44,603.2511 C729.56,626.2211 793.859,658.2467 840.029,681.2367 " fill="none" id="OC-to-Db" style="stroke:#181818;stroke-width:1.0;"/><polygon fill="#181818" points="845.4,683.9111,839.1265,676.3188,840.9242,681.6824,835.5606,683.4801,845.4,683.9111" style="stroke:#181818;stroke-width:1.0;"/><text fill="#000000" font-family="sans-serif" font-size="13" lengthAdjust="spacing" textLength="113.458" x="780" y="650.1494">configure mappings</text></g><!--link Db to Store--><g id="link_Db_Store"><path d="M889.2,733.2311 C884.68,761.2911 878.1325,801.8872 873.6625,829.6872 " fill="none" id="Db-to-Store" style="stroke:#181818;stroke-width:1.0;"/><polygon fill="#181818" points="872.71,835.6111,878.088,827.3602,873.5038,830.6745,870.1895,826.0902,872.71,835.6111" style="stroke:#181818;stroke-width:1.0;"/><text fill="#000000" font-family="sans-serif" font-size="13" lengthAdjust="spacing" textLength="67.2026" x="884" y="778.1494">persist data</text></g><!--link C_R to UpdateRepresentativeDto--><g id="link_C_R_UpdateRepresentativeDto"><path d="M474.72,443.7611 C407.02,457.0911 316.81,478.5111 241,509.1211 C211.46,521.0511 185.4257,536.1044 162.5957,550.7944 " fill="none" id="C_R-to-UpdateRepresentativeDto" style="stroke:#181818;stroke-width:1.0;stroke-dasharray:7.0,7.0;"/><polygon fill="#181818" points="157.55,554.0411,167.283,552.5349,161.7548,551.3355,162.9541,545.8073,157.55,554.0411" style="stroke:#181818;stroke-width:1.0;"/></g><!--link C_R to RepresentativeResponseDto--><g id="link_C_R_RepresentativeResponseDto"><path d="M543.5,450.2111 C504.54,478.5011 444.4859,522.0968 405.4659,550.4168 " fill="none" id="C_R-to-RepresentativeResponseDto" style="stroke:#181818;stroke-width:1.0;stroke-dasharray:7.0,7.0;"/><polygon fill="#181818" points="400.61,553.9411,410.2433,551.8919,404.6565,551.0042,405.5443,545.4174,400.61,553.9411" style="stroke:#181818;stroke-width:1.0;"/></g><!--link Db to Organization--><g id="link_Db_Organization"><path d="M922.78,733.2011 C934.43,742.4811 947.88,753.2511 960,763.1211 C989.78,787.3711 1018.9691,811.6499 1042.1691,831.0699 " fill="none" id="Db-to-Organization" style="stroke:#181818;stroke-width:1.0;stroke-dasharray:7.0,7.0;"/><polygon fill="#181818" points="1046.77,834.9211,1042.4362,826.077,1042.9359,831.7117,1037.3012,832.2115,1046.77,834.9211" style="stroke:#181818;stroke-width:1.0;"/></g><!--link Db to Representative--><g id="link_Db_Representative"><path d="M959.18,721.0511 C1028.03,734.4411 1128.97,758.8411 1152,790.1211 C1182.97,832.1711 1170.29,858.7111 1152,907.6211 C1143.7,929.8211 1130.5625,945.8318 1115.1325,960.4018 " fill="none" id="Db-to-Representative" style="stroke:#181818;stroke-width:1.0;stroke-dasharray:7.0,7.0;"/><polygon fill="#181818" points="1110.77,964.5211,1120.0599,961.2504,1114.4054,961.0883,1114.5675,955.4338,1110.77,964.5211" style="stroke:#181818;stroke-width:1.0;"/></g><!--link Organization to Representative--><g id="link_Organization_Representative"><path d="M1076.3,884.3011 C1077.56,907.2011 1079.1196,935.7202 1080.3796,958.5702 " fill="none" id="Organization-to-Representative" style="stroke:#181818;stroke-width:1.0;"/><polygon fill="#181818" points="1080.71,964.5611,1084.2084,955.3545,1080.4347,959.5687,1076.2205,955.795,1080.71,964.5611" style="stroke:#181818;stroke-width:1.0;"/><text fill="#000000" font-family="sans-serif" font-size="13" lengthAdjust="spacing" textLength="20.96" x="1079" y="930.6494">has</text><text fill="#000000" font-family="sans-serif" font-size="13" lengthAdjust="spacing" textLength="7.23" x="1068.8025" y="905.6608">1</text><text fill="#000000" font-family="sans-serif" font-size="13" lengthAdjust="spacing" textLength="19.5127" x="1058.9896" y="953.2036">1..*</text></g><!--SRC=[TLDDRvj04BtpAqPS-Y6PA3dqq4Ca2z8MAH7KsCgXjQen6UDLyEvgTwdgLltldLrmmAvpGJ0VxxsPUJZXMeBgO1tj8HFO6Dp335OLt2GtoGTuG8aDmOAq8KlIeHC_oKOHrauPY4jb7CmxjrD6k0CKswseoSI0zlWUHMzWDfj1sWfkXtiyaF61o53jK3RC7azpCVo90BvLDRPeO9N35SpBV6XVU-2v5lrNzFS8_aYRK3MYI_N4m4Dym3mR8bNI6TMsP09i-cCn0iwrRaNDTKfEG3NMptuRyJITBGix4Apq4pewfScSMlzFlY2hbRHzbba7sbnk3LfdkjfrXYundrOCl8LfK8hVGG_pA2luE8SmLR7m1VvCsSOFJB_w9MQRyqRERaNJcV3HzwPSmnFX1YrJtts2LB6gjxbye3qJN5LVxz-5MrVCH-FsChL7SN5nVUQ2x0ixMe-0EGitR3akj05mC1U_tuv-W8_GMRB12Qiy6kE-Yi_B-I_BPVbTbaMrP5-LA__yVCTFrEBAd7dST_ZEmZUsIZrt6jH4yaj1jk42JSOAw-0K1UeTUvp1YdGihOTD4-nHQo4R6t7SfyCU9s1- -Nu7x346RWEjtGdTYqkIMtZ5SY_vLstdOSkUXcJDKlY7QRqEtpMzp35sYXHKzMS-5JPjXVWw3dF5rqdoFZw3u3btQAD_]--></g></svg>