<svg xmlns="http://www.w3.org/2000/svg" xmlns:xlink="http://www.w3.org/1999/xlink" contentStyleType="text/css" height="628px" preserveAspectRatio="none" style="width:1346px;height:628px;background:#FFFFFF;" version="1.1" viewBox="0 0 1346 628" width="1346px" zoomAndPan="magnify"><title>SSD - Search Representatives</title><defs/><g><text fill="#000000" font-family="sans-serif" font-size="14" font-weight="bold" lengthAdjust="spacing" textLength="199.9785" x="574.6326" y="30.1074">SSD - Search Representatives</text><rect fill="#FFFFFF" height="168.7461" style="stroke:#181818;stroke-width:1.0;" width="10" x="744.6309" y="187.8242"/><rect fill="#FFFFFF" height="62.582" style="stroke:#181818;stroke-width:1.0;" width="10" x="1003.606" y="219.1152"/><rect fill="none" height="231.959" style="stroke:#000000;stroke-width:1.5;" width="746.3506" x="431.8335" y="296.6973"/><line style="stroke:#181818;stroke-width:0.5;stroke-dasharray:5.0,5.0;" x1="72" x2="72" y1="123.2422" y2="545.6563"/><line style="stroke:#181818;stroke-width:0.5;stroke-dasharray:5.0,5.0;" x1="479.8335" x2="479.8335" y1="123.2422" y2="545.6563"/><line style="stroke:#181818;stroke-width:0.5;stroke-dasharray:5.0,5.0;" x1="749.0967" x2="749.0967" y1="123.2422" y2="545.6563"/><line style="stroke:#181818;stroke-width:0.5;stroke-dasharray:5.0,5.0;" x1="1008.458" x2="1008.458" y1="123.2422" y2="545.6563"/><line style="stroke:#181818;stroke-width:0.5;stroke-dasharray:5.0,5.0;" x1="1150.7539" x2="1150.7539" y1="123.2422" y2="545.6563"/><line style="stroke:#181818;stroke-width:0.5;stroke-dasharray:5.0,5.0;" x1="1294.9058" x2="1294.9058" y1="123.2422" y2="545.6563"/><text fill="#000000" font-family="sans-serif" font-size="14" lengthAdjust="spacing" textLength="129.9307" x="5" y="119.7285">Port Authority Officer</text><ellipse cx="72.9653" cy="53.1211" fill="#E2E2F0" rx="8" ry="8" style="stroke:#181818;stroke-width:0.5;"/><path d="M72.9653,61.1211 L72.9653,88.1211 M59.9653,69.1211 L85.9653,69.1211 M72.9653,88.1211 L59.9653,103.1211 M72.9653,88.1211 L85.9653,103.1211 " fill="none" style="stroke:#181818;stroke-width:0.5;"/><text fill="#000000" font-family="sans-serif" font-size="14" lengthAdjust="spacing" textLength="129.9307" x="5" y="559.7637">Port Authority Officer</text><ellipse cx="72.9653" cy="571.7773" fill="#E2E2F0" rx="8" ry="8" style="stroke:#181818;stroke-width:0.5;"/><path d="M72.9653,579.7773 L72.9653,606.7773 M59.9653,587.7773 L85.9653,587.7773 M72.9653,606.7773 L59.9653,621.7773 M72.9653,606.7773 L85.9653,621.7773 " fill="none" style="stroke:#181818;stroke-width:0.5;"/><rect fill="#E2E2F0" height="32.6211" rx="2.5" ry="2.5" style="stroke:#181818;stroke-width:0.5;" width="76.248" x="441.8335" y="89.6211"/><text fill="#000000" font-family="sans-serif" font-size="14" lengthAdjust="spacing" textLength="62.248" x="448.8335" y="111.7285">API Client</text><rect fill="#E2E2F0" height="32.6211" rx="2.5" ry="2.5" style="stroke:#181818;stroke-width:0.5;" width="76.248" x="441.8335" y="544.6563"/><text fill="#000000" font-family="sans-serif" font-size="14" lengthAdjust="spacing" textLength="62.248" x="448.8335" y="566.7637">API Client</text><rect fill="#E2E2F0" height="32.6211" rx="2.5" ry="2.5" style="stroke:#181818;stroke-width:0.5;" width="161.0684" x="669.0967" y="89.6211"/><text fill="#000000" font-family="sans-serif" font-size="14" lengthAdjust="spacing" textLength="147.0684" x="676.0967" y="111.7285">OrganizationsController</text><rect fill="#E2E2F0" height="32.6211" rx="2.5" ry="2.5" style="stroke:#181818;stroke-width:0.5;" width="161.0684" x="669.0967" y="544.6563"/><text fill="#000000" font-family="sans-serif" font-size="14" lengthAdjust="spacing" textLength="147.0684" x="676.0967" y="566.7637">OrganizationsController</text><rect fill="#E2E2F0" height="32.6211" rx="2.5" ry="2.5" style="stroke:#181818;stroke-width:0.5;" width="160.2959" x="928.458" y="89.6211"/><text fill="#000000" font-family="sans-serif" font-size="14" lengthAdjust="spacing" textLength="146.2959" x="935.458" y="111.7285">OrganizationRepository</text><rect fill="#E2E2F0" height="32.6211" rx="2.5" ry="2.5" style="stroke:#181818;stroke-width:0.5;" width="160.2959" x="928.458" y="544.6563"/><text fill="#000000" font-family="sans-serif" font-size="14" lengthAdjust="spacing" textLength="146.2959" x="935.458" y="566.7637">OrganizationRepository</text><rect fill="#E2E2F0" height="32.6211" rx="2.5" ry="2.5" style="stroke:#181818;stroke-width:0.5;" width="105.8203" x="1098.7539" y="89.6211"/><text fill="#000000" font-family="sans-serif" font-size="14" lengthAdjust="spacing" textLength="91.8203" x="1105.7539" y="111.7285">PortDbContext</text><rect fill="#E2E2F0" height="32.6211" rx="2.5" ry="2.5" style="stroke:#181818;stroke-width:0.5;" width="105.8203" x="1098.7539" y="544.6563"/><text fill="#000000" font-family="sans-serif" font-size="14" lengthAdjust="spacing" textLength="91.8203" x="1105.7539" y="566.7637">PortDbContext</text><text fill="#000000" font-family="sans-serif" font-size="14" lengthAdjust="spacing" textLength="93.3379" x="1245.9058" y="119.7285">EF (InMemory)</text><path d="M1277.5747,68.6211 C1277.5747,58.6211 1295.5747,58.6211 1295.5747,58.6211 C1295.5747,58.6211 1313.5747,58.6211 1313.5747,68.6211 L1313.5747,94.6211 C1313.5747,104.6211 1295.5747,104.6211 1295.5747,104.6211 C1295.5747,104.6211 1277.5747,104.6211 1277.5747,94.6211 L1277.5747,68.6211 " fill="#E2E2F0" style="stroke:#181818;stroke-width:1.5;"/><path d="M1277.5747,68.6211 C1277.5747,78.6211 1295.5747,78.6211 1295.5747,78.6211 C1295.5747,78.6211 1313.5747,78.6211 1313.5747,68.6211 " fill="none" style="stroke:#181818;stroke-width:1.5;"/><text fill="#000000" font-family="sans-serif" font-size="14" lengthAdjust="spacing" textLength="93.3379" x="1245.9058" y="559.7637">EF (InMemory)</text><path d="M1277.5747,573.2773 C1277.5747,563.2773 1295.5747,563.2773 1295.5747,563.2773 C1295.5747,563.2773 1313.5747,563.2773 1313.5747,573.2773 L1313.5747,599.2773 C1313.5747,609.2773 1295.5747,609.2773 1295.5747,609.2773 C1295.5747,609.2773 1277.5747,609.2773 1277.5747,599.2773 L1277.5747,573.2773 " fill="#E2E2F0" style="stroke:#181818;stroke-width:1.5;"/><path d="M1277.5747,573.2773 C1277.5747,583.2773 1295.5747,583.2773 1295.5747,583.2773 C1295.5747,583.2773 1313.5747,583.2773 1313.5747,573.2773 " fill="none" style="stroke:#181818;stroke-width:1.5;"/><rect fill="#FFFFFF" height="168.7461" style="stroke:#181818;stroke-width:1.0;" width="10" x="744.6309" y="187.8242"/><rect fill="#FFFFFF" height="62.582" style="stroke:#181818;stroke-width:1.0;" width="10" x="1003.606" y="219.1152"/><polygon fill="#181818" points="467.9575,152.5332,477.9575,156.5332,467.9575,160.5332,471.9575,156.5332" style="stroke:#181818;stroke-width:1.0;"/><line style="stroke:#181818;stroke-width:1.0;" x1="72.9653" x2="473.9575" y1="156.5332" y2="156.5332"/><text fill="#000000" font-family="sans-serif" font-size="13" lengthAdjust="spacing" textLength="382.9922" x="79.9653" y="151.2705">GET /api/organizations/{orgId}/representatives?name=...&amp;email=...</text><polygon fill="#181818" points="732.6309,183.8242,742.6309,187.8242,732.6309,191.8242,736.6309,187.8242" style="stroke:#181818;stroke-width:1.0;"/><line style="stroke:#181818;stroke-width:1.0;" x1="479.9575" x2="738.6309" y1="187.8242" y2="187.8242"/><text fill="#000000" font-family="sans-serif" font-size="13" lengthAdjust="spacing" textLength="245.6733" x="486.9575" y="182.5615">GetRepresentatives(orgId, name?, email?)</text><polygon fill="#181818" points="991.606,215.1152,1001.606,219.1152,991.606,223.1152,995.606,219.1152" style="stroke:#181818;stroke-width:1.0;"/><line style="stroke:#181818;stroke-width:1.0;" x1="754.6309" x2="997.606" y1="219.1152" y2="219.1152"/><text fill="#000000" font-family="sans-serif" font-size="13" lengthAdjust="spacing" textLength="120.6563" x="761.6309" y="213.8525">GetByIdAsync(orgId)</text><polygon fill="#181818" points="1283.5747,246.4063,1293.5747,250.4063,1283.5747,254.4063,1287.5747,250.4063" style="stroke:#181818;stroke-width:1.0;"/><line style="stroke:#181818;stroke-width:1.0;" x1="1013.606" x2="1289.5747" y1="250.4063" y2="250.4063"/><text fill="#000000" font-family="sans-serif" font-size="13" lengthAdjust="spacing" textLength="257.9688" x="1020.606" y="245.1436">query Organization.Include(Representatives)</text><polygon fill="#181818" points="1019.606,277.6973,1009.606,281.6973,1019.606,285.6973,1015.606,281.6973" style="stroke:#181818;stroke-width:1.0;"/><line style="stroke:#181818;stroke-width:1.0;stroke-dasharray:2.0,2.0;" x1="1013.606" x2="1294.5747" y1="281.6973" y2="281.6973"/><text fill="#000000" font-family="sans-serif" font-size="13" lengthAdjust="spacing" textLength="104.5459" x="1025.606" y="276.4346">Organization | null</text><path d="M431.8335,296.6973 L492.0044,296.6973 L492.0044,305.9883 L482.0044,315.9883 L431.8335,315.9883 L431.8335,296.6973 " fill="#EEEEEE" style="stroke:#000000;stroke-width:1.5;"/><rect fill="none" height="231.959" style="stroke:#000000;stroke-width:1.5;" width="746.3506" x="431.8335" y="296.6973"/><text fill="#000000" font-family="sans-serif" font-size="13" font-weight="bold" lengthAdjust="spacing" textLength="15.1709" x="446.8335" y="311.7256">alt</text><text fill="#000000" font-family="sans-serif" font-size="11" font-weight="bold" lengthAdjust="spacing" textLength="126.4678" x="507.0044" y="310.5674">[organization not found]</text><polygon fill="#181818" points="490.9575,352.5703,480.9575,356.5703,490.9575,360.5703,486.9575,356.5703" style="stroke:#181818;stroke-width:1.0;"/><line style="stroke:#181818;stroke-width:1.0;stroke-dasharray:2.0,2.0;" x1="484.9575" x2="748.6309" y1="356.5703" y2="356.5703"/><text fill="#000000" font-family="sans-serif" font-size="13" lengthAdjust="spacing" textLength="86.0044" x="496.9575" y="334.0166">404 Not Found</text><text fill="#000000" font-family="sans-serif" font-size="13" lengthAdjust="spacing" textLength="207.1304" x="496.9575" y="351.3076">"Organization with ID '...' not found."</text><line style="stroke:#000000;stroke-width:1.0;stroke-dasharray:2.0,2.0;" x1="431.8335" x2="1178.1841" y1="365.5703" y2="365.5703"/><text fill="#000000" font-family="sans-serif" font-size="11" font-weight="bold" lengthAdjust="spacing" textLength="106.3101" x="436.8335" y="377.4404">[organization found]</text><line style="stroke:#181818;stroke-width:1.0;" x1="749.6309" x2="791.6309" y1="418.2832" y2="418.2832"/><line style="stroke:#181818;stroke-width:1.0;" x1="791.6309" x2="791.6309" y1="418.2832" y2="431.2832"/><line style="stroke:#181818;stroke-width:1.0;" x1="750.6309" x2="791.6309" y1="431.2832" y2="431.2832"/><polygon fill="#181818" points="760.6309,427.2832,750.6309,431.2832,760.6309,435.2832,756.6309,431.2832" style="stroke:#181818;stroke-width:1.0;"/><text fill="#000000" font-family="sans-serif" font-size="13" lengthAdjust="spacing" textLength="122.1099" x="756.6309" y="413.0205">filter Representatives</text><path d="M890.1099,386.2012 L890.1099,447.2012 L1162.1099,447.2012 L1162.1099,396.2012 L1152.1099,386.2012 L890.1099,386.2012 " fill="#FEFFDD" style="stroke:#181818;stroke-width:0.5;"/><path d="M1152.1099,386.2012 L1152.1099,396.2012 L1162.1099,396.2012 L1152.1099,386.2012 " fill="#FEFFDD" style="stroke:#181818;stroke-width:0.5;"/><text fill="#000000" font-family="sans-serif" font-size="13" lengthAdjust="spacing" textLength="199.4053" x="896.1099" y="405.2295">- Name contains (case-insensitive)</text><text fill="#000000" font-family="sans-serif" font-size="13" lengthAdjust="spacing" textLength="197.2344" x="896.1099" y="422.5205">- Email contains (case-insensitive)</text><text fill="#000000" font-family="sans-serif" font-size="13" lengthAdjust="spacing" textLength="251.4434" x="896.1099" y="439.8115">- Optionally filter only active representatives</text><line style="stroke:#181818;stroke-width:1.0;" x1="749.6309" x2="791.6309" y1="476.3652" y2="476.3652"/><line style="stroke:#181818;stroke-width:1.0;" x1="791.6309" x2="791.6309" y1="476.3652" y2="489.3652"/><line style="stroke:#181818;stroke-width:1.0;" x1="750.6309" x2="791.6309" y1="489.3652" y2="489.3652"/><polygon fill="#181818" points="760.6309,485.3652,750.6309,489.3652,760.6309,493.3652,756.6309,489.3652" style="stroke:#181818;stroke-width:1.0;"/><text fill="#000000" font-family="sans-serif" font-size="13" lengthAdjust="spacing" textLength="244.9751" x="756.6309" y="471.1025">map to List&lt;RepresentativeResponseDto&gt;</text><polygon fill="#181818" points="490.9575,516.6563,480.9575,520.6563,490.9575,524.6563,486.9575,520.6563" style="stroke:#181818;stroke-width:1.0;"/><line style="stroke:#181818;stroke-width:1.0;stroke-dasharray:2.0,2.0;" x1="484.9575" x2="748.6309" y1="520.6563" y2="520.6563"/><text fill="#000000" font-family="sans-serif" font-size="13" lengthAdjust="spacing" textLength="231.9624" x="496.9575" y="515.3936">200 OK [RepresentativeResponseDto...]</text><!--SRC=[ZL9DZzCm4BtxLunoO5jfarPeJmYsAaaNHS1crN833cuotLfoxU1C5ih7VsUSfC9fjHAtiVpUcpTlXXHfXCqcWnWsA5svXpNM3Xiq94azOIE4BCawY1wi8rYsjBTEqH6AtKwLw2AGpQaMjNIaIbLBGn0j7t98jMAX3jENOqZX7gLHFxcHDKrg3JchzQ2PFWzbXxPHREhOTr-FeTvejlLo-AFldMr59KbkPOCGhUvWafkFU63-jFlUi1GACKm1yUrW5bx1kzKdcCbQpMneTVQBdtdrP-R6MIsCFE2R94bUu44gxIinI7bHhuTqbk-aaxe6JrrSGqTSJ7tewaaISWuYzUnYtTFV7lDgsHnDsHC39EV088Psyp3wMukE5nKuJt9JwhR2oPc9gUWvyQbHI8BVO5gjHOLXAo4rGPWA64kmiwsf1F2iSHZZpVm6xldxpdz_CQDjmdT5UyWpkEAuhlwf917h13rJWPhtDsePjElptIbDlCBp6mOlY-3Kuvxu0Npjzvmtb7maKfa69YNVHimL6huivam7sChlupzmHUqDIQsF9m_MSDsvvyONVj1KdQVG_47MG1O-g8PUZoTOOrFptM56zlOotPVpEHJluVEp70xswqMOfleB]--></g></svg>