<?xml version="1.0" encoding="us-ascii" standalone="no"?><svg xmlns="http://www.w3.org/2000/svg" xmlns:xlink="http://www.w3.org/1999/xlink" contentStyleType="text/css" height="982px" preserveAspectRatio="none" style="width:523px;height:982px;background:#FFFFFF;" version="1.1" viewBox="0 0 523 982" width="523px" zoomAndPan="magnify"><defs/><g><text fill="#000000" font-family="sans-serif" font-size="14" font-weight="bold" lengthAdjust="spacing" textLength="280" x="114.75" y="24.5332">C4 Container - US 2.2.6 Representatives</text><!--cluster Client Layer--><g id="cluster_Client Layer"><polygon fill="none" points="74,213.1094,84,203.1094,233,203.1094,233,298.1094,223,308.1094,74,308.1094,74,213.1094" style="stroke:#181818;stroke-width:1.0;"/><line style="stroke:#181818;stroke-width:1.0;" x1="223" x2="233" y1="213.1094" y2="203.1094"/><line style="stroke:#181818;stroke-width:1.0;" x1="74" x2="223" y1="213.1094" y2="213.1094"/><line style="stroke:#181818;stroke-width:1.0;" x1="223" x2="223" y1="213.1094" y2="308.1094"/><text fill="#000000" font-family="sans-serif" font-size="14" font-weight="bold" lengthAdjust="spacing" textLength="83" x="108" y="230.6426">Client Layer</text></g><!--cluster Web API--><g id="cluster_Web API"><polygon fill="none" points="42,368.1094,52,358.1094,264,358.1094,264,453.1094,254,463.1094,42,463.1094,42,368.1094" style="stroke:#181818;stroke-width:1.0;"/><line style="stroke:#181818;stroke-width:1.0;" x1="254" x2="264" y1="368.1094" y2="358.1094"/><line style="stroke:#181818;stroke-width:1.0;" x1="42" x2="254" y1="368.1094" y2="368.1094"/><line style="stroke:#181818;stroke-width:1.0;" x1="254" x2="254" y1="368.1094" y2="463.1094"/><text fill="#000000" font-family="sans-serif" font-size="14" font-weight="bold" lengthAdjust="spacing" textLength="57" x="120.5" y="385.6426">Web API</text></g><!--cluster Application Layer--><g id="cluster_Application Layer"><polygon fill="none" points="53,523.1094,63,513.1094,253,513.1094,253,608.1094,243,618.1094,53,618.1094,53,523.1094" style="stroke:#181818;stroke-width:1.0;"/><line style="stroke:#181818;stroke-width:1.0;" x1="243" x2="253" y1="523.1094" y2="513.1094"/><line style="stroke:#181818;stroke-width:1.0;" x1="53" x2="243" y1="523.1094" y2="523.1094"/><line style="stroke:#181818;stroke-width:1.0;" x1="243" x2="243" y1="523.1094" y2="618.1094"/><text fill="#000000" font-family="sans-serif" font-size="14" font-weight="bold" lengthAdjust="spacing" textLength="120" x="89" y="540.6426">Application Layer</text></g><!--cluster Dom--><g id="cluster_Dom"><polygon fill="none" points="16,697.6094,26,687.6094,184,687.6094,184,955.1094,174,965.1094,16,965.1094,16,697.6094" style="stroke:#181818;stroke-width:1.0;"/><line style="stroke:#181818;stroke-width:1.0;" x1="174" x2="184" y1="697.6094" y2="687.6094"/><line style="stroke:#181818;stroke-width:1.0;" x1="16" x2="174" y1="697.6094" y2="697.6094"/><line style="stroke:#181818;stroke-width:1.0;" x1="174" x2="174" y1="697.6094" y2="965.1094"/><text fill="#000000" font-family="sans-serif" font-size="14" font-weight="bold" lengthAdjust="spacing" textLength="52" x="70" y="715.1426">Domain</text></g><!--entity Client--><g id="elem_Client"><rect fill="#F1F1F1" height="47.6094" rx="2.5" ry="2.5" style="stroke:#181818;stroke-width:0.5;" width="125" x="90.5" y="244.1094"/><rect fill="#F1F1F1" height="10" style="stroke:#181818;stroke-width:0.5;" width="15" x="195.5" y="249.1094"/><rect fill="#F1F1F1" height="2" style="stroke:#181818;stroke-width:0.5;" width="4" x="193.5" y="251.1094"/><rect fill="#F1F1F1" height="2" style="stroke:#181818;stroke-width:0.5;" width="4" x="193.5" y="255.1094"/><text fill="#000000" font-family="sans-serif" font-size="14" lengthAdjust="spacing" textLength="85" x="105.5" y="278.6426">UI / API Client</text></g><!--entity Ctl--><g id="elem_Ctl"><rect fill="#F1F1F1" height="47.6094" rx="2.5" ry="2.5" style="stroke:#181818;stroke-width:0.5;" width="189" x="58.5" y="399.1094"/><rect fill="#F1F1F1" height="10" style="stroke:#181818;stroke-width:0.5;" width="15" x="227.5" y="404.1094"/><rect fill="#F1F1F1" height="2" style="stroke:#181818;stroke-width:0.5;" width="4" x="225.5" y="406.1094"/><rect fill="#F1F1F1" height="2" style="stroke:#181818;stroke-width:0.5;" width="4" x="225.5" y="410.1094"/><text fill="#000000" font-family="sans-serif" font-size="14" lengthAdjust="spacing" textLength="149" x="73.5" y="433.6426">OrganizationsController</text></g><!--entity Svc--><g id="elem_Svc"><rect fill="#F1F1F1" height="47.6094" rx="2.5" ry="2.5" style="stroke:#181818;stroke-width:0.5;" width="167" x="69.5" y="554.1094"/><rect fill="#F1F1F1" height="10" style="stroke:#181818;stroke-width:0.5;" width="15" x="216.5" y="559.1094"/><rect fill="#F1F1F1" height="2" style="stroke:#181818;stroke-width:0.5;" width="4" x="214.5" y="561.1094"/><rect fill="#F1F1F1" height="2" style="stroke:#181818;stroke-width:0.5;" width="4" x="214.5" y="565.1094"/><text fill="#000000" font-family="sans-serif" font-size="14" lengthAdjust="spacing" textLength="127" x="84.5" y="588.6426">OrganizationService</text></g><!--entity Org--><g id="elem_Org"><rect fill="#F1F1F1" height="47.6094" rx="2.5" ry="2.5" style="stroke:#181818;stroke-width:0.5;" width="120" x="32" y="901.1094"/><rect fill="#F1F1F1" height="10" style="stroke:#181818;stroke-width:0.5;" width="15" x="132" y="906.1094"/><rect fill="#F1F1F1" height="2" style="stroke:#181818;stroke-width:0.5;" width="4" x="130" y="908.1094"/><rect fill="#F1F1F1" height="2" style="stroke:#181818;stroke-width:0.5;" width="4" x="130" y="912.1094"/><text fill="#000000" font-family="sans-serif" font-size="14" lengthAdjust="spacing" textLength="80" x="47" y="935.6426">Organization</text></g><!--entity Rep--><g id="elem_Rep"><rect fill="#F1F1F1" height="47.6094" rx="2.5" ry="2.5" style="stroke:#181818;stroke-width:0.5;" width="136" x="32" y="728.6094"/><rect fill="#F1F1F1" height="10" style="stroke:#181818;stroke-width:0.5;" width="15" x="148" y="733.6094"/><rect fill="#F1F1F1" height="2" style="stroke:#181818;stroke-width:0.5;" width="4" x="146" y="735.6094"/><rect fill="#F1F1F1" height="2" style="stroke:#181818;stroke-width:0.5;" width="4" x="146" y="739.6094"/><text fill="#000000" font-family="sans-serif" font-size="14" lengthAdjust="spacing" textLength="96" x="47" y="763.1426">Representative</text></g><!--entity Officer--><g id="elem_Officer"><ellipse cx="153" cy="52.6094" fill="#F1F1F1" rx="8" ry="8" style="stroke:#181818;stroke-width:0.5;"/><path d="M153,60.6094 L153,87.6094 M140,68.6094 L166,68.6094 M153,87.6094 L140,102.6094 M153,87.6094 L166,102.6094 " fill="none" style="stroke:#181818;stroke-width:0.5;"/><text fill="#000000" font-family="sans-serif" font-size="14" lengthAdjust="spacing" textLength="86" x="110" y="118.6426">Port Authority</text><text fill="#000000" font-family="sans-serif" font-size="14" lengthAdjust="spacing" textLength="42" x="110" y="136.252">Officer</text></g><!--entity Db--><g id="elem_Db"><path d="M220,739.1094 C220,729.1094 267,729.1094 267,729.1094 C267,729.1094 314,729.1094 314,739.1094 L314,765.7188 C314,775.7188 267,775.7188 267,775.7188 C267,775.7188 220,775.7188 220,765.7188 L220,739.1094 " fill="#F1F1F1" style="stroke:#181818;stroke-width:0.5;"/><path d="M220,739.1094 C220,749.1094 267,749.1094 267,749.1094 C267,749.1094 314,749.1094 314,739.1094 " fill="none" style="stroke:#181818;stroke-width:0.5;"/><text fill="#000000" font-family="sans-serif" font-size="14" lengthAdjust="spacing" textLength="74" x="230" y="767.6426">Persistence</text></g><g id="elem_GMN19"><path d="M349.5,682.1094 L349.5,822.9219 L516.5,822.9219 L516.5,692.1094 L506.5,682.1094 L349.5,682.1094 " fill="#FEFFDD" style="stroke:#181818;stroke-width:0.5;"/><path d="M506.5,682.1094 L506.5,692.1094 L516.5,692.1094 L506.5,682.1094 " fill="#FEFFDD" style="stroke:#181818;stroke-width:1.0;"/><text fill="#000000" font-family="sans-serif" font-size="13" lengthAdjust="spacing" textLength="89" x="355.5" y="700.6045">Representative:</text><text fill="#000000" font-family="sans-serif" font-size="13" lengthAdjust="spacing" textLength="146" x="355.5" y="716.9561">- Linked to 1 organization</text><text fill="#000000" font-family="sans-serif" font-size="13" lengthAdjust="spacing" textLength="100" x="355.5" y="733.3076">- Name (required)</text><text fill="#000000" font-family="sans-serif" font-size="13" lengthAdjust="spacing" textLength="114" x="355.5" y="749.6592">- Citizen ID (unique)</text><text fill="#000000" font-family="sans-serif" font-size="13" lengthAdjust="spacing" textLength="146" x="355.5" y="766.0107">- Nationality (ISO 3166-1)</text><text fill="#000000" font-family="sans-serif" font-size="13" lengthAdjust="spacing" textLength="139" x="355.5" y="782.3623">- Email (unique globally)</text><text fill="#000000" font-family="sans-serif" font-size="13" lengthAdjust="spacing" textLength="102" x="355.5" y="798.7139">- Phone (optional)</text><text fill="#000000" font-family="sans-serif" font-size="13" lengthAdjust="spacing" textLength="83" x="355.5" y="815.0654">- Active status</text></g><!--link Officer to Client--><g id="link_Officer_Client"><path d="M153,139.3694 C153,173.0894 153,211.1794 153,237.7494 " fill="none" id="Officer-to-Client" style="stroke:#181818;stroke-width:1.0;"/><polygon fill="#181818" points="153,243.7494,157,234.7494,153,238.7494,149,234.7494,153,243.7494" style="stroke:#181818;stroke-width:1.0;"/><text fill="#000000" font-family="sans-serif" font-size="13" lengthAdjust="spacing" textLength="137" x="154" y="183.6045">manage representatives</text></g><!--link Client to Ctl--><g id="link_Client_Ctl"><path d="M153,292.3494 C153,321.0994 153,363.7994 153,392.6494 " fill="none" id="Client-to-Ctl" style="stroke:#181818;stroke-width:1.0;"/><polygon fill="#181818" points="153,398.6494,157,389.6494,153,393.6494,149,389.6494,153,398.6494" style="stroke:#181818;stroke-width:1.0;"/><text fill="#000000" font-family="sans-serif" font-size="13" lengthAdjust="spacing" textLength="111" x="154" y="338.6045">POST/PUT/PATCH</text></g><!--link Ctl to Svc--><g id="link_Ctl_Svc"><path d="M153,447.3494 C153,476.0994 153,518.7994 153,547.6494 " fill="none" id="Ctl-to-Svc" style="stroke:#181818;stroke-width:1.0;"/><polygon fill="#181818" points="153,553.6494,157,544.6494,153,548.6494,149,544.6494,153,553.6494" style="stroke:#181818;stroke-width:1.0;"/><text fill="#000000" font-family="sans-serif" font-size="13" lengthAdjust="spacing" textLength="126" x="154" y="493.6045">add/update/deactivate</text></g><!--link Svc to Db--><g id="link_Svc_Db"><path d="M193.97,602.2894 C206.32,610.9394 218.97,621.7094 228,634.1094 C249,662.9594 258.0919,697.8952 262.6419,723.0452 " fill="none" id="Svc-to-Db" style="stroke:#181818;stroke-width:1.0;"/><polygon fill="#181818" points="263.71,728.9494,266.0439,719.381,262.8199,724.0292,258.1717,720.8052,263.71,728.9494" style="stroke:#181818;stroke-width:1.0;"/><text fill="#000000" font-family="sans-serif" font-size="13" lengthAdjust="spacing" textLength="84" x="240" y="648.6045">persist/retrieve</text></g><!--link Svc to Rep--><g id="link_Svc_Rep"><path d="M109.73,602.2094 C98.28,610.6194 87.34,621.2794 81,634.1094 C66.07,664.2994 75.5014,698.1624 86.0314,722.7924 " fill="none" id="Svc-to-Rep" style="stroke:#181818;stroke-width:1.0;stroke-dasharray:7.0,7.0;"/><polygon fill="#181818" points="88.39,728.3094,88.53,718.4615,86.4245,723.7119,81.1741,721.6064,88.39,728.3094" style="stroke:#181818;stroke-width:1.0;"/><text fill="#000000" font-family="sans-serif" font-size="13" lengthAdjust="spacing" textLength="141" x="82" y="648.6045">create/update/deactivate</text></g><!--link Rep to Org--><g id="link_Rep_Org"><path d="M98.9,776.9594 C97.37,809.6094 94.8921,862.546 93.3621,895.046 " fill="none" id="Rep-to-Org" style="stroke:#181818;stroke-width:1.0;"/><polygon fill="#181818" points="93.08,901.0394,97.4988,892.2374,93.3151,896.0449,89.5076,891.8612,93.08,901.0394" style="stroke:#181818;stroke-width:1.0;"/><text fill="#000000" font-family="sans-serif" font-size="13" lengthAdjust="spacing" textLength="93" x="97" y="867.6045">belongs to 1 org</text></g><!--link Rep to GMN19--><g id="link_Rep_GMN19"><path d="M119.86,728.1694 C141.42,703.7594 178.34,667.7794 219.5,652.8594 C259.19,638.4694 274.84,638.3894 314.5,652.8594 C332.44,659.3994 349.54,669.9894 364.89,681.8694 " fill="none" id="Rep-GMN19" style="stroke:#181818;stroke-width:1.0;stroke-dasharray:7.0,7.0;"/></g><!--SRC=[PLBFQzim5BxhhtZab1uSasxaq4F1E8K6ocBcXXss7MJxnH5J95UI3UdO_xxt9BTRsuD1VB_qlYS75JH2-HbAQu9K1XraSAZXUdMzsi1N71nw92Qe2RqGiWtMmQAoBa0nXfDrAbn-cFtng5fq2v0UvhCGndO8Yr8hyiE3l33_Mm1yF-mWXwBQGU9-iYiTnPyNspTiM38xzgwNHZtJ5DPudjHPhT4bPz3_RCKmQDL6tPih_m-eqKqqOJJNKylcJWRPI4y15JglV43JOcopRURahJtJUX9cpnzJOnm1ZBzTMsG8uelcvK2MtSwLuGREqiWUmRrRzin7QT2ag_RrOruTw2iUotl189FKWKZPTVauK17CEwHdKXCT1NEisJOa6LAtt65m2gV4hbQtF1pHhKDsVmnXcaEe7SaQrDRq7eA5DLWgJ0iADBtgJm7iCJQ5Tt_E3I4PF2Zp2xjNu-lg8lb5dX6M3fz6vR2xYbYfWdf60xijB4UZdaQychLiavh-FLZkwZryMcyssJgHT_HE-aKFlRQDrFgIkEfa3TrYX-HFOC4z4JoDEdg1fWCk9Fu2]--></g></svg>