<?xml version="1.0" encoding="us-ascii" standalone="no"?><svg xmlns="http://www.w3.org/2000/svg" xmlns:xlink="http://www.w3.org/1999/xlink" contentStyleType="text/css" height="476px" preserveAspectRatio="none" style="width:1581px;height:476px;background:#FFFFFF;" version="1.1" viewBox="0 0 1581 476" width="1581px" zoomAndPan="magnify"><defs/><g><text fill="#000000" font-family="sans-serif" font-size="14" font-weight="bold" lengthAdjust="spacing" textLength="317" x="633.25" y="29.5332">SSD - Search Vessels (IMO / Name / Operator)</text><rect fill="#FFFFFF" height="192.8125" style="stroke:#181818;stroke-width:1.0;" width="10" x="731" y="183.9219"/><line style="stroke:#181818;stroke-width:0.5;stroke-dasharray:5.0,5.0;" x1="74" x2="74" y1="121.2188" y2="394.7344"/><line style="stroke:#181818;stroke-width:0.5;stroke-dasharray:5.0,5.0;" x1="380.5" x2="380.5" y1="121.2188" y2="394.7344"/><line style="stroke:#181818;stroke-width:0.5;stroke-dasharray:5.0,5.0;" x1="735.5" x2="735.5" y1="121.2188" y2="394.7344"/><line style="stroke:#181818;stroke-width:0.5;stroke-dasharray:5.0,5.0;" x1="1050" x2="1050" y1="121.2188" y2="394.7344"/><line style="stroke:#181818;stroke-width:0.5;stroke-dasharray:5.0,5.0;" x1="1162" x2="1162" y1="121.2188" y2="394.7344"/><text fill="#000000" font-family="sans-serif" font-size="14" lengthAdjust="spacing" textLength="132" x="5" y="118.1426">Port Authority Officer</text><ellipse cx="74" cy="52.1094" fill="#E2E2F0" rx="8" ry="8" style="stroke:#181818;stroke-width:0.5;"/><path d="M74,60.1094 L74,87.1094 M61,68.1094 L87,68.1094 M74,87.1094 L61,102.1094 M74,87.1094 L87,102.1094 " fill="none" style="stroke:#181818;stroke-width:0.5;"/><text fill="#000000" font-family="sans-serif" font-size="14" lengthAdjust="spacing" textLength="132" x="5" y="408.2676">Port Authority Officer</text><ellipse cx="74" cy="419.8438" fill="#E2E2F0" rx="8" ry="8" style="stroke:#181818;stroke-width:0.5;"/><path d="M74,427.8438 L74,454.8438 M61,435.8438 L87,435.8438 M74,454.8438 L61,469.8438 M74,454.8438 L87,469.8438 " fill="none" style="stroke:#181818;stroke-width:0.5;"/><rect fill="#E2E2F0" height="31.6094" rx="2.5" ry="2.5" style="stroke:#181818;stroke-width:0.5;" width="127" x="317.5" y="88.6094"/><text fill="#000000" font-family="sans-serif" font-size="14" lengthAdjust="spacing" textLength="113" x="324.5" y="110.1426">Scalar / API Client</text><rect fill="#E2E2F0" height="31.6094" rx="2.5" ry="2.5" style="stroke:#181818;stroke-width:0.5;" width="127" x="317.5" y="393.7344"/><text fill="#000000" font-family="sans-serif" font-size="14" lengthAdjust="spacing" textLength="113" x="324.5" y="415.2676">Scalar / API Client</text><rect fill="#E2E2F0" height="31.6094" rx="2.5" ry="2.5" style="stroke:#181818;stroke-width:0.5;" width="125" x="673.5" y="88.6094"/><text fill="#000000" font-family="sans-serif" font-size="14" lengthAdjust="spacing" textLength="111" x="680.5" y="110.1426">VesselsController</text><rect fill="#E2E2F0" height="31.6094" rx="2.5" ry="2.5" style="stroke:#181818;stroke-width:0.5;" width="125" x="673.5" y="393.7344"/><text fill="#000000" font-family="sans-serif" font-size="14" lengthAdjust="spacing" textLength="111" x="680.5" y="415.2676">VesselsController</text><rect fill="#E2E2F0" height="31.6094" rx="2.5" ry="2.5" style="stroke:#181818;stroke-width:0.5;" width="106" x="997" y="88.6094"/><text fill="#000000" font-family="sans-serif" font-size="14" lengthAdjust="spacing" textLength="92" x="1004" y="110.1426">PortDbContext</text><rect fill="#E2E2F0" height="31.6094" rx="2.5" ry="2.5" style="stroke:#181818;stroke-width:0.5;" width="106" x="997" y="393.7344"/><text fill="#000000" font-family="sans-serif" font-size="14" lengthAdjust="spacing" textLength="92" x="1004" y="415.2676">PortDbContext</text><text fill="#000000" font-family="sans-serif" font-size="14" lengthAdjust="spacing" textLength="93" x="1113" y="118.1426">EF (InMemory)</text><path d="M1144.5,67.6094 C1144.5,57.6094 1162.5,57.6094 1162.5,57.6094 C1162.5,57.6094 1180.5,57.6094 1180.5,67.6094 L1180.5,93.6094 C1180.5,103.6094 1162.5,103.6094 1162.5,103.6094 C1162.5,103.6094 1144.5,103.6094 1144.5,93.6094 L1144.5,67.6094 " fill="#E2E2F0" style="stroke:#181818;stroke-width:1.5;"/><path d="M1144.5,67.6094 C1144.5,77.6094 1162.5,77.6094 1162.5,77.6094 C1162.5,77.6094 1180.5,77.6094 1180.5,67.6094 " fill="none" style="stroke:#181818;stroke-width:1.5;"/><text fill="#000000" font-family="sans-serif" font-size="14" lengthAdjust="spacing" textLength="93" x="1113" y="408.2676">EF (InMemory)</text><path d="M1144.5,421.3438 C1144.5,411.3438 1162.5,411.3438 1162.5,411.3438 C1162.5,411.3438 1180.5,411.3438 1180.5,421.3438 L1180.5,447.3438 C1180.5,457.3438 1162.5,457.3438 1162.5,457.3438 C1162.5,457.3438 1144.5,457.3438 1144.5,447.3438 L1144.5,421.3438 " fill="#E2E2F0" style="stroke:#181818;stroke-width:1.5;"/><path d="M1144.5,421.3438 C1144.5,431.3438 1162.5,431.3438 1162.5,431.3438 C1162.5,431.3438 1180.5,431.3438 1180.5,421.3438 " fill="none" style="stroke:#181818;stroke-width:1.5;"/><rect fill="#FFFFFF" height="192.8125" style="stroke:#181818;stroke-width:1.0;" width="10" x="731" y="183.9219"/><polygon fill="#181818" points="369,149.5703,379,153.5703,369,157.5703,373,153.5703" style="stroke:#181818;stroke-width:1.0;"/><line style="stroke:#181818;stroke-width:1.0;" x1="74" x2="375" y1="153.5703" y2="153.5703"/><text fill="#000000" font-family="sans-serif" font-size="13" lengthAdjust="spacing" textLength="283" x="81" y="148.7139">GET /api/vessels?imo=...&amp;name=...&amp;operator=...</text><polygon fill="#181818" points="719,179.9219,729,183.9219,719,187.9219,723,183.9219" style="stroke:#181818;stroke-width:1.0;"/><line style="stroke:#181818;stroke-width:1.0;" x1="381" x2="725" y1="183.9219" y2="183.9219"/><text fill="#000000" font-family="sans-serif" font-size="13" lengthAdjust="spacing" textLength="331" x="388" y="179.0654">Search(imo?, name?, operator?, typeId?, organizationId?)</text><polygon fill="#181818" points="1038,210.2734,1048,214.2734,1038,218.2734,1042,214.2734" style="stroke:#181818;stroke-width:1.0;"/><line style="stroke:#181818;stroke-width:1.0;" x1="741" x2="1044" y1="214.2734" y2="214.2734"/><text fill="#000000" font-family="sans-serif" font-size="13" lengthAdjust="spacing" textLength="285" x="748" y="209.417">query Vessels.Include(VesselType, Organization)</text><polygon fill="#181818" points="1150.5,276.3281,1160.5,280.3281,1150.5,284.3281,1154.5,280.3281" style="stroke:#181818;stroke-width:1.0;"/><line style="stroke:#181818;stroke-width:1.0;" x1="1050" x2="1156.5" y1="280.3281" y2="280.3281"/><text fill="#000000" font-family="sans-serif" font-size="13" lengthAdjust="spacing" textLength="70" x="1057" y="275.4717">apply filters:</text><path d="M1167,227.2734 L1167,318.2734 L1574,318.2734 L1574,237.2734 L1564,227.2734 L1167,227.2734 " fill="#FEFFDD" style="stroke:#181818;stroke-width:0.5;"/><path d="M1564,227.2734 L1564,237.2734 L1574,237.2734 L1564,227.2734 " fill="#FEFFDD" style="stroke:#181818;stroke-width:0.5;"/><text fill="#000000" font-family="sans-serif" font-size="13" lengthAdjust="spacing" textLength="287" x="1173" y="245.7686">- if (imo) where ImoNumber == NormalizeImo(imo)</text><text fill="#000000" font-family="sans-serif" font-size="13" lengthAdjust="spacing" textLength="196" x="1173" y="262.1201">- if (name) where v.Name contains</text><text fill="#000000" font-family="sans-serif" font-size="13" lengthAdjust="spacing" textLength="288" x="1173" y="278.4717">- if (operator) where v.Organization.Name contains</text><text fill="#000000" font-family="sans-serif" font-size="13" lengthAdjust="spacing" textLength="249" x="1173" y="294.8232">- if (typeId) where v.VesselTypeId == typeId</text><text fill="#000000" font-family="sans-serif" font-size="13" lengthAdjust="spacing" textLength="386" x="1173" y="311.1748">- if (organizationId) where v.OrganizationId.Value == Guid.Parse(...)</text><polygon fill="#181818" points="1061,342.3828,1051,346.3828,1061,350.3828,1057,346.3828" style="stroke:#181818;stroke-width:1.0;"/><line style="stroke:#181818;stroke-width:1.0;stroke-dasharray:2.0,2.0;" x1="1055" x2="1161.5" y1="346.3828" y2="346.3828"/><text fill="#000000" font-family="sans-serif" font-size="13" lengthAdjust="spacing" textLength="17" x="1067" y="341.5264">list</text><polygon fill="#181818" points="392,372.7344,382,376.7344,392,380.7344,388,376.7344" style="stroke:#181818;stroke-width:1.0;"/><line style="stroke:#181818;stroke-width:1.0;stroke-dasharray:2.0,2.0;" x1="386" x2="735" y1="376.7344" y2="376.7344"/><text fill="#000000" font-family="sans-serif" font-size="13" lengthAdjust="spacing" textLength="186" x="398" y="371.8779">200 OK [VesselResponseDto...]</text><!--SRC=[RL91Rjim4Bpp5GiV2Wk8vQ3706uGM6aW5B6CAicbw64bhMC25AcIb5lbzLsA4cm3EP5SpipE3kcbLmHbcS4AIa9R7-6Dd2FbO9a_5x267RR4Iz6HHMzi8WJMlC9YRwo7XzuVZPL-WE9ma3NP1Q23LqTMT6Yzh6M7siEYh56XPPs7VGvR9Kdx4HctrzZ9mDPeRurIa-Rs6XIwPrN0qByebLMYGOyLEeB5utVshv-fDNP8nkkIJPCGmHgilasDuGwU7bzWZPrSdsBRUzcQJPgcNpGFFcxCD7euY8aN59WS8riovVu60e6N6SvRFtIKDw5ctr7B3_JIQ2ua8KDvGayybjW6jQnYkJyzsM5-W3JNjUeRMiRp2slTG74Xb0WcCNMSZDdOTMg0WrIUhBiJsh2ybUz7BrOW3n1S9l3tI0pEMxFhsugZs6nWPsoBIduGLqVGX0_pp8HJElw3clD6gTs4c4SzeoxzVKg9aPm9v-7o9fY9zxF-LMoVTycRz0rLJu7yrCictQDrjEItIWJf1a8C8aQqcdDMqlaG- -K_-7fx2yKF-1KD_IJN6UqeyuQLVek6pY_s7m00]--></g></svg>