<?xml version="1.0" encoding="us-ascii" standalone="no"?><svg xmlns="http://www.w3.org/2000/svg" xmlns:xlink="http://www.w3.org/1999/xlink" contentStyleType="text/css" height="880px" preserveAspectRatio="none" style="width:1626px;height:880px;background:#FFFFFF;" version="1.1" viewBox="0 0 1626 880" width="1626px" zoomAndPan="magnify"><defs/><g><text fill="#000000" font-family="sans-serif" font-size="14" font-weight="bold" lengthAdjust="spacing" textLength="213" x="707.5" y="29.5332">SSD - Register Vessel (Create)</text><rect fill="#FFFFFF" height="132.7578" style="stroke:#181818;stroke-width:1.0;" width="10" x="706" y="200.2734"/><rect fill="none" height="505.8125" style="stroke:#000000;stroke-width:1.5;" width="1209.5" x="409.5" y="275.9766"/><line style="stroke:#181818;stroke-width:0.5;stroke-dasharray:5.0,5.0;" x1="74" x2="74" y1="121.2188" y2="798.7891"/><line style="stroke:#181818;stroke-width:0.5;stroke-dasharray:5.0,5.0;" x1="482.5" x2="482.5" y1="121.2188" y2="798.7891"/><line style="stroke:#181818;stroke-width:0.5;stroke-dasharray:5.0,5.0;" x1="710.5" x2="710.5" y1="121.2188" y2="798.7891"/><line style="stroke:#181818;stroke-width:0.5;stroke-dasharray:5.0,5.0;" x1="1319" x2="1319" y1="121.2188" y2="798.7891"/><line style="stroke:#181818;stroke-width:0.5;stroke-dasharray:5.0,5.0;" x1="1441" x2="1441" y1="121.2188" y2="798.7891"/><line style="stroke:#181818;stroke-width:0.5;stroke-dasharray:5.0,5.0;" x1="1559" x2="1559" y1="121.2188" y2="798.7891"/><text fill="#000000" font-family="sans-serif" font-size="14" lengthAdjust="spacing" textLength="132" x="5" y="118.1426">Port Authority Officer</text><ellipse cx="74" cy="52.1094" fill="#E2E2F0" rx="8" ry="8" style="stroke:#181818;stroke-width:0.5;"/><path d="M74,60.1094 L74,87.1094 M61,68.1094 L87,68.1094 M74,87.1094 L61,102.1094 M74,87.1094 L87,102.1094 " fill="none" style="stroke:#181818;stroke-width:0.5;"/><text fill="#000000" font-family="sans-serif" font-size="14" lengthAdjust="spacing" textLength="132" x="5" y="812.3223">Port Authority Officer</text><ellipse cx="74" cy="823.8984" fill="#E2E2F0" rx="8" ry="8" style="stroke:#181818;stroke-width:0.5;"/><path d="M74,831.8984 L74,858.8984 M61,839.8984 L87,839.8984 M74,858.8984 L61,873.8984 M74,858.8984 L87,873.8984 " fill="none" style="stroke:#181818;stroke-width:0.5;"/><rect fill="#E2E2F0" height="31.6094" rx="2.5" ry="2.5" style="stroke:#181818;stroke-width:0.5;" width="127" x="419.5" y="88.6094"/><text fill="#000000" font-family="sans-serif" font-size="14" lengthAdjust="spacing" textLength="113" x="426.5" y="110.1426">Scalar / API Client</text><rect fill="#E2E2F0" height="31.6094" rx="2.5" ry="2.5" style="stroke:#181818;stroke-width:0.5;" width="127" x="419.5" y="797.7891"/><text fill="#000000" font-family="sans-serif" font-size="14" lengthAdjust="spacing" textLength="113" x="426.5" y="819.3223">Scalar / API Client</text><rect fill="#E2E2F0" height="31.6094" rx="2.5" ry="2.5" style="stroke:#181818;stroke-width:0.5;" width="125" x="648.5" y="88.6094"/><text fill="#000000" font-family="sans-serif" font-size="14" lengthAdjust="spacing" textLength="111" x="655.5" y="110.1426">VesselsController</text><rect fill="#E2E2F0" height="31.6094" rx="2.5" ry="2.5" style="stroke:#181818;stroke-width:0.5;" width="125" x="648.5" y="797.7891"/><text fill="#000000" font-family="sans-serif" font-size="14" lengthAdjust="spacing" textLength="111" x="655.5" y="819.3223">VesselsController</text><rect fill="#E2E2F0" height="31.6094" rx="2.5" ry="2.5" style="stroke:#181818;stroke-width:0.5;" width="106" x="1266" y="88.6094"/><text fill="#000000" font-family="sans-serif" font-size="14" lengthAdjust="spacing" textLength="92" x="1273" y="110.1426">PortDbContext</text><rect fill="#E2E2F0" height="31.6094" rx="2.5" ry="2.5" style="stroke:#181818;stroke-width:0.5;" width="106" x="1266" y="797.7891"/><text fill="#000000" font-family="sans-serif" font-size="14" lengthAdjust="spacing" textLength="92" x="1273" y="819.3223">PortDbContext</text><rect fill="#E2E2F0" height="31.6094" rx="2.5" ry="2.5" style="stroke:#181818;stroke-width:0.5;" width="118" x="1382" y="88.6094"/><text fill="#000000" font-family="sans-serif" font-size="14" lengthAdjust="spacing" textLength="104" x="1389" y="110.1426">Vessel (Domain)</text><rect fill="#E2E2F0" height="31.6094" rx="2.5" ry="2.5" style="stroke:#181818;stroke-width:0.5;" width="118" x="1382" y="797.7891"/><text fill="#000000" font-family="sans-serif" font-size="14" lengthAdjust="spacing" textLength="104" x="1389" y="819.3223">Vessel (Domain)</text><text fill="#000000" font-family="sans-serif" font-size="14" lengthAdjust="spacing" textLength="93" x="1510" y="118.1426">EF (InMemory)</text><path d="M1541.5,67.6094 C1541.5,57.6094 1559.5,57.6094 1559.5,57.6094 C1559.5,57.6094 1577.5,57.6094 1577.5,67.6094 L1577.5,93.6094 C1577.5,103.6094 1559.5,103.6094 1559.5,103.6094 C1559.5,103.6094 1541.5,103.6094 1541.5,93.6094 L1541.5,67.6094 " fill="#E2E2F0" style="stroke:#181818;stroke-width:1.5;"/><path d="M1541.5,67.6094 C1541.5,77.6094 1559.5,77.6094 1559.5,77.6094 C1559.5,77.6094 1577.5,77.6094 1577.5,67.6094 " fill="none" style="stroke:#181818;stroke-width:1.5;"/><text fill="#000000" font-family="sans-serif" font-size="14" lengthAdjust="spacing" textLength="93" x="1510" y="812.3223">EF (InMemory)</text><path d="M1541.5,825.3984 C1541.5,815.3984 1559.5,815.3984 1559.5,815.3984 C1559.5,815.3984 1577.5,815.3984 1577.5,825.3984 L1577.5,851.3984 C1577.5,861.3984 1559.5,861.3984 1559.5,861.3984 C1559.5,861.3984 1541.5,861.3984 1541.5,851.3984 L1541.5,825.3984 " fill="#E2E2F0" style="stroke:#181818;stroke-width:1.5;"/><path d="M1541.5,825.3984 C1541.5,835.3984 1559.5,835.3984 1559.5,835.3984 C1559.5,835.3984 1577.5,835.3984 1577.5,825.3984 " fill="none" style="stroke:#181818;stroke-width:1.5;"/><rect fill="#FFFFFF" height="132.7578" style="stroke:#181818;stroke-width:1.0;" width="10" x="706" y="200.2734"/><polygon fill="#181818" points="471,165.9219,481,169.9219,471,173.9219,475,169.9219" style="stroke:#181818;stroke-width:1.0;"/><line style="stroke:#181818;stroke-width:1.0;" x1="74" x2="477" y1="169.9219" y2="169.9219"/><text fill="#000000" font-family="sans-serif" font-size="13" lengthAdjust="spacing" textLength="107" x="81" y="148.7139">POST /api/vessels</text><text fill="#000000" font-family="sans-serif" font-size="13" lengthAdjust="spacing" textLength="385" x="81" y="165.0654">{ ImoNumber, Name, VesselTypeId, OrganizationId, CapacityTEU }</text><polygon fill="#181818" points="694,196.2734,704,200.2734,694,204.2734,698,200.2734" style="stroke:#181818;stroke-width:1.0;"/><line style="stroke:#181818;stroke-width:1.0;" x1="483" x2="700" y1="200.2734" y2="200.2734"/><text fill="#000000" font-family="sans-serif" font-size="13" lengthAdjust="spacing" textLength="64" x="490" y="195.417">Create(dto)</text><polygon fill="#181818" points="1429,226.625,1439,230.625,1429,234.625,1433,230.625" style="stroke:#181818;stroke-width:1.0;"/><line style="stroke:#181818;stroke-width:1.0;" x1="716" x2="1435" y1="230.625" y2="230.625"/><text fill="#000000" font-family="sans-serif" font-size="13" lengthAdjust="spacing" textLength="156" x="723" y="225.7686">IsValidImo(dto.ImoNumber)</text><polygon fill="#181818" points="727,256.9766,717,260.9766,727,264.9766,723,260.9766" style="stroke:#181818;stroke-width:1.0;"/><line style="stroke:#181818;stroke-width:1.0;stroke-dasharray:2.0,2.0;" x1="721" x2="1440" y1="260.9766" y2="260.9766"/><text fill="#000000" font-family="sans-serif" font-size="13" lengthAdjust="spacing" textLength="53" x="733" y="256.1201">true/false</text><path d="M409.5,275.9766 L470.5,275.9766 L470.5,284.3281 L460.5,294.3281 L409.5,294.3281 L409.5,275.9766 " fill="#EEEEEE" style="stroke:#000000;stroke-width:1.5;"/><rect fill="none" height="505.8125" style="stroke:#000000;stroke-width:1.5;" width="1209.5" x="409.5" y="275.9766"/><text fill="#000000" font-family="sans-serif" font-size="13" font-weight="bold" lengthAdjust="spacing" textLength="16" x="424.5" y="290.4717">alt</text><text fill="#000000" font-family="sans-serif" font-size="11" font-weight="bold" lengthAdjust="spacing" textLength="67" x="485.5" y="289.3955">[invalid IMO]</text><polygon fill="#181818" points="494,329.0313,484,333.0313,494,337.0313,490,333.0313" style="stroke:#181818;stroke-width:1.0;"/><line style="stroke:#181818;stroke-width:1.0;stroke-dasharray:2.0,2.0;" x1="488" x2="710" y1="333.0313" y2="333.0313"/><text fill="#000000" font-family="sans-serif" font-size="13" lengthAdjust="spacing" textLength="100" x="500" y="311.8232">400 Bad Request</text><text fill="#000000" font-family="sans-serif" font-size="13" lengthAdjust="spacing" textLength="85" x="500" y="328.1748">"Invalid IMO..."</text><line style="stroke:#000000;stroke-width:1.0;stroke-dasharray:2.0,2.0;" x1="409.5" x2="1619" y1="342.0313" y2="342.0313"/><text fill="#000000" font-family="sans-serif" font-size="11" font-weight="bold" lengthAdjust="spacing" textLength="57" x="414.5" y="353.4502">[valid IMO]</text><polygon fill="#181818" points="1307,375.2188,1317,379.2188,1307,383.2188,1311,379.2188" style="stroke:#181818;stroke-width:1.0;"/><line style="stroke:#181818;stroke-width:1.0;" x1="711" x2="1313" y1="379.2188" y2="379.2188"/><text fill="#000000" font-family="sans-serif" font-size="13" lengthAdjust="spacing" textLength="422" x="718" y="374.3623">AnyAsync(Vessels where ImoNumber == NormalizeImo(dto.ImoNumber))</text><polygon fill="#181818" points="1547.5,405.5703,1557.5,409.5703,1547.5,413.5703,1551.5,409.5703" style="stroke:#181818;stroke-width:1.0;"/><line style="stroke:#181818;stroke-width:1.0;" x1="1319" x2="1553.5" y1="409.5703" y2="409.5703"/><text fill="#000000" font-family="sans-serif" font-size="13" lengthAdjust="spacing" textLength="32" x="1326" y="404.7139">query</text><polygon fill="#181818" points="1330,435.9219,1320,439.9219,1330,443.9219,1326,439.9219" style="stroke:#181818;stroke-width:1.0;"/><line style="stroke:#181818;stroke-width:1.0;stroke-dasharray:2.0,2.0;" x1="1324" x2="1558.5" y1="439.9219" y2="439.9219"/><text fill="#000000" font-family="sans-serif" font-size="13" lengthAdjust="spacing" textLength="27" x="1336" y="435.0654">false</text><polygon fill="#181818" points="1307,466.2734,1317,470.2734,1307,474.2734,1311,470.2734" style="stroke:#181818;stroke-width:1.0;"/><line style="stroke:#181818;stroke-width:1.0;" x1="711" x2="1313" y1="470.2734" y2="470.2734"/><text fill="#000000" font-family="sans-serif" font-size="13" lengthAdjust="spacing" textLength="387" x="718" y="465.417">AnyAsync(VesselTypes where VesselTypeId == dto.VesselTypeId)</text><polygon fill="#181818" points="1547.5,496.625,1557.5,500.625,1547.5,504.625,1551.5,500.625" style="stroke:#181818;stroke-width:1.0;"/><line style="stroke:#181818;stroke-width:1.0;" x1="1319" x2="1553.5" y1="500.625" y2="500.625"/><text fill="#000000" font-family="sans-serif" font-size="13" lengthAdjust="spacing" textLength="32" x="1326" y="495.7686">query</text><polygon fill="#181818" points="1330,526.9766,1320,530.9766,1330,534.9766,1326,530.9766" style="stroke:#181818;stroke-width:1.0;"/><line style="stroke:#181818;stroke-width:1.0;stroke-dasharray:2.0,2.0;" x1="1324" x2="1558.5" y1="530.9766" y2="530.9766"/><text fill="#000000" font-family="sans-serif" font-size="13" lengthAdjust="spacing" textLength="22" x="1336" y="526.1201">true</text><polygon fill="#181818" points="1307,557.3281,1317,561.3281,1307,565.3281,1311,561.3281" style="stroke:#181818;stroke-width:1.0;"/><line style="stroke:#181818;stroke-width:1.0;" x1="711" x2="1313" y1="561.3281" y2="561.3281"/><text fill="#000000" font-family="sans-serif" font-size="13" lengthAdjust="spacing" textLength="512" x="718" y="556.4717">AnyAsync(Organizations where OrganizationId.Value == Guid.Parse(dto.OrganizationId))</text><polygon fill="#181818" points="1547.5,587.6797,1557.5,591.6797,1547.5,595.6797,1551.5,591.6797" style="stroke:#181818;stroke-width:1.0;"/><line style="stroke:#181818;stroke-width:1.0;" x1="1319" x2="1553.5" y1="591.6797" y2="591.6797"/><text fill="#000000" font-family="sans-serif" font-size="13" lengthAdjust="spacing" textLength="32" x="1326" y="586.8232">query</text><polygon fill="#181818" points="1330,618.0313,1320,622.0313,1330,626.0313,1326,622.0313" style="stroke:#181818;stroke-width:1.0;"/><line style="stroke:#181818;stroke-width:1.0;stroke-dasharray:2.0,2.0;" x1="1324" x2="1558.5" y1="622.0313" y2="622.0313"/><text fill="#000000" font-family="sans-serif" font-size="13" lengthAdjust="spacing" textLength="22" x="1336" y="617.1748">true</text><polygon fill="#181818" points="1307,648.3828,1317,652.3828,1307,656.3828,1311,652.3828" style="stroke:#181818;stroke-width:1.0;"/><line style="stroke:#181818;stroke-width:1.0;" x1="711" x2="1313" y1="652.3828" y2="652.3828"/><text fill="#000000" font-family="sans-serif" font-size="13" lengthAdjust="spacing" textLength="584" x="718" y="647.5264">Add(new Vessel(normImo, dto.Name, dto.VesselTypeId, new OrganizationId(guid), dto.CapacityTEU))</text><polygon fill="#181818" points="1307,678.7344,1317,682.7344,1307,686.7344,1311,682.7344" style="stroke:#181818;stroke-width:1.0;"/><line style="stroke:#181818;stroke-width:1.0;" x1="711" x2="1313" y1="682.7344" y2="682.7344"/><text fill="#000000" font-family="sans-serif" font-size="13" lengthAdjust="spacing" textLength="124" x="718" y="677.8779">SaveChangesAsync()</text><polygon fill="#181818" points="1547.5,709.0859,1557.5,713.0859,1547.5,717.0859,1551.5,713.0859" style="stroke:#181818;stroke-width:1.0;"/><line style="stroke:#181818;stroke-width:1.0;" x1="1319" x2="1553.5" y1="713.0859" y2="713.0859"/><text fill="#000000" font-family="sans-serif" font-size="13" lengthAdjust="spacing" textLength="32" x="1326" y="708.2295">insert</text><polygon fill="#181818" points="1330,739.4375,1320,743.4375,1330,747.4375,1326,743.4375" style="stroke:#181818;stroke-width:1.0;"/><line style="stroke:#181818;stroke-width:1.0;stroke-dasharray:2.0,2.0;" x1="1324" x2="1558.5" y1="743.4375" y2="743.4375"/><text fill="#000000" font-family="sans-serif" font-size="13" lengthAdjust="spacing" textLength="14" x="1336" y="738.5811">ok</text><polygon fill="#181818" points="494,769.7891,484,773.7891,494,777.7891,490,773.7891" style="stroke:#181818;stroke-width:1.0;"/><line style="stroke:#181818;stroke-width:1.0;stroke-dasharray:2.0,2.0;" x1="488" x2="710" y1="773.7891" y2="773.7891"/><text fill="#000000" font-family="sans-serif" font-size="13" lengthAdjust="spacing" textLength="204" x="500" y="768.9326">201 Created + VesselResponseDto</text><!--SRC=[fLDDRvj04BtlhnXn0jN6RjLJfLHo8QqunBPY9wTSnZ2sLuLTkhiu9LN_UsSDYN7SLfLwO-7j-vh1ILSIh5OfZE6MTj8wCd1Frb89OM887KL2OEwqWM2fZODPu_RQIDV2OhkLEPa0qCAT9IDgD4xciaRb85ZbMAA12SoM6IIb9EMEoExn7Di9saGhPtHPzfp9ESYhfnkFeUyTLRhv7Gs4gQvGggZ3Y08TRj0I1DUV8SpK3LNQjDtN5USY8Rnx67_ilS47M2vMQvXWBIU7pjg3-W5PfUTDjI4pWZbMDEfxMhSrPSK85cQ7IZwXarhvSu8rvjpJ-leEVegUseimVzTiM3WT-NBbWK-SLoGUa38Wi_TOoe8bFIX-aOu4JwedSQQXoHPBIm9B1r8T_1N8RXO2630U1de_dS8dB7Z6tngoxa45sGaUnt70LmeQME7C1Ay8sTg6kMQgdTbMvM4_DdZSaw5JFN1r1NDjAhxyH9S98YPZ7cOxji-4RCcq_BOxZvzrkcX_a_RLFyiFX-4TUD7Xkt-MzRN-GNKuucVTyx77FBQ6lFwNHXRn4eqzZZa-XqN_uwOeGaMFVU1GSTDSxkWOkDlBrz57uF7d3i8T-uiwx61JZyPEMYiyKB97jIFRDN3fMoh-UTobSVrLNAxXk-dRVlSBUDCdk2LRSvsKEdsnXAhu1G00]--></g></svg>