<?xml version="1.0" encoding="us-ascii" standalone="no"?><svg xmlns="http://www.w3.org/2000/svg" xmlns:xlink="http://www.w3.org/1999/xlink" contentStyleType="text/css" height="816px" preserveAspectRatio="none" style="width:1353px;height:816px;background:#FFFFFF;" version="1.1" viewBox="0 0 1353 816" width="1353px" zoomAndPan="magnify"><defs/><g><text fill="#000000" font-family="sans-serif" font-size="14" font-weight="bold" lengthAdjust="spacing" textLength="142" x="606.5" y="29.5332">SSD - Update Vessel</text><rect fill="#FFFFFF" height="146.7578" style="stroke:#181818;stroke-width:1.0;" width="10" x="606" y="200.2734"/><rect fill="none" height="411.4063" style="stroke:#000000;stroke-width:1.5;" width="1010.5" x="335.5" y="306.3281"/><line style="stroke:#181818;stroke-width:0.5;stroke-dasharray:5.0,5.0;" x1="74" x2="74" y1="121.2188" y2="734.7344"/><line style="stroke:#181818;stroke-width:0.5;stroke-dasharray:5.0,5.0;" x1="408.5" x2="408.5" y1="121.2188" y2="734.7344"/><line style="stroke:#181818;stroke-width:0.5;stroke-dasharray:5.0,5.0;" x1="610.5" x2="610.5" y1="121.2188" y2="734.7344"/><line style="stroke:#181818;stroke-width:0.5;stroke-dasharray:5.0,5.0;" x1="1174" x2="1174" y1="121.2188" y2="734.7344"/><line style="stroke:#181818;stroke-width:0.5;stroke-dasharray:5.0,5.0;" x1="1286" x2="1286" y1="121.2188" y2="734.7344"/><text fill="#000000" font-family="sans-serif" font-size="14" lengthAdjust="spacing" textLength="132" x="5" y="118.1426">Port Authority Officer</text><ellipse cx="74" cy="52.1094" fill="#E2E2F0" rx="8" ry="8" style="stroke:#181818;stroke-width:0.5;"/><path d="M74,60.1094 L74,87.1094 M61,68.1094 L87,68.1094 M74,87.1094 L61,102.1094 M74,87.1094 L87,102.1094 " fill="none" style="stroke:#181818;stroke-width:0.5;"/><text fill="#000000" font-family="sans-serif" font-size="14" lengthAdjust="spacing" textLength="132" x="5" y="748.2676">Port Authority Officer</text><ellipse cx="74" cy="759.8438" fill="#E2E2F0" rx="8" ry="8" style="stroke:#181818;stroke-width:0.5;"/><path d="M74,767.8438 L74,794.8438 M61,775.8438 L87,775.8438 M74,794.8438 L61,809.8438 M74,794.8438 L87,809.8438 " fill="none" style="stroke:#181818;stroke-width:0.5;"/><rect fill="#E2E2F0" height="31.6094" rx="2.5" ry="2.5" style="stroke:#181818;stroke-width:0.5;" width="127" x="345.5" y="88.6094"/><text fill="#000000" font-family="sans-serif" font-size="14" lengthAdjust="spacing" textLength="113" x="352.5" y="110.1426">Scalar / API Client</text><rect fill="#E2E2F0" height="31.6094" rx="2.5" ry="2.5" style="stroke:#181818;stroke-width:0.5;" width="127" x="345.5" y="733.7344"/><text fill="#000000" font-family="sans-serif" font-size="14" lengthAdjust="spacing" textLength="113" x="352.5" y="755.2676">Scalar / API Client</text><rect fill="#E2E2F0" height="31.6094" rx="2.5" ry="2.5" style="stroke:#181818;stroke-width:0.5;" width="125" x="548.5" y="88.6094"/><text fill="#000000" font-family="sans-serif" font-size="14" lengthAdjust="spacing" textLength="111" x="555.5" y="110.1426">VesselsController</text><rect fill="#E2E2F0" height="31.6094" rx="2.5" ry="2.5" style="stroke:#181818;stroke-width:0.5;" width="125" x="548.5" y="733.7344"/><text fill="#000000" font-family="sans-serif" font-size="14" lengthAdjust="spacing" textLength="111" x="555.5" y="755.2676">VesselsController</text><rect fill="#E2E2F0" height="31.6094" rx="2.5" ry="2.5" style="stroke:#181818;stroke-width:0.5;" width="106" x="1121" y="88.6094"/><text fill="#000000" font-family="sans-serif" font-size="14" lengthAdjust="spacing" textLength="92" x="1128" y="110.1426">PortDbContext</text><rect fill="#E2E2F0" height="31.6094" rx="2.5" ry="2.5" style="stroke:#181818;stroke-width:0.5;" width="106" x="1121" y="733.7344"/><text fill="#000000" font-family="sans-serif" font-size="14" lengthAdjust="spacing" textLength="92" x="1128" y="755.2676">PortDbContext</text><text fill="#000000" font-family="sans-serif" font-size="14" lengthAdjust="spacing" textLength="93" x="1237" y="118.1426">EF (InMemory)</text><path d="M1268.5,67.6094 C1268.5,57.6094 1286.5,57.6094 1286.5,57.6094 C1286.5,57.6094 1304.5,57.6094 1304.5,67.6094 L1304.5,93.6094 C1304.5,103.6094 1286.5,103.6094 1286.5,103.6094 C1286.5,103.6094 1268.5,103.6094 1268.5,93.6094 L1268.5,67.6094 " fill="#E2E2F0" style="stroke:#181818;stroke-width:1.5;"/><path d="M1268.5,67.6094 C1268.5,77.6094 1286.5,77.6094 1286.5,77.6094 C1286.5,77.6094 1304.5,77.6094 1304.5,67.6094 " fill="none" style="stroke:#181818;stroke-width:1.5;"/><text fill="#000000" font-family="sans-serif" font-size="14" lengthAdjust="spacing" textLength="93" x="1237" y="748.2676">EF (InMemory)</text><path d="M1268.5,761.3438 C1268.5,751.3438 1286.5,751.3438 1286.5,751.3438 C1286.5,751.3438 1304.5,751.3438 1304.5,761.3438 L1304.5,787.3438 C1304.5,797.3438 1286.5,797.3438 1286.5,797.3438 C1286.5,797.3438 1268.5,797.3438 1268.5,787.3438 L1268.5,761.3438 " fill="#E2E2F0" style="stroke:#181818;stroke-width:1.5;"/><path d="M1268.5,761.3438 C1268.5,771.3438 1286.5,771.3438 1286.5,771.3438 C1286.5,771.3438 1304.5,771.3438 1304.5,761.3438 " fill="none" style="stroke:#181818;stroke-width:1.5;"/><rect fill="#FFFFFF" height="146.7578" style="stroke:#181818;stroke-width:1.0;" width="10" x="606" y="200.2734"/><polygon fill="#181818" points="397,165.9219,407,169.9219,397,173.9219,401,169.9219" style="stroke:#181818;stroke-width:1.0;"/><line style="stroke:#181818;stroke-width:1.0;" x1="74" x2="403" y1="169.9219" y2="169.9219"/><text fill="#000000" font-family="sans-serif" font-size="13" lengthAdjust="spacing" textLength="130" x="81" y="148.7139">PUT /api/vessels/{imo}</text><text fill="#000000" font-family="sans-serif" font-size="13" lengthAdjust="spacing" textLength="311" x="81" y="165.0654">{ Name, VesselTypeId, OrganizationId, CapacityTEU }</text><polygon fill="#181818" points="594,196.2734,604,200.2734,594,204.2734,598,200.2734" style="stroke:#181818;stroke-width:1.0;"/><line style="stroke:#181818;stroke-width:1.0;" x1="409" x2="600" y1="200.2734" y2="200.2734"/><text fill="#000000" font-family="sans-serif" font-size="13" lengthAdjust="spacing" textLength="96" x="416" y="195.417">Update(imo, dto)</text><polygon fill="#181818" points="1162,226.625,1172,230.625,1162,234.625,1166,230.625" style="stroke:#181818;stroke-width:1.0;"/><line style="stroke:#181818;stroke-width:1.0;" x1="616" x2="1168" y1="230.625" y2="230.625"/><text fill="#000000" font-family="sans-serif" font-size="13" lengthAdjust="spacing" textLength="412" x="623" y="225.7686">FirstOrDefaultAsync(Vessels where ImoNumber == NormalizeImo(imo))</text><polygon fill="#181818" points="1274.5,256.9766,1284.5,260.9766,1274.5,264.9766,1278.5,260.9766" style="stroke:#181818;stroke-width:1.0;"/><line style="stroke:#181818;stroke-width:1.0;" x1="1174" x2="1280.5" y1="260.9766" y2="260.9766"/><text fill="#000000" font-family="sans-serif" font-size="13" lengthAdjust="spacing" textLength="32" x="1181" y="256.1201">query</text><polygon fill="#181818" points="1185,287.3281,1175,291.3281,1185,295.3281,1181,291.3281" style="stroke:#181818;stroke-width:1.0;"/><line style="stroke:#181818;stroke-width:1.0;stroke-dasharray:2.0,2.0;" x1="1179" x2="1285.5" y1="291.3281" y2="291.3281"/><text fill="#000000" font-family="sans-serif" font-size="13" lengthAdjust="spacing" textLength="71" x="1191" y="286.4717">Vessel | null</text><path d="M335.5,306.3281 L396.5,306.3281 L396.5,314.6797 L386.5,324.6797 L335.5,324.6797 L335.5,306.3281 " fill="#EEEEEE" style="stroke:#000000;stroke-width:1.5;"/><rect fill="none" height="411.4063" style="stroke:#000000;stroke-width:1.5;" width="1010.5" x="335.5" y="306.3281"/><text fill="#000000" font-family="sans-serif" font-size="13" font-weight="bold" lengthAdjust="spacing" textLength="16" x="350.5" y="320.8232">alt</text><text fill="#000000" font-family="sans-serif" font-size="11" font-weight="bold" lengthAdjust="spacing" textLength="61" x="411.5" y="319.7471">[not found]</text><polygon fill="#181818" points="420,343.0313,410,347.0313,420,351.0313,416,347.0313" style="stroke:#181818;stroke-width:1.0;"/><line style="stroke:#181818;stroke-width:1.0;stroke-dasharray:2.0,2.0;" x1="414" x2="610" y1="347.0313" y2="347.0313"/><text fill="#000000" font-family="sans-serif" font-size="13" lengthAdjust="spacing" textLength="85" x="426" y="342.1748">404 Not Found</text><line style="stroke:#000000;stroke-width:1.0;stroke-dasharray:2.0,2.0;" x1="335.5" x2="1346" y1="356.0313" y2="356.0313"/><text fill="#000000" font-family="sans-serif" font-size="11" font-weight="bold" lengthAdjust="spacing" textLength="40" x="340.5" y="367.4502">[found]</text><polygon fill="#181818" points="1162,389.2188,1172,393.2188,1162,397.2188,1166,393.2188" style="stroke:#181818;stroke-width:1.0;"/><line style="stroke:#181818;stroke-width:1.0;" x1="611" x2="1168" y1="393.2188" y2="393.2188"/><text fill="#000000" font-family="sans-serif" font-size="13" lengthAdjust="spacing" textLength="387" x="618" y="388.3623">AnyAsync(VesselTypes where VesselTypeId == dto.VesselTypeId)</text><polygon fill="#181818" points="1274.5,419.5703,1284.5,423.5703,1274.5,427.5703,1278.5,423.5703" style="stroke:#181818;stroke-width:1.0;"/><line style="stroke:#181818;stroke-width:1.0;" x1="1174" x2="1280.5" y1="423.5703" y2="423.5703"/><text fill="#000000" font-family="sans-serif" font-size="13" lengthAdjust="spacing" textLength="32" x="1181" y="418.7139">query</text><polygon fill="#181818" points="1185,449.9219,1175,453.9219,1185,457.9219,1181,453.9219" style="stroke:#181818;stroke-width:1.0;"/><line style="stroke:#181818;stroke-width:1.0;stroke-dasharray:2.0,2.0;" x1="1179" x2="1285.5" y1="453.9219" y2="453.9219"/><text fill="#000000" font-family="sans-serif" font-size="13" lengthAdjust="spacing" textLength="22" x="1191" y="449.0654">true</text><polygon fill="#181818" points="1162,480.2734,1172,484.2734,1162,488.2734,1166,484.2734" style="stroke:#181818;stroke-width:1.0;"/><line style="stroke:#181818;stroke-width:1.0;" x1="611" x2="1168" y1="484.2734" y2="484.2734"/><text fill="#000000" font-family="sans-serif" font-size="13" lengthAdjust="spacing" textLength="512" x="618" y="479.417">AnyAsync(Organizations where OrganizationId.Value == Guid.Parse(dto.OrganizationId))</text><polygon fill="#181818" points="1274.5,510.625,1284.5,514.625,1274.5,518.625,1278.5,514.625" style="stroke:#181818;stroke-width:1.0;"/><line style="stroke:#181818;stroke-width:1.0;" x1="1174" x2="1280.5" y1="514.625" y2="514.625"/><text fill="#000000" font-family="sans-serif" font-size="13" lengthAdjust="spacing" textLength="32" x="1181" y="509.7686">query</text><polygon fill="#181818" points="1185,540.9766,1175,544.9766,1185,548.9766,1181,544.9766" style="stroke:#181818;stroke-width:1.0;"/><line style="stroke:#181818;stroke-width:1.0;stroke-dasharray:2.0,2.0;" x1="1179" x2="1285.5" y1="544.9766" y2="544.9766"/><text fill="#000000" font-family="sans-serif" font-size="13" lengthAdjust="spacing" textLength="22" x="1191" y="540.1201">true</text><line style="stroke:#181818;stroke-width:1.0;" x1="611" x2="653" y1="575.3281" y2="575.3281"/><line style="stroke:#181818;stroke-width:1.0;" x1="653" x2="653" y1="575.3281" y2="588.3281"/><line style="stroke:#181818;stroke-width:1.0;" x1="612" x2="653" y1="588.3281" y2="588.3281"/><polygon fill="#181818" points="622,584.3281,612,588.3281,622,592.3281,618,588.3281" style="stroke:#181818;stroke-width:1.0;"/><text fill="#000000" font-family="sans-serif" font-size="13" lengthAdjust="spacing" textLength="549" x="618" y="570.4717">vessel.UpdateBasics(dto.Name, dto.VesselTypeId, new OrganizationId(guid), dto.CapacityTEU)</text><polygon fill="#181818" points="1162,614.6797,1172,618.6797,1162,622.6797,1166,618.6797" style="stroke:#181818;stroke-width:1.0;"/><line style="stroke:#181818;stroke-width:1.0;" x1="611" x2="1168" y1="618.6797" y2="618.6797"/><text fill="#000000" font-family="sans-serif" font-size="13" lengthAdjust="spacing" textLength="124" x="618" y="613.8232">SaveChangesAsync()</text><polygon fill="#181818" points="1274.5,645.0313,1284.5,649.0313,1274.5,653.0313,1278.5,649.0313" style="stroke:#181818;stroke-width:1.0;"/><line style="stroke:#181818;stroke-width:1.0;" x1="1174" x2="1280.5" y1="649.0313" y2="649.0313"/><text fill="#000000" font-family="sans-serif" font-size="13" lengthAdjust="spacing" textLength="39" x="1181" y="644.1748">update</text><polygon fill="#181818" points="1185,675.3828,1175,679.3828,1185,683.3828,1181,679.3828" style="stroke:#181818;stroke-width:1.0;"/><line style="stroke:#181818;stroke-width:1.0;stroke-dasharray:2.0,2.0;" x1="1179" x2="1285.5" y1="679.3828" y2="679.3828"/><text fill="#000000" font-family="sans-serif" font-size="13" lengthAdjust="spacing" textLength="14" x="1191" y="674.5264">ok</text><polygon fill="#181818" points="420,705.7344,410,709.7344,420,713.7344,416,709.7344" style="stroke:#181818;stroke-width:1.0;"/><line style="stroke:#181818;stroke-width:1.0;stroke-dasharray:2.0,2.0;" x1="414" x2="610" y1="709.7344" y2="709.7344"/><text fill="#000000" font-family="sans-serif" font-size="13" lengthAdjust="spacing" textLength="178" x="426" y="704.8779">200 OK + VesselResponseDto</text><!--SRC=[dL9DRzem6BxxLxpYb6XyQUffKYUnf4ne6g01FUto9da1guwTsGvTslM_pyP1Ig2dtfBuoVDfowqWs6nI6C6kAj0IF98n91Z3t2eDWxNI5cQrFIhDRGEh_Pxdf0U01dQ6DAjGMvxp2gM5mIP7WHecC5il816Sf3qZmsCV6tHCegJLIeYMC-c3l7gQUGpz3LHfnfnDpD0G31xc42taJogLRkBpySQP9iQyDHXzRONX2wntMvXWnIUd83jvvQLw-orVOOab3TlKswQYHJ64bJwWv2zekPB-FS4ASnT_-x23DzQIUdh776gB7DqG2gjYNnm_-IOJnXAFIZC7ctDjx4gdjCTQs9bfP1wr5S3paJJ1ebJBkioSyVjxM2fTek0lvBvwxZXcZiQHdGCwlZyrwOQ5jz559132Fv2ry1CA2r9PsAjQ5WoStL6taxlfdTEnC6-F2-fOTxwe-sEhC9DDrxilxEA_Mw6FuCeOTx_5ZkYz301NAQoktOJlgdQ7kUZsnne_egZ9wt-lUJ5UepOKUIjzMFmnDtxmS8F6OVTlQ7XkpWBX8bsd7eAavokFqS5PYmEsSxNYNkODdYWveZoG2Tbl7TTd2xUMrHExNVlpT0gh7_2ftUaNcSfrIAbLDzFBuZy0]--></g></svg>