<?xml version="1.0" encoding="us-ascii" standalone="no"?><svg xmlns="http://www.w3.org/2000/svg" xmlns:xlink="http://www.w3.org/1999/xlink" contentStyleType="text/css" height="1077px" preserveAspectRatio="none" style="width:1400px;height:1077px;background:#FFFFFF;" version="1.1" viewBox="0 0 1400 1077" width="1400px" zoomAndPan="magnify"><defs/><g><text fill="#000000" font-family="sans-serif" font-size="14" font-weight="bold" lengthAdjust="spacing" textLength="413" x="486.75" y="24.5332">Class Diagram - US 2.2.2 Register &amp; Update Vessel Records</text><!--class Vessel--><g id="elem_Vessel"><rect codeLine="4" fill="#F1F1F1" height="259.3125" id="Vessel" rx="2.5" ry="2.5" style="stroke:#181818;stroke-width:0.5;" width="741" x="324" y="811.6094"/><ellipse cx="669.25" cy="827.6094" fill="#ADD1B2" rx="11" ry="11" style="stroke:#181818;stroke-width:1.0;"/><path d="M672.0156,823.4844 Q672.1719,823.2656 672.3594,823.1563 Q672.5469,823.0469 672.7656,823.0469 Q673.1406,823.0469 673.375,823.3125 Q673.6094,823.5625 673.6094,824.1719 L673.6094,825.625 Q673.6094,826.2344 673.375,826.5 Q673.1406,826.7656 672.7656,826.7656 Q672.4219,826.7656 672.2188,826.5625 Q672.0156,826.375 671.9063,825.8594 Q671.8594,825.5 671.6719,825.3125 Q671.3438,824.9375 670.7344,824.7188 Q670.125,824.5 669.5,824.5 Q668.7344,824.5 668.0938,824.8281 Q667.4688,825.1563 666.9688,825.9063 Q666.4844,826.6563 666.4844,827.6875 L666.4844,828.7813 Q666.4844,830.0156 667.375,830.8438 Q668.2656,831.6563 669.8594,831.6563 Q670.7969,831.6563 671.4531,831.4063 Q671.8438,831.25 672.2656,830.8125 Q672.5313,830.5469 672.6719,830.4688 Q672.8281,830.3906 673.0313,830.3906 Q673.3594,830.3906 673.6094,830.6563 Q673.875,830.9063 673.875,831.25 Q673.875,831.5938 673.5313,832 Q673.0313,832.5781 672.2344,832.9063 Q671.1563,833.3594 669.8594,833.3594 Q668.3438,833.3594 667.1406,832.7344 Q666.1563,832.2344 665.4688,831.1719 Q664.7813,830.0938 664.7813,828.8125 L664.7813,827.6563 Q664.7813,826.3281 665.3906,825.1875 Q666.0156,824.0313 667.1094,823.4219 Q668.2031,822.7969 669.4375,822.7969 Q670.1719,822.7969 670.8125,822.9688 Q671.4688,823.125 672.0156,823.4844 Z " fill="#000000"/><text fill="#000000" font-family="sans-serif" font-size="14" lengthAdjust="spacing" textLength="42" x="689.75" y="833.3379">Vessel</text><line style="stroke:#181818;stroke-width:0.5;" x1="325" x2="1064" y1="843.6094" y2="843.6094"/><ellipse cx="335" cy="857.9141" fill="none" rx="3" ry="3" style="stroke:#038048;stroke-width:1.0;"/><text fill="#000000" font-family="sans-serif" font-size="14" lengthAdjust="spacing" textLength="110" x="344" y="862.1426">string ImoNumber</text><ellipse cx="335" cy="875.5234" fill="none" rx="3" ry="3" style="stroke:#038048;stroke-width:1.0;"/><text fill="#000000" font-family="sans-serif" font-size="14" lengthAdjust="spacing" textLength="75" x="344" y="879.752">string Name</text><ellipse cx="335" cy="893.1328" fill="none" rx="3" ry="3" style="stroke:#038048;stroke-width:1.0;"/><text fill="#000000" font-family="sans-serif" font-size="14" lengthAdjust="spacing" textLength="109" x="344" y="897.3613">int? CapacityTEU</text><ellipse cx="335" cy="910.7422" fill="none" rx="3" ry="3" style="stroke:#038048;stroke-width:1.0;"/><text fill="#000000" font-family="sans-serif" font-size="14" lengthAdjust="spacing" textLength="124" x="344" y="914.9707">string VesselTypeId</text><ellipse cx="335" cy="928.3516" fill="none" rx="3" ry="3" style="stroke:#038048;stroke-width:1.0;"/><text fill="#000000" font-family="sans-serif" font-size="14" lengthAdjust="spacing" textLength="160" x="344" y="932.5801">VesselType? VesselType</text><ellipse cx="335" cy="945.9609" fill="none" rx="3" ry="3" style="stroke:#038048;stroke-width:1.0;"/><text fill="#000000" font-family="sans-serif" font-size="14" lengthAdjust="spacing" textLength="186" x="344" y="950.1895">OrganizationId OrganizationId</text><ellipse cx="335" cy="963.5703" fill="none" rx="3" ry="3" style="stroke:#038048;stroke-width:1.0;"/><text fill="#000000" font-family="sans-serif" font-size="14" lengthAdjust="spacing" textLength="172" x="344" y="967.7988">Organization? Organization</text><ellipse cx="335" cy="981.1797" fill="none" rx="3" ry="3" style="stroke:#038048;stroke-width:1.0;"/><text fill="#000000" font-family="sans-serif" font-size="14" lengthAdjust="spacing" textLength="366" x="344" y="985.4082">ICollection&lt;VesselVisitNotification&gt; VesselVisitNotifications</text><line style="stroke:#181818;stroke-width:1.0;" x1="325" x2="1064" y1="992.4844" y2="992.4844"/><ellipse cx="335" cy="1006.7891" fill="#84BE84" rx="3" ry="3" style="stroke:#038048;stroke-width:1.0;"/><text fill="#000000" font-family="sans-serif" font-size="14" lengthAdjust="spacing" textLength="715" x="344" y="1011.0176">Vessel(string imoNumber, string name, string vesselTypeId, OrganizationId organizationId, int? capacityTeu = null)</text><ellipse cx="335" cy="1024.3984" fill="#84BE84" rx="3" ry="3" style="stroke:#038048;stroke-width:1.0;"/><text fill="#000000" font-family="sans-serif" font-size="14" lengthAdjust="spacing" textLength="641" x="344" y="1028.627">UpdateBasics(string name, string vesselTypeId, OrganizationId organizationId, int? capacityTeu) : void</text><ellipse cx="335" cy="1042.0078" fill="#84BE84" rx="3" ry="3" style="stroke:#038048;stroke-width:1.0;"/><text fill="#000000" font-family="sans-serif" font-size="14" lengthAdjust="spacing" textLength="210" x="344" y="1046.2363">static IsValidImo(string imo) : bool</text><ellipse cx="335" cy="1059.6172" fill="#84BE84" rx="3" ry="3" style="stroke:#038048;stroke-width:1.0;"/><text fill="#000000" font-family="sans-serif" font-size="14" lengthAdjust="spacing" textLength="238" x="344" y="1063.8457">static NormalizeImo(string imo) : string</text></g><!--class VesselType--><g id="elem_VesselType"><rect codeLine="20" fill="#F1F1F1" height="259.3125" id="VesselType" rx="2.5" ry="2.5" style="stroke:#181818;stroke-width:0.5;" width="904" x="242.5" y="474.6094"/><ellipse cx="653.25" cy="490.6094" fill="#ADD1B2" rx="11" ry="11" style="stroke:#181818;stroke-width:1.0;"/><path d="M656.0156,486.4844 Q656.1719,486.2656 656.3594,486.1563 Q656.5469,486.0469 656.7656,486.0469 Q657.1406,486.0469 657.375,486.3125 Q657.6094,486.5625 657.6094,487.1719 L657.6094,488.625 Q657.6094,489.2344 657.375,489.5 Q657.1406,489.7656 656.7656,489.7656 Q656.4219,489.7656 656.2188,489.5625 Q656.0156,489.375 655.9063,488.8594 Q655.8594,488.5 655.6719,488.3125 Q655.3438,487.9375 654.7344,487.7188 Q654.125,487.5 653.5,487.5 Q652.7344,487.5 652.0938,487.8281 Q651.4688,488.1563 650.9688,488.9063 Q650.4844,489.6563 650.4844,490.6875 L650.4844,491.7813 Q650.4844,493.0156 651.375,493.8438 Q652.2656,494.6563 653.8594,494.6563 Q654.7969,494.6563 655.4531,494.4063 Q655.8438,494.25 656.2656,493.8125 Q656.5313,493.5469 656.6719,493.4688 Q656.8281,493.3906 657.0313,493.3906 Q657.3594,493.3906 657.6094,493.6563 Q657.875,493.9063 657.875,494.25 Q657.875,494.5938 657.5313,495 Q657.0313,495.5781 656.2344,495.9063 Q655.1563,496.3594 653.8594,496.3594 Q652.3438,496.3594 651.1406,495.7344 Q650.1563,495.2344 649.4688,494.1719 Q648.7813,493.0938 648.7813,491.8125 L648.7813,490.6563 Q648.7813,489.3281 649.3906,488.1875 Q650.0156,487.0313 651.1094,486.4219 Q652.2031,485.7969 653.4375,485.7969 Q654.1719,485.7969 654.8125,485.9688 Q655.4688,486.125 656.0156,486.4844 Z " fill="#000000"/><text fill="#000000" font-family="sans-serif" font-size="14" lengthAdjust="spacing" textLength="74" x="673.75" y="496.3379">VesselType</text><line style="stroke:#181818;stroke-width:0.5;" x1="243.5" x2="1145.5" y1="506.6094" y2="506.6094"/><ellipse cx="253.5" cy="520.9141" fill="none" rx="3" ry="3" style="stroke:#038048;stroke-width:1.0;"/><text fill="#000000" font-family="sans-serif" font-size="14" lengthAdjust="spacing" textLength="124" x="262.5" y="525.1426">string VesselTypeId</text><ellipse cx="253.5" cy="538.5234" fill="none" rx="3" ry="3" style="stroke:#038048;stroke-width:1.0;"/><text fill="#000000" font-family="sans-serif" font-size="14" lengthAdjust="spacing" textLength="75" x="262.5" y="542.752">string Name</text><ellipse cx="253.5" cy="556.1328" fill="none" rx="3" ry="3" style="stroke:#038048;stroke-width:1.0;"/><text fill="#000000" font-family="sans-serif" font-size="14" lengthAdjust="spacing" textLength="118" x="262.5" y="560.3613">string? Description</text><ellipse cx="253.5" cy="573.7422" fill="none" rx="3" ry="3" style="stroke:#038048;stroke-width:1.0;"/><text fill="#000000" font-family="sans-serif" font-size="14" lengthAdjust="spacing" textLength="109" x="262.5" y="577.9707">int? CapacityTEU</text><ellipse cx="253.5" cy="591.3516" fill="none" rx="3" ry="3" style="stroke:#038048;stroke-width:1.0;"/><text fill="#000000" font-family="sans-serif" font-size="14" lengthAdjust="spacing" textLength="86" x="262.5" y="595.5801">int? MaxRows</text><ellipse cx="253.5" cy="608.9609" fill="none" rx="3" ry="3" style="stroke:#038048;stroke-width:1.0;"/><text fill="#000000" font-family="sans-serif" font-size="14" lengthAdjust="spacing" textLength="83" x="262.5" y="613.1895">int? MaxBays</text><ellipse cx="253.5" cy="626.5703" fill="none" rx="3" ry="3" style="stroke:#038048;stroke-width:1.0;"/><text fill="#000000" font-family="sans-serif" font-size="14" lengthAdjust="spacing" textLength="84" x="262.5" y="630.7988">int? MaxTiers</text><ellipse cx="253.5" cy="644.1797" fill="none" rx="3" ry="3" style="stroke:#038048;stroke-width:1.0;"/><text fill="#000000" font-family="sans-serif" font-size="14" lengthAdjust="spacing" textLength="193" x="262.5" y="648.4082">string? OperationalConstraints</text><ellipse cx="253.5" cy="661.7891" fill="none" rx="3" ry="3" style="stroke:#038048;stroke-width:1.0;"/><text fill="#000000" font-family="sans-serif" font-size="14" lengthAdjust="spacing" textLength="176" x="262.5" y="666.0176">ICollection&lt;Vessel&gt; Vessels</text><ellipse cx="253.5" cy="679.3984" fill="none" rx="3" ry="3" style="stroke:#038048;stroke-width:1.0;"/><text fill="#000000" font-family="sans-serif" font-size="14" lengthAdjust="spacing" textLength="204" x="262.5" y="683.627">ICollection&lt;Dock&gt; AllowedDocks</text><line style="stroke:#181818;stroke-width:1.0;" x1="243.5" x2="1145.5" y1="690.7031" y2="690.7031"/><ellipse cx="253.5" cy="705.0078" fill="#84BE84" rx="3" ry="3" style="stroke:#038048;stroke-width:1.0;"/><text fill="#000000" font-family="sans-serif" font-size="14" lengthAdjust="spacing" textLength="216" x="262.5" y="709.2363">VesselType(string id, string name)</text><ellipse cx="253.5" cy="722.6172" fill="#84BE84" rx="3" ry="3" style="stroke:#038048;stroke-width:1.0;"/><text fill="#000000" font-family="sans-serif" font-size="14" lengthAdjust="spacing" textLength="878" x="262.5" y="726.8457">Update(string name, string? description, int? capacityTeu, int? maxRows, int? maxBays, int? maxTiers, string? operationalConstraints) : void</text></g><!--class Organization--><g id="elem_Organization"><rect codeLine="36" fill="#F1F1F1" height="118.4375" id="Organization" rx="2.5" ry="2.5" style="stroke:#181818;stroke-width:0.5;" width="212" x="1181.5" y="545.1094"/><ellipse cx="1243.25" cy="561.1094" fill="#ADD1B2" rx="11" ry="11" style="stroke:#181818;stroke-width:1.0;"/><path d="M1246.0156,556.9844 Q1246.1719,556.7656 1246.3594,556.6563 Q1246.5469,556.5469 1246.7656,556.5469 Q1247.1406,556.5469 1247.375,556.8125 Q1247.6094,557.0625 1247.6094,557.6719 L1247.6094,559.125 Q1247.6094,559.7344 1247.375,560 Q1247.1406,560.2656 1246.7656,560.2656 Q1246.4219,560.2656 1246.2188,560.0625 Q1246.0156,559.875 1245.9063,559.3594 Q1245.8594,559 1245.6719,558.8125 Q1245.3438,558.4375 1244.7344,558.2188 Q1244.125,558 1243.5,558 Q1242.7344,558 1242.0938,558.3281 Q1241.4688,558.6563 1240.9688,559.4063 Q1240.4844,560.1563 1240.4844,561.1875 L1240.4844,562.2813 Q1240.4844,563.5156 1241.375,564.3438 Q1242.2656,565.1563 1243.8594,565.1563 Q1244.7969,565.1563 1245.4531,564.9063 Q1245.8438,564.75 1246.2656,564.3125 Q1246.5313,564.0469 1246.6719,563.9688 Q1246.8281,563.8906 1247.0313,563.8906 Q1247.3594,563.8906 1247.6094,564.1563 Q1247.875,564.4063 1247.875,564.75 Q1247.875,565.0938 1247.5313,565.5 Q1247.0313,566.0781 1246.2344,566.4063 Q1245.1563,566.8594 1243.8594,566.8594 Q1242.3438,566.8594 1241.1406,566.2344 Q1240.1563,565.7344 1239.4688,564.6719 Q1238.7813,563.5938 1238.7813,562.3125 L1238.7813,561.1563 Q1238.7813,559.8281 1239.3906,558.6875 Q1240.0156,557.5313 1241.1094,556.9219 Q1242.2031,556.2969 1243.4375,556.2969 Q1244.1719,556.2969 1244.8125,556.4688 Q1245.4688,556.625 1246.0156,556.9844 Z " fill="#000000"/><text fill="#000000" font-family="sans-serif" font-size="14" lengthAdjust="spacing" textLength="80" x="1263.75" y="566.8379">Organization</text><line style="stroke:#181818;stroke-width:0.5;" x1="1182.5" x2="1392.5" y1="577.1094" y2="577.1094"/><ellipse cx="1192.5" cy="591.4141" fill="none" rx="3" ry="3" style="stroke:#038048;stroke-width:1.0;"/><text fill="#000000" font-family="sans-serif" font-size="14" lengthAdjust="spacing" textLength="186" x="1201.5" y="595.6426">OrganizationId OrganizationId</text><ellipse cx="1192.5" cy="609.0234" fill="none" rx="3" ry="3" style="stroke:#038048;stroke-width:1.0;"/><text fill="#000000" font-family="sans-serif" font-size="14" lengthAdjust="spacing" textLength="75" x="1201.5" y="613.252">string Name</text><ellipse cx="1192.5" cy="626.6328" fill="none" rx="3" ry="3" style="stroke:#038048;stroke-width:1.0;"/><text fill="#000000" font-family="sans-serif" font-size="14" lengthAdjust="spacing" textLength="150" x="1201.5" y="630.8613">ICollection&lt;User&gt; Users</text><ellipse cx="1192.5" cy="644.2422" fill="none" rx="3" ry="3" style="stroke:#038048;stroke-width:1.0;"/><text fill="#000000" font-family="sans-serif" font-size="14" lengthAdjust="spacing" textLength="176" x="1201.5" y="648.4707">ICollection&lt;Vessel&gt; Vessels</text><line style="stroke:#181818;stroke-width:0.5;" x1="1182.5" x2="1392.5" y1="655.5469" y2="655.5469"/></g><!--class OrganizationId--><g id="elem_OrganizationId"><rect codeLine="43" fill="#F1F1F1" height="83.2188" id="OrganizationId" rx="2.5" ry="2.5" style="stroke:#181818;stroke-width:0.5;" width="195" x="1190" y="899.6094"/><ellipse cx="1237.75" cy="915.6094" fill="#ADD1B2" rx="11" ry="11" style="stroke:#181818;stroke-width:1.0;"/><path d="M1240.5156,911.4844 Q1240.6719,911.2656 1240.8594,911.1563 Q1241.0469,911.0469 1241.2656,911.0469 Q1241.6406,911.0469 1241.875,911.3125 Q1242.1094,911.5625 1242.1094,912.1719 L1242.1094,913.625 Q1242.1094,914.2344 1241.875,914.5 Q1241.6406,914.7656 1241.2656,914.7656 Q1240.9219,914.7656 1240.7188,914.5625 Q1240.5156,914.375 1240.4063,913.8594 Q1240.3594,913.5 1240.1719,913.3125 Q1239.8438,912.9375 1239.2344,912.7188 Q1238.625,912.5 1238,912.5 Q1237.2344,912.5 1236.5938,912.8281 Q1235.9688,913.1563 1235.4688,913.9063 Q1234.9844,914.6563 1234.9844,915.6875 L1234.9844,916.7813 Q1234.9844,918.0156 1235.875,918.8438 Q1236.7656,919.6563 1238.3594,919.6563 Q1239.2969,919.6563 1239.9531,919.4063 Q1240.3438,919.25 1240.7656,918.8125 Q1241.0313,918.5469 1241.1719,918.4688 Q1241.3281,918.3906 1241.5313,918.3906 Q1241.8594,918.3906 1242.1094,918.6563 Q1242.375,918.9063 1242.375,919.25 Q1242.375,919.5938 1242.0313,920 Q1241.5313,920.5781 1240.7344,920.9063 Q1239.6563,921.3594 1238.3594,921.3594 Q1236.8438,921.3594 1235.6406,920.7344 Q1234.6563,920.2344 1233.9688,919.1719 Q1233.2813,918.0938 1233.2813,916.8125 L1233.2813,915.6563 Q1233.2813,914.3281 1233.8906,913.1875 Q1234.5156,912.0313 1235.6094,911.4219 Q1236.7031,910.7969 1237.9375,910.7969 Q1238.6719,910.7969 1239.3125,910.9688 Q1239.9688,911.125 1240.5156,911.4844 Z " fill="#000000"/><text fill="#000000" font-family="sans-serif" font-size="14" lengthAdjust="spacing" textLength="91" x="1258.25" y="921.3379">OrganizationId</text><line style="stroke:#181818;stroke-width:0.5;" x1="1191" x2="1384" y1="931.6094" y2="931.6094"/><ellipse cx="1201" cy="945.9141" fill="none" rx="3" ry="3" style="stroke:#038048;stroke-width:1.0;"/><text fill="#000000" font-family="sans-serif" font-size="14" lengthAdjust="spacing" textLength="70" x="1210" y="950.1426">Guid Value</text><line style="stroke:#181818;stroke-width:1.0;" x1="1191" x2="1384" y1="957.2188" y2="957.2188"/><ellipse cx="1201" cy="971.5234" fill="#84BE84" rx="3" ry="3" style="stroke:#038048;stroke-width:1.0;"/><text fill="#000000" font-family="sans-serif" font-size="14" lengthAdjust="spacing" textLength="169" x="1210" y="975.752">OrganizationId(Guid value)</text></g><!--class PortDbContext--><g id="elem_PortDbContext"><rect codeLine="50" fill="#F1F1F1" height="153.6563" id="PortDbContext" rx="2.5" ry="2.5" style="stroke:#181818;stroke-width:0.5;" width="401" x="9" y="251.1094"/><ellipse cx="159.25" cy="267.1094" fill="#ADD1B2" rx="11" ry="11" style="stroke:#181818;stroke-width:1.0;"/><path d="M162.0156,262.9844 Q162.1719,262.7656 162.3594,262.6563 Q162.5469,262.5469 162.7656,262.5469 Q163.1406,262.5469 163.375,262.8125 Q163.6094,263.0625 163.6094,263.6719 L163.6094,265.125 Q163.6094,265.7344 163.375,266 Q163.1406,266.2656 162.7656,266.2656 Q162.4219,266.2656 162.2188,266.0625 Q162.0156,265.875 161.9063,265.3594 Q161.8594,265 161.6719,264.8125 Q161.3438,264.4375 160.7344,264.2188 Q160.125,264 159.5,264 Q158.7344,264 158.0938,264.3281 Q157.4688,264.6563 156.9688,265.4063 Q156.4844,266.1563 156.4844,267.1875 L156.4844,268.2813 Q156.4844,269.5156 157.375,270.3438 Q158.2656,271.1563 159.8594,271.1563 Q160.7969,271.1563 161.4531,270.9063 Q161.8438,270.75 162.2656,270.3125 Q162.5313,270.0469 162.6719,269.9688 Q162.8281,269.8906 163.0313,269.8906 Q163.3594,269.8906 163.6094,270.1563 Q163.875,270.4063 163.875,270.75 Q163.875,271.0938 163.5313,271.5 Q163.0313,272.0781 162.2344,272.4063 Q161.1563,272.8594 159.8594,272.8594 Q158.3438,272.8594 157.1406,272.2344 Q156.1563,271.7344 155.4688,270.6719 Q154.7813,269.5938 154.7813,268.3125 L154.7813,267.1563 Q154.7813,265.8281 155.3906,264.6875 Q156.0156,263.5313 157.1094,262.9219 Q158.2031,262.2969 159.4375,262.2969 Q160.1719,262.2969 160.8125,262.4688 Q161.4688,262.625 162.0156,262.9844 Z " fill="#000000"/><text fill="#000000" font-family="sans-serif" font-size="14" lengthAdjust="spacing" textLength="92" x="179.75" y="272.8379">PortDbContext</text><line style="stroke:#181818;stroke-width:0.5;" x1="10" x2="409" y1="283.1094" y2="283.1094"/><ellipse cx="20" cy="297.4141" fill="none" rx="3" ry="3" style="stroke:#038048;stroke-width:1.0;"/><text fill="#000000" font-family="sans-serif" font-size="14" lengthAdjust="spacing" textLength="226" x="29" y="301.6426">DbSet&lt;Organization&gt; Organizations</text><ellipse cx="20" cy="315.0234" fill="none" rx="3" ry="3" style="stroke:#038048;stroke-width:1.0;"/><text fill="#000000" font-family="sans-serif" font-size="14" lengthAdjust="spacing" textLength="124" x="29" y="319.252">DbSet&lt;User&gt; Users</text><ellipse cx="20" cy="332.6328" fill="none" rx="3" ry="3" style="stroke:#038048;stroke-width:1.0;"/><text fill="#000000" font-family="sans-serif" font-size="14" lengthAdjust="spacing" textLength="150" x="29" y="336.8613">DbSet&lt;Vessel&gt; Vessels</text><ellipse cx="20" cy="350.2422" fill="none" rx="3" ry="3" style="stroke:#038048;stroke-width:1.0;"/><text fill="#000000" font-family="sans-serif" font-size="14" lengthAdjust="spacing" textLength="214" x="29" y="354.4707">DbSet&lt;VesselType&gt; VesselTypes</text><line style="stroke:#181818;stroke-width:1.0;" x1="10" x2="409" y1="361.5469" y2="361.5469"/><ellipse cx="20" cy="375.8516" fill="#84BE84" rx="3" ry="3" style="stroke:#038048;stroke-width:1.0;"/><text fill="#000000" font-family="sans-serif" font-size="14" lengthAdjust="spacing" textLength="375" x="29" y="380.0801">PortDbContext(DbContextOptions&lt;PortDbContext&gt; options)</text><polygon fill="#FFFF44" points="20,388.4609,24,392.4609,20,396.4609,16,392.4609" style="stroke:#B38D22;stroke-width:1.0;"/><text fill="#000000" font-family="sans-serif" font-size="14" lengthAdjust="spacing" textLength="327" x="29" y="397.6895">OnModelCreating(ModelBuilder modelBuilder) : void</text></g><!--class VesselsController--><g id="elem_VesselsController"><rect codeLine="61" fill="#F1F1F1" height="136.0469" id="VesselsController" rx="2.5" ry="2.5" style="stroke:#181818;stroke-width:0.5;" width="740" x="248.5" y="45.6094"/><ellipse cx="558.75" cy="61.6094" fill="#ADD1B2" rx="11" ry="11" style="stroke:#181818;stroke-width:1.0;"/><path d="M561.5156,57.4844 Q561.6719,57.2656 561.8594,57.1563 Q562.0469,57.0469 562.2656,57.0469 Q562.6406,57.0469 562.875,57.3125 Q563.1094,57.5625 563.1094,58.1719 L563.1094,59.625 Q563.1094,60.2344 562.875,60.5 Q562.6406,60.7656 562.2656,60.7656 Q561.9219,60.7656 561.7188,60.5625 Q561.5156,60.375 561.4063,59.8594 Q561.3594,59.5 561.1719,59.3125 Q560.8438,58.9375 560.2344,58.7188 Q559.625,58.5 559,58.5 Q558.2344,58.5 557.5938,58.8281 Q556.9688,59.1563 556.4688,59.9063 Q555.9844,60.6563 555.9844,61.6875 L555.9844,62.7813 Q555.9844,64.0156 556.875,64.8438 Q557.7656,65.6563 559.3594,65.6563 Q560.2969,65.6563 560.9531,65.4063 Q561.3438,65.25 561.7656,64.8125 Q562.0313,64.5469 562.1719,64.4688 Q562.3281,64.3906 562.5313,64.3906 Q562.8594,64.3906 563.1094,64.6563 Q563.375,64.9063 563.375,65.25 Q563.375,65.5938 563.0313,66 Q562.5313,66.5781 561.7344,66.9063 Q560.6563,67.3594 559.3594,67.3594 Q557.8438,67.3594 556.6406,66.7344 Q555.6563,66.2344 554.9688,65.1719 Q554.2813,64.0938 554.2813,62.8125 L554.2813,61.6563 Q554.2813,60.3281 554.8906,59.1875 Q555.5156,58.0313 556.6094,57.4219 Q557.7031,56.7969 558.9375,56.7969 Q559.6719,56.7969 560.3125,56.9688 Q560.9688,57.125 561.5156,57.4844 Z " fill="#000000"/><text fill="#000000" font-family="sans-serif" font-size="14" lengthAdjust="spacing" textLength="111" x="579.25" y="67.3379">VesselsController</text><line style="stroke:#181818;stroke-width:0.5;" x1="249.5" x2="987.5" y1="77.6094" y2="77.6094"/><line style="stroke:#181818;stroke-width:0.5;" x1="249.5" x2="987.5" y1="85.6094" y2="85.6094"/><ellipse cx="259.5" cy="99.9141" fill="#84BE84" rx="3" ry="3" style="stroke:#038048;stroke-width:1.0;"/><text fill="#000000" font-family="sans-serif" font-size="14" lengthAdjust="spacing" textLength="325" x="268.5" y="104.1426">Create(CreateVesselDto dto) : Task&lt;IActionResult&gt;</text><ellipse cx="259.5" cy="117.5234" fill="#84BE84" rx="3" ry="3" style="stroke:#038048;stroke-width:1.0;"/><text fill="#000000" font-family="sans-serif" font-size="14" lengthAdjust="spacing" textLength="398" x="268.5" y="121.752">Update(string imo, UpdateVesselDto dto) : Task&lt;IActionResult&gt;</text><ellipse cx="259.5" cy="135.1328" fill="#84BE84" rx="3" ry="3" style="stroke:#038048;stroke-width:1.0;"/><text fill="#000000" font-family="sans-serif" font-size="14" lengthAdjust="spacing" textLength="273" x="268.5" y="139.3613">GetByImo(string imo) : Task&lt;IActionResult&gt;</text><ellipse cx="259.5" cy="152.7422" fill="#84BE84" rx="3" ry="3" style="stroke:#038048;stroke-width:1.0;"/><text fill="#000000" font-family="sans-serif" font-size="14" lengthAdjust="spacing" textLength="714" x="268.5" y="156.9707">Search(string? imo, string? name, string? @operator, string? typeId, string? organizationId) : Task&lt;IActionResult&gt;</text><text fill="#000000" font-family="sans-serif" font-size="14" lengthAdjust="spacing" textLength="345" x="268.5" y="174.5801">-- ToResponse(Vessel v) : Task&lt;VesselResponseDto&gt;</text></g><!--class CreateVesselDto--><g id="elem_CreateVesselDto"><rect codeLine="70" fill="#F1F1F1" height="136.0469" id="CreateVesselDto" rx="2.5" ry="2.5" style="stroke:#181818;stroke-width:0.5;" width="156" x="445.5" y="260.1094"/><ellipse cx="468.15" cy="276.1094" fill="#ADD1B2" rx="11" ry="11" style="stroke:#181818;stroke-width:1.0;"/><path d="M470.9156,271.9844 Q471.0719,271.7656 471.2594,271.6563 Q471.4469,271.5469 471.6656,271.5469 Q472.0406,271.5469 472.275,271.8125 Q472.5094,272.0625 472.5094,272.6719 L472.5094,274.125 Q472.5094,274.7344 472.275,275 Q472.0406,275.2656 471.6656,275.2656 Q471.3219,275.2656 471.1188,275.0625 Q470.9156,274.875 470.8063,274.3594 Q470.7594,274 470.5719,273.8125 Q470.2438,273.4375 469.6344,273.2188 Q469.025,273 468.4,273 Q467.6344,273 466.9938,273.3281 Q466.3688,273.6563 465.8688,274.4063 Q465.3844,275.1563 465.3844,276.1875 L465.3844,277.2813 Q465.3844,278.5156 466.275,279.3438 Q467.1656,280.1563 468.7594,280.1563 Q469.6969,280.1563 470.3531,279.9063 Q470.7438,279.75 471.1656,279.3125 Q471.4313,279.0469 471.5719,278.9688 Q471.7281,278.8906 471.9313,278.8906 Q472.2594,278.8906 472.5094,279.1563 Q472.775,279.4063 472.775,279.75 Q472.775,280.0938 472.4313,280.5 Q471.9313,281.0781 471.1344,281.4063 Q470.0563,281.8594 468.7594,281.8594 Q467.2438,281.8594 466.0406,281.2344 Q465.0563,280.7344 464.3688,279.6719 Q463.6813,278.5938 463.6813,277.3125 L463.6813,276.1563 Q463.6813,274.8281 464.2906,273.6875 Q464.9156,272.5313 466.0094,271.9219 Q467.1031,271.2969 468.3375,271.2969 Q469.0719,271.2969 469.7125,271.4688 Q470.3688,271.625 470.9156,271.9844 Z " fill="#000000"/><text fill="#000000" font-family="sans-serif" font-size="14" lengthAdjust="spacing" textLength="107" x="483.85" y="281.8379">CreateVesselDto</text><line style="stroke:#181818;stroke-width:0.5;" x1="446.5" x2="600.5" y1="292.1094" y2="292.1094"/><ellipse cx="456.5" cy="306.4141" fill="none" rx="3" ry="3" style="stroke:#038048;stroke-width:1.0;"/><text fill="#000000" font-family="sans-serif" font-size="14" lengthAdjust="spacing" textLength="110" x="465.5" y="310.6426">string ImoNumber</text><ellipse cx="456.5" cy="324.0234" fill="none" rx="3" ry="3" style="stroke:#038048;stroke-width:1.0;"/><text fill="#000000" font-family="sans-serif" font-size="14" lengthAdjust="spacing" textLength="75" x="465.5" y="328.252">string Name</text><ellipse cx="456.5" cy="341.6328" fill="none" rx="3" ry="3" style="stroke:#038048;stroke-width:1.0;"/><text fill="#000000" font-family="sans-serif" font-size="14" lengthAdjust="spacing" textLength="124" x="465.5" y="345.8613">string VesselTypeId</text><ellipse cx="456.5" cy="359.2422" fill="none" rx="3" ry="3" style="stroke:#038048;stroke-width:1.0;"/><text fill="#000000" font-family="sans-serif" font-size="14" lengthAdjust="spacing" textLength="130" x="465.5" y="363.4707">string OrganizationId</text><ellipse cx="456.5" cy="376.8516" fill="none" rx="3" ry="3" style="stroke:#038048;stroke-width:1.0;"/><text fill="#000000" font-family="sans-serif" font-size="14" lengthAdjust="spacing" textLength="109" x="465.5" y="381.0801">int? CapacityTEU</text><line style="stroke:#181818;stroke-width:0.5;" x1="446.5" x2="600.5" y1="388.1563" y2="388.1563"/></g><!--class UpdateVesselDto--><g id="elem_UpdateVesselDto"><rect codeLine="77" fill="#F1F1F1" height="118.4375" id="UpdateVesselDto" rx="2.5" ry="2.5" style="stroke:#181818;stroke-width:0.5;" width="156" x="636.5" y="269.1094"/><ellipse cx="658.25" cy="285.1094" fill="#ADD1B2" rx="11" ry="11" style="stroke:#181818;stroke-width:1.0;"/><path d="M661.0156,280.9844 Q661.1719,280.7656 661.3594,280.6563 Q661.5469,280.5469 661.7656,280.5469 Q662.1406,280.5469 662.375,280.8125 Q662.6094,281.0625 662.6094,281.6719 L662.6094,283.125 Q662.6094,283.7344 662.375,284 Q662.1406,284.2656 661.7656,284.2656 Q661.4219,284.2656 661.2188,284.0625 Q661.0156,283.875 660.9063,283.3594 Q660.8594,283 660.6719,282.8125 Q660.3438,282.4375 659.7344,282.2188 Q659.125,282 658.5,282 Q657.7344,282 657.0938,282.3281 Q656.4688,282.6563 655.9688,283.4063 Q655.4844,284.1563 655.4844,285.1875 L655.4844,286.2813 Q655.4844,287.5156 656.375,288.3438 Q657.2656,289.1563 658.8594,289.1563 Q659.7969,289.1563 660.4531,288.9063 Q660.8438,288.75 661.2656,288.3125 Q661.5313,288.0469 661.6719,287.9688 Q661.8281,287.8906 662.0313,287.8906 Q662.3594,287.8906 662.6094,288.1563 Q662.875,288.4063 662.875,288.75 Q662.875,289.0938 662.5313,289.5 Q662.0313,290.0781 661.2344,290.4063 Q660.1563,290.8594 658.8594,290.8594 Q657.3438,290.8594 656.1406,290.2344 Q655.1563,289.7344 654.4688,288.6719 Q653.7813,287.5938 653.7813,286.3125 L653.7813,285.1563 Q653.7813,283.8281 654.3906,282.6875 Q655.0156,281.5313 656.1094,280.9219 Q657.2031,280.2969 658.4375,280.2969 Q659.1719,280.2969 659.8125,280.4688 Q660.4688,280.625 661.0156,280.9844 Z " fill="#000000"/><text fill="#000000" font-family="sans-serif" font-size="14" lengthAdjust="spacing" textLength="109" x="673.75" y="290.8379">UpdateVesselDto</text><line style="stroke:#181818;stroke-width:0.5;" x1="637.5" x2="791.5" y1="301.1094" y2="301.1094"/><ellipse cx="647.5" cy="315.4141" fill="none" rx="3" ry="3" style="stroke:#038048;stroke-width:1.0;"/><text fill="#000000" font-family="sans-serif" font-size="14" lengthAdjust="spacing" textLength="75" x="656.5" y="319.6426">string Name</text><ellipse cx="647.5" cy="333.0234" fill="none" rx="3" ry="3" style="stroke:#038048;stroke-width:1.0;"/><text fill="#000000" font-family="sans-serif" font-size="14" lengthAdjust="spacing" textLength="124" x="656.5" y="337.252">string VesselTypeId</text><ellipse cx="647.5" cy="350.6328" fill="none" rx="3" ry="3" style="stroke:#038048;stroke-width:1.0;"/><text fill="#000000" font-family="sans-serif" font-size="14" lengthAdjust="spacing" textLength="130" x="656.5" y="354.8613">string OrganizationId</text><ellipse cx="647.5" cy="368.2422" fill="none" rx="3" ry="3" style="stroke:#038048;stroke-width:1.0;"/><text fill="#000000" font-family="sans-serif" font-size="14" lengthAdjust="spacing" textLength="109" x="656.5" y="372.4707">int? CapacityTEU</text><line style="stroke:#181818;stroke-width:0.5;" x1="637.5" x2="791.5" y1="379.5469" y2="379.5469"/></g><!--class VesselResponseDto--><g id="elem_VesselResponseDto"><rect codeLine="83" fill="#F1F1F1" height="171.2656" id="VesselResponseDto" rx="2.5" ry="2.5" style="stroke:#181818;stroke-width:0.5;" width="189" x="828" y="242.6094"/><ellipse cx="856.05" cy="258.6094" fill="#ADD1B2" rx="11" ry="11" style="stroke:#181818;stroke-width:1.0;"/><path d="M858.8156,254.4844 Q858.9719,254.2656 859.1594,254.1563 Q859.3469,254.0469 859.5656,254.0469 Q859.9406,254.0469 860.175,254.3125 Q860.4094,254.5625 860.4094,255.1719 L860.4094,256.625 Q860.4094,257.2344 860.175,257.5 Q859.9406,257.7656 859.5656,257.7656 Q859.2219,257.7656 859.0188,257.5625 Q858.8156,257.375 858.7063,256.8594 Q858.6594,256.5 858.4719,256.3125 Q858.1438,255.9375 857.5344,255.7188 Q856.925,255.5 856.3,255.5 Q855.5344,255.5 854.8938,255.8281 Q854.2688,256.1563 853.7688,256.9063 Q853.2844,257.6563 853.2844,258.6875 L853.2844,259.7813 Q853.2844,261.0156 854.175,261.8438 Q855.0656,262.6563 856.6594,262.6563 Q857.5969,262.6563 858.2531,262.4063 Q858.6438,262.25 859.0656,261.8125 Q859.3313,261.5469 859.4719,261.4688 Q859.6281,261.3906 859.8313,261.3906 Q860.1594,261.3906 860.4094,261.6563 Q860.675,261.9063 860.675,262.25 Q860.675,262.5938 860.3313,263 Q859.8313,263.5781 859.0344,263.9063 Q857.9563,264.3594 856.6594,264.3594 Q855.1438,264.3594 853.9406,263.7344 Q852.9563,263.2344 852.2688,262.1719 Q851.5813,261.0938 851.5813,259.8125 L851.5813,258.6563 Q851.5813,257.3281 852.1906,256.1875 Q852.8156,255.0313 853.9094,254.4219 Q855.0031,253.7969 856.2375,253.7969 Q856.9719,253.7969 857.6125,253.9688 Q858.2688,254.125 858.8156,254.4844 Z " fill="#000000"/><text fill="#000000" font-family="sans-serif" font-size="14" lengthAdjust="spacing" textLength="128" x="872.95" y="264.3379">VesselResponseDto</text><line style="stroke:#181818;stroke-width:0.5;" x1="829" x2="1016" y1="274.6094" y2="274.6094"/><ellipse cx="839" cy="288.9141" fill="none" rx="3" ry="3" style="stroke:#038048;stroke-width:1.0;"/><text fill="#000000" font-family="sans-serif" font-size="14" lengthAdjust="spacing" textLength="110" x="848" y="293.1426">string ImoNumber</text><ellipse cx="839" cy="306.5234" fill="none" rx="3" ry="3" style="stroke:#038048;stroke-width:1.0;"/><text fill="#000000" font-family="sans-serif" font-size="14" lengthAdjust="spacing" textLength="75" x="848" y="310.752">string Name</text><ellipse cx="839" cy="324.1328" fill="none" rx="3" ry="3" style="stroke:#038048;stroke-width:1.0;"/><text fill="#000000" font-family="sans-serif" font-size="14" lengthAdjust="spacing" textLength="124" x="848" y="328.3613">string VesselTypeId</text><ellipse cx="839" cy="341.7422" fill="none" rx="3" ry="3" style="stroke:#038048;stroke-width:1.0;"/><text fill="#000000" font-family="sans-serif" font-size="14" lengthAdjust="spacing" textLength="157" x="848" y="345.9707">string? VesselTypeName</text><ellipse cx="839" cy="359.3516" fill="none" rx="3" ry="3" style="stroke:#038048;stroke-width:1.0;"/><text fill="#000000" font-family="sans-serif" font-size="14" lengthAdjust="spacing" textLength="130" x="848" y="363.5801">string OrganizationId</text><ellipse cx="839" cy="376.9609" fill="none" rx="3" ry="3" style="stroke:#038048;stroke-width:1.0;"/><text fill="#000000" font-family="sans-serif" font-size="14" lengthAdjust="spacing" textLength="163" x="848" y="381.1895">string? OrganizationName</text><ellipse cx="839" cy="394.5703" fill="none" rx="3" ry="3" style="stroke:#038048;stroke-width:1.0;"/><text fill="#000000" font-family="sans-serif" font-size="14" lengthAdjust="spacing" textLength="109" x="848" y="398.7988">int? CapacityTEU</text><line style="stroke:#181818;stroke-width:0.5;" x1="829" x2="1016" y1="405.875" y2="405.875"/></g><!--reverse link VesselType to Vessel--><g id="link_VesselType_Vessel"><path codeLine="94" d="M694.5,745.6694 C694.5,771.1294 694.5,785.8694 694.5,811.3394 " fill="none" id="VesselType-backto-Vessel" style="stroke:#181818;stroke-width:1.0;"/><polygon fill="none" points="694.5,733.6694,690.5,739.6694,694.5,745.6694,698.5,739.6694,694.5,733.6694" style="stroke:#181818;stroke-width:1.0;"/><text fill="#000000" font-family="sans-serif" font-size="13" lengthAdjust="spacing" textLength="47" x="695.5" y="778.1045">Vessels</text><text fill="#000000" font-family="sans-serif" font-size="13" lengthAdjust="spacing" textLength="7" x="687.2867" y="755.5482">1</text><text fill="#000000" font-family="sans-serif" font-size="13" lengthAdjust="spacing" textLength="20" x="673.9219" y="800.8708">0..*</text></g><!--reverse link Organization to Vessel--><g id="link_Organization_Vessel"><path codeLine="95" d="M1232.3643,672.0606 C1210.7643,696.0706 1191.73,713.9194 1163.5,733.6094 C1122.36,762.2994 1076.6,788.3694 1030.24,811.5794 " fill="none" id="Organization-backto-Vessel" style="stroke:#181818;stroke-width:1.0;"/><polygon fill="none" points="1240.39,663.1394,1233.4034,664.9247,1232.3643,672.0606,1239.3509,670.2752,1240.39,663.1394" style="stroke:#181818;stroke-width:1.0;"/><text fill="#000000" font-family="sans-serif" font-size="13" lengthAdjust="spacing" textLength="47" x="1118.5" y="778.1045">Vessels</text><text fill="#000000" font-family="sans-serif" font-size="13" lengthAdjust="spacing" textLength="7" x="1226.9056" y="685.2172">1</text><text fill="#000000" font-family="sans-serif" font-size="13" lengthAdjust="spacing" textLength="20" x="1030.0898" y="800.6949">0..*</text></g><!--link Organization to OrganizationId--><g id="link_Organization_OrganizationId"><path codeLine="96" d="M1287.5,663.4594 C1287.5,730.9494 1287.5,834.2994 1287.5,893.2794 " fill="none" id="Organization-to-OrganizationId" style="stroke:#181818;stroke-width:1.0;"/><polygon fill="#181818" points="1287.5,899.2794,1291.5,890.2794,1287.5,894.2794,1283.5,890.2794,1287.5,899.2794" style="stroke:#181818;stroke-width:1.0;"/><text fill="#000000" font-family="sans-serif" font-size="13" lengthAdjust="spacing" textLength="21" x="1288.5" y="778.1045">has</text></g><!--link PortDbContext to Vessel--><g id="link_PortDbContext_Vessel"><path codeLine="97" d="M189.99,405.4194 C172.37,492.6994 158.23,636.1094 224.5,733.6094 C250.43,771.7594 280.0632,799.6283 318.8432,825.0683 " fill="none" id="PortDbContext-to-Vessel" style="stroke:#181818;stroke-width:1.0;"/><polygon fill="#181818" points="323.86,828.3594,318.5288,820.0782,319.6793,825.6168,314.1407,826.7673,323.86,828.3594" style="stroke:#181818;stroke-width:1.0;"/></g><!--link PortDbContext to VesselType--><g id="link_PortDbContext_VesselType"><path codeLine="98" d="M344.28,405.2494 C382.4,426.7894 419.7557,447.8987 461.7357,471.6087 " fill="none" id="PortDbContext-to-VesselType" style="stroke:#181818;stroke-width:1.0;"/><polygon fill="#181818" points="466.96,474.5594,461.0906,466.6505,462.6064,472.1005,457.1564,473.6163,466.96,474.5594" style="stroke:#181818;stroke-width:1.0;"/></g><!--link VesselsController to PortDbContext--><g id="link_VesselsController_PortDbContext"><path codeLine="99" d="M489.37,181.6994 C447,203.7094 404.9344,225.5733 361.3744,248.2033 " fill="none" id="VesselsController-to-PortDbContext" style="stroke:#181818;stroke-width:1.0;"/><polygon fill="#181818" points="356.05,250.9694,365.8806,250.3698,360.487,248.6643,362.1925,243.2707,356.05,250.9694" style="stroke:#181818;stroke-width:1.0;"/></g><!--link VesselsController to CreateVesselDto--><g id="link_VesselsController_CreateVesselDto"><path codeLine="100" d="M588.44,181.8494 C577.3,206.7694 567.1187,229.5518 555.9787,254.4718 " fill="none" id="VesselsController-to-CreateVesselDto" style="stroke:#181818;stroke-width:1.0;stroke-dasharray:7.0,7.0;"/><polygon fill="#181818" points="553.53,259.9494,560.8547,253.3654,555.5705,255.3847,553.5512,250.1005,553.53,259.9494" style="stroke:#181818;stroke-width:1.0;"/></g><!--link VesselsController to UpdateVesselDto--><g id="link_VesselsController_UpdateVesselDto"><path codeLine="101" d="M648.88,181.8494 C661.51,209.8094 673.5708,236.501 685.7308,263.431 " fill="none" id="VesselsController-to-UpdateVesselDto" style="stroke:#181818;stroke-width:1.0;stroke-dasharray:7.0,7.0;"/><polygon fill="#181818" points="688.2,268.8994,688.1418,259.0507,686.1423,264.3424,680.8506,262.3429,688.2,268.8994" style="stroke:#181818;stroke-width:1.0;"/></g><!--link VesselsController to VesselResponseDto--><g id="link_VesselsController_VesselResponseDto"><path codeLine="102" d="M720.77,181.7294 C749.67,201.0794 781,222.4194 809.5,242.6094 C815.5,246.8594 816.7849,247.7441 822.9549,252.2241 " fill="none" id="VesselsController-to-VesselResponseDto" style="stroke:#181818;stroke-width:1.0;stroke-dasharray:7.0,7.0;"/><polygon fill="#181818" points="827.81,255.7494,822.8775,247.2247,823.7641,252.8116,818.1771,253.6982,827.81,255.7494" style="stroke:#181818;stroke-width:1.0;"/></g><!--SRC=[jLRRRXen47tdAqPKQaaBgErZH9O6jefu25G4ycvs7MB5kqQsbuH4-VVwiXTxBqeZfKGYpCnPZsVEyNWbaHJ3d28X82Hepr428zZUmC-n-eCrtXCXCOVFi3t4I6AunK9WgW8Hux7ezRx0XVv0o194Kclq8hDU3dtf0Nm38Jb9zx18s39BTfYxpYLAiB59AgSmHmSK4NdQ_Dww8BlQvdJ0YzZuAyVK-Mr2Axv7ANb6ah1q4TVC1cBgMIQyc3DASQJjYLtxbWWYbqoIEn8PN00T0Q5M68sSBGxo2aXH-x2eALM5byRHAN1OBu5vvj1sAYewXJEuW3IZzCoajLJDa22H67nugZCuXoCZSKwEmaMm4BU8abYnwnIhWJl6g0jSCfuev3DkGgtLU-rvyj6Rz2NK449THTQUGeX5nCcX9BLLNSPvZPxMx55uZXaw-OuDmLnu2LO7p4sR49qhtYLN9q2A3W4LUcd6GnOz1719ANl4iJOQ2jB5bjsAFVcuZBTnFOMuQaEJpDoJs0PKbgw-iapfrOgijUvI5oM3hh1o3jy-cNKstKvj1UO1wE-tkzow2vNIxkCg8p4epMQuwhKF71Z8KKFEz6B5e5kaTnofJMQHp3Zs1juVncMuKosH-4dcYSBT3POJT-d0IoGSLBqywssJZnlHuWWSeJZgyJOqA7-jZ1Z4n0i7YbRZrehw1AlqciMOpZbMsqpt0sFDCa9ZTHiaZk7INlH8ByarDLoqt0YY2kTDCbdmmFwpe50oYAKP31ia7YQBIqFp6ekCog15z6gA37FNFwzmXUNir9n4NV0RZ7XqFoYEWSbO6FwP-sMF2EELI-RJjZn4djgwquv6i67AF2Xgy22_KuybtZgAkAevS8a8DokVWNgBtt4vlp5-MuvoO-2-vhkeq_JolnCsklHnXRil7_L7EiUR_yhH_VxZKBd6r0wCUt8eE7MkoFwFFZ2bbVxtyVXhltZtEY-dXZUBtmKUZOBw33s7UoHw_hZJCFjyPy2ydpLdW0PuZxHWnkEWhjqEL4rR7QY68Fu2]--></g></svg>