<?xml version="1.0" encoding="us-ascii" standalone="no"?><svg xmlns="http://www.w3.org/2000/svg" xmlns:xlink="http://www.w3.org/1999/xlink" contentStyleType="text/css" height="652px" preserveAspectRatio="none" style="width:673px;height:652px;background:#FFFFFF;" version="1.1" viewBox="0 0 673 652" width="673px" zoomAndPan="magnify"><defs/><g><text fill="#000000" font-family="sans-serif" font-size="14" font-weight="bold" lengthAdjust="spacing" textLength="424" x="117.5" y="24.5332">Domain Model - US 2.2.2 (Register &amp; Update Vessel Records)</text><!--class Vessel--><g id="elem_Vessel"><rect codeLine="3" fill="#F1F1F1" height="188.875" id="Vessel" rx="2.5" ry="2.5" style="stroke:#181818;stroke-width:0.5;" width="659" x="7" y="45.6094"/><ellipse cx="311.25" cy="61.6094" fill="#ADD1B2" rx="11" ry="11" style="stroke:#181818;stroke-width:1.0;"/><path d="M314.0156,57.4844 Q314.1719,57.2656 314.3594,57.1563 Q314.5469,57.0469 314.7656,57.0469 Q315.1406,57.0469 315.375,57.3125 Q315.6094,57.5625 315.6094,58.1719 L315.6094,59.625 Q315.6094,60.2344 315.375,60.5 Q315.1406,60.7656 314.7656,60.7656 Q314.4219,60.7656 314.2188,60.5625 Q314.0156,60.375 313.9063,59.8594 Q313.8594,59.5 313.6719,59.3125 Q313.3438,58.9375 312.7344,58.7188 Q312.125,58.5 311.5,58.5 Q310.7344,58.5 310.0938,58.8281 Q309.4688,59.1563 308.9688,59.9063 Q308.4844,60.6563 308.4844,61.6875 L308.4844,62.7813 Q308.4844,64.0156 309.375,64.8438 Q310.2656,65.6563 311.8594,65.6563 Q312.7969,65.6563 313.4531,65.4063 Q313.8438,65.25 314.2656,64.8125 Q314.5313,64.5469 314.6719,64.4688 Q314.8281,64.3906 315.0313,64.3906 Q315.3594,64.3906 315.6094,64.6563 Q315.875,64.9063 315.875,65.25 Q315.875,65.5938 315.5313,66 Q315.0313,66.5781 314.2344,66.9063 Q313.1563,67.3594 311.8594,67.3594 Q310.3438,67.3594 309.1406,66.7344 Q308.1563,66.2344 307.4688,65.1719 Q306.7813,64.0938 306.7813,62.8125 L306.7813,61.6563 Q306.7813,60.3281 307.3906,59.1875 Q308.0156,58.0313 309.1094,57.4219 Q310.2031,56.7969 311.4375,56.7969 Q312.1719,56.7969 312.8125,56.9688 Q313.4688,57.125 314.0156,57.4844 Z " fill="#000000"/><text fill="#000000" font-family="sans-serif" font-size="14" lengthAdjust="spacing" textLength="42" x="331.75" y="67.3379">Vessel</text><line style="stroke:#181818;stroke-width:0.5;" x1="8" x2="665" y1="77.6094" y2="77.6094"/><ellipse cx="18" cy="91.9141" fill="none" rx="3" ry="3" style="stroke:#038048;stroke-width:1.0;"/><text fill="#000000" font-family="sans-serif" font-size="14" lengthAdjust="spacing" textLength="118" x="27" y="96.1426">ImoNumber : string</text><ellipse cx="18" cy="109.5234" fill="none" rx="3" ry="3" style="stroke:#038048;stroke-width:1.0;"/><text fill="#000000" font-family="sans-serif" font-size="14" lengthAdjust="spacing" textLength="83" x="27" y="113.752">Name : string</text><ellipse cx="18" cy="127.1328" fill="none" rx="3" ry="3" style="stroke:#038048;stroke-width:1.0;"/><text fill="#000000" font-family="sans-serif" font-size="14" lengthAdjust="spacing" textLength="109" x="27" y="131.3613">CapacityTEU : int</text><ellipse cx="18" cy="144.7422" fill="none" rx="3" ry="3" style="stroke:#038048;stroke-width:1.0;"/><text fill="#000000" font-family="sans-serif" font-size="14" lengthAdjust="spacing" textLength="132" x="27" y="148.9707">VesselTypeId : string</text><ellipse cx="18" cy="162.3516" fill="none" rx="3" ry="3" style="stroke:#038048;stroke-width:1.0;"/><text fill="#000000" font-family="sans-serif" font-size="14" lengthAdjust="spacing" textLength="194" x="27" y="166.5801">OrganizationId : OrganizationId</text><line style="stroke:#181818;stroke-width:1.0;" x1="8" x2="665" y1="173.6563" y2="173.6563"/><ellipse cx="18" cy="187.9609" fill="#84BE84" rx="3" ry="3" style="stroke:#038048;stroke-width:1.0;"/><text fill="#000000" font-family="sans-serif" font-size="14" lengthAdjust="spacing" textLength="633" x="27" y="192.1895">UpdateBasics(name:string, vesselTypeId:string, organizationId:OrganizationId, capacityTeu:int) : void</text><ellipse cx="18" cy="205.5703" fill="#84BE84" rx="3" ry="3" style="stroke:#038048;stroke-width:1.0;"/><text fill="#000000" font-family="sans-serif" font-size="14" lengthAdjust="spacing" textLength="173" x="27" y="209.7988">IsValidImo(imo:string) : bool</text><ellipse cx="18" cy="223.1797" fill="#84BE84" rx="3" ry="3" style="stroke:#038048;stroke-width:1.0;"/><text fill="#000000" font-family="sans-serif" font-size="14" lengthAdjust="spacing" textLength="201" x="27" y="227.4082">NormalizeImo(imo:string) : string</text></g><!--class VesselType--><g id="elem_VesselType"><rect codeLine="15" fill="#F1F1F1" height="188.875" id="VesselType" rx="2.5" ry="2.5" style="stroke:#181818;stroke-width:0.5;" width="219" x="176" y="312.6094"/><ellipse cx="244.25" cy="328.6094" fill="#ADD1B2" rx="11" ry="11" style="stroke:#181818;stroke-width:1.0;"/><path d="M247.0156,324.4844 Q247.1719,324.2656 247.3594,324.1563 Q247.5469,324.0469 247.7656,324.0469 Q248.1406,324.0469 248.375,324.3125 Q248.6094,324.5625 248.6094,325.1719 L248.6094,326.625 Q248.6094,327.2344 248.375,327.5 Q248.1406,327.7656 247.7656,327.7656 Q247.4219,327.7656 247.2188,327.5625 Q247.0156,327.375 246.9063,326.8594 Q246.8594,326.5 246.6719,326.3125 Q246.3438,325.9375 245.7344,325.7188 Q245.125,325.5 244.5,325.5 Q243.7344,325.5 243.0938,325.8281 Q242.4688,326.1563 241.9688,326.9063 Q241.4844,327.6563 241.4844,328.6875 L241.4844,329.7813 Q241.4844,331.0156 242.375,331.8438 Q243.2656,332.6563 244.8594,332.6563 Q245.7969,332.6563 246.4531,332.4063 Q246.8438,332.25 247.2656,331.8125 Q247.5313,331.5469 247.6719,331.4688 Q247.8281,331.3906 248.0313,331.3906 Q248.3594,331.3906 248.6094,331.6563 Q248.875,331.9063 248.875,332.25 Q248.875,332.5938 248.5313,333 Q248.0313,333.5781 247.2344,333.9063 Q246.1563,334.3594 244.8594,334.3594 Q243.3438,334.3594 242.1406,333.7344 Q241.1563,333.2344 240.4688,332.1719 Q239.7813,331.0938 239.7813,329.8125 L239.7813,328.6563 Q239.7813,327.3281 240.3906,326.1875 Q241.0156,325.0313 242.1094,324.4219 Q243.2031,323.7969 244.4375,323.7969 Q245.1719,323.7969 245.8125,323.9688 Q246.4688,324.125 247.0156,324.4844 Z " fill="#000000"/><text fill="#000000" font-family="sans-serif" font-size="14" lengthAdjust="spacing" textLength="74" x="264.75" y="334.3379">VesselType</text><line style="stroke:#181818;stroke-width:0.5;" x1="177" x2="394" y1="344.6094" y2="344.6094"/><ellipse cx="187" cy="358.9141" fill="none" rx="3" ry="3" style="stroke:#038048;stroke-width:1.0;"/><text fill="#000000" font-family="sans-serif" font-size="14" lengthAdjust="spacing" textLength="132" x="196" y="363.1426">VesselTypeId : string</text><ellipse cx="187" cy="376.5234" fill="none" rx="3" ry="3" style="stroke:#038048;stroke-width:1.0;"/><text fill="#000000" font-family="sans-serif" font-size="14" lengthAdjust="spacing" textLength="83" x="196" y="380.752">Name : string</text><ellipse cx="187" cy="394.1328" fill="none" rx="3" ry="3" style="stroke:#038048;stroke-width:1.0;"/><text fill="#000000" font-family="sans-serif" font-size="14" lengthAdjust="spacing" textLength="118" x="196" y="398.3613">Description : string</text><ellipse cx="187" cy="411.7422" fill="none" rx="3" ry="3" style="stroke:#038048;stroke-width:1.0;"/><text fill="#000000" font-family="sans-serif" font-size="14" lengthAdjust="spacing" textLength="109" x="196" y="415.9707">CapacityTEU : int</text><ellipse cx="187" cy="429.3516" fill="none" rx="3" ry="3" style="stroke:#038048;stroke-width:1.0;"/><text fill="#000000" font-family="sans-serif" font-size="14" lengthAdjust="spacing" textLength="86" x="196" y="433.5801">MaxRows : int</text><ellipse cx="187" cy="446.9609" fill="none" rx="3" ry="3" style="stroke:#038048;stroke-width:1.0;"/><text fill="#000000" font-family="sans-serif" font-size="14" lengthAdjust="spacing" textLength="83" x="196" y="451.1895">MaxBays : int</text><ellipse cx="187" cy="464.5703" fill="none" rx="3" ry="3" style="stroke:#038048;stroke-width:1.0;"/><text fill="#000000" font-family="sans-serif" font-size="14" lengthAdjust="spacing" textLength="84" x="196" y="468.7988">MaxTiers : int</text><ellipse cx="187" cy="482.1797" fill="none" rx="3" ry="3" style="stroke:#038048;stroke-width:1.0;"/><text fill="#000000" font-family="sans-serif" font-size="14" lengthAdjust="spacing" textLength="193" x="196" y="486.4082">OperationalConstraints : string</text><line style="stroke:#181818;stroke-width:0.5;" x1="177" x2="394" y1="493.4844" y2="493.4844"/></g><!--class Organization--><g id="elem_Organization"><rect codeLine="26" fill="#F1F1F1" height="83.2188" id="Organization" rx="2.5" ry="2.5" style="stroke:#181818;stroke-width:0.5;" width="220" x="430.5" y="365.6094"/><ellipse cx="496.25" cy="381.6094" fill="#ADD1B2" rx="11" ry="11" style="stroke:#181818;stroke-width:1.0;"/><path d="M499.0156,377.4844 Q499.1719,377.2656 499.3594,377.1563 Q499.5469,377.0469 499.7656,377.0469 Q500.1406,377.0469 500.375,377.3125 Q500.6094,377.5625 500.6094,378.1719 L500.6094,379.625 Q500.6094,380.2344 500.375,380.5 Q500.1406,380.7656 499.7656,380.7656 Q499.4219,380.7656 499.2188,380.5625 Q499.0156,380.375 498.9063,379.8594 Q498.8594,379.5 498.6719,379.3125 Q498.3438,378.9375 497.7344,378.7188 Q497.125,378.5 496.5,378.5 Q495.7344,378.5 495.0938,378.8281 Q494.4688,379.1563 493.9688,379.9063 Q493.4844,380.6563 493.4844,381.6875 L493.4844,382.7813 Q493.4844,384.0156 494.375,384.8438 Q495.2656,385.6563 496.8594,385.6563 Q497.7969,385.6563 498.4531,385.4063 Q498.8438,385.25 499.2656,384.8125 Q499.5313,384.5469 499.6719,384.4688 Q499.8281,384.3906 500.0313,384.3906 Q500.3594,384.3906 500.6094,384.6563 Q500.875,384.9063 500.875,385.25 Q500.875,385.5938 500.5313,386 Q500.0313,386.5781 499.2344,386.9063 Q498.1563,387.3594 496.8594,387.3594 Q495.3438,387.3594 494.1406,386.7344 Q493.1563,386.2344 492.4688,385.1719 Q491.7813,384.0938 491.7813,382.8125 L491.7813,381.6563 Q491.7813,380.3281 492.3906,379.1875 Q493.0156,378.0313 494.1094,377.4219 Q495.2031,376.7969 496.4375,376.7969 Q497.1719,376.7969 497.8125,376.9688 Q498.4688,377.125 499.0156,377.4844 Z " fill="#000000"/><text fill="#000000" font-family="sans-serif" font-size="14" lengthAdjust="spacing" textLength="80" x="516.75" y="387.3379">Organization</text><line style="stroke:#181818;stroke-width:0.5;" x1="431.5" x2="649.5" y1="397.6094" y2="397.6094"/><ellipse cx="441.5" cy="411.9141" fill="none" rx="3" ry="3" style="stroke:#038048;stroke-width:1.0;"/><text fill="#000000" font-family="sans-serif" font-size="14" lengthAdjust="spacing" textLength="194" x="450.5" y="416.1426">OrganizationId : OrganizationId</text><ellipse cx="441.5" cy="429.5234" fill="none" rx="3" ry="3" style="stroke:#038048;stroke-width:1.0;"/><text fill="#000000" font-family="sans-serif" font-size="14" lengthAdjust="spacing" textLength="83" x="450.5" y="433.752">Name : string</text><line style="stroke:#181818;stroke-width:0.5;" x1="431.5" x2="649.5" y1="440.8281" y2="440.8281"/></g><!--class OrganizationId--><g id="elem_OrganizationId"><rect codeLine="31" fill="#F1F1F1" height="65.6094" id="OrganizationId" rx="2.5" ry="2.5" style="stroke:#181818;stroke-width:0.5;" width="123" x="479" y="579.6094"/><ellipse cx="494" cy="595.6094" fill="#ADD1B2" rx="11" ry="11" style="stroke:#181818;stroke-width:1.0;"/><path d="M496.7656,591.4844 Q496.9219,591.2656 497.1094,591.1563 Q497.2969,591.0469 497.5156,591.0469 Q497.8906,591.0469 498.125,591.3125 Q498.3594,591.5625 498.3594,592.1719 L498.3594,593.625 Q498.3594,594.2344 498.125,594.5 Q497.8906,594.7656 497.5156,594.7656 Q497.1719,594.7656 496.9688,594.5625 Q496.7656,594.375 496.6563,593.8594 Q496.6094,593.5 496.4219,593.3125 Q496.0938,592.9375 495.4844,592.7188 Q494.875,592.5 494.25,592.5 Q493.4844,592.5 492.8438,592.8281 Q492.2188,593.1563 491.7188,593.9063 Q491.2344,594.6563 491.2344,595.6875 L491.2344,596.7813 Q491.2344,598.0156 492.125,598.8438 Q493.0156,599.6563 494.6094,599.6563 Q495.5469,599.6563 496.2031,599.4063 Q496.5938,599.25 497.0156,598.8125 Q497.2813,598.5469 497.4219,598.4688 Q497.5781,598.3906 497.7813,598.3906 Q498.1094,598.3906 498.3594,598.6563 Q498.625,598.9063 498.625,599.25 Q498.625,599.5938 498.2813,600 Q497.7813,600.5781 496.9844,600.9063 Q495.9063,601.3594 494.6094,601.3594 Q493.0938,601.3594 491.8906,600.7344 Q490.9063,600.2344 490.2188,599.1719 Q489.5313,598.0938 489.5313,596.8125 L489.5313,595.6563 Q489.5313,594.3281 490.1406,593.1875 Q490.7656,592.0313 491.8594,591.4219 Q492.9531,590.7969 494.1875,590.7969 Q494.9219,590.7969 495.5625,590.9688 Q496.2188,591.125 496.7656,591.4844 Z " fill="#000000"/><text fill="#000000" font-family="sans-serif" font-size="14" lengthAdjust="spacing" textLength="91" x="508" y="601.3379">OrganizationId</text><line style="stroke:#181818;stroke-width:0.5;" x1="480" x2="601" y1="611.6094" y2="611.6094"/><ellipse cx="490" cy="625.9141" fill="none" rx="3" ry="3" style="stroke:#038048;stroke-width:1.0;"/><text fill="#000000" font-family="sans-serif" font-size="14" lengthAdjust="spacing" textLength="78" x="499" y="630.1426">Value : Guid</text><line style="stroke:#181818;stroke-width:0.5;" x1="480" x2="601" y1="637.2188" y2="637.2188"/></g><!--link Vessel to VesselType--><g id="link_Vessel_VesselType"><path codeLine="36" d="M318.45,234.9094 C313.6,260.0694 309.5039,281.3875 304.6639,306.5375 " fill="none" id="Vessel-to-VesselType" style="stroke:#181818;stroke-width:1.0;"/><polygon fill="#181818" points="303.53,312.4294,309.1587,304.3475,304.4749,307.5195,301.3029,302.8356,303.53,312.4294" style="stroke:#181818;stroke-width:1.0;"/><text fill="#000000" font-family="sans-serif" font-size="13" lengthAdjust="spacing" textLength="60" x="314.5" y="279.1045">references</text></g><!--link Vessel to Organization--><g id="link_Vessel_Organization"><path codeLine="37" d="M408.71,234.9094 C443.1,279.5794 478.7701,325.9249 505.4501,360.5849 " fill="none" id="Vessel-to-Organization" style="stroke:#181818;stroke-width:1.0;"/><polygon fill="#181818" points="509.11,365.3394,506.7899,355.7677,506.0601,361.3773,500.4505,360.6475,509.11,365.3394" style="stroke:#181818;stroke-width:1.0;"/><text fill="#000000" font-family="sans-serif" font-size="13" lengthAdjust="spacing" textLength="55" x="445.5" y="279.1045">owned by</text></g><!--link Organization to OrganizationId--><g id="link_Organization_OrganizationId"><path codeLine="38" d="M540.5,448.7994 C540.5,487.1894 540.5,537.9894 540.5,573.3494 " fill="none" id="Organization-to-OrganizationId" style="stroke:#181818;stroke-width:1.0;"/><polygon fill="#181818" points="540.5,579.3494,544.5,570.3494,540.5,574.3494,536.5,570.3494,540.5,579.3494" style="stroke:#181818;stroke-width:1.0;"/><text fill="#000000" font-family="sans-serif" font-size="13" lengthAdjust="spacing" textLength="21" x="541.5" y="546.1045">has</text></g><!--SRC=[ZLBBRi8m4BpdA_RKWafww3677e2guW185BWloHOiENRaTQ2Xwhztyw32GDNAj_5uTcQyNdbDCBOvAWDJcv6665PlyFGe1teBsYhsvE0ELaM6dc1Dp49QK6fTnlqeIZKod-3F2E019hcTbVb6dYN0tYcpRU0PvXGY8ommLRvQlgpaGXdVeAtMiYfeaeNykTkYKKVqofhcBWI44ySDiJKxH5OfzupCJLgL0UpFn7z06yWaeUe0qfDDAXCnsPV1UwkoDYklKQjC8lTKRZl5ch6nLhUnhSk5SgHhJXVjAsonDjSr-NiLrsMEYLEdYjhqVrgUuiV27ZX4XbXT84j5xXoQ5-IQOb2Fh94fiZYURsGvBx5By_VtNUQwgIPFktPGbpNvjPJF4EgzhALkABnJ1KVTKiRnytcp2JXw9qScfO0I64x07WnbiAcY0ByaDZ5soDy0]--></g></svg>