<?xml version="1.0" encoding="us-ascii" standalone="no"?><svg xmlns="http://www.w3.org/2000/svg" xmlns:xlink="http://www.w3.org/1999/xlink" contentStyleType="text/css" height="1017px" preserveAspectRatio="none" style="width:1109px;height:1017px;background:#FFFFFF;" version="1.1" viewBox="0 0 1109 1017" width="1109px" zoomAndPan="magnify"><defs/><g><text fill="#000000" font-family="sans-serif" font-size="14" font-weight="bold" lengthAdjust="spacing" textLength="425" x="335.33" y="24.5332">System Diagram - US 2.2.2 Register &amp; Update Vessel Records</text><!--cluster Client Layer--><g id="cluster_Client Layer"><rect fill="none" height="100" rx="2.5" ry="2.5" style="stroke:#181818;stroke-width:1.0;" width="202" x="274" y="186.1094"/><text fill="#000000" font-family="sans-serif" font-size="14" font-weight="bold" lengthAdjust="spacing" textLength="83" x="333.5" y="202.6426">Client Layer</text></g><!--cluster Web API--><g id="cluster_Web API"><polygon fill="none" points="283,362.1094,293,352.1094,467,352.1094,467,447.1094,457,457.1094,283,457.1094,283,362.1094" style="stroke:#181818;stroke-width:1.0;"/><line style="stroke:#181818;stroke-width:1.0;" x1="457" x2="467" y1="362.1094" y2="352.1094"/><line style="stroke:#181818;stroke-width:1.0;" x1="283" x2="457" y1="362.1094" y2="362.1094"/><line style="stroke:#181818;stroke-width:1.0;" x1="457" x2="457" y1="362.1094" y2="457.1094"/><text fill="#000000" font-family="sans-serif" font-size="14" font-weight="bold" lengthAdjust="spacing" textLength="57" x="342.5" y="379.6426">Web API</text></g><!--cluster Application DTOs--><g id="cluster_Application DTOs"><path d="M8.5,507.1094 L128.5,507.1094 A3.75,3.75 0 0 1 131,509.6094 L138,530.7188 L570.5,530.7188 A2.5,2.5 0 0 1 573,533.2188 L573,604.6094 A2.5,2.5 0 0 1 570.5,607.1094 L8.5,607.1094 A2.5,2.5 0 0 1 6,604.6094 L6,509.6094 A2.5,2.5 0 0 1 8.5,507.1094 " fill="none" style="stroke:#000000;stroke-width:1.5;"/><line style="stroke:#000000;stroke-width:1.5;" x1="6" x2="138" y1="530.7188" y2="530.7188"/><text fill="#000000" font-family="sans-serif" font-size="14" font-weight="bold" lengthAdjust="spacing" textLength="119" x="10" y="523.6426">Application DTOs</text></g><!--cluster Infrastructure--><g id="cluster_Infrastructure"><path d="M599.5,507.1094 L697.5,507.1094 A3.75,3.75 0 0 1 700,509.6094 L707,530.7188 L774.5,530.7188 A2.5,2.5 0 0 1 777,533.2188 L777,754.1094 A2.5,2.5 0 0 1 774.5,756.6094 L599.5,756.6094 A2.5,2.5 0 0 1 597,754.1094 L597,509.6094 A2.5,2.5 0 0 1 599.5,507.1094 " fill="none" style="stroke:#000000;stroke-width:1.5;"/><line style="stroke:#000000;stroke-width:1.5;" x1="597" x2="707" y1="530.7188" y2="530.7188"/><text fill="#000000" font-family="sans-serif" font-size="14" font-weight="bold" lengthAdjust="spacing" textLength="97" x="601" y="523.6426">Infrastructure</text></g><!--cluster Domain--><g id="cluster_Domain"><path d="M803.5,657.1094 L856.5,657.1094 A3.75,3.75 0 0 1 859,659.6094 L866,680.7188 L1099.5,680.7188 A2.5,2.5 0 0 1 1102,683.2188 L1102,1008.1094 A2.5,2.5 0 0 1 1099.5,1010.6094 L803.5,1010.6094 A2.5,2.5 0 0 1 801,1008.1094 L801,659.6094 A2.5,2.5 0 0 1 803.5,657.1094 " fill="none" style="stroke:#000000;stroke-width:1.5;"/><line style="stroke:#000000;stroke-width:1.5;" x1="801" x2="866" y1="680.7188" y2="680.7188"/><text fill="#000000" font-family="sans-serif" font-size="14" font-weight="bold" lengthAdjust="spacing" textLength="52" x="805" y="673.6426">Domain</text></g><!--entity ApiClient--><g id="elem_ApiClient"><rect fill="#F1F1F1" height="47.6094" rx="2.5" ry="2.5" style="stroke:#181818;stroke-width:0.5;" width="169" x="290.5" y="222.1094"/><rect fill="#F1F1F1" height="10" style="stroke:#181818;stroke-width:0.5;" width="15" x="439.5" y="227.1094"/><rect fill="#F1F1F1" height="2" style="stroke:#181818;stroke-width:0.5;" width="4" x="437.5" y="229.1094"/><rect fill="#F1F1F1" height="2" style="stroke:#181818;stroke-width:0.5;" width="4" x="437.5" y="233.1094"/><text fill="#000000" font-family="sans-serif" font-size="14" lengthAdjust="spacing" textLength="129" x="305.5" y="256.6426">Scalar UI / API Client</text></g><!--entity C_V--><g id="elem_C_V"><rect fill="#F1F1F1" height="47.6094" rx="2.5" ry="2.5" style="stroke:#181818;stroke-width:0.5;" width="151" x="299.5" y="393.1094"/><rect fill="#F1F1F1" height="10" style="stroke:#181818;stroke-width:0.5;" width="15" x="430.5" y="398.1094"/><rect fill="#F1F1F1" height="2" style="stroke:#181818;stroke-width:0.5;" width="4" x="428.5" y="400.1094"/><rect fill="#F1F1F1" height="2" style="stroke:#181818;stroke-width:0.5;" width="4" x="428.5" y="404.1094"/><text fill="#000000" font-family="sans-serif" font-size="14" lengthAdjust="spacing" textLength="111" x="314.5" y="427.6426">VesselsController</text></g><!--entity CreateVesselDto--><g id="elem_CreateVesselDto"><rect fill="#F1F1F1" height="47.6094" rx="2.5" ry="2.5" style="stroke:#181818;stroke-width:0.5;" width="147" x="22.5" y="543.1094"/><rect fill="#F1F1F1" height="10" style="stroke:#181818;stroke-width:0.5;" width="15" x="149.5" y="548.1094"/><rect fill="#F1F1F1" height="2" style="stroke:#181818;stroke-width:0.5;" width="4" x="147.5" y="550.1094"/><rect fill="#F1F1F1" height="2" style="stroke:#181818;stroke-width:0.5;" width="4" x="147.5" y="554.1094"/><text fill="#000000" font-family="sans-serif" font-size="14" lengthAdjust="spacing" textLength="107" x="37.5" y="577.6426">CreateVesselDto</text></g><!--entity UpdateVesselDto--><g id="elem_UpdateVesselDto"><rect fill="#F1F1F1" height="47.6094" rx="2.5" ry="2.5" style="stroke:#181818;stroke-width:0.5;" width="149" x="204.5" y="543.1094"/><rect fill="#F1F1F1" height="10" style="stroke:#181818;stroke-width:0.5;" width="15" x="333.5" y="548.1094"/><rect fill="#F1F1F1" height="2" style="stroke:#181818;stroke-width:0.5;" width="4" x="331.5" y="550.1094"/><rect fill="#F1F1F1" height="2" style="stroke:#181818;stroke-width:0.5;" width="4" x="331.5" y="554.1094"/><text fill="#000000" font-family="sans-serif" font-size="14" lengthAdjust="spacing" textLength="109" x="219.5" y="577.6426">UpdateVesselDto</text></g><!--entity VesselResponseDto--><g id="elem_VesselResponseDto"><rect fill="#F1F1F1" height="47.6094" rx="2.5" ry="2.5" style="stroke:#181818;stroke-width:0.5;" width="168" x="389" y="543.1094"/><rect fill="#F1F1F1" height="10" style="stroke:#181818;stroke-width:0.5;" width="15" x="537" y="548.1094"/><rect fill="#F1F1F1" height="2" style="stroke:#181818;stroke-width:0.5;" width="4" x="535" y="550.1094"/><rect fill="#F1F1F1" height="2" style="stroke:#181818;stroke-width:0.5;" width="4" x="535" y="554.1094"/><text fill="#000000" font-family="sans-serif" font-size="14" lengthAdjust="spacing" textLength="128" x="404" y="577.6426">VesselResponseDto</text></g><!--entity Db--><g id="elem_Db"><rect fill="#F1F1F1" height="47.6094" rx="2.5" ry="2.5" style="stroke:#181818;stroke-width:0.5;" width="132" x="629" y="543.1094"/><rect fill="#F1F1F1" height="10" style="stroke:#181818;stroke-width:0.5;" width="15" x="741" y="548.1094"/><rect fill="#F1F1F1" height="2" style="stroke:#181818;stroke-width:0.5;" width="4" x="739" y="550.1094"/><rect fill="#F1F1F1" height="2" style="stroke:#181818;stroke-width:0.5;" width="4" x="739" y="554.1094"/><text fill="#000000" font-family="sans-serif" font-size="14" lengthAdjust="spacing" textLength="92" x="644" y="577.6426">PortDbContext</text></g><!--entity Store--><g id="elem_Store"><path d="M613,703.6094 C613,693.6094 687,693.6094 687,693.6094 C687,693.6094 761,693.6094 761,703.6094 L761,730.2188 C761,740.2188 687,740.2188 687,740.2188 C687,740.2188 613,740.2188 613,730.2188 L613,703.6094 " fill="#F1F1F1" style="stroke:#181818;stroke-width:0.5;"/><path d="M613,703.6094 C613,713.6094 687,713.6094 687,713.6094 C687,713.6094 761,713.6094 761,703.6094 " fill="none" style="stroke:#181818;stroke-width:0.5;"/><text fill="#000000" font-family="sans-serif" font-size="14" lengthAdjust="spacing" textLength="128" x="623" y="732.1426">EF Core (InMemory)</text></g><!--entity Vessel--><g id="elem_Vessel"><rect fill="#F1F1F1" height="47.6094" rx="2.5" ry="2.5" style="stroke:#181818;stroke-width:0.5;" width="82" x="817" y="693.1094"/><rect fill="#F1F1F1" height="10" style="stroke:#181818;stroke-width:0.5;" width="15" x="879" y="698.1094"/><rect fill="#F1F1F1" height="2" style="stroke:#181818;stroke-width:0.5;" width="4" x="877" y="700.1094"/><rect fill="#F1F1F1" height="2" style="stroke:#181818;stroke-width:0.5;" width="4" x="877" y="704.1094"/><text fill="#000000" font-family="sans-serif" font-size="14" lengthAdjust="spacing" textLength="42" x="832" y="727.6426">Vessel</text></g><!--entity VesselType--><g id="elem_VesselType"><rect fill="#F1F1F1" height="47.6094" rx="2.5" ry="2.5" style="stroke:#181818;stroke-width:0.5;" width="114" x="817" y="820.6094"/><rect fill="#F1F1F1" height="10" style="stroke:#181818;stroke-width:0.5;" width="15" x="911" y="825.6094"/><rect fill="#F1F1F1" height="2" style="stroke:#181818;stroke-width:0.5;" width="4" x="909" y="827.6094"/><rect fill="#F1F1F1" height="2" style="stroke:#181818;stroke-width:0.5;" width="4" x="909" y="831.6094"/><text fill="#000000" font-family="sans-serif" font-size="14" lengthAdjust="spacing" textLength="74" x="832" y="855.1426">VesselType</text></g><!--entity Organization--><g id="elem_Organization"><rect fill="#F1F1F1" height="47.6094" rx="2.5" ry="2.5" style="stroke:#181818;stroke-width:0.5;" width="120" x="966" y="820.6094"/><rect fill="#F1F1F1" height="10" style="stroke:#181818;stroke-width:0.5;" width="15" x="1066" y="825.6094"/><rect fill="#F1F1F1" height="2" style="stroke:#181818;stroke-width:0.5;" width="4" x="1064" y="827.6094"/><rect fill="#F1F1F1" height="2" style="stroke:#181818;stroke-width:0.5;" width="4" x="1064" y="831.6094"/><text fill="#000000" font-family="sans-serif" font-size="14" lengthAdjust="spacing" textLength="80" x="981" y="855.1426">Organization</text></g><!--entity OrgId--><g id="elem_OrgId"><rect fill="#F1F1F1" height="47.6094" rx="2.5" ry="2.5" style="stroke:#181818;stroke-width:0.5;" width="165" x="920.5" y="946.6094"/><rect fill="#F1F1F1" height="10" style="stroke:#181818;stroke-width:0.5;" width="15" x="1065.5" y="951.6094"/><rect fill="#F1F1F1" height="2" style="stroke:#181818;stroke-width:0.5;" width="4" x="1063.5" y="953.6094"/><rect fill="#F1F1F1" height="2" style="stroke:#181818;stroke-width:0.5;" width="4" x="1063.5" y="957.6094"/><text fill="#000000" font-family="sans-serif" font-size="14" lengthAdjust="spacing" textLength="125" x="935.5" y="981.1426">OrganizationId (VO)</text></g><!--entity Officer--><g id="elem_Officer"><ellipse cx="375" cy="52.6094" fill="#F1F1F1" rx="8" ry="8" style="stroke:#181818;stroke-width:0.5;"/><path d="M375,60.6094 L375,87.6094 M362,68.6094 L388,68.6094 M375,87.6094 L362,102.6094 M375,87.6094 L388,102.6094 " fill="none" style="stroke:#181818;stroke-width:0.5;"/><text fill="#000000" font-family="sans-serif" font-size="14" lengthAdjust="spacing" textLength="132" x="309" y="118.6426">Port Authority Officer</text></g><!--link Officer to ApiClient--><g id="link_Officer_ApiClient"><path d="M375,122.2594 C375,153.1394 375,189.6194 375,215.6794 " fill="none" id="Officer-to-ApiClient" style="stroke:#181818;stroke-width:1.0;"/><polygon fill="#181818" points="375,221.6794,379,212.6794,375,216.6794,371,212.6794,375,221.6794" style="stroke:#181818;stroke-width:1.0;"/><text fill="#000000" font-family="sans-serif" font-size="13" lengthAdjust="spacing" textLength="69" x="376" y="166.6045">uses API UI</text></g><!--link ApiClient to C_V--><g id="link_ApiClient_C_V"><path d="M375,270.2494 C375,302.5294 375,354.7094 375,386.9694 " fill="none" id="ApiClient-to-C_V" style="stroke:#181818;stroke-width:1.0;"/><polygon fill="#181818" points="375,392.9694,379,383.9694,375,387.9694,371,383.9694,375,392.9694" style="stroke:#181818;stroke-width:1.0;"/><text fill="#000000" font-family="sans-serif" font-size="13" lengthAdjust="spacing" textLength="32" x="451" y="316.6045">HTTP</text><text fill="#000000" font-family="sans-serif" font-size="13" lengthAdjust="spacing" textLength="182" x="376" y="332.9561">POST / PUT / GET /api/vessels</text></g><!--link C_V to Db--><g id="link_C_V_Db"><path d="M436.44,441.1594 C475.94,456.4894 528.08,477.6794 573,499.1094 C601.24,512.5894 626.9203,526.593 650.5503,540.093 " fill="none" id="C_V-to-Db" style="stroke:#181818;stroke-width:1.0;"/><polygon fill="#181818" points="655.76,543.0694,649.9296,535.1317,651.4186,540.5891,645.9612,542.078,655.76,543.0694" style="stroke:#181818;stroke-width:1.0;"/><text fill="#000000" font-family="sans-serif" font-size="13" lengthAdjust="spacing" textLength="107" x="553" y="487.6045">CRUD via EF Core</text></g><!--link Db to Store--><g id="link_Db_Store"><path d="M693.75,591.2294 C692.25,619.0394 690.0641,659.4281 688.5641,687.1581 " fill="none" id="Db-to-Store" style="stroke:#181818;stroke-width:1.0;"/><polygon fill="#181818" points="688.24,693.1494,692.7203,684.3786,688.5101,688.1567,684.732,683.9465,688.24,693.1494" style="stroke:#181818;stroke-width:1.0;"/><text fill="#000000" font-family="sans-serif" font-size="13" lengthAdjust="spacing" textLength="68" x="693" y="637.6045">persist data</text></g><!--link C_V to CreateVesselDto--><g id="link_C_V_CreateVesselDto"><path d="M311.9,441.1294 C274.56,455.7494 226.92,476.2094 187,499.1094 C164.71,511.8994 146.1075,525.4192 128.6575,539.2092 " fill="none" id="C_V-to-CreateVesselDto" style="stroke:#181818;stroke-width:1.0;stroke-dasharray:7.0,7.0;"/><polygon fill="#181818" points="123.95,542.9294,133.4913,540.4875,127.8729,539.8293,128.5312,534.2108,123.95,542.9294" style="stroke:#181818;stroke-width:1.0;"/></g><!--link C_V to UpdateVesselDto--><g id="link_C_V_UpdateVesselDto"><path d="M360,441.2294 C342.07,468.8794 315.4944,509.8351 297.4744,537.6251 " fill="none" id="C_V-to-UpdateVesselDto" style="stroke:#181818;stroke-width:1.0;stroke-dasharray:7.0,7.0;"/><polygon fill="#181818" points="294.21,542.6594,302.4628,537.2842,296.9303,538.4642,295.7504,532.9317,294.21,542.6594" style="stroke:#181818;stroke-width:1.0;"/></g><!--link C_V to VesselResponseDto--><g id="link_C_V_VesselResponseDto"><path d="M390.31,441.2294 C408.62,468.8794 435.7576,509.8666 454.1576,537.6566 " fill="none" id="C_V-to-VesselResponseDto" style="stroke:#181818;stroke-width:1.0;stroke-dasharray:7.0,7.0;"/><polygon fill="#181818" points="457.47,542.6594,455.8366,532.9469,454.7097,538.4904,449.1662,537.3634,457.47,542.6594" style="stroke:#181818;stroke-width:1.0;"/></g><!--link Db to Vessel--><g id="link_Db_Vessel"><path d="M729.23,591.2394 C742.38,600.6294 757.29,611.8894 770,623.1094 C795,645.1694 816.9572,668.8042 834.1272,688.3242 " fill="none" id="Db-to-Vessel" style="stroke:#181818;stroke-width:1.0;stroke-dasharray:7.0,7.0;"/><polygon fill="#181818" points="838.09,692.8294,835.1493,683.4298,834.7877,689.0751,829.1424,688.7135,838.09,692.8294" style="stroke:#181818;stroke-width:1.0;"/></g><!--link Db to VesselType--><g id="link_Db_VesselType"><path d="M761.04,581.5894 C848.91,603.7194 999,657.3594 1049,772.6094 C1076.02,834.8994 964.73,815.8394 949,820.6094 C943.27,822.3494 943.0292,822.4197 937.0592,824.2397 " fill="none" id="Db-to-VesselType" style="stroke:#181818;stroke-width:1.0;stroke-dasharray:7.0,7.0;"/><polygon fill="#181818" points="931.32,825.9894,941.0953,827.1911,936.1027,824.5313,938.7624,819.5388,931.32,825.9894" style="stroke:#181818;stroke-width:1.0;"/></g><!--link Db to Organization--><g id="link_Db_Organization"><path d="M761.24,568.7394 C831.66,572.7694 942.63,589.1494 1015,649.1094 C1067.87,692.9194 1102.66,726.9294 1077,790.6094 C1072.47,801.8594 1068.5452,807.8495 1060.0352,816.2295 " fill="none" id="Db-to-Organization" style="stroke:#181818;stroke-width:1.0;stroke-dasharray:7.0,7.0;"/><polygon fill="#181818" points="1055.76,820.4394,1064.9793,816.9747,1059.3226,816.9312,1059.3662,811.2745,1055.76,820.4394" style="stroke:#181818;stroke-width:1.0;"/></g><!--link Vessel to VesselType--><g id="link_Vessel_VesselType"><path d="M851.13,741.1594 C847.85,755.5094 845.34,774.2694 849,790.6094 C851.29,800.8394 853.0805,806.056 857.6305,815.046 " fill="none" id="Vessel-to-VesselType" style="stroke:#181818;stroke-width:1.0;"/><polygon fill="#181818" points="860.34,820.3994,859.8448,810.563,858.0821,815.9382,852.7069,814.1756,860.34,820.3994" style="stroke:#181818;stroke-width:1.0;"/><text fill="#000000" font-family="sans-serif" font-size="13" lengthAdjust="spacing" textLength="78" x="850" y="787.1045">VesselTypeId</text></g><!--link Vessel to Organization--><g id="link_Vessel_Organization"><path d="M890.24,741.2794 C903.53,750.8994 919.06,762.2294 933,772.6094 C954.18,788.3894 973.0741,802.7914 991.2241,816.7514 " fill="none" id="Vessel-to-Organization" style="stroke:#181818;stroke-width:1.0;"/><polygon fill="#181818" points="995.98,820.4094,991.2848,811.7517,992.0167,817.361,986.4074,818.093,995.98,820.4094" style="stroke:#181818;stroke-width:1.0;"/><text fill="#000000" font-family="sans-serif" font-size="13" lengthAdjust="spacing" textLength="83" x="957" y="787.1045">OrganizationId</text></g><!--link Organization to OrgId--><g id="link_Organization_OrgId"><path d="M1021.73,868.6394 C1017.62,890.7794 1012.5434,918.1498 1008.4234,940.3798 " fill="none" id="Organization-to-OrgId" style="stroke:#181818;stroke-width:1.0;"/><polygon fill="#181818" points="1007.33,946.2794,1012.9031,938.159,1008.2412,941.3631,1005.0371,936.7011,1007.33,946.2794" style="stroke:#181818;stroke-width:1.0;"/><text fill="#000000" font-family="sans-serif" font-size="13" lengthAdjust="spacing" textLength="21" x="1016" y="913.1045">has</text></g><!--SRC=[RLF1Zfim4BtxAqOvjBk7PAKUzr0fWjqjKYjG0kcXNLK69iGgsCXsLgLL_xrZcmJehf0GVZD-C_FUO8Lj4VQ3iTX1B7YZUGThAFRmOKCFxB0H5DFm3eg-vXRXWCPWIu5AwTemnYkhDAmofIrip_QajB03fCUZg52lW9lBDsFlORrUGzGAb1O-yu5e2M0QAyjbGtsivh4L_640t_OLRxc68e4xs6R9UFtP4Mzx4KxixuNyAvO-QsANgYRY4HyvmmmcKj9grRQeFLtqup0HRVk-5HMtGiaPMS-hdxmXldaupbCp4aSQIQD07rlrxB2Wsn8BfnsQNac37hrMJkHHSsFrkR9dZMyLNsQCfPq1SUb6mbz1dhWad6hpaXkwzV08aIB2cqH-mKxfuTQxioVxSAeUguwBDqSEaOM2irdoeKT_J7N3fVZjfNa593NS7D9RtnxXIJqVczQCbecoZ2yyhWrzVvoSXdiu6pJUuo9X4-woo42AVyhpxBlCqdrE6vCLxltqG6_UYxkNO3npcUv6NDA5Q5V4y28uZ0enGbtGAqFn7hMXdy1BwReblq5ZwmSo9z47kis66bZQVyN_Mu4h_ceD77qMog6i43fQtjRrCsKlJqxs2p8NslSPh5osElw-Rhw9WOQS3cJAB6bEIcbBCzaYEgQJn_TmueRz0m00]--></g></svg>