<?xml version="1.0" encoding="us-ascii" standalone="no"?><svg xmlns="http://www.w3.org/2000/svg" xmlns:xlink="http://www.w3.org/1999/xlink" contentStyleType="text/css" height="960px" preserveAspectRatio="none" style="width:655px;height:960px;background:#FFFFFF;" version="1.1" viewBox="0 0 655 960" width="655px" zoomAndPan="magnify"><defs/><g><text fill="#000000" font-family="sans-serif" font-size="14" font-weight="bold" lengthAdjust="spacing" textLength="284" x="178.5" y="24.5332">C4 Container - US 2.2.10 View VVN Status</text><!--cluster Client Layer--><g id="cluster_Client Layer"><polygon fill="none" points="248.5,213.1094,258.5,203.1094,407.5,203.1094,407.5,298.1094,397.5,308.1094,248.5,308.1094,248.5,213.1094" style="stroke:#181818;stroke-width:1.0;"/><line style="stroke:#181818;stroke-width:1.0;" x1="397.5" x2="407.5" y1="213.1094" y2="203.1094"/><line style="stroke:#181818;stroke-width:1.0;" x1="248.5" x2="397.5" y1="213.1094" y2="213.1094"/><line style="stroke:#181818;stroke-width:1.0;" x1="397.5" x2="397.5" y1="213.1094" y2="308.1094"/><text fill="#000000" font-family="sans-serif" font-size="14" font-weight="bold" lengthAdjust="spacing" textLength="83" x="282.5" y="230.6426">Client Layer</text></g><!--cluster Web API--><g id="cluster_Web API"><polygon fill="none" points="188.5,368.1094,198.5,358.1094,466.5,358.1094,466.5,453.1094,456.5,463.1094,188.5,463.1094,188.5,368.1094" style="stroke:#181818;stroke-width:1.0;"/><line style="stroke:#181818;stroke-width:1.0;" x1="456.5" x2="466.5" y1="368.1094" y2="358.1094"/><line style="stroke:#181818;stroke-width:1.0;" x1="188.5" x2="456.5" y1="368.1094" y2="368.1094"/><line style="stroke:#181818;stroke-width:1.0;" x1="456.5" x2="456.5" y1="368.1094" y2="463.1094"/><text fill="#000000" font-family="sans-serif" font-size="14" font-weight="bold" lengthAdjust="spacing" textLength="57" x="295" y="385.6426">Web API</text></g><!--cluster Application Layer--><g id="cluster_Application Layer"><polygon fill="none" points="233.5,523.1094,243.5,513.1094,581.5,513.1094,581.5,608.1094,571.5,618.1094,233.5,618.1094,233.5,523.1094" style="stroke:#181818;stroke-width:1.0;"/><line style="stroke:#181818;stroke-width:1.0;" x1="571.5" x2="581.5" y1="523.1094" y2="513.1094"/><line style="stroke:#181818;stroke-width:1.0;" x1="233.5" x2="571.5" y1="523.1094" y2="523.1094"/><line style="stroke:#181818;stroke-width:1.0;" x1="571.5" x2="571.5" y1="523.1094" y2="618.1094"/><text fill="#000000" font-family="sans-serif" font-size="14" font-weight="bold" lengthAdjust="spacing" textLength="120" x="343.5" y="540.6426">Application Layer</text></g><!--cluster Dom--><g id="cluster_Dom"><polygon fill="none" points="20.5,692.6094,30.5,682.6094,357.5,682.6094,357.5,933.6094,347.5,943.6094,20.5,943.6094,20.5,692.6094" style="stroke:#181818;stroke-width:1.0;"/><line style="stroke:#181818;stroke-width:1.0;" x1="347.5" x2="357.5" y1="692.6094" y2="682.6094"/><line style="stroke:#181818;stroke-width:1.0;" x1="20.5" x2="347.5" y1="692.6094" y2="692.6094"/><line style="stroke:#181818;stroke-width:1.0;" x1="347.5" x2="347.5" y1="692.6094" y2="943.6094"/><text fill="#000000" font-family="sans-serif" font-size="14" font-weight="bold" lengthAdjust="spacing" textLength="52" x="159" y="710.1426">Domain</text></g><!--entity Client--><g id="elem_Client"><rect fill="#F1F1F1" height="47.6094" rx="2.5" ry="2.5" style="stroke:#181818;stroke-width:0.5;" width="125" x="265" y="244.1094"/><rect fill="#F1F1F1" height="10" style="stroke:#181818;stroke-width:0.5;" width="15" x="370" y="249.1094"/><rect fill="#F1F1F1" height="2" style="stroke:#181818;stroke-width:0.5;" width="4" x="368" y="251.1094"/><rect fill="#F1F1F1" height="2" style="stroke:#181818;stroke-width:0.5;" width="4" x="368" y="255.1094"/><text fill="#000000" font-family="sans-serif" font-size="14" lengthAdjust="spacing" textLength="85" x="280" y="278.6426">UI / API Client</text></g><!--entity Ctl--><g id="elem_Ctl"><rect fill="#F1F1F1" height="47.6094" rx="2.5" ry="2.5" style="stroke:#181818;stroke-width:0.5;" width="246" x="204.5" y="399.1094"/><rect fill="#F1F1F1" height="10" style="stroke:#181818;stroke-width:0.5;" width="15" x="430.5" y="404.1094"/><rect fill="#F1F1F1" height="2" style="stroke:#181818;stroke-width:0.5;" width="4" x="428.5" y="406.1094"/><rect fill="#F1F1F1" height="2" style="stroke:#181818;stroke-width:0.5;" width="4" x="428.5" y="410.1094"/><text fill="#000000" font-family="sans-serif" font-size="14" lengthAdjust="spacing" textLength="206" x="219.5" y="433.6426">VesselVisitNotificationsController</text></g><!--entity Svc--><g id="elem_Svc"><rect fill="#F1F1F1" height="47.6094" rx="2.5" ry="2.5" style="stroke:#181818;stroke-width:0.5;" width="155" x="250" y="554.1094"/><rect fill="#F1F1F1" height="10" style="stroke:#181818;stroke-width:0.5;" width="15" x="385" y="559.1094"/><rect fill="#F1F1F1" height="2" style="stroke:#181818;stroke-width:0.5;" width="4" x="383" y="561.1094"/><rect fill="#F1F1F1" height="2" style="stroke:#181818;stroke-width:0.5;" width="4" x="383" y="565.1094"/><text fill="#000000" font-family="sans-serif" font-size="14" lengthAdjust="spacing" textLength="115" x="265" y="588.6426">VesselVisitService</text></g><!--entity Auth--><g id="elem_Auth"><rect fill="#F1F1F1" height="47.6094" rx="2.5" ry="2.5" style="stroke:#181818;stroke-width:0.5;" width="125" x="440" y="554.1094"/><rect fill="#F1F1F1" height="10" style="stroke:#181818;stroke-width:0.5;" width="15" x="545" y="559.1094"/><rect fill="#F1F1F1" height="2" style="stroke:#181818;stroke-width:0.5;" width="4" x="543" y="561.1094"/><rect fill="#F1F1F1" height="2" style="stroke:#181818;stroke-width:0.5;" width="4" x="543" y="565.1094"/><text fill="#000000" font-family="sans-serif" font-size="14" lengthAdjust="spacing" textLength="85" x="455" y="588.6426">CallerContext</text></g><!--entity Vvn--><g id="elem_Vvn"><rect fill="#F1F1F1" height="47.6094" rx="2.5" ry="2.5" style="stroke:#181818;stroke-width:0.5;" width="177" x="145" y="723.6094"/><rect fill="#F1F1F1" height="10" style="stroke:#181818;stroke-width:0.5;" width="15" x="302" y="728.6094"/><rect fill="#F1F1F1" height="2" style="stroke:#181818;stroke-width:0.5;" width="4" x="300" y="730.6094"/><rect fill="#F1F1F1" height="2" style="stroke:#181818;stroke-width:0.5;" width="4" x="300" y="734.6094"/><text fill="#000000" font-family="sans-serif" font-size="14" lengthAdjust="spacing" textLength="137" x="160" y="758.1426">VesselVisitNotification</text></g><!--entity DA--><g id="elem_DA"><rect fill="#F1F1F1" height="47.6094" rx="2.5" ry="2.5" style="stroke:#181818;stroke-width:0.5;" width="145" x="37" y="879.6094"/><rect fill="#F1F1F1" height="10" style="stroke:#181818;stroke-width:0.5;" width="15" x="162" y="884.6094"/><rect fill="#F1F1F1" height="2" style="stroke:#181818;stroke-width:0.5;" width="4" x="160" y="886.6094"/><rect fill="#F1F1F1" height="2" style="stroke:#181818;stroke-width:0.5;" width="4" x="160" y="890.6094"/><text fill="#000000" font-family="sans-serif" font-size="14" lengthAdjust="spacing" textLength="105" x="52" y="914.1426">DockAssignment</text></g><!--entity Log--><g id="elem_Log"><rect fill="#F1F1F1" height="47.6094" rx="2.5" ry="2.5" style="stroke:#181818;stroke-width:0.5;" width="118" x="217.5" y="879.6094"/><rect fill="#F1F1F1" height="10" style="stroke:#181818;stroke-width:0.5;" width="15" x="315.5" y="884.6094"/><rect fill="#F1F1F1" height="2" style="stroke:#181818;stroke-width:0.5;" width="4" x="313.5" y="886.6094"/><rect fill="#F1F1F1" height="2" style="stroke:#181818;stroke-width:0.5;" width="4" x="313.5" y="890.6094"/><text fill="#000000" font-family="sans-serif" font-size="14" lengthAdjust="spacing" textLength="78" x="232.5" y="914.1426">DecisionLog</text></g><!--entity Agent--><g id="elem_Agent"><ellipse cx="327.5" cy="52.6094" fill="#F1F1F1" rx="8" ry="8" style="stroke:#181818;stroke-width:0.5;"/><path d="M327.5,60.6094 L327.5,87.6094 M314.5,68.6094 L340.5,68.6094 M327.5,87.6094 L314.5,102.6094 M327.5,87.6094 L340.5,102.6094 " fill="none" style="stroke:#181818;stroke-width:0.5;"/><text fill="#000000" font-family="sans-serif" font-size="14" lengthAdjust="spacing" textLength="96" x="279.5" y="118.6426">Shipping Agent</text><text fill="#000000" font-family="sans-serif" font-size="14" lengthAdjust="spacing" textLength="96" x="279.5" y="136.252">Representative</text></g><!--entity Db--><g id="elem_Db"><path d="M377.5,734.1094 C377.5,724.1094 424.5,724.1094 424.5,724.1094 C424.5,724.1094 471.5,724.1094 471.5,734.1094 L471.5,760.7188 C471.5,770.7188 424.5,770.7188 424.5,770.7188 C424.5,770.7188 377.5,770.7188 377.5,760.7188 L377.5,734.1094 " fill="#F1F1F1" style="stroke:#181818;stroke-width:0.5;"/><path d="M377.5,734.1094 C377.5,744.1094 424.5,744.1094 424.5,744.1094 C424.5,744.1094 471.5,744.1094 471.5,734.1094 " fill="none" style="stroke:#181818;stroke-width:0.5;"/><text fill="#000000" font-family="sans-serif" font-size="14" lengthAdjust="spacing" textLength="74" x="387.5" y="762.6426">Persistence</text></g><g id="elem_GMN23"><path d="M507,693.6094 L507,801.7188 L648,801.7188 L648,703.6094 L638,693.6094 L507,693.6094 " fill="#FEFFDD" style="stroke:#181818;stroke-width:0.5;"/><path d="M638,693.6094 L638,703.6094 L648,703.6094 L638,693.6094 " fill="#FEFFDD" style="stroke:#181818;stroke-width:1.0;"/><text fill="#000000" font-family="sans-serif" font-size="13" lengthAdjust="spacing" textLength="40" x="513" y="712.1045">Filters:</text><text fill="#000000" font-family="sans-serif" font-size="13" lengthAdjust="spacing" textLength="84" x="513" y="728.4561">- Vessel (IMO)</text><text fill="#000000" font-family="sans-serif" font-size="13" lengthAdjust="spacing" textLength="111" x="513" y="744.8076">- Status (all states)</text><text fill="#000000" font-family="sans-serif" font-size="13" lengthAdjust="spacing" textLength="93" x="513" y="761.1592">- Representative</text><text fill="#000000" font-family="sans-serif" font-size="13" lengthAdjust="spacing" textLength="72" x="513" y="777.5107">- Time range</text><text fill="#000000" font-family="sans-serif" font-size="13" lengthAdjust="spacing" textLength="120" x="513" y="793.8623">- Organization scope</text></g><g id="elem_GMN26"><path d="M6,540.6094 L6,616.0156 A0,0 0 0 0 6,616.0156 L215,616.0156 A0,0 0 0 0 215,616.0156 L215,550.6094 L205,540.6094 L166.39,540.6094 L294.54,447.3494 L158.39,540.6094 L6,540.6094 A0,0 0 0 0 6,540.6094 " fill="#FEFFDD" style="stroke:#181818;stroke-width:0.5;"/><path d="M205,540.6094 L205,550.6094 L215,550.6094 L205,540.6094 " fill="#FEFFDD" style="stroke:#181818;stroke-width:0.5;"/><text fill="#000000" font-family="sans-serif" font-size="13" lengthAdjust="spacing" textLength="49" x="12" y="559.1045">Returns:</text><text fill="#000000" font-family="sans-serif" font-size="13" lengthAdjust="spacing" textLength="188" x="12" y="575.4561">- APPROVED: dock assignment</text><text fill="#000000" font-family="sans-serif" font-size="13" lengthAdjust="spacing" textLength="175" x="12" y="591.8076">- REJECTED: rejection reason</text><text fill="#000000" font-family="sans-serif" font-size="13" lengthAdjust="spacing" textLength="131" x="12" y="608.1592">- All: audit timestamps</text></g><!--link Agent to Client--><g id="link_Agent_Client"><path d="M327.5,139.3694 C327.5,173.0894 327.5,211.1794 327.5,237.7494 " fill="none" id="Agent-to-Client" style="stroke:#181818;stroke-width:1.0;"/><polygon fill="#181818" points="327.5,243.7494,331.5,234.7494,327.5,238.7494,323.5,234.7494,327.5,243.7494" style="stroke:#181818;stroke-width:1.0;"/><text fill="#000000" font-family="sans-serif" font-size="13" lengthAdjust="spacing" textLength="95" x="328.5" y="183.6045">view VVN status</text></g><!--link Client to Ctl--><g id="link_Client_Ctl"><path d="M327.5,292.3494 C327.5,321.0994 327.5,363.7994 327.5,392.6494 " fill="none" id="Client-to-Ctl" style="stroke:#181818;stroke-width:1.0;"/><polygon fill="#181818" points="327.5,398.6494,331.5,389.6494,327.5,393.6494,323.5,389.6494,327.5,398.6494" style="stroke:#181818;stroke-width:1.0;"/><text fill="#000000" font-family="sans-serif" font-size="13" lengthAdjust="spacing" textLength="88" x="328.5" y="338.6045">GET with filters</text></g><!--link Ctl to Auth--><g id="link_Ctl_Auth"><path d="M364.46,447.2894 C378.4,456.5994 394.11,467.7994 407.5,479.1094 C435.37,502.6594 460.0976,528.8604 478.5576,549.5704 " fill="none" id="Ctl-to-Auth" style="stroke:#181818;stroke-width:1.0;"/><polygon fill="#181818" points="482.55,554.0494,479.5474,544.6694,479.223,550.3169,473.5755,549.9925,482.55,554.0494" style="stroke:#181818;stroke-width:1.0;"/><text fill="#000000" font-family="sans-serif" font-size="13" lengthAdjust="spacing" textLength="103" x="427.5" y="493.6045">verify organization</text></g><!--link Ctl to Svc--><g id="link_Ctl_Svc"><path d="M327.5,447.3494 C327.5,476.0994 327.5,518.7994 327.5,547.6494 " fill="none" id="Ctl-to-Svc" style="stroke:#181818;stroke-width:1.0;"/><polygon fill="#181818" points="327.5,553.6494,331.5,544.6494,327.5,548.6494,323.5,544.6494,327.5,553.6494" style="stroke:#181818;stroke-width:1.0;"/><text fill="#000000" font-family="sans-serif" font-size="13" lengthAdjust="spacing" textLength="70" x="328.5" y="493.6045">query VVNs</text></g><!--link Svc to Db--><g id="link_Svc_Db"><path d="M351.17,602.1494 C362.67,614.2694 376,629.8694 385.5,645.6094 C400.65,670.7194 410.082,696.9866 416.492,718.1666 " fill="none" id="Svc-to-Db" style="stroke:#181818;stroke-width:1.0;"/><polygon fill="#181818" points="418.23,723.9094,419.4515,714.1366,416.7817,719.1237,411.7945,716.4539,418.23,723.9094" style="stroke:#181818;stroke-width:1.0;"/><text fill="#000000" font-family="sans-serif" font-size="13" lengthAdjust="spacing" textLength="103" x="394.5" y="660.1045">retrieve with filters</text></g><!--link Svc to Vvn--><g id="link_Svc_Vvn"><path d="M273.91,602.1194 C256.17,612.6294 238.43,626.9694 228.5,645.6094 C215.62,669.7794 218.7713,696.1948 224.3913,717.6748 " fill="none" id="Svc-to-Vvn" style="stroke:#181818;stroke-width:1.0;stroke-dasharray:7.0,7.0;"/><polygon fill="#181818" points="225.91,723.4794,227.5017,713.76,224.6444,718.6422,219.7622,715.7849,225.91,723.4794" style="stroke:#181818;stroke-width:1.0;"/><text fill="#000000" font-family="sans-serif" font-size="13" lengthAdjust="spacing" textLength="151" x="229.5" y="660.1045">filter by status/vessel/time</text></g><!--reverse link Vvn to DA--><g id="link_Vvn_DA"><path d="M180.506,778.0703 C157.816,792.4103 141.54,806.4994 125.5,831.6094 C116.38,845.8794 112.43,864.6594 110.73,879.3294 " fill="none" id="Vvn-backto-DA" style="stroke:#181818;stroke-width:1.0;"/><polygon fill="none" points="190.65,771.6594,183.441,771.4835,180.506,778.0703,187.715,778.2462,190.65,771.6594" style="stroke:#181818;stroke-width:1.0;"/><text fill="#000000" font-family="sans-serif" font-size="13" lengthAdjust="spacing" textLength="122" x="126.5" y="846.1045">approved &#8594; dock info</text></g><!--reverse link Vvn to Log--><g id="link_Vvn_Log"><path d="M243.1651,783.2279 C251.2651,812.2579 261.89,850.2894 270.02,879.3994 " fill="none" id="Vvn-backto-Log" style="stroke:#181818;stroke-width:1.0;"/><polygon fill="none" points="239.94,771.6694,237.6997,778.5236,243.1651,783.2279,245.4054,776.3736,239.94,771.6694" style="stroke:#181818;stroke-width:1.0;"/><text fill="#000000" font-family="sans-serif" font-size="13" lengthAdjust="spacing" textLength="104" x="261.5" y="846.1045">rejected &#8594; reason</text></g><!--link Vvn to GMN23--><g id="link_Vvn_GMN23"><path d="M258.94,723.4694 C286.01,699.5894 331.29,664.6094 378,650.3594 C417.96,638.1694 433.09,635.1594 472,650.3594 C495.2,659.4194 516.38,676.2394 533.57,693.3794 " fill="none" id="Vvn-GMN23" style="stroke:#181818;stroke-width:1.0;stroke-dasharray:7.0,7.0;"/></g><!--SRC=[VLAnajD03Etz5PfKH-44RgXIt8md3aoOuvAvv4m156jRSHQSNREh-0WCBH_09_8bIBjExj9GUIqzFJqzYJIr2BFNCBE6b3Re88M7DLoFhyUlNaAXyH6AuWxMfEZWaqHLP1sCrZlTTTeqa3Lew9EvnywXvwSYtUC8b8-P936sHXZDMir_SAkEw4RmCm7u-B202MIh1SJSPwc9p-JNgUm3bW8PAWhq7jj2UqrtblHMLzpD6Y_IdMrRT964sYU6hElQ0NVH_HdN6bslAmorwxwIx4m9c_3YzwWiEz1EM6j5gbIUcLVelFQ4fehpvkNGChTxDZB6xFw_qWDrqHk1vBRwcdcl6xC_sP5d8O4LrrbpQviGvQye2Vv2cjuChi4K-jEsVDpMa0WOQXdmThw1HqqxsEgMM7yYOKdBU4A0Jc-FO5sZZFuH99uXR0qZlXtG7QM7JoGWYRpak4Do6dkyf1V8U7mZ8p8cHg4y3lecVN1bGdgFYK1iclBCZ5HTvsoFDVpz_GTgDWQqsTepXXq8BRzWHGF8eV8ibbT024utEmAx7Qnz4zLC-Pb2t0HSBTulNuH0l6ouufK7NUXZ_FAaGsZ3Gi4fqyJVvJERm5UsmmHD3I9X459Q8Zu1LY972Sn91sS69TbgTRyivlaqJgZEku_jv-_ciurauvpIOnWo5BSjstIeDO7OnyBtdNzg_my0]--></g></svg>