<?xml version="1.0" encoding="us-ascii" standalone="no"?><svg xmlns="http://www.w3.org/2000/svg" xmlns:xlink="http://www.w3.org/1999/xlink" contentStyleType="text/css" height="909px" preserveAspectRatio="none" style="width:925px;height:909px;background:#FFFFFF;" version="1.1" viewBox="0 0 925 909" width="925px" zoomAndPan="magnify"><defs/><g><text fill="#000000" font-family="sans-serif" font-size="14" font-weight="bold" lengthAdjust="spacing" textLength="308" x="301.5" y="24.5332">C4 Container - US 2.2.12 Physical Resources</text><!--cluster Client Layer--><g id="cluster_Client Layer"><polygon fill="none" points="385,196.1094,395,186.1094,544,186.1094,544,281.1094,534,291.1094,385,291.1094,385,196.1094" style="stroke:#181818;stroke-width:1.0;"/><line style="stroke:#181818;stroke-width:1.0;" x1="534" x2="544" y1="196.1094" y2="186.1094"/><line style="stroke:#181818;stroke-width:1.0;" x1="385" x2="534" y1="196.1094" y2="196.1094"/><line style="stroke:#181818;stroke-width:1.0;" x1="534" x2="534" y1="196.1094" y2="291.1094"/><text fill="#000000" font-family="sans-serif" font-size="14" font-weight="bold" lengthAdjust="spacing" textLength="83" x="419" y="213.6426">Client Layer</text></g><!--cluster Web API--><g id="cluster_Web API"><polygon fill="none" points="337,351.1094,347,341.1094,591,341.1094,591,436.1094,581,446.1094,337,446.1094,337,351.1094" style="stroke:#181818;stroke-width:1.0;"/><line style="stroke:#181818;stroke-width:1.0;" x1="581" x2="591" y1="351.1094" y2="341.1094"/><line style="stroke:#181818;stroke-width:1.0;" x1="337" x2="581" y1="351.1094" y2="351.1094"/><line style="stroke:#181818;stroke-width:1.0;" x1="581" x2="581" y1="351.1094" y2="446.1094"/><text fill="#000000" font-family="sans-serif" font-size="14" font-weight="bold" lengthAdjust="spacing" textLength="57" x="431.5" y="368.6426">Web API</text></g><!--cluster Application / Repositories--><g id="cluster_Application / Repositories"><polygon fill="none" points="98,506.1094,108,496.1094,908,496.1094,908,591.1094,898,601.1094,98,601.1094,98,506.1094" style="stroke:#181818;stroke-width:1.0;"/><line style="stroke:#181818;stroke-width:1.0;" x1="898" x2="908" y1="506.1094" y2="496.1094"/><line style="stroke:#181818;stroke-width:1.0;" x1="98" x2="898" y1="506.1094" y2="506.1094"/><line style="stroke:#181818;stroke-width:1.0;" x1="898" x2="898" y1="506.1094" y2="601.1094"/><text fill="#000000" font-family="sans-serif" font-size="14" font-weight="bold" lengthAdjust="spacing" textLength="180" x="409" y="523.6426">Application / Repositories</text></g><!--cluster Db--><g id="cluster_Db"><path d="M6,661.1094 C6,651.1094 289,651.1094 289,651.1094 C289,651.1094 572,651.1094 572,661.1094 L572,882.1094 C572,892.1094 289,892.1094 289,892.1094 C289,892.1094 6,892.1094 6,882.1094 L6,661.1094 " fill="none" style="stroke:#181818;stroke-width:1.0;"/><path d="M6,661.1094 C6,671.1094 289,671.1094 289,671.1094 C289,671.1094 572,671.1094 572,661.1094 " fill="none" style="stroke:#181818;stroke-width:1.0;"/><text fill="#000000" font-family="sans-serif" font-size="14" font-weight="bold" lengthAdjust="spacing" textLength="84" x="247" y="687.6426">Persistence</text></g><!--entity Client--><g id="elem_Client"><rect fill="#F1F1F1" height="47.6094" rx="2.5" ry="2.5" style="stroke:#181818;stroke-width:0.5;" width="125" x="401.5" y="227.1094"/><rect fill="#F1F1F1" height="10" style="stroke:#181818;stroke-width:0.5;" width="15" x="506.5" y="232.1094"/><rect fill="#F1F1F1" height="2" style="stroke:#181818;stroke-width:0.5;" width="4" x="504.5" y="234.1094"/><rect fill="#F1F1F1" height="2" style="stroke:#181818;stroke-width:0.5;" width="4" x="504.5" y="238.1094"/><text fill="#000000" font-family="sans-serif" font-size="14" lengthAdjust="spacing" textLength="85" x="416.5" y="261.6426">UI / API Client</text></g><!--entity Ctl--><g id="elem_Ctl"><rect fill="#F1F1F1" height="47.6094" rx="2.5" ry="2.5" style="stroke:#181818;stroke-width:0.5;" width="222" x="353" y="382.1094"/><rect fill="#F1F1F1" height="10" style="stroke:#181818;stroke-width:0.5;" width="15" x="555" y="387.1094"/><rect fill="#F1F1F1" height="2" style="stroke:#181818;stroke-width:0.5;" width="4" x="553" y="389.1094"/><rect fill="#F1F1F1" height="2" style="stroke:#181818;stroke-width:0.5;" width="4" x="553" y="393.1094"/><text fill="#000000" font-family="sans-serif" font-size="14" lengthAdjust="spacing" textLength="182" x="368" y="416.6426">PhysicalResourcesController</text></g><!--entity Repo--><g id="elem_Repo"><rect fill="#F1F1F1" height="47.6094" rx="2.5" ry="2.5" style="stroke:#181818;stroke-width:0.5;" width="221" x="114.5" y="537.1094"/><rect fill="#F1F1F1" height="10" style="stroke:#181818;stroke-width:0.5;" width="15" x="315.5" y="542.1094"/><rect fill="#F1F1F1" height="2" style="stroke:#181818;stroke-width:0.5;" width="4" x="313.5" y="544.1094"/><rect fill="#F1F1F1" height="2" style="stroke:#181818;stroke-width:0.5;" width="4" x="313.5" y="548.1094"/><text fill="#000000" font-family="sans-serif" font-size="14" lengthAdjust="spacing" textLength="181" x="129.5" y="571.6426">PhysicalResourceRepository</text></g><!--entity QRepo--><g id="elem_QRepo"><rect fill="#F1F1F1" height="47.6094" rx="2.5" ry="2.5" style="stroke:#181818;stroke-width:0.5;" width="186" x="371" y="537.1094"/><rect fill="#F1F1F1" height="10" style="stroke:#181818;stroke-width:0.5;" width="15" x="537" y="542.1094"/><rect fill="#F1F1F1" height="2" style="stroke:#181818;stroke-width:0.5;" width="4" x="535" y="544.1094"/><rect fill="#F1F1F1" height="2" style="stroke:#181818;stroke-width:0.5;" width="4" x="535" y="548.1094"/><text fill="#000000" font-family="sans-serif" font-size="14" lengthAdjust="spacing" textLength="146" x="386" y="571.6426">QualificationRepository</text></g><!--entity AreaRepo--><g id="elem_AreaRepo"><rect fill="#F1F1F1" height="47.6094" rx="2.5" ry="2.5" style="stroke:#181818;stroke-width:0.5;" width="300" x="592" y="537.1094"/><rect fill="#F1F1F1" height="10" style="stroke:#181818;stroke-width:0.5;" width="15" x="872" y="542.1094"/><rect fill="#F1F1F1" height="2" style="stroke:#181818;stroke-width:0.5;" width="4" x="870" y="544.1094"/><rect fill="#F1F1F1" height="2" style="stroke:#181818;stroke-width:0.5;" width="4" x="870" y="548.1094"/><text fill="#000000" font-family="sans-serif" font-size="14" lengthAdjust="spacing" textLength="260" x="607" y="571.6426">DockRepository / StorageAreaRepository</text></g><!--entity DbCtx--><g id="elem_DbCtx"><rect fill="#F1F1F1" height="47.6094" rx="2.5" ry="2.5" style="stroke:#181818;stroke-width:0.5;" width="132" x="159" y="702.1094"/><rect fill="#F1F1F1" height="10" style="stroke:#181818;stroke-width:0.5;" width="15" x="271" y="707.1094"/><rect fill="#F1F1F1" height="2" style="stroke:#181818;stroke-width:0.5;" width="4" x="269" y="709.1094"/><rect fill="#F1F1F1" height="2" style="stroke:#181818;stroke-width:0.5;" width="4" x="269" y="713.1094"/><text fill="#000000" font-family="sans-serif" font-size="14" lengthAdjust="spacing" textLength="92" x="174" y="736.6426">PortDbContext</text></g><!--entity PR--><g id="elem_PR"><rect fill="#F1F1F1" height="47.6094" rx="2.5" ry="2.5" style="stroke:#181818;stroke-width:0.5;" width="160" x="22" y="828.1094"/><rect fill="#F1F1F1" height="10" style="stroke:#181818;stroke-width:0.5;" width="15" x="162" y="833.1094"/><rect fill="#F1F1F1" height="2" style="stroke:#181818;stroke-width:0.5;" width="4" x="160" y="835.1094"/><rect fill="#F1F1F1" height="2" style="stroke:#181818;stroke-width:0.5;" width="4" x="160" y="839.1094"/><text fill="#000000" font-family="sans-serif" font-size="14" lengthAdjust="spacing" textLength="120" x="37" y="862.6426">PhysicalResources</text></g><!--entity Q--><g id="elem_Q"><rect fill="#F1F1F1" height="47.6094" rx="2.5" ry="2.5" style="stroke:#181818;stroke-width:0.5;" width="125" x="217.5" y="828.1094"/><rect fill="#F1F1F1" height="10" style="stroke:#181818;stroke-width:0.5;" width="15" x="322.5" y="833.1094"/><rect fill="#F1F1F1" height="2" style="stroke:#181818;stroke-width:0.5;" width="4" x="320.5" y="835.1094"/><rect fill="#F1F1F1" height="2" style="stroke:#181818;stroke-width:0.5;" width="4" x="320.5" y="839.1094"/><text fill="#000000" font-family="sans-serif" font-size="14" lengthAdjust="spacing" textLength="85" x="232.5" y="862.6426">Qualifications</text></g><!--entity Areas--><g id="elem_Areas"><rect fill="#F1F1F1" height="47.6094" rx="2.5" ry="2.5" style="stroke:#181818;stroke-width:0.5;" width="178" x="378" y="828.1094"/><rect fill="#F1F1F1" height="10" style="stroke:#181818;stroke-width:0.5;" width="15" x="536" y="833.1094"/><rect fill="#F1F1F1" height="2" style="stroke:#181818;stroke-width:0.5;" width="4" x="534" y="835.1094"/><rect fill="#F1F1F1" height="2" style="stroke:#181818;stroke-width:0.5;" width="4" x="534" y="839.1094"/><text fill="#000000" font-family="sans-serif" font-size="14" lengthAdjust="spacing" textLength="138" x="393" y="862.6426">Docks / StorageAreas</text></g><!--entity Operator--><g id="elem_Operator"><ellipse cx="464" cy="52.6094" fill="#F1F1F1" rx="8" ry="8" style="stroke:#181818;stroke-width:0.5;"/><path d="M464,60.6094 L464,87.6094 M451,68.6094 L477,68.6094 M464,87.6094 L451,102.6094 M464,87.6094 L477,102.6094 " fill="none" style="stroke:#181818;stroke-width:0.5;"/><text fill="#000000" font-family="sans-serif" font-size="14" lengthAdjust="spacing" textLength="116" x="406" y="118.6426">Logistics Operator</text></g><!--link Operator to Client--><g id="link_Operator_Client"><path d="M464,122.1894 C464,154.5494 464,193.9294 464,221.0394 " fill="none" id="Operator-to-Client" style="stroke:#181818;stroke-width:1.0;"/><polygon fill="#181818" points="464,227.0394,468,218.0394,464,222.0394,460,218.0394,464,227.0394" style="stroke:#181818;stroke-width:1.0;"/><text fill="#000000" font-family="sans-serif" font-size="13" lengthAdjust="spacing" textLength="107" x="465" y="166.6045">manage resources</text></g><!--link Client to Ctl--><g id="link_Client_Ctl"><path d="M464,275.3494 C464,304.0994 464,346.7994 464,375.6494 " fill="none" id="Client-to-Ctl" style="stroke:#181818;stroke-width:1.0;"/><polygon fill="#181818" points="464,381.6494,468,372.6494,464,376.6494,460,372.6494,464,381.6494" style="stroke:#181818;stroke-width:1.0;"/><text fill="#000000" font-family="sans-serif" font-size="13" lengthAdjust="spacing" textLength="185" x="465" y="321.6045">HTTP (POST/PUT/PATCH/GET)</text></g><!--link Ctl to Repo--><g id="link_Ctl_Repo"><path d="M413.1,430.1094 C394.13,439.3194 372.67,450.4894 354,462.1094 C317.23,484.9894 282.6421,511.9958 257.2321,532.9158 " fill="none" id="Ctl-to-Repo" style="stroke:#181818;stroke-width:1.0;"/><polygon fill="#181818" points="252.6,536.7294,262.0906,534.097,256.4601,533.5514,257.0058,527.9209,252.6,536.7294" style="stroke:#181818;stroke-width:1.0;"/><text fill="#000000" font-family="sans-serif" font-size="13" lengthAdjust="spacing" textLength="100" x="355" y="476.6045">CRUD operations</text></g><!--link Ctl to QRepo--><g id="link_Ctl_QRepo"><path d="M464,430.3494 C464,459.0994 464,501.7994 464,530.6494 " fill="none" id="Ctl-to-QRepo" style="stroke:#181818;stroke-width:1.0;"/><polygon fill="#181818" points="464,536.6494,468,527.6494,464,531.6494,460,527.6494,464,536.6494" style="stroke:#181818;stroke-width:1.0;"/><text fill="#000000" font-family="sans-serif" font-size="13" lengthAdjust="spacing" textLength="122" x="465" y="476.6045">validate qualifications</text></g><!--link Ctl to AreaRepo--><g id="link_Ctl_AreaRepo"><path d="M526.28,430.1294 C548.71,439.1794 573.91,450.2394 596,462.1094 C637.82,484.5794 677.8632,512.359 706.6632,533.499 " fill="none" id="Ctl-to-AreaRepo" style="stroke:#181818;stroke-width:1.0;"/><polygon fill="#181818" points="711.5,537.0494,706.6117,528.4993,707.4693,534.0907,701.8778,534.9484,711.5,537.0494" style="stroke:#181818;stroke-width:1.0;"/><text fill="#000000" font-family="sans-serif" font-size="13" lengthAdjust="spacing" textLength="122" x="626" y="476.6045">validate dock/storage</text></g><!--link Repo to DbCtx--><g id="link_Repo_DbCtx"><path d="M225,585.1194 C225,616.0994 225,664.8994 225,695.9594 " fill="none" id="Repo-to-DbCtx" style="stroke:#181818;stroke-width:1.0;"/><polygon fill="#181818" points="225,701.9594,229,692.9594,225,696.9594,221,692.9594,225,701.9594" style="stroke:#181818;stroke-width:1.0;"/><text fill="#000000" font-family="sans-serif" font-size="13" lengthAdjust="spacing" textLength="112" x="226" y="631.6045">EF Core operations</text></g><!--link DbCtx to PR--><g id="link_DbCtx_PR"><path d="M158.88,743.0994 C139.48,751.0494 120.22,762.8094 108,780.1094 C98.3,793.8494 96.766,807.0458 97.876,822.0058 " fill="none" id="DbCtx-to-PR" style="stroke:#181818;stroke-width:1.0;"/><polygon fill="#181818" points="98.32,827.9894,101.6431,818.7181,97.95,823.0031,93.665,819.31,98.32,827.9894" style="stroke:#181818;stroke-width:1.0;"/><text fill="#000000" font-family="sans-serif" font-size="13" lengthAdjust="spacing" textLength="100" x="109" y="794.6045">persist resources</text></g><!--link DbCtx to Q--><g id="link_DbCtx_Q"><path d="M219,750.1294 C216.45,764.5194 215.38,783.0994 222,798.1094 C227.06,809.5894 231.4687,815.7136 240.8087,823.9036 " fill="none" id="DbCtx-to-Q" style="stroke:#181818;stroke-width:1.0;"/><polygon fill="#181818" points="245.32,827.8594,241.1903,818.9181,241.5606,824.5629,235.9159,824.9332,245.32,827.8594" style="stroke:#181818;stroke-width:1.0;"/><text fill="#000000" font-family="sans-serif" font-size="13" lengthAdjust="spacing" textLength="165" x="223" y="794.6045">persist/validate qualifications</text></g><!--link DbCtx to Areas--><g id="link_DbCtx_Areas"><path d="M291.35,740.5594 C323.51,748.8994 361.83,761.6294 393,780.1094 C414.29,792.7294 430.2754,808.1024 444.1054,823.6024 " fill="none" id="DbCtx-to-Areas" style="stroke:#181818;stroke-width:1.0;"/><polygon fill="#181818" points="448.1,828.0794,445.0927,818.7009,444.7712,824.3486,439.1235,824.027,448.1,828.0794" style="stroke:#181818;stroke-width:1.0;"/><text fill="#000000" font-family="sans-serif" font-size="13" lengthAdjust="spacing" textLength="122" x="417" y="794.6045">persist/validate areas</text></g><!--SRC=[TP8_JyCm4CNtV8fJ9nXAHCN4W1GbXLQgr2HDn80OdFGe5YOEjejQ8RuxP-TVMzeXIkptEz-xvnXk149u1w6i3ECLAXX3leB9pUJcTWBn-rxpaWb8KSkjAb5x7YkDL31Qo0tNXfSQbZKgHdiZOCF2yogvHXY5WcDbOC7sIC2F1_2Ipy6789v3extQikRJ- -tAdh6mI5lHsUXTMBTA2e6ggJPYA0tgMX1ikAoeJugrr9mCSTGNJkkHlJlCBYsMR9dWR-r99qpIGP4iFmQD-gtepJOOA6GdDTsMTRfcXXLCaziObQOSiIhHvHSLhKcfJ5JOEN7NH4GhipkRXfFZz9_fHaWwd_hOdkvTQMkfkpWOZn_Qwu1x-6GLuQ3wwsyL1nb1n2pBOhYAbwlCZtDwWYoS-K_JxDgpkkNiq0I6QHw1T5sijrvEMlsRd5Ck25z7C_HSbzyXkgQnVDtCv3dHaYufmgQFz5ihF6pQI1QAKoBg9ls3-GOW6NJ_ahU1TZcUgs0ku3y0]--></g></svg>