<?xml version="1.0" encoding="us-ascii" standalone="no"?><svg xmlns="http://www.w3.org/2000/svg" xmlns:xlink="http://www.w3.org/1999/xlink" contentStyleType="text/css" height="1181px" preserveAspectRatio="none" style="width:1504px;height:1181px;background:#FFFFFF;" version="1.1" viewBox="0 0 1504 1181" width="1504px" zoomAndPan="magnify"><defs/><g><text fill="#000000" font-family="sans-serif" font-size="14" font-weight="bold" lengthAdjust="spacing" textLength="221" x="642.75" y="29.5332">SSD - Create Physical Resource</text><rect fill="#FFFFFF" height="888.6797" style="stroke:#181818;stroke-width:1.0;" width="10" x="505" y="200.2734"/><rect fill="#FFFFFF" height="121.4063" style="stroke:#181818;stroke-width:1.0;" width="10" x="740" y="230.625"/><rect fill="#FFFFFF" height="121.4063" style="stroke:#181818;stroke-width:1.0;" width="10" x="740" y="800.7891"/><rect fill="#FFFFFF" height="121.4063" style="stroke:#181818;stroke-width:1.0;" width="10" x="927.5" y="453.9219"/><rect fill="#FFFFFF" height="121.4063" style="stroke:#181818;stroke-width:1.0;" width="10" x="1137.5" y="605.6797"/><rect fill="none" height="714.9219" style="stroke:#000000;stroke-width:1.5;" width="1269" x="228.5" y="367.0313"/><line style="stroke:#181818;stroke-width:0.5;stroke-dasharray:5.0,5.0;" x1="66" x2="66" y1="121.2188" y2="1098.9531"/><line style="stroke:#181818;stroke-width:0.5;stroke-dasharray:5.0,5.0;" x1="275.5" x2="275.5" y1="121.2188" y2="1098.9531"/><line style="stroke:#181818;stroke-width:0.5;stroke-dasharray:5.0,5.0;" x1="510" x2="510" y1="121.2188" y2="1098.9531"/><line style="stroke:#181818;stroke-width:0.5;stroke-dasharray:5.0,5.0;" x1="744.5" x2="744.5" y1="121.2188" y2="1098.9531"/><line style="stroke:#181818;stroke-width:0.5;stroke-dasharray:5.0,5.0;" x1="932.5" x2="932.5" y1="121.2188" y2="1098.9531"/><line style="stroke:#181818;stroke-width:0.5;stroke-dasharray:5.0,5.0;" x1="1142.5" x2="1142.5" y1="121.2188" y2="1098.9531"/><line style="stroke:#181818;stroke-width:0.5;stroke-dasharray:5.0,5.0;" x1="1325.5" x2="1325.5" y1="121.2188" y2="1098.9531"/><line style="stroke:#181818;stroke-width:0.5;stroke-dasharray:5.0,5.0;" x1="1437.5" x2="1437.5" y1="121.2188" y2="1098.9531"/><text fill="#000000" font-family="sans-serif" font-size="14" lengthAdjust="spacing" textLength="116" x="5" y="118.1426">Logistics Operator</text><ellipse cx="66" cy="52.1094" fill="#E2E2F0" rx="8" ry="8" style="stroke:#181818;stroke-width:0.5;"/><path d="M66,60.1094 L66,87.1094 M53,68.1094 L79,68.1094 M66,87.1094 L53,102.1094 M66,87.1094 L79,102.1094 " fill="none" style="stroke:#181818;stroke-width:0.5;"/><text fill="#000000" font-family="sans-serif" font-size="14" lengthAdjust="spacing" textLength="116" x="5" y="1112.4863">Logistics Operator</text><ellipse cx="66" cy="1124.0625" fill="#E2E2F0" rx="8" ry="8" style="stroke:#181818;stroke-width:0.5;"/><path d="M66,1132.0625 L66,1159.0625 M53,1140.0625 L79,1140.0625 M66,1159.0625 L53,1174.0625 M66,1159.0625 L79,1174.0625 " fill="none" style="stroke:#181818;stroke-width:0.5;"/><rect fill="#E2E2F0" height="31.6094" rx="2.5" ry="2.5" style="stroke:#181818;stroke-width:0.5;" width="75" x="238.5" y="88.6094"/><text fill="#000000" font-family="sans-serif" font-size="14" lengthAdjust="spacing" textLength="61" x="245.5" y="110.1426">API Client</text><rect fill="#E2E2F0" height="31.6094" rx="2.5" ry="2.5" style="stroke:#181818;stroke-width:0.5;" width="75" x="238.5" y="1097.9531"/><text fill="#000000" font-family="sans-serif" font-size="14" lengthAdjust="spacing" textLength="61" x="245.5" y="1119.4863">API Client</text><rect fill="#E2E2F0" height="31.6094" rx="2.5" ry="2.5" style="stroke:#181818;stroke-width:0.5;" width="196" x="412" y="88.6094"/><text fill="#000000" font-family="sans-serif" font-size="14" lengthAdjust="spacing" textLength="182" x="419" y="110.1426">PhysicalResourcesController</text><rect fill="#E2E2F0" height="31.6094" rx="2.5" ry="2.5" style="stroke:#181818;stroke-width:0.5;" width="196" x="412" y="1097.9531"/><text fill="#000000" font-family="sans-serif" font-size="14" lengthAdjust="spacing" textLength="182" x="419" y="1119.4863">PhysicalResourcesController</text><rect fill="#E2E2F0" height="31.6094" rx="2.5" ry="2.5" style="stroke:#181818;stroke-width:0.5;" width="195" x="647.5" y="88.6094"/><text fill="#000000" font-family="sans-serif" font-size="14" lengthAdjust="spacing" textLength="181" x="654.5" y="110.1426">PhysicalResourceRepository</text><rect fill="#E2E2F0" height="31.6094" rx="2.5" ry="2.5" style="stroke:#181818;stroke-width:0.5;" width="195" x="647.5" y="1097.9531"/><text fill="#000000" font-family="sans-serif" font-size="14" lengthAdjust="spacing" textLength="181" x="654.5" y="1119.4863">PhysicalResourceRepository</text><rect fill="#E2E2F0" height="31.6094" rx="2.5" ry="2.5" style="stroke:#181818;stroke-width:0.5;" width="160" x="852.5" y="88.6094"/><text fill="#000000" font-family="sans-serif" font-size="14" lengthAdjust="spacing" textLength="146" x="859.5" y="110.1426">QualificationRepository</text><rect fill="#E2E2F0" height="31.6094" rx="2.5" ry="2.5" style="stroke:#181818;stroke-width:0.5;" width="160" x="852.5" y="1097.9531"/><text fill="#000000" font-family="sans-serif" font-size="14" lengthAdjust="spacing" textLength="146" x="859.5" y="1119.4863">QualificationRepository</text><rect fill="#E2E2F0" height="31.6094" rx="2.5" ry="2.5" style="stroke:#181818;stroke-width:0.5;" width="240" x="1022.5" y="88.6094"/><text fill="#000000" font-family="sans-serif" font-size="14" lengthAdjust="spacing" textLength="226" x="1029.5" y="110.1426">DockRepository / StorageAreaRepo</text><rect fill="#E2E2F0" height="31.6094" rx="2.5" ry="2.5" style="stroke:#181818;stroke-width:0.5;" width="240" x="1022.5" y="1097.9531"/><text fill="#000000" font-family="sans-serif" font-size="14" lengthAdjust="spacing" textLength="226" x="1029.5" y="1119.4863">DockRepository / StorageAreaRepo</text><rect fill="#E2E2F0" height="31.6094" rx="2.5" ry="2.5" style="stroke:#181818;stroke-width:0.5;" width="106" x="1272.5" y="88.6094"/><text fill="#000000" font-family="sans-serif" font-size="14" lengthAdjust="spacing" textLength="92" x="1279.5" y="110.1426">PortDbContext</text><rect fill="#E2E2F0" height="31.6094" rx="2.5" ry="2.5" style="stroke:#181818;stroke-width:0.5;" width="106" x="1272.5" y="1097.9531"/><text fill="#000000" font-family="sans-serif" font-size="14" lengthAdjust="spacing" textLength="92" x="1279.5" y="1119.4863">PortDbContext</text><text fill="#000000" font-family="sans-serif" font-size="14" lengthAdjust="spacing" textLength="93" x="1388.5" y="118.1426">EF (InMemory)</text><path d="M1420,67.6094 C1420,57.6094 1438,57.6094 1438,57.6094 C1438,57.6094 1456,57.6094 1456,67.6094 L1456,93.6094 C1456,103.6094 1438,103.6094 1438,103.6094 C1438,103.6094 1420,103.6094 1420,93.6094 L1420,67.6094 " fill="#E2E2F0" style="stroke:#181818;stroke-width:1.5;"/><path d="M1420,67.6094 C1420,77.6094 1438,77.6094 1438,77.6094 C1438,77.6094 1456,77.6094 1456,67.6094 " fill="none" style="stroke:#181818;stroke-width:1.5;"/><text fill="#000000" font-family="sans-serif" font-size="14" lengthAdjust="spacing" textLength="93" x="1388.5" y="1112.4863">EF (InMemory)</text><path d="M1420,1125.5625 C1420,1115.5625 1438,1115.5625 1438,1115.5625 C1438,1115.5625 1456,1115.5625 1456,1125.5625 L1456,1151.5625 C1456,1161.5625 1438,1161.5625 1438,1161.5625 C1438,1161.5625 1420,1161.5625 1420,1151.5625 L1420,1125.5625 " fill="#E2E2F0" style="stroke:#181818;stroke-width:1.5;"/><path d="M1420,1125.5625 C1420,1135.5625 1438,1135.5625 1438,1135.5625 C1438,1135.5625 1456,1135.5625 1456,1125.5625 " fill="none" style="stroke:#181818;stroke-width:1.5;"/><rect fill="#FFFFFF" height="888.6797" style="stroke:#181818;stroke-width:1.0;" width="10" x="505" y="200.2734"/><rect fill="#FFFFFF" height="121.4063" style="stroke:#181818;stroke-width:1.0;" width="10" x="740" y="230.625"/><rect fill="#FFFFFF" height="121.4063" style="stroke:#181818;stroke-width:1.0;" width="10" x="740" y="800.7891"/><rect fill="#FFFFFF" height="121.4063" style="stroke:#181818;stroke-width:1.0;" width="10" x="927.5" y="453.9219"/><rect fill="#FFFFFF" height="121.4063" style="stroke:#181818;stroke-width:1.0;" width="10" x="1137.5" y="605.6797"/><polygon fill="#181818" points="264,165.9219,274,169.9219,264,173.9219,268,169.9219" style="stroke:#181818;stroke-width:1.0;"/><line style="stroke:#181818;stroke-width:1.0;" x1="66" x2="270" y1="169.9219" y2="169.9219"/><text fill="#000000" font-family="sans-serif" font-size="13" lengthAdjust="spacing" textLength="186" x="73" y="148.7139">POST /api/resources/sts-cranes</text><text fill="#000000" font-family="sans-serif" font-size="13" lengthAdjust="spacing" textLength="178" x="73" y="165.0654">or /mobile-equipment {payload}</text><polygon fill="#181818" points="493,196.2734,503,200.2734,493,204.2734,497,200.2734" style="stroke:#181818;stroke-width:1.0;"/><line style="stroke:#181818;stroke-width:1.0;" x1="276" x2="499" y1="200.2734" y2="200.2734"/><text fill="#000000" font-family="sans-serif" font-size="13" lengthAdjust="spacing" textLength="64" x="283" y="195.417">Create(dto)</text><polygon fill="#181818" points="728,226.625,738,230.625,728,234.625,732,230.625" style="stroke:#181818;stroke-width:1.0;"/><line style="stroke:#181818;stroke-width:1.0;" x1="515" x2="734" y1="230.625" y2="230.625"/><text fill="#000000" font-family="sans-serif" font-size="13" lengthAdjust="spacing" textLength="134" x="522" y="225.7686">ExistsAsync(dto.Code)</text><polygon fill="#181818" points="1313.5,256.9766,1323.5,260.9766,1313.5,264.9766,1317.5,260.9766" style="stroke:#181818;stroke-width:1.0;"/><line style="stroke:#181818;stroke-width:1.0;" x1="750" x2="1319.5" y1="260.9766" y2="260.9766"/><text fill="#000000" font-family="sans-serif" font-size="13" lengthAdjust="spacing" textLength="174" x="757" y="256.1201">AnyAsync(Code == dto.Code)</text><polygon fill="#181818" points="1426,287.3281,1436,291.3281,1426,295.3281,1430,291.3281" style="stroke:#181818;stroke-width:1.0;"/><line style="stroke:#181818;stroke-width:1.0;" x1="1325.5" x2="1432" y1="291.3281" y2="291.3281"/><text fill="#000000" font-family="sans-serif" font-size="13" lengthAdjust="spacing" textLength="32" x="1332.5" y="286.4717">query</text><polygon fill="#181818" points="1336.5,317.6797,1326.5,321.6797,1336.5,325.6797,1332.5,321.6797" style="stroke:#181818;stroke-width:1.0;"/><line style="stroke:#181818;stroke-width:1.0;stroke-dasharray:2.0,2.0;" x1="1330.5" x2="1437" y1="321.6797" y2="321.6797"/><text fill="#000000" font-family="sans-serif" font-size="13" lengthAdjust="spacing" textLength="24" x="1342.5" y="316.8232">bool</text><polygon fill="#181818" points="756,348.0313,746,352.0313,756,356.0313,752,352.0313" style="stroke:#181818;stroke-width:1.0;"/><line style="stroke:#181818;stroke-width:1.0;stroke-dasharray:2.0,2.0;" x1="750" x2="1324.5" y1="352.0313" y2="352.0313"/><text fill="#000000" font-family="sans-serif" font-size="13" lengthAdjust="spacing" textLength="35" x="762" y="347.1748">exists</text><path d="M228.5,367.0313 L289.5,367.0313 L289.5,375.3828 L279.5,385.3828 L228.5,385.3828 L228.5,367.0313 " fill="#EEEEEE" style="stroke:#000000;stroke-width:1.5;"/><rect fill="none" height="714.9219" style="stroke:#000000;stroke-width:1.5;" width="1269" x="228.5" y="367.0313"/><text fill="#000000" font-family="sans-serif" font-size="13" font-weight="bold" lengthAdjust="spacing" textLength="16" x="243.5" y="381.5264">alt</text><text fill="#000000" font-family="sans-serif" font-size="11" font-weight="bold" lengthAdjust="spacing" textLength="42" x="304.5" y="380.4502">[exists]</text><polygon fill="#181818" points="287,403.7344,277,407.7344,287,411.7344,283,407.7344" style="stroke:#181818;stroke-width:1.0;"/><line style="stroke:#181818;stroke-width:1.0;stroke-dasharray:2.0,2.0;" x1="281" x2="504" y1="407.7344" y2="407.7344"/><text fill="#000000" font-family="sans-serif" font-size="13" lengthAdjust="spacing" textLength="205" x="293" y="402.8779">409 Conflict ("Code already exists")</text><line style="stroke:#000000;stroke-width:1.0;stroke-dasharray:2.0,2.0;" x1="228.5" x2="1497.5" y1="416.7344" y2="416.7344"/><text fill="#000000" font-family="sans-serif" font-size="11" font-weight="bold" lengthAdjust="spacing" textLength="54" x="233.5" y="428.1533">[proceed]</text><polygon fill="#181818" points="915.5,449.9219,925.5,453.9219,915.5,457.9219,919.5,453.9219" style="stroke:#181818;stroke-width:1.0;"/><line style="stroke:#181818;stroke-width:1.0;" x1="515" x2="921.5" y1="453.9219" y2="453.9219"/><text fill="#000000" font-family="sans-serif" font-size="13" lengthAdjust="spacing" textLength="171" x="522" y="449.0654">SearchAsync(qualificationIds)</text><polygon fill="#181818" points="1313.5,480.2734,1323.5,484.2734,1313.5,488.2734,1317.5,484.2734" style="stroke:#181818;stroke-width:1.0;"/><line style="stroke:#181818;stroke-width:1.0;" x1="937.5" x2="1319.5" y1="484.2734" y2="484.2734"/><text fill="#000000" font-family="sans-serif" font-size="13" lengthAdjust="spacing" textLength="111" x="944.5" y="479.417">query qualifications</text><polygon fill="#181818" points="1426,510.625,1436,514.625,1426,518.625,1430,514.625" style="stroke:#181818;stroke-width:1.0;"/><line style="stroke:#181818;stroke-width:1.0;" x1="1325.5" x2="1432" y1="514.625" y2="514.625"/><text fill="#000000" font-family="sans-serif" font-size="13" lengthAdjust="spacing" textLength="32" x="1332.5" y="509.7686">query</text><polygon fill="#181818" points="1336.5,540.9766,1326.5,544.9766,1336.5,548.9766,1332.5,544.9766" style="stroke:#181818;stroke-width:1.0;"/><line style="stroke:#181818;stroke-width:1.0;stroke-dasharray:2.0,2.0;" x1="1330.5" x2="1437" y1="544.9766" y2="544.9766"/><text fill="#000000" font-family="sans-serif" font-size="13" lengthAdjust="spacing" textLength="39" x="1342.5" y="540.1201">quals[]</text><polygon fill="#181818" points="943.5,571.3281,933.5,575.3281,943.5,579.3281,939.5,575.3281" style="stroke:#181818;stroke-width:1.0;"/><line style="stroke:#181818;stroke-width:1.0;stroke-dasharray:2.0,2.0;" x1="937.5" x2="1324.5" y1="575.3281" y2="575.3281"/><text fill="#000000" font-family="sans-serif" font-size="13" lengthAdjust="spacing" textLength="39" x="949.5" y="570.4717">quals[]</text><polygon fill="#181818" points="1125.5,601.6797,1135.5,605.6797,1125.5,609.6797,1129.5,605.6797" style="stroke:#181818;stroke-width:1.0;"/><line style="stroke:#181818;stroke-width:1.0;" x1="515" x2="1131.5" y1="605.6797" y2="605.6797"/><text fill="#000000" font-family="sans-serif" font-size="13" lengthAdjust="spacing" textLength="381" x="522" y="600.8232">ValidateDockOrStorage(dto.InstalledAtDockCode / StorageAreaId)</text><polygon fill="#181818" points="1313.5,632.0313,1323.5,636.0313,1313.5,640.0313,1317.5,636.0313" style="stroke:#181818;stroke-width:1.0;"/><line style="stroke:#181818;stroke-width:1.0;" x1="1147.5" x2="1319.5" y1="636.0313" y2="636.0313"/><text fill="#000000" font-family="sans-serif" font-size="13" lengthAdjust="spacing" textLength="104" x="1154.5" y="631.1748">Find dock/storage</text><polygon fill="#181818" points="1426,662.3828,1436,666.3828,1426,670.3828,1430,666.3828" style="stroke:#181818;stroke-width:1.0;"/><line style="stroke:#181818;stroke-width:1.0;" x1="1325.5" x2="1432" y1="666.3828" y2="666.3828"/><text fill="#000000" font-family="sans-serif" font-size="13" lengthAdjust="spacing" textLength="32" x="1332.5" y="661.5264">query</text><polygon fill="#181818" points="1336.5,692.7344,1326.5,696.7344,1336.5,700.7344,1332.5,696.7344" style="stroke:#181818;stroke-width:1.0;"/><line style="stroke:#181818;stroke-width:1.0;stroke-dasharray:2.0,2.0;" x1="1330.5" x2="1437" y1="696.7344" y2="696.7344"/><text fill="#000000" font-family="sans-serif" font-size="13" lengthAdjust="spacing" textLength="32" x="1342.5" y="691.8779">area?</text><polygon fill="#181818" points="1153.5,723.0859,1143.5,727.0859,1153.5,731.0859,1149.5,727.0859" style="stroke:#181818;stroke-width:1.0;"/><line style="stroke:#181818;stroke-width:1.0;stroke-dasharray:2.0,2.0;" x1="1147.5" x2="1324.5" y1="727.0859" y2="727.0859"/><text fill="#000000" font-family="sans-serif" font-size="13" lengthAdjust="spacing" textLength="32" x="1159.5" y="722.2295">area?</text><line style="stroke:#181818;stroke-width:1.0;" x1="515" x2="557" y1="757.4375" y2="757.4375"/><line style="stroke:#181818;stroke-width:1.0;" x1="557" x2="557" y1="757.4375" y2="770.4375"/><line style="stroke:#181818;stroke-width:1.0;" x1="516" x2="557" y1="770.4375" y2="770.4375"/><polygon fill="#181818" points="526,766.4375,516,770.4375,526,774.4375,522,770.4375" style="stroke:#181818;stroke-width:1.0;"/><text fill="#000000" font-family="sans-serif" font-size="13" lengthAdjust="spacing" textLength="211" x="522" y="752.5811">Validate type-specific capacity fields</text><polygon fill="#181818" points="728,796.7891,738,800.7891,728,804.7891,732,800.7891" style="stroke:#181818;stroke-width:1.0;"/><line style="stroke:#181818;stroke-width:1.0;" x1="515" x2="734" y1="800.7891" y2="800.7891"/><text fill="#000000" font-family="sans-serif" font-size="13" lengthAdjust="spacing" textLength="184" x="522" y="795.9326">AddAsync(new ResourceEntity)</text><polygon fill="#181818" points="1313.5,827.1406,1323.5,831.1406,1313.5,835.1406,1317.5,831.1406" style="stroke:#181818;stroke-width:1.0;"/><line style="stroke:#181818;stroke-width:1.0;" x1="750" x2="1319.5" y1="831.1406" y2="831.1406"/><text fill="#000000" font-family="sans-serif" font-size="13" lengthAdjust="spacing" textLength="63" x="757" y="826.2842">Add(entity)</text><polygon fill="#181818" points="1426,857.4922,1436,861.4922,1426,865.4922,1430,861.4922" style="stroke:#181818;stroke-width:1.0;"/><line style="stroke:#181818;stroke-width:1.0;" x1="1325.5" x2="1432" y1="861.4922" y2="861.4922"/><text fill="#000000" font-family="sans-serif" font-size="13" lengthAdjust="spacing" textLength="46" x="1332.5" y="856.6357">INSERT</text><polygon fill="#181818" points="1336.5,887.8438,1326.5,891.8438,1336.5,895.8438,1332.5,891.8438" style="stroke:#181818;stroke-width:1.0;"/><line style="stroke:#181818;stroke-width:1.0;stroke-dasharray:2.0,2.0;" x1="1330.5" x2="1437" y1="891.8438" y2="891.8438"/><text fill="#000000" font-family="sans-serif" font-size="13" lengthAdjust="spacing" textLength="14" x="1342.5" y="886.9873">ok</text><polygon fill="#181818" points="756,918.1953,746,922.1953,756,926.1953,752,922.1953" style="stroke:#181818;stroke-width:1.0;"/><line style="stroke:#181818;stroke-width:1.0;stroke-dasharray:2.0,2.0;" x1="750" x2="1324.5" y1="922.1953" y2="922.1953"/><text fill="#000000" font-family="sans-serif" font-size="13" lengthAdjust="spacing" textLength="14" x="762" y="917.3389">ok</text><polygon fill="#181818" points="1313.5,948.5469,1323.5,952.5469,1313.5,956.5469,1317.5,952.5469" style="stroke:#181818;stroke-width:1.0;"/><line style="stroke:#181818;stroke-width:1.0;" x1="515" x2="1319.5" y1="952.5469" y2="952.5469"/><text fill="#000000" font-family="sans-serif" font-size="13" lengthAdjust="spacing" textLength="124" x="522" y="947.6904">SaveChangesAsync()</text><polygon fill="#181818" points="1426,978.8984,1436,982.8984,1426,986.8984,1430,982.8984" style="stroke:#181818;stroke-width:1.0;"/><line style="stroke:#181818;stroke-width:1.0;" x1="1325.5" x2="1432" y1="982.8984" y2="982.8984"/><text fill="#000000" font-family="sans-serif" font-size="13" lengthAdjust="spacing" textLength="43" x="1332.5" y="978.042">commit</text><polygon fill="#181818" points="1336.5,1009.25,1326.5,1013.25,1336.5,1017.25,1332.5,1013.25" style="stroke:#181818;stroke-width:1.0;"/><line style="stroke:#181818;stroke-width:1.0;stroke-dasharray:2.0,2.0;" x1="1330.5" x2="1437" y1="1013.25" y2="1013.25"/><text fill="#000000" font-family="sans-serif" font-size="13" lengthAdjust="spacing" textLength="14" x="1342.5" y="1008.3936">ok</text><polygon fill="#181818" points="526,1039.6016,516,1043.6016,526,1047.6016,522,1043.6016" style="stroke:#181818;stroke-width:1.0;"/><line style="stroke:#181818;stroke-width:1.0;stroke-dasharray:2.0,2.0;" x1="520" x2="1324.5" y1="1043.6016" y2="1043.6016"/><text fill="#000000" font-family="sans-serif" font-size="13" lengthAdjust="spacing" textLength="14" x="532" y="1038.7451">ok</text><polygon fill="#181818" points="287,1069.9531,277,1073.9531,287,1077.9531,283,1073.9531" style="stroke:#181818;stroke-width:1.0;"/><line style="stroke:#181818;stroke-width:1.0;stroke-dasharray:2.0,2.0;" x1="281" x2="504" y1="1073.9531" y2="1073.9531"/><text fill="#000000" font-family="sans-serif" font-size="13" lengthAdjust="spacing" textLength="136" x="293" y="1069.0967">201 Created + resource</text><!--SRC=[ZLHDRzim3BtxLn0v9HYyTCCk6z0EWPC20RRrmyKksmwAnBH25ScLbAx6iFzUIh9YkncAdHA9xv7laPIzz0gXhfTGGcMHUOJBkzP9pXHSepDxox4e6FV6mkIBkPNEI-xWea7Bw6u2h3yK3RCKbGtJ7YQBopLKIgBs4PJ-ZY6vKYxaAgEzDKfXIboz3h_6nZX9XTk83iSnuMhFbDmInKkZNw2lZk5Bm-zx5CoXfbzsYmlgIxYFl7nu8SrOlzm4-VYK_2utXM2URPX3cApEORhMNt57UMSn759JOtFhe3phEWIVuFAYle4vQ-JSviRCdNSbjqoZ-wa9Fj-PZLHOuiDUDhj0-zEmLXac_XPTdf2HagMXJeKtip16-HX6N1L55G31265MJpHMjt2jvW7ujZ821-XeDqA9ijmGOQ7RX0v8E3s5daLnGaLx17pOessBT2epUsECYhXU0KO5XS1nqO8fdsD0TifXcpwSV0Jg-5P9xc4wYLAO8hkYxJYJMO6A-jzOmn55Id6MHay9QcIMtoKZ3yDLMGit8_11IzeLw8ZPHlG68s9G-Qy60BneGM2v7xyw-41J7nZq8jNFylC64lexrQOjmx2v5xPRrpZ2jNQUqKCI2n-2iJcZXLwBaSN3MaEVFuizbrg0e2oqXP7_louPPVhSUnm8pv61oOE2xBCQ60JVDbYw1ddeDN3MC2vz2rk9IhZCw98lX4X3rVZxy15RQK-4aUVExtYpXPZY0JfskVvMhwvlZcsQ-zvZ9o5U7Mrp9pEIQlQ8rHtJjzWzlEDwtEnsqhzUhqhduzVn_kHTz_O5l87y8IbGY-4hgvu1]--></g></svg>