<?xml version="1.0" encoding="us-ascii" standalone="no"?><svg xmlns="http://www.w3.org/2000/svg" xmlns:xlink="http://www.w3.org/1999/xlink" contentStyleType="text/css" height="1086px" preserveAspectRatio="none" style="width:1421px;height:1086px;background:#FFFFFF;" version="1.1" viewBox="0 0 1421 1086" width="1421px" zoomAndPan="magnify"><defs/><g><text fill="#000000" font-family="sans-serif" font-size="14" font-weight="bold" lengthAdjust="spacing" textLength="325" x="549.75" y="29.5332">Sequence Diagram - Create Physical Resource</text><rect fill="#FFFFFF" height="802.1406" style="stroke:#181818;stroke-width:1.0;" width="10" x="476" y="183.9219"/><rect fill="#FFFFFF" height="121.4063" style="stroke:#181818;stroke-width:1.0;" width="10" x="799" y="214.2734"/><rect fill="#FFFFFF" height="121.4063" style="stroke:#181818;stroke-width:1.0;" width="10" x="799" y="712.8984"/><rect fill="#FFFFFF" height="121.4063" style="stroke:#181818;stroke-width:1.0;" width="10" x="986.5" y="366.0313"/><rect fill="#FFFFFF" height="121.4063" style="stroke:#181818;stroke-width:1.0;" width="10" x="1133.5" y="517.7891"/><line style="stroke:#181818;stroke-width:0.5;stroke-dasharray:5.0,5.0;" x1="66" x2="66" y1="121.2188" y2="1004.0625"/><line style="stroke:#181818;stroke-width:0.5;stroke-dasharray:5.0,5.0;" x1="315.5" x2="315.5" y1="121.2188" y2="1004.0625"/><line style="stroke:#181818;stroke-width:0.5;stroke-dasharray:5.0,5.0;" x1="481" x2="481" y1="121.2188" y2="1004.0625"/><line style="stroke:#181818;stroke-width:0.5;stroke-dasharray:5.0,5.0;" x1="803.5" x2="803.5" y1="121.2188" y2="1004.0625"/><line style="stroke:#181818;stroke-width:0.5;stroke-dasharray:5.0,5.0;" x1="991.5" x2="991.5" y1="121.2188" y2="1004.0625"/><line style="stroke:#181818;stroke-width:0.5;stroke-dasharray:5.0,5.0;" x1="1138.5" x2="1138.5" y1="121.2188" y2="1004.0625"/><line style="stroke:#181818;stroke-width:0.5;stroke-dasharray:5.0,5.0;" x1="1258.5" x2="1258.5" y1="121.2188" y2="1004.0625"/><line style="stroke:#181818;stroke-width:0.5;stroke-dasharray:5.0,5.0;" x1="1370.5" x2="1370.5" y1="121.2188" y2="1004.0625"/><text fill="#000000" font-family="sans-serif" font-size="14" lengthAdjust="spacing" textLength="116" x="5" y="118.1426">Logistics Operator</text><ellipse cx="66" cy="52.1094" fill="#E2E2F0" rx="8" ry="8" style="stroke:#181818;stroke-width:0.5;"/><path d="M66,60.1094 L66,87.1094 M53,68.1094 L79,68.1094 M66,87.1094 L53,102.1094 M66,87.1094 L79,102.1094 " fill="none" style="stroke:#181818;stroke-width:0.5;"/><text fill="#000000" font-family="sans-serif" font-size="14" lengthAdjust="spacing" textLength="116" x="5" y="1017.5957">Logistics Operator</text><ellipse cx="66" cy="1029.1719" fill="#E2E2F0" rx="8" ry="8" style="stroke:#181818;stroke-width:0.5;"/><path d="M66,1037.1719 L66,1064.1719 M53,1045.1719 L79,1045.1719 M66,1064.1719 L53,1079.1719 M66,1064.1719 L79,1079.1719 " fill="none" style="stroke:#181818;stroke-width:0.5;"/><rect fill="#E2E2F0" height="31.6094" rx="2.5" ry="2.5" style="stroke:#181818;stroke-width:0.5;" width="75" x="278.5" y="88.6094"/><text fill="#000000" font-family="sans-serif" font-size="14" lengthAdjust="spacing" textLength="61" x="285.5" y="110.1426">API Client</text><rect fill="#E2E2F0" height="31.6094" rx="2.5" ry="2.5" style="stroke:#181818;stroke-width:0.5;" width="75" x="278.5" y="1003.0625"/><text fill="#000000" font-family="sans-serif" font-size="14" lengthAdjust="spacing" textLength="61" x="285.5" y="1024.5957">API Client</text><rect fill="#E2E2F0" height="31.6094" rx="2.5" ry="2.5" style="stroke:#181818;stroke-width:0.5;" width="196" x="383" y="88.6094"/><text fill="#000000" font-family="sans-serif" font-size="14" lengthAdjust="spacing" textLength="182" x="390" y="110.1426">PhysicalResourcesController</text><rect fill="#E2E2F0" height="31.6094" rx="2.5" ry="2.5" style="stroke:#181818;stroke-width:0.5;" width="196" x="383" y="1003.0625"/><text fill="#000000" font-family="sans-serif" font-size="14" lengthAdjust="spacing" textLength="182" x="390" y="1024.5957">PhysicalResourcesController</text><rect fill="#E2E2F0" height="31.6094" rx="2.5" ry="2.5" style="stroke:#181818;stroke-width:0.5;" width="195" x="706.5" y="88.6094"/><text fill="#000000" font-family="sans-serif" font-size="14" lengthAdjust="spacing" textLength="181" x="713.5" y="110.1426">PhysicalResourceRepository</text><rect fill="#E2E2F0" height="31.6094" rx="2.5" ry="2.5" style="stroke:#181818;stroke-width:0.5;" width="195" x="706.5" y="1003.0625"/><text fill="#000000" font-family="sans-serif" font-size="14" lengthAdjust="spacing" textLength="181" x="713.5" y="1024.5957">PhysicalResourceRepository</text><rect fill="#E2E2F0" height="31.6094" rx="2.5" ry="2.5" style="stroke:#181818;stroke-width:0.5;" width="160" x="911.5" y="88.6094"/><text fill="#000000" font-family="sans-serif" font-size="14" lengthAdjust="spacing" textLength="146" x="918.5" y="110.1426">QualificationRepository</text><rect fill="#E2E2F0" height="31.6094" rx="2.5" ry="2.5" style="stroke:#181818;stroke-width:0.5;" width="160" x="911.5" y="1003.0625"/><text fill="#000000" font-family="sans-serif" font-size="14" lengthAdjust="spacing" textLength="146" x="918.5" y="1024.5957">QualificationRepository</text><rect fill="#E2E2F0" height="31.6094" rx="2.5" ry="2.5" style="stroke:#181818;stroke-width:0.5;" width="114" x="1081.5" y="88.6094"/><text fill="#000000" font-family="sans-serif" font-size="14" lengthAdjust="spacing" textLength="100" x="1088.5" y="110.1426">DockRepository</text><rect fill="#E2E2F0" height="31.6094" rx="2.5" ry="2.5" style="stroke:#181818;stroke-width:0.5;" width="114" x="1081.5" y="1003.0625"/><text fill="#000000" font-family="sans-serif" font-size="14" lengthAdjust="spacing" textLength="100" x="1088.5" y="1024.5957">DockRepository</text><rect fill="#E2E2F0" height="31.6094" rx="2.5" ry="2.5" style="stroke:#181818;stroke-width:0.5;" width="106" x="1205.5" y="88.6094"/><text fill="#000000" font-family="sans-serif" font-size="14" lengthAdjust="spacing" textLength="92" x="1212.5" y="110.1426">PortDbContext</text><rect fill="#E2E2F0" height="31.6094" rx="2.5" ry="2.5" style="stroke:#181818;stroke-width:0.5;" width="106" x="1205.5" y="1003.0625"/><text fill="#000000" font-family="sans-serif" font-size="14" lengthAdjust="spacing" textLength="92" x="1212.5" y="1024.5957">PortDbContext</text><text fill="#000000" font-family="sans-serif" font-size="14" lengthAdjust="spacing" textLength="93" x="1321.5" y="118.1426">EF (InMemory)</text><path d="M1353,67.6094 C1353,57.6094 1371,57.6094 1371,57.6094 C1371,57.6094 1389,57.6094 1389,67.6094 L1389,93.6094 C1389,103.6094 1371,103.6094 1371,103.6094 C1371,103.6094 1353,103.6094 1353,93.6094 L1353,67.6094 " fill="#E2E2F0" style="stroke:#181818;stroke-width:1.5;"/><path d="M1353,67.6094 C1353,77.6094 1371,77.6094 1371,77.6094 C1371,77.6094 1389,77.6094 1389,67.6094 " fill="none" style="stroke:#181818;stroke-width:1.5;"/><text fill="#000000" font-family="sans-serif" font-size="14" lengthAdjust="spacing" textLength="93" x="1321.5" y="1017.5957">EF (InMemory)</text><path d="M1353,1030.6719 C1353,1020.6719 1371,1020.6719 1371,1020.6719 C1371,1020.6719 1389,1020.6719 1389,1030.6719 L1389,1056.6719 C1389,1066.6719 1371,1066.6719 1371,1066.6719 C1371,1066.6719 1353,1066.6719 1353,1056.6719 L1353,1030.6719 " fill="#E2E2F0" style="stroke:#181818;stroke-width:1.5;"/><path d="M1353,1030.6719 C1353,1040.6719 1371,1040.6719 1371,1040.6719 C1371,1040.6719 1389,1040.6719 1389,1030.6719 " fill="none" style="stroke:#181818;stroke-width:1.5;"/><rect fill="#FFFFFF" height="802.1406" style="stroke:#181818;stroke-width:1.0;" width="10" x="476" y="183.9219"/><rect fill="#FFFFFF" height="121.4063" style="stroke:#181818;stroke-width:1.0;" width="10" x="799" y="214.2734"/><rect fill="#FFFFFF" height="121.4063" style="stroke:#181818;stroke-width:1.0;" width="10" x="799" y="712.8984"/><rect fill="#FFFFFF" height="121.4063" style="stroke:#181818;stroke-width:1.0;" width="10" x="986.5" y="366.0313"/><rect fill="#FFFFFF" height="121.4063" style="stroke:#181818;stroke-width:1.0;" width="10" x="1133.5" y="517.7891"/><polygon fill="#181818" points="304,149.5703,314,153.5703,304,157.5703,308,153.5703" style="stroke:#181818;stroke-width:1.0;"/><line style="stroke:#181818;stroke-width:1.0;" x1="66" x2="310" y1="153.5703" y2="153.5703"/><text fill="#000000" font-family="sans-serif" font-size="13" lengthAdjust="spacing" textLength="226" x="73" y="148.7139">POST /api/resources/sts-cranes {body}</text><polygon fill="#181818" points="464,179.9219,474,183.9219,464,187.9219,468,183.9219" style="stroke:#181818;stroke-width:1.0;"/><line style="stroke:#181818;stroke-width:1.0;" x1="316" x2="470" y1="183.9219" y2="183.9219"/><text fill="#000000" font-family="sans-serif" font-size="13" lengthAdjust="spacing" textLength="123" x="323" y="179.0654">CreateSTSCrane(dto)</text><polygon fill="#181818" points="787,210.2734,797,214.2734,787,218.2734,791,214.2734" style="stroke:#181818;stroke-width:1.0;"/><line style="stroke:#181818;stroke-width:1.0;" x1="486" x2="793" y1="214.2734" y2="214.2734"/><text fill="#000000" font-family="sans-serif" font-size="13" lengthAdjust="spacing" textLength="134" x="493" y="209.417">ExistsAsync(dto.Code)</text><polygon fill="#181818" points="1246.5,240.625,1256.5,244.625,1246.5,248.625,1250.5,244.625" style="stroke:#181818;stroke-width:1.0;"/><line style="stroke:#181818;stroke-width:1.0;" x1="809" x2="1252.5" y1="244.625" y2="244.625"/><text fill="#000000" font-family="sans-serif" font-size="13" lengthAdjust="spacing" textLength="98" x="816" y="239.7686">AnyAsync(Code)</text><polygon fill="#181818" points="1359,270.9766,1369,274.9766,1359,278.9766,1363,274.9766" style="stroke:#181818;stroke-width:1.0;"/><line style="stroke:#181818;stroke-width:1.0;" x1="1258.5" x2="1365" y1="274.9766" y2="274.9766"/><text fill="#000000" font-family="sans-serif" font-size="13" lengthAdjust="spacing" textLength="32" x="1265.5" y="270.1201">query</text><polygon fill="#181818" points="1269.5,301.3281,1259.5,305.3281,1269.5,309.3281,1265.5,305.3281" style="stroke:#181818;stroke-width:1.0;"/><line style="stroke:#181818;stroke-width:1.0;stroke-dasharray:2.0,2.0;" x1="1263.5" x2="1370" y1="305.3281" y2="305.3281"/><text fill="#000000" font-family="sans-serif" font-size="13" lengthAdjust="spacing" textLength="27" x="1275.5" y="300.4717">false</text><polygon fill="#181818" points="815,331.6797,805,335.6797,815,339.6797,811,335.6797" style="stroke:#181818;stroke-width:1.0;"/><line style="stroke:#181818;stroke-width:1.0;stroke-dasharray:2.0,2.0;" x1="809" x2="1257.5" y1="335.6797" y2="335.6797"/><text fill="#000000" font-family="sans-serif" font-size="13" lengthAdjust="spacing" textLength="27" x="821" y="330.8232">false</text><polygon fill="#181818" points="974.5,362.0313,984.5,366.0313,974.5,370.0313,978.5,366.0313" style="stroke:#181818;stroke-width:1.0;"/><line style="stroke:#181818;stroke-width:1.0;" x1="486" x2="980.5" y1="366.0313" y2="366.0313"/><text fill="#000000" font-family="sans-serif" font-size="13" lengthAdjust="spacing" textLength="247" x="493" y="361.1748">SearchAsync(dto.RequiredQualificationIds)</text><polygon fill="#181818" points="1246.5,392.3828,1256.5,396.3828,1246.5,400.3828,1250.5,396.3828" style="stroke:#181818;stroke-width:1.0;"/><line style="stroke:#181818;stroke-width:1.0;" x1="996.5" x2="1252.5" y1="396.3828" y2="396.3828"/><text fill="#000000" font-family="sans-serif" font-size="13" lengthAdjust="spacing" textLength="67" x="1003.5" y="391.5264">query quals</text><polygon fill="#181818" points="1359,422.7344,1369,426.7344,1359,430.7344,1363,426.7344" style="stroke:#181818;stroke-width:1.0;"/><line style="stroke:#181818;stroke-width:1.0;" x1="1258.5" x2="1365" y1="426.7344" y2="426.7344"/><text fill="#000000" font-family="sans-serif" font-size="13" lengthAdjust="spacing" textLength="32" x="1265.5" y="421.8779">query</text><polygon fill="#181818" points="1269.5,453.0859,1259.5,457.0859,1269.5,461.0859,1265.5,457.0859" style="stroke:#181818;stroke-width:1.0;"/><line style="stroke:#181818;stroke-width:1.0;stroke-dasharray:2.0,2.0;" x1="1263.5" x2="1370" y1="457.0859" y2="457.0859"/><text fill="#000000" font-family="sans-serif" font-size="13" lengthAdjust="spacing" textLength="39" x="1275.5" y="452.2295">quals[]</text><polygon fill="#181818" points="1002.5,483.4375,992.5,487.4375,1002.5,491.4375,998.5,487.4375" style="stroke:#181818;stroke-width:1.0;"/><line style="stroke:#181818;stroke-width:1.0;stroke-dasharray:2.0,2.0;" x1="996.5" x2="1257.5" y1="487.4375" y2="487.4375"/><text fill="#000000" font-family="sans-serif" font-size="13" lengthAdjust="spacing" textLength="39" x="1008.5" y="482.5811">quals[]</text><polygon fill="#181818" points="1121.5,513.7891,1131.5,517.7891,1121.5,521.7891,1125.5,517.7891" style="stroke:#181818;stroke-width:1.0;"/><line style="stroke:#181818;stroke-width:1.0;" x1="486" x2="1127.5" y1="517.7891" y2="517.7891"/><text fill="#000000" font-family="sans-serif" font-size="13" lengthAdjust="spacing" textLength="255" x="493" y="512.9326">GetByCodeAsync(dto.InstalledAtDockCode)</text><polygon fill="#181818" points="1246.5,544.1406,1256.5,548.1406,1246.5,552.1406,1250.5,548.1406" style="stroke:#181818;stroke-width:1.0;"/><line style="stroke:#181818;stroke-width:1.0;" x1="1143.5" x2="1252.5" y1="548.1406" y2="548.1406"/><text fill="#000000" font-family="sans-serif" font-size="13" lengthAdjust="spacing" textLength="57" x="1150.5" y="543.2842">Find dock</text><polygon fill="#181818" points="1359,574.4922,1369,578.4922,1359,582.4922,1363,578.4922" style="stroke:#181818;stroke-width:1.0;"/><line style="stroke:#181818;stroke-width:1.0;" x1="1258.5" x2="1365" y1="578.4922" y2="578.4922"/><text fill="#000000" font-family="sans-serif" font-size="13" lengthAdjust="spacing" textLength="32" x="1265.5" y="573.6357">query</text><polygon fill="#181818" points="1269.5,604.8438,1259.5,608.8438,1269.5,612.8438,1265.5,608.8438" style="stroke:#181818;stroke-width:1.0;"/><line style="stroke:#181818;stroke-width:1.0;stroke-dasharray:2.0,2.0;" x1="1263.5" x2="1370" y1="608.8438" y2="608.8438"/><text fill="#000000" font-family="sans-serif" font-size="13" lengthAdjust="spacing" textLength="67" x="1275.5" y="603.9873">dock or null</text><polygon fill="#181818" points="1149.5,635.1953,1139.5,639.1953,1149.5,643.1953,1145.5,639.1953" style="stroke:#181818;stroke-width:1.0;"/><line style="stroke:#181818;stroke-width:1.0;stroke-dasharray:2.0,2.0;" x1="1143.5" x2="1257.5" y1="639.1953" y2="639.1953"/><text fill="#000000" font-family="sans-serif" font-size="13" lengthAdjust="spacing" textLength="35" x="1155.5" y="634.3389">dock?</text><line style="stroke:#181818;stroke-width:1.0;" x1="486" x2="528" y1="669.5469" y2="669.5469"/><line style="stroke:#181818;stroke-width:1.0;" x1="528" x2="528" y1="669.5469" y2="682.5469"/><line style="stroke:#181818;stroke-width:1.0;" x1="487" x2="528" y1="682.5469" y2="682.5469"/><polygon fill="#181818" points="497,678.5469,487,682.5469,497,686.5469,493,682.5469" style="stroke:#181818;stroke-width:1.0;"/><text fill="#000000" font-family="sans-serif" font-size="13" lengthAdjust="spacing" textLength="299" x="493" y="664.6904">Validate required fields (AvgContainersPerHour etc.)</text><polygon fill="#181818" points="787,708.8984,797,712.8984,787,716.8984,791,712.8984" style="stroke:#181818;stroke-width:1.0;"/><line style="stroke:#181818;stroke-width:1.0;" x1="486" x2="793" y1="712.8984" y2="712.8984"/><text fill="#000000" font-family="sans-serif" font-size="13" lengthAdjust="spacing" textLength="174" x="493" y="708.042">AddAsync(new STSCrane(...))</text><polygon fill="#181818" points="1246.5,739.25,1256.5,743.25,1246.5,747.25,1250.5,743.25" style="stroke:#181818;stroke-width:1.0;"/><line style="stroke:#181818;stroke-width:1.0;" x1="809" x2="1252.5" y1="743.25" y2="743.25"/><text fill="#000000" font-family="sans-serif" font-size="13" lengthAdjust="spacing" textLength="63" x="816" y="738.3936">Add(entity)</text><polygon fill="#181818" points="1359,769.6016,1369,773.6016,1359,777.6016,1363,773.6016" style="stroke:#181818;stroke-width:1.0;"/><line style="stroke:#181818;stroke-width:1.0;" x1="1258.5" x2="1365" y1="773.6016" y2="773.6016"/><text fill="#000000" font-family="sans-serif" font-size="13" lengthAdjust="spacing" textLength="46" x="1265.5" y="768.7451">INSERT</text><polygon fill="#181818" points="1269.5,799.9531,1259.5,803.9531,1269.5,807.9531,1265.5,803.9531" style="stroke:#181818;stroke-width:1.0;"/><line style="stroke:#181818;stroke-width:1.0;stroke-dasharray:2.0,2.0;" x1="1263.5" x2="1370" y1="803.9531" y2="803.9531"/><text fill="#000000" font-family="sans-serif" font-size="13" lengthAdjust="spacing" textLength="14" x="1275.5" y="799.0967">ok</text><polygon fill="#181818" points="815,830.3047,805,834.3047,815,838.3047,811,834.3047" style="stroke:#181818;stroke-width:1.0;"/><line style="stroke:#181818;stroke-width:1.0;stroke-dasharray:2.0,2.0;" x1="809" x2="1257.5" y1="834.3047" y2="834.3047"/><text fill="#000000" font-family="sans-serif" font-size="13" lengthAdjust="spacing" textLength="14" x="821" y="829.4482">ok</text><polygon fill="#181818" points="1246.5,860.6563,1256.5,864.6563,1246.5,868.6563,1250.5,864.6563" style="stroke:#181818;stroke-width:1.0;"/><line style="stroke:#181818;stroke-width:1.0;" x1="486" x2="1252.5" y1="864.6563" y2="864.6563"/><text fill="#000000" font-family="sans-serif" font-size="13" lengthAdjust="spacing" textLength="124" x="493" y="859.7998">SaveChangesAsync()</text><polygon fill="#181818" points="1359,891.0078,1369,895.0078,1359,899.0078,1363,895.0078" style="stroke:#181818;stroke-width:1.0;"/><line style="stroke:#181818;stroke-width:1.0;" x1="1258.5" x2="1365" y1="895.0078" y2="895.0078"/><text fill="#000000" font-family="sans-serif" font-size="13" lengthAdjust="spacing" textLength="43" x="1265.5" y="890.1514">commit</text><polygon fill="#181818" points="1269.5,921.3594,1259.5,925.3594,1269.5,929.3594,1265.5,925.3594" style="stroke:#181818;stroke-width:1.0;"/><line style="stroke:#181818;stroke-width:1.0;stroke-dasharray:2.0,2.0;" x1="1263.5" x2="1370" y1="925.3594" y2="925.3594"/><text fill="#000000" font-family="sans-serif" font-size="13" lengthAdjust="spacing" textLength="14" x="1275.5" y="920.5029">ok</text><polygon fill="#181818" points="497,951.7109,487,955.7109,497,959.7109,493,955.7109" style="stroke:#181818;stroke-width:1.0;"/><line style="stroke:#181818;stroke-width:1.0;stroke-dasharray:2.0,2.0;" x1="491" x2="1257.5" y1="955.7109" y2="955.7109"/><text fill="#000000" font-family="sans-serif" font-size="13" lengthAdjust="spacing" textLength="14" x="503" y="950.8545">ok</text><polygon fill="#181818" points="327,982.0625,317,986.0625,327,990.0625,323,986.0625" style="stroke:#181818;stroke-width:1.0;"/><line style="stroke:#181818;stroke-width:1.0;stroke-dasharray:2.0,2.0;" x1="321" x2="480" y1="986.0625" y2="986.0625"/><text fill="#000000" font-family="sans-serif" font-size="13" lengthAdjust="spacing" textLength="136" x="333" y="981.2061">201 Created + resource</text><!--SRC=[ZPD1hn8n4CVl-oacd206K8yUD6lXAOdwW2LUZ8VI3j2yfSMsuDiOlxlJxHPsLtrv5q9dVjFvp_I_NlaIeS0VPzG2OQRutl8ZZ85Pv1vXUQYS4ho4DJfpjWApZ0jlB0m-cRroNWa7zoUqd683uBT3TkAMikh4jOT1lbm0AnLgNqFnRnT9dL8ZnupsrfGbnelPq_WQJyOfQbpLT3Xs2rPdNgeTbNXbT8zU_OtFZ7ZeKIdK4sAidss3M7oCqysscUIURxb36CplOBZGd_58jupgT44NqXhJec3yjja7l87bVR61AJ-fgKrhc3hlni9oZGv-ROsiVcSD7Wgf9hvKiIbOW8RIcr5u8tK9xyUoZ0Kmw2Ps_aXlvd9NQH702JCIMtGzNOrIoMnB1Rck8Xr9Yb6cde2IP1fRPV4qJXKxNZgimLlR69FORHILhHgcG6x5uIPjJPvK5cNdtHRIjUJ6Prjr1DUQw9SwFaTj3NxxdlGcCIdSahngQKvE8F83-lTLMCvD-K8xpyctClS1xEtuwgBh9KdBdT8I94MV8pnmGExHvx9CwbkoGlfTM_wrRPmW6EShBLQ6d6rM3Jk5fNGmp2_xO6YkD5gtHFkHh0ZenMJKSLCkPPnQuq-u6d0ocOoUzfIKG_AlybNVK8ilnNozwOzg7dfsei2_lLJZ1RyWEt2znyRe_Ix278_A_xyBYwTmPVlRVFtoLVEjINW1wVjiAs5_0000]--></g></svg>