<?xml version="1.0" encoding="us-ascii" standalone="no"?><svg xmlns="http://www.w3.org/2000/svg" xmlns:xlink="http://www.w3.org/1999/xlink" contentStyleType="text/css" height="847px" preserveAspectRatio="none" style="width:1281px;height:847px;background:#FFFFFF;" version="1.1" viewBox="0 0 1281 847" width="1281px" zoomAndPan="magnify"><defs/><g><text fill="#000000" font-family="sans-serif" font-size="14" font-weight="bold" lengthAdjust="spacing" textLength="353" x="465.25" y="29.5332">Sequence Diagram - Deactivate Physical Resource</text><rect fill="#FFFFFF" height="571.3281" style="stroke:#181818;stroke-width:1.0;" width="10" x="516" y="183.9219"/><rect fill="#FFFFFF" height="121.4063" style="stroke:#181818;stroke-width:1.0;" width="10" x="937" y="214.2734"/><rect fill="#FFFFFF" height="121.4063" style="stroke:#181818;stroke-width:1.0;" width="10" x="937" y="467.0859"/><rect fill="none" height="397.5703" style="stroke:#000000;stroke-width:1.5;" width="950" x="324.5" y="350.6797"/><line style="stroke:#181818;stroke-width:0.5;stroke-dasharray:5.0,5.0;" x1="66" x2="66" y1="121.2188" y2="765.25"/><line style="stroke:#181818;stroke-width:0.5;stroke-dasharray:5.0,5.0;" x1="371.5" x2="371.5" y1="121.2188" y2="765.25"/><line style="stroke:#181818;stroke-width:0.5;stroke-dasharray:5.0,5.0;" x1="521" x2="521" y1="121.2188" y2="765.25"/><line style="stroke:#181818;stroke-width:0.5;stroke-dasharray:5.0,5.0;" x1="941.5" x2="941.5" y1="121.2188" y2="765.25"/><line style="stroke:#181818;stroke-width:0.5;stroke-dasharray:5.0,5.0;" x1="1102.5" x2="1102.5" y1="121.2188" y2="765.25"/><line style="stroke:#181818;stroke-width:0.5;stroke-dasharray:5.0,5.0;" x1="1214.5" x2="1214.5" y1="121.2188" y2="765.25"/><text fill="#000000" font-family="sans-serif" font-size="14" lengthAdjust="spacing" textLength="116" x="5" y="118.1426">Logistics Operator</text><ellipse cx="66" cy="52.1094" fill="#E2E2F0" rx="8" ry="8" style="stroke:#181818;stroke-width:0.5;"/><path d="M66,60.1094 L66,87.1094 M53,68.1094 L79,68.1094 M66,87.1094 L53,102.1094 M66,87.1094 L79,102.1094 " fill="none" style="stroke:#181818;stroke-width:0.5;"/><text fill="#000000" font-family="sans-serif" font-size="14" lengthAdjust="spacing" textLength="116" x="5" y="778.7832">Logistics Operator</text><ellipse cx="66" cy="790.3594" fill="#E2E2F0" rx="8" ry="8" style="stroke:#181818;stroke-width:0.5;"/><path d="M66,798.3594 L66,825.3594 M53,806.3594 L79,806.3594 M66,825.3594 L53,840.3594 M66,825.3594 L79,840.3594 " fill="none" style="stroke:#181818;stroke-width:0.5;"/><rect fill="#E2E2F0" height="31.6094" rx="2.5" ry="2.5" style="stroke:#181818;stroke-width:0.5;" width="75" x="334.5" y="88.6094"/><text fill="#000000" font-family="sans-serif" font-size="14" lengthAdjust="spacing" textLength="61" x="341.5" y="110.1426">API Client</text><rect fill="#E2E2F0" height="31.6094" rx="2.5" ry="2.5" style="stroke:#181818;stroke-width:0.5;" width="75" x="334.5" y="764.25"/><text fill="#000000" font-family="sans-serif" font-size="14" lengthAdjust="spacing" textLength="61" x="341.5" y="785.7832">API Client</text><rect fill="#E2E2F0" height="31.6094" rx="2.5" ry="2.5" style="stroke:#181818;stroke-width:0.5;" width="196" x="423" y="88.6094"/><text fill="#000000" font-family="sans-serif" font-size="14" lengthAdjust="spacing" textLength="182" x="430" y="110.1426">PhysicalResourcesController</text><rect fill="#E2E2F0" height="31.6094" rx="2.5" ry="2.5" style="stroke:#181818;stroke-width:0.5;" width="196" x="423" y="764.25"/><text fill="#000000" font-family="sans-serif" font-size="14" lengthAdjust="spacing" textLength="182" x="430" y="785.7832">PhysicalResourcesController</text><rect fill="#E2E2F0" height="31.6094" rx="2.5" ry="2.5" style="stroke:#181818;stroke-width:0.5;" width="195" x="844.5" y="88.6094"/><text fill="#000000" font-family="sans-serif" font-size="14" lengthAdjust="spacing" textLength="181" x="851.5" y="110.1426">PhysicalResourceRepository</text><rect fill="#E2E2F0" height="31.6094" rx="2.5" ry="2.5" style="stroke:#181818;stroke-width:0.5;" width="195" x="844.5" y="764.25"/><text fill="#000000" font-family="sans-serif" font-size="14" lengthAdjust="spacing" textLength="181" x="851.5" y="785.7832">PhysicalResourceRepository</text><rect fill="#E2E2F0" height="31.6094" rx="2.5" ry="2.5" style="stroke:#181818;stroke-width:0.5;" width="106" x="1049.5" y="88.6094"/><text fill="#000000" font-family="sans-serif" font-size="14" lengthAdjust="spacing" textLength="92" x="1056.5" y="110.1426">PortDbContext</text><rect fill="#E2E2F0" height="31.6094" rx="2.5" ry="2.5" style="stroke:#181818;stroke-width:0.5;" width="106" x="1049.5" y="764.25"/><text fill="#000000" font-family="sans-serif" font-size="14" lengthAdjust="spacing" textLength="92" x="1056.5" y="785.7832">PortDbContext</text><text fill="#000000" font-family="sans-serif" font-size="14" lengthAdjust="spacing" textLength="93" x="1165.5" y="118.1426">EF (InMemory)</text><path d="M1197,67.6094 C1197,57.6094 1215,57.6094 1215,57.6094 C1215,57.6094 1233,57.6094 1233,67.6094 L1233,93.6094 C1233,103.6094 1215,103.6094 1215,103.6094 C1215,103.6094 1197,103.6094 1197,93.6094 L1197,67.6094 " fill="#E2E2F0" style="stroke:#181818;stroke-width:1.5;"/><path d="M1197,67.6094 C1197,77.6094 1215,77.6094 1215,77.6094 C1215,77.6094 1233,77.6094 1233,67.6094 " fill="none" style="stroke:#181818;stroke-width:1.5;"/><text fill="#000000" font-family="sans-serif" font-size="14" lengthAdjust="spacing" textLength="93" x="1165.5" y="778.7832">EF (InMemory)</text><path d="M1197,791.8594 C1197,781.8594 1215,781.8594 1215,781.8594 C1215,781.8594 1233,781.8594 1233,791.8594 L1233,817.8594 C1233,827.8594 1215,827.8594 1215,827.8594 C1215,827.8594 1197,827.8594 1197,817.8594 L1197,791.8594 " fill="#E2E2F0" style="stroke:#181818;stroke-width:1.5;"/><path d="M1197,791.8594 C1197,801.8594 1215,801.8594 1215,801.8594 C1215,801.8594 1233,801.8594 1233,791.8594 " fill="none" style="stroke:#181818;stroke-width:1.5;"/><rect fill="#FFFFFF" height="571.3281" style="stroke:#181818;stroke-width:1.0;" width="10" x="516" y="183.9219"/><rect fill="#FFFFFF" height="121.4063" style="stroke:#181818;stroke-width:1.0;" width="10" x="937" y="214.2734"/><rect fill="#FFFFFF" height="121.4063" style="stroke:#181818;stroke-width:1.0;" width="10" x="937" y="467.0859"/><polygon fill="#181818" points="360,149.5703,370,153.5703,360,157.5703,364,153.5703" style="stroke:#181818;stroke-width:1.0;"/><line style="stroke:#181818;stroke-width:1.0;" x1="66" x2="366" y1="153.5703" y2="153.5703"/><text fill="#000000" font-family="sans-serif" font-size="13" lengthAdjust="spacing" textLength="282" x="73" y="148.7139">PATCH /api/resources/{code}/deactivate {reason}</text><polygon fill="#181818" points="504,179.9219,514,183.9219,504,187.9219,508,183.9219" style="stroke:#181818;stroke-width:1.0;"/><line style="stroke:#181818;stroke-width:1.0;" x1="372" x2="510" y1="183.9219" y2="183.9219"/><text fill="#000000" font-family="sans-serif" font-size="13" lengthAdjust="spacing" textLength="122" x="379" y="179.0654">Deactivate(code, dto)</text><polygon fill="#181818" points="925,210.2734,935,214.2734,925,218.2734,929,214.2734" style="stroke:#181818;stroke-width:1.0;"/><line style="stroke:#181818;stroke-width:1.0;" x1="526" x2="931" y1="214.2734" y2="214.2734"/><text fill="#000000" font-family="sans-serif" font-size="13" lengthAdjust="spacing" textLength="297" x="533" y="209.417">GetByCodeAsync(code, includeQualifications: true)</text><polygon fill="#181818" points="1090.5,240.625,1100.5,244.625,1090.5,248.625,1094.5,244.625" style="stroke:#181818;stroke-width:1.0;"/><line style="stroke:#181818;stroke-width:1.0;" x1="947" x2="1096.5" y1="244.625" y2="244.625"/><text fill="#000000" font-family="sans-serif" font-size="13" lengthAdjust="spacing" textLength="32" x="954" y="239.7686">query</text><polygon fill="#181818" points="1203,270.9766,1213,274.9766,1203,278.9766,1207,274.9766" style="stroke:#181818;stroke-width:1.0;"/><line style="stroke:#181818;stroke-width:1.0;" x1="1102.5" x2="1209" y1="274.9766" y2="274.9766"/><text fill="#000000" font-family="sans-serif" font-size="13" lengthAdjust="spacing" textLength="50" x="1109.5" y="270.1201">resource</text><polygon fill="#181818" points="1113.5,301.3281,1103.5,305.3281,1113.5,309.3281,1109.5,305.3281" style="stroke:#181818;stroke-width:1.0;"/><line style="stroke:#181818;stroke-width:1.0;stroke-dasharray:2.0,2.0;" x1="1107.5" x2="1214" y1="305.3281" y2="305.3281"/><text fill="#000000" font-family="sans-serif" font-size="13" lengthAdjust="spacing" textLength="50" x="1119.5" y="300.4717">resource</text><polygon fill="#181818" points="953,331.6797,943,335.6797,953,339.6797,949,335.6797" style="stroke:#181818;stroke-width:1.0;"/><line style="stroke:#181818;stroke-width:1.0;stroke-dasharray:2.0,2.0;" x1="947" x2="1101.5" y1="335.6797" y2="335.6797"/><text fill="#000000" font-family="sans-serif" font-size="13" lengthAdjust="spacing" textLength="50" x="959" y="330.8232">resource</text><path d="M324.5,350.6797 L385.5,350.6797 L385.5,359.0313 L375.5,369.0313 L324.5,369.0313 L324.5,350.6797 " fill="#EEEEEE" style="stroke:#000000;stroke-width:1.5;"/><rect fill="none" height="397.5703" style="stroke:#000000;stroke-width:1.5;" width="950" x="324.5" y="350.6797"/><text fill="#000000" font-family="sans-serif" font-size="13" font-weight="bold" lengthAdjust="spacing" textLength="16" x="339.5" y="365.1748">alt</text><text fill="#000000" font-family="sans-serif" font-size="11" font-weight="bold" lengthAdjust="spacing" textLength="168" x="400.5" y="364.0986">[resource already deactivated]</text><polygon fill="#181818" points="383,387.3828,373,391.3828,383,395.3828,379,391.3828" style="stroke:#181818;stroke-width:1.0;"/><line style="stroke:#181818;stroke-width:1.0;stroke-dasharray:2.0,2.0;" x1="377" x2="515" y1="391.3828" y2="391.3828"/><text fill="#000000" font-family="sans-serif" font-size="13" lengthAdjust="spacing" textLength="120" x="389" y="386.5264">200 OK (idempotent)</text><line style="stroke:#000000;stroke-width:1.0;stroke-dasharray:2.0,2.0;" x1="324.5" x2="1274.5" y1="400.3828" y2="400.3828"/><line style="stroke:#181818;stroke-width:1.0;" x1="526" x2="568" y1="423.7344" y2="423.7344"/><line style="stroke:#181818;stroke-width:1.0;" x1="568" x2="568" y1="423.7344" y2="436.7344"/><line style="stroke:#181818;stroke-width:1.0;" x1="527" x2="568" y1="436.7344" y2="436.7344"/><polygon fill="#181818" points="537,432.7344,527,436.7344,537,440.7344,533,436.7344" style="stroke:#181818;stroke-width:1.0;"/><text fill="#000000" font-family="sans-serif" font-size="13" lengthAdjust="spacing" textLength="397" x="533" y="418.8779">resource.Deactivate(reason) (set DeactivatedAt, DeactivationReason)</text><polygon fill="#181818" points="925,463.0859,935,467.0859,925,471.0859,929,467.0859" style="stroke:#181818;stroke-width:1.0;"/><line style="stroke:#181818;stroke-width:1.0;" x1="526" x2="931" y1="467.0859" y2="467.0859"/><text fill="#000000" font-family="sans-serif" font-size="13" lengthAdjust="spacing" textLength="99" x="533" y="462.2295">Update(resource)</text><polygon fill="#181818" points="1090.5,493.4375,1100.5,497.4375,1090.5,501.4375,1094.5,497.4375" style="stroke:#181818;stroke-width:1.0;"/><line style="stroke:#181818;stroke-width:1.0;" x1="947" x2="1096.5" y1="497.4375" y2="497.4375"/><text fill="#000000" font-family="sans-serif" font-size="13" lengthAdjust="spacing" textLength="41" x="954" y="492.5811">Update</text><polygon fill="#181818" points="1203,523.7891,1213,527.7891,1203,531.7891,1207,527.7891" style="stroke:#181818;stroke-width:1.0;"/><line style="stroke:#181818;stroke-width:1.0;" x1="1102.5" x2="1209" y1="527.7891" y2="527.7891"/><text fill="#000000" font-family="sans-serif" font-size="13" lengthAdjust="spacing" textLength="52" x="1109.5" y="522.9326">UPDATE</text><polygon fill="#181818" points="1113.5,554.1406,1103.5,558.1406,1113.5,562.1406,1109.5,558.1406" style="stroke:#181818;stroke-width:1.0;"/><line style="stroke:#181818;stroke-width:1.0;stroke-dasharray:2.0,2.0;" x1="1107.5" x2="1214" y1="558.1406" y2="558.1406"/><text fill="#000000" font-family="sans-serif" font-size="13" lengthAdjust="spacing" textLength="14" x="1119.5" y="553.2842">ok</text><polygon fill="#181818" points="953,584.4922,943,588.4922,953,592.4922,949,588.4922" style="stroke:#181818;stroke-width:1.0;"/><line style="stroke:#181818;stroke-width:1.0;stroke-dasharray:2.0,2.0;" x1="947" x2="1101.5" y1="588.4922" y2="588.4922"/><text fill="#000000" font-family="sans-serif" font-size="13" lengthAdjust="spacing" textLength="14" x="959" y="583.6357">ok</text><polygon fill="#181818" points="1090.5,614.8438,1100.5,618.8438,1090.5,622.8438,1094.5,618.8438" style="stroke:#181818;stroke-width:1.0;"/><line style="stroke:#181818;stroke-width:1.0;" x1="526" x2="1096.5" y1="618.8438" y2="618.8438"/><text fill="#000000" font-family="sans-serif" font-size="13" lengthAdjust="spacing" textLength="124" x="533" y="613.9873">SaveChangesAsync()</text><polygon fill="#181818" points="1203,645.1953,1213,649.1953,1203,653.1953,1207,649.1953" style="stroke:#181818;stroke-width:1.0;"/><line style="stroke:#181818;stroke-width:1.0;" x1="1102.5" x2="1209" y1="649.1953" y2="649.1953"/><text fill="#000000" font-family="sans-serif" font-size="13" lengthAdjust="spacing" textLength="43" x="1109.5" y="644.3389">commit</text><polygon fill="#181818" points="1113.5,675.5469,1103.5,679.5469,1113.5,683.5469,1109.5,679.5469" style="stroke:#181818;stroke-width:1.0;"/><line style="stroke:#181818;stroke-width:1.0;stroke-dasharray:2.0,2.0;" x1="1107.5" x2="1214" y1="679.5469" y2="679.5469"/><text fill="#000000" font-family="sans-serif" font-size="13" lengthAdjust="spacing" textLength="14" x="1119.5" y="674.6904">ok</text><polygon fill="#181818" points="537,705.8984,527,709.8984,537,713.8984,533,709.8984" style="stroke:#181818;stroke-width:1.0;"/><line style="stroke:#181818;stroke-width:1.0;stroke-dasharray:2.0,2.0;" x1="531" x2="1101.5" y1="709.8984" y2="709.8984"/><text fill="#000000" font-family="sans-serif" font-size="13" lengthAdjust="spacing" textLength="14" x="543" y="705.042">ok</text><polygon fill="#181818" points="383,736.25,373,740.25,383,744.25,379,740.25" style="stroke:#181818;stroke-width:1.0;"/><line style="stroke:#181818;stroke-width:1.0;stroke-dasharray:2.0,2.0;" x1="377" x2="515" y1="740.25" y2="740.25"/><text fill="#000000" font-family="sans-serif" font-size="13" lengthAdjust="spacing" textLength="110" x="389" y="735.3936">200 OK + resource</text><!--SRC=[VL71Rjim3BthAuYSOgnPYXrx6E39NLjqGxEa_G36ub9XikHASZ6ZwB-FjkpOQR7UnCV7HxwdgACXsD5JGxOaA3GUF5QmWeAmZFeP8y7ciGswH0DR2gxn9Gd1FUTXySCTT8Yw371NaqV65e1J8MhqtDKrsWYBV7C3qcYoiIUbvobbt3Gk2jBPw9qnb8Jbn_GjrIveNjpsxAvyC-1yBFQTAFrDLnHxeJ3Y7WF1ul8xB6_iJwfO8UlREnPZkwCXM7qTxeOBsEJtyXhMMEkr7-zTlvHEqUjQJUczUCBWxAiO1Zi9dfxoNNOZPw2YoyHnIWeXEshdWTbN5B-radbvQ6qvJ6XRcaRHhmQD_iqvHErik83e6vefzIdqCYnNx5cC_zgtWfyCz0OP6ns81An6xX7lwDCzHtXcj5yaqCHZ5z2mUTN2n582sFvgdkENytEukuMbLbJLBZAO2JA14ZEbDIf-diMMSirW6IZEubHvF9jAZcIRUAFSuE2XLaaa2NVjKoS09w4bFgEdkJriYlp-ak4tkRa_0tNQs4FlyXgkweTs-4po4Us1GlhdxDs-qbMLZX_lawd-RzAVfkyZg-PVAFy1]--></g></svg>