<?xml version="1.0" encoding="us-ascii" standalone="no"?><svg xmlns="http://www.w3.org/2000/svg" xmlns:xlink="http://www.w3.org/1999/xlink" contentStyleType="text/css" height="616px" preserveAspectRatio="none" style="width:991px;height:616px;background:#FFFFFF;" version="1.1" viewBox="0 0 991 616" width="991px" zoomAndPan="magnify"><defs/><g><text fill="#000000" font-family="sans-serif" font-size="14" font-weight="bold" lengthAdjust="spacing" textLength="326" x="325.995" y="24.5332">Class Diagram - US 2.2.12 (Physical Resources)</text><!--class PhysicalResourcesController--><g id="elem_PhysicalResourcesController"><rect codeLine="3" fill="#F1F1F1" height="188.875" id="PhysicalResourcesController" rx="2.5" ry="2.5" style="stroke:#181818;stroke-width:0.5;" width="248" x="728.5" y="45.6094"/><ellipse cx="758.8" cy="61.6094" fill="#ADD1B2" rx="11" ry="11" style="stroke:#181818;stroke-width:1.0;"/><path d="M761.5656,57.4844 Q761.7219,57.2656 761.9094,57.1563 Q762.0969,57.0469 762.3156,57.0469 Q762.6906,57.0469 762.925,57.3125 Q763.1594,57.5625 763.1594,58.1719 L763.1594,59.625 Q763.1594,60.2344 762.925,60.5 Q762.6906,60.7656 762.3156,60.7656 Q761.9719,60.7656 761.7688,60.5625 Q761.5656,60.375 761.4563,59.8594 Q761.4094,59.5 761.2219,59.3125 Q760.8938,58.9375 760.2844,58.7188 Q759.675,58.5 759.05,58.5 Q758.2844,58.5 757.6438,58.8281 Q757.0188,59.1563 756.5188,59.9063 Q756.0344,60.6563 756.0344,61.6875 L756.0344,62.7813 Q756.0344,64.0156 756.925,64.8438 Q757.8156,65.6563 759.4094,65.6563 Q760.3469,65.6563 761.0031,65.4063 Q761.3938,65.25 761.8156,64.8125 Q762.0813,64.5469 762.2219,64.4688 Q762.3781,64.3906 762.5813,64.3906 Q762.9094,64.3906 763.1594,64.6563 Q763.425,64.9063 763.425,65.25 Q763.425,65.5938 763.0813,66 Q762.5813,66.5781 761.7844,66.9063 Q760.7063,67.3594 759.4094,67.3594 Q757.8938,67.3594 756.6906,66.7344 Q755.7063,66.2344 755.0188,65.1719 Q754.3313,64.0938 754.3313,62.8125 L754.3313,61.6563 Q754.3313,60.3281 754.9406,59.1875 Q755.5656,58.0313 756.6594,57.4219 Q757.7531,56.7969 758.9875,56.7969 Q759.7219,56.7969 760.3625,56.9688 Q761.0188,57.125 761.5656,57.4844 Z " fill="#000000"/><text fill="#000000" font-family="sans-serif" font-size="14" lengthAdjust="spacing" textLength="182" x="776.2" y="67.3379">PhysicalResourcesController</text><line style="stroke:#181818;stroke-width:0.5;" x1="729.5" x2="975.5" y1="77.6094" y2="77.6094"/><line style="stroke:#181818;stroke-width:0.5;" x1="729.5" x2="975.5" y1="85.6094" y2="85.6094"/><ellipse cx="739.5" cy="99.9141" fill="#84BE84" rx="3" ry="3" style="stroke:#038048;stroke-width:1.0;"/><text fill="#000000" font-family="sans-serif" font-size="14" lengthAdjust="spacing" textLength="139" x="748.5" y="104.1426">CreateSTSCrane(dto)</text><ellipse cx="739.5" cy="117.5234" fill="#84BE84" rx="3" ry="3" style="stroke:#038048;stroke-width:1.0;"/><text fill="#000000" font-family="sans-serif" font-size="14" lengthAdjust="spacing" textLength="181" x="748.5" y="121.752">CreateMobileEquipment(dto)</text><ellipse cx="739.5" cy="135.1328" fill="#84BE84" rx="3" ry="3" style="stroke:#038048;stroke-width:1.0;"/><text fill="#000000" font-family="sans-serif" font-size="14" lengthAdjust="spacing" textLength="180" x="748.5" y="139.3613">UpdateSTSCrane(code, dto)</text><ellipse cx="739.5" cy="152.7422" fill="#84BE84" rx="3" ry="3" style="stroke:#038048;stroke-width:1.0;"/><text fill="#000000" font-family="sans-serif" font-size="14" lengthAdjust="spacing" textLength="222" x="748.5" y="156.9707">UpdateMobileEquipment(code, dto)</text><ellipse cx="739.5" cy="170.3516" fill="#84BE84" rx="3" ry="3" style="stroke:#038048;stroke-width:1.0;"/><text fill="#000000" font-family="sans-serif" font-size="14" lengthAdjust="spacing" textLength="136" x="748.5" y="174.5801">Deactivate(code, dto)</text><ellipse cx="739.5" cy="187.9609" fill="#84BE84" rx="3" ry="3" style="stroke:#038048;stroke-width:1.0;"/><text fill="#000000" font-family="sans-serif" font-size="14" lengthAdjust="spacing" textLength="91" x="748.5" y="192.1895">Activate(code)</text><ellipse cx="739.5" cy="205.5703" fill="#84BE84" rx="3" ry="3" style="stroke:#038048;stroke-width:1.0;"/><text fill="#000000" font-family="sans-serif" font-size="14" lengthAdjust="spacing" textLength="60" x="748.5" y="209.7988">GetAll(...)</text><ellipse cx="739.5" cy="223.1797" fill="#84BE84" rx="3" ry="3" style="stroke:#038048;stroke-width:1.0;"/><text fill="#000000" font-family="sans-serif" font-size="14" lengthAdjust="spacing" textLength="114" x="748.5" y="227.4082">GetByCode(code)</text></g><!--class PhysicalResourceRepository--><g id="elem_PhysicalResourceRepository"><rect codeLine="14" fill="#F1F1F1" height="136.0469" id="PhysicalResourceRepository" rx="2.5" ry="2.5" style="stroke:#181818;stroke-width:0.5;" width="213" x="515" y="294.6094"/><ellipse cx="530" cy="310.6094" fill="#ADD1B2" rx="11" ry="11" style="stroke:#181818;stroke-width:1.0;"/><path d="M532.7656,306.4844 Q532.9219,306.2656 533.1094,306.1563 Q533.2969,306.0469 533.5156,306.0469 Q533.8906,306.0469 534.125,306.3125 Q534.3594,306.5625 534.3594,307.1719 L534.3594,308.625 Q534.3594,309.2344 534.125,309.5 Q533.8906,309.7656 533.5156,309.7656 Q533.1719,309.7656 532.9688,309.5625 Q532.7656,309.375 532.6563,308.8594 Q532.6094,308.5 532.4219,308.3125 Q532.0938,307.9375 531.4844,307.7188 Q530.875,307.5 530.25,307.5 Q529.4844,307.5 528.8438,307.8281 Q528.2188,308.1563 527.7188,308.9063 Q527.2344,309.6563 527.2344,310.6875 L527.2344,311.7813 Q527.2344,313.0156 528.125,313.8438 Q529.0156,314.6563 530.6094,314.6563 Q531.5469,314.6563 532.2031,314.4063 Q532.5938,314.25 533.0156,313.8125 Q533.2813,313.5469 533.4219,313.4688 Q533.5781,313.3906 533.7813,313.3906 Q534.1094,313.3906 534.3594,313.6563 Q534.625,313.9063 534.625,314.25 Q534.625,314.5938 534.2813,315 Q533.7813,315.5781 532.9844,315.9063 Q531.9063,316.3594 530.6094,316.3594 Q529.0938,316.3594 527.8906,315.7344 Q526.9063,315.2344 526.2188,314.1719 Q525.5313,313.0938 525.5313,311.8125 L525.5313,310.6563 Q525.5313,309.3281 526.1406,308.1875 Q526.7656,307.0313 527.8594,306.4219 Q528.9531,305.7969 530.1875,305.7969 Q530.9219,305.7969 531.5625,305.9688 Q532.2188,306.125 532.7656,306.4844 Z " fill="#000000"/><text fill="#000000" font-family="sans-serif" font-size="14" lengthAdjust="spacing" textLength="181" x="544" y="316.3379">PhysicalResourceRepository</text><line style="stroke:#181818;stroke-width:0.5;" x1="516" x2="727" y1="326.6094" y2="326.6094"/><line style="stroke:#181818;stroke-width:0.5;" x1="516" x2="727" y1="334.6094" y2="334.6094"/><ellipse cx="526" cy="348.9141" fill="#84BE84" rx="3" ry="3" style="stroke:#038048;stroke-width:1.0;"/><text fill="#000000" font-family="sans-serif" font-size="14" lengthAdjust="spacing" textLength="152" x="535" y="353.1426">GetByCodeAsync(code)</text><ellipse cx="526" cy="366.5234" fill="#84BE84" rx="3" ry="3" style="stroke:#038048;stroke-width:1.0;"/><text fill="#000000" font-family="sans-serif" font-size="14" lengthAdjust="spacing" textLength="115" x="535" y="370.752">ExistsAsync(code)</text><ellipse cx="526" cy="384.1328" fill="#84BE84" rx="3" ry="3" style="stroke:#038048;stroke-width:1.0;"/><text fill="#000000" font-family="sans-serif" font-size="14" lengthAdjust="spacing" textLength="105" x="535" y="388.3613">SearchAsync(...)</text><ellipse cx="526" cy="401.7422" fill="#84BE84" rx="3" ry="3" style="stroke:#038048;stroke-width:1.0;"/><text fill="#000000" font-family="sans-serif" font-size="14" lengthAdjust="spacing" textLength="129" x="535" y="405.9707">AddAsync(resource)</text><ellipse cx="526" cy="419.3516" fill="#84BE84" rx="3" ry="3" style="stroke:#038048;stroke-width:1.0;"/><text fill="#000000" font-family="sans-serif" font-size="14" lengthAdjust="spacing" textLength="111" x="535" y="423.5801">Update(resource)</text></g><!--class QualificationRepository--><g id="elem_QualificationRepository"><rect codeLine="22" fill="#F1F1F1" height="83.2188" id="QualificationRepository" rx="2.5" ry="2.5" style="stroke:#181818;stroke-width:0.5;" width="178" x="763.5" y="321.1094"/><ellipse cx="778.5" cy="337.1094" fill="#ADD1B2" rx="11" ry="11" style="stroke:#181818;stroke-width:1.0;"/><path d="M781.2656,332.9844 Q781.4219,332.7656 781.6094,332.6563 Q781.7969,332.5469 782.0156,332.5469 Q782.3906,332.5469 782.625,332.8125 Q782.8594,333.0625 782.8594,333.6719 L782.8594,335.125 Q782.8594,335.7344 782.625,336 Q782.3906,336.2656 782.0156,336.2656 Q781.6719,336.2656 781.4688,336.0625 Q781.2656,335.875 781.1563,335.3594 Q781.1094,335 780.9219,334.8125 Q780.5938,334.4375 779.9844,334.2188 Q779.375,334 778.75,334 Q777.9844,334 777.3438,334.3281 Q776.7188,334.6563 776.2188,335.4063 Q775.7344,336.1563 775.7344,337.1875 L775.7344,338.2813 Q775.7344,339.5156 776.625,340.3438 Q777.5156,341.1563 779.1094,341.1563 Q780.0469,341.1563 780.7031,340.9063 Q781.0938,340.75 781.5156,340.3125 Q781.7813,340.0469 781.9219,339.9688 Q782.0781,339.8906 782.2813,339.8906 Q782.6094,339.8906 782.8594,340.1563 Q783.125,340.4063 783.125,340.75 Q783.125,341.0938 782.7813,341.5 Q782.2813,342.0781 781.4844,342.4063 Q780.4063,342.8594 779.1094,342.8594 Q777.5938,342.8594 776.3906,342.2344 Q775.4063,341.7344 774.7188,340.6719 Q774.0313,339.5938 774.0313,338.3125 L774.0313,337.1563 Q774.0313,335.8281 774.6406,334.6875 Q775.2656,333.5313 776.3594,332.9219 Q777.4531,332.2969 778.6875,332.2969 Q779.4219,332.2969 780.0625,332.4688 Q780.7188,332.625 781.2656,332.9844 Z " fill="#000000"/><text fill="#000000" font-family="sans-serif" font-size="14" lengthAdjust="spacing" textLength="146" x="792.5" y="342.8379">QualificationRepository</text><line style="stroke:#181818;stroke-width:0.5;" x1="764.5" x2="940.5" y1="353.1094" y2="353.1094"/><line style="stroke:#181818;stroke-width:0.5;" x1="764.5" x2="940.5" y1="361.1094" y2="361.1094"/><ellipse cx="774.5" cy="375.4141" fill="#84BE84" rx="3" ry="3" style="stroke:#038048;stroke-width:1.0;"/><text fill="#000000" font-family="sans-serif" font-size="14" lengthAdjust="spacing" textLength="111" x="783.5" y="379.6426">SearchAsync(ids)</text><ellipse cx="774.5" cy="393.0234" fill="#84BE84" rx="3" ry="3" style="stroke:#038048;stroke-width:1.0;"/><text fill="#000000" font-family="sans-serif" font-size="14" lengthAdjust="spacing" textLength="109" x="783.5" y="397.252">GetByIdAsync(id)</text></g><!--class PortDbContext--><g id="elem_PortDbContext"><rect codeLine="27" fill="#F1F1F1" height="118.4375" id="PortDbContext" rx="2.5" ry="2.5" style="stroke:#181818;stroke-width:0.5;" width="336" x="639.5" y="490.6094"/><ellipse cx="757.25" cy="506.6094" fill="#ADD1B2" rx="11" ry="11" style="stroke:#181818;stroke-width:1.0;"/><path d="M760.0156,502.4844 Q760.1719,502.2656 760.3594,502.1563 Q760.5469,502.0469 760.7656,502.0469 Q761.1406,502.0469 761.375,502.3125 Q761.6094,502.5625 761.6094,503.1719 L761.6094,504.625 Q761.6094,505.2344 761.375,505.5 Q761.1406,505.7656 760.7656,505.7656 Q760.4219,505.7656 760.2188,505.5625 Q760.0156,505.375 759.9063,504.8594 Q759.8594,504.5 759.6719,504.3125 Q759.3438,503.9375 758.7344,503.7188 Q758.125,503.5 757.5,503.5 Q756.7344,503.5 756.0938,503.8281 Q755.4688,504.1563 754.9688,504.9063 Q754.4844,505.6563 754.4844,506.6875 L754.4844,507.7813 Q754.4844,509.0156 755.375,509.8438 Q756.2656,510.6563 757.8594,510.6563 Q758.7969,510.6563 759.4531,510.4063 Q759.8438,510.25 760.2656,509.8125 Q760.5313,509.5469 760.6719,509.4688 Q760.8281,509.3906 761.0313,509.3906 Q761.3594,509.3906 761.6094,509.6563 Q761.875,509.9063 761.875,510.25 Q761.875,510.5938 761.5313,511 Q761.0313,511.5781 760.2344,511.9063 Q759.1563,512.3594 757.8594,512.3594 Q756.3438,512.3594 755.1406,511.7344 Q754.1563,511.2344 753.4688,510.1719 Q752.7813,509.0938 752.7813,507.8125 L752.7813,506.6563 Q752.7813,505.3281 753.3906,504.1875 Q754.0156,503.0313 755.1094,502.4219 Q756.2031,501.7969 757.4375,501.7969 Q758.1719,501.7969 758.8125,501.9688 Q759.4688,502.125 760.0156,502.4844 Z " fill="#000000"/><text fill="#000000" font-family="sans-serif" font-size="14" lengthAdjust="spacing" textLength="92" x="777.75" y="512.3379">PortDbContext</text><line style="stroke:#181818;stroke-width:0.5;" x1="640.5" x2="974.5" y1="522.6094" y2="522.6094"/><ellipse cx="650.5" cy="536.9141" fill="none" rx="3" ry="3" style="stroke:#038048;stroke-width:1.0;"/><text fill="#000000" font-family="sans-serif" font-size="14" lengthAdjust="spacing" textLength="300" x="659.5" y="541.1426">PhysicalResources : DbSet&lt;PhysicalResource&gt;</text><ellipse cx="650.5" cy="554.5234" fill="none" rx="3" ry="3" style="stroke:#038048;stroke-width:1.0;"/><text fill="#000000" font-family="sans-serif" font-size="14" lengthAdjust="spacing" textLength="310" x="659.5" y="558.752">Qualifications : DbSet&lt;StaffMemberQualification&gt;</text><ellipse cx="650.5" cy="572.1328" fill="none" rx="3" ry="3" style="stroke:#038048;stroke-width:1.0;"/><text fill="#000000" font-family="sans-serif" font-size="14" lengthAdjust="spacing" textLength="138" x="659.5" y="576.3613">Docks : DbSet&lt;Dock&gt;</text><ellipse cx="650.5" cy="589.7422" fill="none" rx="3" ry="3" style="stroke:#038048;stroke-width:1.0;"/><text fill="#000000" font-family="sans-serif" font-size="14" lengthAdjust="spacing" textLength="234" x="659.5" y="593.9707">StorageAreas : DbSet&lt;StorageArea&gt;</text><line style="stroke:#181818;stroke-width:0.5;" x1="640.5" x2="974.5" y1="601.0469" y2="601.0469"/></g><!--class CreateSTSCraneDto--><g id="elem_CreateSTSCraneDto"><rect codeLine="34" fill="#F1F1F1" height="48" id="CreateSTSCraneDto" rx="2.5" ry="2.5" style="stroke:#181818;stroke-width:0.5;" width="163" x="29" y="116.1094"/><ellipse cx="44" cy="132.1094" fill="#ADD1B2" rx="11" ry="11" style="stroke:#181818;stroke-width:1.0;"/><path d="M46.7656,127.9844 Q46.9219,127.7656 47.1094,127.6563 Q47.2969,127.5469 47.5156,127.5469 Q47.8906,127.5469 48.125,127.8125 Q48.3594,128.0625 48.3594,128.6719 L48.3594,130.125 Q48.3594,130.7344 48.125,131 Q47.8906,131.2656 47.5156,131.2656 Q47.1719,131.2656 46.9688,131.0625 Q46.7656,130.875 46.6563,130.3594 Q46.6094,130 46.4219,129.8125 Q46.0938,129.4375 45.4844,129.2188 Q44.875,129 44.25,129 Q43.4844,129 42.8438,129.3281 Q42.2188,129.6563 41.7188,130.4063 Q41.2344,131.1563 41.2344,132.1875 L41.2344,133.2813 Q41.2344,134.5156 42.125,135.3438 Q43.0156,136.1563 44.6094,136.1563 Q45.5469,136.1563 46.2031,135.9063 Q46.5938,135.75 47.0156,135.3125 Q47.2813,135.0469 47.4219,134.9688 Q47.5781,134.8906 47.7813,134.8906 Q48.1094,134.8906 48.3594,135.1563 Q48.625,135.4063 48.625,135.75 Q48.625,136.0938 48.2813,136.5 Q47.7813,137.0781 46.9844,137.4063 Q45.9063,137.8594 44.6094,137.8594 Q43.0938,137.8594 41.8906,137.2344 Q40.9063,136.7344 40.2188,135.6719 Q39.5313,134.5938 39.5313,133.3125 L39.5313,132.1563 Q39.5313,130.8281 40.1406,129.6875 Q40.7656,128.5313 41.8594,127.9219 Q42.9531,127.2969 44.1875,127.2969 Q44.9219,127.2969 45.5625,127.4688 Q46.2188,127.625 46.7656,127.9844 Z " fill="#000000"/><text fill="#000000" font-family="sans-serif" font-size="14" lengthAdjust="spacing" textLength="131" x="58" y="137.8379">CreateSTSCraneDto</text><line style="stroke:#181818;stroke-width:0.5;" x1="30" x2="191" y1="148.1094" y2="148.1094"/><line style="stroke:#181818;stroke-width:0.5;" x1="30" x2="191" y1="156.1094" y2="156.1094"/></g><!--class CreateMobileEquipmentDto--><g id="elem_CreateMobileEquipmentDto"><rect codeLine="35" fill="#F1F1F1" height="48" id="CreateMobileEquipmentDto" rx="2.5" ry="2.5" style="stroke:#181818;stroke-width:0.5;" width="205" x="227" y="116.1094"/><ellipse cx="242" cy="132.1094" fill="#ADD1B2" rx="11" ry="11" style="stroke:#181818;stroke-width:1.0;"/><path d="M244.7656,127.9844 Q244.9219,127.7656 245.1094,127.6563 Q245.2969,127.5469 245.5156,127.5469 Q245.8906,127.5469 246.125,127.8125 Q246.3594,128.0625 246.3594,128.6719 L246.3594,130.125 Q246.3594,130.7344 246.125,131 Q245.8906,131.2656 245.5156,131.2656 Q245.1719,131.2656 244.9688,131.0625 Q244.7656,130.875 244.6563,130.3594 Q244.6094,130 244.4219,129.8125 Q244.0938,129.4375 243.4844,129.2188 Q242.875,129 242.25,129 Q241.4844,129 240.8438,129.3281 Q240.2188,129.6563 239.7188,130.4063 Q239.2344,131.1563 239.2344,132.1875 L239.2344,133.2813 Q239.2344,134.5156 240.125,135.3438 Q241.0156,136.1563 242.6094,136.1563 Q243.5469,136.1563 244.2031,135.9063 Q244.5938,135.75 245.0156,135.3125 Q245.2813,135.0469 245.4219,134.9688 Q245.5781,134.8906 245.7813,134.8906 Q246.1094,134.8906 246.3594,135.1563 Q246.625,135.4063 246.625,135.75 Q246.625,136.0938 246.2813,136.5 Q245.7813,137.0781 244.9844,137.4063 Q243.9063,137.8594 242.6094,137.8594 Q241.0938,137.8594 239.8906,137.2344 Q238.9063,136.7344 238.2188,135.6719 Q237.5313,134.5938 237.5313,133.3125 L237.5313,132.1563 Q237.5313,130.8281 238.1406,129.6875 Q238.7656,128.5313 239.8594,127.9219 Q240.9531,127.2969 242.1875,127.2969 Q242.9219,127.2969 243.5625,127.4688 Q244.2188,127.625 244.7656,127.9844 Z " fill="#000000"/><text fill="#000000" font-family="sans-serif" font-size="14" lengthAdjust="spacing" textLength="173" x="256" y="137.8379">CreateMobileEquipmentDto</text><line style="stroke:#181818;stroke-width:0.5;" x1="228" x2="431" y1="148.1094" y2="148.1094"/><line style="stroke:#181818;stroke-width:0.5;" x1="228" x2="431" y1="156.1094" y2="156.1094"/></g><!--class UpdateSTSCraneDto--><g id="elem_UpdateSTSCraneDto"><rect codeLine="36" fill="#F1F1F1" height="48" id="UpdateSTSCraneDto" rx="2.5" ry="2.5" style="stroke:#181818;stroke-width:0.5;" width="165" x="467" y="116.1094"/><ellipse cx="482" cy="132.1094" fill="#ADD1B2" rx="11" ry="11" style="stroke:#181818;stroke-width:1.0;"/><path d="M484.7656,127.9844 Q484.9219,127.7656 485.1094,127.6563 Q485.2969,127.5469 485.5156,127.5469 Q485.8906,127.5469 486.125,127.8125 Q486.3594,128.0625 486.3594,128.6719 L486.3594,130.125 Q486.3594,130.7344 486.125,131 Q485.8906,131.2656 485.5156,131.2656 Q485.1719,131.2656 484.9688,131.0625 Q484.7656,130.875 484.6563,130.3594 Q484.6094,130 484.4219,129.8125 Q484.0938,129.4375 483.4844,129.2188 Q482.875,129 482.25,129 Q481.4844,129 480.8438,129.3281 Q480.2188,129.6563 479.7188,130.4063 Q479.2344,131.1563 479.2344,132.1875 L479.2344,133.2813 Q479.2344,134.5156 480.125,135.3438 Q481.0156,136.1563 482.6094,136.1563 Q483.5469,136.1563 484.2031,135.9063 Q484.5938,135.75 485.0156,135.3125 Q485.2813,135.0469 485.4219,134.9688 Q485.5781,134.8906 485.7813,134.8906 Q486.1094,134.8906 486.3594,135.1563 Q486.625,135.4063 486.625,135.75 Q486.625,136.0938 486.2813,136.5 Q485.7813,137.0781 484.9844,137.4063 Q483.9063,137.8594 482.6094,137.8594 Q481.0938,137.8594 479.8906,137.2344 Q478.9063,136.7344 478.2188,135.6719 Q477.5313,134.5938 477.5313,133.3125 L477.5313,132.1563 Q477.5313,130.8281 478.1406,129.6875 Q478.7656,128.5313 479.8594,127.9219 Q480.9531,127.2969 482.1875,127.2969 Q482.9219,127.2969 483.5625,127.4688 Q484.2188,127.625 484.7656,127.9844 Z " fill="#000000"/><text fill="#000000" font-family="sans-serif" font-size="14" lengthAdjust="spacing" textLength="133" x="496" y="137.8379">UpdateSTSCraneDto</text><line style="stroke:#181818;stroke-width:0.5;" x1="468" x2="631" y1="148.1094" y2="148.1094"/><line style="stroke:#181818;stroke-width:0.5;" x1="468" x2="631" y1="156.1094" y2="156.1094"/></g><!--class UpdateMobileEquipmentDto--><g id="elem_UpdateMobileEquipmentDto"><rect codeLine="37" fill="#F1F1F1" height="48" id="UpdateMobileEquipmentDto" rx="2.5" ry="2.5" style="stroke:#181818;stroke-width:0.5;" width="207" x="7" y="338.6094"/><ellipse cx="22" cy="354.6094" fill="#ADD1B2" rx="11" ry="11" style="stroke:#181818;stroke-width:1.0;"/><path d="M24.7656,350.4844 Q24.9219,350.2656 25.1094,350.1563 Q25.2969,350.0469 25.5156,350.0469 Q25.8906,350.0469 26.125,350.3125 Q26.3594,350.5625 26.3594,351.1719 L26.3594,352.625 Q26.3594,353.2344 26.125,353.5 Q25.8906,353.7656 25.5156,353.7656 Q25.1719,353.7656 24.9688,353.5625 Q24.7656,353.375 24.6563,352.8594 Q24.6094,352.5 24.4219,352.3125 Q24.0938,351.9375 23.4844,351.7188 Q22.875,351.5 22.25,351.5 Q21.4844,351.5 20.8438,351.8281 Q20.2188,352.1563 19.7188,352.9063 Q19.2344,353.6563 19.2344,354.6875 L19.2344,355.7813 Q19.2344,357.0156 20.125,357.8438 Q21.0156,358.6563 22.6094,358.6563 Q23.5469,358.6563 24.2031,358.4063 Q24.5938,358.25 25.0156,357.8125 Q25.2813,357.5469 25.4219,357.4688 Q25.5781,357.3906 25.7813,357.3906 Q26.1094,357.3906 26.3594,357.6563 Q26.625,357.9063 26.625,358.25 Q26.625,358.5938 26.2813,359 Q25.7813,359.5781 24.9844,359.9063 Q23.9063,360.3594 22.6094,360.3594 Q21.0938,360.3594 19.8906,359.7344 Q18.9063,359.2344 18.2188,358.1719 Q17.5313,357.0938 17.5313,355.8125 L17.5313,354.6563 Q17.5313,353.3281 18.1406,352.1875 Q18.7656,351.0313 19.8594,350.4219 Q20.9531,349.7969 22.1875,349.7969 Q22.9219,349.7969 23.5625,349.9688 Q24.2188,350.125 24.7656,350.4844 Z " fill="#000000"/><text fill="#000000" font-family="sans-serif" font-size="14" lengthAdjust="spacing" textLength="175" x="36" y="360.3379">UpdateMobileEquipmentDto</text><line style="stroke:#181818;stroke-width:0.5;" x1="8" x2="213" y1="370.6094" y2="370.6094"/><line style="stroke:#181818;stroke-width:0.5;" x1="8" x2="213" y1="378.6094" y2="378.6094"/></g><!--class PhysicalResourceResponseDto--><g id="elem_PhysicalResourceResponseDto"><rect codeLine="38" fill="#F1F1F1" height="48" id="PhysicalResourceResponseDto" rx="2.5" ry="2.5" style="stroke:#181818;stroke-width:0.5;" width="231" x="249" y="338.6094"/><ellipse cx="264" cy="354.6094" fill="#ADD1B2" rx="11" ry="11" style="stroke:#181818;stroke-width:1.0;"/><path d="M266.7656,350.4844 Q266.9219,350.2656 267.1094,350.1563 Q267.2969,350.0469 267.5156,350.0469 Q267.8906,350.0469 268.125,350.3125 Q268.3594,350.5625 268.3594,351.1719 L268.3594,352.625 Q268.3594,353.2344 268.125,353.5 Q267.8906,353.7656 267.5156,353.7656 Q267.1719,353.7656 266.9688,353.5625 Q266.7656,353.375 266.6563,352.8594 Q266.6094,352.5 266.4219,352.3125 Q266.0938,351.9375 265.4844,351.7188 Q264.875,351.5 264.25,351.5 Q263.4844,351.5 262.8438,351.8281 Q262.2188,352.1563 261.7188,352.9063 Q261.2344,353.6563 261.2344,354.6875 L261.2344,355.7813 Q261.2344,357.0156 262.125,357.8438 Q263.0156,358.6563 264.6094,358.6563 Q265.5469,358.6563 266.2031,358.4063 Q266.5938,358.25 267.0156,357.8125 Q267.2813,357.5469 267.4219,357.4688 Q267.5781,357.3906 267.7813,357.3906 Q268.1094,357.3906 268.3594,357.6563 Q268.625,357.9063 268.625,358.25 Q268.625,358.5938 268.2813,359 Q267.7813,359.5781 266.9844,359.9063 Q265.9063,360.3594 264.6094,360.3594 Q263.0938,360.3594 261.8906,359.7344 Q260.9063,359.2344 260.2188,358.1719 Q259.5313,357.0938 259.5313,355.8125 L259.5313,354.6563 Q259.5313,353.3281 260.1406,352.1875 Q260.7656,351.0313 261.8594,350.4219 Q262.9531,349.7969 264.1875,349.7969 Q264.9219,349.7969 265.5625,349.9688 Q266.2188,350.125 266.7656,350.4844 Z " fill="#000000"/><text fill="#000000" font-family="sans-serif" font-size="14" lengthAdjust="spacing" textLength="199" x="278" y="360.3379">PhysicalResourceResponseDto</text><line style="stroke:#181818;stroke-width:0.5;" x1="250" x2="479" y1="370.6094" y2="370.6094"/><line style="stroke:#181818;stroke-width:0.5;" x1="250" x2="479" y1="378.6094" y2="378.6094"/></g><!--link PhysicalResourcesController to PhysicalResourceRepository--><g id="link_PhysicalResourcesController_PhysicalResourceRepository"><path codeLine="40" d="M754.54,234.6194 C733.51,254.6894 716.0304,271.3768 696.2904,290.2168 " fill="none" id="PhysicalResourcesController-to-PhysicalResourceRepository" style="stroke:#181818;stroke-width:1.0;stroke-dasharray:7.0,7.0;"/><polygon fill="#181818" points="691.95,294.3594,701.2223,291.0392,695.567,290.9073,695.699,285.2519,691.95,294.3594" style="stroke:#181818;stroke-width:1.0;"/></g><!--link PhysicalResourcesController to QualificationRepository--><g id="link_PhysicalResourcesController_QualificationRepository"><path codeLine="41" d="M852.5,234.6194 C852.5,264.7894 852.5,290.6694 852.5,314.9394 " fill="none" id="PhysicalResourcesController-to-QualificationRepository" style="stroke:#181818;stroke-width:1.0;stroke-dasharray:7.0,7.0;"/><polygon fill="#181818" points="852.5,320.9394,856.5,311.9394,852.5,315.9394,848.5,311.9394,852.5,320.9394" style="stroke:#181818;stroke-width:1.0;"/></g><!--link PhysicalResourcesController to PortDbContext--><g id="link_PhysicalResourcesController_PortDbContext"><path codeLine="42" d="M929.96,234.6994 C941.7,253.5094 952.04,273.8894 958.5,294.6094 C976.49,352.3194 984.99,376.2794 958.5,430.6094 C947.2,453.7894 933.5222,469.9137 913.5022,486.4837 " fill="none" id="PhysicalResourcesController-to-PortDbContext" style="stroke:#181818;stroke-width:1.0;stroke-dasharray:7.0,7.0;"/><polygon fill="#181818" points="908.88,490.3094,918.3637,487.6524,912.7318,487.1213,913.2628,481.4895,908.88,490.3094" style="stroke:#181818;stroke-width:1.0;"/></g><!--link PhysicalResourceRepository to PortDbContext--><g id="link_PhysicalResourceRepository_PortDbContext"><path codeLine="43" d="M688.91,430.6594 C708.56,450.1994 725.6062,467.1579 744.6662,486.1179 " fill="none" id="PhysicalResourceRepository-to-PortDbContext" style="stroke:#181818;stroke-width:1.0;stroke-dasharray:7.0,7.0;"/><polygon fill="#181818" points="748.92,490.3494,745.3603,481.1663,745.3752,486.8232,739.7183,486.838,748.92,490.3494" style="stroke:#181818;stroke-width:1.0;"/></g><!--SRC=[XLFBRi8m4BpdAtm4jRLKZbM5b2QewW6fnUK377i1goPExQKYglhl3IGaZYF2qJEpZz6EKQ46acZk74aLtrg-9mzapSYCpkZZZ4pUTwLJWcko0cSELe2RHf4uwozKooGcHskq1aj-8qBkI6A18x1FbbYUmqIYcNhuqcHAm-Bxe8ezvDZHwqBwPS98k2S16nO7eXIuGFLJ2KCczl4QUWMCjPvGIjltIvbKTAFvk-Pu1OLn2eqj6yDjPUpAN7WZ5aVbq8Ke0sx5haRRwR6KDMARARvj3sot-ZXmhJRLNgXCFbZ9dw6ayno-oGlgMpGMq-nqIJXYqs9mQF94qem1FeVC_AplBTI96VBDPWdx36nFKHUbHdnrsjEhnbdbXMyXhYBZjsh1URTxFsufcXuU9AQZ-t4ByQjbmp2ueh9xRX2D_GrAvoD9kbbwvTotH_gNZKQYF13_0m00]--></g></svg>