<?xml version="1.0" encoding="us-ascii" standalone="no"?><svg xmlns="http://www.w3.org/2000/svg" xmlns:xlink="http://www.w3.org/1999/xlink" contentStyleType="text/css" height="539px" preserveAspectRatio="none" style="width:1753px;height:539px;background:#FFFFFF;" version="1.1" viewBox="0 0 1753 539" width="1753px" zoomAndPan="magnify"><defs/><g><text fill="#000000" font-family="sans-serif" font-size="14" font-weight="bold" lengthAdjust="spacing" textLength="268" x="744" y="29.5332">SSD - List / Search Physical Resources</text><rect fill="#FFFFFF" height="225.4609" style="stroke:#181818;stroke-width:1.0;" width="10" x="745" y="183.9219"/><rect fill="#FFFFFF" height="121.4063" style="stroke:#181818;stroke-width:1.0;" width="10" x="1172" y="214.2734"/><rect fill="#FFFFFF" height="60.7031" style="stroke:#181818;stroke-width:1.0;" width="10" x="1585" y="244.625"/><line style="stroke:#181818;stroke-width:0.5;stroke-dasharray:5.0,5.0;" x1="66" x2="66" y1="121.2188" y2="457.7344"/><line style="stroke:#181818;stroke-width:0.5;stroke-dasharray:5.0,5.0;" x1="371.5" x2="371.5" y1="121.2188" y2="457.7344"/><line style="stroke:#181818;stroke-width:0.5;stroke-dasharray:5.0,5.0;" x1="750" x2="750" y1="121.2188" y2="457.7344"/><line style="stroke:#181818;stroke-width:0.5;stroke-dasharray:5.0,5.0;" x1="1176.5" x2="1176.5" y1="121.2188" y2="457.7344"/><line style="stroke:#181818;stroke-width:0.5;stroke-dasharray:5.0,5.0;" x1="1590" x2="1590" y1="121.2188" y2="457.7344"/><line style="stroke:#181818;stroke-width:0.5;stroke-dasharray:5.0,5.0;" x1="1702" x2="1702" y1="121.2188" y2="457.7344"/><text fill="#000000" font-family="sans-serif" font-size="14" lengthAdjust="spacing" textLength="116" x="5" y="118.1426">Logistics Operator</text><ellipse cx="66" cy="52.1094" fill="#E2E2F0" rx="8" ry="8" style="stroke:#181818;stroke-width:0.5;"/><path d="M66,60.1094 L66,87.1094 M53,68.1094 L79,68.1094 M66,87.1094 L53,102.1094 M66,87.1094 L79,102.1094 " fill="none" style="stroke:#181818;stroke-width:0.5;"/><text fill="#000000" font-family="sans-serif" font-size="14" lengthAdjust="spacing" textLength="116" x="5" y="471.2676">Logistics Operator</text><ellipse cx="66" cy="482.8438" fill="#E2E2F0" rx="8" ry="8" style="stroke:#181818;stroke-width:0.5;"/><path d="M66,490.8438 L66,517.8438 M53,498.8438 L79,498.8438 M66,517.8438 L53,532.8438 M66,517.8438 L79,532.8438 " fill="none" style="stroke:#181818;stroke-width:0.5;"/><rect fill="#E2E2F0" height="31.6094" rx="2.5" ry="2.5" style="stroke:#181818;stroke-width:0.5;" width="75" x="334.5" y="88.6094"/><text fill="#000000" font-family="sans-serif" font-size="14" lengthAdjust="spacing" textLength="61" x="341.5" y="110.1426">API Client</text><rect fill="#E2E2F0" height="31.6094" rx="2.5" ry="2.5" style="stroke:#181818;stroke-width:0.5;" width="75" x="334.5" y="456.7344"/><text fill="#000000" font-family="sans-serif" font-size="14" lengthAdjust="spacing" textLength="61" x="341.5" y="478.2676">API Client</text><rect fill="#E2E2F0" height="31.6094" rx="2.5" ry="2.5" style="stroke:#181818;stroke-width:0.5;" width="196" x="652" y="88.6094"/><text fill="#000000" font-family="sans-serif" font-size="14" lengthAdjust="spacing" textLength="182" x="659" y="110.1426">PhysicalResourcesController</text><rect fill="#E2E2F0" height="31.6094" rx="2.5" ry="2.5" style="stroke:#181818;stroke-width:0.5;" width="196" x="652" y="456.7344"/><text fill="#000000" font-family="sans-serif" font-size="14" lengthAdjust="spacing" textLength="182" x="659" y="478.2676">PhysicalResourcesController</text><rect fill="#E2E2F0" height="31.6094" rx="2.5" ry="2.5" style="stroke:#181818;stroke-width:0.5;" width="195" x="1079.5" y="88.6094"/><text fill="#000000" font-family="sans-serif" font-size="14" lengthAdjust="spacing" textLength="181" x="1086.5" y="110.1426">PhysicalResourceRepository</text><rect fill="#E2E2F0" height="31.6094" rx="2.5" ry="2.5" style="stroke:#181818;stroke-width:0.5;" width="195" x="1079.5" y="456.7344"/><text fill="#000000" font-family="sans-serif" font-size="14" lengthAdjust="spacing" textLength="181" x="1086.5" y="478.2676">PhysicalResourceRepository</text><rect fill="#E2E2F0" height="31.6094" rx="2.5" ry="2.5" style="stroke:#181818;stroke-width:0.5;" width="106" x="1537" y="88.6094"/><text fill="#000000" font-family="sans-serif" font-size="14" lengthAdjust="spacing" textLength="92" x="1544" y="110.1426">PortDbContext</text><rect fill="#E2E2F0" height="31.6094" rx="2.5" ry="2.5" style="stroke:#181818;stroke-width:0.5;" width="106" x="1537" y="456.7344"/><text fill="#000000" font-family="sans-serif" font-size="14" lengthAdjust="spacing" textLength="92" x="1544" y="478.2676">PortDbContext</text><text fill="#000000" font-family="sans-serif" font-size="14" lengthAdjust="spacing" textLength="93" x="1653" y="118.1426">EF (InMemory)</text><path d="M1684.5,67.6094 C1684.5,57.6094 1702.5,57.6094 1702.5,57.6094 C1702.5,57.6094 1720.5,57.6094 1720.5,67.6094 L1720.5,93.6094 C1720.5,103.6094 1702.5,103.6094 1702.5,103.6094 C1702.5,103.6094 1684.5,103.6094 1684.5,93.6094 L1684.5,67.6094 " fill="#E2E2F0" style="stroke:#181818;stroke-width:1.5;"/><path d="M1684.5,67.6094 C1684.5,77.6094 1702.5,77.6094 1702.5,77.6094 C1702.5,77.6094 1720.5,77.6094 1720.5,67.6094 " fill="none" style="stroke:#181818;stroke-width:1.5;"/><text fill="#000000" font-family="sans-serif" font-size="14" lengthAdjust="spacing" textLength="93" x="1653" y="471.2676">EF (InMemory)</text><path d="M1684.5,484.3438 C1684.5,474.3438 1702.5,474.3438 1702.5,474.3438 C1702.5,474.3438 1720.5,474.3438 1720.5,484.3438 L1720.5,510.3438 C1720.5,520.3438 1702.5,520.3438 1702.5,520.3438 C1702.5,520.3438 1684.5,520.3438 1684.5,510.3438 L1684.5,484.3438 " fill="#E2E2F0" style="stroke:#181818;stroke-width:1.5;"/><path d="M1684.5,484.3438 C1684.5,494.3438 1702.5,494.3438 1702.5,494.3438 C1702.5,494.3438 1720.5,494.3438 1720.5,484.3438 " fill="none" style="stroke:#181818;stroke-width:1.5;"/><rect fill="#FFFFFF" height="225.4609" style="stroke:#181818;stroke-width:1.0;" width="10" x="745" y="183.9219"/><rect fill="#FFFFFF" height="121.4063" style="stroke:#181818;stroke-width:1.0;" width="10" x="1172" y="214.2734"/><rect fill="#FFFFFF" height="60.7031" style="stroke:#181818;stroke-width:1.0;" width="10" x="1585" y="244.625"/><polygon fill="#181818" points="360,149.5703,370,153.5703,360,157.5703,364,153.5703" style="stroke:#181818;stroke-width:1.0;"/><line style="stroke:#181818;stroke-width:1.0;" x1="66" x2="366" y1="153.5703" y2="153.5703"/><text fill="#000000" font-family="sans-serif" font-size="13" lengthAdjust="spacing" textLength="282" x="73" y="148.7139">GET /api/resources?code=&amp;type=&amp;qualification=</text><polygon fill="#181818" points="733,179.9219,743,183.9219,733,187.9219,737,183.9219" style="stroke:#181818;stroke-width:1.0;"/><line style="stroke:#181818;stroke-width:1.0;" x1="372" x2="739" y1="183.9219" y2="183.9219"/><text fill="#000000" font-family="sans-serif" font-size="13" lengthAdjust="spacing" textLength="354" x="379" y="179.0654">GetAll(code?, description?, type?, availability?, qualification?)</text><polygon fill="#181818" points="1160,210.2734,1170,214.2734,1160,218.2734,1164,214.2734" style="stroke:#181818;stroke-width:1.0;"/><line style="stroke:#181818;stroke-width:1.0;" x1="755" x2="1166" y1="214.2734" y2="214.2734"/><text fill="#000000" font-family="sans-serif" font-size="13" lengthAdjust="spacing" textLength="347" x="762" y="209.417">SearchAsync(...) or GetAllAsync(includeQualifications: true)</text><polygon fill="#181818" points="1573,240.625,1583,244.625,1573,248.625,1577,244.625" style="stroke:#181818;stroke-width:1.0;"/><line style="stroke:#181818;stroke-width:1.0;" x1="1182" x2="1579" y1="244.625" y2="244.625"/><text fill="#000000" font-family="sans-serif" font-size="13" lengthAdjust="spacing" textLength="384" x="1189" y="239.7686">Query PhysicalResources (+ join RequiredQualifications if needed)</text><polygon fill="#181818" points="1690.5,270.9766,1700.5,274.9766,1690.5,278.9766,1694.5,274.9766" style="stroke:#181818;stroke-width:1.0;"/><line style="stroke:#181818;stroke-width:1.0;" x1="1595" x2="1696.5" y1="274.9766" y2="274.9766"/><text fill="#000000" font-family="sans-serif" font-size="13" lengthAdjust="spacing" textLength="83" x="1602" y="270.1201">SQL/EF query</text><polygon fill="#181818" points="1601,301.3281,1591,305.3281,1601,309.3281,1597,305.3281" style="stroke:#181818;stroke-width:1.0;"/><line style="stroke:#181818;stroke-width:1.0;stroke-dasharray:2.0,2.0;" x1="1595" x2="1701.5" y1="305.3281" y2="305.3281"/><text fill="#000000" font-family="sans-serif" font-size="13" lengthAdjust="spacing" textLength="65" x="1607" y="300.4717">resources[]</text><polygon fill="#181818" points="1188,331.6797,1178,335.6797,1188,339.6797,1184,335.6797" style="stroke:#181818;stroke-width:1.0;"/><line style="stroke:#181818;stroke-width:1.0;stroke-dasharray:2.0,2.0;" x1="1182" x2="1589" y1="335.6797" y2="335.6797"/><text fill="#000000" font-family="sans-serif" font-size="13" lengthAdjust="spacing" textLength="65" x="1194" y="330.8232">resources[]</text><line style="stroke:#181818;stroke-width:1.0;" x1="755" x2="797" y1="366.0313" y2="366.0313"/><line style="stroke:#181818;stroke-width:1.0;" x1="797" x2="797" y1="366.0313" y2="379.0313"/><line style="stroke:#181818;stroke-width:1.0;" x1="756" x2="797" y1="379.0313" y2="379.0313"/><polygon fill="#181818" points="766,375.0313,756,379.0313,766,383.0313,762,379.0313" style="stroke:#181818;stroke-width:1.0;"/><text fill="#000000" font-family="sans-serif" font-size="13" lengthAdjust="spacing" textLength="403" x="762" y="361.1748">Map to PhysicalResourceResponseDto[] (include qualification names)</text><polygon fill="#181818" points="383,405.3828,373,409.3828,383,413.3828,379,409.3828" style="stroke:#181818;stroke-width:1.0;"/><line style="stroke:#181818;stroke-width:1.0;stroke-dasharray:2.0,2.0;" x1="377" x2="749" y1="409.3828" y2="409.3828"/><text fill="#000000" font-family="sans-serif" font-size="13" lengthAdjust="spacing" textLength="125" x="389" y="404.5264">200 OK + resources[]</text><polygon fill="#181818" points="77,435.7344,67,439.7344,77,443.7344,73,439.7344" style="stroke:#181818;stroke-width:1.0;"/><line style="stroke:#181818;stroke-width:1.0;stroke-dasharray:2.0,2.0;" x1="71" x2="371" y1="439.7344" y2="439.7344"/><text fill="#000000" font-family="sans-serif" font-size="13" lengthAdjust="spacing" textLength="166" x="83" y="434.8779">Display resources (filter/sort)</text><!--SRC=[VP9DRzim38Rl-XL43eEDBd6nOu0k2E9kA9QYJTDRqGDjCoi7LL8akPZ__IWxdoswYstAvCENBnKvQeBrkeGnB3b4A61DwEiNk7_f0jUeuO62RNrDGIcie_KmMjhVaifrW3j77kLi17WCb4ClVzcXYJ2Qtz_0GZEPs2SDd-Sf-rQ7JWjhehTQqm1U_3_zWPmDB8sxFZk5xmgiZsMLeFHtK55Mgi685GQ2qVKFo6xCBRqA8Uz_hmL6Ikq7Wl7tdMwOmi_hHoZGSU7tQcUrRUZgI-oSFBSjQjw8lCZMNAbTMGAaMefphREKF_iA3ONQiqk94gLoUU4RiiQADSTEmZFSB4yRu3UC99weHSAcQOKyB6qUEbDdayaa1r4zT1lEsDIwRMXrYWjJYBwb4sXlNKyKSba9TzMIx-33WY2xW3-MZLHiM_RKd8E1Ds286cfEuEAv80NSkviqhvQ5UBzDBTHmEDxtFPZxzAmQUiyuplr9NZ_8O53o_HOTH0iVBqvmefRAQ9-UOU_HkUTWy9L2dbYdj-3RvINS_OABpmIazUnMBsM7YpI5aeFJs1th8DkmZkIB8BSq_mS0]--></g></svg>