<?xml version="1.0" encoding="us-ascii" standalone="no"?><svg xmlns="http://www.w3.org/2000/svg" xmlns:xlink="http://www.w3.org/1999/xlink" contentStyleType="text/css" height="934px" preserveAspectRatio="none" style="width:1289px;height:934px;background:#FFFFFF;" version="1.1" viewBox="0 0 1289 934" width="1289px" zoomAndPan="magnify"><defs/><g><text fill="#000000" font-family="sans-serif" font-size="14" font-weight="bold" lengthAdjust="spacing" textLength="328" x="482.25" y="29.5332">Sequence Diagram - Update Physical Resource</text><rect fill="#FFFFFF" height="650.3828" style="stroke:#181818;stroke-width:1.0;" width="10" x="465" y="183.9219"/><rect fill="#FFFFFF" height="121.4063" style="stroke:#181818;stroke-width:1.0;" width="10" x="791" y="214.2734"/><rect fill="#FFFFFF" height="121.4063" style="stroke:#181818;stroke-width:1.0;" width="10" x="791" y="561.1406"/><rect fill="#FFFFFF" height="121.4063" style="stroke:#181818;stroke-width:1.0;" width="10" x="978.5" y="409.3828"/><line style="stroke:#181818;stroke-width:0.5;stroke-dasharray:5.0,5.0;" x1="66" x2="66" y1="121.2188" y2="852.3047"/><line style="stroke:#181818;stroke-width:0.5;stroke-dasharray:5.0,5.0;" x1="280.5" x2="280.5" y1="121.2188" y2="852.3047"/><line style="stroke:#181818;stroke-width:0.5;stroke-dasharray:5.0,5.0;" x1="470" x2="470" y1="121.2188" y2="852.3047"/><line style="stroke:#181818;stroke-width:0.5;stroke-dasharray:5.0,5.0;" x1="795.5" x2="795.5" y1="121.2188" y2="852.3047"/><line style="stroke:#181818;stroke-width:0.5;stroke-dasharray:5.0,5.0;" x1="983.5" x2="983.5" y1="121.2188" y2="852.3047"/><line style="stroke:#181818;stroke-width:0.5;stroke-dasharray:5.0,5.0;" x1="1126.5" x2="1126.5" y1="121.2188" y2="852.3047"/><line style="stroke:#181818;stroke-width:0.5;stroke-dasharray:5.0,5.0;" x1="1238.5" x2="1238.5" y1="121.2188" y2="852.3047"/><text fill="#000000" font-family="sans-serif" font-size="14" lengthAdjust="spacing" textLength="116" x="5" y="118.1426">Logistics Operator</text><ellipse cx="66" cy="52.1094" fill="#E2E2F0" rx="8" ry="8" style="stroke:#181818;stroke-width:0.5;"/><path d="M66,60.1094 L66,87.1094 M53,68.1094 L79,68.1094 M66,87.1094 L53,102.1094 M66,87.1094 L79,102.1094 " fill="none" style="stroke:#181818;stroke-width:0.5;"/><text fill="#000000" font-family="sans-serif" font-size="14" lengthAdjust="spacing" textLength="116" x="5" y="865.8379">Logistics Operator</text><ellipse cx="66" cy="877.4141" fill="#E2E2F0" rx="8" ry="8" style="stroke:#181818;stroke-width:0.5;"/><path d="M66,885.4141 L66,912.4141 M53,893.4141 L79,893.4141 M66,912.4141 L53,927.4141 M66,912.4141 L79,927.4141 " fill="none" style="stroke:#181818;stroke-width:0.5;"/><rect fill="#E2E2F0" height="31.6094" rx="2.5" ry="2.5" style="stroke:#181818;stroke-width:0.5;" width="75" x="243.5" y="88.6094"/><text fill="#000000" font-family="sans-serif" font-size="14" lengthAdjust="spacing" textLength="61" x="250.5" y="110.1426">API Client</text><rect fill="#E2E2F0" height="31.6094" rx="2.5" ry="2.5" style="stroke:#181818;stroke-width:0.5;" width="75" x="243.5" y="851.3047"/><text fill="#000000" font-family="sans-serif" font-size="14" lengthAdjust="spacing" textLength="61" x="250.5" y="872.8379">API Client</text><rect fill="#E2E2F0" height="31.6094" rx="2.5" ry="2.5" style="stroke:#181818;stroke-width:0.5;" width="196" x="372" y="88.6094"/><text fill="#000000" font-family="sans-serif" font-size="14" lengthAdjust="spacing" textLength="182" x="379" y="110.1426">PhysicalResourcesController</text><rect fill="#E2E2F0" height="31.6094" rx="2.5" ry="2.5" style="stroke:#181818;stroke-width:0.5;" width="196" x="372" y="851.3047"/><text fill="#000000" font-family="sans-serif" font-size="14" lengthAdjust="spacing" textLength="182" x="379" y="872.8379">PhysicalResourcesController</text><rect fill="#E2E2F0" height="31.6094" rx="2.5" ry="2.5" style="stroke:#181818;stroke-width:0.5;" width="195" x="698.5" y="88.6094"/><text fill="#000000" font-family="sans-serif" font-size="14" lengthAdjust="spacing" textLength="181" x="705.5" y="110.1426">PhysicalResourceRepository</text><rect fill="#E2E2F0" height="31.6094" rx="2.5" ry="2.5" style="stroke:#181818;stroke-width:0.5;" width="195" x="698.5" y="851.3047"/><text fill="#000000" font-family="sans-serif" font-size="14" lengthAdjust="spacing" textLength="181" x="705.5" y="872.8379">PhysicalResourceRepository</text><rect fill="#E2E2F0" height="31.6094" rx="2.5" ry="2.5" style="stroke:#181818;stroke-width:0.5;" width="160" x="903.5" y="88.6094"/><text fill="#000000" font-family="sans-serif" font-size="14" lengthAdjust="spacing" textLength="146" x="910.5" y="110.1426">QualificationRepository</text><rect fill="#E2E2F0" height="31.6094" rx="2.5" ry="2.5" style="stroke:#181818;stroke-width:0.5;" width="160" x="903.5" y="851.3047"/><text fill="#000000" font-family="sans-serif" font-size="14" lengthAdjust="spacing" textLength="146" x="910.5" y="872.8379">QualificationRepository</text><rect fill="#E2E2F0" height="31.6094" rx="2.5" ry="2.5" style="stroke:#181818;stroke-width:0.5;" width="106" x="1073.5" y="88.6094"/><text fill="#000000" font-family="sans-serif" font-size="14" lengthAdjust="spacing" textLength="92" x="1080.5" y="110.1426">PortDbContext</text><rect fill="#E2E2F0" height="31.6094" rx="2.5" ry="2.5" style="stroke:#181818;stroke-width:0.5;" width="106" x="1073.5" y="851.3047"/><text fill="#000000" font-family="sans-serif" font-size="14" lengthAdjust="spacing" textLength="92" x="1080.5" y="872.8379">PortDbContext</text><text fill="#000000" font-family="sans-serif" font-size="14" lengthAdjust="spacing" textLength="93" x="1189.5" y="118.1426">EF (InMemory)</text><path d="M1221,67.6094 C1221,57.6094 1239,57.6094 1239,57.6094 C1239,57.6094 1257,57.6094 1257,67.6094 L1257,93.6094 C1257,103.6094 1239,103.6094 1239,103.6094 C1239,103.6094 1221,103.6094 1221,93.6094 L1221,67.6094 " fill="#E2E2F0" style="stroke:#181818;stroke-width:1.5;"/><path d="M1221,67.6094 C1221,77.6094 1239,77.6094 1239,77.6094 C1239,77.6094 1257,77.6094 1257,67.6094 " fill="none" style="stroke:#181818;stroke-width:1.5;"/><text fill="#000000" font-family="sans-serif" font-size="14" lengthAdjust="spacing" textLength="93" x="1189.5" y="865.8379">EF (InMemory)</text><path d="M1221,878.9141 C1221,868.9141 1239,868.9141 1239,868.9141 C1239,868.9141 1257,868.9141 1257,878.9141 L1257,904.9141 C1257,914.9141 1239,914.9141 1239,914.9141 C1239,914.9141 1221,914.9141 1221,904.9141 L1221,878.9141 " fill="#E2E2F0" style="stroke:#181818;stroke-width:1.5;"/><path d="M1221,878.9141 C1221,888.9141 1239,888.9141 1239,888.9141 C1239,888.9141 1257,888.9141 1257,878.9141 " fill="none" style="stroke:#181818;stroke-width:1.5;"/><rect fill="#FFFFFF" height="650.3828" style="stroke:#181818;stroke-width:1.0;" width="10" x="465" y="183.9219"/><rect fill="#FFFFFF" height="121.4063" style="stroke:#181818;stroke-width:1.0;" width="10" x="791" y="214.2734"/><rect fill="#FFFFFF" height="121.4063" style="stroke:#181818;stroke-width:1.0;" width="10" x="791" y="561.1406"/><rect fill="#FFFFFF" height="121.4063" style="stroke:#181818;stroke-width:1.0;" width="10" x="978.5" y="409.3828"/><polygon fill="#181818" points="269,149.5703,279,153.5703,269,157.5703,273,153.5703" style="stroke:#181818;stroke-width:1.0;"/><line style="stroke:#181818;stroke-width:1.0;" x1="66" x2="275" y1="153.5703" y2="153.5703"/><text fill="#000000" font-family="sans-serif" font-size="13" lengthAdjust="spacing" textLength="191" x="73" y="148.7139">PUT /api/resources/{code} {body}</text><polygon fill="#181818" points="453,179.9219,463,183.9219,453,187.9219,457,183.9219" style="stroke:#181818;stroke-width:1.0;"/><line style="stroke:#181818;stroke-width:1.0;" x1="281" x2="459" y1="183.9219" y2="183.9219"/><text fill="#000000" font-family="sans-serif" font-size="13" lengthAdjust="spacing" textLength="103" x="288" y="179.0654">Update(code, dto)</text><polygon fill="#181818" points="779,210.2734,789,214.2734,779,218.2734,783,214.2734" style="stroke:#181818;stroke-width:1.0;"/><line style="stroke:#181818;stroke-width:1.0;" x1="475" x2="785" y1="214.2734" y2="214.2734"/><text fill="#000000" font-family="sans-serif" font-size="13" lengthAdjust="spacing" textLength="297" x="482" y="209.417">GetByCodeAsync(code, includeQualifications: true)</text><polygon fill="#181818" points="1114.5,240.625,1124.5,244.625,1114.5,248.625,1118.5,244.625" style="stroke:#181818;stroke-width:1.0;"/><line style="stroke:#181818;stroke-width:1.0;" x1="801" x2="1120.5" y1="244.625" y2="244.625"/><text fill="#000000" font-family="sans-serif" font-size="13" lengthAdjust="spacing" textLength="32" x="808" y="239.7686">query</text><polygon fill="#181818" points="1227,270.9766,1237,274.9766,1227,278.9766,1231,274.9766" style="stroke:#181818;stroke-width:1.0;"/><line style="stroke:#181818;stroke-width:1.0;" x1="1126.5" x2="1233" y1="274.9766" y2="274.9766"/><text fill="#000000" font-family="sans-serif" font-size="13" lengthAdjust="spacing" textLength="50" x="1133.5" y="270.1201">resource</text><polygon fill="#181818" points="1137.5,301.3281,1127.5,305.3281,1137.5,309.3281,1133.5,305.3281" style="stroke:#181818;stroke-width:1.0;"/><line style="stroke:#181818;stroke-width:1.0;stroke-dasharray:2.0,2.0;" x1="1131.5" x2="1238" y1="305.3281" y2="305.3281"/><text fill="#000000" font-family="sans-serif" font-size="13" lengthAdjust="spacing" textLength="50" x="1143.5" y="300.4717">resource</text><polygon fill="#181818" points="807,331.6797,797,335.6797,807,339.6797,803,335.6797" style="stroke:#181818;stroke-width:1.0;"/><line style="stroke:#181818;stroke-width:1.0;stroke-dasharray:2.0,2.0;" x1="801" x2="1125.5" y1="335.6797" y2="335.6797"/><text fill="#000000" font-family="sans-serif" font-size="13" lengthAdjust="spacing" textLength="50" x="813" y="330.8232">resource</text><line style="stroke:#181818;stroke-width:1.0;" x1="475" x2="517" y1="366.0313" y2="366.0313"/><line style="stroke:#181818;stroke-width:1.0;" x1="517" x2="517" y1="366.0313" y2="379.0313"/><line style="stroke:#181818;stroke-width:1.0;" x1="476" x2="517" y1="379.0313" y2="379.0313"/><polygon fill="#181818" points="486,375.0313,476,379.0313,486,383.0313,482,379.0313" style="stroke:#181818;stroke-width:1.0;"/><text fill="#000000" font-family="sans-serif" font-size="13" lengthAdjust="spacing" textLength="183" x="482" y="361.1748">Reject attempts to modify Code</text><polygon fill="#181818" points="966.5,405.3828,976.5,409.3828,966.5,413.3828,970.5,409.3828" style="stroke:#181818;stroke-width:1.0;"/><line style="stroke:#181818;stroke-width:1.0;" x1="475" x2="972.5" y1="409.3828" y2="409.3828"/><text fill="#000000" font-family="sans-serif" font-size="13" lengthAdjust="spacing" textLength="247" x="482" y="404.5264">SearchAsync(dto.RequiredQualificationIds)</text><polygon fill="#181818" points="1114.5,435.7344,1124.5,439.7344,1114.5,443.7344,1118.5,439.7344" style="stroke:#181818;stroke-width:1.0;"/><line style="stroke:#181818;stroke-width:1.0;" x1="988.5" x2="1120.5" y1="439.7344" y2="439.7344"/><text fill="#000000" font-family="sans-serif" font-size="13" lengthAdjust="spacing" textLength="67" x="995.5" y="434.8779">query quals</text><polygon fill="#181818" points="1227,466.0859,1237,470.0859,1227,474.0859,1231,470.0859" style="stroke:#181818;stroke-width:1.0;"/><line style="stroke:#181818;stroke-width:1.0;" x1="1126.5" x2="1233" y1="470.0859" y2="470.0859"/><text fill="#000000" font-family="sans-serif" font-size="13" lengthAdjust="spacing" textLength="39" x="1133.5" y="465.2295">quals[]</text><polygon fill="#181818" points="1137.5,496.4375,1127.5,500.4375,1137.5,504.4375,1133.5,500.4375" style="stroke:#181818;stroke-width:1.0;"/><line style="stroke:#181818;stroke-width:1.0;stroke-dasharray:2.0,2.0;" x1="1131.5" x2="1238" y1="500.4375" y2="500.4375"/><text fill="#000000" font-family="sans-serif" font-size="13" lengthAdjust="spacing" textLength="39" x="1143.5" y="495.5811">quals[]</text><polygon fill="#181818" points="994.5,526.7891,984.5,530.7891,994.5,534.7891,990.5,530.7891" style="stroke:#181818;stroke-width:1.0;"/><line style="stroke:#181818;stroke-width:1.0;stroke-dasharray:2.0,2.0;" x1="988.5" x2="1125.5" y1="530.7891" y2="530.7891"/><text fill="#000000" font-family="sans-serif" font-size="13" lengthAdjust="spacing" textLength="39" x="1000.5" y="525.9326">quals[]</text><polygon fill="#181818" points="779,557.1406,789,561.1406,779,565.1406,783,561.1406" style="stroke:#181818;stroke-width:1.0;"/><line style="stroke:#181818;stroke-width:1.0;" x1="475" x2="785" y1="561.1406" y2="561.1406"/><text fill="#000000" font-family="sans-serif" font-size="13" lengthAdjust="spacing" textLength="175" x="482" y="556.2842">Update(entity with new values)</text><polygon fill="#181818" points="1114.5,587.4922,1124.5,591.4922,1114.5,595.4922,1118.5,591.4922" style="stroke:#181818;stroke-width:1.0;"/><line style="stroke:#181818;stroke-width:1.0;" x1="801" x2="1120.5" y1="591.4922" y2="591.4922"/><text fill="#000000" font-family="sans-serif" font-size="13" lengthAdjust="spacing" textLength="41" x="808" y="586.6357">Update</text><polygon fill="#181818" points="1227,617.8438,1237,621.8438,1227,625.8438,1231,621.8438" style="stroke:#181818;stroke-width:1.0;"/><line style="stroke:#181818;stroke-width:1.0;" x1="1126.5" x2="1233" y1="621.8438" y2="621.8438"/><text fill="#000000" font-family="sans-serif" font-size="13" lengthAdjust="spacing" textLength="52" x="1133.5" y="616.9873">UPDATE</text><polygon fill="#181818" points="1137.5,648.1953,1127.5,652.1953,1137.5,656.1953,1133.5,652.1953" style="stroke:#181818;stroke-width:1.0;"/><line style="stroke:#181818;stroke-width:1.0;stroke-dasharray:2.0,2.0;" x1="1131.5" x2="1238" y1="652.1953" y2="652.1953"/><text fill="#000000" font-family="sans-serif" font-size="13" lengthAdjust="spacing" textLength="14" x="1143.5" y="647.3389">ok</text><polygon fill="#181818" points="807,678.5469,797,682.5469,807,686.5469,803,682.5469" style="stroke:#181818;stroke-width:1.0;"/><line style="stroke:#181818;stroke-width:1.0;stroke-dasharray:2.0,2.0;" x1="801" x2="1125.5" y1="682.5469" y2="682.5469"/><text fill="#000000" font-family="sans-serif" font-size="13" lengthAdjust="spacing" textLength="14" x="813" y="677.6904">ok</text><polygon fill="#181818" points="1114.5,708.8984,1124.5,712.8984,1114.5,716.8984,1118.5,712.8984" style="stroke:#181818;stroke-width:1.0;"/><line style="stroke:#181818;stroke-width:1.0;" x1="475" x2="1120.5" y1="712.8984" y2="712.8984"/><text fill="#000000" font-family="sans-serif" font-size="13" lengthAdjust="spacing" textLength="124" x="482" y="708.042">SaveChangesAsync()</text><polygon fill="#181818" points="1227,739.25,1237,743.25,1227,747.25,1231,743.25" style="stroke:#181818;stroke-width:1.0;"/><line style="stroke:#181818;stroke-width:1.0;" x1="1126.5" x2="1233" y1="743.25" y2="743.25"/><text fill="#000000" font-family="sans-serif" font-size="13" lengthAdjust="spacing" textLength="43" x="1133.5" y="738.3936">commit</text><polygon fill="#181818" points="1137.5,769.6016,1127.5,773.6016,1137.5,777.6016,1133.5,773.6016" style="stroke:#181818;stroke-width:1.0;"/><line style="stroke:#181818;stroke-width:1.0;stroke-dasharray:2.0,2.0;" x1="1131.5" x2="1238" y1="773.6016" y2="773.6016"/><text fill="#000000" font-family="sans-serif" font-size="13" lengthAdjust="spacing" textLength="14" x="1143.5" y="768.7451">ok</text><polygon fill="#181818" points="486,799.9531,476,803.9531,486,807.9531,482,803.9531" style="stroke:#181818;stroke-width:1.0;"/><line style="stroke:#181818;stroke-width:1.0;stroke-dasharray:2.0,2.0;" x1="480" x2="1125.5" y1="803.9531" y2="803.9531"/><text fill="#000000" font-family="sans-serif" font-size="13" lengthAdjust="spacing" textLength="14" x="492" y="799.0967">ok</text><polygon fill="#181818" points="292,830.3047,282,834.3047,292,838.3047,288,834.3047" style="stroke:#181818;stroke-width:1.0;"/><line style="stroke:#181818;stroke-width:1.0;stroke-dasharray:2.0,2.0;" x1="286" x2="469" y1="834.3047" y2="834.3047"/><text fill="#000000" font-family="sans-serif" font-size="13" lengthAdjust="spacing" textLength="160" x="298" y="829.4482">200 OK + updated resource</text><!--SRC=[VLB1Rjim3BtxAuYS6cnPYXrx693PRH5iGvsaEHKxo3ARQBCbJwBJ6KN_VPHbjxRRzM9OJu-Fxv4YHGN23l_Kg2L2eiJ1YX8MiAzoGGZfiN5AYWAsw4nj9KQHa6GipBwRWtAaf8ER2grWR0RYvH1LmlAjgeGccAtIDSI5GaqjAVoEANsdlf6BZIPhYWA3SFm-VOkLSOeRDotR7yS5creKwfvBI1azOMzUqrDZAScy1_mRJ2TPn2CHcN08iyihE5lh7rYonBozth4QJwVF3uilNKouW7H_2qjHgQNjmoqVfSdn2HupapTFKSVqDKmFip_pZ8-GavdxcQkJtqSSHR6dUSFCl4RwsiJCMxb6owv2QLdKEOu2kmiWM-D0gOtSoh1Sah4Olm7RHFpBG9k6iTvm5815ptt6FVt5ppESuxXHSEt3RV4NIW91X6L53iX0QN9rtu3F4NYRJcw7mifZoCPp-BJbTweivgDewzmDOeLLRbu7uwyet2HUYztzdARhuIvSRwU71-4sWtGTgziUxrDH0m-AZg3n0KwYgD6zku1GER6uJvFLxUNKeVazcJm3Ry-yfU_42UEZq0TqOPhpIHTfobBH_xl4uUGbXm_xy_avt7o33r2trlCt7q3y3m00]--></g></svg>