<?xml version="1.0" encoding="us-ascii" standalone="no"?><svg xmlns="http://www.w3.org/2000/svg" xmlns:xlink="http://www.w3.org/1999/xlink" contentStyleType="text/css" height="1042px" preserveAspectRatio="none" style="width:1406px;height:1042px;background:#FFFFFF;" version="1.1" viewBox="0 0 1406 1042" width="1406px" zoomAndPan="magnify"><defs/><g><text fill="#000000" font-family="sans-serif" font-size="14" font-weight="bold" lengthAdjust="spacing" textLength="224" x="592.25" y="29.5332">SSD - Update Physical Resource</text><rect fill="#FFFFFF" height="766.4375" style="stroke:#181818;stroke-width:1.0;" width="10" x="482" y="183.9219"/><rect fill="#FFFFFF" height="121.4063" style="stroke:#181818;stroke-width:1.0;" width="10" x="892" y="214.2734"/><rect fill="#FFFFFF" height="121.4063" style="stroke:#181818;stroke-width:1.0;" width="10" x="892" y="662.1953"/><rect fill="#FFFFFF" height="121.4063" style="stroke:#181818;stroke-width:1.0;" width="10" x="1079.5" y="467.0859"/><rect fill="none" height="592.6797" style="stroke:#000000;stroke-width:1.5;" width="1149" x="250.5" y="350.6797"/><line style="stroke:#181818;stroke-width:0.5;stroke-dasharray:5.0,5.0;" x1="66" x2="66" y1="121.2188" y2="960.3594"/><line style="stroke:#181818;stroke-width:0.5;stroke-dasharray:5.0,5.0;" x1="297.5" x2="297.5" y1="121.2188" y2="960.3594"/><line style="stroke:#181818;stroke-width:0.5;stroke-dasharray:5.0,5.0;" x1="487" x2="487" y1="121.2188" y2="960.3594"/><line style="stroke:#181818;stroke-width:0.5;stroke-dasharray:5.0,5.0;" x1="896.5" x2="896.5" y1="121.2188" y2="960.3594"/><line style="stroke:#181818;stroke-width:0.5;stroke-dasharray:5.0,5.0;" x1="1084.5" x2="1084.5" y1="121.2188" y2="960.3594"/><line style="stroke:#181818;stroke-width:0.5;stroke-dasharray:5.0,5.0;" x1="1227.5" x2="1227.5" y1="121.2188" y2="960.3594"/><line style="stroke:#181818;stroke-width:0.5;stroke-dasharray:5.0,5.0;" x1="1339.5" x2="1339.5" y1="121.2188" y2="960.3594"/><text fill="#000000" font-family="sans-serif" font-size="14" lengthAdjust="spacing" textLength="116" x="5" y="118.1426">Logistics Operator</text><ellipse cx="66" cy="52.1094" fill="#E2E2F0" rx="8" ry="8" style="stroke:#181818;stroke-width:0.5;"/><path d="M66,60.1094 L66,87.1094 M53,68.1094 L79,68.1094 M66,87.1094 L53,102.1094 M66,87.1094 L79,102.1094 " fill="none" style="stroke:#181818;stroke-width:0.5;"/><text fill="#000000" font-family="sans-serif" font-size="14" lengthAdjust="spacing" textLength="116" x="5" y="973.8926">Logistics Operator</text><ellipse cx="66" cy="985.4688" fill="#E2E2F0" rx="8" ry="8" style="stroke:#181818;stroke-width:0.5;"/><path d="M66,993.4688 L66,1020.4688 M53,1001.4688 L79,1001.4688 M66,1020.4688 L53,1035.4688 M66,1020.4688 L79,1035.4688 " fill="none" style="stroke:#181818;stroke-width:0.5;"/><rect fill="#E2E2F0" height="31.6094" rx="2.5" ry="2.5" style="stroke:#181818;stroke-width:0.5;" width="75" x="260.5" y="88.6094"/><text fill="#000000" font-family="sans-serif" font-size="14" lengthAdjust="spacing" textLength="61" x="267.5" y="110.1426">API Client</text><rect fill="#E2E2F0" height="31.6094" rx="2.5" ry="2.5" style="stroke:#181818;stroke-width:0.5;" width="75" x="260.5" y="959.3594"/><text fill="#000000" font-family="sans-serif" font-size="14" lengthAdjust="spacing" textLength="61" x="267.5" y="980.8926">API Client</text><rect fill="#E2E2F0" height="31.6094" rx="2.5" ry="2.5" style="stroke:#181818;stroke-width:0.5;" width="196" x="389" y="88.6094"/><text fill="#000000" font-family="sans-serif" font-size="14" lengthAdjust="spacing" textLength="182" x="396" y="110.1426">PhysicalResourcesController</text><rect fill="#E2E2F0" height="31.6094" rx="2.5" ry="2.5" style="stroke:#181818;stroke-width:0.5;" width="196" x="389" y="959.3594"/><text fill="#000000" font-family="sans-serif" font-size="14" lengthAdjust="spacing" textLength="182" x="396" y="980.8926">PhysicalResourcesController</text><rect fill="#E2E2F0" height="31.6094" rx="2.5" ry="2.5" style="stroke:#181818;stroke-width:0.5;" width="195" x="799.5" y="88.6094"/><text fill="#000000" font-family="sans-serif" font-size="14" lengthAdjust="spacing" textLength="181" x="806.5" y="110.1426">PhysicalResourceRepository</text><rect fill="#E2E2F0" height="31.6094" rx="2.5" ry="2.5" style="stroke:#181818;stroke-width:0.5;" width="195" x="799.5" y="959.3594"/><text fill="#000000" font-family="sans-serif" font-size="14" lengthAdjust="spacing" textLength="181" x="806.5" y="980.8926">PhysicalResourceRepository</text><rect fill="#E2E2F0" height="31.6094" rx="2.5" ry="2.5" style="stroke:#181818;stroke-width:0.5;" width="160" x="1004.5" y="88.6094"/><text fill="#000000" font-family="sans-serif" font-size="14" lengthAdjust="spacing" textLength="146" x="1011.5" y="110.1426">QualificationRepository</text><rect fill="#E2E2F0" height="31.6094" rx="2.5" ry="2.5" style="stroke:#181818;stroke-width:0.5;" width="160" x="1004.5" y="959.3594"/><text fill="#000000" font-family="sans-serif" font-size="14" lengthAdjust="spacing" textLength="146" x="1011.5" y="980.8926">QualificationRepository</text><rect fill="#E2E2F0" height="31.6094" rx="2.5" ry="2.5" style="stroke:#181818;stroke-width:0.5;" width="106" x="1174.5" y="88.6094"/><text fill="#000000" font-family="sans-serif" font-size="14" lengthAdjust="spacing" textLength="92" x="1181.5" y="110.1426">PortDbContext</text><rect fill="#E2E2F0" height="31.6094" rx="2.5" ry="2.5" style="stroke:#181818;stroke-width:0.5;" width="106" x="1174.5" y="959.3594"/><text fill="#000000" font-family="sans-serif" font-size="14" lengthAdjust="spacing" textLength="92" x="1181.5" y="980.8926">PortDbContext</text><text fill="#000000" font-family="sans-serif" font-size="14" lengthAdjust="spacing" textLength="93" x="1290.5" y="118.1426">EF (InMemory)</text><path d="M1322,67.6094 C1322,57.6094 1340,57.6094 1340,57.6094 C1340,57.6094 1358,57.6094 1358,67.6094 L1358,93.6094 C1358,103.6094 1340,103.6094 1340,103.6094 C1340,103.6094 1322,103.6094 1322,93.6094 L1322,67.6094 " fill="#E2E2F0" style="stroke:#181818;stroke-width:1.5;"/><path d="M1322,67.6094 C1322,77.6094 1340,77.6094 1340,77.6094 C1340,77.6094 1358,77.6094 1358,67.6094 " fill="none" style="stroke:#181818;stroke-width:1.5;"/><text fill="#000000" font-family="sans-serif" font-size="14" lengthAdjust="spacing" textLength="93" x="1290.5" y="973.8926">EF (InMemory)</text><path d="M1322,986.9688 C1322,976.9688 1340,976.9688 1340,976.9688 C1340,976.9688 1358,976.9688 1358,986.9688 L1358,1012.9688 C1358,1022.9688 1340,1022.9688 1340,1022.9688 C1340,1022.9688 1322,1022.9688 1322,1012.9688 L1322,986.9688 " fill="#E2E2F0" style="stroke:#181818;stroke-width:1.5;"/><path d="M1322,986.9688 C1322,996.9688 1340,996.9688 1340,996.9688 C1340,996.9688 1358,996.9688 1358,986.9688 " fill="none" style="stroke:#181818;stroke-width:1.5;"/><rect fill="#FFFFFF" height="766.4375" style="stroke:#181818;stroke-width:1.0;" width="10" x="482" y="183.9219"/><rect fill="#FFFFFF" height="121.4063" style="stroke:#181818;stroke-width:1.0;" width="10" x="892" y="214.2734"/><rect fill="#FFFFFF" height="121.4063" style="stroke:#181818;stroke-width:1.0;" width="10" x="892" y="662.1953"/><rect fill="#FFFFFF" height="121.4063" style="stroke:#181818;stroke-width:1.0;" width="10" x="1079.5" y="467.0859"/><polygon fill="#181818" points="286,149.5703,296,153.5703,286,157.5703,290,153.5703" style="stroke:#181818;stroke-width:1.0;"/><line style="stroke:#181818;stroke-width:1.0;" x1="66" x2="292" y1="153.5703" y2="153.5703"/><text fill="#000000" font-family="sans-serif" font-size="13" lengthAdjust="spacing" textLength="208" x="73" y="148.7139">PUT /api/resources/{code} {payload}</text><polygon fill="#181818" points="470,179.9219,480,183.9219,470,187.9219,474,183.9219" style="stroke:#181818;stroke-width:1.0;"/><line style="stroke:#181818;stroke-width:1.0;" x1="298" x2="476" y1="183.9219" y2="183.9219"/><text fill="#000000" font-family="sans-serif" font-size="13" lengthAdjust="spacing" textLength="103" x="305" y="179.0654">Update(code, dto)</text><polygon fill="#181818" points="880,210.2734,890,214.2734,880,218.2734,884,214.2734" style="stroke:#181818;stroke-width:1.0;"/><line style="stroke:#181818;stroke-width:1.0;" x1="492" x2="886" y1="214.2734" y2="214.2734"/><text fill="#000000" font-family="sans-serif" font-size="13" lengthAdjust="spacing" textLength="297" x="499" y="209.417">GetByCodeAsync(code, includeQualifications: true)</text><polygon fill="#181818" points="1215.5,240.625,1225.5,244.625,1215.5,248.625,1219.5,244.625" style="stroke:#181818;stroke-width:1.0;"/><line style="stroke:#181818;stroke-width:1.0;" x1="902" x2="1221.5" y1="244.625" y2="244.625"/><text fill="#000000" font-family="sans-serif" font-size="13" lengthAdjust="spacing" textLength="136" x="909" y="239.7686">query resource by code</text><polygon fill="#181818" points="1328,270.9766,1338,274.9766,1328,278.9766,1332,274.9766" style="stroke:#181818;stroke-width:1.0;"/><line style="stroke:#181818;stroke-width:1.0;" x1="1227.5" x2="1334" y1="274.9766" y2="274.9766"/><text fill="#000000" font-family="sans-serif" font-size="13" lengthAdjust="spacing" textLength="32" x="1234.5" y="270.1201">query</text><polygon fill="#181818" points="1238.5,301.3281,1228.5,305.3281,1238.5,309.3281,1234.5,305.3281" style="stroke:#181818;stroke-width:1.0;"/><line style="stroke:#181818;stroke-width:1.0;stroke-dasharray:2.0,2.0;" x1="1232.5" x2="1339" y1="305.3281" y2="305.3281"/><text fill="#000000" font-family="sans-serif" font-size="13" lengthAdjust="spacing" textLength="50" x="1244.5" y="300.4717">resource</text><polygon fill="#181818" points="908,331.6797,898,335.6797,908,339.6797,904,335.6797" style="stroke:#181818;stroke-width:1.0;"/><line style="stroke:#181818;stroke-width:1.0;stroke-dasharray:2.0,2.0;" x1="902" x2="1226.5" y1="335.6797" y2="335.6797"/><text fill="#000000" font-family="sans-serif" font-size="13" lengthAdjust="spacing" textLength="50" x="914" y="330.8232">resource</text><path d="M250.5,350.6797 L311.5,350.6797 L311.5,359.0313 L301.5,369.0313 L250.5,369.0313 L250.5,350.6797 " fill="#EEEEEE" style="stroke:#000000;stroke-width:1.5;"/><rect fill="none" height="592.6797" style="stroke:#000000;stroke-width:1.5;" width="1149" x="250.5" y="350.6797"/><text fill="#000000" font-family="sans-serif" font-size="13" font-weight="bold" lengthAdjust="spacing" textLength="16" x="265.5" y="365.1748">alt</text><text fill="#000000" font-family="sans-serif" font-size="11" font-weight="bold" lengthAdjust="spacing" textLength="61" x="326.5" y="364.0986">[not found]</text><polygon fill="#181818" points="309,387.3828,299,391.3828,309,395.3828,305,391.3828" style="stroke:#181818;stroke-width:1.0;"/><line style="stroke:#181818;stroke-width:1.0;stroke-dasharray:2.0,2.0;" x1="303" x2="481" y1="391.3828" y2="391.3828"/><text fill="#000000" font-family="sans-serif" font-size="13" lengthAdjust="spacing" textLength="85" x="315" y="386.5264">404 Not Found</text><line style="stroke:#000000;stroke-width:1.0;stroke-dasharray:2.0,2.0;" x1="250.5" x2="1399.5" y1="400.3828" y2="400.3828"/><line style="stroke:#181818;stroke-width:1.0;" x1="492" x2="534" y1="423.7344" y2="423.7344"/><line style="stroke:#181818;stroke-width:1.0;" x1="534" x2="534" y1="423.7344" y2="436.7344"/><line style="stroke:#181818;stroke-width:1.0;" x1="493" x2="534" y1="436.7344" y2="436.7344"/><polygon fill="#181818" points="503,432.7344,493,436.7344,503,440.7344,499,436.7344" style="stroke:#181818;stroke-width:1.0;"/><text fill="#000000" font-family="sans-serif" font-size="13" lengthAdjust="spacing" textLength="253" x="499" y="418.8779">Ensure dto.Code not provided / not changed</text><polygon fill="#181818" points="1067.5,463.0859,1077.5,467.0859,1067.5,471.0859,1071.5,467.0859" style="stroke:#181818;stroke-width:1.0;"/><line style="stroke:#181818;stroke-width:1.0;" x1="492" x2="1073.5" y1="467.0859" y2="467.0859"/><text fill="#000000" font-family="sans-serif" font-size="13" lengthAdjust="spacing" textLength="247" x="499" y="462.2295">SearchAsync(dto.RequiredQualificationIds)</text><polygon fill="#181818" points="1215.5,493.4375,1225.5,497.4375,1215.5,501.4375,1219.5,497.4375" style="stroke:#181818;stroke-width:1.0;"/><line style="stroke:#181818;stroke-width:1.0;" x1="1089.5" x2="1221.5" y1="497.4375" y2="497.4375"/><text fill="#000000" font-family="sans-serif" font-size="13" lengthAdjust="spacing" textLength="67" x="1096.5" y="492.5811">query quals</text><polygon fill="#181818" points="1328,523.7891,1338,527.7891,1328,531.7891,1332,527.7891" style="stroke:#181818;stroke-width:1.0;"/><line style="stroke:#181818;stroke-width:1.0;" x1="1227.5" x2="1334" y1="527.7891" y2="527.7891"/><text fill="#000000" font-family="sans-serif" font-size="13" lengthAdjust="spacing" textLength="32" x="1234.5" y="522.9326">query</text><polygon fill="#181818" points="1238.5,554.1406,1228.5,558.1406,1238.5,562.1406,1234.5,558.1406" style="stroke:#181818;stroke-width:1.0;"/><line style="stroke:#181818;stroke-width:1.0;stroke-dasharray:2.0,2.0;" x1="1232.5" x2="1339" y1="558.1406" y2="558.1406"/><text fill="#000000" font-family="sans-serif" font-size="13" lengthAdjust="spacing" textLength="39" x="1244.5" y="553.2842">quals[]</text><polygon fill="#181818" points="1095.5,584.4922,1085.5,588.4922,1095.5,592.4922,1091.5,588.4922" style="stroke:#181818;stroke-width:1.0;"/><line style="stroke:#181818;stroke-width:1.0;stroke-dasharray:2.0,2.0;" x1="1089.5" x2="1226.5" y1="588.4922" y2="588.4922"/><text fill="#000000" font-family="sans-serif" font-size="13" lengthAdjust="spacing" textLength="39" x="1101.5" y="583.6357">quals[]</text><line style="stroke:#181818;stroke-width:1.0;" x1="492" x2="534" y1="618.8438" y2="618.8438"/><line style="stroke:#181818;stroke-width:1.0;" x1="534" x2="534" y1="618.8438" y2="631.8438"/><line style="stroke:#181818;stroke-width:1.0;" x1="493" x2="534" y1="631.8438" y2="631.8438"/><polygon fill="#181818" points="503,627.8438,493,631.8438,503,635.8438,499,631.8438" style="stroke:#181818;stroke-width:1.0;"/><text fill="#000000" font-family="sans-serif" font-size="13" lengthAdjust="spacing" textLength="386" x="499" y="613.9873">Validate capacity fields per type; validate area existence if provided</text><polygon fill="#181818" points="880,658.1953,890,662.1953,880,666.1953,884,662.1953" style="stroke:#181818;stroke-width:1.0;"/><line style="stroke:#181818;stroke-width:1.0;" x1="492" x2="886" y1="662.1953" y2="662.1953"/><text fill="#000000" font-family="sans-serif" font-size="13" lengthAdjust="spacing" textLength="99" x="499" y="657.3389">Update(resource)</text><polygon fill="#181818" points="1215.5,688.5469,1225.5,692.5469,1215.5,696.5469,1219.5,692.5469" style="stroke:#181818;stroke-width:1.0;"/><line style="stroke:#181818;stroke-width:1.0;" x1="902" x2="1221.5" y1="692.5469" y2="692.5469"/><text fill="#000000" font-family="sans-serif" font-size="13" lengthAdjust="spacing" textLength="81" x="909" y="687.6904">Update(entity)</text><polygon fill="#181818" points="1328,718.8984,1338,722.8984,1328,726.8984,1332,722.8984" style="stroke:#181818;stroke-width:1.0;"/><line style="stroke:#181818;stroke-width:1.0;" x1="1227.5" x2="1334" y1="722.8984" y2="722.8984"/><text fill="#000000" font-family="sans-serif" font-size="13" lengthAdjust="spacing" textLength="52" x="1234.5" y="718.042">UPDATE</text><polygon fill="#181818" points="1238.5,749.25,1228.5,753.25,1238.5,757.25,1234.5,753.25" style="stroke:#181818;stroke-width:1.0;"/><line style="stroke:#181818;stroke-width:1.0;stroke-dasharray:2.0,2.0;" x1="1232.5" x2="1339" y1="753.25" y2="753.25"/><text fill="#000000" font-family="sans-serif" font-size="13" lengthAdjust="spacing" textLength="14" x="1244.5" y="748.3936">ok</text><polygon fill="#181818" points="908,779.6016,898,783.6016,908,787.6016,904,783.6016" style="stroke:#181818;stroke-width:1.0;"/><line style="stroke:#181818;stroke-width:1.0;stroke-dasharray:2.0,2.0;" x1="902" x2="1226.5" y1="783.6016" y2="783.6016"/><text fill="#000000" font-family="sans-serif" font-size="13" lengthAdjust="spacing" textLength="14" x="914" y="778.7451">ok</text><polygon fill="#181818" points="1215.5,809.9531,1225.5,813.9531,1215.5,817.9531,1219.5,813.9531" style="stroke:#181818;stroke-width:1.0;"/><line style="stroke:#181818;stroke-width:1.0;" x1="492" x2="1221.5" y1="813.9531" y2="813.9531"/><text fill="#000000" font-family="sans-serif" font-size="13" lengthAdjust="spacing" textLength="124" x="499" y="809.0967">SaveChangesAsync()</text><polygon fill="#181818" points="1328,840.3047,1338,844.3047,1328,848.3047,1332,844.3047" style="stroke:#181818;stroke-width:1.0;"/><line style="stroke:#181818;stroke-width:1.0;" x1="1227.5" x2="1334" y1="844.3047" y2="844.3047"/><text fill="#000000" font-family="sans-serif" font-size="13" lengthAdjust="spacing" textLength="43" x="1234.5" y="839.4482">commit</text><polygon fill="#181818" points="1238.5,870.6563,1228.5,874.6563,1238.5,878.6563,1234.5,874.6563" style="stroke:#181818;stroke-width:1.0;"/><line style="stroke:#181818;stroke-width:1.0;stroke-dasharray:2.0,2.0;" x1="1232.5" x2="1339" y1="874.6563" y2="874.6563"/><text fill="#000000" font-family="sans-serif" font-size="13" lengthAdjust="spacing" textLength="14" x="1244.5" y="869.7998">ok</text><polygon fill="#181818" points="503,901.0078,493,905.0078,503,909.0078,499,905.0078" style="stroke:#181818;stroke-width:1.0;"/><line style="stroke:#181818;stroke-width:1.0;stroke-dasharray:2.0,2.0;" x1="497" x2="1226.5" y1="905.0078" y2="905.0078"/><text fill="#000000" font-family="sans-serif" font-size="13" lengthAdjust="spacing" textLength="14" x="509" y="900.1514">ok</text><polygon fill="#181818" points="309,931.3594,299,935.3594,309,939.3594,305,935.3594" style="stroke:#181818;stroke-width:1.0;"/><line style="stroke:#181818;stroke-width:1.0;stroke-dasharray:2.0,2.0;" x1="303" x2="481" y1="935.3594" y2="935.3594"/><text fill="#000000" font-family="sans-serif" font-size="13" lengthAdjust="spacing" textLength="160" x="315" y="930.5029">200 OK + updated resource</text><!--SRC=[VLFBRjim4BphAnO-nMXT6qLEAL30bPt2w2EE7VTIz42JwvYeJCeaPKG8ykzTyM5BKP6Ro9tPdHckd7G5mdezWn5iIi4Smd9VMybP0IkqkZ8SiunnfmqClkj7QPta5kvAD8pk1i0kXwnaXggoPCh1OBfSG5v8LCw3mcSNaYQbGJRNoXbT51WQvs_3LrXgAsbmxT7DiKkuhrWXTqHnKgjNwFi-VAcDcsqR3VWKHC-s6KN2jimY3EQtSBLGF_10BOQ-lAPkb4xo3wFFqIRSm7Bp06DMoh59viRFN0jyWUUIrOLcuYMBu8P6Z13_LGDw3yBfOHExF3LFacTPti0QpOJyYkvBdHDkQcl58qCgNbG2Evxj3JXJOQkJT-tRKBlPbfeTApGr99MmhQ7fbr6D4DvX0cNXD4hCnF7OYxhpjS3ks8mL3fHsiDEL4XcGwr4xikl9DVoaygqlOs4nO48ySsKhcax1V6Yi-qQbqISfKC3O7_cUgKSKYNKV1QsH6RuFMJNq5HuhQL1qebe8EoJYMN7O3uXDkc4TYMYfzh-C05wbvC6__qHuIzQbq0egZ6tx_aKY_N_9MScuT3Ni91R20cqTkBh4Jt1A46QG0JxHJugAtbBkpWcbZd5stBNqL1tdqNZ7TyJJEv60OS_wPZcRFipxtlNVY-qusL_rDYEgywGrEs7kNzA6D-lFu_fmaExjUNauzzViusG2Tz_W7LJUbBWiBDBQjQJb_m00]--></g></svg>