<?xml version="1.0" encoding="us-ascii" standalone="no"?><svg xmlns="http://www.w3.org/2000/svg" xmlns:xlink="http://www.w3.org/1999/xlink" contentStyleType="text/css" height="847px" preserveAspectRatio="none" style="width:1459px;height:847px;background:#FFFFFF;" version="1.1" viewBox="0 0 1459 847" width="1459px" zoomAndPan="magnify"><defs/><g><text fill="#000000" font-family="sans-serif" font-size="14" font-weight="bold" lengthAdjust="spacing" textLength="336" x="562.5" y="29.5332">SSD - Deactivate / Reactivate Physical Resource</text><rect fill="#FFFFFF" height="571.3281" style="stroke:#181818;stroke-width:1.0;" width="10" x="520" y="183.9219"/><rect fill="#FFFFFF" height="121.4063" style="stroke:#181818;stroke-width:1.0;" width="10" x="846" y="214.2734"/><rect fill="#FFFFFF" height="121.4063" style="stroke:#181818;stroke-width:1.0;" width="10" x="846" y="467.0859"/><rect fill="none" height="397.5703" style="stroke:#000000;stroke-width:1.5;" width="1120.5" x="331.5" y="350.6797"/><line style="stroke:#181818;stroke-width:0.5;stroke-dasharray:5.0,5.0;" x1="66" x2="66" y1="121.2188" y2="765.25"/><line style="stroke:#181818;stroke-width:0.5;stroke-dasharray:5.0,5.0;" x1="378.5" x2="378.5" y1="121.2188" y2="765.25"/><line style="stroke:#181818;stroke-width:0.5;stroke-dasharray:5.0,5.0;" x1="525" x2="525" y1="121.2188" y2="765.25"/><line style="stroke:#181818;stroke-width:0.5;stroke-dasharray:5.0,5.0;" x1="850.5" x2="850.5" y1="121.2188" y2="765.25"/><line style="stroke:#181818;stroke-width:0.5;stroke-dasharray:5.0,5.0;" x1="1011.5" x2="1011.5" y1="121.2188" y2="765.25"/><line style="stroke:#181818;stroke-width:0.5;stroke-dasharray:5.0,5.0;" x1="1392" x2="1392" y1="121.2188" y2="765.25"/><text fill="#000000" font-family="sans-serif" font-size="14" lengthAdjust="spacing" textLength="116" x="5" y="118.1426">Logistics Operator</text><ellipse cx="66" cy="52.1094" fill="#E2E2F0" rx="8" ry="8" style="stroke:#181818;stroke-width:0.5;"/><path d="M66,60.1094 L66,87.1094 M53,68.1094 L79,68.1094 M66,87.1094 L53,102.1094 M66,87.1094 L79,102.1094 " fill="none" style="stroke:#181818;stroke-width:0.5;"/><text fill="#000000" font-family="sans-serif" font-size="14" lengthAdjust="spacing" textLength="116" x="5" y="778.7832">Logistics Operator</text><ellipse cx="66" cy="790.3594" fill="#E2E2F0" rx="8" ry="8" style="stroke:#181818;stroke-width:0.5;"/><path d="M66,798.3594 L66,825.3594 M53,806.3594 L79,806.3594 M66,825.3594 L53,840.3594 M66,825.3594 L79,840.3594 " fill="none" style="stroke:#181818;stroke-width:0.5;"/><rect fill="#E2E2F0" height="31.6094" rx="2.5" ry="2.5" style="stroke:#181818;stroke-width:0.5;" width="75" x="341.5" y="88.6094"/><text fill="#000000" font-family="sans-serif" font-size="14" lengthAdjust="spacing" textLength="61" x="348.5" y="110.1426">API Client</text><rect fill="#E2E2F0" height="31.6094" rx="2.5" ry="2.5" style="stroke:#181818;stroke-width:0.5;" width="75" x="341.5" y="764.25"/><text fill="#000000" font-family="sans-serif" font-size="14" lengthAdjust="spacing" textLength="61" x="348.5" y="785.7832">API Client</text><rect fill="#E2E2F0" height="31.6094" rx="2.5" ry="2.5" style="stroke:#181818;stroke-width:0.5;" width="196" x="427" y="88.6094"/><text fill="#000000" font-family="sans-serif" font-size="14" lengthAdjust="spacing" textLength="182" x="434" y="110.1426">PhysicalResourcesController</text><rect fill="#E2E2F0" height="31.6094" rx="2.5" ry="2.5" style="stroke:#181818;stroke-width:0.5;" width="196" x="427" y="764.25"/><text fill="#000000" font-family="sans-serif" font-size="14" lengthAdjust="spacing" textLength="182" x="434" y="785.7832">PhysicalResourcesController</text><rect fill="#E2E2F0" height="31.6094" rx="2.5" ry="2.5" style="stroke:#181818;stroke-width:0.5;" width="195" x="753.5" y="88.6094"/><text fill="#000000" font-family="sans-serif" font-size="14" lengthAdjust="spacing" textLength="181" x="760.5" y="110.1426">PhysicalResourceRepository</text><rect fill="#E2E2F0" height="31.6094" rx="2.5" ry="2.5" style="stroke:#181818;stroke-width:0.5;" width="195" x="753.5" y="764.25"/><text fill="#000000" font-family="sans-serif" font-size="14" lengthAdjust="spacing" textLength="181" x="760.5" y="785.7832">PhysicalResourceRepository</text><rect fill="#E2E2F0" height="31.6094" rx="2.5" ry="2.5" style="stroke:#181818;stroke-width:0.5;" width="106" x="958.5" y="88.6094"/><text fill="#000000" font-family="sans-serif" font-size="14" lengthAdjust="spacing" textLength="92" x="965.5" y="110.1426">PortDbContext</text><rect fill="#E2E2F0" height="31.6094" rx="2.5" ry="2.5" style="stroke:#181818;stroke-width:0.5;" width="106" x="958.5" y="764.25"/><text fill="#000000" font-family="sans-serif" font-size="14" lengthAdjust="spacing" textLength="92" x="965.5" y="785.7832">PortDbContext</text><text fill="#000000" font-family="sans-serif" font-size="14" lengthAdjust="spacing" textLength="93" x="1343" y="118.1426">EF (InMemory)</text><path d="M1374.5,67.6094 C1374.5,57.6094 1392.5,57.6094 1392.5,57.6094 C1392.5,57.6094 1410.5,57.6094 1410.5,67.6094 L1410.5,93.6094 C1410.5,103.6094 1392.5,103.6094 1392.5,103.6094 C1392.5,103.6094 1374.5,103.6094 1374.5,93.6094 L1374.5,67.6094 " fill="#E2E2F0" style="stroke:#181818;stroke-width:1.5;"/><path d="M1374.5,67.6094 C1374.5,77.6094 1392.5,77.6094 1392.5,77.6094 C1392.5,77.6094 1410.5,77.6094 1410.5,67.6094 " fill="none" style="stroke:#181818;stroke-width:1.5;"/><text fill="#000000" font-family="sans-serif" font-size="14" lengthAdjust="spacing" textLength="93" x="1343" y="778.7832">EF (InMemory)</text><path d="M1374.5,791.8594 C1374.5,781.8594 1392.5,781.8594 1392.5,781.8594 C1392.5,781.8594 1410.5,781.8594 1410.5,791.8594 L1410.5,817.8594 C1410.5,827.8594 1392.5,827.8594 1392.5,827.8594 C1392.5,827.8594 1374.5,827.8594 1374.5,817.8594 L1374.5,791.8594 " fill="#E2E2F0" style="stroke:#181818;stroke-width:1.5;"/><path d="M1374.5,791.8594 C1374.5,801.8594 1392.5,801.8594 1392.5,801.8594 C1392.5,801.8594 1410.5,801.8594 1410.5,791.8594 " fill="none" style="stroke:#181818;stroke-width:1.5;"/><rect fill="#FFFFFF" height="571.3281" style="stroke:#181818;stroke-width:1.0;" width="10" x="520" y="183.9219"/><rect fill="#FFFFFF" height="121.4063" style="stroke:#181818;stroke-width:1.0;" width="10" x="846" y="214.2734"/><rect fill="#FFFFFF" height="121.4063" style="stroke:#181818;stroke-width:1.0;" width="10" x="846" y="467.0859"/><polygon fill="#181818" points="367,149.5703,377,153.5703,367,157.5703,371,153.5703" style="stroke:#181818;stroke-width:1.0;"/><line style="stroke:#181818;stroke-width:1.0;" x1="66" x2="373" y1="153.5703" y2="153.5703"/><text fill="#000000" font-family="sans-serif" font-size="13" lengthAdjust="spacing" textLength="289" x="73" y="148.7139">PATCH /api/resources/{code}/deactivate {reason?}</text><polygon fill="#181818" points="508,179.9219,518,183.9219,508,187.9219,512,183.9219" style="stroke:#181818;stroke-width:1.0;"/><line style="stroke:#181818;stroke-width:1.0;" x1="379" x2="514" y1="183.9219" y2="183.9219"/><text fill="#000000" font-family="sans-serif" font-size="13" lengthAdjust="spacing" textLength="122" x="386" y="179.0654">Deactivate(code, dto)</text><polygon fill="#181818" points="834,210.2734,844,214.2734,834,218.2734,838,214.2734" style="stroke:#181818;stroke-width:1.0;"/><line style="stroke:#181818;stroke-width:1.0;" x1="530" x2="840" y1="214.2734" y2="214.2734"/><text fill="#000000" font-family="sans-serif" font-size="13" lengthAdjust="spacing" textLength="297" x="537" y="209.417">GetByCodeAsync(code, includeQualifications: true)</text><polygon fill="#181818" points="999.5,240.625,1009.5,244.625,999.5,248.625,1003.5,244.625" style="stroke:#181818;stroke-width:1.0;"/><line style="stroke:#181818;stroke-width:1.0;" x1="856" x2="1005.5" y1="244.625" y2="244.625"/><text fill="#000000" font-family="sans-serif" font-size="13" lengthAdjust="spacing" textLength="86" x="863" y="239.7686">query resource</text><polygon fill="#181818" points="1380.5,270.9766,1390.5,274.9766,1380.5,278.9766,1384.5,274.9766" style="stroke:#181818;stroke-width:1.0;"/><line style="stroke:#181818;stroke-width:1.0;" x1="1011.5" x2="1386.5" y1="274.9766" y2="274.9766"/><text fill="#000000" font-family="sans-serif" font-size="13" lengthAdjust="spacing" textLength="32" x="1018.5" y="270.1201">query</text><polygon fill="#181818" points="1022.5,301.3281,1012.5,305.3281,1022.5,309.3281,1018.5,305.3281" style="stroke:#181818;stroke-width:1.0;"/><line style="stroke:#181818;stroke-width:1.0;stroke-dasharray:2.0,2.0;" x1="1016.5" x2="1391.5" y1="305.3281" y2="305.3281"/><text fill="#000000" font-family="sans-serif" font-size="13" lengthAdjust="spacing" textLength="50" x="1028.5" y="300.4717">resource</text><polygon fill="#181818" points="862,331.6797,852,335.6797,862,339.6797,858,335.6797" style="stroke:#181818;stroke-width:1.0;"/><line style="stroke:#181818;stroke-width:1.0;stroke-dasharray:2.0,2.0;" x1="856" x2="1010.5" y1="335.6797" y2="335.6797"/><text fill="#000000" font-family="sans-serif" font-size="13" lengthAdjust="spacing" textLength="50" x="868" y="330.8232">resource</text><path d="M331.5,350.6797 L392.5,350.6797 L392.5,359.0313 L382.5,369.0313 L331.5,369.0313 L331.5,350.6797 " fill="#EEEEEE" style="stroke:#000000;stroke-width:1.5;"/><rect fill="none" height="397.5703" style="stroke:#000000;stroke-width:1.5;" width="1120.5" x="331.5" y="350.6797"/><text fill="#000000" font-family="sans-serif" font-size="13" font-weight="bold" lengthAdjust="spacing" textLength="16" x="346.5" y="365.1748">alt</text><text fill="#000000" font-family="sans-serif" font-size="11" font-weight="bold" lengthAdjust="spacing" textLength="61" x="407.5" y="364.0986">[not found]</text><polygon fill="#181818" points="390,387.3828,380,391.3828,390,395.3828,386,391.3828" style="stroke:#181818;stroke-width:1.0;"/><line style="stroke:#181818;stroke-width:1.0;stroke-dasharray:2.0,2.0;" x1="384" x2="519" y1="391.3828" y2="391.3828"/><text fill="#000000" font-family="sans-serif" font-size="13" lengthAdjust="spacing" textLength="85" x="396" y="386.5264">404 Not Found</text><line style="stroke:#000000;stroke-width:1.0;stroke-dasharray:2.0,2.0;" x1="331.5" x2="1452" y1="400.3828" y2="400.3828"/><line style="stroke:#181818;stroke-width:1.0;" x1="530" x2="572" y1="423.7344" y2="423.7344"/><line style="stroke:#181818;stroke-width:1.0;" x1="572" x2="572" y1="423.7344" y2="436.7344"/><line style="stroke:#181818;stroke-width:1.0;" x1="531" x2="572" y1="436.7344" y2="436.7344"/><polygon fill="#181818" points="541,432.7344,531,436.7344,541,440.7344,537,436.7344" style="stroke:#181818;stroke-width:1.0;"/><text fill="#000000" font-family="sans-serif" font-size="13" lengthAdjust="spacing" textLength="273" x="537" y="418.8779">If already deactivated -&gt; idempotent (return OK)</text><polygon fill="#181818" points="834,463.0859,844,467.0859,834,471.0859,838,467.0859" style="stroke:#181818;stroke-width:1.0;"/><line style="stroke:#181818;stroke-width:1.0;" x1="530" x2="840" y1="467.0859" y2="467.0859"/><text fill="#000000" font-family="sans-serif" font-size="13" lengthAdjust="spacing" textLength="210" x="537" y="462.2295">Update(resource.Deactivate(reason))</text><polygon fill="#181818" points="999.5,493.4375,1009.5,497.4375,999.5,501.4375,1003.5,497.4375" style="stroke:#181818;stroke-width:1.0;"/><line style="stroke:#181818;stroke-width:1.0;" x1="856" x2="1005.5" y1="497.4375" y2="497.4375"/><text fill="#000000" font-family="sans-serif" font-size="13" lengthAdjust="spacing" textLength="81" x="863" y="492.5811">Update(entity)</text><polygon fill="#181818" points="1380.5,523.7891,1390.5,527.7891,1380.5,531.7891,1384.5,527.7891" style="stroke:#181818;stroke-width:1.0;"/><line style="stroke:#181818;stroke-width:1.0;" x1="1011.5" x2="1386.5" y1="527.7891" y2="527.7891"/><text fill="#000000" font-family="sans-serif" font-size="13" lengthAdjust="spacing" textLength="357" x="1018.5" y="522.9326">UPDATE (set DeactivatedAt, DeactivationReason, Availability)</text><polygon fill="#181818" points="1022.5,554.1406,1012.5,558.1406,1022.5,562.1406,1018.5,558.1406" style="stroke:#181818;stroke-width:1.0;"/><line style="stroke:#181818;stroke-width:1.0;stroke-dasharray:2.0,2.0;" x1="1016.5" x2="1391.5" y1="558.1406" y2="558.1406"/><text fill="#000000" font-family="sans-serif" font-size="13" lengthAdjust="spacing" textLength="14" x="1028.5" y="553.2842">ok</text><polygon fill="#181818" points="862,584.4922,852,588.4922,862,592.4922,858,588.4922" style="stroke:#181818;stroke-width:1.0;"/><line style="stroke:#181818;stroke-width:1.0;stroke-dasharray:2.0,2.0;" x1="856" x2="1010.5" y1="588.4922" y2="588.4922"/><text fill="#000000" font-family="sans-serif" font-size="13" lengthAdjust="spacing" textLength="14" x="868" y="583.6357">ok</text><polygon fill="#181818" points="999.5,614.8438,1009.5,618.8438,999.5,622.8438,1003.5,618.8438" style="stroke:#181818;stroke-width:1.0;"/><line style="stroke:#181818;stroke-width:1.0;" x1="530" x2="1005.5" y1="618.8438" y2="618.8438"/><text fill="#000000" font-family="sans-serif" font-size="13" lengthAdjust="spacing" textLength="124" x="537" y="613.9873">SaveChangesAsync()</text><polygon fill="#181818" points="1380.5,645.1953,1390.5,649.1953,1380.5,653.1953,1384.5,649.1953" style="stroke:#181818;stroke-width:1.0;"/><line style="stroke:#181818;stroke-width:1.0;" x1="1011.5" x2="1386.5" y1="649.1953" y2="649.1953"/><text fill="#000000" font-family="sans-serif" font-size="13" lengthAdjust="spacing" textLength="43" x="1018.5" y="644.3389">commit</text><polygon fill="#181818" points="1022.5,675.5469,1012.5,679.5469,1022.5,683.5469,1018.5,679.5469" style="stroke:#181818;stroke-width:1.0;"/><line style="stroke:#181818;stroke-width:1.0;stroke-dasharray:2.0,2.0;" x1="1016.5" x2="1391.5" y1="679.5469" y2="679.5469"/><text fill="#000000" font-family="sans-serif" font-size="13" lengthAdjust="spacing" textLength="14" x="1028.5" y="674.6904">ok</text><polygon fill="#181818" points="541,705.8984,531,709.8984,541,713.8984,537,709.8984" style="stroke:#181818;stroke-width:1.0;"/><line style="stroke:#181818;stroke-width:1.0;stroke-dasharray:2.0,2.0;" x1="535" x2="1010.5" y1="709.8984" y2="709.8984"/><text fill="#000000" font-family="sans-serif" font-size="13" lengthAdjust="spacing" textLength="14" x="547" y="705.042">ok</text><polygon fill="#181818" points="390,736.25,380,740.25,390,744.25,386,740.25" style="stroke:#181818;stroke-width:1.0;"/><line style="stroke:#181818;stroke-width:1.0;stroke-dasharray:2.0,2.0;" x1="384" x2="519" y1="740.25" y2="740.25"/><text fill="#000000" font-family="sans-serif" font-size="13" lengthAdjust="spacing" textLength="110" x="396" y="735.3936">200 OK + resource</text><!--SRC=[VLBBRjim4BppAnO-sMXS6qLEERHGfQGr-eXZ9nz0Y-k4A4sgvCge4EJVkwIaI8w1tBJScTdPMP4cWx3T5Z270cL9-YW9OG6ReLW_DK6Nql1RSBKlKGZkEG-Jd-vH1z9bWDiAlUIt2SYX49NqtDMLj0IJRBs2t6Yqb43jvocadzGF2hcpv9qns0hdxyCtMBcWUN2JqB5yGt2UYbqKnN-jYs8db2Ivam5XSdq3qvNzXGTMcANsbiLutNuXc7_kVCCLhBFx_3iiPAKNllUxU2wTmfU56j9xzYY3irzUHCUC6amVqfv6pWKeSZFnIik5o2CqBi7eRqXVcvnnMMXisJ6qBKsjyAwMHkyv2DBEXYiWN-D8ASMGP5YksB7Otnfz0xrfmM_SIQlsJT5MyvvnWXrSlJwFzatZX3G4rX7iNMsL0DvuFixkSda9lxbzazfe0hQODfhL7gJXs5G3Wx2ANQtmK3cA8bEFL7iBjpzcFRTpzL2fc6flxkCewVOMiyWuDGnmab0dmNCqDH5zcj73kiZkhs4Qa4PtL1bT32NVOfEcNK1sbDh8dJQTs9jmtPzkmB12UZeBjLipaRRoYFcJj8yOsb_Yt6Nf3WTDxy_Bs_hyGf-MIuuMFWmtHhxKo5B-7m00]--></g></svg>