<?xml version="1.0" encoding="us-ascii" standalone="no"?><svg xmlns="http://www.w3.org/2000/svg" xmlns:xlink="http://www.w3.org/1999/xlink" contentStyleType="text/css" height="754px" preserveAspectRatio="none" style="width:1278px;height:754px;background:#FFFFFF;" version="1.1" viewBox="0 0 1278 754" width="1278px" zoomAndPan="magnify"><defs/><g><text fill="#000000" font-family="sans-serif" font-size="14" font-weight="bold" lengthAdjust="spacing" textLength="327" x="468.5" y="24.5332">Domain Model - US 2.2.12 (Physical Resources)</text><!--class PhysicalResource--><g id="elem_PhysicalResource"><rect codeLine="3" fill="#F1F1F1" height="305.2344" id="PhysicalResource" rx="2.5" ry="2.5" style="stroke:#181818;stroke-width:0.5;" width="377" x="440.5" y="45.6094"/><ellipse cx="568.25" cy="66.9609" fill="#ADD1B2" rx="11" ry="11" style="stroke:#181818;stroke-width:1.0;"/><path d="M571.0156,62.8359 Q571.1719,62.6172 571.3594,62.5078 Q571.5469,62.3984 571.7656,62.3984 Q572.1406,62.3984 572.375,62.6641 Q572.6094,62.9141 572.6094,63.5234 L572.6094,64.9766 Q572.6094,65.5859 572.375,65.8516 Q572.1406,66.1172 571.7656,66.1172 Q571.4219,66.1172 571.2188,65.9141 Q571.0156,65.7266 570.9063,65.2109 Q570.8594,64.8516 570.6719,64.6641 Q570.3438,64.2891 569.7344,64.0703 Q569.125,63.8516 568.5,63.8516 Q567.7344,63.8516 567.0938,64.1797 Q566.4688,64.5078 565.9688,65.2578 Q565.4844,66.0078 565.4844,67.0391 L565.4844,68.1328 Q565.4844,69.3672 566.375,70.1953 Q567.2656,71.0078 568.8594,71.0078 Q569.7969,71.0078 570.4531,70.7578 Q570.8438,70.6016 571.2656,70.1641 Q571.5313,69.8984 571.6719,69.8203 Q571.8281,69.7422 572.0313,69.7422 Q572.3594,69.7422 572.6094,70.0078 Q572.875,70.2578 572.875,70.6016 Q572.875,70.9453 572.5313,71.3516 Q572.0313,71.9297 571.2344,72.2578 Q570.1563,72.7109 568.8594,72.7109 Q567.3438,72.7109 566.1406,72.0859 Q565.1563,71.5859 564.4688,70.5234 Q563.7813,69.4453 563.7813,68.1641 L563.7813,67.0078 Q563.7813,65.6797 564.3906,64.5391 Q565.0156,63.3828 566.1094,62.7734 Q567.2031,62.1484 568.4375,62.1484 Q569.1719,62.1484 569.8125,62.3203 Q570.4688,62.4766 571.0156,62.8359 Z " fill="#000000"/><text fill="#000000" font-family="sans-serif" font-size="12" font-style="italic" lengthAdjust="spacing" textLength="100" x="595.25" y="63.0664">&#171;Aggregate Root&#187;</text><text fill="#000000" font-family="sans-serif" font-size="14" lengthAdjust="spacing" textLength="113" x="588.75" y="80.2363">PhysicalResource</text><line style="stroke:#181818;stroke-width:0.5;" x1="441.5" x2="816.5" y1="88.3125" y2="88.3125"/><ellipse cx="451.5" cy="102.6172" fill="none" rx="3" ry="3" style="stroke:#038048;stroke-width:1.0;"/><text fill="#000000" font-family="sans-serif" font-size="14" lengthAdjust="spacing" textLength="114" x="460.5" y="106.8457">ResourceId : Guid</text><ellipse cx="451.5" cy="120.2266" fill="none" rx="3" ry="3" style="stroke:#038048;stroke-width:1.0;"/><text fill="#000000" font-family="sans-serif" font-size="14" lengthAdjust="spacing" textLength="81" x="460.5" y="124.4551">Code : string</text><ellipse cx="451.5" cy="137.8359" fill="none" rx="3" ry="3" style="stroke:#038048;stroke-width:1.0;"/><text fill="#000000" font-family="sans-serif" font-size="14" lengthAdjust="spacing" textLength="118" x="460.5" y="142.0645">Description : string</text><ellipse cx="451.5" cy="155.4453" fill="none" rx="3" ry="3" style="stroke:#038048;stroke-width:1.0;"/><text fill="#000000" font-family="sans-serif" font-size="14" lengthAdjust="spacing" textLength="137" x="460.5" y="159.6738">Type : ResourceType</text><ellipse cx="451.5" cy="173.0547" fill="none" rx="3" ry="3" style="stroke:#038048;stroke-width:1.0;"/><text fill="#000000" font-family="sans-serif" font-size="14" lengthAdjust="spacing" textLength="257" x="460.5" y="177.2832">Availability : PhysicalResourceAvailability</text><ellipse cx="451.5" cy="190.6641" fill="none" rx="3" ry="3" style="stroke:#038048;stroke-width:1.0;"/><text fill="#000000" font-family="sans-serif" font-size="14" lengthAdjust="spacing" textLength="150" x="460.5" y="194.8926">SetupTimeSeconds : int</text><ellipse cx="451.5" cy="208.2734" fill="none" rx="3" ry="3" style="stroke:#038048;stroke-width:1.0;"/><text fill="#000000" font-family="sans-serif" font-size="14" lengthAdjust="spacing" textLength="137" x="460.5" y="212.502">CreatedAt : DateTime</text><ellipse cx="451.5" cy="225.8828" fill="none" rx="3" ry="3" style="stroke:#038048;stroke-width:1.0;"/><text fill="#000000" font-family="sans-serif" font-size="14" lengthAdjust="spacing" textLength="169" x="460.5" y="230.1113">DeactivatedAt : DateTime?</text><ellipse cx="451.5" cy="243.4922" fill="none" rx="3" ry="3" style="stroke:#038048;stroke-width:1.0;"/><text fill="#000000" font-family="sans-serif" font-size="14" lengthAdjust="spacing" textLength="182" x="460.5" y="247.7207">DeactivationReason : string?</text><ellipse cx="451.5" cy="261.1016" fill="none" rx="3" ry="3" style="stroke:#038048;stroke-width:1.0;"/><text fill="#000000" font-family="sans-serif" font-size="14" lengthAdjust="spacing" textLength="351" x="460.5" y="265.3301">RequiredQualifications : List&lt;StaffMemberQualification&gt;</text><line style="stroke:#181818;stroke-width:1.0;" x1="441.5" x2="816.5" y1="272.4063" y2="272.4063"/><ellipse cx="451.5" cy="286.7109" fill="#84BE84" rx="3" ry="3" style="stroke:#038048;stroke-width:1.0;"/><text fill="#000000" font-family="sans-serif" font-size="14" lengthAdjust="spacing" textLength="101" x="460.5" y="290.9395">Update(...): void</text><ellipse cx="451.5" cy="304.3203" fill="#84BE84" rx="3" ry="3" style="stroke:#038048;stroke-width:1.0;"/><text fill="#000000" font-family="sans-serif" font-size="14" lengthAdjust="spacing" textLength="194" x="460.5" y="308.5488">Deactivate(reason:string): void</text><ellipse cx="451.5" cy="321.9297" fill="#84BE84" rx="3" ry="3" style="stroke:#038048;stroke-width:1.0;"/><text fill="#000000" font-family="sans-serif" font-size="14" lengthAdjust="spacing" textLength="94" x="460.5" y="326.1582">Activate(): void</text><ellipse cx="451.5" cy="339.5391" fill="#84BE84" rx="3" ry="3" style="stroke:#038048;stroke-width:1.0;"/><text fill="#000000" font-family="sans-serif" font-size="14" lengthAdjust="spacing" textLength="220" x="460.5" y="343.7676">SetRequiredQualifications(...): void</text></g><!--class STSCrane--><g id="elem_STSCrane"><rect codeLine="21" fill="#F1F1F1" height="93.9219" id="STSCrane" rx="2.5" ry="2.5" style="stroke:#181818;stroke-width:0.5;" width="212" x="7" y="455.1094"/><ellipse cx="75.75" cy="476.4609" fill="#ADD1B2" rx="11" ry="11" style="stroke:#181818;stroke-width:1.0;"/><path d="M78.5156,472.3359 Q78.6719,472.1172 78.8594,472.0078 Q79.0469,471.8984 79.2656,471.8984 Q79.6406,471.8984 79.875,472.1641 Q80.1094,472.4141 80.1094,473.0234 L80.1094,474.4766 Q80.1094,475.0859 79.875,475.3516 Q79.6406,475.6172 79.2656,475.6172 Q78.9219,475.6172 78.7188,475.4141 Q78.5156,475.2266 78.4063,474.7109 Q78.3594,474.3516 78.1719,474.1641 Q77.8438,473.7891 77.2344,473.5703 Q76.625,473.3516 76,473.3516 Q75.2344,473.3516 74.5938,473.6797 Q73.9688,474.0078 73.4688,474.7578 Q72.9844,475.5078 72.9844,476.5391 L72.9844,477.6328 Q72.9844,478.8672 73.875,479.6953 Q74.7656,480.5078 76.3594,480.5078 Q77.2969,480.5078 77.9531,480.2578 Q78.3438,480.1016 78.7656,479.6641 Q79.0313,479.3984 79.1719,479.3203 Q79.3281,479.2422 79.5313,479.2422 Q79.8594,479.2422 80.1094,479.5078 Q80.375,479.7578 80.375,480.1016 Q80.375,480.4453 80.0313,480.8516 Q79.5313,481.4297 78.7344,481.7578 Q77.6563,482.2109 76.3594,482.2109 Q74.8438,482.2109 73.6406,481.5859 Q72.6563,481.0859 71.9688,480.0234 Q71.2813,478.9453 71.2813,477.6641 L71.2813,476.5078 Q71.2813,475.1797 71.8906,474.0391 Q72.5156,472.8828 73.6094,472.2734 Q74.7031,471.6484 75.9375,471.6484 Q76.6719,471.6484 77.3125,471.8203 Q77.9688,471.9766 78.5156,472.3359 Z " fill="#000000"/><text fill="#000000" font-family="sans-serif" font-size="12" font-style="italic" lengthAdjust="spacing" textLength="44" x="107.25" y="472.5664">&#171;Entity&#187;</text><text fill="#000000" font-family="sans-serif" font-size="14" lengthAdjust="spacing" textLength="66" x="96.25" y="489.7363">STSCrane</text><line style="stroke:#181818;stroke-width:0.5;" x1="8" x2="218" y1="497.8125" y2="497.8125"/><ellipse cx="18" cy="512.1172" fill="none" rx="3" ry="3" style="stroke:#038048;stroke-width:1.0;"/><text fill="#000000" font-family="sans-serif" font-size="14" lengthAdjust="spacing" textLength="172" x="27" y="516.3457">AvgContainersPerHour : int</text><ellipse cx="18" cy="529.7266" fill="none" rx="3" ry="3" style="stroke:#038048;stroke-width:1.0;"/><text fill="#000000" font-family="sans-serif" font-size="14" lengthAdjust="spacing" textLength="186" x="27" y="533.9551">InstalledAtDockCode : string?</text><line style="stroke:#181818;stroke-width:0.5;" x1="8" x2="218" y1="541.0313" y2="541.0313"/></g><!--class MobileEquipment--><g id="elem_MobileEquipment"><rect codeLine="26" fill="#F1F1F1" height="146.75" id="MobileEquipment" rx="2.5" ry="2.5" style="stroke:#181818;stroke-width:0.5;" width="318" x="254" y="428.6094"/><ellipse cx="354.75" cy="449.9609" fill="#ADD1B2" rx="11" ry="11" style="stroke:#181818;stroke-width:1.0;"/><path d="M357.5156,445.8359 Q357.6719,445.6172 357.8594,445.5078 Q358.0469,445.3984 358.2656,445.3984 Q358.6406,445.3984 358.875,445.6641 Q359.1094,445.9141 359.1094,446.5234 L359.1094,447.9766 Q359.1094,448.5859 358.875,448.8516 Q358.6406,449.1172 358.2656,449.1172 Q357.9219,449.1172 357.7188,448.9141 Q357.5156,448.7266 357.4063,448.2109 Q357.3594,447.8516 357.1719,447.6641 Q356.8438,447.2891 356.2344,447.0703 Q355.625,446.8516 355,446.8516 Q354.2344,446.8516 353.5938,447.1797 Q352.9688,447.5078 352.4688,448.2578 Q351.9844,449.0078 351.9844,450.0391 L351.9844,451.1328 Q351.9844,452.3672 352.875,453.1953 Q353.7656,454.0078 355.3594,454.0078 Q356.2969,454.0078 356.9531,453.7578 Q357.3438,453.6016 357.7656,453.1641 Q358.0313,452.8984 358.1719,452.8203 Q358.3281,452.7422 358.5313,452.7422 Q358.8594,452.7422 359.1094,453.0078 Q359.375,453.2578 359.375,453.6016 Q359.375,453.9453 359.0313,454.3516 Q358.5313,454.9297 357.7344,455.2578 Q356.6563,455.7109 355.3594,455.7109 Q353.8438,455.7109 352.6406,455.0859 Q351.6563,454.5859 350.9688,453.5234 Q350.2813,452.4453 350.2813,451.1641 L350.2813,450.0078 Q350.2813,448.6797 350.8906,447.5391 Q351.5156,446.3828 352.6094,445.7734 Q353.7031,445.1484 354.9375,445.1484 Q355.6719,445.1484 356.3125,445.3203 Q356.9688,445.4766 357.5156,445.8359 Z " fill="#000000"/><text fill="#000000" font-family="sans-serif" font-size="12" font-style="italic" lengthAdjust="spacing" textLength="44" x="407.25" y="446.0664">&#171;Entity&#187;</text><text fill="#000000" font-family="sans-serif" font-size="14" lengthAdjust="spacing" textLength="108" x="375.25" y="463.2363">MobileEquipment</text><line style="stroke:#181818;stroke-width:0.5;" x1="255" x2="571" y1="471.3125" y2="471.3125"/><ellipse cx="265" cy="485.6172" fill="none" rx="3" ry="3" style="stroke:#038048;stroke-width:1.0;"/><text fill="#000000" font-family="sans-serif" font-size="14" lengthAdjust="spacing" textLength="292" x="274" y="489.8457">MobileEquipmentType : MobileEquipmentType</text><ellipse cx="265" cy="503.2266" fill="none" rx="3" ry="3" style="stroke:#038048;stroke-width:1.0;"/><text fill="#000000" font-family="sans-serif" font-size="14" lengthAdjust="spacing" textLength="126" x="274" y="507.4551">MaxSpeedKph : int?</text><ellipse cx="265" cy="520.8359" fill="none" rx="3" ry="3" style="stroke:#038048;stroke-width:1.0;"/><text fill="#000000" font-family="sans-serif" font-size="14" lengthAdjust="spacing" textLength="151" x="274" y="525.0645">ContainersPerTrip : int?</text><ellipse cx="265" cy="538.4453" fill="none" rx="3" ry="3" style="stroke:#038048;stroke-width:1.0;"/><text fill="#000000" font-family="sans-serif" font-size="14" lengthAdjust="spacing" textLength="180" x="274" y="542.6738">AvgContainersPerHour : int?</text><ellipse cx="265" cy="556.0547" fill="none" rx="3" ry="3" style="stroke:#038048;stroke-width:1.0;"/><text fill="#000000" font-family="sans-serif" font-size="14" lengthAdjust="spacing" textLength="169" x="274" y="560.2832">CurrentDockCode : string?</text><line style="stroke:#181818;stroke-width:0.5;" x1="255" x2="571" y1="567.3594" y2="567.3594"/></g><!--class StaffMemberQualification--><g id="elem_StaffMemberQualification"><rect codeLine="34" fill="#F1F1F1" height="93.9219" id="StaffMemberQualification" rx="2.5" ry="2.5" style="stroke:#181818;stroke-width:0.5;" width="190" x="607" y="455.1094"/><ellipse cx="622" cy="476.4609" fill="#ADD1B2" rx="11" ry="11" style="stroke:#181818;stroke-width:1.0;"/><path d="M624.7656,472.3359 Q624.9219,472.1172 625.1094,472.0078 Q625.2969,471.8984 625.5156,471.8984 Q625.8906,471.8984 626.125,472.1641 Q626.3594,472.4141 626.3594,473.0234 L626.3594,474.4766 Q626.3594,475.0859 626.125,475.3516 Q625.8906,475.6172 625.5156,475.6172 Q625.1719,475.6172 624.9688,475.4141 Q624.7656,475.2266 624.6563,474.7109 Q624.6094,474.3516 624.4219,474.1641 Q624.0938,473.7891 623.4844,473.5703 Q622.875,473.3516 622.25,473.3516 Q621.4844,473.3516 620.8438,473.6797 Q620.2188,474.0078 619.7188,474.7578 Q619.2344,475.5078 619.2344,476.5391 L619.2344,477.6328 Q619.2344,478.8672 620.125,479.6953 Q621.0156,480.5078 622.6094,480.5078 Q623.5469,480.5078 624.2031,480.2578 Q624.5938,480.1016 625.0156,479.6641 Q625.2813,479.3984 625.4219,479.3203 Q625.5781,479.2422 625.7813,479.2422 Q626.1094,479.2422 626.3594,479.5078 Q626.625,479.7578 626.625,480.1016 Q626.625,480.4453 626.2813,480.8516 Q625.7813,481.4297 624.9844,481.7578 Q623.9063,482.2109 622.6094,482.2109 Q621.0938,482.2109 619.8906,481.5859 Q618.9063,481.0859 618.2188,480.0234 Q617.5313,478.9453 617.5313,477.6641 L617.5313,476.5078 Q617.5313,475.1797 618.1406,474.0391 Q618.7656,472.8828 619.8594,472.2734 Q620.9531,471.6484 622.1875,471.6484 Q622.9219,471.6484 623.5625,471.8203 Q624.2188,471.9766 624.7656,472.3359 Z " fill="#000000"/><text fill="#000000" font-family="sans-serif" font-size="12" font-style="italic" lengthAdjust="spacing" textLength="44" x="693" y="472.5664">&#171;Entity&#187;</text><text fill="#000000" font-family="sans-serif" font-size="14" lengthAdjust="spacing" textLength="158" x="636" y="489.7363">StaffMemberQualification</text><line style="stroke:#181818;stroke-width:0.5;" x1="608" x2="796" y1="497.8125" y2="497.8125"/><ellipse cx="618" cy="512.1172" fill="none" rx="3" ry="3" style="stroke:#038048;stroke-width:1.0;"/><text fill="#000000" font-family="sans-serif" font-size="14" lengthAdjust="spacing" textLength="136" x="627" y="516.3457">QualificationId : string</text><ellipse cx="618" cy="529.7266" fill="none" rx="3" ry="3" style="stroke:#038048;stroke-width:1.0;"/><text fill="#000000" font-family="sans-serif" font-size="14" lengthAdjust="spacing" textLength="83" x="627" y="533.9551">Name : string</text><line style="stroke:#181818;stroke-width:0.5;" x1="608" x2="796" y1="541.0313" y2="541.0313"/></g><!--class Dock--><g id="elem_Dock"><rect codeLine="39" fill="#F1F1F1" height="93.9219" id="Dock" rx="2.5" ry="2.5" style="stroke:#181818;stroke-width:0.5;" width="109" x="207.5" y="653.6094"/><ellipse cx="239.15" cy="674.9609" fill="#ADD1B2" rx="11" ry="11" style="stroke:#181818;stroke-width:1.0;"/><path d="M241.9156,670.8359 Q242.0719,670.6172 242.2594,670.5078 Q242.4469,670.3984 242.6656,670.3984 Q243.0406,670.3984 243.275,670.6641 Q243.5094,670.9141 243.5094,671.5234 L243.5094,672.9766 Q243.5094,673.5859 243.275,673.8516 Q243.0406,674.1172 242.6656,674.1172 Q242.3219,674.1172 242.1188,673.9141 Q241.9156,673.7266 241.8063,673.2109 Q241.7594,672.8516 241.5719,672.6641 Q241.2438,672.2891 240.6344,672.0703 Q240.025,671.8516 239.4,671.8516 Q238.6344,671.8516 237.9938,672.1797 Q237.3688,672.5078 236.8688,673.2578 Q236.3844,674.0078 236.3844,675.0391 L236.3844,676.1328 Q236.3844,677.3672 237.275,678.1953 Q238.1656,679.0078 239.7594,679.0078 Q240.6969,679.0078 241.3531,678.7578 Q241.7438,678.6016 242.1656,678.1641 Q242.4313,677.8984 242.5719,677.8203 Q242.7281,677.7422 242.9313,677.7422 Q243.2594,677.7422 243.5094,678.0078 Q243.775,678.2578 243.775,678.6016 Q243.775,678.9453 243.4313,679.3516 Q242.9313,679.9297 242.1344,680.2578 Q241.0563,680.7109 239.7594,680.7109 Q238.2438,680.7109 237.0406,680.0859 Q236.0563,679.5859 235.3688,678.5234 Q234.6813,677.4453 234.6813,676.1641 L234.6813,675.0078 Q234.6813,673.6797 235.2906,672.5391 Q235.9156,671.3828 237.0094,670.7734 Q238.1031,670.1484 239.3375,670.1484 Q240.0719,670.1484 240.7125,670.3203 Q241.3688,670.4766 241.9156,670.8359 Z " fill="#000000"/><text fill="#000000" font-family="sans-serif" font-size="12" font-style="italic" lengthAdjust="spacing" textLength="44" x="254.85" y="671.0664">&#171;Entity&#187;</text><text fill="#000000" font-family="sans-serif" font-size="14" lengthAdjust="spacing" textLength="32" x="260.85" y="688.2363">Dock</text><line style="stroke:#181818;stroke-width:0.5;" x1="208.5" x2="315.5" y1="696.3125" y2="696.3125"/><ellipse cx="218.5" cy="710.6172" fill="none" rx="3" ry="3" style="stroke:#038048;stroke-width:1.0;"/><text fill="#000000" font-family="sans-serif" font-size="14" lengthAdjust="spacing" textLength="81" x="227.5" y="714.8457">Code : string</text><ellipse cx="218.5" cy="728.2266" fill="none" rx="3" ry="3" style="stroke:#038048;stroke-width:1.0;"/><text fill="#000000" font-family="sans-serif" font-size="14" lengthAdjust="spacing" textLength="83" x="227.5" y="732.4551">Name : string</text><line style="stroke:#181818;stroke-width:0.5;" x1="208.5" x2="315.5" y1="739.5313" y2="739.5313"/></g><!--class StorageArea--><g id="elem_StorageArea"><rect codeLine="44" fill="#F1F1F1" height="93.9219" id="StorageArea" rx="2.5" ry="2.5" style="stroke:#181818;stroke-width:0.5;" width="164" x="832" y="455.1094"/><ellipse cx="870.4" cy="476.4609" fill="#ADD1B2" rx="11" ry="11" style="stroke:#181818;stroke-width:1.0;"/><path d="M873.1656,472.3359 Q873.3219,472.1172 873.5094,472.0078 Q873.6969,471.8984 873.9156,471.8984 Q874.2906,471.8984 874.525,472.1641 Q874.7594,472.4141 874.7594,473.0234 L874.7594,474.4766 Q874.7594,475.0859 874.525,475.3516 Q874.2906,475.6172 873.9156,475.6172 Q873.5719,475.6172 873.3688,475.4141 Q873.1656,475.2266 873.0563,474.7109 Q873.0094,474.3516 872.8219,474.1641 Q872.4938,473.7891 871.8844,473.5703 Q871.275,473.3516 870.65,473.3516 Q869.8844,473.3516 869.2438,473.6797 Q868.6188,474.0078 868.1188,474.7578 Q867.6344,475.5078 867.6344,476.5391 L867.6344,477.6328 Q867.6344,478.8672 868.525,479.6953 Q869.4156,480.5078 871.0094,480.5078 Q871.9469,480.5078 872.6031,480.2578 Q872.9938,480.1016 873.4156,479.6641 Q873.6813,479.3984 873.8219,479.3203 Q873.9781,479.2422 874.1813,479.2422 Q874.5094,479.2422 874.7594,479.5078 Q875.025,479.7578 875.025,480.1016 Q875.025,480.4453 874.6813,480.8516 Q874.1813,481.4297 873.3844,481.7578 Q872.3063,482.2109 871.0094,482.2109 Q869.4938,482.2109 868.2906,481.5859 Q867.3063,481.0859 866.6188,480.0234 Q865.9313,478.9453 865.9313,477.6641 L865.9313,476.5078 Q865.9313,475.1797 866.5406,474.0391 Q867.1656,472.8828 868.2594,472.2734 Q869.3531,471.6484 870.5875,471.6484 Q871.3219,471.6484 871.9625,471.8203 Q872.6188,471.9766 873.1656,472.3359 Z " fill="#000000"/><text fill="#000000" font-family="sans-serif" font-size="12" font-style="italic" lengthAdjust="spacing" textLength="44" x="907.6" y="472.5664">&#171;Entity&#187;</text><text fill="#000000" font-family="sans-serif" font-size="14" lengthAdjust="spacing" textLength="80" x="889.6" y="489.7363">StorageArea</text><line style="stroke:#181818;stroke-width:0.5;" x1="833" x2="995" y1="497.8125" y2="497.8125"/><ellipse cx="843" cy="512.1172" fill="none" rx="3" ry="3" style="stroke:#038048;stroke-width:1.0;"/><text fill="#000000" font-family="sans-serif" font-size="14" lengthAdjust="spacing" textLength="138" x="852" y="516.3457">StorageAreaId : string</text><ellipse cx="843" cy="529.7266" fill="none" rx="3" ry="3" style="stroke:#038048;stroke-width:1.0;"/><text fill="#000000" font-family="sans-serif" font-size="14" lengthAdjust="spacing" textLength="83" x="852" y="533.9551">Name : string</text><line style="stroke:#181818;stroke-width:0.5;" x1="833" x2="995" y1="541.0313" y2="541.0313"/></g><!--class PhysicalResourceAvailability--><g id="elem_PhysicalResourceAvailability"><rect codeLine="49" fill="#F1F1F1" height="100.8281" id="PhysicalResourceAvailability" rx="2.5" ry="2.5" style="stroke:#181818;stroke-width:0.5;" width="211" x="852.5" y="147.6094"/><ellipse cx="867.5" cy="163.6094" fill="#EB937F" rx="11" ry="11" style="stroke:#181818;stroke-width:1.0;"/><path d="M866.3594,164.4063 L866.3594,166.9063 L870.6875,166.9063 L870.6875,165.9844 Q870.6875,165.375 870.9219,165.1094 Q871.1719,164.8438 871.5469,164.8438 Q871.9219,164.8438 872.1563,165.1094 Q872.3906,165.375 872.3906,165.9844 L872.3906,168.6094 L864.3906,168.6094 Q863.7656,168.6094 863.5,168.375 Q863.25,168.1406 863.25,167.75 Q863.25,167.375 863.5156,167.1406 Q863.7813,166.9063 864.3906,166.9063 L864.6563,166.9063 L864.6563,160.25 L864.3906,160.25 Q863.7656,160.25 863.5,160.0156 Q863.25,159.7813 863.25,159.3906 Q863.25,159.0156 863.5,158.7813 Q863.7656,158.5469 864.3906,158.5469 L872.0156,158.5469 L872.0156,161.1406 Q872.0156,161.75 871.7813,162.0156 Q871.5625,162.2656 871.1719,162.2656 Q870.7969,162.2656 870.5625,162.0156 Q870.3281,161.75 870.3281,161.1406 L870.3281,160.25 L866.3594,160.25 L866.3594,162.7031 L867.8438,162.7031 Q867.8438,162.0469 867.9688,161.8594 Q868.2344,161.4531 868.7031,161.4531 Q869.0781,161.4531 869.3125,161.7188 Q869.5469,161.9688 869.5469,162.5781 L869.5469,164.5469 Q869.5469,165.0938 869.4219,165.2813 Q869.1563,165.6719 868.7031,165.6719 Q868.2344,165.6719 867.9688,165.2656 Q867.8438,165.0781 867.8438,164.4063 L866.3594,164.4063 Z " fill="#000000"/><text fill="#000000" font-family="sans-serif" font-size="14" lengthAdjust="spacing" textLength="179" x="881.5" y="169.3379">PhysicalResourceAvailability</text><line style="stroke:#181818;stroke-width:0.5;" x1="853.5" x2="1062.5" y1="179.6094" y2="179.6094"/><text fill="#000000" font-family="sans-serif" font-size="14" lengthAdjust="spacing" textLength="73" x="858.5" y="198.1426">AVAILABLE</text><text fill="#000000" font-family="sans-serif" font-size="14" lengthAdjust="spacing" textLength="96" x="858.5" y="215.752">MAINTENANCE</text><text fill="#000000" font-family="sans-serif" font-size="14" lengthAdjust="spacing" textLength="170" x="858.5" y="233.3613">TEMP_OUT_OF_SERVICE</text><line style="stroke:#181818;stroke-width:0.5;" x1="853.5" x2="1062.5" y1="240.4375" y2="240.4375"/></g><!--class MobileEquipmentType--><g id="elem_MobileEquipmentType"><rect codeLine="55" fill="#F1F1F1" height="83.2188" id="MobileEquipmentType" rx="2.5" ry="2.5" style="stroke:#181818;stroke-width:0.5;" width="172" x="1099" y="156.6094"/><ellipse cx="1114" cy="172.6094" fill="#EB937F" rx="11" ry="11" style="stroke:#181818;stroke-width:1.0;"/><path d="M1112.8594,173.4063 L1112.8594,175.9063 L1117.1875,175.9063 L1117.1875,174.9844 Q1117.1875,174.375 1117.4219,174.1094 Q1117.6719,173.8438 1118.0469,173.8438 Q1118.4219,173.8438 1118.6563,174.1094 Q1118.8906,174.375 1118.8906,174.9844 L1118.8906,177.6094 L1110.8906,177.6094 Q1110.2656,177.6094 1110,177.375 Q1109.75,177.1406 1109.75,176.75 Q1109.75,176.375 1110.0156,176.1406 Q1110.2813,175.9063 1110.8906,175.9063 L1111.1563,175.9063 L1111.1563,169.25 L1110.8906,169.25 Q1110.2656,169.25 1110,169.0156 Q1109.75,168.7813 1109.75,168.3906 Q1109.75,168.0156 1110,167.7813 Q1110.2656,167.5469 1110.8906,167.5469 L1118.5156,167.5469 L1118.5156,170.1406 Q1118.5156,170.75 1118.2813,171.0156 Q1118.0625,171.2656 1117.6719,171.2656 Q1117.2969,171.2656 1117.0625,171.0156 Q1116.8281,170.75 1116.8281,170.1406 L1116.8281,169.25 L1112.8594,169.25 L1112.8594,171.7031 L1114.3438,171.7031 Q1114.3438,171.0469 1114.4688,170.8594 Q1114.7344,170.4531 1115.2031,170.4531 Q1115.5781,170.4531 1115.8125,170.7188 Q1116.0469,170.9688 1116.0469,171.5781 L1116.0469,173.5469 Q1116.0469,174.0938 1115.9219,174.2813 Q1115.6563,174.6719 1115.2031,174.6719 Q1114.7344,174.6719 1114.4688,174.2656 Q1114.3438,174.0781 1114.3438,173.4063 L1112.8594,173.4063 Z " fill="#000000"/><text fill="#000000" font-family="sans-serif" font-size="14" lengthAdjust="spacing" textLength="140" x="1128" y="178.3379">MobileEquipmentType</text><line style="stroke:#181818;stroke-width:0.5;" x1="1100" x2="1270" y1="188.6094" y2="188.6094"/><text fill="#000000" font-family="sans-serif" font-size="14" lengthAdjust="spacing" textLength="47" x="1105" y="207.1426">TRUCK</text><text fill="#000000" font-family="sans-serif" font-size="14" lengthAdjust="spacing" textLength="158" x="1105" y="224.752">YARD_GANTRY_CRANE</text><line style="stroke:#181818;stroke-width:0.5;" x1="1100" x2="1270" y1="231.8281" y2="231.8281"/></g><!--reverse link PhysicalResource to STSCrane--><g id="link_PhysicalResource_STSCrane"><path codeLine="60" d="M424.4642,318.3428 C359.7342,356.1228 302.44,389.6294 236,428.6094 C221.46,437.1394 205.97,446.2494 191.05,455.0394 " fill="none" id="PhysicalResource-backto-STSCrane" style="stroke:#181818;stroke-width:1.0;"/><polygon fill="none" points="440.01,309.2694,421.4397,313.1608,427.4886,323.5247,440.01,309.2694" style="stroke:#181818;stroke-width:1.0;"/></g><!--reverse link PhysicalResource to MobileEquipment--><g id="link_PhysicalResource_MobileEquipment"><path codeLine="61" d="M509.8995,365.6307 C490.5695,392.6607 481.73,405.0094 464.93,428.4994 " fill="none" id="PhysicalResource-backto-MobileEquipment" style="stroke:#181818;stroke-width:1.0;"/><polygon fill="none" points="520.37,350.9894,505.0191,362.1406,514.78,369.1209,520.37,350.9894" style="stroke:#181818;stroke-width:1.0;"/></g><!--reverse link PhysicalResource to StaffMemberQualification--><g id="link_PhysicalResource_StaffMemberQualification"><path codeLine="62" d="M668.5291,362.6535 C677.6891,400.5535 684.02,426.7094 690.83,454.9094 " fill="none" id="PhysicalResource-backto-StaffMemberQualification" style="stroke:#181818;stroke-width:1.0;"/><polygon fill="none" points="665.71,350.9894,663.2315,357.7612,668.5291,362.6535,671.0076,355.8818,665.71,350.9894" style="stroke:#181818;stroke-width:1.0;"/><text fill="#000000" font-family="sans-serif" font-size="13" lengthAdjust="spacing" textLength="46" x="678" y="395.1045">requires</text><text fill="#000000" font-family="sans-serif" font-size="13" lengthAdjust="spacing" textLength="7" x="660.3186" y="372.28">1</text><text fill="#000000" font-family="sans-serif" font-size="13" lengthAdjust="spacing" textLength="20" x="667.7207" y="444.3285">0..*</text></g><!--link STSCrane to Dock--><g id="link_STSCrane_Dock"><path codeLine="63" d="M147.93,549.1794 C171.76,580.5994 199.564,617.279 223.404,648.709 " fill="none" id="STSCrane-to-Dock" style="stroke:#181818;stroke-width:1.0;"/><polygon fill="#181818" points="227.03,653.4894,224.778,643.9015,224.0083,649.5057,218.4041,648.7361,227.03,653.4894" style="stroke:#181818;stroke-width:1.0;"/><text fill="#000000" font-family="sans-serif" font-size="13" lengthAdjust="spacing" textLength="61" x="202" y="620.1045">installedAt</text><text fill="#000000" font-family="sans-serif" font-size="13" lengthAdjust="spacing" textLength="22" x="129.2952" y="570.4489">0..1</text><text fill="#000000" font-family="sans-serif" font-size="13" lengthAdjust="spacing" textLength="7" x="214.3797" y="642.9203">1</text></g><!--link MobileEquipment to Dock--><g id="link_MobileEquipment_Dock"><path codeLine="64" d="M357.2,575.7194 C337.21,601.7394 318.8863,625.5821 301.0863,648.7421 " fill="none" id="MobileEquipment-to-Dock" style="stroke:#181818;stroke-width:1.0;"/><polygon fill="#181818" points="297.43,653.4994,306.0859,648.801,300.4769,649.535,299.7429,643.9259,297.43,653.4994" style="stroke:#181818;stroke-width:1.0;"/><text fill="#000000" font-family="sans-serif" font-size="13" lengthAdjust="spacing" textLength="97" x="334" y="620.1045">currentAllocation</text><text fill="#000000" font-family="sans-serif" font-size="13" lengthAdjust="spacing" textLength="22" x="329.0419" y="596.7656">0..1</text><text fill="#000000" font-family="sans-serif" font-size="13" lengthAdjust="spacing" textLength="7" x="295.3193" y="642.5887">1</text></g><!--link PhysicalResource to StorageArea--><g id="link_PhysicalResource_StorageArea"><path codeLine="65" d="M772.33,350.9894 C808.1,388.8894 839.6722,422.3455 866.2822,450.5455 " fill="none" id="PhysicalResource-to-StorageArea" style="stroke:#181818;stroke-width:1.0;"/><polygon fill="#181818" points="870.4,454.9094,867.1325,445.6183,866.9685,451.2728,861.314,451.1088,870.4,454.9094" style="stroke:#181818;stroke-width:1.0;"/><text fill="#000000" font-family="sans-serif" font-size="13" lengthAdjust="spacing" textLength="66" x="815" y="395.1045">assignedTo</text><text fill="#000000" font-family="sans-serif" font-size="13" lengthAdjust="spacing" textLength="22" x="756.7397" y="372.28">0..1</text><text fill="#000000" font-family="sans-serif" font-size="13" lengthAdjust="spacing" textLength="7" x="856.4822" y="444.3285">1</text></g><!--SRC=[XLHTRzem57tdLrWyqKs9LXuH0daXwr0XxP9GgK_8JKngBR4psq53w_xxhlFLX43tH7pFkVSS-zwBPZgbQ2KomZZQYfYco4Ax04tjgNqxHPF7rvDY4KcHJvKeP4JLpMWKfKGfr40DWkPpd2II9aHJv0kX5mlqPuJGvpPt7QCPkYjON4OTK8EpqfBnf8oig8eaopKJl0-4fznGcphcMCRnaR2KlB2KwHFWvuwwSCaFg2xoa6Kqe97WiO8SndNbHbBm7MCDiHLy6LPjYaIQ7GVWie-2PvyIrN6-hE_-gs2InZyAah83k3DC8xnXIiy3JGw7BSrUgEmH5f1hMMM1NHw3uiIsxPiPEehwyTvTJMGfEwj4knpSCBf1U8BBbheAVviU1s7WIC9DRrskuHdRdk9ZuWYkOMoeL8zKVeSNxppdcYjDqjIysKf4FtkzNhxNtmhe3dN1JvvHheSoPuHw42v4ApRv7UIKnlVvQ-LbMKzQnsW84zO5hr-aJYwa18sFRd6jYyFhzE1o7JfJxf6iin1jTQCyh3JSdYlfWHQI91J3c0ohTC3_kg6yo3vSiR8cViBh3VwwSU5xYzTUw7hOSymfTBUF-uTTk7_ujWzS_saDqQRifJQRQg6_S-xXzndxg_qTzaB_UU_us2ipXtz0RvRLZkmL-4nfo1hVZf40ulYBRNyQN-_j3CbgZzIetHAJ0-cMjIZBb9qpezJkmkXyu2zdHDNCuJGLbTe5c_t4RfTd2FhE4axZKFm3]--></g></svg>