<svg xmlns="http://www.w3.org/2000/svg" xmlns:xlink="http://www.w3.org/1999/xlink" contentStyleType="text/css" height="2235px" preserveAspectRatio="none" style="width:1636px;height:2235px;background:#FFFFFF;" version="1.1" viewBox="0 0 1636 2235" width="1636px" zoomAndPan="magnify"><title>Sequence Diagram - US 2.2.11 Register and Manage Staff Members</title><defs/><g><text fill="#000000" font-family="sans-serif" font-size="14" font-weight="bold" lengthAdjust="spacing" textLength="462.0822" x="583.3011" y="29.9659">Sequence Diagram - US 2.2.11 Register and Manage Staff Members</text><rect fill="none" height="51.412" style="stroke:#000000;stroke-width:1.5;" width="857.2796" x="579.7535" y="1178.5023"/><rect fill="none" height="51.412" style="stroke:#000000;stroke-width:1.5;" width="857.2796" x="579.7535" y="1243.9143"/><rect fill="none" height="51.412" style="stroke:#000000;stroke-width:1.5;" width="857.2796" x="579.7535" y="1309.3264"/><line style="stroke:#181818;stroke-width:0.5;stroke-dasharray:5.0,5.0;" x1="68" x2="68" y1="129.2038" y2="2134.9768"/><line style="stroke:#181818;stroke-width:0.5;stroke-dasharray:5.0,5.0;" x1="359.4753" x2="359.4753" y1="129.2038" y2="2134.9768"/><line style="stroke:#181818;stroke-width:0.5;stroke-dasharray:5.0,5.0;" x1="662.7535" x2="662.7535" y1="129.2038" y2="2134.9768"/><line style="stroke:#181818;stroke-width:0.5;stroke-dasharray:5.0,5.0;" x1="912.3856" x2="912.3856" y1="129.2038" y2="2134.9768"/><line style="stroke:#181818;stroke-width:0.5;stroke-dasharray:5.0,5.0;" x1="1227.19" x2="1227.19" y1="129.2038" y2="2134.9768"/><line style="stroke:#181818;stroke-width:0.5;stroke-dasharray:5.0,5.0;" x1="1374.8354" x2="1374.8354" y1="129.2038" y2="2134.9768"/><line style="stroke:#181818;stroke-width:0.5;stroke-dasharray:5.0,5.0;" x1="1530.0331" x2="1530.0331" y1="129.2038" y2="2134.9768"/><text fill="#000000" font-family="sans-serif" font-size="14" lengthAdjust="spacing" textLength="120.8476" x="5" y="125.1018">Logistics Operator</text><ellipse cx="68.4238" cy="58.6358" fill="#E2E2F0" rx="8" ry="8" style="stroke:#181818;stroke-width:0.5;"/><path d="M68.4238,66.6358 L68.4238,93.6358 M55.4238,74.6358 L81.4238,74.6358 M68.4238,93.6358 L55.4238,108.6358 M68.4238,93.6358 L81.4238,108.6358 " fill="none" style="stroke:#181818;stroke-width:0.5;"/><text fill="#000000" font-family="sans-serif" font-size="14" lengthAdjust="spacing" textLength="120.8476" x="5" y="2148.9427">Logistics Operator</text><ellipse cx="68.4238" cy="2161.5447" fill="#E2E2F0" rx="8" ry="8" style="stroke:#181818;stroke-width:0.5;"/><path d="M68.4238,2169.5447 L68.4238,2196.5447 M55.4238,2177.5447 L81.4238,2177.5447 M68.4238,2196.5447 L55.4238,2211.5447 M68.4238,2196.5447 L81.4238,2211.5447 " fill="none" style="stroke:#181818;stroke-width:0.5;"/><rect fill="#E2E2F0" height="52.1358" rx="2.5" ry="2.5" style="stroke:#181818;stroke-width:0.5;" width="173.0814" x="273.4753" y="76.0679"/><text fill="#000000" font-family="sans-serif" font-size="14" lengthAdjust="spacing" textLength="22.1619" x="348.935" y="98.0339">API</text><text fill="#000000" font-family="sans-serif" font-size="14" lengthAdjust="spacing" textLength="159.0814" x="280.4753" y="117.1018">StaffMembersController</text><rect fill="#E2E2F0" height="52.1358" rx="2.5" ry="2.5" style="stroke:#181818;stroke-width:0.5;" width="173.0814" x="273.4753" y="2133.9768"/><text fill="#000000" font-family="sans-serif" font-size="14" lengthAdjust="spacing" textLength="22.1619" x="348.935" y="2155.9427">API</text><text fill="#000000" font-family="sans-serif" font-size="14" lengthAdjust="spacing" textLength="159.0814" x="280.4753" y="2175.0106">StaffMembersController</text><rect fill="#E2E2F0" height="52.1358" rx="2.5" ry="2.5" style="stroke:#181818;stroke-width:0.5;" width="146.9015" x="589.7535" y="76.0679"/><text fill="#000000" font-family="sans-serif" font-size="14" lengthAdjust="spacing" textLength="76.5097" x="624.9494" y="98.0339">App Service</text><text fill="#000000" font-family="sans-serif" font-size="14" lengthAdjust="spacing" textLength="132.9015" x="596.7535" y="117.1018">StaffMemberService</text><rect fill="#E2E2F0" height="52.1358" rx="2.5" ry="2.5" style="stroke:#181818;stroke-width:0.5;" width="146.9015" x="589.7535" y="2133.9768"/><text fill="#000000" font-family="sans-serif" font-size="14" lengthAdjust="spacing" textLength="76.5097" x="624.9494" y="2155.9427">App Service</text><text fill="#000000" font-family="sans-serif" font-size="14" lengthAdjust="spacing" textLength="132.9015" x="596.7535" y="2175.0106">StaffMemberService</text><text fill="#000000" font-family="sans-serif" font-size="14" lengthAdjust="spacing" textLength="49.6858" x="885.5356" y="106.0339">EF Core</text><text fill="#000000" font-family="sans-serif" font-size="14" lengthAdjust="spacing" textLength="97.9856" x="861.3856" y="125.1018">PortDbContext</text><path d="M895.3785,55.0679 C895.3785,45.0679 913.3785,45.0679 913.3785,45.0679 C913.3785,45.0679 931.3785,45.0679 931.3785,55.0679 L931.3785,81.0679 C931.3785,91.0679 913.3785,91.0679 913.3785,91.0679 C913.3785,91.0679 895.3785,91.0679 895.3785,81.0679 L895.3785,55.0679 " fill="#E2E2F0" style="stroke:#181818;stroke-width:1.5;"/><path d="M895.3785,55.0679 C895.3785,65.0679 913.3785,65.0679 913.3785,65.0679 C913.3785,65.0679 931.3785,65.0679 931.3785,55.0679 " fill="none" style="stroke:#181818;stroke-width:1.5;"/><text fill="#000000" font-family="sans-serif" font-size="14" lengthAdjust="spacing" textLength="49.6858" x="885.5356" y="2148.9427">EF Core</text><text fill="#000000" font-family="sans-serif" font-size="14" lengthAdjust="spacing" textLength="97.9856" x="861.3856" y="2168.0106">PortDbContext</text><path d="M895.3785,2182.1126 C895.3785,2172.1126 913.3785,2172.1126 913.3785,2172.1126 C913.3785,2172.1126 931.3785,2172.1126 931.3785,2182.1126 L931.3785,2208.1126 C931.3785,2218.1126 913.3785,2218.1126 913.3785,2218.1126 C913.3785,2218.1126 895.3785,2218.1126 895.3785,2208.1126 L895.3785,2182.1126 " fill="#E2E2F0" style="stroke:#181818;stroke-width:1.5;"/><path d="M895.3785,2182.1126 C895.3785,2192.1126 913.3785,2192.1126 913.3785,2192.1126 C913.3785,2192.1126 931.3785,2192.1126 931.3785,2182.1126 " fill="none" style="stroke:#181818;stroke-width:1.5;"/><rect fill="#E2E2F0" height="52.1358" rx="2.5" ry="2.5" style="stroke:#181818;stroke-width:0.5;" width="170.6454" x="1142.19" y="76.0679"/><text fill="#000000" font-family="sans-serif" font-size="14" lengthAdjust="spacing" textLength="70.4477" x="1192.2889" y="98.0339">Repository</text><text fill="#000000" font-family="sans-serif" font-size="14" lengthAdjust="spacing" textLength="156.6454" x="1149.19" y="117.1018">StaffMemberRepository</text><rect fill="#E2E2F0" height="52.1358" rx="2.5" ry="2.5" style="stroke:#181818;stroke-width:0.5;" width="170.6454" x="1142.19" y="2133.9768"/><text fill="#000000" font-family="sans-serif" font-size="14" lengthAdjust="spacing" textLength="70.4477" x="1192.2889" y="2155.9427">Repository</text><text fill="#000000" font-family="sans-serif" font-size="14" lengthAdjust="spacing" textLength="156.6454" x="1149.19" y="2175.0106">StaffMemberRepository</text><rect fill="#E2E2F0" height="52.1358" style="stroke:#181818;stroke-width:0.5;" width="100.1977" x="1326.8354" y="72.0679"/><rect fill="#E2E2F0" height="52.1358" style="stroke:#181818;stroke-width:0.5;" width="100.1977" x="1322.8354" y="76.0679"/><text fill="#000000" font-family="sans-serif" font-size="14" lengthAdjust="spacing" textLength="51.8978" x="1346.9854" y="98.0339">Domain</text><text fill="#000000" font-family="sans-serif" font-size="14" lengthAdjust="spacing" textLength="86.1977" x="1329.8354" y="117.1018">StaffMember</text><rect fill="#E2E2F0" height="52.1358" style="stroke:#181818;stroke-width:0.5;" width="100.1977" x="1326.8354" y="2133.9768"/><rect fill="#E2E2F0" height="52.1358" style="stroke:#181818;stroke-width:0.5;" width="100.1977" x="1322.8354" y="2137.9768"/><text fill="#000000" font-family="sans-serif" font-size="14" lengthAdjust="spacing" textLength="51.8978" x="1346.9854" y="2159.9427">Domain</text><text fill="#000000" font-family="sans-serif" font-size="14" lengthAdjust="spacing" textLength="86.1977" x="1329.8354" y="2179.0106">StaffMember</text><rect fill="#E2E2F0" height="52.1358" style="stroke:#181818;stroke-width:0.5;" width="183.6514" x="1441.0331" y="72.0679"/><rect fill="#E2E2F0" height="52.1358" style="stroke:#181818;stroke-width:0.5;" width="183.6514" x="1437.0331" y="76.0679"/><text fill="#000000" font-family="sans-serif" font-size="14" lengthAdjust="spacing" textLength="51.8978" x="1502.9099" y="98.0339">Domain</text><text fill="#000000" font-family="sans-serif" font-size="14" lengthAdjust="spacing" textLength="169.6514" x="1444.0331" y="117.1018">StaffMemberQualification</text><rect fill="#E2E2F0" height="52.1358" style="stroke:#181818;stroke-width:0.5;" width="183.6514" x="1441.0331" y="2133.9768"/><rect fill="#E2E2F0" height="52.1358" style="stroke:#181818;stroke-width:0.5;" width="183.6514" x="1437.0331" y="2137.9768"/><text fill="#000000" font-family="sans-serif" font-size="14" lengthAdjust="spacing" textLength="51.8978" x="1502.9099" y="2159.9427">Domain</text><text fill="#000000" font-family="sans-serif" font-size="14" lengthAdjust="spacing" textLength="169.6514" x="1444.0331" y="2179.0106">StaffMemberQualification</text><rect fill="#EEEEEE" height="3" style="stroke:#EEEEEE;stroke-width:1;" width="1629.6845" x="0" y="161.0568"/><line style="stroke:#000000;stroke-width:1;" x1="0" x2="1629.6845" y1="161.0568" y2="161.0568"/><line style="stroke:#000000;stroke-width:1;" x1="0" x2="1629.6845" y1="164.0568" y2="164.0568"/><rect fill="#EEEEEE" height="25.706" style="stroke:#000000;stroke-width:2;" width="152.3851" x="738.6497" y="149.2038"/><text fill="#000000" font-family="sans-serif" font-size="13" font-weight="bold" lengthAdjust="spacing" textLength="135.0051" x="744.6497" y="167.1008">Create Staff Member</text><polygon fill="#181818" points="348.016,204.6158,358.016,208.6158,348.016,212.6158,352.016,208.6158" style="stroke:#181818;stroke-width:1;"/><line style="stroke:#181818;stroke-width:1;" x1="68.4238" x2="354.016" y1="208.6158" y2="208.6158"/><text fill="#000000" font-family="sans-serif" font-size="13" lengthAdjust="spacing" textLength="244.7382" x="75.4238" y="202.8068">POST /api/staff (CreateStaffMemberDto)</text><polygon fill="#181818" points="651.2042,236.3218,661.2042,240.3218,651.2042,244.3218,655.2042,240.3218" style="stroke:#181818;stroke-width:1;"/><line style="stroke:#181818;stroke-width:1;" x1="360.016" x2="657.2042" y1="240.3218" y2="240.3218"/><text fill="#000000" font-family="sans-serif" font-size="13" lengthAdjust="spacing" textLength="184.0672" x="367.016" y="234.5128">CreateStaffMemberAsync(dto)</text><polygon fill="#181818" points="1215.5127,268.0278,1225.5127,272.0278,1215.5127,276.0278,1219.5127,272.0278" style="stroke:#181818;stroke-width:1;"/><line style="stroke:#181818;stroke-width:1;" x1="663.2042" x2="1221.5127" y1="272.0278" y2="272.0278"/><text fill="#000000" font-family="sans-serif" font-size="13" lengthAdjust="spacing" textLength="223.8082" x="670.2042" y="266.2188">ExistsAsync(mecanographicNumber)</text><polygon fill="#181818" points="924.3785,299.7338,914.3785,303.7338,924.3785,307.7338,920.3785,303.7338" style="stroke:#181818;stroke-width:1;"/><line style="stroke:#181818;stroke-width:1;" x1="918.3785" x2="1226.5127" y1="303.7338" y2="303.7338"/><text fill="#000000" font-family="sans-serif" font-size="13" lengthAdjust="spacing" textLength="127.1661" x="930.3785" y="297.9248">Query StaffMembers</text><polygon fill="#181818" points="1215.5127,331.4398,1225.5127,335.4398,1215.5127,339.4398,1219.5127,335.4398" style="stroke:#181818;stroke-width:1;"/><line style="stroke:#181818;stroke-width:1;stroke-dasharray:2.0,2.0;" x1="913.3785" x2="1221.5127" y1="335.4398" y2="335.4398"/><text fill="#000000" font-family="sans-serif" font-size="13" lengthAdjust="spacing" textLength="98.5401" x="920.3785" y="329.6308">false (not exists)</text><polygon fill="#181818" points="674.2042,363.1459,664.2042,367.1459,674.2042,371.1459,670.2042,367.1459" style="stroke:#181818;stroke-width:1;"/><line style="stroke:#181818;stroke-width:1;stroke-dasharray:2.0,2.0;" x1="668.2042" x2="1226.5127" y1="367.1459" y2="367.1459"/><text fill="#000000" font-family="sans-serif" font-size="13" lengthAdjust="spacing" textLength="28.678" x="680.2042" y="361.3369">false</text><polygon fill="#181818" points="1362.9343,447.9699,1372.9343,451.9699,1362.9343,455.9699,1366.9343,451.9699" style="stroke:#181818;stroke-width:1;"/><line style="stroke:#181818;stroke-width:1;" x1="663.2042" x2="1368.9343" y1="451.9699" y2="451.9699"/><text fill="#000000" font-family="sans-serif" font-size="13" lengthAdjust="spacing" textLength="112.9051" x="670.2042" y="393.0429">new StaffMember(</text><text fill="#000000" font-family="sans-serif" font-size="13" lengthAdjust="spacing" textLength="225.1602" x="673.5842" y="410.7489">mecanographicNumber, shortName,</text><text fill="#000000" font-family="sans-serif" font-size="13" lengthAdjust="spacing" textLength="127.1271" x="673.5842" y="428.4549">email, phone, status,</text><text fill="#000000" font-family="sans-serif" font-size="13" lengthAdjust="spacing" textLength="124.2021" x="673.5842" y="446.1609">startHour, endHour)</text><polygon fill="#181818" points="674.2042,479.6759,664.2042,483.6759,674.2042,487.6759,670.2042,483.6759" style="stroke:#181818;stroke-width:1;"/><line style="stroke:#181818;stroke-width:1;stroke-dasharray:2.0,2.0;" x1="668.2042" x2="1373.9343" y1="483.6759" y2="483.6759"/><text fill="#000000" font-family="sans-serif" font-size="13" lengthAdjust="spacing" textLength="79.1311" x="680.2042" y="477.8669">staffMember</text><polygon fill="#181818" points="901.3785,511.382,911.3785,515.382,901.3785,519.382,905.3785,515.382" style="stroke:#181818;stroke-width:1;"/><line style="stroke:#181818;stroke-width:1;" x1="663.2042" x2="907.3785" y1="515.382" y2="515.382"/><text fill="#000000" font-family="sans-serif" font-size="13" lengthAdjust="spacing" textLength="127.3871" x="670.2042" y="509.573">INSERT StaffMember</text><polygon fill="#181818" points="674.2042,543.088,664.2042,547.088,674.2042,551.088,670.2042,547.088" style="stroke:#181818;stroke-width:1;"/><line style="stroke:#181818;stroke-width:1;stroke-dasharray:2.0,2.0;" x1="668.2042" x2="912.3785" y1="547.088" y2="547.088"/><text fill="#000000" font-family="sans-serif" font-size="13" lengthAdjust="spacing" textLength="35.451" x="680.2042" y="541.279">saved</text><polygon fill="#181818" points="371.016,574.794,361.016,578.794,371.016,582.794,367.016,578.794" style="stroke:#181818;stroke-width:1;"/><line style="stroke:#181818;stroke-width:1;stroke-dasharray:2.0,2.0;" x1="365.016" x2="662.2042" y1="578.794" y2="578.794"/><text fill="#000000" font-family="sans-serif" font-size="13" lengthAdjust="spacing" textLength="161.1871" x="377.016" y="572.985">StaffMemberResponseDto</text><polygon fill="#181818" points="79.4238,606.5,69.4238,610.5,79.4238,614.5,75.4238,610.5" style="stroke:#181818;stroke-width:1;"/><line style="stroke:#181818;stroke-width:1;stroke-dasharray:2.0,2.0;" x1="73.4238" x2="359.016" y1="610.5" y2="610.5"/><text fill="#000000" font-family="sans-serif" font-size="13" lengthAdjust="spacing" textLength="73.918" x="85.4238" y="604.691">201 Created</text><rect fill="#EEEEEE" height="3" style="stroke:#EEEEEE;stroke-width:1;" width="1629.6845" x="0" y="640.353"/><line style="stroke:#000000;stroke-width:1;" x1="0" x2="1629.6845" y1="640.353" y2="640.353"/><line style="stroke:#000000;stroke-width:1;" x1="0" x2="1629.6845" y1="643.353" y2="643.353"/><rect fill="#EEEEEE" height="25.706" style="stroke:#000000;stroke-width:2;" width="129.9861" x="749.8492" y="628.5"/><text fill="#000000" font-family="sans-serif" font-size="13" font-weight="bold" lengthAdjust="spacing" textLength="112.6061" x="755.8492" y="646.397">Add Qualification</text><polygon fill="#181818" points="348.016,701.6181,358.016,705.6181,348.016,709.6181,352.016,705.6181" style="stroke:#181818;stroke-width:1;"/><line style="stroke:#181818;stroke-width:1;" x1="68.4238" x2="354.016" y1="705.6181" y2="705.6181"/><text fill="#000000" font-family="sans-serif" font-size="13" lengthAdjust="spacing" textLength="203.6972" x="75.4238" y="682.103">POST /api/staff/{id}/qualifications</text><text fill="#000000" font-family="sans-serif" font-size="13" lengthAdjust="spacing" textLength="95.5371" x="75.4238" y="699.8091">(qualificationId)</text><polygon fill="#181818" points="651.2042,733.3241,661.2042,737.3241,651.2042,741.3241,655.2042,737.3241" style="stroke:#181818;stroke-width:1;"/><line style="stroke:#181818;stroke-width:1;" x1="360.016" x2="657.2042" y1="737.3241" y2="737.3241"/><text fill="#000000" font-family="sans-serif" font-size="13" lengthAdjust="spacing" textLength="279.1882" x="367.016" y="731.5151">AddQualificationAsync(staffId, qualificationId)</text><polygon fill="#181818" points="901.3785,765.0301,911.3785,769.0301,901.3785,773.0301,905.3785,769.0301" style="stroke:#181818;stroke-width:1;"/><line style="stroke:#181818;stroke-width:1;" x1="663.2042" x2="907.3785" y1="769.0301" y2="769.0301"/><text fill="#000000" font-family="sans-serif" font-size="13" lengthAdjust="spacing" textLength="211.3022" x="670.2042" y="763.2211">Load StaffMember + Qualifications</text><polygon fill="#181818" points="1518.8588,796.7361,1528.8588,800.7361,1518.8588,804.7361,1522.8588,800.7361" style="stroke:#181818;stroke-width:1;"/><line style="stroke:#181818;stroke-width:1;" x1="663.2042" x2="1524.8588" y1="800.7361" y2="800.7361"/><text fill="#000000" font-family="sans-serif" font-size="13" lengthAdjust="spacing" textLength="204.7502" x="670.2042" y="794.9271">new StaffMemberQualification(...)</text><polygon fill="#181818" points="674.2042,828.4421,664.2042,832.4421,674.2042,836.4421,670.2042,832.4421" style="stroke:#181818;stroke-width:1;"/><line style="stroke:#181818;stroke-width:1;stroke-dasharray:2.0,2.0;" x1="668.2042" x2="1529.8588" y1="832.4421" y2="832.4421"/><text fill="#000000" font-family="sans-serif" font-size="13" lengthAdjust="spacing" textLength="75.3351" x="680.2042" y="826.6331">qualification</text><polygon fill="#181818" points="1362.9343,860.1481,1372.9343,864.1481,1362.9343,868.1481,1366.9343,864.1481" style="stroke:#181818;stroke-width:1;"/><line style="stroke:#181818;stroke-width:1;" x1="663.2042" x2="1368.9343" y1="864.1481" y2="864.1481"/><text fill="#000000" font-family="sans-serif" font-size="13" lengthAdjust="spacing" textLength="184.9252" x="670.2042" y="858.3391">AddQualification(qualification)</text><polygon fill="#181818" points="674.2042,891.8542,664.2042,895.8542,674.2042,899.8542,670.2042,895.8542" style="stroke:#181818;stroke-width:1;"/><line style="stroke:#181818;stroke-width:1;stroke-dasharray:2.0,2.0;" x1="668.2042" x2="1373.9343" y1="895.8542" y2="895.8542"/><text fill="#000000" font-family="sans-serif" font-size="13" lengthAdjust="spacing" textLength="38.61" x="680.2042" y="890.0452">added</text><polygon fill="#181818" points="901.3785,923.5602,911.3785,927.5602,901.3785,931.5602,905.3785,927.5602" style="stroke:#181818;stroke-width:1;"/><line style="stroke:#181818;stroke-width:1;" x1="663.2042" x2="907.3785" y1="927.5602" y2="927.5602"/><text fill="#000000" font-family="sans-serif" font-size="13" lengthAdjust="spacing" textLength="225.7842" x="670.2042" y="921.7512">UPDATE StaffMember (qualifications)</text><polygon fill="#181818" points="674.2042,955.2662,664.2042,959.2662,674.2042,963.2662,670.2042,959.2662" style="stroke:#181818;stroke-width:1;"/><line style="stroke:#181818;stroke-width:1;stroke-dasharray:2.0,2.0;" x1="668.2042" x2="912.3785" y1="959.2662" y2="959.2662"/><text fill="#000000" font-family="sans-serif" font-size="13" lengthAdjust="spacing" textLength="35.451" x="680.2042" y="953.4572">saved</text><polygon fill="#181818" points="371.016,986.9722,361.016,990.9722,371.016,994.9722,367.016,990.9722" style="stroke:#181818;stroke-width:1;"/><line style="stroke:#181818;stroke-width:1;stroke-dasharray:2.0,2.0;" x1="365.016" x2="662.2042" y1="990.9722" y2="990.9722"/><text fill="#000000" font-family="sans-serif" font-size="13" lengthAdjust="spacing" textLength="18.2" x="377.016" y="985.1632">OK</text><polygon fill="#181818" points="79.4238,1018.6782,69.4238,1022.6782,79.4238,1026.6782,75.4238,1022.6782" style="stroke:#181818;stroke-width:1;"/><line style="stroke:#181818;stroke-width:1;stroke-dasharray:2.0,2.0;" x1="73.4238" x2="359.016" y1="1022.6782" y2="1022.6782"/><text fill="#000000" font-family="sans-serif" font-size="13" lengthAdjust="spacing" textLength="43.888" x="85.4238" y="1016.8692">200 OK</text><rect fill="#EEEEEE" height="3" style="stroke:#EEEEEE;stroke-width:1;" width="1629.6845" x="0" y="1052.5312"/><line style="stroke:#000000;stroke-width:1;" x1="0" x2="1629.6845" y1="1052.5312" y2="1052.5312"/><line style="stroke:#000000;stroke-width:1;" x1="0" x2="1629.6845" y1="1055.5312" y2="1055.5312"/><rect fill="#EEEEEE" height="25.706" style="stroke:#000000;stroke-width:2;" width="156.7271" x="736.4787" y="1040.6782"/><text fill="#000000" font-family="sans-serif" font-size="13" font-weight="bold" lengthAdjust="spacing" textLength="139.3471" x="742.4787" y="1058.5752">Update Staff Member</text><polygon fill="#181818" points="348.016,1096.0903,358.016,1100.0903,348.016,1104.0903,352.016,1100.0903" style="stroke:#181818;stroke-width:1;"/><line style="stroke:#181818;stroke-width:1;" x1="68.4238" x2="354.016" y1="1100.0903" y2="1100.0903"/><text fill="#000000" font-family="sans-serif" font-size="13" lengthAdjust="spacing" textLength="267.5922" x="75.4238" y="1094.2813">PUT /api/staff/{id} (UpdateStaffMemberDto)</text><polygon fill="#181818" points="651.2042,1127.7963,661.2042,1131.7963,651.2042,1135.7963,655.2042,1131.7963" style="stroke:#181818;stroke-width:1;"/><line style="stroke:#181818;stroke-width:1;" x1="360.016" x2="657.2042" y1="1131.7963" y2="1131.7963"/><text fill="#000000" font-family="sans-serif" font-size="13" lengthAdjust="spacing" textLength="235.0662" x="367.016" y="1125.9873">UpdateStaffMemberAsync(staffId, dto)</text><polygon fill="#181818" points="901.3785,1159.5023,911.3785,1163.5023,901.3785,1167.5023,905.3785,1163.5023" style="stroke:#181818;stroke-width:1;"/><line style="stroke:#181818;stroke-width:1;" x1="663.2042" x2="907.3785" y1="1163.5023" y2="1163.5023"/><text fill="#000000" font-family="sans-serif" font-size="13" lengthAdjust="spacing" textLength="113.3861" x="670.2042" y="1157.6933">Load StaffMember</text><path d="M579.7535,1178.5023 L642.0565,1178.5023 L642.0565,1188.2083 L632.0565,1198.2083 L579.7535,1198.2083 L579.7535,1178.5023 " fill="#EEEEEE" style="stroke:#000000;stroke-width:1.5;"/><rect fill="none" height="51.412" style="stroke:#000000;stroke-width:1.5;" width="857.2796" x="579.7535" y="1178.5023"/><text fill="#000000" font-family="sans-serif" font-size="13" font-weight="bold" lengthAdjust="spacing" textLength="17.303" x="594.7535" y="1193.3993">alt</text><text fill="#000000" font-family="sans-serif" font-size="11" font-weight="bold" lengthAdjust="spacing" textLength="116.2362" x="657.0565" y="1192.2612">[Update contact info]</text><polygon fill="#181818" points="1362.9343,1217.9143,1372.9343,1221.9143,1362.9343,1225.9143,1366.9343,1221.9143" style="stroke:#181818;stroke-width:1;"/><line style="stroke:#181818;stroke-width:1;" x1="663.2042" x2="1368.9343" y1="1221.9143" y2="1221.9143"/><text fill="#000000" font-family="sans-serif" font-size="13" lengthAdjust="spacing" textLength="204.0352" x="670.2042" y="1216.1053">UpdateContactInfo(email, phone)</text><path d="M579.7535,1243.9143 L642.0565,1243.9143 L642.0565,1253.6203 L632.0565,1263.6203 L579.7535,1263.6203 L579.7535,1243.9143 " fill="#EEEEEE" style="stroke:#000000;stroke-width:1.5;"/><rect fill="none" height="51.412" style="stroke:#000000;stroke-width:1.5;" width="857.2796" x="579.7535" y="1243.9143"/><text fill="#000000" font-family="sans-serif" font-size="13" font-weight="bold" lengthAdjust="spacing" textLength="17.303" x="594.7535" y="1258.8113">alt</text><text fill="#000000" font-family="sans-serif" font-size="11" font-weight="bold" lengthAdjust="spacing" textLength="84.6224" x="657.0565" y="1257.6732">[Update status]</text><polygon fill="#181818" points="1362.9343,1283.3264,1372.9343,1287.3264,1362.9343,1291.3264,1366.9343,1287.3264" style="stroke:#181818;stroke-width:1;"/><line style="stroke:#181818;stroke-width:1;" x1="663.2042" x2="1368.9343" y1="1287.3264" y2="1287.3264"/><text fill="#000000" font-family="sans-serif" font-size="13" lengthAdjust="spacing" textLength="200.5902" x="670.2042" y="1281.5174">UpdateOperationalStatus(status)</text><path d="M579.7535,1309.3264 L642.0565,1309.3264 L642.0565,1319.0324 L632.0565,1329.0324 L579.7535,1329.0324 L579.7535,1309.3264 " fill="#EEEEEE" style="stroke:#000000;stroke-width:1.5;"/><rect fill="none" height="51.412" style="stroke:#000000;stroke-width:1.5;" width="857.2796" x="579.7535" y="1309.3264"/><text fill="#000000" font-family="sans-serif" font-size="13" font-weight="bold" lengthAdjust="spacing" textLength="17.303" x="594.7535" y="1324.2234">alt</text><text fill="#000000" font-family="sans-serif" font-size="11" font-weight="bold" lengthAdjust="spacing" textLength="130.1841" x="657.0565" y="1323.0853">[Update working hours]</text><polygon fill="#181818" points="1362.9343,1348.7384,1372.9343,1352.7384,1362.9343,1356.7384,1366.9343,1352.7384" style="stroke:#181818;stroke-width:1;"/><line style="stroke:#181818;stroke-width:1;" x1="663.2042" x2="1368.9343" y1="1352.7384" y2="1352.7384"/><text fill="#000000" font-family="sans-serif" font-size="13" lengthAdjust="spacing" textLength="261.6902" x="670.2042" y="1346.9294">UpdateWorkingHours(startHour, endHour)</text><polygon fill="#181818" points="901.3785,1387.4444,911.3785,1391.4444,901.3785,1395.4444,905.3785,1391.4444" style="stroke:#181818;stroke-width:1;"/><line style="stroke:#181818;stroke-width:1;" x1="663.2042" x2="907.3785" y1="1391.4444" y2="1391.4444"/><text fill="#000000" font-family="sans-serif" font-size="13" lengthAdjust="spacing" textLength="133.0421" x="670.2042" y="1385.6354">UPDATE StaffMember</text><polygon fill="#181818" points="674.2042,1419.1504,664.2042,1423.1504,674.2042,1427.1504,670.2042,1423.1504" style="stroke:#181818;stroke-width:1;"/><line style="stroke:#181818;stroke-width:1;stroke-dasharray:2.0,2.0;" x1="668.2042" x2="912.3785" y1="1423.1504" y2="1423.1504"/><text fill="#000000" font-family="sans-serif" font-size="13" lengthAdjust="spacing" textLength="35.451" x="680.2042" y="1417.3414">saved</text><polygon fill="#181818" points="371.016,1450.8564,361.016,1454.8564,371.016,1458.8564,367.016,1454.8564" style="stroke:#181818;stroke-width:1;"/><line style="stroke:#181818;stroke-width:1;stroke-dasharray:2.0,2.0;" x1="365.016" x2="662.2042" y1="1454.8564" y2="1454.8564"/><text fill="#000000" font-family="sans-serif" font-size="13" lengthAdjust="spacing" textLength="161.1871" x="377.016" y="1449.0474">StaffMemberResponseDto</text><polygon fill="#181818" points="79.4238,1482.5625,69.4238,1486.5625,79.4238,1490.5625,75.4238,1486.5625" style="stroke:#181818;stroke-width:1;"/><line style="stroke:#181818;stroke-width:1;stroke-dasharray:2.0,2.0;" x1="73.4238" x2="359.016" y1="1486.5625" y2="1486.5625"/><text fill="#000000" font-family="sans-serif" font-size="13" lengthAdjust="spacing" textLength="43.888" x="85.4238" y="1480.7535">200 OK</text><rect fill="#EEEEEE" height="3" style="stroke:#EEEEEE;stroke-width:1;" width="1629.6845" x="0" y="1516.4155"/><line style="stroke:#000000;stroke-width:1;" x1="0" x2="1629.6845" y1="1516.4155" y2="1516.4155"/><line style="stroke:#000000;stroke-width:1;" x1="0" x2="1629.6845" y1="1519.4155" y2="1519.4155"/><rect fill="#EEEEEE" height="25.706" style="stroke:#000000;stroke-width:2;" width="179.1911" x="725.2467" y="1504.5625"/><text fill="#000000" font-family="sans-serif" font-size="13" font-weight="bold" lengthAdjust="spacing" textLength="161.8111" x="731.2467" y="1522.4595">Deactivate Staff Member</text><polygon fill="#181818" points="348.016,1559.9745,358.016,1563.9745,348.016,1567.9745,352.016,1563.9745" style="stroke:#181818;stroke-width:1;"/><line style="stroke:#181818;stroke-width:1;" x1="68.4238" x2="354.016" y1="1563.9745" y2="1563.9745"/><text fill="#000000" font-family="sans-serif" font-size="13" lengthAdjust="spacing" textLength="130.1301" x="75.4238" y="1558.1655">DELETE /api/staff/{id}</text><polygon fill="#181818" points="651.2042,1591.6805,661.2042,1595.6805,651.2042,1599.6805,655.2042,1595.6805" style="stroke:#181818;stroke-width:1;"/><line style="stroke:#181818;stroke-width:1;" x1="360.016" x2="657.2042" y1="1595.6805" y2="1595.6805"/><text fill="#000000" font-family="sans-serif" font-size="13" lengthAdjust="spacing" textLength="227.1622" x="367.016" y="1589.8715">DeactivateStaffMemberAsync(staffId)</text><polygon fill="#181818" points="901.3785,1623.3865,911.3785,1627.3865,901.3785,1631.3865,905.3785,1627.3865" style="stroke:#181818;stroke-width:1;"/><line style="stroke:#181818;stroke-width:1;" x1="663.2042" x2="907.3785" y1="1627.3865" y2="1627.3865"/><text fill="#000000" font-family="sans-serif" font-size="13" lengthAdjust="spacing" textLength="113.3861" x="670.2042" y="1621.5775">Load StaffMember</text><polygon fill="#181818" points="1362.9343,1655.0925,1372.9343,1659.0925,1362.9343,1663.0925,1366.9343,1659.0925" style="stroke:#181818;stroke-width:1;"/><line style="stroke:#181818;stroke-width:1;" x1="663.2042" x2="1368.9343" y1="1659.0925" y2="1659.0925"/><text fill="#000000" font-family="sans-serif" font-size="13" lengthAdjust="spacing" textLength="184.6912" x="670.2042" y="1653.2835">UpdateActiveStatus(INACTIVE)</text><polygon fill="#181818" points="674.2042,1686.7986,664.2042,1690.7986,674.2042,1694.7986,670.2042,1690.7986" style="stroke:#181818;stroke-width:1;"/><line style="stroke:#181818;stroke-width:1;stroke-dasharray:2.0,2.0;" x1="668.2042" x2="1373.9343" y1="1690.7986" y2="1690.7986"/><text fill="#000000" font-family="sans-serif" font-size="13" lengthAdjust="spacing" textLength="51.3371" x="680.2042" y="1684.9896">updated</text><polygon fill="#181818" points="901.3785,1718.5046,911.3785,1722.5046,901.3785,1726.5046,905.3785,1722.5046" style="stroke:#181818;stroke-width:1;"/><line style="stroke:#181818;stroke-width:1;" x1="663.2042" x2="907.3785" y1="1722.5046" y2="1722.5046"/><text fill="#000000" font-family="sans-serif" font-size="13" lengthAdjust="spacing" textLength="226.1742" x="670.2042" y="1716.6956">UPDATE StaffMember (ActivityStatus)</text><polygon fill="#181818" points="674.2042,1750.2106,664.2042,1754.2106,674.2042,1758.2106,670.2042,1754.2106" style="stroke:#181818;stroke-width:1;"/><line style="stroke:#181818;stroke-width:1;stroke-dasharray:2.0,2.0;" x1="668.2042" x2="912.3785" y1="1754.2106" y2="1754.2106"/><text fill="#000000" font-family="sans-serif" font-size="13" lengthAdjust="spacing" textLength="35.451" x="680.2042" y="1748.4016">saved</text><polygon fill="#181818" points="371.016,1781.9166,361.016,1785.9166,371.016,1789.9166,367.016,1785.9166" style="stroke:#181818;stroke-width:1;"/><line style="stroke:#181818;stroke-width:1;stroke-dasharray:2.0,2.0;" x1="365.016" x2="662.2042" y1="1785.9166" y2="1785.9166"/><text fill="#000000" font-family="sans-serif" font-size="13" lengthAdjust="spacing" textLength="18.2" x="377.016" y="1780.1076">OK</text><polygon fill="#181818" points="79.4238,1813.6226,69.4238,1817.6226,79.4238,1821.6226,75.4238,1817.6226" style="stroke:#181818;stroke-width:1;"/><line style="stroke:#181818;stroke-width:1;stroke-dasharray:2.0,2.0;" x1="73.4238" x2="359.016" y1="1817.6226" y2="1817.6226"/><text fill="#000000" font-family="sans-serif" font-size="13" lengthAdjust="spacing" textLength="95.6801" x="85.4238" y="1811.8136">204 No Content</text><rect fill="#EEEEEE" height="3" style="stroke:#EEEEEE;stroke-width:1;" width="1629.6845" x="0" y="1847.4756"/><line style="stroke:#000000;stroke-width:1;" x1="0" x2="1629.6845" y1="1847.4756" y2="1847.4756"/><line style="stroke:#000000;stroke-width:1;" x1="0" x2="1629.6845" y1="1850.4756" y2="1850.4756"/><rect fill="#EEEEEE" height="25.706" style="stroke:#000000;stroke-width:2;" width="159.4831" x="735.1007" y="1835.6226"/><text fill="#000000" font-family="sans-serif" font-size="13" font-weight="bold" lengthAdjust="spacing" textLength="142.1031" x="741.1007" y="1853.5196">Search Staff Members</text><polygon fill="#181818" points="348.016,1891.0347,358.016,1895.0347,348.016,1899.0347,352.016,1895.0347" style="stroke:#181818;stroke-width:1;"/><line style="stroke:#181818;stroke-width:1;" x1="68.4238" x2="354.016" y1="1895.0347" y2="1895.0347"/><text fill="#000000" font-family="sans-serif" font-size="13" lengthAdjust="spacing" textLength="258.8302" x="75.4238" y="1889.2257">GET /api/staff?name=X&amp;status=AVAILABLE</text><polygon fill="#181818" points="651.2042,1922.7407,661.2042,1926.7407,651.2042,1930.7407,655.2042,1926.7407" style="stroke:#181818;stroke-width:1;"/><line style="stroke:#181818;stroke-width:1;" x1="360.016" x2="657.2042" y1="1926.7407" y2="1926.7407"/><text fill="#000000" font-family="sans-serif" font-size="13" lengthAdjust="spacing" textLength="205.7122" x="367.016" y="1920.9317">SearchStaffMembersAsync(filters)</text><polygon fill="#181818" points="1215.5127,1954.4467,1225.5127,1958.4467,1215.5127,1962.4467,1219.5127,1958.4467" style="stroke:#181818;stroke-width:1;"/><line style="stroke:#181818;stroke-width:1;" x1="663.2042" x2="1221.5127" y1="1958.4467" y2="1958.4467"/><text fill="#000000" font-family="sans-serif" font-size="13" lengthAdjust="spacing" textLength="184.3142" x="670.2042" y="1952.6377">GetByStatusAsync(AVAILABLE)</text><polygon fill="#181818" points="924.3785,1986.1527,914.3785,1990.1527,924.3785,1994.1527,920.3785,1990.1527" style="stroke:#181818;stroke-width:1;"/><line style="stroke:#181818;stroke-width:1;" x1="918.3785" x2="1226.5127" y1="1990.1527" y2="1990.1527"/><text fill="#000000" font-family="sans-serif" font-size="13" lengthAdjust="spacing" textLength="290.1343" x="930.3785" y="1984.3437">Query StaffMembers WHERE Status=AVAILABLE</text><polygon fill="#181818" points="1215.5127,2017.8587,1225.5127,2021.8587,1215.5127,2025.8587,1219.5127,2021.8587" style="stroke:#181818;stroke-width:1;"/><line style="stroke:#181818;stroke-width:1;stroke-dasharray:2.0,2.0;" x1="913.3785" x2="1221.5127" y1="2021.8587" y2="2021.8587"/><text fill="#000000" font-family="sans-serif" font-size="13" lengthAdjust="spacing" textLength="115.9991" x="920.3785" y="2016.0497">List&lt;StaffMember&gt;</text><polygon fill="#181818" points="674.2042,2049.5647,664.2042,2053.5647,674.2042,2057.5647,670.2042,2053.5647" style="stroke:#181818;stroke-width:1;"/><line style="stroke:#181818;stroke-width:1;stroke-dasharray:2.0,2.0;" x1="668.2042" x2="1226.5127" y1="2053.5647" y2="2053.5647"/><text fill="#000000" font-family="sans-serif" font-size="13" lengthAdjust="spacing" textLength="115.9991" x="680.2042" y="2047.7557">List&lt;StaffMember&gt;</text><polygon fill="#181818" points="371.016,2081.2708,361.016,2085.2708,371.016,2089.2708,367.016,2085.2708" style="stroke:#181818;stroke-width:1;"/><line style="stroke:#181818;stroke-width:1;stroke-dasharray:2.0,2.0;" x1="365.016" x2="662.2042" y1="2085.2708" y2="2085.2708"/><text fill="#000000" font-family="sans-serif" font-size="13" lengthAdjust="spacing" textLength="197.1452" x="377.016" y="2079.4618">List&lt;StaffMemberResponseDto&gt;</text><polygon fill="#181818" points="79.4238,2112.9768,69.4238,2116.9768,79.4238,2120.9768,75.4238,2116.9768" style="stroke:#181818;stroke-width:1;"/><line style="stroke:#181818;stroke-width:1;stroke-dasharray:2.0,2.0;" x1="73.4238" x2="359.016" y1="2116.9768" y2="2116.9768"/><text fill="#000000" font-family="sans-serif" font-size="13" lengthAdjust="spacing" textLength="72.6961" x="85.4238" y="2111.1678">200 OK (list)</text><!--SRC=[hLPDSzem4BtxL-nmw9Wf8H_JKwQaus0tOKe8uIFf8HTX2z3KI8ujI9XE_tjNaW7BXf3fz6PBxptjxjkrB9cCAGpfovBoa8BFo2mb2pY1yH0kcXVDytCOq1dB94s1y0Zk22Sp94WodS8TNKnecZaE2QL8eTOL2id23EuJcX9Sgm7PlJW9IN6N9OHBg7dzpZFNEhbCMt2PYZYcXjMMSOcG91Xekc8XjOZvcYODLw4J4Kac9ADG2xv3MwI8xejK-XDr07sJ6kXFRF41JKJ6CCYrfRrRrYprweGgnb0omJEe-M916BSu9X3rVXJwi2GncxAGA8ZcgHN7QRMWdL8YxK93g-LiQWadLwf2S0dz- -48Jad2JZEDTGspS8elHTrHOEHWWP1JWNZPceTkf80AWK2LAYA3DtGqCziB6X8ki3-IEGjxIyMhEng7U7-2w8SbJTTGDDN1zPETt9J4Q8pBXGIgbJS2sz0qOXE4oVuIE7qjghhF7FO4qu1iZaRto88s446nt743ahdW5BSaaSjChUDJAc_54l6KH-e1azO7xQB8TeTjOj49Tdh3O30gnh99CEUH5OqCOskGrKvPWhr0qH5Z28AsZbx2nTbvRasaUy2B8h1Qv4CTSFgRHNzENugyx9cxra8dAdK47cMTP1pNUfse0HLoiIXTGQ9Ybl3PZZhReDLgrKqBwpQRpRgZWRkgMgUNUwCSkPrerLeIHHkBylZ7VTyR1LO6jWXswL6Nxt_iT_HCxIWpnqdqmO4ULzm4rx3V7UeAfEHXSRht-kQGM6x23F5RYLzrO7mg781IpGseRJ0TXBZ5OQixE5T5CJDxXsHC1R3C91vge6lm5PbNaVvYV0Pp7Dc3Qay6fCPQ2rL6NOc-x_x_7Ubj0_WKYyLM7si2F-W665Mf3sp3TuA7J3_Yzzu2UagJvavqUbvxr7aCgcEqrE3ZWwJbc5mFSq__UP2-G4-0liAvrFKSKfA6S_jNP7ynRuBYH7tZU46qVduoNTRo7hrErxlk1dPnZNhnAZELdR8O_uMoyZrvG-LrdgF1RMMFNf7mT1iCTDNiSEoRiuktvTS2xQfySLO1TbtB-uN6lJhSkU36oAixVm40]--></g></svg>