<svg xmlns="http://www.w3.org/2000/svg" xmlns:xlink="http://www.w3.org/1999/xlink" contentStyleType="text/css" height="1037px" preserveAspectRatio="none" style="width:959px;height:1037px;background:#FFFFFF;" version="1.1" viewBox="0 0 959 1037" width="959px" zoomAndPan="magnify"><title>C4 Container - US 2.2.11 Register and Manage Staff Members</title><defs/><g><text fill="#000000" font-family="sans-serif" font-size="14" font-weight="bold" lengthAdjust="spacing" textLength="421.2584" x="261.8708" y="24.9659">C4 Container - US 2.2.11 Register and Manage Staff Members</text><!--cluster Client Layer--><g id="cluster_Client Layer"><polygon fill="none" points="252,199.6379,262,189.6379,414,189.6379,414,287.7079,404,297.7079,252,297.7079,252,199.6379" style="stroke:#181818;stroke-width:1;"/><line style="stroke:#181818;stroke-width:1;" x1="404" x2="414" y1="199.6379" y2="189.6379"/><line style="stroke:#181818;stroke-width:1;" x1="252" x2="404" y1="199.6379" y2="199.6379"/><line style="stroke:#181818;stroke-width:1;" x1="404" x2="404" y1="199.6379" y2="297.7079"/><text fill="#000000" font-family="sans-serif" font-size="14" font-weight="bold" lengthAdjust="spacing" textLength="83.3417" x="287.3292" y="217.6039">Client Layer</text></g><!--cluster Web API--><g id="cluster_Web API"><polygon fill="none" points="217,376.7079,227,366.7079,449,366.7079,449,464.7779,439,474.7779,217,474.7779,217,376.7079" style="stroke:#181818;stroke-width:1;"/><line style="stroke:#181818;stroke-width:1;" x1="439" x2="449" y1="376.7079" y2="366.7079"/><line style="stroke:#181818;stroke-width:1;" x1="217" x2="439" y1="376.7079" y2="376.7079"/><line style="stroke:#181818;stroke-width:1;" x1="439" x2="439" y1="376.7079" y2="474.7779"/><text fill="#000000" font-family="sans-serif" font-size="14" font-weight="bold" lengthAdjust="spacing" textLength="58.2118" x="299.8941" y="394.6739">Web API</text></g><!--cluster Application Layer--><g id="cluster_Application Layer"><polygon fill="none" points="231,535.7779,241,525.7779,435,525.7779,435,623.8379,425,633.8379,231,633.8379,231,535.7779" style="stroke:#181818;stroke-width:1;"/><line style="stroke:#181818;stroke-width:1;" x1="425" x2="435" y1="535.7779" y2="525.7779"/><line style="stroke:#181818;stroke-width:1;" x1="231" x2="425" y1="535.7779" y2="535.7779"/><line style="stroke:#181818;stroke-width:1;" x1="425" x2="425" y1="535.7779" y2="633.8379"/><text fill="#000000" font-family="sans-serif" font-size="14" font-weight="bold" lengthAdjust="spacing" textLength="121.9255" x="268.0372" y="553.7439">Application Layer</text></g><!--cluster Db--><g id="cluster_Db"><path d="M6,702.8379 C6,692.8379 128,692.8379 128,692.8379 C128,692.8379 250,692.8379 250,702.8379 L250,1010.6979 C250,1020.6979 128,1020.6979 128,1020.6979 C128,1020.6979 6,1020.6979 6,1010.6979 L6,702.8379 " fill="none" style="stroke:#181818;stroke-width:1;"/><path d="M6,702.8379 C6,712.8379 128,712.8379 128,712.8379 C128,712.8379 250,712.8379 250,702.8379 " fill="none" style="stroke:#181818;stroke-width:1;"/><text fill="#000000" font-family="sans-serif" font-size="14" font-weight="bold" lengthAdjust="spacing" textLength="80.6677" x="87.6662" y="729.8039">Persistence</text></g><!--cluster Dom--><g id="cluster_Dom"><polygon fill="none" points="282,720.8379,292,710.8379,942,710.8379,942,936.9779,932,946.9779,282,946.9779,282,720.8379" style="stroke:#181818;stroke-width:1;"/><line style="stroke:#181818;stroke-width:1;" x1="932" x2="942" y1="720.8379" y2="710.8379"/><line style="stroke:#181818;stroke-width:1;" x1="282" x2="932" y1="720.8379" y2="720.8379"/><line style="stroke:#181818;stroke-width:1;" x1="932" x2="932" y1="720.8379" y2="946.9779"/><text fill="#000000" font-family="sans-serif" font-size="14" font-weight="bold" lengthAdjust="spacing" textLength="54.3198" x="580.8401" y="738.8039">Domain</text></g><!--entity Client--><g id="elem_Client"><rect fill="#F1F1F1" height="49.0679" rx="2.5" ry="2.5" style="stroke:#181818;stroke-width:0.5;" width="130.9436" x="267.53" y="232.6379"/><rect fill="#F1F1F1" height="10" style="stroke:#181818;stroke-width:0.5;" width="15" x="378.4736" y="237.6379"/><rect fill="#F1F1F1" height="2" style="stroke:#181818;stroke-width:0.5;" width="4" x="376.4736" y="239.6379"/><rect fill="#F1F1F1" height="2" style="stroke:#181818;stroke-width:0.5;" width="4" x="376.4736" y="243.6379"/><text fill="#000000" font-family="sans-serif" font-size="14" lengthAdjust="spacing" textLength="90.9436" x="282.53" y="267.6039">UI / API Client</text></g><!--entity Ctl--><g id="elem_Ctl"><rect fill="#F1F1F1" height="49.0679" rx="2.5" ry="2.5" style="stroke:#181818;stroke-width:0.5;" width="199.0814" x="233.46" y="409.7079"/><rect fill="#F1F1F1" height="10" style="stroke:#181818;stroke-width:0.5;" width="15" x="412.5414" y="414.7079"/><rect fill="#F1F1F1" height="2" style="stroke:#181818;stroke-width:0.5;" width="4" x="410.5414" y="416.7079"/><rect fill="#F1F1F1" height="2" style="stroke:#181818;stroke-width:0.5;" width="4" x="410.5414" y="420.7079"/><text fill="#000000" font-family="sans-serif" font-size="14" lengthAdjust="spacing" textLength="159.0814" x="248.46" y="444.6739">StaffMembersController</text></g><!--entity Svc--><g id="elem_Svc"><rect fill="#F1F1F1" height="49.0679" rx="2.5" ry="2.5" style="stroke:#181818;stroke-width:0.5;" width="172.9015" x="246.55" y="568.7779"/><rect fill="#F1F1F1" height="10" style="stroke:#181818;stroke-width:0.5;" width="15" x="399.4515" y="573.7779"/><rect fill="#F1F1F1" height="2" style="stroke:#181818;stroke-width:0.5;" width="4" x="397.4515" y="575.7779"/><rect fill="#F1F1F1" height="2" style="stroke:#181818;stroke-width:0.5;" width="4" x="397.4515" y="579.7779"/><text fill="#000000" font-family="sans-serif" font-size="14" lengthAdjust="spacing" textLength="132.9015" x="261.55" y="603.7439">StaffMemberService</text></g><!--entity DbCtx--><g id="elem_DbCtx"><rect fill="#F1F1F1" height="49.0679" rx="2.5" ry="2.5" style="stroke:#181818;stroke-width:0.5;" width="137.9856" x="40.01" y="881.9079"/><rect fill="#F1F1F1" height="10" style="stroke:#181818;stroke-width:0.5;" width="15" x="157.9956" y="886.9079"/><rect fill="#F1F1F1" height="2" style="stroke:#181818;stroke-width:0.5;" width="4" x="155.9956" y="888.9079"/><rect fill="#F1F1F1" height="2" style="stroke:#181818;stroke-width:0.5;" width="4" x="155.9956" y="892.9079"/><text fill="#000000" font-family="sans-serif" font-size="14" lengthAdjust="spacing" textLength="97.9856" x="55.01" y="916.8739">PortDbContext</text></g><!--entity Repo--><g id="elem_Repo"><rect fill="#F1F1F1" height="49.0679" rx="2.5" ry="2.5" style="stroke:#181818;stroke-width:0.5;" width="196.6454" x="29.68" y="753.8379"/><rect fill="#F1F1F1" height="10" style="stroke:#181818;stroke-width:0.5;" width="15" x="206.3254" y="758.8379"/><rect fill="#F1F1F1" height="2" style="stroke:#181818;stroke-width:0.5;" width="4" x="204.3254" y="760.8379"/><rect fill="#F1F1F1" height="2" style="stroke:#181818;stroke-width:0.5;" width="4" x="204.3254" y="764.8379"/><text fill="#000000" font-family="sans-serif" font-size="14" lengthAdjust="spacing" textLength="156.6454" x="44.68" y="788.8039">StaffMemberRepository</text></g><!--entity Staff--><g id="elem_Staff"><rect fill="#F1F1F1" height="49.0679" rx="2.5" ry="2.5" style="stroke:#181818;stroke-width:0.5;" width="126.1977" x="437.9" y="753.8379"/><rect fill="#F1F1F1" height="10" style="stroke:#181818;stroke-width:0.5;" width="15" x="544.0977" y="758.8379"/><rect fill="#F1F1F1" height="2" style="stroke:#181818;stroke-width:0.5;" width="4" x="542.0977" y="760.8379"/><rect fill="#F1F1F1" height="2" style="stroke:#181818;stroke-width:0.5;" width="4" x="542.0977" y="764.8379"/><text fill="#000000" font-family="sans-serif" font-size="14" lengthAdjust="spacing" textLength="86.1977" x="452.9" y="788.8039">StaffMember</text></g><!--entity Qual--><g id="elem_Qual"><rect fill="#F1F1F1" height="49.0679" rx="2.5" ry="2.5" style="stroke:#181818;stroke-width:0.5;" width="209.6514" x="298.17" y="881.9079"/><rect fill="#F1F1F1" height="10" style="stroke:#181818;stroke-width:0.5;" width="15" x="487.8214" y="886.9079"/><rect fill="#F1F1F1" height="2" style="stroke:#181818;stroke-width:0.5;" width="4" x="485.8214" y="888.9079"/><rect fill="#F1F1F1" height="2" style="stroke:#181818;stroke-width:0.5;" width="4" x="485.8214" y="892.9079"/><text fill="#000000" font-family="sans-serif" font-size="14" lengthAdjust="spacing" textLength="169.6514" x="313.17" y="916.8739">StaffMemberQualification</text></g><!--entity Status--><g id="elem_Status"><rect fill="#F1F1F1" height="49.0679" rx="2.5" ry="2.5" style="stroke:#181818;stroke-width:0.5;" width="190.4574" x="542.77" y="881.9079"/><rect fill="#F1F1F1" height="10" style="stroke:#181818;stroke-width:0.5;" width="15" x="713.2274" y="886.9079"/><rect fill="#F1F1F1" height="2" style="stroke:#181818;stroke-width:0.5;" width="4" x="711.2274" y="888.9079"/><rect fill="#F1F1F1" height="2" style="stroke:#181818;stroke-width:0.5;" width="4" x="711.2274" y="892.9079"/><text fill="#000000" font-family="sans-serif" font-size="14" lengthAdjust="spacing" textLength="150.4574" x="557.77" y="916.8739">HumanResourceStatus</text></g><!--entity ActiveStatus--><g id="elem_ActiveStatus"><rect fill="#F1F1F1" height="49.0679" rx="2.5" ry="2.5" style="stroke:#181818;stroke-width:0.5;" width="157.6416" x="768.18" y="881.9079"/><rect fill="#F1F1F1" height="10" style="stroke:#181818;stroke-width:0.5;" width="15" x="905.8216" y="886.9079"/><rect fill="#F1F1F1" height="2" style="stroke:#181818;stroke-width:0.5;" width="4" x="903.8216" y="888.9079"/><rect fill="#F1F1F1" height="2" style="stroke:#181818;stroke-width:0.5;" width="4" x="903.8216" y="892.9079"/><text fill="#000000" font-family="sans-serif" font-size="14" lengthAdjust="spacing" textLength="117.6416" x="783.18" y="916.8739">EntityActiveStatus</text></g><!--entity Operator--><g id="elem_Operator"><ellipse cx="333.0038" cy="54.0679" fill="#F1F1F1" rx="8" ry="8" style="stroke:#181818;stroke-width:0.5;"/><path d="M333.0038,62.0679 L333.0038,89.0679 M320.0038,70.0679 L346.0038,70.0679 M333.0038,89.0679 L320.0038,104.0679 M333.0038,89.0679 L346.0038,104.0679 " fill="none" style="stroke:#181818;stroke-width:0.5;"/><text fill="#000000" font-family="sans-serif" font-size="14" lengthAdjust="spacing" textLength="120.8476" x="272.58" y="120.5339">Logistics Operator</text></g><!--link Operator to Client--><g id="link_Operator_Client"><path d="M333,125.1179 C333,158.2679 333,198.7679 333,226.5379 " fill="none" id="Operator-to-Client" style="stroke:#181818;stroke-width:1;"/><polygon fill="#181818" points="333,232.5379,337,223.5379,333,227.5379,329,223.5379,333,232.5379" style="stroke:#181818;stroke-width:1;"/><text fill="#000000" font-family="sans-serif" font-size="13" lengthAdjust="spacing" textLength="133.1461" x="334" y="169.5349">register/manage staff</text></g><!--link Client to Ctl--><g id="link_Client_Ctl"><path d="M333,282.1479 C333,315.5779 333,369.8479 333,403.2779 " fill="none" id="Client-to-Ctl" style="stroke:#181818;stroke-width:1;"/><polygon fill="#181818" points="333,409.2779,337,400.2779,333,404.2779,329,400.2779,333,409.2779" style="stroke:#181818;stroke-width:1;"/><text fill="#000000" font-family="sans-serif" font-size="13" lengthAdjust="spacing" textLength="88.5431" x="366.9811" y="328.6049">HTTP requests</text><text fill="#000000" font-family="sans-serif" font-size="13" lengthAdjust="spacing" textLength="154.5052" x="334" y="346.3109">(POST, PUT, DELETE, GET)</text></g><!--link Ctl to Svc--><g id="link_Ctl_Svc"><path d="M333,459.0979 C333,488.7079 333,532.8979 333,562.4879 " fill="none" id="Ctl-to-Svc" style="stroke:#181818;stroke-width:1;"/><polygon fill="#181818" points="333,568.4879,337,559.4879,333,563.4879,329,559.4879,333,568.4879" style="stroke:#181818;stroke-width:1;"/><text fill="#000000" font-family="sans-serif" font-size="13" lengthAdjust="spacing" textLength="139.8541" x="334" y="505.6749">orchestrate operations</text></g><!--link Svc to Repo--><g id="link_Svc_Repo"><path d="M306.2,618.2379 C266.91,653.3279 198.5751,714.3512 159.2851,749.4412 " fill="none" id="Svc-to-Repo" style="stroke:#181818;stroke-width:1;"/><polygon fill="#181818" points="154.81,753.4379,164.1871,750.4262,158.5392,750.1073,158.8581,744.4595,154.81,753.4379" style="stroke:#181818;stroke-width:1;"/><text fill="#000000" font-family="sans-serif" font-size="13" lengthAdjust="spacing" textLength="81.3931" x="267.69" y="664.7349">query/persist</text></g><!--link Repo to DbCtx--><g id="link_Repo_DbCtx"><path d="M124.38,803.3879 C121,825.8179 116.8722,853.1846 113.5022,875.5946 " fill="none" id="Repo-to-DbCtx" style="stroke:#181818;stroke-width:1;"/><polygon fill="#181818" points="112.61,881.5279,117.9039,873.2228,113.3535,876.5835,109.9928,872.0332,112.61,881.5279" style="stroke:#181818;stroke-width:1;"/><text fill="#000000" font-family="sans-serif" font-size="13" lengthAdjust="spacing" textLength="115.5441" x="120.64" y="847.8049">EF Core operations</text></g><!--link DbCtx to Db--><g id="link_DbCtx_Db"><path d="M109,931.4279 C109,961.3279 109,1002.8879 109,1005.8379 " fill="none" id="DbCtx-to-Db" style="stroke:#181818;stroke-width:1;"/><polygon fill="#181818" points="109,1011.8379,113,1002.8379,109,1006.8379,105,1002.8379,109,1011.8379" style="stroke:#181818;stroke-width:1;"/><text fill="#000000" font-family="sans-serif" font-size="13" lengthAdjust="spacing" textLength="73.1251" x="110" y="977.8749">SQL queries</text></g><!--link Svc to Staff--><g id="link_Svc_Staff"><path d="M354.96,618.2379 C387.16,653.3279 442.7733,713.9271 474.9733,749.0171 " fill="none" id="Svc-to-Staff" style="stroke:#181818;stroke-width:1;stroke-dasharray:7.0,7.0;"/><polygon fill="#181818" points="479.03,753.4379,475.8922,744.1023,475.6494,749.7539,469.9978,749.5112,479.03,753.4379" style="stroke:#181818;stroke-width:1;"/><text fill="#000000" font-family="sans-serif" font-size="13" lengthAdjust="spacing" textLength="137.1501" x="398.01" y="664.7349">enforce business rules</text></g><!--reverse link Staff to Qual--><g id="link_Staff_Qual"><path d="M473.3953,812.4077 C465.7753,821.6277 464.71,823.0579 457,832.9079 C444.42,848.9879 430.69,867.4379 420.23,881.7079 " fill="none" id="Staff-backto-Qual" style="stroke:#181818;stroke-width:1;"/><polygon fill="#181818" points="481.04,803.1579,474.1344,805.2346,473.3953,812.4077,480.301,810.331,481.04,803.1579" style="stroke:#181818;stroke-width:1;"/><text fill="#000000" font-family="sans-serif" font-size="13" lengthAdjust="spacing" textLength="117.2861" x="458" y="847.8049">owns qualifications</text></g><!--link Staff to Status--><g id="link_Staff_Status"><path d="M541.31,803.3179 C554.29,811.8879 568.32,822.1179 580,832.9079 C595.87,847.5679 607.5016,861.8978 618.3316,876.8578 " fill="none" id="Staff-to-Status" style="stroke:#181818;stroke-width:1;"/><polygon fill="#181818" points="621.85,881.7179,619.8125,872.0821,618.918,877.6678,613.3323,876.7733,621.85,881.7179" style="stroke:#181818;stroke-width:1;"/><text fill="#000000" font-family="sans-serif" font-size="13" lengthAdjust="spacing" textLength="110.9941" x="598.67" y="847.8049">operational status</text></g><!--link Staff to ActiveStatus--><g id="link_Staff_ActiveStatus"><path d="M564.12,790.2579 C608.19,798.9779 667.85,813.0479 718,832.9079 C750.85,845.9179 780.5288,862.703 805.6888,878.393 " fill="none" id="Staff-to-ActiveStatus" style="stroke:#181818;stroke-width:1;"/><polygon fill="#181818" points="810.78,881.5679,805.2598,873.4115,806.5374,878.9222,801.0266,880.1997,810.78,881.5679" style="stroke:#181818;stroke-width:1;"/><text fill="#000000" font-family="sans-serif" font-size="13" lengthAdjust="spacing" textLength="83.4081" x="759.54" y="847.8049">activity status</text></g><!--SRC=[PPF1Rjim38RlUWeYfswe4xJOgOS2GUAk1LBKZHtqiEqWEqmdG9OyISuQ37ltaPADkDqbiCZlftwIIb118wo-mCgQ89L11ndiIhYUNy-lhc2Bhye72agpXqTfv2j26UJX08_OrkYy4B89ri5iOvbKZOUd3fsas0pa-I24iNk4sKehD04syeG4_140ttOFi81byG0fzuDbwLFy7MKlM3CoAAA3mG3xTbPhT4aOz5crx3gj6XcKDUzkdEXBT4VLODIMnuQrUnbaBJtf2whFxPi6OpFhEkaBwyAwvflnBVcbKtZxK7gBdVMAUZz5X8zdQslRqhHJLTl-PolvuVE7n7CljJeCJKMA8mpTzwqqM_IsTmsI8lH-h4AVJEGcg71QDa4Tfy0qm0R7bK6MtGwBW1jmmqjOjEaL-6XkI4SoQCBkgweWzbUFFlZlvg9uAgjBA7RqiyutUPLVmjUy-YIOPXNDd5JMDJz9GDSYs7WzTUS59ndYqH55HTrfqQMbY1ZaR9mzfVCxUiJkNO6KIX0HvVCc5b6OQi_djyDhlW4q1tA1KFUU_WNUW-irOp7zESlYdDdgR-Efo6GB8nJRYLDaR3H18fz6UwQc4oTMyf4sCuB_0000]--></g></svg>