<svg xmlns="http://www.w3.org/2000/svg" xmlns:xlink="http://www.w3.org/1999/xlink" contentStyleType="text/css" height="1044px" preserveAspectRatio="none" style="width:1547px;height:1044px;background:#FFFFFF;" version="1.1" viewBox="0 0 1547 1044" width="1547px" zoomAndPan="magnify"><title>Class Diagram excerpt - US 2.2.11 Register and Manage Staff Members</title><defs/><g><text fill="#000000" font-family="sans-serif" font-size="14" font-weight="bold" lengthAdjust="spacing" textLength="487.4781" x="522.7609" y="24.9659">Class Diagram excerpt - US 2.2.11 Register and Manage Staff Members</text><!--cluster HumanResources--><g id="cluster_HumanResources"><path d="M871.5,388.3499 L994.7335,388.3499 A3.75,3.75 0 0 1 997.2335,390.8499 L1004.2335,413.4178 L1331.5,413.4178 A2.5,2.5 0 0 1 1334,415.9178 L1334,1035.4099 A2.5,2.5 0 0 1 1331.5,1037.9099 L871.5,1037.9099 A2.5,2.5 0 0 1 869,1035.4099 L869,390.8499 A2.5,2.5 0 0 1 871.5,388.3499 " fill="none" style="stroke:#000000;stroke-width:1.5;"/><line style="stroke:#000000;stroke-width:1.5;" x1="869" x2="1004.2335" y1="413.4178" y2="413.4178"/><text fill="#000000" font-family="sans-serif" font-size="14" font-weight="bold" lengthAdjust="spacing" textLength="122.2335" x="873" y="405.3158">HumanResources</text></g><!--cluster Common--><g id="cluster_Common"><path d="M1360.5,869.1699 L1424.3878,869.1699 A3.75,3.75 0 0 1 1426.8878,871.6699 L1433.8878,894.2378 L1537.5,894.2378 A2.5,2.5 0 0 1 1540,896.7378 L1540,1006.8099 A2.5,2.5 0 0 1 1537.5,1009.3099 L1360.5,1009.3099 A2.5,2.5 0 0 1 1358,1006.8099 L1358,871.6699 A2.5,2.5 0 0 1 1360.5,869.1699 " fill="none" style="stroke:#000000;stroke-width:1.5;"/><line style="stroke:#000000;stroke-width:1.5;" x1="1358" x2="1433.8878" y1="894.2378" y2="894.2378"/><text fill="#000000" font-family="sans-serif" font-size="14" font-weight="bold" lengthAdjust="spacing" textLength="62.8878" x="1362" y="886.1358">Common</text></g><!--cluster DTOs--><g id="cluster_DTOs"><path d="M8.5,46.6699 L45.9279,46.6699 A3.75,3.75 0 0 1 48.4279,49.1699 L55.4279,71.7378 L842.5,71.7378 A2.5,2.5 0 0 1 845,74.2378 L845,678.5299 A2.5,2.5 0 0 1 842.5,681.0299 L8.5,681.0299 A2.5,2.5 0 0 1 6,678.5299 L6,49.1699 A2.5,2.5 0 0 1 8.5,46.6699 " fill="none" style="stroke:#000000;stroke-width:1.5;"/><line style="stroke:#000000;stroke-width:1.5;" x1="6" x2="55.4279" y1="71.7378" y2="71.7378"/><text fill="#000000" font-family="sans-serif" font-size="14" font-weight="bold" lengthAdjust="spacing" textLength="36.4279" x="10" y="63.6358">DTOs</text></g><!--cluster Infrastructure--><g id="cluster_Infrastructure"><path d="M871.5,113.4099 L972.5856,113.4099 A3.75,3.75 0 0 1 975.0856,115.9099 L982.0856,138.4778 L1368.5,138.4778 A2.5,2.5 0 0 1 1371,140.9778 L1371,270.1099 A2.5,2.5 0 0 1 1368.5,272.6099 L871.5,272.6099 A2.5,2.5 0 0 1 869,270.1099 L869,115.9099 A2.5,2.5 0 0 1 871.5,113.4099 " fill="none" style="stroke:#000000;stroke-width:1.5;"/><line style="stroke:#000000;stroke-width:1.5;" x1="869" x2="982.0856" y1="138.4778" y2="138.4778"/><text fill="#000000" font-family="sans-serif" font-size="14" font-weight="bold" lengthAdjust="spacing" textLength="100.0856" x="873" y="130.3758">Infrastructure</text></g><!--class StaffMember--><g id="elem_StaffMember"><rect codeLine="4" fill="#F1F1F1" height="391.2225" id="StaffMember" rx="2.5" ry="2.5" style="stroke:#181818;stroke-width:0.5;" width="382.5507" x="884.72" y="426.3499"/><ellipse cx="1028.6465" cy="442.3499" fill="#ADD1B2" rx="11" ry="11" style="stroke:#181818;stroke-width:1;"/><path d="M1028.1153,449.2718 Q1026.3653,449.2718 1025.2246,448.5374 Q1024.0996,447.7874 1023.5371,446.4436 Q1022.9903,445.0843 1022.9903,443.2874 Q1022.9903,441.2561 1023.6465,439.803 Q1024.3028,438.3499 1025.584,437.5686 Q1026.8653,436.7874 1028.7403,436.7874 Q1029.6309,436.7874 1030.3028,436.9749 Q1030.9746,437.1468 1031.6621,437.4905 L1030.8496,439.5061 Q1030.2246,439.1936 1029.6778,439.0686 Q1029.1465,438.9436 1028.6621,438.9436 Q1027.4903,438.9436 1026.7871,439.4749 Q1026.084,440.0061 1025.7871,440.9593 Q1025.4903,441.9124 1025.4903,443.178 Q1025.4903,445.1936 1026.209,446.1624 Q1026.9278,447.1155 1028.5215,447.1155 Q1029.1153,447.1155 1029.7403,446.9593 Q1030.3653,446.803 1031.1934,446.428 L1031.1934,448.6468 Q1030.459,448.9593 1029.6621,449.1155 Q1028.8809,449.2718 1028.1153,449.2718 Z " fill="#000000"/><text fill="#000000" font-family="sans-serif" font-size="14" lengthAdjust="spacing" textLength="86.1977" x="1049.1465" y="447.7819">StaffMember</text><line style="stroke:#181818;stroke-width:0.5;" x1="885.72" x2="1266.2707" y1="458.3499" y2="458.3499"/><ellipse cx="895.72" cy="473.3839" fill="none" rx="3" ry="3" style="stroke:#038048;stroke-width:1;"/><text fill="#000000" font-family="sans-serif" font-size="14" lengthAdjust="spacing" textLength="197.1752" x="904.72" y="477.3158">MecanographicNumber : long</text><ellipse cx="895.72" cy="492.4518" fill="none" rx="3" ry="3" style="stroke:#038048;stroke-width:1;"/><text fill="#000000" font-family="sans-serif" font-size="14" lengthAdjust="spacing" textLength="124.5715" x="904.72" y="496.3838">ShortName : string</text><ellipse cx="895.72" cy="511.5197" fill="none" rx="3" ry="3" style="stroke:#038048;stroke-width:1;"/><text fill="#000000" font-family="sans-serif" font-size="14" lengthAdjust="spacing" textLength="85.3997" x="904.72" y="515.4517">Email : string</text><ellipse cx="895.72" cy="530.5876" fill="none" rx="3" ry="3" style="stroke:#038048;stroke-width:1;"/><text fill="#000000" font-family="sans-serif" font-size="14" lengthAdjust="spacing" textLength="91.5876" x="904.72" y="534.5196">Phone : string</text><ellipse cx="895.72" cy="549.6555" fill="none" rx="3" ry="3" style="stroke:#038048;stroke-width:1;"/><text fill="#000000" font-family="sans-serif" font-size="14" lengthAdjust="spacing" textLength="202.4952" x="904.72" y="553.5875">Status : HumanResourceStatus</text><ellipse cx="895.72" cy="568.7234" fill="none" rx="3" ry="3" style="stroke:#038048;stroke-width:1;"/><text fill="#000000" font-family="sans-serif" font-size="14" lengthAdjust="spacing" textLength="216.9292" x="904.72" y="572.6554">ActivityStatus : EntityActiveStatus</text><ellipse cx="895.72" cy="587.7914" fill="none" rx="3" ry="3" style="stroke:#038048;stroke-width:1;"/><text fill="#000000" font-family="sans-serif" font-size="14" lengthAdjust="spacing" textLength="140.9235" x="904.72" y="591.7233">StartHour : TimeSpan</text><ellipse cx="895.72" cy="606.8593" fill="none" rx="3" ry="3" style="stroke:#038048;stroke-width:1;"/><text fill="#000000" font-family="sans-serif" font-size="14" lengthAdjust="spacing" textLength="134.5395" x="904.72" y="610.7913">EndHour : TimeSpan</text><ellipse cx="895.72" cy="625.9272" fill="none" rx="3" ry="3" style="stroke:#038048;stroke-width:1;"/><text fill="#000000" font-family="sans-serif" font-size="14" lengthAdjust="spacing" textLength="356.5507" x="904.72" y="629.8592">Qualifications : ICollection&lt;StaffMemberQualification&gt;</text><line style="stroke:#181818;stroke-width:1;" x1="885.72" x2="1266.2707" y1="637.9612" y2="637.9612"/><ellipse cx="895.72" cy="662.5291" fill="#84BE84" rx="3" ry="3" style="stroke:#038048;stroke-width:1;"/><text fill="#000000" font-family="sans-serif" font-size="14" lengthAdjust="spacing" textLength="332.8768" x="904.72" y="656.9271">StaffMember(mecanographicNumber, shortName,</text><text fill="#000000" font-family="sans-serif" font-size="14" lengthAdjust="spacing" textLength="274.301" x="908.36" y="675.995">email, phone, status, startHour, endHour)</text><ellipse cx="895.72" cy="691.1309" fill="#84BE84" rx="3" ry="3" style="stroke:#038048;stroke-width:1;"/><text fill="#000000" font-family="sans-serif" font-size="14" lengthAdjust="spacing" textLength="199.1492" x="904.72" y="695.0629">AddQualification(qualification)</text><ellipse cx="895.72" cy="710.1989" fill="#84BE84" rx="3" ry="3" style="stroke:#038048;stroke-width:1;"/><text fill="#000000" font-family="sans-serif" font-size="14" lengthAdjust="spacing" textLength="226.1551" x="904.72" y="714.1308">RemoveQualification(qualification)</text><ellipse cx="895.72" cy="729.2668" fill="#84BE84" rx="3" ry="3" style="stroke:#038048;stroke-width:1;"/><text fill="#000000" font-family="sans-serif" font-size="14" lengthAdjust="spacing" textLength="219.7292" x="904.72" y="733.1988">UpdateContactInfo(email, phone)</text><ellipse cx="895.72" cy="748.3347" fill="#84BE84" rx="3" ry="3" style="stroke:#038048;stroke-width:1;"/><text fill="#000000" font-family="sans-serif" font-size="14" lengthAdjust="spacing" textLength="216.0192" x="904.72" y="752.2667">UpdateOperationalStatus(status)</text><ellipse cx="895.72" cy="767.4026" fill="#84BE84" rx="3" ry="3" style="stroke:#038048;stroke-width:1;"/><text fill="#000000" font-family="sans-serif" font-size="14" lengthAdjust="spacing" textLength="216.2572" x="904.72" y="771.3346">UpdateActiveStatus(activeStatus)</text><ellipse cx="895.72" cy="786.4705" fill="#84BE84" rx="3" ry="3" style="stroke:#038048;stroke-width:1;"/><text fill="#000000" font-family="sans-serif" font-size="14" lengthAdjust="spacing" textLength="281.8189" x="904.72" y="790.4025">UpdateWorkingHours(startHour, endHour)</text><ellipse cx="895.72" cy="805.5384" fill="#84BE84" rx="3" ry="3" style="stroke:#038048;stroke-width:1;"/><text fill="#000000" font-family="sans-serif" font-size="14" lengthAdjust="spacing" textLength="260.049" x="904.72" y="809.4704">IsWithinWorkingHours(dateTime) : bool</text></g><!--class HumanResourceStatus--><g id="elem_HumanResourceStatus"><rect codeLine="25" fill="#F1F1F1" height="105.2038" id="HumanResourceStatus" rx="2.5" ry="2.5" style="stroke:#181818;stroke-width:0.5;" width="196.6453" x="1121.68" y="897.6399"/><ellipse cx="1143.0645" cy="913.6399" fill="#EB937F" rx="11" ry="11" style="stroke:#181818;stroke-width:1;"/><path d="M1139.4239,920.1399 L1139.4239,907.9993 L1147.0802,907.9993 L1147.0802,910.1243 L1141.7989,910.1243 L1141.7989,912.7805 L1146.8145,912.7805 L1146.8145,914.9055 L1141.7989,914.9055 L1141.7989,918.0149 L1147.0802,918.0149 L1147.0802,920.1399 L1139.4239,920.1399 Z " fill="#000000"/><text fill="#000000" font-family="sans-serif" font-size="14" lengthAdjust="spacing" textLength="150.4574" x="1158.4833" y="919.0719">HumanResourceStatus</text><line style="stroke:#181818;stroke-width:0.5;" x1="1122.68" x2="1317.3253" y1="929.6399" y2="929.6399"/><text fill="#000000" font-family="sans-serif" font-size="14" lengthAdjust="spacing" textLength="71.5397" x="1127.68" y="948.6058">AVAILABLE</text><text fill="#000000" font-family="sans-serif" font-size="14" lengthAdjust="spacing" textLength="92.4136" x="1127.68" y="967.6738">UNAVAILABLE</text><text fill="#000000" font-family="sans-serif" font-size="14" lengthAdjust="spacing" textLength="184.6453" x="1127.68" y="986.7417">TEMPORARILY_REASSIGNED</text><line style="stroke:#181818;stroke-width:0.5;" x1="1122.68" x2="1317.3253" y1="994.8436" y2="994.8436"/></g><!--class StaffMemberQualification--><g id="elem_StaffMemberQualification"><rect codeLine="31" fill="#F1F1F1" height="143.3396" id="StaffMemberQualification" rx="2.5" ry="2.5" style="stroke:#181818;stroke-width:0.5;" width="201.6514" x="885.17" y="878.5699"/><ellipse cx="900.17" cy="894.5699" fill="#ADD1B2" rx="11" ry="11" style="stroke:#181818;stroke-width:1;"/><path d="M899.6388,901.4918 Q897.8888,901.4918 896.7481,900.7574 Q895.6231,900.0074 895.0606,898.6636 Q894.5138,897.3043 894.5138,895.5074 Q894.5138,893.4761 895.17,892.023 Q895.8263,890.5699 897.1075,889.7886 Q898.3888,889.0074 900.2638,889.0074 Q901.1544,889.0074 901.8263,889.1949 Q902.4981,889.3668 903.1856,889.7105 L902.3731,891.7261 Q901.7481,891.4136 901.2013,891.2886 Q900.67,891.1636 900.1856,891.1636 Q899.0138,891.1636 898.3106,891.6949 Q897.6075,892.2261 897.3106,893.1793 Q897.0138,894.1324 897.0138,895.398 Q897.0138,897.4136 897.7325,898.3824 Q898.4513,899.3355 900.045,899.3355 Q900.6388,899.3355 901.2638,899.1793 Q901.8888,899.023 902.7169,898.648 L902.7169,900.8668 Q901.9825,901.1793 901.1856,901.3355 Q900.4044,901.4918 899.6388,901.4918 Z " fill="#000000"/><text fill="#000000" font-family="sans-serif" font-size="14" lengthAdjust="spacing" textLength="169.6514" x="914.17" y="900.0019">StaffMemberQualification</text><line style="stroke:#181818;stroke-width:0.5;" x1="886.17" x2="1085.8214" y1="910.5699" y2="910.5699"/><ellipse cx="896.17" cy="925.6039" fill="none" rx="3" ry="3" style="stroke:#038048;stroke-width:1;"/><text fill="#000000" font-family="sans-serif" font-size="14" lengthAdjust="spacing" textLength="55.4538" x="905.17" y="929.5358">Id : Guid</text><ellipse cx="896.17" cy="944.6718" fill="none" rx="3" ry="3" style="stroke:#038048;stroke-width:1;"/><text fill="#000000" font-family="sans-serif" font-size="14" lengthAdjust="spacing" textLength="139.9295" x="905.17" y="948.6038">StaffMemberId : long</text><ellipse cx="896.17" cy="963.7397" fill="none" rx="3" ry="3" style="stroke:#038048;stroke-width:1;"/><text fill="#000000" font-family="sans-serif" font-size="14" lengthAdjust="spacing" textLength="138.9075" x="905.17" y="967.6717">QualificationId : Guid</text><ellipse cx="896.17" cy="982.8076" fill="none" rx="3" ry="3" style="stroke:#038048;stroke-width:1;"/><text fill="#000000" font-family="sans-serif" font-size="14" lengthAdjust="spacing" textLength="172.3813" x="905.17" y="986.7396">QualificationName : string</text><ellipse cx="896.17" cy="1001.8755" fill="none" rx="3" ry="3" style="stroke:#038048;stroke-width:1;"/><text fill="#000000" font-family="sans-serif" font-size="14" lengthAdjust="spacing" textLength="148.1754" x="905.17" y="1005.8075">AssignedAt : DateTime</text><line style="stroke:#181818;stroke-width:0.5;" x1="886.17" x2="1085.8214" y1="1013.9095" y2="1013.9095"/></g><!--class EntityActiveStatus--><g id="elem_EntityActiveStatus"><rect codeLine="41" fill="#F1F1F1" height="86.1358" id="EntityActiveStatus" rx="2.5" ry="2.5" style="stroke:#181818;stroke-width:0.5;" width="149.6416" x="1374.18" y="907.1699"/><ellipse cx="1389.18" cy="923.1699" fill="#EB937F" rx="11" ry="11" style="stroke:#181818;stroke-width:1;"/><path d="M1385.5394,929.6699 L1385.5394,917.5293 L1393.1956,917.5293 L1393.1956,919.6543 L1387.9144,919.6543 L1387.9144,922.3105 L1392.93,922.3105 L1392.93,924.4355 L1387.9144,924.4355 L1387.9144,927.5449 L1393.1956,927.5449 L1393.1956,929.6699 L1385.5394,929.6699 Z " fill="#000000"/><text fill="#000000" font-family="sans-serif" font-size="14" lengthAdjust="spacing" textLength="117.6416" x="1403.18" y="928.6019">EntityActiveStatus</text><line style="stroke:#181818;stroke-width:0.5;" x1="1375.18" x2="1522.8216" y1="939.1699" y2="939.1699"/><text fill="#000000" font-family="sans-serif" font-size="14" lengthAdjust="spacing" textLength="46.5078" x="1380.18" y="958.1358">ACTIVE</text><text fill="#000000" font-family="sans-serif" font-size="14" lengthAdjust="spacing" textLength="61.8938" x="1380.18" y="977.2038">INACTIVE</text><line style="stroke:#181818;stroke-width:0.5;" x1="1375.18" x2="1522.8216" y1="985.3057" y2="985.3057"/></g><!--class CreateStaffMemberDto--><g id="elem_CreateStaffMemberDto"><rect codeLine="48" fill="#F1F1F1" height="181.4754" id="CreateStaffMemberDto" rx="2.5" ry="2.5" style="stroke:#181818;stroke-width:0.5;" width="228.4952" x="330.75" y="113.2699"/><ellipse cx="365.2007" cy="129.2699" fill="#ADD1B2" rx="11" ry="11" style="stroke:#181818;stroke-width:1;"/><path d="M364.6695,136.1918 Q362.9195,136.1918 361.7788,135.4574 Q360.6538,134.7074 360.0913,133.3636 Q359.5445,132.0043 359.5445,130.2074 Q359.5445,128.1761 360.2007,126.723 Q360.857,125.2699 362.1382,124.4886 Q363.4195,123.7074 365.2945,123.7074 Q366.1851,123.7074 366.857,123.8949 Q367.5288,124.0668 368.2163,124.4105 L367.4038,126.4261 Q366.7788,126.1136 366.232,125.9886 Q365.7007,125.8636 365.2163,125.8636 Q364.0445,125.8636 363.3413,126.3949 Q362.6382,126.9261 362.3413,127.8793 Q362.0445,128.8324 362.0445,130.098 Q362.0445,132.1136 362.7632,133.0824 Q363.482,134.0355 365.0757,134.0355 Q365.6695,134.0355 366.2945,133.8793 Q366.9195,133.723 367.7476,133.348 L367.7476,135.5668 Q367.0132,135.8793 366.2163,136.0355 Q365.4351,136.1918 364.6695,136.1918 Z " fill="#000000"/><text fill="#000000" font-family="sans-serif" font-size="14" lengthAdjust="spacing" textLength="153.2714" x="383.5231" y="134.7019">CreateStaffMemberDto</text><line style="stroke:#181818;stroke-width:0.5;" x1="331.75" x2="558.2452" y1="145.2699" y2="145.2699"/><ellipse cx="341.75" cy="160.3039" fill="none" rx="3" ry="3" style="stroke:#038048;stroke-width:1;"/><text fill="#000000" font-family="sans-serif" font-size="14" lengthAdjust="spacing" textLength="197.1752" x="350.75" y="164.2358">MecanographicNumber : long</text><ellipse cx="341.75" cy="179.3718" fill="none" rx="3" ry="3" style="stroke:#038048;stroke-width:1;"/><text fill="#000000" font-family="sans-serif" font-size="14" lengthAdjust="spacing" textLength="124.5715" x="350.75" y="183.3038">ShortName : string</text><ellipse cx="341.75" cy="198.4397" fill="none" rx="3" ry="3" style="stroke:#038048;stroke-width:1;"/><text fill="#000000" font-family="sans-serif" font-size="14" lengthAdjust="spacing" textLength="85.3997" x="350.75" y="202.3717">Email : string</text><ellipse cx="341.75" cy="217.5076" fill="none" rx="3" ry="3" style="stroke:#038048;stroke-width:1;"/><text fill="#000000" font-family="sans-serif" font-size="14" lengthAdjust="spacing" textLength="91.5876" x="350.75" y="221.4396">Phone : string</text><ellipse cx="341.75" cy="236.5755" fill="none" rx="3" ry="3" style="stroke:#038048;stroke-width:1;"/><text fill="#000000" font-family="sans-serif" font-size="14" lengthAdjust="spacing" textLength="202.4952" x="350.75" y="240.5075">Status : HumanResourceStatus</text><ellipse cx="341.75" cy="255.6434" fill="none" rx="3" ry="3" style="stroke:#038048;stroke-width:1;"/><text fill="#000000" font-family="sans-serif" font-size="14" lengthAdjust="spacing" textLength="114.1556" x="350.75" y="259.5754">StartHour : string</text><ellipse cx="341.75" cy="274.7114" fill="none" rx="3" ry="3" style="stroke:#038048;stroke-width:1;"/><text fill="#000000" font-family="sans-serif" font-size="14" lengthAdjust="spacing" textLength="107.7716" x="350.75" y="278.6433">EndHour : string</text><line style="stroke:#181818;stroke-width:0.5;" x1="331.75" x2="558.2452" y1="286.7453" y2="286.7453"/></g><!--class UpdateStaffMemberDto--><g id="elem_UpdateStaffMemberDto"><rect codeLine="58" fill="#F1F1F1" height="143.3396" id="UpdateStaffMemberDto" rx="2.5" ry="2.5" style="stroke:#181818;stroke-width:0.5;" width="234.5712" x="594.71" y="132.3399"/><ellipse cx="629.6773" cy="148.3399" fill="#ADD1B2" rx="11" ry="11" style="stroke:#181818;stroke-width:1;"/><path d="M629.1461,155.2618 Q627.3961,155.2618 626.2554,154.5274 Q625.1304,153.7774 624.5679,152.4336 Q624.0211,151.0743 624.0211,149.2774 Q624.0211,147.2461 624.6773,145.793 Q625.3336,144.3399 626.6148,143.5586 Q627.8961,142.7774 629.7711,142.7774 Q630.6617,142.7774 631.3336,142.9649 Q632.0054,143.1368 632.6929,143.4805 L631.8804,145.4961 Q631.2554,145.1836 630.7086,145.0586 Q630.1773,144.9336 629.6929,144.9336 Q628.5211,144.9336 627.8179,145.4649 Q627.1148,145.9961 626.8179,146.9493 Q626.5211,147.9024 626.5211,149.168 Q626.5211,151.1836 627.2398,152.1524 Q627.9586,153.1055 629.5523,153.1055 Q630.1461,153.1055 630.7711,152.9493 Q631.3961,152.793 632.2242,152.418 L632.2242,154.6368 Q631.4898,154.9493 630.6929,155.1055 Q629.9117,155.2618 629.1461,155.2618 Z " fill="#000000"/><text fill="#000000" font-family="sans-serif" font-size="14" lengthAdjust="spacing" textLength="158.1994" x="648.1145" y="153.7719">UpdateStaffMemberDto</text><line style="stroke:#181818;stroke-width:0.5;" x1="595.71" x2="828.2812" y1="164.3399" y2="164.3399"/><ellipse cx="605.71" cy="179.3739" fill="none" rx="3" ry="3" style="stroke:#038048;stroke-width:1;"/><text fill="#000000" font-family="sans-serif" font-size="14" lengthAdjust="spacing" textLength="91.4756" x="614.71" y="183.3058">Email : string?</text><ellipse cx="605.71" cy="198.4418" fill="none" rx="3" ry="3" style="stroke:#038048;stroke-width:1;"/><text fill="#000000" font-family="sans-serif" font-size="14" lengthAdjust="spacing" textLength="97.6636" x="614.71" y="202.3738">Phone : string?</text><ellipse cx="605.71" cy="217.5097" fill="none" rx="3" ry="3" style="stroke:#038048;stroke-width:1;"/><text fill="#000000" font-family="sans-serif" font-size="14" lengthAdjust="spacing" textLength="208.5712" x="614.71" y="221.4417">Status : HumanResourceStatus?</text><ellipse cx="605.71" cy="236.5776" fill="none" rx="3" ry="3" style="stroke:#038048;stroke-width:1;"/><text fill="#000000" font-family="sans-serif" font-size="14" lengthAdjust="spacing" textLength="146.9995" x="614.71" y="240.5096">StartHour : TimeSpan?</text><ellipse cx="605.71" cy="255.6455" fill="none" rx="3" ry="3" style="stroke:#038048;stroke-width:1;"/><text fill="#000000" font-family="sans-serif" font-size="14" lengthAdjust="spacing" textLength="140.6154" x="614.71" y="259.5775">EndHour : TimeSpan?</text><line style="stroke:#181818;stroke-width:0.5;" x1="595.71" x2="828.2812" y1="267.6795" y2="267.6795"/></g><!--class StaffMemberResponseDto--><g id="elem_StaffMemberResponseDto"><rect codeLine="66" fill="#F1F1F1" height="238.6792" id="StaffMemberResponseDto" rx="2.5" ry="2.5" style="stroke:#181818;stroke-width:0.5;" width="273.113" x="22.44" y="84.6699"/><ellipse cx="67.9538" cy="100.6699" fill="#ADD1B2" rx="11" ry="11" style="stroke:#181818;stroke-width:1;"/><path d="M67.4226,107.5918 Q65.6726,107.5918 64.532,106.8574 Q63.407,106.1074 62.8445,104.7636 Q62.2976,103.4043 62.2976,101.6074 Q62.2976,99.5761 62.9538,98.123 Q63.6101,96.6699 64.8913,95.8886 Q66.1726,95.1074 68.0476,95.1074 Q68.9382,95.1074 69.6101,95.2949 Q70.282,95.4668 70.9695,95.8105 L70.157,97.8261 Q69.532,97.5136 68.9851,97.3886 Q68.4538,97.2636 67.9695,97.2636 Q66.7976,97.2636 66.0945,97.7949 Q65.3913,98.3261 65.0945,99.2793 Q64.7976,100.2324 64.7976,101.498 Q64.7976,103.5136 65.5163,104.4824 Q66.2351,105.4355 67.8288,105.4355 Q68.4226,105.4355 69.0476,105.2793 Q69.6726,105.123 70.5007,104.748 L70.5007,106.9668 Q69.7663,107.2793 68.9695,107.4355 Q68.1882,107.5918 67.4226,107.5918 Z " fill="#000000"/><text fill="#000000" font-family="sans-serif" font-size="14" lengthAdjust="spacing" textLength="173.5853" x="88.4538" y="106.1019">StaffMemberResponseDto</text><line style="stroke:#181818;stroke-width:0.5;" x1="23.44" x2="294.553" y1="116.6699" y2="116.6699"/><ellipse cx="33.44" cy="131.7039" fill="none" rx="3" ry="3" style="stroke:#038048;stroke-width:1;"/><text fill="#000000" font-family="sans-serif" font-size="14" lengthAdjust="spacing" textLength="185.1493" x="42.44" y="135.6358">MecanographicNumber : int</text><ellipse cx="33.44" cy="150.7718" fill="none" rx="3" ry="3" style="stroke:#038048;stroke-width:1;"/><text fill="#000000" font-family="sans-serif" font-size="14" lengthAdjust="spacing" textLength="124.5715" x="42.44" y="154.7038">ShortName : string</text><ellipse cx="33.44" cy="169.8397" fill="none" rx="3" ry="3" style="stroke:#038048;stroke-width:1;"/><text fill="#000000" font-family="sans-serif" font-size="14" lengthAdjust="spacing" textLength="85.3997" x="42.44" y="173.7717">Email : string</text><ellipse cx="33.44" cy="188.9076" fill="none" rx="3" ry="3" style="stroke:#038048;stroke-width:1;"/><text fill="#000000" font-family="sans-serif" font-size="14" lengthAdjust="spacing" textLength="91.5876" x="42.44" y="192.8396">Phone : string</text><ellipse cx="33.44" cy="207.9755" fill="none" rx="3" ry="3" style="stroke:#038048;stroke-width:1;"/><text fill="#000000" font-family="sans-serif" font-size="14" lengthAdjust="spacing" textLength="90.4537" x="42.44" y="211.9075">Status : string</text><ellipse cx="33.44" cy="227.0434" fill="none" rx="3" ry="3" style="stroke:#038048;stroke-width:1;"/><text fill="#000000" font-family="sans-serif" font-size="14" lengthAdjust="spacing" textLength="140.0275" x="42.44" y="230.9754">StartTime : TimeSpan</text><ellipse cx="33.44" cy="246.1114" fill="none" rx="3" ry="3" style="stroke:#038048;stroke-width:1;"/><text fill="#000000" font-family="sans-serif" font-size="14" lengthAdjust="spacing" textLength="133.6435" x="42.44" y="250.0433">EndTime : TimeSpan</text><ellipse cx="33.44" cy="265.1793" fill="none" rx="3" ry="3" style="stroke:#038048;stroke-width:1;"/><text fill="#000000" font-family="sans-serif" font-size="14" lengthAdjust="spacing" textLength="247.113" x="42.44" y="269.1113">Qualifications : List&lt;QualificationDto&gt;</text><ellipse cx="33.44" cy="284.2472" fill="none" rx="3" ry="3" style="stroke:#038048;stroke-width:1;"/><text fill="#000000" font-family="sans-serif" font-size="14" lengthAdjust="spacing" textLength="140.3775" x="42.44" y="288.1792">CreatedAt : DateTime</text><ellipse cx="33.44" cy="303.3151" fill="none" rx="3" ry="3" style="stroke:#038048;stroke-width:1;"/><text fill="#000000" font-family="sans-serif" font-size="14" lengthAdjust="spacing" textLength="172.3953" x="42.44" y="307.2471">DeactivatedAt : DateTime?</text><line style="stroke:#181818;stroke-width:0.5;" x1="23.44" x2="294.553" y1="315.3491" y2="315.3491"/></g><!--class QualificationDto--><g id="elem_QualificationDto"><rect codeLine="79" fill="#F1F1F1" height="86.1358" id="QualificationDto" rx="2.5" ry="2.5" style="stroke:#181818;stroke-width:0.5;" width="139.1976" x="89.4" y="578.8899"/><ellipse cx="104.4" cy="594.8899" fill="#ADD1B2" rx="11" ry="11" style="stroke:#181818;stroke-width:1;"/><path d="M103.8688,601.8118 Q102.1188,601.8118 100.9781,601.0774 Q99.8531,600.3274 99.2906,598.9836 Q98.7438,597.6243 98.7438,595.8274 Q98.7438,593.7961 99.4,592.343 Q100.0563,590.8899 101.3375,590.1086 Q102.6188,589.3274 104.4938,589.3274 Q105.3844,589.3274 106.0563,589.5149 Q106.7281,589.6868 107.4156,590.0305 L106.6031,592.0461 Q105.9781,591.7336 105.4313,591.6086 Q104.9,591.4836 104.4156,591.4836 Q103.2438,591.4836 102.5406,592.0149 Q101.8375,592.5461 101.5406,593.4993 Q101.2438,594.4524 101.2438,595.718 Q101.2438,597.7336 101.9625,598.7024 Q102.6813,599.6555 104.275,599.6555 Q104.8688,599.6555 105.4938,599.4993 Q106.1188,599.343 106.9469,598.968 L106.9469,601.1868 Q106.2125,601.4993 105.4156,601.6555 Q104.6344,601.8118 103.8688,601.8118 Z " fill="#000000"/><text fill="#000000" font-family="sans-serif" font-size="14" lengthAdjust="spacing" textLength="107.1976" x="118.4" y="600.3219">QualificationDto</text><line style="stroke:#181818;stroke-width:0.5;" x1="90.4" x2="227.5976" y1="610.8899" y2="610.8899"/><ellipse cx="100.4" cy="625.9239" fill="none" rx="3" ry="3" style="stroke:#038048;stroke-width:1;"/><text fill="#000000" font-family="sans-serif" font-size="14" lengthAdjust="spacing" textLength="55.4538" x="109.4" y="629.8558">Id : Guid</text><ellipse cx="100.4" cy="644.9918" fill="none" rx="3" ry="3" style="stroke:#038048;stroke-width:1;"/><text fill="#000000" font-family="sans-serif" font-size="14" lengthAdjust="spacing" textLength="88.9277" x="109.4" y="648.9238">Name : string</text><line style="stroke:#181818;stroke-width:0.5;" x1="90.4" x2="227.5976" y1="657.0257" y2="657.0257"/></g><!--class StaffMemberRepository--><g id="elem_StaffMemberRepository"><rect codeLine="86" fill="#F1F1F1" height="105.2038" id="StaffMemberRepository" rx="2.5" ry="2.5" style="stroke:#181818;stroke-width:0.5;" width="470.5682" x="884.72" y="151.4099"/><ellipse cx="1037.4314" cy="167.4099" fill="#ADD1B2" rx="11" ry="11" style="stroke:#181818;stroke-width:1;"/><path d="M1036.9001,174.3318 Q1035.1501,174.3318 1034.0095,173.5974 Q1032.8845,172.8474 1032.322,171.5036 Q1031.7751,170.1443 1031.7751,168.3474 Q1031.7751,166.3161 1032.4314,164.863 Q1033.0876,163.4099 1034.3689,162.6286 Q1035.6501,161.8474 1037.5251,161.8474 Q1038.4158,161.8474 1039.0876,162.0349 Q1039.7595,162.2068 1040.447,162.5505 L1039.6345,164.5661 Q1039.0095,164.2536 1038.4626,164.1286 Q1037.9314,164.0036 1037.447,164.0036 Q1036.2751,164.0036 1035.572,164.5349 Q1034.8689,165.0661 1034.572,166.0193 Q1034.2751,166.9724 1034.2751,168.238 Q1034.2751,170.2536 1034.9939,171.2224 Q1035.7126,172.1755 1037.3064,172.1755 Q1037.9001,172.1755 1038.5251,172.0193 Q1039.1501,171.863 1039.9783,171.488 L1039.9783,173.7068 Q1039.2439,174.0193 1038.447,174.1755 Q1037.6658,174.3318 1036.9001,174.3318 Z " fill="#000000"/><text fill="#000000" font-family="sans-serif" font-size="14" lengthAdjust="spacing" textLength="156.6454" x="1057.9314" y="172.8419">StaffMemberRepository</text><line style="stroke:#181818;stroke-width:0.5;" x1="885.72" x2="1354.2882" y1="183.4099" y2="183.4099"/><line style="stroke:#181818;stroke-width:0.5;" x1="885.72" x2="1354.2882" y1="191.4099" y2="191.4099"/><ellipse cx="895.72" cy="206.4439" fill="#84BE84" rx="3" ry="3" style="stroke:#038048;stroke-width:1;"/><text fill="#000000" font-family="sans-serif" font-size="14" lengthAdjust="spacing" textLength="444.5682" x="904.72" y="210.3758">GetByMecanographicNumberAsync(number) : Task&lt;StaffMember?&gt;</text><ellipse cx="895.72" cy="225.5118" fill="#84BE84" rx="3" ry="3" style="stroke:#038048;stroke-width:1;"/><text fill="#000000" font-family="sans-serif" font-size="14" lengthAdjust="spacing" textLength="348.7667" x="904.72" y="229.4438">GetByStatusAsync(status) : Task&lt;List&lt;StaffMember&gt;&gt;</text><ellipse cx="895.72" cy="244.5797" fill="#84BE84" rx="3" ry="3" style="stroke:#038048;stroke-width:1;"/><text fill="#000000" font-family="sans-serif" font-size="14" lengthAdjust="spacing" textLength="222.5431" x="904.72" y="248.5117">ExistsAsync(number) : Task&lt;bool&gt;</text></g><!--link StaffMember to HumanResourceStatus--><g id="link_StaffMember_HumanResourceStatus"><path codeLine="93" d="M1162.05,817.9399 C1174.91,847.0599 1184.7186,869.2902 1194.5986,891.6902 " fill="none" id="StaffMember-to-HumanResourceStatus" style="stroke:#181818;stroke-width:1;"/><polygon fill="#181818" points="1197.02,897.1799,1197.0478,887.3311,1195.0022,892.6051,1189.7281,890.5596,1197.02,897.1799" style="stroke:#181818;stroke-width:1;"/></g><!--link StaffMember to EntityActiveStatus--><g id="link_StaffMember_EntityActiveStatus"><path codeLine="94" d="M1267.69,790.6399 C1317.01,833.7799 1361.3237,872.5498 1395.8637,902.7598 " fill="none" id="StaffMember-to-EntityActiveStatus" style="stroke:#181818;stroke-width:1;"/><polygon fill="#181818" points="1400.38,906.7099,1396.239,897.7739,1396.6164,903.4181,1390.9722,903.7956,1400.38,906.7099" style="stroke:#181818;stroke-width:1;"/></g><!--reverse link StaffMember to StaffMemberQualification--><g id="link_StaffMember_StaffMemberQualification"><path codeLine="95" d="M1019.0264,829.5071 C1013.1264,850.8771 1010.64,859.9199 1005.59,878.2199 " fill="none" id="StaffMember-backto-StaffMemberQualification" style="stroke:#181818;stroke-width:1;"/><polygon fill="#181818" points="1022.22,817.9399,1016.7675,822.659,1019.0264,829.5071,1024.479,824.788,1022.22,817.9399" style="stroke:#181818;stroke-width:1;"/></g><!--link StaffMemberRepository to StaffMember--><g id="link_StaffMemberRepository_StaffMember"><path codeLine="96" d="M1114.52,256.8499 C1109.97,299.8599 1103.832,357.9033 1097.222,420.3033 " fill="none" id="StaffMemberRepository-to-StaffMember" style="stroke:#181818;stroke-width:1;stroke-dasharray:7.0,7.0;"/><polygon fill="#181818" points="1096.59,426.2699,1101.5158,417.7413,1097.1167,421.2977,1093.5603,416.8986,1096.59,426.2699" style="stroke:#181818;stroke-width:1;"/><text fill="#000000" font-family="sans-serif" font-size="13" lengthAdjust="spacing" textLength="56.329" x="1104.23" y="368.2469">manages</text></g><!--link CreateStaffMemberDto to StaffMember--><g id="link_CreateStaffMemberDto_StaffMember"><path codeLine="97" d="M533.5,294.9899 C547.27,305.7299 561.95,315.6099 577,323.3499 C666.08,369.1599 698.67,353.2199 797,372.3499 C818.23,376.4799 825.87,370.2599 845,380.3499 C868.56,392.7799 886.4808,404.6927 907.6308,422.1327 " fill="none" id="CreateStaffMemberDto-to-StaffMember" style="stroke:#181818;stroke-width:1;stroke-dasharray:7.0,7.0;"/><polygon fill="#181818" points="912.26,425.9499,907.861,417.138,908.4024,422.7689,902.7715,423.3103,912.26,425.9499" style="stroke:#181818;stroke-width:1;"/><text fill="#000000" font-family="sans-serif" font-size="13" lengthAdjust="spacing" textLength="44.486" x="798" y="368.2469">creates</text></g><!--link UpdateStaffMemberDto to StaffMember--><g id="link_UpdateStaffMemberDto_StaffMember"><path codeLine="98" d="M774.16,276.0399 C810.61,317.6899 854.6486,368.0148 901.6086,421.6748 " fill="none" id="UpdateStaffMemberDto-to-StaffMember" style="stroke:#181818;stroke-width:1;stroke-dasharray:7.0,7.0;"/><polygon fill="#181818" points="905.56,426.1899,902.643,416.7829,902.2672,422.4273,896.6228,422.0514,905.56,426.1899" style="stroke:#181818;stroke-width:1;"/><text fill="#000000" font-family="sans-serif" font-size="13" lengthAdjust="spacing" textLength="49.569" x="851.69" y="368.2469">updates</text></g><!--link StaffMemberResponseDto to StaffMember--><g id="link_StaffMemberResponseDto_StaffMember"><path codeLine="99" d="M295.97,315.0699 C301.61,318.0499 307.3,320.8199 313,323.3499 C425.74,373.2099 463.4,359.5199 586,372.3499 C614.64,375.3399 818.69,368.6499 845,380.3499 C870.93,391.8699 890.7183,404.0349 913.3383,422.2649 " fill="none" id="StaffMemberResponseDto-to-StaffMember" style="stroke:#181818;stroke-width:1;stroke-dasharray:7.0,7.0;"/><polygon fill="#181818" points="918.01,426.0299,913.5125,417.2679,914.1169,422.8924,908.4925,423.4968,918.01,426.0299" style="stroke:#181818;stroke-width:1;"/><text fill="#000000" font-family="sans-serif" font-size="13" lengthAdjust="spacing" textLength="65.91" x="587" y="368.2469">represents</text></g><!--reverse link StaffMemberResponseDto to QualificationDto--><g id="link_StaffMemberResponseDto_QualificationDto"><path codeLine="100" d="M159,335.6499 C159,421.0099 159,519.1699 159,578.5299 " fill="none" id="StaffMemberResponseDto-backto-QualificationDto" style="stroke:#181818;stroke-width:1;"/><polygon fill="#181818" points="159,323.6499,155,329.6499,159,335.6499,163,329.6499,159,323.6499" style="stroke:#181818;stroke-width:1;"/></g><!--SRC=[pLR1Rjim3BtxAuITqZKEq1wB8e6R6As19EsSjCM00ODgCubGM_8akMWmzDydItPcsJ9wsM6N92GVHVA9f2A9p03DCom4MX2yvpX7y9u0BoJoqUC6NKuk9nSNA8Oz4H8umZH5Aqpn7j16ujqEhI1_0Iuyhy39QwN-SbVccCOWMCaJ45_GRm-XH4VG7iP1Qn4wNq62ALDnYmD9rgKsNQ6CqRsnRmwCopNEGMc5vAJHXpacMKVtS62qYrCXPIcKqihAQ0qYI2Hv8_9uGePKAb6hBQ3wpUMTybUOBSbXKs1Q9qDJf_vRYJEo8mcMXD7gw6ZEiWoIIhnkaM7XfjhNz_rJr0OsoljaZP5e61h_e0WgMiQeg9XG9fsz_ZQPZn6OLC_gsjFKYZtwrPPgK0mvUuFFSOz5YYNC6PKuaH7TiL4x6mjqNm3NhZWp38zCgXQeVGCZt18ir3FZh-gsgwBqAUv28_5Cv85G2rsvLnTsfcxcXR5CGJyyzG6qp5tzKlTiy1H4o-1c6MhfSMtBst3rS1y7SRJy_ZCEWyqckbs7Y-RetXnOj3P34QKgezkIfBqMq9Q_qs5vTxmicsE20Y78da8QI6LOr5JeF3zQmpndUSwe6MBDItyw6bhcs-Z9S12jJu9zsc9xRos4EGSLk5NVGhB_PpEq1zwAS1htaxPrkQOjtJNPkSrSoSq-psusl8zcGmjfDjY1wkn2RIVub7f2vJzclgFaiihMjLsT-jvsNQedwjhIgfhCEZqtdTPhTcLPWDujFMk7iUwv0xFQfSNkVxKLELQsCf4bXu6dCOQ22I8PFpOnRa7U71sN4eWZJKPK_wwMs1QBr_QxCfks_0thngNUjesB9gxbDwtzmdTb4CuerRwSDlMrttNVdpedgejnlB9jo5VV7roJdfkioMHg_SEuGhd-eo8yvvhfmnCD4vvpWllmKiE4Dp1BVGSE1GS1L0xwL5Lt6ytx0m00]--></g></svg>