<svg xmlns="http://www.w3.org/2000/svg" xmlns:xlink="http://www.w3.org/1999/xlink" contentStyleType="text/css" height="697px" preserveAspectRatio="none" style="width:385px;height:697px;background:#FFFFFF;" version="1.1" viewBox="0 0 385 697" width="385px" zoomAndPan="magnify"><title>SSD - Deactivate Staff Member (US 2.2.11)</title><defs/><g><text fill="#000000" font-family="sans-serif" font-size="14" font-weight="bold" lengthAdjust="spacing" textLength="286.6629" x="45.663" y="29.9659">SSD - Deactivate Staff Member (US 2.2.11)</text><rect fill="none" height="166.4939" style="stroke:#000000;stroke-width:1.5;" width="358.9889" x="10" y="172.8419"/><rect fill="none" height="166.4939" style="stroke:#000000;stroke-width:1.5;" width="358.9889" x="10" y="430.7477"/><line style="stroke:#181818;stroke-width:0.5;stroke-dasharray:5.0,5.0;" x1="83" x2="83" y1="124.1358" y2="614.2416"/><line style="stroke:#181818;stroke-width:0.5;stroke-dasharray:5.0,5.0;" x1="327.417" x2="327.417" y1="124.1358" y2="614.2416"/><text fill="#000000" font-family="sans-serif" font-size="14" lengthAdjust="spacing" textLength="120.8476" x="20" y="120.0339">Logistics Operator</text><ellipse cx="83.4238" cy="53.5679" fill="#E2E2F0" rx="8" ry="8" style="stroke:#181818;stroke-width:0.5;"/><path d="M83.4238,61.5679 L83.4238,88.5679 M70.4238,69.5679 L96.4238,69.5679 M83.4238,88.5679 L70.4238,103.5679 M83.4238,88.5679 L96.4238,103.5679 " fill="none" style="stroke:#181818;stroke-width:0.5;"/><text fill="#000000" font-family="sans-serif" font-size="14" lengthAdjust="spacing" textLength="120.8476" x="20" y="628.2075">Logistics Operator</text><ellipse cx="83.4238" cy="640.8095" fill="#E2E2F0" rx="8" ry="8" style="stroke:#181818;stroke-width:0.5;"/><path d="M83.4238,648.8095 L83.4238,675.8095 M70.4238,656.8095 L96.4238,656.8095 M83.4238,675.8095 L70.4238,690.8095 M83.4238,675.8095 L96.4238,690.8095 " fill="none" style="stroke:#181818;stroke-width:0.5;"/><rect fill="#E2E2F0" height="33.0679" rx="2.5" ry="2.5" style="stroke:#181818;stroke-width:0.5;" width="61.5718" x="297.417" y="90.0679"/><text fill="#000000" font-family="sans-serif" font-size="14" lengthAdjust="spacing" textLength="47.5718" x="304.417" y="112.0339">System</text><rect fill="#E2E2F0" height="33.0679" rx="2.5" ry="2.5" style="stroke:#181818;stroke-width:0.5;" width="61.5718" x="297.417" y="613.2416"/><text fill="#000000" font-family="sans-serif" font-size="14" lengthAdjust="spacing" textLength="47.5718" x="304.417" y="635.2075">System</text><polygon fill="#181818" points="316.203,153.8419,326.203,157.8419,316.203,161.8419,320.203,157.8419" style="stroke:#181818;stroke-width:1;"/><line style="stroke:#181818;stroke-width:1;" x1="83.4238" x2="322.203" y1="157.8419" y2="157.8419"/><text fill="#000000" font-family="sans-serif" font-size="13" lengthAdjust="spacing" textLength="201.8642" x="90.4238" y="152.0328">Deactivate Staff Member (staffId)</text><path d="M10,172.8419 L72.303,172.8419 L72.303,182.5479 L62.303,192.5479 L10,192.5479 L10,172.8419 " fill="#EEEEEE" style="stroke:#000000;stroke-width:1.5;"/><rect fill="none" height="166.4939" style="stroke:#000000;stroke-width:1.5;" width="358.9889" x="10" y="172.8419"/><text fill="#000000" font-family="sans-serif" font-size="13" font-weight="bold" lengthAdjust="spacing" textLength="17.303" x="25" y="187.7389">alt</text><text fill="#000000" font-family="sans-serif" font-size="11" font-weight="bold" lengthAdjust="spacing" textLength="139.435" x="87.303" y="186.6008">[Staff member not found]</text><polygon fill="#181818" points="94.4238,212.2539,84.4238,216.2539,94.4238,220.2539,90.4238,216.2539" style="stroke:#181818;stroke-width:1;"/><line style="stroke:#181818;stroke-width:1;stroke-dasharray:2.0,2.0;" x1="88.4238" x2="327.203" y1="216.2539" y2="216.2539"/><text fill="#000000" font-family="sans-serif" font-size="13" lengthAdjust="spacing" textLength="185.6012" x="100.4238" y="210.4449">Error: Staff member not found</text><line style="stroke:#000000;stroke-width:1;stroke-dasharray:2.0,2.0;" x1="10" x2="368.9889" y1="225.2539" y2="225.2539"/><text fill="#000000" font-family="sans-serif" font-size="11" font-weight="bold" lengthAdjust="spacing" textLength="95.9523" x="15" y="237.0128">[Already inactive]</text><polygon fill="#181818" points="94.4238,260.9418,84.4238,264.9418,94.4238,268.9418,90.4238,264.9418" style="stroke:#181818;stroke-width:1;"/><line style="stroke:#181818;stroke-width:1;stroke-dasharray:2.0,2.0;" x1="88.4238" x2="327.203" y1="264.9418" y2="264.9418"/><text fill="#000000" font-family="sans-serif" font-size="13" lengthAdjust="spacing" textLength="220.7792" x="100.4238" y="259.1328">Error: Staff member already inactive</text><line style="stroke:#000000;stroke-width:1;stroke-dasharray:2.0,2.0;" x1="10" x2="368.9889" y1="273.9418" y2="273.9418"/><text fill="#000000" font-family="sans-serif" font-size="11" font-weight="bold" lengthAdjust="spacing" textLength="49.4557" x="15" y="285.7007">[Success]</text><polygon fill="#181818" points="94.4238,327.3357,84.4238,331.3357,94.4238,335.3357,90.4238,331.3357" style="stroke:#181818;stroke-width:1;"/><line style="stroke:#181818;stroke-width:1;stroke-dasharray:2.0,2.0;" x1="88.4238" x2="327.203" y1="331.3357" y2="331.3357"/><text fill="#000000" font-family="sans-serif" font-size="13" lengthAdjust="spacing" textLength="157.9891" x="100.4238" y="307.8207">Staff member deactivated</text><text fill="#000000" font-family="sans-serif" font-size="13" lengthAdjust="spacing" textLength="161.4212" x="100.4238" y="325.5267">(ActivityStatus = INACTIVE)</text><rect fill="#EEEEEE" height="3" style="stroke:#EEEEEE;stroke-width:1;" width="378.9889" x="0" y="368.1887"/><line style="stroke:#000000;stroke-width:1;" x1="0" x2="378.9889" y1="368.1887" y2="368.1887"/><line style="stroke:#000000;stroke-width:1;" x1="0" x2="378.9889" y1="371.1887" y2="371.1887"/><rect fill="#EEEEEE" height="25.706" style="stroke:#000000;stroke-width:2;" width="178.2031" x="100.3929" y="356.3357"/><text fill="#000000" font-family="sans-serif" font-size="13" font-weight="bold" lengthAdjust="spacing" textLength="160.8231" x="106.3929" y="374.2327">Reactivate Staff Member</text><polygon fill="#181818" points="316.203,411.7477,326.203,415.7477,316.203,419.7477,320.203,415.7477" style="stroke:#181818;stroke-width:1;"/><line style="stroke:#181818;stroke-width:1;" x1="83.4238" x2="322.203" y1="415.7477" y2="415.7477"/><text fill="#000000" font-family="sans-serif" font-size="13" lengthAdjust="spacing" textLength="200.4602" x="90.4238" y="409.9387">Reactivate Staff Member (staffId)</text><path d="M10,430.7477 L72.303,430.7477 L72.303,440.4538 L62.303,450.4538 L10,450.4538 L10,430.7477 " fill="#EEEEEE" style="stroke:#000000;stroke-width:1.5;"/><rect fill="none" height="166.4939" style="stroke:#000000;stroke-width:1.5;" width="358.9889" x="10" y="430.7477"/><text fill="#000000" font-family="sans-serif" font-size="13" font-weight="bold" lengthAdjust="spacing" textLength="17.303" x="25" y="445.6448">alt</text><text fill="#000000" font-family="sans-serif" font-size="11" font-weight="bold" lengthAdjust="spacing" textLength="139.435" x="87.303" y="444.5067">[Staff member not found]</text><polygon fill="#181818" points="94.4238,470.1598,84.4238,474.1598,94.4238,478.1598,90.4238,474.1598" style="stroke:#181818;stroke-width:1;"/><line style="stroke:#181818;stroke-width:1;stroke-dasharray:2.0,2.0;" x1="88.4238" x2="327.203" y1="474.1598" y2="474.1598"/><text fill="#000000" font-family="sans-serif" font-size="13" lengthAdjust="spacing" textLength="185.6012" x="100.4238" y="468.3508">Error: Staff member not found</text><line style="stroke:#000000;stroke-width:1;stroke-dasharray:2.0,2.0;" x1="10" x2="368.9889" y1="483.1598" y2="483.1598"/><text fill="#000000" font-family="sans-serif" font-size="11" font-weight="bold" lengthAdjust="spacing" textLength="85.5134" x="15" y="494.9187">[Already active]</text><polygon fill="#181818" points="94.4238,518.8477,84.4238,522.8477,94.4238,526.8477,90.4238,522.8477" style="stroke:#181818;stroke-width:1;"/><line style="stroke:#181818;stroke-width:1;stroke-dasharray:2.0,2.0;" x1="88.4238" x2="327.203" y1="522.8477" y2="522.8477"/><text fill="#000000" font-family="sans-serif" font-size="13" lengthAdjust="spacing" textLength="209.3912" x="100.4238" y="517.0387">Error: Staff member already active</text><line style="stroke:#000000;stroke-width:1;stroke-dasharray:2.0,2.0;" x1="10" x2="368.9889" y1="531.8477" y2="531.8477"/><text fill="#000000" font-family="sans-serif" font-size="11" font-weight="bold" lengthAdjust="spacing" textLength="49.4557" x="15" y="543.6066">[Success]</text><polygon fill="#181818" points="94.4238,585.2416,84.4238,589.2416,94.4238,593.2416,90.4238,589.2416" style="stroke:#181818;stroke-width:1;"/><line style="stroke:#181818;stroke-width:1;stroke-dasharray:2.0,2.0;" x1="88.4238" x2="327.203" y1="589.2416" y2="589.2416"/><text fill="#000000" font-family="sans-serif" font-size="13" lengthAdjust="spacing" textLength="155.3631" x="100.4238" y="565.7266">Staff member reactivated</text><text fill="#000000" font-family="sans-serif" font-size="13" lengthAdjust="spacing" textLength="147.1342" x="100.4238" y="583.4326">(ActivityStatus = ACTIVE)</text><!--SRC=[nP0xQyGm48Hx_Oh1rRdmmLrfSC3ahZ3a0QSaLHh5MWU1BHbf7V2_Zyxto8CuaAH8jxip-sarRBWbIBb1XWsfcisBuZXWrJIufkw9F1Rt4klbUhbQfK94Y_D8hjop2MpgWDkUl8gp1Egj4RtoKJMzien4Ze6fcmo7KeYJ4Td5SOPy_e2mxogT2jNoKUeEadMCnWrM2vmuMKIUyJcstZkVpsrH6mXbwqdf4SPExzEFMEhpyeIKGrrJ2BEa3mXz_hT-j8joNniUeuM7W0BLJNbvLpriKq7nOb4KsCq4LHHV1xlxvs3_4EklG_NVX_e-qbS0]--></g></svg>