<svg xmlns="http://www.w3.org/2000/svg" xmlns:xlink="http://www.w3.org/1999/xlink" contentStyleType="text/css" height="1117px" preserveAspectRatio="none" style="width:443px;height:1117px;background:#FFFFFF;" version="1.1" viewBox="0 0 443 1117" width="443px" zoomAndPan="magnify"><title>SSD - Create / Update Staff Member (US 2.2.11)</title><defs/><g><text fill="#000000" font-family="sans-serif" font-size="14" font-weight="bold" lengthAdjust="spacing" textLength="321.9848" x="56.6571" y="29.9659">SSD - Create / Update Staff Member (US 2.2.11)</text><rect fill="none" height="148.7878" style="stroke:#000000;stroke-width:1.5;" width="396.299" x="20" y="253.9599"/><rect fill="none" height="183.218" style="stroke:#000000;stroke-width:1.5;" width="416.299" x="10" y="462.4538"/><rect fill="none" height="100.0999" style="stroke:#000000;stroke-width:1.5;" width="396.299" x="20" y="538.5718"/><rect fill="none" height="100.0999" style="stroke:#000000;stroke-width:1.5;" width="396.299" x="20" y="772.4958"/><line style="stroke:#181818;stroke-width:0.5;stroke-dasharray:5.0,5.0;" x1="93" x2="93" y1="124.1358" y2="1034.1258"/><line style="stroke:#181818;stroke-width:0.5;stroke-dasharray:5.0,5.0;" x1="374.7272" x2="374.7272" y1="124.1358" y2="1034.1258"/><text fill="#000000" font-family="sans-serif" font-size="14" lengthAdjust="spacing" textLength="120.8476" x="30" y="120.0339">Logistics Operator</text><ellipse cx="93.4238" cy="53.5679" fill="#E2E2F0" rx="8" ry="8" style="stroke:#181818;stroke-width:0.5;"/><path d="M93.4238,61.5679 L93.4238,88.5679 M80.4238,69.5679 L106.4238,69.5679 M93.4238,88.5679 L80.4238,103.5679 M93.4238,88.5679 L106.4238,103.5679 " fill="none" style="stroke:#181818;stroke-width:0.5;"/><text fill="#000000" font-family="sans-serif" font-size="14" lengthAdjust="spacing" textLength="120.8476" x="30" y="1048.0918">Logistics Operator</text><ellipse cx="93.4238" cy="1060.6937" fill="#E2E2F0" rx="8" ry="8" style="stroke:#181818;stroke-width:0.5;"/><path d="M93.4238,1068.6937 L93.4238,1095.6937 M80.4238,1076.6937 L106.4238,1076.6937 M93.4238,1095.6937 L80.4238,1110.6937 M93.4238,1095.6937 L106.4238,1110.6937 " fill="none" style="stroke:#181818;stroke-width:0.5;"/><rect fill="#E2E2F0" height="33.0679" rx="2.5" ry="2.5" style="stroke:#181818;stroke-width:0.5;" width="61.5718" x="344.7272" y="90.0679"/><text fill="#000000" font-family="sans-serif" font-size="14" lengthAdjust="spacing" textLength="47.5718" x="351.7272" y="112.0339">System</text><rect fill="#E2E2F0" height="33.0679" rx="2.5" ry="2.5" style="stroke:#181818;stroke-width:0.5;" width="61.5718" x="344.7272" y="1033.1258"/><text fill="#000000" font-family="sans-serif" font-size="14" lengthAdjust="spacing" textLength="47.5718" x="351.7272" y="1055.0918">System</text><rect fill="#EEEEEE" height="3" style="stroke:#EEEEEE;stroke-width:1;" width="436.299" x="0" y="155.9888"/><line style="stroke:#000000;stroke-width:1;" x1="0" x2="436.299" y1="155.9888" y2="155.9888"/><line style="stroke:#000000;stroke-width:1;" x1="0" x2="436.299" y1="158.9888" y2="158.9888"/><rect fill="#EEEEEE" height="25.706" style="stroke:#000000;stroke-width:2;" width="152.3851" x="141.9569" y="144.1358"/><text fill="#000000" font-family="sans-serif" font-size="13" font-weight="bold" lengthAdjust="spacing" textLength="135.0051" x="147.9569" y="162.0328">Create Staff Member</text><polygon fill="#181818" points="363.5131,234.9599,373.5131,238.9599,363.5131,242.9599,367.5131,238.9599" style="stroke:#181818;stroke-width:1;"/><line style="stroke:#181818;stroke-width:1;" x1="93.4238" x2="369.5131" y1="238.9599" y2="238.9599"/><text fill="#000000" font-family="sans-serif" font-size="13" lengthAdjust="spacing" textLength="127.0361" x="100.4238" y="197.7389">Create Staff Member</text><text fill="#000000" font-family="sans-serif" font-size="13" lengthAdjust="spacing" textLength="229.0602" x="100.4238" y="215.4449">(mecanographicNumber, shortName,</text><text fill="#000000" font-family="sans-serif" font-size="13" lengthAdjust="spacing" textLength="254.7093" x="103.8038" y="233.1509">email, phone, status, startHour, endHour)</text><path d="M20,253.9599 L82.303,253.9599 L82.303,263.6659 L72.303,273.6659 L20,273.6659 L20,253.9599 " fill="#EEEEEE" style="stroke:#000000;stroke-width:1.5;"/><rect fill="none" height="148.7878" style="stroke:#000000;stroke-width:1.5;" width="396.299" x="20" y="253.9599"/><text fill="#000000" font-family="sans-serif" font-size="13" font-weight="bold" lengthAdjust="spacing" textLength="17.303" x="35" y="268.8569">alt</text><text fill="#000000" font-family="sans-serif" font-size="11" font-weight="bold" lengthAdjust="spacing" textLength="217.2814" x="97.303" y="267.7188">[Mecanographic number already exists]</text><polygon fill="#181818" points="104.4238,293.3719,94.4238,297.3719,104.4238,301.3719,100.4238,297.3719" style="stroke:#181818;stroke-width:1;"/><line style="stroke:#181818;stroke-width:1;stroke-dasharray:2.0,2.0;" x1="98.4238" x2="374.5131" y1="297.3719" y2="297.3719"/><text fill="#000000" font-family="sans-serif" font-size="13" lengthAdjust="spacing" textLength="246.7272" x="110.4238" y="291.5629">Error: Duplicate mecanographic number</text><line style="stroke:#000000;stroke-width:1;stroke-dasharray:2.0,2.0;" x1="20" x2="416.299" y1="306.3719" y2="306.3719"/><text fill="#000000" font-family="sans-serif" font-size="11" font-weight="bold" lengthAdjust="spacing" textLength="191.9266" x="25" y="318.1308">[Invalid data (email, phone, hours)]</text><polygon fill="#181818" points="104.4238,342.0598,94.4238,346.0598,104.4238,350.0598,100.4238,346.0598" style="stroke:#181818;stroke-width:1;"/><line style="stroke:#181818;stroke-width:1;stroke-dasharray:2.0,2.0;" x1="98.4238" x2="374.5131" y1="346.0598" y2="346.0598"/><text fill="#000000" font-family="sans-serif" font-size="13" lengthAdjust="spacing" textLength="136.2791" x="110.4238" y="340.2508">Error: Validation failed</text><line style="stroke:#000000;stroke-width:1;stroke-dasharray:2.0,2.0;" x1="20" x2="416.299" y1="355.0598" y2="355.0598"/><text fill="#000000" font-family="sans-serif" font-size="11" font-weight="bold" lengthAdjust="spacing" textLength="49.4557" x="25" y="366.8187">[Success]</text><polygon fill="#181818" points="104.4238,390.7477,94.4238,394.7477,104.4238,398.7477,100.4238,394.7477" style="stroke:#181818;stroke-width:1;"/><line style="stroke:#181818;stroke-width:1;stroke-dasharray:2.0,2.0;" x1="98.4238" x2="374.5131" y1="394.7477" y2="394.7477"/><text fill="#000000" font-family="sans-serif" font-size="13" lengthAdjust="spacing" textLength="155.9481" x="110.4238" y="388.9387">Staff member created (id)</text><rect fill="#EEEEEE" height="3" style="stroke:#EEEEEE;stroke-width:1;" width="436.299" x="0" y="431.6007"/><line style="stroke:#000000;stroke-width:1;" x1="0" x2="436.299" y1="431.6007" y2="431.6007"/><line style="stroke:#000000;stroke-width:1;" x1="0" x2="436.299" y1="434.6007" y2="434.6007"/><rect fill="#EEEEEE" height="25.706" style="stroke:#000000;stroke-width:2;" width="136.5121" x="149.8934" y="419.7477"/><text fill="#000000" font-family="sans-serif" font-size="13" font-weight="bold" lengthAdjust="spacing" textLength="119.1321" x="155.8934" y="437.6448">Add Qualifications</text><path d="M10,462.4538 L83.34,462.4538 L83.34,472.1598 L73.34,482.1598 L10,482.1598 L10,462.4538 " fill="#EEEEEE" style="stroke:#000000;stroke-width:1.5;"/><rect fill="none" height="183.218" style="stroke:#000000;stroke-width:1.5;" width="416.299" x="10" y="462.4538"/><text fill="#000000" font-family="sans-serif" font-size="13" font-weight="bold" lengthAdjust="spacing" textLength="28.34" x="25" y="477.3508">loop</text><text fill="#000000" font-family="sans-serif" font-size="11" font-weight="bold" lengthAdjust="spacing" textLength="125.9711" x="98.34" y="476.2127">[For each qualification]</text><polygon fill="#181818" points="363.5131,519.5718,373.5131,523.5718,363.5131,527.5718,367.5131,523.5718" style="stroke:#181818;stroke-width:1;"/><line style="stroke:#181818;stroke-width:1;" x1="93.4238" x2="369.5131" y1="523.5718" y2="523.5718"/><text fill="#000000" font-family="sans-serif" font-size="13" lengthAdjust="spacing" textLength="105.1701" x="100.4238" y="500.0568">Add Qualification</text><text fill="#000000" font-family="sans-serif" font-size="13" lengthAdjust="spacing" textLength="141.9601" x="100.4238" y="517.7628">(staffId, qualificationId)</text><path d="M20,538.5718 L82.303,538.5718 L82.303,548.2778 L72.303,558.2778 L20,558.2778 L20,538.5718 " fill="#EEEEEE" style="stroke:#000000;stroke-width:1.5;"/><rect fill="none" height="100.0999" style="stroke:#000000;stroke-width:1.5;" width="396.299" x="20" y="538.5718"/><text fill="#000000" font-family="sans-serif" font-size="13" font-weight="bold" lengthAdjust="spacing" textLength="17.303" x="35" y="553.4688">alt</text><text fill="#000000" font-family="sans-serif" font-size="11" font-weight="bold" lengthAdjust="spacing" textLength="173.6227" x="97.303" y="552.3307">[Qualification already assigned]</text><polygon fill="#181818" points="104.4238,577.9838,94.4238,581.9838,104.4238,585.9838,100.4238,581.9838" style="stroke:#181818;stroke-width:1;"/><line style="stroke:#181818;stroke-width:1;stroke-dasharray:2.0,2.0;" x1="98.4238" x2="374.5131" y1="581.9838" y2="581.9838"/><text fill="#000000" font-family="sans-serif" font-size="13" lengthAdjust="spacing" textLength="174.5642" x="110.4238" y="576.1748">Error: Duplicate qualification</text><line style="stroke:#000000;stroke-width:1;stroke-dasharray:2.0,2.0;" x1="20" x2="416.299" y1="590.9838" y2="590.9838"/><text fill="#000000" font-family="sans-serif" font-size="11" font-weight="bold" lengthAdjust="spacing" textLength="49.4557" x="25" y="602.7428">[Success]</text><polygon fill="#181818" points="104.4238,626.6717,94.4238,630.6717,104.4238,634.6717,100.4238,630.6717" style="stroke:#181818;stroke-width:1;"/><line style="stroke:#181818;stroke-width:1;stroke-dasharray:2.0,2.0;" x1="98.4238" x2="374.5131" y1="630.6717" y2="630.6717"/><text fill="#000000" font-family="sans-serif" font-size="13" lengthAdjust="spacing" textLength="119.4831" x="110.4238" y="624.8627">Qualification added</text><rect fill="#EEEEEE" height="3" style="stroke:#EEEEEE;stroke-width:1;" width="436.299" x="0" y="674.5248"/><line style="stroke:#000000;stroke-width:1;" x1="0" x2="436.299" y1="674.5248" y2="674.5248"/><line style="stroke:#000000;stroke-width:1;" x1="0" x2="436.299" y1="677.5248" y2="677.5248"/><rect fill="#EEEEEE" height="25.706" style="stroke:#000000;stroke-width:2;" width="156.7271" x="139.7859" y="662.6717"/><text fill="#000000" font-family="sans-serif" font-size="13" font-weight="bold" lengthAdjust="spacing" textLength="139.3471" x="145.7859" y="680.5688">Update Staff Member</text><polygon fill="#181818" points="363.5131,753.4958,373.5131,757.4958,363.5131,761.4958,367.5131,757.4958" style="stroke:#181818;stroke-width:1;"/><line style="stroke:#181818;stroke-width:1;" x1="93.4238" x2="369.5131" y1="757.4958" y2="757.4958"/><text fill="#000000" font-family="sans-serif" font-size="13" lengthAdjust="spacing" textLength="131.6121" x="100.4238" y="716.2748">Update Staff Member</text><text fill="#000000" font-family="sans-serif" font-size="13" lengthAdjust="spacing" textLength="194.3762" x="100.4238" y="733.9808">(staffId, email?, phone?, status?,</text><text fill="#000000" font-family="sans-serif" font-size="13" lengthAdjust="spacing" textLength="135.4861" x="103.8038" y="751.6868">startHour?, endHour?)</text><path d="M20,772.4958 L82.303,772.4958 L82.303,782.2018 L72.303,792.2018 L20,792.2018 L20,772.4958 " fill="#EEEEEE" style="stroke:#000000;stroke-width:1.5;"/><rect fill="none" height="100.0999" style="stroke:#000000;stroke-width:1.5;" width="396.299" x="20" y="772.4958"/><text fill="#000000" font-family="sans-serif" font-size="13" font-weight="bold" lengthAdjust="spacing" textLength="17.303" x="35" y="787.3928">alt</text><text fill="#000000" font-family="sans-serif" font-size="11" font-weight="bold" lengthAdjust="spacing" textLength="72.8634" x="97.303" y="786.2547">[Invalid data]</text><polygon fill="#181818" points="104.4238,811.9078,94.4238,815.9078,104.4238,819.9078,100.4238,815.9078" style="stroke:#181818;stroke-width:1;"/><line style="stroke:#181818;stroke-width:1;stroke-dasharray:2.0,2.0;" x1="98.4238" x2="374.5131" y1="815.9078" y2="815.9078"/><text fill="#000000" font-family="sans-serif" font-size="13" lengthAdjust="spacing" textLength="136.2791" x="110.4238" y="810.0988">Error: Validation failed</text><line style="stroke:#000000;stroke-width:1;stroke-dasharray:2.0,2.0;" x1="20" x2="416.299" y1="824.9078" y2="824.9078"/><text fill="#000000" font-family="sans-serif" font-size="11" font-weight="bold" lengthAdjust="spacing" textLength="49.4557" x="25" y="836.6668">[Success]</text><polygon fill="#181818" points="104.4238,860.5957,94.4238,864.5957,104.4238,868.5957,100.4238,864.5957" style="stroke:#181818;stroke-width:1;"/><line style="stroke:#181818;stroke-width:1;stroke-dasharray:2.0,2.0;" x1="98.4238" x2="374.5131" y1="864.5957" y2="864.5957"/><text fill="#000000" font-family="sans-serif" font-size="13" lengthAdjust="spacing" textLength="138.5021" x="110.4238" y="858.7867">Staff member updated</text><rect fill="#EEEEEE" height="3" style="stroke:#EEEEEE;stroke-width:1;" width="436.299" x="0" y="901.4488"/><line style="stroke:#000000;stroke-width:1;" x1="0" x2="436.299" y1="901.4488" y2="901.4488"/><line style="stroke:#000000;stroke-width:1;" x1="0" x2="436.299" y1="904.4488" y2="904.4488"/><rect fill="#EEEEEE" height="25.706" style="stroke:#000000;stroke-width:2;" width="134.6011" x="150.8489" y="889.5957"/><text fill="#000000" font-family="sans-serif" font-size="13" font-weight="bold" lengthAdjust="spacing" textLength="117.2211" x="156.8489" y="907.4928">Search/Filter Staff</text><polygon fill="#181818" points="363.5131,980.4198,373.5131,984.4198,363.5131,988.4198,367.5131,984.4198" style="stroke:#181818;stroke-width:1;"/><line style="stroke:#181818;stroke-width:1;" x1="93.4238" x2="369.5131" y1="984.4198" y2="984.4198"/><text fill="#000000" font-family="sans-serif" font-size="13" lengthAdjust="spacing" textLength="72.8521" x="100.4238" y="943.1988">Search Staff</text><text fill="#000000" font-family="sans-serif" font-size="13" lengthAdjust="spacing" textLength="206.3102" x="100.4238" y="960.9048">(mecanographicNumber?, name?,</text><text fill="#000000" font-family="sans-serif" font-size="13" lengthAdjust="spacing" textLength="140.7771" x="103.8038" y="978.6108">status?, qualifications?)</text><polygon fill="#181818" points="104.4238,1012.1258,94.4238,1016.1258,104.4238,1020.1258,100.4238,1016.1258" style="stroke:#181818;stroke-width:1;"/><line style="stroke:#181818;stroke-width:1;stroke-dasharray:2.0,2.0;" x1="98.4238" x2="374.5131" y1="1016.1258" y2="1016.1258"/><text fill="#000000" font-family="sans-serif" font-size="13" lengthAdjust="spacing" textLength="190.4632" x="110.4238" y="1010.3168">List of matching staff members</text><!--SRC=[lLD1Rjim4Bpp5GkVRC1Ea1mDE49GDwY1D44X9ATSDkJQ8a2HAaaLoU-xf297ScMqfvv4aSFPcTbbrD4GbEKMLl354qQ2ItXgL5gK4VTx-4xrAtcOFvLmVN5zSNMr409bT1vcz-wWGzGom6D37dbl1lZv8nhqVAeRj15cvNk8L6T0jnHYi-bhZafjDgAdWDND1nhMKzWNEwz9edK7ZqsbvKERTfSGAkVZ0zQqVB50DMgpXAPoblWeOcn3_lhupRMC9glIOY7GH2OUy87DX826Qwjte3Ss70JqebQixwXr3L-zTtuDsxOnMYQjzGIP81C8TlON6gs0aqQOZoLMB2Oi_bRbETt7g9s5FTycrH6NhPGKpcliugkxg6MELC5SguNW679FRfM27ospxvC9vW-f9SQv1kwOWb1My7DuphKc6_O74RShfF8xjHmpx5Ioc-8VuO-vOmZwODaYm3zdVohn99rpF2S2bCfLKpPzFbFFuzpCJc278UI-5n-DB_hXBDBK7kUpE0veqKteS7J-nv2qsSEd_vBGo-hoJfl8fntqdFyEsu6c7olRi_nGUy_P_hXtWNrFoxpdrmYEXMAKbRO720FTGVm6]--></g></svg>