<?xml version="1.0" encoding="us-ascii" standalone="no"?><svg xmlns="http://www.w3.org/2000/svg" xmlns:xlink="http://www.w3.org/1999/xlink" contentStyleType="text/css" height="938px" preserveAspectRatio="none" style="width:588px;height:938px;background:#FFFFFF;" version="1.1" viewBox="0 0 588 938" width="588px" zoomAndPan="magnify"><defs/><g><text fill="#000000" font-family="sans-serif" font-size="14" font-weight="bold" lengthAdjust="spacing" textLength="250" x="162" y="24.5332">C4 Container - US 2.2.9 Reopen VVN</text><!--cluster Client Layer--><g id="cluster_Client Layer"><polygon fill="none" points="102,213.1094,112,203.1094,261,203.1094,261,298.1094,251,308.1094,102,308.1094,102,213.1094" style="stroke:#181818;stroke-width:1.0;"/><line style="stroke:#181818;stroke-width:1.0;" x1="251" x2="261" y1="213.1094" y2="203.1094"/><line style="stroke:#181818;stroke-width:1.0;" x1="102" x2="251" y1="213.1094" y2="213.1094"/><line style="stroke:#181818;stroke-width:1.0;" x1="251" x2="251" y1="213.1094" y2="308.1094"/><text fill="#000000" font-family="sans-serif" font-size="14" font-weight="bold" lengthAdjust="spacing" textLength="83" x="136" y="230.6426">Client Layer</text></g><!--cluster Web API--><g id="cluster_Web API"><polygon fill="none" points="42,368.1094,52,358.1094,320,358.1094,320,453.1094,310,463.1094,42,463.1094,42,368.1094" style="stroke:#181818;stroke-width:1.0;"/><line style="stroke:#181818;stroke-width:1.0;" x1="310" x2="320" y1="368.1094" y2="358.1094"/><line style="stroke:#181818;stroke-width:1.0;" x1="42" x2="310" y1="368.1094" y2="368.1094"/><line style="stroke:#181818;stroke-width:1.0;" x1="310" x2="310" y1="368.1094" y2="463.1094"/><text fill="#000000" font-family="sans-serif" font-size="14" font-weight="bold" lengthAdjust="spacing" textLength="57" x="148.5" y="385.6426">Web API</text></g><!--cluster Application Layer--><g id="cluster_Application Layer"><polygon fill="none" points="20,523.1094,30,513.1094,368,513.1094,368,608.1094,358,618.1094,20,618.1094,20,523.1094" style="stroke:#181818;stroke-width:1.0;"/><line style="stroke:#181818;stroke-width:1.0;" x1="358" x2="368" y1="523.1094" y2="513.1094"/><line style="stroke:#181818;stroke-width:1.0;" x1="20" x2="358" y1="523.1094" y2="523.1094"/><line style="stroke:#181818;stroke-width:1.0;" x1="358" x2="358" y1="523.1094" y2="618.1094"/><text fill="#000000" font-family="sans-serif" font-size="14" font-weight="bold" lengthAdjust="spacing" textLength="120" x="130" y="540.6426">Application Layer</text></g><!--cluster Dom--><g id="cluster_Dom"><polygon fill="none" points="16,678.1094,26,668.1094,229,668.1094,229,911.1094,219,921.1094,16,921.1094,16,678.1094" style="stroke:#181818;stroke-width:1.0;"/><line style="stroke:#181818;stroke-width:1.0;" x1="219" x2="229" y1="678.1094" y2="668.1094"/><line style="stroke:#181818;stroke-width:1.0;" x1="16" x2="219" y1="678.1094" y2="678.1094"/><line style="stroke:#181818;stroke-width:1.0;" x1="219" x2="219" y1="678.1094" y2="921.1094"/><text fill="#000000" font-family="sans-serif" font-size="14" font-weight="bold" lengthAdjust="spacing" textLength="52" x="92.5" y="695.6426">Domain</text></g><!--entity Client--><g id="elem_Client"><rect fill="#F1F1F1" height="47.6094" rx="2.5" ry="2.5" style="stroke:#181818;stroke-width:0.5;" width="125" x="118.5" y="244.1094"/><rect fill="#F1F1F1" height="10" style="stroke:#181818;stroke-width:0.5;" width="15" x="223.5" y="249.1094"/><rect fill="#F1F1F1" height="2" style="stroke:#181818;stroke-width:0.5;" width="4" x="221.5" y="251.1094"/><rect fill="#F1F1F1" height="2" style="stroke:#181818;stroke-width:0.5;" width="4" x="221.5" y="255.1094"/><text fill="#000000" font-family="sans-serif" font-size="14" lengthAdjust="spacing" textLength="85" x="133.5" y="278.6426">UI / API Client</text></g><!--entity Ctl--><g id="elem_Ctl"><rect fill="#F1F1F1" height="47.6094" rx="2.5" ry="2.5" style="stroke:#181818;stroke-width:0.5;" width="246" x="58" y="399.1094"/><rect fill="#F1F1F1" height="10" style="stroke:#181818;stroke-width:0.5;" width="15" x="284" y="404.1094"/><rect fill="#F1F1F1" height="2" style="stroke:#181818;stroke-width:0.5;" width="4" x="282" y="406.1094"/><rect fill="#F1F1F1" height="2" style="stroke:#181818;stroke-width:0.5;" width="4" x="282" y="410.1094"/><text fill="#000000" font-family="sans-serif" font-size="14" lengthAdjust="spacing" textLength="206" x="73" y="433.6426">VesselVisitNotificationsController</text></g><!--entity Svc--><g id="elem_Svc"><rect fill="#F1F1F1" height="47.6094" rx="2.5" ry="2.5" style="stroke:#181818;stroke-width:0.5;" width="155" x="36.5" y="554.1094"/><rect fill="#F1F1F1" height="10" style="stroke:#181818;stroke-width:0.5;" width="15" x="171.5" y="559.1094"/><rect fill="#F1F1F1" height="2" style="stroke:#181818;stroke-width:0.5;" width="4" x="169.5" y="561.1094"/><rect fill="#F1F1F1" height="2" style="stroke:#181818;stroke-width:0.5;" width="4" x="169.5" y="565.1094"/><text fill="#000000" font-family="sans-serif" font-size="14" lengthAdjust="spacing" textLength="115" x="51.5" y="588.6426">VesselVisitService</text></g><!--entity Auth--><g id="elem_Auth"><rect fill="#F1F1F1" height="47.6094" rx="2.5" ry="2.5" style="stroke:#181818;stroke-width:0.5;" width="125" x="226.5" y="554.1094"/><rect fill="#F1F1F1" height="10" style="stroke:#181818;stroke-width:0.5;" width="15" x="331.5" y="559.1094"/><rect fill="#F1F1F1" height="2" style="stroke:#181818;stroke-width:0.5;" width="4" x="329.5" y="561.1094"/><rect fill="#F1F1F1" height="2" style="stroke:#181818;stroke-width:0.5;" width="4" x="329.5" y="565.1094"/><text fill="#000000" font-family="sans-serif" font-size="14" lengthAdjust="spacing" textLength="85" x="241.5" y="588.6426">CallerContext</text></g><!--entity Vvn--><g id="elem_Vvn"><rect fill="#F1F1F1" height="47.6094" rx="2.5" ry="2.5" style="stroke:#181818;stroke-width:0.5;" width="177" x="32.5" y="709.1094"/><rect fill="#F1F1F1" height="10" style="stroke:#181818;stroke-width:0.5;" width="15" x="189.5" y="714.1094"/><rect fill="#F1F1F1" height="2" style="stroke:#181818;stroke-width:0.5;" width="4" x="187.5" y="716.1094"/><rect fill="#F1F1F1" height="2" style="stroke:#181818;stroke-width:0.5;" width="4" x="187.5" y="720.1094"/><text fill="#000000" font-family="sans-serif" font-size="14" lengthAdjust="spacing" textLength="137" x="47.5" y="743.6426">VesselVisitNotification</text></g><!--entity Log--><g id="elem_Log"><rect fill="#F1F1F1" height="47.6094" rx="2.5" ry="2.5" style="stroke:#181818;stroke-width:0.5;" width="118" x="32" y="857.1094"/><rect fill="#F1F1F1" height="10" style="stroke:#181818;stroke-width:0.5;" width="15" x="130" y="862.1094"/><rect fill="#F1F1F1" height="2" style="stroke:#181818;stroke-width:0.5;" width="4" x="128" y="864.1094"/><rect fill="#F1F1F1" height="2" style="stroke:#181818;stroke-width:0.5;" width="4" x="128" y="868.1094"/><text fill="#000000" font-family="sans-serif" font-size="14" lengthAdjust="spacing" textLength="78" x="47" y="891.6426">DecisionLog</text></g><!--entity Agent--><g id="elem_Agent"><ellipse cx="181" cy="52.6094" fill="#F1F1F1" rx="8" ry="8" style="stroke:#181818;stroke-width:0.5;"/><path d="M181,60.6094 L181,87.6094 M168,68.6094 L194,68.6094 M181,87.6094 L168,102.6094 M181,87.6094 L194,102.6094 " fill="none" style="stroke:#181818;stroke-width:0.5;"/><text fill="#000000" font-family="sans-serif" font-size="14" lengthAdjust="spacing" textLength="96" x="133" y="118.6426">Shipping Agent</text><text fill="#000000" font-family="sans-serif" font-size="14" lengthAdjust="spacing" textLength="96" x="133" y="136.252">Representative</text></g><!--entity Db--><g id="elem_Db"><path d="M270,719.6094 C270,709.6094 317,709.6094 317,709.6094 C317,709.6094 364,709.6094 364,719.6094 L364,746.2188 C364,756.2188 317,756.2188 317,756.2188 C317,756.2188 270,756.2188 270,746.2188 L270,719.6094 " fill="#F1F1F1" style="stroke:#181818;stroke-width:0.5;"/><path d="M270,719.6094 C270,729.6094 317,729.6094 317,729.6094 C317,729.6094 364,729.6094 364,719.6094 " fill="none" style="stroke:#181818;stroke-width:0.5;"/><text fill="#000000" font-family="sans-serif" font-size="14" lengthAdjust="spacing" textLength="74" x="280" y="748.1426">Persistence</text></g><g id="elem_GMN21"><path d="M399,687.1094 L399,778.8672 L581,778.8672 L581,697.1094 L571,687.1094 L399,687.1094 " fill="#FEFFDD" style="stroke:#181818;stroke-width:0.5;"/><path d="M571,687.1094 L571,697.1094 L581,697.1094 L571,687.1094 " fill="#FEFFDD" style="stroke:#181818;stroke-width:1.0;"/><text fill="#000000" font-family="sans-serif" font-size="13" lengthAdjust="spacing" textLength="80" x="405" y="705.6045">Reopen rules:</text><text fill="#000000" font-family="sans-serif" font-size="13" lengthAdjust="spacing" textLength="144" x="405" y="721.9561">- Only REJECTED VVNs</text><text fill="#000000" font-family="sans-serif" font-size="13" lengthAdjust="spacing" textLength="140" x="405" y="738.3076">- Same org as submitter</text><text fill="#000000" font-family="sans-serif" font-size="13" lengthAdjust="spacing" textLength="161" x="405" y="754.6592">- Preserves rejection reason</text><text fill="#000000" font-family="sans-serif" font-size="13" lengthAdjust="spacing" textLength="147" x="405" y="771.0107">- Becomes editable again</text></g><!--link Agent to Client--><g id="link_Agent_Client"><path d="M181,139.3694 C181,173.0894 181,211.1794 181,237.7494 " fill="none" id="Agent-to-Client" style="stroke:#181818;stroke-width:1.0;"/><polygon fill="#181818" points="181,243.7494,185,234.7494,181,238.7494,177,234.7494,181,243.7494" style="stroke:#181818;stroke-width:1.0;"/><text fill="#000000" font-family="sans-serif" font-size="13" lengthAdjust="spacing" textLength="120" x="182" y="183.6045">reopen rejected VVN</text></g><!--link Client to Ctl--><g id="link_Client_Ctl"><path d="M181,292.3494 C181,321.0994 181,363.7994 181,392.6494 " fill="none" id="Client-to-Ctl" style="stroke:#181818;stroke-width:1.0;"/><polygon fill="#181818" points="181,398.6494,185,389.6494,181,393.6494,177,389.6494,181,398.6494" style="stroke:#181818;stroke-width:1.0;"/><text fill="#000000" font-family="sans-serif" font-size="13" lengthAdjust="spacing" textLength="78" x="182" y="338.6045">POST reopen</text></g><!--link Ctl to Auth--><g id="link_Ctl_Auth"><path d="M205.9,447.2794 C215.29,456.6694 225.69,467.9294 234,479.1094 C251.81,503.0694 265.3151,528.0087 275.4451,548.5387 " fill="none" id="Ctl-to-Auth" style="stroke:#181818;stroke-width:1.0;"/><polygon fill="#181818" points="278.1,553.9194,277.7047,544.0785,275.8876,549.4355,270.5305,547.6184,278.1,553.9194" style="stroke:#181818;stroke-width:1.0;"/><text fill="#000000" font-family="sans-serif" font-size="13" lengthAdjust="spacing" textLength="103" x="247" y="493.6045">verify organization</text></g><!--link Ctl to Svc--><g id="link_Ctl_Svc"><path d="M170.82,447.3494 C158.23,476.0994 139.3178,519.3037 126.6778,548.1537 " fill="none" id="Ctl-to-Svc" style="stroke:#181818;stroke-width:1.0;"/><polygon fill="#181818" points="124.27,553.6494,131.5455,547.0111,126.2765,549.0696,124.2179,543.8007,124.27,553.6494" style="stroke:#181818;stroke-width:1.0;"/><text fill="#000000" font-family="sans-serif" font-size="13" lengthAdjust="spacing" textLength="70" x="156" y="493.6045">reopen VVN</text></g><!--link Svc to Db--><g id="link_Svc_Db"><path d="M152.97,602.1794 C169.69,611.0594 189.77,620.4194 209,626.1094 C223.8,630.4894 265.75,624.7194 278,634.1094 C301.55,652.1494 309.9518,680.6764 313.6518,703.5464 " fill="none" id="Svc-to-Db" style="stroke:#181818;stroke-width:1.0;"/><polygon fill="#181818" points="314.61,709.4694,317.1213,699.9461,313.8115,704.5336,309.224,701.2237,314.61,709.4694" style="stroke:#181818;stroke-width:1.0;"/><text fill="#000000" font-family="sans-serif" font-size="13" lengthAdjust="spacing" textLength="118" x="294" y="648.6045">persist state change</text></g><!--link Svc to Vvn--><g id="link_Svc_Vvn"><path d="M103.07,602.1194 C99.05,611.7694 95,623.2494 93,634.1094 C88.19,660.2094 96.0273,683.9633 105.4973,703.6333 " fill="none" id="Svc-to-Vvn" style="stroke:#181818;stroke-width:1.0;stroke-dasharray:7.0,7.0;"/><polygon fill="#181818" points="108.1,709.0394,107.8,699.1951,105.9311,704.5343,100.5918,702.6654,108.1,709.0394" style="stroke:#181818;stroke-width:1.0;"/><text fill="#000000" font-family="sans-serif" font-size="13" lengthAdjust="spacing" textLength="179" x="94" y="648.6045">REJECTED &#8594; IN_PROGRESS</text></g><!--link Vvn to Log--><g id="link_Vvn_Log"><path d="M116.25,757.2394 C110.63,784.5794 102.5482,823.9123 96.9382,851.2023 " fill="none" id="Vvn-to-Log" style="stroke:#181818;stroke-width:1.0;stroke-dasharray:7.0,7.0;"/><polygon fill="#181818" points="95.73,857.0794,101.4603,849.0692,96.7368,852.1818,93.6242,847.4583,95.73,857.0794" style="stroke:#181818;stroke-width:1.0;"/><text fill="#000000" font-family="sans-serif" font-size="13" lengthAdjust="spacing" textLength="144" x="106" y="823.6045">preserve rejection history</text></g><!--link Vvn to GMN21--><g id="link_Vvn_GMN21"><path d="M149.95,709.0594 C178.53,686.9994 224.53,655.8794 270.5,643.1094 C310.75,631.9294 324.73,630.3194 364.5,643.1094 C392.32,652.0494 419.2,669.6994 440.9,687.0094 " fill="none" id="Vvn-GMN21" style="stroke:#181818;stroke-width:1.0;stroke-dasharray:7.0,7.0;"/></g><!--SRC=[VLDDZzCm4BtxLunwRv5MUs4FAvMaGaMhDafsmm4GSf9fOkJOaUr65CIL7y1Fv9SmunYwU-4KUzwRz-R32IfeXEmMCck2L0OThE6fWflDpUOrb6WdD53N1o5a6wo3LJMeQLAcXssF9dmq9KuEFHrbK3EkGFe54SBO3c6LQKKtU90NT2luBW0-FEtX5MoBFIpO9yvPZkB7txJts30bPTJeFUfQUHKEDgYJQidD6iz5EwirkaKawAl2TffquhrmVwPLePjLYp6tcbj6Cybgh8jVbygsvp2mQYU3RAGdvGATLpwWQPT-yoPPvdQa4IunE_wtz2XTpuOfERO4M_DW-nYcBnl6CS9wVP-60tVWbdqu_89jm2uk9e6H5pIHYcFrc9Y28unm4mJDwDJf0jRrqgXliP1_51h0rO65ES10tb1yMde6Jtj6Q0TfUeoCpUQU-o1AkNktonvtEVp- -GlsXyz5UNnRxgfACCmqwekL-Bcu6LCNl9w1bAsxyEP8tAb-261FQJpf3RgpHdz7zpKSZRvStQXK7yEL795Run7wSpEg4D15f4YM_fcdG-cjYV0RREr887QALao_W-nfZG9D1roG-0C0]--></g></svg>