<?xml version="1.0" encoding="us-ascii" standalone="no"?><svg xmlns="http://www.w3.org/2000/svg" xmlns:xlink="http://www.w3.org/1999/xlink" contentStyleType="text/css" height="1423px" preserveAspectRatio="none" style="width:1929px;height:1423px;background:#FFFFFF;" version="1.1" viewBox="0 0 1929 1423" width="1929px" zoomAndPan="magnify"><defs/><g><text fill="#000000" font-family="sans-serif" font-size="14" font-weight="bold" lengthAdjust="spacing" textLength="329" x="793.25" y="24.5332">US 2.2.9 - Class Diagram: Reopen Rejected VVN</text><!--cluster Controllers--><g id="cluster_Controllers"><path d="M482.5,44.6094 L562.5,44.6094 A3.75,3.75 0 0 1 565,47.1094 L572,68.2188 L787.5,68.2188 A2.5,2.5 0 0 1 790,70.7188 L790,195.1094 A2.5,2.5 0 0 1 787.5,197.6094 L482.5,197.6094 A2.5,2.5 0 0 1 480,195.1094 L480,47.1094 A2.5,2.5 0 0 1 482.5,44.6094 " fill="none" style="stroke:#000000;stroke-width:1.5;"/><line style="stroke:#000000;stroke-width:1.5;" x1="480" x2="572" y1="68.2188" y2="68.2188"/><text fill="#000000" font-family="sans-serif" font-size="14" font-weight="bold" lengthAdjust="spacing" textLength="79" x="484" y="61.1426">Controllers</text></g><!--cluster Application--><g id="cluster_Application"><path d="M8.5,273.6094 L87.5,273.6094 A3.75,3.75 0 0 1 90,276.1094 L97,297.2188 L421.5,297.2188 A2.5,2.5 0 0 1 424,299.7188 L424,808.1094 A2.5,2.5 0 0 1 421.5,810.6094 L8.5,810.6094 A2.5,2.5 0 0 1 6,808.1094 L6,276.1094 A2.5,2.5 0 0 1 8.5,273.6094 " fill="none" style="stroke:#000000;stroke-width:1.5;"/><line style="stroke:#000000;stroke-width:1.5;" x1="6" x2="97" y1="297.2188" y2="297.2188"/><text fill="#000000" font-family="sans-serif" font-size="14" font-weight="bold" lengthAdjust="spacing" textLength="78" x="10" y="290.1426">Application</text></g><!--cluster Domain--><g id="cluster_Domain"><path d="M450.5,467.6094 L503.5,467.6094 A3.75,3.75 0 0 1 506,470.1094 L513,491.2188 L1592.5,491.2188 A2.5,2.5 0 0 1 1595,493.7188 L1595,1242.1094 A2.5,2.5 0 0 1 1592.5,1244.6094 L450.5,1244.6094 A2.5,2.5 0 0 1 448,1242.1094 L448,470.1094 A2.5,2.5 0 0 1 450.5,467.6094 " fill="none" style="stroke:#000000;stroke-width:1.5;"/><line style="stroke:#000000;stroke-width:1.5;" x1="448" x2="513" y1="491.2188" y2="491.2188"/><text fill="#000000" font-family="sans-serif" font-size="14" font-weight="bold" lengthAdjust="spacing" textLength="52" x="452" y="484.1426">Domain</text></g><!--cluster Visits--><g id="cluster_Visits"><path d="M474.5,511.6094 L513.5,511.6094 A3.75,3.75 0 0 1 516,514.1094 L523,535.2188 L758.5,535.2188 A2.5,2.5 0 0 1 761,537.7188 L761,1195.1094 A2.5,2.5 0 0 1 758.5,1197.6094 L474.5,1197.6094 A2.5,2.5 0 0 1 472,1195.1094 L472,514.1094 A2.5,2.5 0 0 1 474.5,511.6094 " fill="none" style="stroke:#000000;stroke-width:1.5;"/><line style="stroke:#000000;stroke-width:1.5;" x1="472" x2="523" y1="535.2188" y2="535.2188"/><text fill="#000000" font-family="sans-serif" font-size="14" font-weight="bold" lengthAdjust="spacing" textLength="38" x="476" y="528.1426">Visits</text></g><!--cluster Organizations--><g id="cluster_Organizations"><path d="M1060.5,634.6094 L1158.5,634.6094 A3.75,3.75 0 0 1 1161,637.1094 L1168,658.2188 L1390.5,658.2188 A2.5,2.5 0 0 1 1393,660.7188 L1393,1177.6094 A2.5,2.5 0 0 1 1390.5,1180.1094 L1060.5,1180.1094 A2.5,2.5 0 0 1 1058,1177.6094 L1058,637.1094 A2.5,2.5 0 0 1 1060.5,634.6094 " fill="none" style="stroke:#000000;stroke-width:1.5;"/><line style="stroke:#000000;stroke-width:1.5;" x1="1058" x2="1168" y1="658.2188" y2="658.2188"/><text fill="#000000" font-family="sans-serif" font-size="14" font-weight="bold" lengthAdjust="spacing" textLength="97" x="1062" y="651.1426">Organizations</text></g><!--cluster Users--><g id="cluster_Users"><path d="M1419.5,652.1094 L1461.5,652.1094 A3.75,3.75 0 0 1 1464,654.6094 L1471,675.7188 L1568.5,675.7188 A2.5,2.5 0 0 1 1571,678.2188 L1571,1174.1094 A2.5,2.5 0 0 1 1568.5,1176.6094 L1419.5,1176.6094 A2.5,2.5 0 0 1 1417,1174.1094 L1417,654.6094 A2.5,2.5 0 0 1 1419.5,652.1094 " fill="none" style="stroke:#000000;stroke-width:1.5;"/><line style="stroke:#000000;stroke-width:1.5;" x1="1417" x2="1471" y1="675.7188" y2="675.7188"/><text fill="#000000" font-family="sans-serif" font-size="14" font-weight="bold" lengthAdjust="spacing" textLength="41" x="1421" y="668.6426">Users</text></g><!--cluster DockAssignments--><g id="cluster_DockAssignments"><path d="M787.5,1004.6094 L913.5,1004.6094 A3.75,3.75 0 0 1 916,1007.1094 L923,1028.2188 L980.5,1028.2188 A2.5,2.5 0 0 1 983,1030.7188 L983,1218.1094 A2.5,2.5 0 0 1 980.5,1220.6094 L787.5,1220.6094 A2.5,2.5 0 0 1 785,1218.1094 L785,1007.1094 A2.5,2.5 0 0 1 787.5,1004.6094 " fill="none" style="stroke:#000000;stroke-width:1.5;"/><line style="stroke:#000000;stroke-width:1.5;" x1="785" x2="923" y1="1028.2188" y2="1028.2188"/><text fill="#000000" font-family="sans-serif" font-size="14" font-weight="bold" lengthAdjust="spacing" textLength="125" x="789" y="1021.1426">DockAssignments</text></g><!--cluster Infrastructure--><g id="cluster_Infrastructure"><path d="M838.5,247.6094 L936.5,247.6094 A3.75,3.75 0 0 1 939,250.1094 L946,271.2188 L1239.5,271.2188 A2.5,2.5 0 0 1 1242,273.7188 L1242,415.1094 A2.5,2.5 0 0 1 1239.5,417.6094 L838.5,417.6094 A2.5,2.5 0 0 1 836,415.1094 L836,250.1094 A2.5,2.5 0 0 1 838.5,247.6094 " fill="none" style="stroke:#000000;stroke-width:1.5;"/><line style="stroke:#000000;stroke-width:1.5;" x1="836" x2="946" y1="271.2188" y2="271.2188"/><text fill="#000000" font-family="sans-serif" font-size="14" font-weight="bold" lengthAdjust="spacing" textLength="97" x="840" y="264.1426">Infrastructure</text></g><!--class VesselVisitNotificationsController--><g id="elem_VesselVisitNotificationsController"><rect codeLine="4" fill="#F1F1F1" height="100.8281" id="VesselVisitNotificationsController" rx="2.5" ry="2.5" style="stroke:#181818;stroke-width:0.5;" width="278" x="496" y="80.6094"/><ellipse cx="529" cy="96.6094" fill="#ADD1B2" rx="11" ry="11" style="stroke:#181818;stroke-width:1.0;"/><path d="M531.7656,92.4844 Q531.9219,92.2656 532.1094,92.1563 Q532.2969,92.0469 532.5156,92.0469 Q532.8906,92.0469 533.125,92.3125 Q533.3594,92.5625 533.3594,93.1719 L533.3594,94.625 Q533.3594,95.2344 533.125,95.5 Q532.8906,95.7656 532.5156,95.7656 Q532.1719,95.7656 531.9688,95.5625 Q531.7656,95.375 531.6563,94.8594 Q531.6094,94.5 531.4219,94.3125 Q531.0938,93.9375 530.4844,93.7188 Q529.875,93.5 529.25,93.5 Q528.4844,93.5 527.8438,93.8281 Q527.2188,94.1563 526.7188,94.9063 Q526.2344,95.6563 526.2344,96.6875 L526.2344,97.7813 Q526.2344,99.0156 527.125,99.8438 Q528.0156,100.6563 529.6094,100.6563 Q530.5469,100.6563 531.2031,100.4063 Q531.5938,100.25 532.0156,99.8125 Q532.2813,99.5469 532.4219,99.4688 Q532.5781,99.3906 532.7813,99.3906 Q533.1094,99.3906 533.3594,99.6563 Q533.625,99.9063 533.625,100.25 Q533.625,100.5938 533.2813,101 Q532.7813,101.5781 531.9844,101.9063 Q530.9063,102.3594 529.6094,102.3594 Q528.0938,102.3594 526.8906,101.7344 Q525.9063,101.2344 525.2188,100.1719 Q524.5313,99.0938 524.5313,97.8125 L524.5313,96.6563 Q524.5313,95.3281 525.1406,94.1875 Q525.7656,93.0313 526.8594,92.4219 Q527.9531,91.7969 529.1875,91.7969 Q529.9219,91.7969 530.5625,91.9688 Q531.2188,92.125 531.7656,92.4844 Z " fill="#000000"/><text fill="#000000" font-family="sans-serif" font-size="14" lengthAdjust="spacing" textLength="206" x="547" y="102.3379">VesselVisitNotificationsController</text><line style="stroke:#181818;stroke-width:0.5;" x1="497" x2="773" y1="112.6094" y2="112.6094"/><rect fill="none" height="6" style="stroke:#C82930;stroke-width:1.0;" width="6" x="504" y="123.9141"/><text fill="#000000" font-family="sans-serif" font-size="14" lengthAdjust="spacing" textLength="176" x="516" y="131.1426">_dbContext : PortDbContext</text><rect fill="none" height="6" style="stroke:#C82930;stroke-width:1.0;" width="6" x="504" y="141.5234"/><text fill="#000000" font-family="sans-serif" font-size="14" lengthAdjust="spacing" textLength="180" x="516" y="148.752">_service : VesselVisitService</text><line style="stroke:#181818;stroke-width:0.5;" x1="497" x2="773" y1="155.8281" y2="155.8281"/><ellipse cx="507" cy="170.1328" fill="#84BE84" rx="3" ry="3" style="stroke:#038048;stroke-width:1.0;"/><text fill="#000000" font-family="sans-serif" font-size="14" lengthAdjust="spacing" textLength="252" x="516" y="174.3613">ReopenToDraft(id : Guid) : ActionResult</text></g><!--class CallerContextFactory--><g id="elem_CallerContextFactory"><rect codeLine="12" fill="#F1F1F1" height="65.6094" id="CallerContextFactory" rx="2.5" ry="2.5" style="stroke:#181818;stroke-width:0.5;" width="385" x="22.5" y="309.6094"/><ellipse cx="144.25" cy="325.6094" fill="#ADD1B2" rx="11" ry="11" style="stroke:#181818;stroke-width:1.0;"/><path d="M147.0156,321.4844 Q147.1719,321.2656 147.3594,321.1563 Q147.5469,321.0469 147.7656,321.0469 Q148.1406,321.0469 148.375,321.3125 Q148.6094,321.5625 148.6094,322.1719 L148.6094,323.625 Q148.6094,324.2344 148.375,324.5 Q148.1406,324.7656 147.7656,324.7656 Q147.4219,324.7656 147.2188,324.5625 Q147.0156,324.375 146.9063,323.8594 Q146.8594,323.5 146.6719,323.3125 Q146.3438,322.9375 145.7344,322.7188 Q145.125,322.5 144.5,322.5 Q143.7344,322.5 143.0938,322.8281 Q142.4688,323.1563 141.9688,323.9063 Q141.4844,324.6563 141.4844,325.6875 L141.4844,326.7813 Q141.4844,328.0156 142.375,328.8438 Q143.2656,329.6563 144.8594,329.6563 Q145.7969,329.6563 146.4531,329.4063 Q146.8438,329.25 147.2656,328.8125 Q147.5313,328.5469 147.6719,328.4688 Q147.8281,328.3906 148.0313,328.3906 Q148.3594,328.3906 148.6094,328.6563 Q148.875,328.9063 148.875,329.25 Q148.875,329.5938 148.5313,330 Q148.0313,330.5781 147.2344,330.9063 Q146.1563,331.3594 144.8594,331.3594 Q143.3438,331.3594 142.1406,330.7344 Q141.1563,330.2344 140.4688,329.1719 Q139.7813,328.0938 139.7813,326.8125 L139.7813,325.6563 Q139.7813,324.3281 140.3906,323.1875 Q141.0156,322.0313 142.1094,321.4219 Q143.2031,320.7969 144.4375,320.7969 Q145.1719,320.7969 145.8125,320.9688 Q146.4688,321.125 147.0156,321.4844 Z " fill="#000000"/><text fill="#000000" font-family="sans-serif" font-size="14" lengthAdjust="spacing" textLength="133" x="164.75" y="331.3379">CallerContextFactory</text><line style="stroke:#181818;stroke-width:0.5;" x1="23.5" x2="406.5" y1="341.6094" y2="341.6094"/><line style="stroke:#181818;stroke-width:0.5;" x1="23.5" x2="406.5" y1="349.6094" y2="349.6094"/><ellipse cx="33.5" cy="363.9141" fill="#84BE84" rx="3" ry="3" style="stroke:#038048;stroke-width:1.0;"/><text fill="#000000" font-family="sans-serif" font-size="14" lengthAdjust="spacing" text-decoration="underline" textLength="359" x="42.5" y="368.1426">ExtractFrom(headers : IHeaderDictionary) : CallerContext</text></g><!--class CallerContext--><g id="elem_CallerContext"><rect codeLine="16" fill="#F1F1F1" height="100.8281" id="CallerContext" rx="2.5" ry="2.5" style="stroke:#181818;stroke-width:0.5;" width="159" x="135.5" y="693.6094"/><ellipse cx="169.4" cy="709.6094" fill="#ADD1B2" rx="11" ry="11" style="stroke:#181818;stroke-width:1.0;"/><path d="M172.1656,705.4844 Q172.3219,705.2656 172.5094,705.1563 Q172.6969,705.0469 172.9156,705.0469 Q173.2906,705.0469 173.525,705.3125 Q173.7594,705.5625 173.7594,706.1719 L173.7594,707.625 Q173.7594,708.2344 173.525,708.5 Q173.2906,708.7656 172.9156,708.7656 Q172.5719,708.7656 172.3688,708.5625 Q172.1656,708.375 172.0563,707.8594 Q172.0094,707.5 171.8219,707.3125 Q171.4938,706.9375 170.8844,706.7188 Q170.275,706.5 169.65,706.5 Q168.8844,706.5 168.2438,706.8281 Q167.6188,707.1563 167.1188,707.9063 Q166.6344,708.6563 166.6344,709.6875 L166.6344,710.7813 Q166.6344,712.0156 167.525,712.8438 Q168.4156,713.6563 170.0094,713.6563 Q170.9469,713.6563 171.6031,713.4063 Q171.9938,713.25 172.4156,712.8125 Q172.6813,712.5469 172.8219,712.4688 Q172.9781,712.3906 173.1813,712.3906 Q173.5094,712.3906 173.7594,712.6563 Q174.025,712.9063 174.025,713.25 Q174.025,713.5938 173.6813,714 Q173.1813,714.5781 172.3844,714.9063 Q171.3063,715.3594 170.0094,715.3594 Q168.4938,715.3594 167.2906,714.7344 Q166.3063,714.2344 165.6188,713.1719 Q164.9313,712.0938 164.9313,710.8125 L164.9313,709.6563 Q164.9313,708.3281 165.5406,707.1875 Q166.1656,706.0313 167.2594,705.4219 Q168.3531,704.7969 169.5875,704.7969 Q170.3219,704.7969 170.9625,704.9688 Q171.6188,705.125 172.1656,705.4844 Z " fill="#000000"/><text fill="#000000" font-family="sans-serif" font-size="14" lengthAdjust="spacing" textLength="85" x="187.6" y="715.3379">CallerContext</text><line style="stroke:#181818;stroke-width:0.5;" x1="136.5" x2="293.5" y1="725.6094" y2="725.6094"/><ellipse cx="146.5" cy="739.9141" fill="none" rx="3" ry="3" style="stroke:#038048;stroke-width:1.0;"/><text fill="#000000" font-family="sans-serif" font-size="14" lengthAdjust="spacing" textLength="76" x="155.5" y="744.1426">Role : string</text><ellipse cx="146.5" cy="757.5234" fill="none" rx="3" ry="3" style="stroke:#038048;stroke-width:1.0;"/><text fill="#000000" font-family="sans-serif" font-size="14" lengthAdjust="spacing" textLength="133" x="155.5" y="761.752">OrganizationId : Guid</text><ellipse cx="146.5" cy="775.1328" fill="none" rx="3" ry="3" style="stroke:#038048;stroke-width:1.0;"/><text fill="#000000" font-family="sans-serif" font-size="14" lengthAdjust="spacing" textLength="90" x="155.5" y="779.3613">UserId : Guid?</text><line style="stroke:#181818;stroke-width:0.5;" x1="136.5" x2="293.5" y1="786.4375" y2="786.4375"/></g><!--class VesselVisitNotification--><g id="elem_VesselVisitNotification"><rect codeLine="24" fill="#F1F1F1" height="393.2813" id="VesselVisitNotification" rx="2.5" ry="2.5" style="stroke:#181818;stroke-width:0.5;" width="220" x="525" y="547.6094"/><ellipse cx="562.95" cy="568.9609" fill="#ADD1B2" rx="11" ry="11" style="stroke:#181818;stroke-width:1.0;"/><path d="M565.7156,564.8359 Q565.8719,564.6172 566.0594,564.5078 Q566.2469,564.3984 566.4656,564.3984 Q566.8406,564.3984 567.075,564.6641 Q567.3094,564.9141 567.3094,565.5234 L567.3094,566.9766 Q567.3094,567.5859 567.075,567.8516 Q566.8406,568.1172 566.4656,568.1172 Q566.1219,568.1172 565.9188,567.9141 Q565.7156,567.7266 565.6063,567.2109 Q565.5594,566.8516 565.3719,566.6641 Q565.0438,566.2891 564.4344,566.0703 Q563.825,565.8516 563.2,565.8516 Q562.4344,565.8516 561.7938,566.1797 Q561.1688,566.5078 560.6688,567.2578 Q560.1844,568.0078 560.1844,569.0391 L560.1844,570.1328 Q560.1844,571.3672 561.075,572.1953 Q561.9656,573.0078 563.5594,573.0078 Q564.4969,573.0078 565.1531,572.7578 Q565.5438,572.6016 565.9656,572.1641 Q566.2313,571.8984 566.3719,571.8203 Q566.5281,571.7422 566.7313,571.7422 Q567.0594,571.7422 567.3094,572.0078 Q567.575,572.2578 567.575,572.6016 Q567.575,572.9453 567.2313,573.3516 Q566.7313,573.9297 565.9344,574.2578 Q564.8563,574.7109 563.5594,574.7109 Q562.0438,574.7109 560.8406,574.0859 Q559.8563,573.5859 559.1688,572.5234 Q558.4813,571.4453 558.4813,570.1641 L558.4813,569.0078 Q558.4813,567.6797 559.0906,566.5391 Q559.7156,565.3828 560.8094,564.7734 Q561.9031,564.1484 563.1375,564.1484 Q563.8719,564.1484 564.5125,564.3203 Q565.1688,564.4766 565.7156,564.8359 Z " fill="#000000"/><text fill="#000000" font-family="sans-serif" font-size="12" font-style="italic" lengthAdjust="spacing" textLength="94" x="603.55" y="565.0664">&#171;aggregate root&#187;</text><text fill="#000000" font-family="sans-serif" font-size="14" lengthAdjust="spacing" textLength="137" x="582.05" y="582.2363">VesselVisitNotification</text><line style="stroke:#181818;stroke-width:0.5;" x1="526" x2="744" y1="590.3125" y2="590.3125"/><ellipse cx="536" cy="604.6172" fill="none" rx="3" ry="3" style="stroke:#038048;stroke-width:1.0;"/><text fill="#000000" font-family="sans-serif" font-size="14" lengthAdjust="spacing" textLength="170" x="545" y="608.8457">VvnGuid : Guid &#171;identifier&#187;</text><ellipse cx="536" cy="622.2266" fill="none" rx="3" ry="3" style="stroke:#038048;stroke-width:1.0;"/><text fill="#000000" font-family="sans-serif" font-size="14" lengthAdjust="spacing" textLength="139" x="545" y="626.4551">VvnBusinessId : string</text><ellipse cx="536" cy="639.8359" fill="none" rx="3" ry="3" style="stroke:#038048;stroke-width:1.0;"/><text fill="#000000" font-family="sans-serif" font-size="14" lengthAdjust="spacing" textLength="105" x="545" y="644.0645">State : VVNState</text><ellipse cx="536" cy="657.4453" fill="none" rx="3" ry="3" style="stroke:#038048;stroke-width:1.0;"/><text fill="#000000" font-family="sans-serif" font-size="14" lengthAdjust="spacing" textLength="170" x="545" y="661.6738">VisitPurpose : VisitPurpose</text><ellipse cx="536" cy="675.0547" fill="none" rx="3" ry="3" style="stroke:#038048;stroke-width:1.0;"/><text fill="#000000" font-family="sans-serif" font-size="14" lengthAdjust="spacing" textLength="111" x="545" y="679.2832">VesselImo : string</text><ellipse cx="536" cy="692.6641" fill="none" rx="3" ry="3" style="stroke:#038048;stroke-width:1.0;"/><text fill="#000000" font-family="sans-serif" font-size="14" lengthAdjust="spacing" textLength="94" x="545" y="696.8926">Eta : DateTime</text><ellipse cx="536" cy="710.2734" fill="none" rx="3" ry="3" style="stroke:#038048;stroke-width:1.0;"/><text fill="#000000" font-family="sans-serif" font-size="14" lengthAdjust="spacing" textLength="94" x="545" y="714.502">Etd : DateTime</text><ellipse cx="536" cy="727.8828" fill="none" rx="3" ry="3" style="stroke:#038048;stroke-width:1.0;"/><text fill="#000000" font-family="sans-serif" font-size="14" lengthAdjust="spacing" textLength="137" x="545" y="732.1113">CreatedAt : DateTime</text><ellipse cx="536" cy="745.4922" fill="none" rx="3" ry="3" style="stroke:#038048;stroke-width:1.0;"/><text fill="#000000" font-family="sans-serif" font-size="14" lengthAdjust="spacing" textLength="157" x="545" y="749.7207">SubmittedAt : DateTime?</text><ellipse cx="536" cy="763.1016" fill="none" rx="3" ry="3" style="stroke:#038048;stroke-width:1.0;"/><text fill="#000000" font-family="sans-serif" font-size="14" lengthAdjust="spacing" textLength="155" x="545" y="767.3301">ApprovedAt : DateTime?</text><ellipse cx="536" cy="780.7109" fill="none" rx="3" ry="3" style="stroke:#038048;stroke-width:1.0;"/><text fill="#000000" font-family="sans-serif" font-size="14" lengthAdjust="spacing" textLength="150" x="545" y="784.9395">RejectedAt : DateTime?</text><ellipse cx="536" cy="798.3203" fill="none" rx="3" ry="3" style="stroke:#038048;stroke-width:1.0;"/><text fill="#000000" font-family="sans-serif" font-size="14" lengthAdjust="spacing" textLength="163" x="545" y="802.5488">RejectionReason : string?</text><ellipse cx="536" cy="815.9297" fill="none" rx="3" ry="3" style="stroke:#038048;stroke-width:1.0;"/><text fill="#000000" font-family="sans-serif" font-size="14" lengthAdjust="spacing" textLength="194" x="545" y="820.1582">OrganizationId : OrganizationId</text><ellipse cx="536" cy="833.5391" fill="none" rx="3" ry="3" style="stroke:#038048;stroke-width:1.0;"/><text fill="#000000" font-family="sans-serif" font-size="14" lengthAdjust="spacing" textLength="150" x="545" y="837.7676">SubmittedById : UserId?</text><ellipse cx="536" cy="851.1484" fill="none" rx="3" ry="3" style="stroke:#038048;stroke-width:1.0;"/><text fill="#000000" font-family="sans-serif" font-size="14" lengthAdjust="spacing" textLength="148" x="545" y="855.377">ApprovedById : UserId?</text><ellipse cx="536" cy="868.7578" fill="none" rx="3" ry="3" style="stroke:#038048;stroke-width:1.0;"/><text fill="#000000" font-family="sans-serif" font-size="14" lengthAdjust="spacing" textLength="143" x="545" y="872.9863">RejectedById : UserId?</text><ellipse cx="536" cy="886.3672" fill="none" rx="3" ry="3" style="stroke:#038048;stroke-width:1.0;"/><text fill="#000000" font-family="sans-serif" font-size="14" lengthAdjust="spacing" textLength="166" x="545" y="890.5957">DockAssignmentId : Guid?</text><line style="stroke:#181818;stroke-width:1.0;" x1="526" x2="744" y1="897.6719" y2="897.6719"/><ellipse cx="536" cy="911.9766" fill="#84BE84" rx="3" ry="3" style="stroke:#038048;stroke-width:1.0;"/><text fill="#000000" font-family="sans-serif" font-size="14" lengthAdjust="spacing" textLength="146" x="545" y="916.2051">ReopenToDraft() : void</text><rect fill="#F24D5C" height="6" style="stroke:#C82930;stroke-width:1.0;" width="6" x="533" y="926.5859"/><text fill="#000000" font-family="sans-serif" font-size="14" lengthAdjust="spacing" textLength="99" x="545" y="933.8145">CanEdit() : bool</text></g><!--class VVNState--><g id="elem_VVNState"><rect codeLine="47" fill="#F1F1F1" height="118.4375" id="VVNState" rx="2.5" ry="2.5" style="stroke:#181818;stroke-width:0.5;" width="110" x="488" y="1063.6094"/><ellipse cx="511.1" cy="1079.6094" fill="#EB937F" rx="11" ry="11" style="stroke:#181818;stroke-width:1.0;"/><path d="M509.9594,1080.4063 L509.9594,1082.9063 L514.2875,1082.9063 L514.2875,1081.9844 Q514.2875,1081.375 514.5219,1081.1094 Q514.7719,1080.8438 515.1469,1080.8438 Q515.5219,1080.8438 515.7563,1081.1094 Q515.9906,1081.375 515.9906,1081.9844 L515.9906,1084.6094 L507.9906,1084.6094 Q507.3656,1084.6094 507.1,1084.375 Q506.85,1084.1406 506.85,1083.75 Q506.85,1083.375 507.1156,1083.1406 Q507.3813,1082.9063 507.9906,1082.9063 L508.2563,1082.9063 L508.2563,1076.25 L507.9906,1076.25 Q507.3656,1076.25 507.1,1076.0156 Q506.85,1075.7813 506.85,1075.3906 Q506.85,1075.0156 507.1,1074.7813 Q507.3656,1074.5469 507.9906,1074.5469 L515.6156,1074.5469 L515.6156,1077.1406 Q515.6156,1077.75 515.3813,1078.0156 Q515.1625,1078.2656 514.7719,1078.2656 Q514.3969,1078.2656 514.1625,1078.0156 Q513.9281,1077.75 513.9281,1077.1406 L513.9281,1076.25 L509.9594,1076.25 L509.9594,1078.7031 L511.4438,1078.7031 Q511.4438,1078.0469 511.5688,1077.8594 Q511.8344,1077.4531 512.3031,1077.4531 Q512.6781,1077.4531 512.9125,1077.7188 Q513.1469,1077.9688 513.1469,1078.5781 L513.1469,1080.5469 Q513.1469,1081.0938 513.0219,1081.2813 Q512.7563,1081.6719 512.3031,1081.6719 Q511.8344,1081.6719 511.5688,1081.2656 Q511.4438,1081.0781 511.4438,1080.4063 L509.9594,1080.4063 Z " fill="#000000"/><text fill="#000000" font-family="sans-serif" font-size="14" lengthAdjust="spacing" textLength="60" x="526.9" y="1085.3379">VVNState</text><line style="stroke:#181818;stroke-width:0.5;" x1="489" x2="597" y1="1095.6094" y2="1095.6094"/><text fill="#000000" font-family="sans-serif" font-size="14" lengthAdjust="spacing" textLength="98" x="494" y="1114.1426">IN_PROGRESS</text><text fill="#000000" font-family="sans-serif" font-size="14" lengthAdjust="spacing" textLength="78" x="494" y="1131.752">SUBMITTED</text><text fill="#000000" font-family="sans-serif" font-size="14" lengthAdjust="spacing" textLength="76" x="494" y="1149.3613">APPROVED</text><text fill="#000000" font-family="sans-serif" font-size="14" lengthAdjust="spacing" textLength="72" x="494" y="1166.9707">REJECTED</text><line style="stroke:#181818;stroke-width:0.5;" x1="489" x2="597" y1="1174.0469" y2="1174.0469"/></g><!--class VisitPurpose--><g id="elem_VisitPurpose"><rect codeLine="54" fill="#F1F1F1" height="118.4375" id="VisitPurpose" rx="2.5" ry="2.5" style="stroke:#181818;stroke-width:0.5;" width="111" x="633.5" y="1063.6094"/><ellipse cx="648.5" cy="1079.6094" fill="#EB937F" rx="11" ry="11" style="stroke:#181818;stroke-width:1.0;"/><path d="M647.3594,1080.4063 L647.3594,1082.9063 L651.6875,1082.9063 L651.6875,1081.9844 Q651.6875,1081.375 651.9219,1081.1094 Q652.1719,1080.8438 652.5469,1080.8438 Q652.9219,1080.8438 653.1563,1081.1094 Q653.3906,1081.375 653.3906,1081.9844 L653.3906,1084.6094 L645.3906,1084.6094 Q644.7656,1084.6094 644.5,1084.375 Q644.25,1084.1406 644.25,1083.75 Q644.25,1083.375 644.5156,1083.1406 Q644.7813,1082.9063 645.3906,1082.9063 L645.6563,1082.9063 L645.6563,1076.25 L645.3906,1076.25 Q644.7656,1076.25 644.5,1076.0156 Q644.25,1075.7813 644.25,1075.3906 Q644.25,1075.0156 644.5,1074.7813 Q644.7656,1074.5469 645.3906,1074.5469 L653.0156,1074.5469 L653.0156,1077.1406 Q653.0156,1077.75 652.7813,1078.0156 Q652.5625,1078.2656 652.1719,1078.2656 Q651.7969,1078.2656 651.5625,1078.0156 Q651.3281,1077.75 651.3281,1077.1406 L651.3281,1076.25 L647.3594,1076.25 L647.3594,1078.7031 L648.8438,1078.7031 Q648.8438,1078.0469 648.9688,1077.8594 Q649.2344,1077.4531 649.7031,1077.4531 Q650.0781,1077.4531 650.3125,1077.7188 Q650.5469,1077.9688 650.5469,1078.5781 L650.5469,1080.5469 Q650.5469,1081.0938 650.4219,1081.2813 Q650.1563,1081.6719 649.7031,1081.6719 Q649.2344,1081.6719 648.9688,1081.2656 Q648.8438,1081.0781 648.8438,1080.4063 L647.3594,1080.4063 Z " fill="#000000"/><text fill="#000000" font-family="sans-serif" font-size="14" lengthAdjust="spacing" textLength="79" x="662.5" y="1085.3379">VisitPurpose</text><line style="stroke:#181818;stroke-width:0.5;" x1="634.5" x2="743.5" y1="1095.6094" y2="1095.6094"/><text fill="#000000" font-family="sans-serif" font-size="14" lengthAdjust="spacing" textLength="38" x="639.5" y="1114.1426">LOAD</text><text fill="#000000" font-family="sans-serif" font-size="14" lengthAdjust="spacing" textLength="56" x="639.5" y="1131.752">UNLOAD</text><text fill="#000000" font-family="sans-serif" font-size="14" lengthAdjust="spacing" textLength="38" x="639.5" y="1149.3613">BOTH</text><text fill="#000000" font-family="sans-serif" font-size="14" lengthAdjust="spacing" textLength="96" x="639.5" y="1166.9707">MAINTENANCE</text><line style="stroke:#181818;stroke-width:0.5;" x1="634.5" x2="743.5" y1="1174.0469" y2="1174.0469"/></g><!--class Organization--><g id="elem_Organization"><rect codeLine="63" fill="#F1F1F1" height="146.75" id="Organization" rx="2.5" ry="2.5" style="stroke:#181818;stroke-width:0.5;" width="184" x="1074" y="670.6094"/><ellipse cx="1116.9" cy="691.9609" fill="#ADD1B2" rx="11" ry="11" style="stroke:#181818;stroke-width:1.0;"/><path d="M1119.6656,687.8359 Q1119.8219,687.6172 1120.0094,687.5078 Q1120.1969,687.3984 1120.4156,687.3984 Q1120.7906,687.3984 1121.025,687.6641 Q1121.2594,687.9141 1121.2594,688.5234 L1121.2594,689.9766 Q1121.2594,690.5859 1121.025,690.8516 Q1120.7906,691.1172 1120.4156,691.1172 Q1120.0719,691.1172 1119.8688,690.9141 Q1119.6656,690.7266 1119.5563,690.2109 Q1119.5094,689.8516 1119.3219,689.6641 Q1118.9938,689.2891 1118.3844,689.0703 Q1117.775,688.8516 1117.15,688.8516 Q1116.3844,688.8516 1115.7438,689.1797 Q1115.1188,689.5078 1114.6188,690.2578 Q1114.1344,691.0078 1114.1344,692.0391 L1114.1344,693.1328 Q1114.1344,694.3672 1115.025,695.1953 Q1115.9156,696.0078 1117.5094,696.0078 Q1118.4469,696.0078 1119.1031,695.7578 Q1119.4938,695.6016 1119.9156,695.1641 Q1120.1813,694.8984 1120.3219,694.8203 Q1120.4781,694.7422 1120.6813,694.7422 Q1121.0094,694.7422 1121.2594,695.0078 Q1121.525,695.2578 1121.525,695.6016 Q1121.525,695.9453 1121.1813,696.3516 Q1120.6813,696.9297 1119.8844,697.2578 Q1118.8063,697.7109 1117.5094,697.7109 Q1115.9938,697.7109 1114.7906,697.0859 Q1113.8063,696.5859 1113.1188,695.5234 Q1112.4313,694.4453 1112.4313,693.1641 L1112.4313,692.0078 Q1112.4313,690.6797 1113.0406,689.5391 Q1113.6656,688.3828 1114.7594,687.7734 Q1115.8531,687.1484 1117.0875,687.1484 Q1117.8219,687.1484 1118.4625,687.3203 Q1119.1188,687.4766 1119.6656,687.8359 Z " fill="#000000"/><text fill="#000000" font-family="sans-serif" font-size="12" font-style="italic" lengthAdjust="spacing" textLength="94" x="1135.1" y="688.0664">&#171;aggregate root&#187;</text><text fill="#000000" font-family="sans-serif" font-size="14" lengthAdjust="spacing" textLength="80" x="1142.1" y="705.2363">Organization</text><line style="stroke:#181818;stroke-width:0.5;" x1="1075" x2="1257" y1="713.3125" y2="713.3125"/><ellipse cx="1085" cy="727.6172" fill="none" rx="3" ry="3" style="stroke:#038048;stroke-width:1.0;"/><text fill="#000000" font-family="sans-serif" font-size="14" lengthAdjust="spacing" textLength="114" x="1094" y="731.8457">Id : OrganizationId</text><ellipse cx="1085" cy="745.2266" fill="none" rx="3" ry="3" style="stroke:#038048;stroke-width:1.0;"/><text fill="#000000" font-family="sans-serif" font-size="14" lengthAdjust="spacing" textLength="101" x="1094" y="749.4551">Identifier : string</text><ellipse cx="1085" cy="762.8359" fill="none" rx="3" ry="3" style="stroke:#038048;stroke-width:1.0;"/><text fill="#000000" font-family="sans-serif" font-size="14" lengthAdjust="spacing" textLength="118" x="1094" y="767.0645">LegalName : string</text><ellipse cx="1085" cy="780.4453" fill="none" rx="3" ry="3" style="stroke:#038048;stroke-width:1.0;"/><text fill="#000000" font-family="sans-serif" font-size="14" lengthAdjust="spacing" textLength="158" x="1094" y="784.6738">AlternativeName : string?</text><ellipse cx="1085" cy="798.0547" fill="none" rx="3" ry="3" style="stroke:#038048;stroke-width:1.0;"/><text fill="#000000" font-family="sans-serif" font-size="14" lengthAdjust="spacing" textLength="156" x="1094" y="802.2832">Type : OrganizationType</text><line style="stroke:#181818;stroke-width:0.5;" x1="1075" x2="1257" y1="809.3594" y2="809.3594"/></g><!--class OrganizationId--><g id="elem_OrganizationId"><rect codeLine="71" fill="#F1F1F1" height="76.3125" id="OrganizationId" rx="2.5" ry="2.5" style="stroke:#181818;stroke-width:0.5;" width="123" x="1074.5" y="1084.6094"/><ellipse cx="1089.5" cy="1105.9609" fill="#ADD1B2" rx="11" ry="11" style="stroke:#181818;stroke-width:1.0;"/><path d="M1092.2656,1101.8359 Q1092.4219,1101.6172 1092.6094,1101.5078 Q1092.7969,1101.3984 1093.0156,1101.3984 Q1093.3906,1101.3984 1093.625,1101.6641 Q1093.8594,1101.9141 1093.8594,1102.5234 L1093.8594,1103.9766 Q1093.8594,1104.5859 1093.625,1104.8516 Q1093.3906,1105.1172 1093.0156,1105.1172 Q1092.6719,1105.1172 1092.4688,1104.9141 Q1092.2656,1104.7266 1092.1563,1104.2109 Q1092.1094,1103.8516 1091.9219,1103.6641 Q1091.5938,1103.2891 1090.9844,1103.0703 Q1090.375,1102.8516 1089.75,1102.8516 Q1088.9844,1102.8516 1088.3438,1103.1797 Q1087.7188,1103.5078 1087.2188,1104.2578 Q1086.7344,1105.0078 1086.7344,1106.0391 L1086.7344,1107.1328 Q1086.7344,1108.3672 1087.625,1109.1953 Q1088.5156,1110.0078 1090.1094,1110.0078 Q1091.0469,1110.0078 1091.7031,1109.7578 Q1092.0938,1109.6016 1092.5156,1109.1641 Q1092.7813,1108.8984 1092.9219,1108.8203 Q1093.0781,1108.7422 1093.2813,1108.7422 Q1093.6094,1108.7422 1093.8594,1109.0078 Q1094.125,1109.2578 1094.125,1109.6016 Q1094.125,1109.9453 1093.7813,1110.3516 Q1093.2813,1110.9297 1092.4844,1111.2578 Q1091.4063,1111.7109 1090.1094,1111.7109 Q1088.5938,1111.7109 1087.3906,1111.0859 Q1086.4063,1110.5859 1085.7188,1109.5234 Q1085.0313,1108.4453 1085.0313,1107.1641 L1085.0313,1106.0078 Q1085.0313,1104.6797 1085.6406,1103.5391 Q1086.2656,1102.3828 1087.3594,1101.7734 Q1088.4531,1101.1484 1089.6875,1101.1484 Q1090.4219,1101.1484 1091.0625,1101.3203 Q1091.7188,1101.4766 1092.2656,1101.8359 Z " fill="#000000"/><text fill="#000000" font-family="sans-serif" font-size="12" font-style="italic" lengthAdjust="spacing" textLength="81" x="1108.5" y="1102.0664">&#171;value object&#187;</text><text fill="#000000" font-family="sans-serif" font-size="14" lengthAdjust="spacing" textLength="91" x="1103.5" y="1119.2363">OrganizationId</text><line style="stroke:#181818;stroke-width:0.5;" x1="1075.5" x2="1196.5" y1="1127.3125" y2="1127.3125"/><ellipse cx="1085.5" cy="1141.6172" fill="none" rx="3" ry="3" style="stroke:#038048;stroke-width:1.0;"/><text fill="#000000" font-family="sans-serif" font-size="14" lengthAdjust="spacing" textLength="78" x="1094.5" y="1145.8457">Value : Guid</text><line style="stroke:#181818;stroke-width:0.5;" x1="1075.5" x2="1196.5" y1="1152.9219" y2="1152.9219"/></g><!--class OrganizationType--><g id="elem_OrganizationType"><rect codeLine="75" fill="#F1F1F1" height="83.2188" id="OrganizationType" rx="2.5" ry="2.5" style="stroke:#181818;stroke-width:0.5;" width="144" x="1233" y="1081.1094"/><ellipse cx="1248" cy="1097.1094" fill="#EB937F" rx="11" ry="11" style="stroke:#181818;stroke-width:1.0;"/><path d="M1246.8594,1097.9063 L1246.8594,1100.4063 L1251.1875,1100.4063 L1251.1875,1099.4844 Q1251.1875,1098.875 1251.4219,1098.6094 Q1251.6719,1098.3438 1252.0469,1098.3438 Q1252.4219,1098.3438 1252.6563,1098.6094 Q1252.8906,1098.875 1252.8906,1099.4844 L1252.8906,1102.1094 L1244.8906,1102.1094 Q1244.2656,1102.1094 1244,1101.875 Q1243.75,1101.6406 1243.75,1101.25 Q1243.75,1100.875 1244.0156,1100.6406 Q1244.2813,1100.4063 1244.8906,1100.4063 L1245.1563,1100.4063 L1245.1563,1093.75 L1244.8906,1093.75 Q1244.2656,1093.75 1244,1093.5156 Q1243.75,1093.2813 1243.75,1092.8906 Q1243.75,1092.5156 1244,1092.2813 Q1244.2656,1092.0469 1244.8906,1092.0469 L1252.5156,1092.0469 L1252.5156,1094.6406 Q1252.5156,1095.25 1252.2813,1095.5156 Q1252.0625,1095.7656 1251.6719,1095.7656 Q1251.2969,1095.7656 1251.0625,1095.5156 Q1250.8281,1095.25 1250.8281,1094.6406 L1250.8281,1093.75 L1246.8594,1093.75 L1246.8594,1096.2031 L1248.3438,1096.2031 Q1248.3438,1095.5469 1248.4688,1095.3594 Q1248.7344,1094.9531 1249.2031,1094.9531 Q1249.5781,1094.9531 1249.8125,1095.2188 Q1250.0469,1095.4688 1250.0469,1096.0781 L1250.0469,1098.0469 Q1250.0469,1098.5938 1249.9219,1098.7813 Q1249.6563,1099.1719 1249.2031,1099.1719 Q1248.7344,1099.1719 1248.4688,1098.7656 Q1248.3438,1098.5781 1248.3438,1097.9063 L1246.8594,1097.9063 Z " fill="#000000"/><text fill="#000000" font-family="sans-serif" font-size="14" lengthAdjust="spacing" textLength="112" x="1262" y="1102.8379">OrganizationType</text><line style="stroke:#181818;stroke-width:0.5;" x1="1234" x2="1376" y1="1113.1094" y2="1113.1094"/><text fill="#000000" font-family="sans-serif" font-size="14" lengthAdjust="spacing" textLength="125" x="1239" y="1131.6426">PORT_AUTHORITY</text><text fill="#000000" font-family="sans-serif" font-size="14" lengthAdjust="spacing" textLength="117" x="1239" y="1149.252">SHIPPING_AGENT</text><line style="stroke:#181818;stroke-width:0.5;" x1="1234" x2="1376" y1="1156.3281" y2="1156.3281"/></g><!--class User--><g id="elem_User"><rect codeLine="82" fill="#F1F1F1" height="111.5313" id="User" rx="2.5" ry="2.5" style="stroke:#181818;stroke-width:0.5;" width="122" x="1433" y="688.1094"/><ellipse cx="1448" cy="709.4609" fill="#ADD1B2" rx="11" ry="11" style="stroke:#181818;stroke-width:1.0;"/><path d="M1450.7656,705.3359 Q1450.9219,705.1172 1451.1094,705.0078 Q1451.2969,704.8984 1451.5156,704.8984 Q1451.8906,704.8984 1452.125,705.1641 Q1452.3594,705.4141 1452.3594,706.0234 L1452.3594,707.4766 Q1452.3594,708.0859 1452.125,708.3516 Q1451.8906,708.6172 1451.5156,708.6172 Q1451.1719,708.6172 1450.9688,708.4141 Q1450.7656,708.2266 1450.6563,707.7109 Q1450.6094,707.3516 1450.4219,707.1641 Q1450.0938,706.7891 1449.4844,706.5703 Q1448.875,706.3516 1448.25,706.3516 Q1447.4844,706.3516 1446.8438,706.6797 Q1446.2188,707.0078 1445.7188,707.7578 Q1445.2344,708.5078 1445.2344,709.5391 L1445.2344,710.6328 Q1445.2344,711.8672 1446.125,712.6953 Q1447.0156,713.5078 1448.6094,713.5078 Q1449.5469,713.5078 1450.2031,713.2578 Q1450.5938,713.1016 1451.0156,712.6641 Q1451.2813,712.3984 1451.4219,712.3203 Q1451.5781,712.2422 1451.7813,712.2422 Q1452.1094,712.2422 1452.3594,712.5078 Q1452.625,712.7578 1452.625,713.1016 Q1452.625,713.4453 1452.2813,713.8516 Q1451.7813,714.4297 1450.9844,714.7578 Q1449.9063,715.2109 1448.6094,715.2109 Q1447.0938,715.2109 1445.8906,714.5859 Q1444.9063,714.0859 1444.2188,713.0234 Q1443.5313,711.9453 1443.5313,710.6641 L1443.5313,709.5078 Q1443.5313,708.1797 1444.1406,707.0391 Q1444.7656,705.8828 1445.8594,705.2734 Q1446.9531,704.6484 1448.1875,704.6484 Q1448.9219,704.6484 1449.5625,704.8203 Q1450.2188,704.9766 1450.7656,705.3359 Z " fill="#000000"/><text fill="#000000" font-family="sans-serif" font-size="12" font-style="italic" lengthAdjust="spacing" textLength="94" x="1460" y="705.5664">&#171;aggregate root&#187;</text><text fill="#000000" font-family="sans-serif" font-size="14" lengthAdjust="spacing" textLength="29" x="1492.5" y="722.7363">User</text><line style="stroke:#181818;stroke-width:0.5;" x1="1434" x2="1554" y1="730.8125" y2="730.8125"/><ellipse cx="1444" cy="745.1172" fill="none" rx="3" ry="3" style="stroke:#038048;stroke-width:1.0;"/><text fill="#000000" font-family="sans-serif" font-size="14" lengthAdjust="spacing" textLength="63" x="1453" y="749.3457">Id : UserId</text><ellipse cx="1444" cy="762.7266" fill="none" rx="3" ry="3" style="stroke:#038048;stroke-width:1.0;"/><text fill="#000000" font-family="sans-serif" font-size="14" lengthAdjust="spacing" textLength="81" x="1453" y="766.9551">Email : string</text><ellipse cx="1444" cy="780.3359" fill="none" rx="3" ry="3" style="stroke:#038048;stroke-width:1.0;"/><text fill="#000000" font-family="sans-serif" font-size="14" lengthAdjust="spacing" textLength="76" x="1453" y="784.5645">Role : string</text><line style="stroke:#181818;stroke-width:0.5;" x1="1434" x2="1554" y1="791.6406" y2="791.6406"/></g><!--class UserId--><g id="elem_UserId"><rect codeLine="88" fill="#F1F1F1" height="76.3125" id="UserId" rx="2.5" ry="2.5" style="stroke:#181818;stroke-width:0.5;" width="109" x="1433.5" y="1084.6094"/><ellipse cx="1448.5" cy="1105.9609" fill="#ADD1B2" rx="11" ry="11" style="stroke:#181818;stroke-width:1.0;"/><path d="M1451.2656,1101.8359 Q1451.4219,1101.6172 1451.6094,1101.5078 Q1451.7969,1101.3984 1452.0156,1101.3984 Q1452.3906,1101.3984 1452.625,1101.6641 Q1452.8594,1101.9141 1452.8594,1102.5234 L1452.8594,1103.9766 Q1452.8594,1104.5859 1452.625,1104.8516 Q1452.3906,1105.1172 1452.0156,1105.1172 Q1451.6719,1105.1172 1451.4688,1104.9141 Q1451.2656,1104.7266 1451.1563,1104.2109 Q1451.1094,1103.8516 1450.9219,1103.6641 Q1450.5938,1103.2891 1449.9844,1103.0703 Q1449.375,1102.8516 1448.75,1102.8516 Q1447.9844,1102.8516 1447.3438,1103.1797 Q1446.7188,1103.5078 1446.2188,1104.2578 Q1445.7344,1105.0078 1445.7344,1106.0391 L1445.7344,1107.1328 Q1445.7344,1108.3672 1446.625,1109.1953 Q1447.5156,1110.0078 1449.1094,1110.0078 Q1450.0469,1110.0078 1450.7031,1109.7578 Q1451.0938,1109.6016 1451.5156,1109.1641 Q1451.7813,1108.8984 1451.9219,1108.8203 Q1452.0781,1108.7422 1452.2813,1108.7422 Q1452.6094,1108.7422 1452.8594,1109.0078 Q1453.125,1109.2578 1453.125,1109.6016 Q1453.125,1109.9453 1452.7813,1110.3516 Q1452.2813,1110.9297 1451.4844,1111.2578 Q1450.4063,1111.7109 1449.1094,1111.7109 Q1447.5938,1111.7109 1446.3906,1111.0859 Q1445.4063,1110.5859 1444.7188,1109.5234 Q1444.0313,1108.4453 1444.0313,1107.1641 L1444.0313,1106.0078 Q1444.0313,1104.6797 1444.6406,1103.5391 Q1445.2656,1102.3828 1446.3594,1101.7734 Q1447.4531,1101.1484 1448.6875,1101.1484 Q1449.4219,1101.1484 1450.0625,1101.3203 Q1450.7188,1101.4766 1451.2656,1101.8359 Z " fill="#000000"/><text fill="#000000" font-family="sans-serif" font-size="12" font-style="italic" lengthAdjust="spacing" textLength="81" x="1460.5" y="1102.0664">&#171;value object&#187;</text><text fill="#000000" font-family="sans-serif" font-size="14" lengthAdjust="spacing" textLength="40" x="1481" y="1119.2363">UserId</text><line style="stroke:#181818;stroke-width:0.5;" x1="1434.5" x2="1541.5" y1="1127.3125" y2="1127.3125"/><ellipse cx="1444.5" cy="1141.6172" fill="none" rx="3" ry="3" style="stroke:#038048;stroke-width:1.0;"/><text fill="#000000" font-family="sans-serif" font-size="14" lengthAdjust="spacing" textLength="78" x="1453.5" y="1145.8457">Value : Guid</text><line style="stroke:#181818;stroke-width:0.5;" x1="1434.5" x2="1541.5" y1="1152.9219" y2="1152.9219"/></g><!--class DockAssignment--><g id="elem_DockAssignment"><rect codeLine="94" fill="#F1F1F1" height="164.3594" id="DockAssignment" rx="2.5" ry="2.5" style="stroke:#181818;stroke-width:0.5;" width="166" x="801" y="1040.6094"/><ellipse cx="829.05" cy="1061.9609" fill="#ADD1B2" rx="11" ry="11" style="stroke:#181818;stroke-width:1.0;"/><path d="M831.8156,1057.8359 Q831.9719,1057.6172 832.1594,1057.5078 Q832.3469,1057.3984 832.5656,1057.3984 Q832.9406,1057.3984 833.175,1057.6641 Q833.4094,1057.9141 833.4094,1058.5234 L833.4094,1059.9766 Q833.4094,1060.5859 833.175,1060.8516 Q832.9406,1061.1172 832.5656,1061.1172 Q832.2219,1061.1172 832.0188,1060.9141 Q831.8156,1060.7266 831.7063,1060.2109 Q831.6594,1059.8516 831.4719,1059.6641 Q831.1438,1059.2891 830.5344,1059.0703 Q829.925,1058.8516 829.3,1058.8516 Q828.5344,1058.8516 827.8938,1059.1797 Q827.2688,1059.5078 826.7688,1060.2578 Q826.2844,1061.0078 826.2844,1062.0391 L826.2844,1063.1328 Q826.2844,1064.3672 827.175,1065.1953 Q828.0656,1066.0078 829.6594,1066.0078 Q830.5969,1066.0078 831.2531,1065.7578 Q831.6438,1065.6016 832.0656,1065.1641 Q832.3313,1064.8984 832.4719,1064.8203 Q832.6281,1064.7422 832.8313,1064.7422 Q833.1594,1064.7422 833.4094,1065.0078 Q833.675,1065.2578 833.675,1065.6016 Q833.675,1065.9453 833.3313,1066.3516 Q832.8313,1066.9297 832.0344,1067.2578 Q830.9563,1067.7109 829.6594,1067.7109 Q828.1438,1067.7109 826.9406,1067.0859 Q825.9563,1066.5859 825.2688,1065.5234 Q824.5813,1064.4453 824.5813,1063.1641 L824.5813,1062.0078 Q824.5813,1060.6797 825.1906,1059.5391 Q825.8156,1058.3828 826.9094,1057.7734 Q828.0031,1057.1484 829.2375,1057.1484 Q829.9719,1057.1484 830.6125,1057.3203 Q831.2688,1057.4766 831.8156,1057.8359 Z " fill="#000000"/><text fill="#000000" font-family="sans-serif" font-size="12" font-style="italic" lengthAdjust="spacing" textLength="94" x="851.45" y="1058.0664">&#171;aggregate root&#187;</text><text fill="#000000" font-family="sans-serif" font-size="14" lengthAdjust="spacing" textLength="105" x="845.95" y="1075.2363">DockAssignment</text><line style="stroke:#181818;stroke-width:0.5;" x1="802" x2="966" y1="1083.3125" y2="1083.3125"/><ellipse cx="812" cy="1097.6172" fill="none" rx="3" ry="3" style="stroke:#038048;stroke-width:1.0;"/><text fill="#000000" font-family="sans-serif" font-size="14" lengthAdjust="spacing" textLength="53" x="821" y="1101.8457">Id : Guid</text><ellipse cx="812" cy="1115.2266" fill="none" rx="3" ry="3" style="stroke:#038048;stroke-width:1.0;"/><text fill="#000000" font-family="sans-serif" font-size="14" lengthAdjust="spacing" textLength="113" x="821" y="1119.4551">DockCode : string</text><ellipse cx="812" cy="1132.8359" fill="none" rx="3" ry="3" style="stroke:#038048;stroke-width:1.0;"/><text fill="#000000" font-family="sans-serif" font-size="14" lengthAdjust="spacing" textLength="140" x="821" y="1137.0645">BerthFrom : DateTime</text><ellipse cx="812" cy="1150.4453" fill="none" rx="3" ry="3" style="stroke:#038048;stroke-width:1.0;"/><text fill="#000000" font-family="sans-serif" font-size="14" lengthAdjust="spacing" textLength="124" x="821" y="1154.6738">BerthTo : DateTime</text><ellipse cx="812" cy="1168.0547" fill="none" rx="3" ry="3" style="stroke:#038048;stroke-width:1.0;"/><text fill="#000000" font-family="sans-serif" font-size="14" lengthAdjust="spacing" textLength="77" x="821" y="1172.2832">VvnId : Guid</text><ellipse cx="812" cy="1185.6641" fill="none" rx="3" ry="3" style="stroke:#038048;stroke-width:1.0;"/><text fill="#000000" font-family="sans-serif" font-size="14" lengthAdjust="spacing" textLength="87" x="821" y="1189.8926">Status : string</text><line style="stroke:#181818;stroke-width:0.5;" x1="802" x2="966" y1="1196.9688" y2="1196.9688"/></g><!--class PortDbContext--><g id="elem_PortDbContext"><rect codeLine="105" fill="#F1F1F1" height="118.4375" id="PortDbContext" rx="2.5" ry="2.5" style="stroke:#181818;stroke-width:0.5;" width="374" x="852" y="283.6094"/><ellipse cx="988.75" cy="299.6094" fill="#ADD1B2" rx="11" ry="11" style="stroke:#181818;stroke-width:1.0;"/><path d="M991.5156,295.4844 Q991.6719,295.2656 991.8594,295.1563 Q992.0469,295.0469 992.2656,295.0469 Q992.6406,295.0469 992.875,295.3125 Q993.1094,295.5625 993.1094,296.1719 L993.1094,297.625 Q993.1094,298.2344 992.875,298.5 Q992.6406,298.7656 992.2656,298.7656 Q991.9219,298.7656 991.7188,298.5625 Q991.5156,298.375 991.4063,297.8594 Q991.3594,297.5 991.1719,297.3125 Q990.8438,296.9375 990.2344,296.7188 Q989.625,296.5 989,296.5 Q988.2344,296.5 987.5938,296.8281 Q986.9688,297.1563 986.4688,297.9063 Q985.9844,298.6563 985.9844,299.6875 L985.9844,300.7813 Q985.9844,302.0156 986.875,302.8438 Q987.7656,303.6563 989.3594,303.6563 Q990.2969,303.6563 990.9531,303.4063 Q991.3438,303.25 991.7656,302.8125 Q992.0313,302.5469 992.1719,302.4688 Q992.3281,302.3906 992.5313,302.3906 Q992.8594,302.3906 993.1094,302.6563 Q993.375,302.9063 993.375,303.25 Q993.375,303.5938 993.0313,304 Q992.5313,304.5781 991.7344,304.9063 Q990.6563,305.3594 989.3594,305.3594 Q987.8438,305.3594 986.6406,304.7344 Q985.6563,304.2344 984.9688,303.1719 Q984.2813,302.0938 984.2813,300.8125 L984.2813,299.6563 Q984.2813,298.3281 984.8906,297.1875 Q985.5156,296.0313 986.6094,295.4219 Q987.7031,294.7969 988.9375,294.7969 Q989.6719,294.7969 990.3125,294.9688 Q990.9688,295.125 991.5156,295.4844 Z " fill="#000000"/><text fill="#000000" font-family="sans-serif" font-size="14" lengthAdjust="spacing" textLength="92" x="1009.25" y="305.3379">PortDbContext</text><line style="stroke:#181818;stroke-width:0.5;" x1="853" x2="1225" y1="315.6094" y2="315.6094"/><ellipse cx="863" cy="329.9141" fill="none" rx="3" ry="3" style="stroke:#038048;stroke-width:1.0;"/><text fill="#000000" font-family="sans-serif" font-size="14" lengthAdjust="spacing" textLength="348" x="872" y="334.1426">VesselVisitNotifications : DbSet&lt;VesselVisitNotification&gt;</text><ellipse cx="863" cy="347.5234" fill="none" rx="3" ry="3" style="stroke:#038048;stroke-width:1.0;"/><text fill="#000000" font-family="sans-serif" font-size="14" lengthAdjust="spacing" textLength="234" x="872" y="351.752">Organizations : DbSet&lt;Organization&gt;</text><ellipse cx="863" cy="365.1328" fill="none" rx="3" ry="3" style="stroke:#038048;stroke-width:1.0;"/><text fill="#000000" font-family="sans-serif" font-size="14" lengthAdjust="spacing" textLength="132" x="872" y="369.3613">Users : DbSet&lt;User&gt;</text><line style="stroke:#181818;stroke-width:0.5;" x1="853" x2="1225" y1="376.4375" y2="376.4375"/><ellipse cx="863" cy="390.7422" fill="#84BE84" rx="3" ry="3" style="stroke:#038048;stroke-width:1.0;"/><text fill="#000000" font-family="sans-serif" font-size="14" lengthAdjust="spacing" textLength="211" x="872" y="394.9707">SaveChangesAsync() : Task&lt;int&gt;</text></g><path d="M1611.5,609.6094 L1611.5,676.0156 L691,910.4766 L1611.5,684.0156 L1611.5,750.4219 A0,0 0 0 0 1611.5,750.4219 L1922.5,750.4219 A0,0 0 0 0 1922.5,750.4219 L1922.5,619.6094 L1912.5,609.6094 L1611.5,609.6094 A0,0 0 0 0 1611.5,609.6094 " fill="#FEFFDD" style="stroke:#181818;stroke-width:0.5;"/><path d="M1912.5,609.6094 L1912.5,619.6094 L1922.5,619.6094 L1912.5,609.6094 " fill="#FEFFDD" style="stroke:#181818;stroke-width:0.5;"/><text fill="#000000" font-family="sans-serif" font-size="13" lengthAdjust="spacing" textLength="88" x="1617.5" y="628.1045">Business Rule:</text><text fill="#000000" font-family="sans-serif" font-size="13" lengthAdjust="spacing" textLength="244" x="1617.5" y="644.4561">- Only REJECTED VVNs can be reopened</text><text fill="#000000" font-family="sans-serif" font-size="13" lengthAdjust="spacing" textLength="290" x="1617.5" y="660.8076">- State transitions: REJECTED &#8594; IN_PROGRESS</text><text fill="#000000" font-family="sans-serif" font-size="13" lengthAdjust="spacing" textLength="193" x="1617.5" y="677.1592">- Rejection metadata is preserved</text><text fill="#000000" font-family="sans-serif" font-size="13" lengthAdjust="spacing" textLength="219" x="1617.5" y="693.5107">- After reopen, VVN becomes editable</text><text fill="#000000" font-family="sans-serif" font-size="13" lengthAdjust="spacing" textLength="4" x="1617.5" y="709.8623">&#160;</text><text fill="#000000" font-family="sans-serif" font-size="13" lengthAdjust="spacing" textLength="191" x="1617.5" y="726.2139">throws InvalidOperationException</text><text fill="#000000" font-family="sans-serif" font-size="13" lengthAdjust="spacing" textLength="127" x="1617.5" y="742.5654">if State != REJECTED</text><path d="M1611.5,760.4219 L1611.5,810.4766 L644,928.0859 L1611.5,818.4766 L1611.5,868.5313 A0,0 0 0 0 1611.5,868.5313 L1855.5,868.5313 A0,0 0 0 0 1855.5,868.5313 L1855.5,770.4219 L1845.5,760.4219 L1611.5,760.4219 A0,0 0 0 0 1611.5,760.4219 " fill="#FEFFDD" style="stroke:#181818;stroke-width:0.5;"/><path d="M1845.5,760.4219 L1845.5,770.4219 L1855.5,770.4219 L1845.5,760.4219 " fill="#FEFFDD" style="stroke:#181818;stroke-width:0.5;"/><text fill="#000000" font-family="sans-serif" font-size="13" lengthAdjust="spacing" textLength="85" x="1617.5" y="778.917">Returns true if:</text><text fill="#000000" font-family="sans-serif" font-size="13" lengthAdjust="spacing" textLength="175" x="1617.5" y="795.2686">- State == IN_PROGRESS, or</text><text fill="#000000" font-family="sans-serif" font-size="13" lengthAdjust="spacing" textLength="130" x="1617.5" y="811.6201">- State == REJECTED</text><text fill="#000000" font-family="sans-serif" font-size="13" lengthAdjust="spacing" textLength="4" x="1617.5" y="827.9717">&#160;</text><text fill="#000000" font-family="sans-serif" font-size="13" lengthAdjust="spacing" textLength="223" x="1617.5" y="844.3232">Allows editing before initial submission</text><text fill="#000000" font-family="sans-serif" font-size="13" lengthAdjust="spacing" textLength="197" x="1617.5" y="860.6748">and after rejection (for corrections)</text><g id="elem_GMN40"><path d="M401,1291.6094 L401,1416.0703 A0,0 0 0 0 401,1416.0703 L685,1416.0703 A0,0 0 0 0 685,1416.0703 L685,1301.6094 L675,1291.6094 L547,1291.6094 L543,1181.6894 L539,1291.6094 L401,1291.6094 A0,0 0 0 0 401,1291.6094 " fill="#FEFFDD" style="stroke:#181818;stroke-width:0.5;"/><path d="M675,1291.6094 L675,1301.6094 L685,1301.6094 L675,1291.6094 " fill="#FEFFDD" style="stroke:#181818;stroke-width:0.5;"/><text fill="#000000" font-family="sans-serif" font-size="13" lengthAdjust="spacing" textLength="88" x="407" y="1310.1045">State Machine:</text><text fill="#000000" font-family="sans-serif" font-size="13" lengthAdjust="spacing" textLength="185" x="407" y="1326.4561">IN_PROGRESS &#8594; SUBMITTED</text><text fill="#000000" font-family="sans-serif" font-size="13" lengthAdjust="spacing" textLength="243" x="407" y="1342.8076">SUBMITTED &#8594; APPROVED | REJECTED</text><text fill="#000000" font-family="sans-serif" font-size="13" lengthAdjust="spacing" textLength="230" x="407" y="1359.1592">REJECTED &#8594; IN_PROGRESS (reopen)</text><text fill="#000000" font-family="sans-serif" font-size="13" lengthAdjust="spacing" textLength="4" x="407" y="1375.5107">&#160;</text><text fill="#000000" font-family="sans-serif" font-size="13" lengthAdjust="spacing" textLength="170" x="407" y="1391.8623">Terminal states: APPROVED</text><text fill="#000000" font-family="sans-serif" font-size="13" lengthAdjust="spacing" textLength="263" x="407" y="1408.2139">Editable states: IN_PROGRESS, REJECTED</text></g><!--link VesselVisitNotificationsController to PortDbContext--><g id="link_VesselVisitNotificationsController_PortDbContext"><path codeLine="114" d="M730.49,181.6294 C789.4,212.1694 859.9137,248.737 921.6537,280.757 " fill="none" id="VesselVisitNotificationsController-to-PortDbContext" style="stroke:#181818;stroke-width:1.0;"/><polygon fill="#181818" points="926.98,283.5194,920.8321,275.825,922.5414,281.2174,917.149,282.9267,926.98,283.5194" style="stroke:#181818;stroke-width:1.0;"/><text fill="#000000" font-family="sans-serif" font-size="13" lengthAdjust="spacing" textLength="28" x="825" y="228.1045">uses</text></g><!--link VesselVisitNotificationsController to CallerContextFactory--><g id="link_VesselVisitNotificationsController_CallerContextFactory"><path codeLine="115" d="M535.73,181.6294 C456.42,221.1894 352.9589,272.7908 284.6689,306.8608 " fill="none" id="VesselVisitNotificationsController-to-CallerContextFactory" style="stroke:#181818;stroke-width:1.0;"/><polygon fill="#181818" points="279.3,309.5394,289.1391,309.1008,283.7741,307.3072,285.5677,301.9423,279.3,309.5394" style="stroke:#181818;stroke-width:1.0;"/><text fill="#000000" font-family="sans-serif" font-size="13" lengthAdjust="spacing" textLength="28" x="464" y="228.1045">uses</text></g><!--link CallerContextFactory to CallerContext--><g id="link_CallerContextFactory_CallerContext"><path codeLine="116" d="M215,375.6294 C215,445.1494 215,604.3594 215,687.4994 " fill="none" id="CallerContextFactory-to-CallerContext" style="stroke:#181818;stroke-width:1.0;stroke-dasharray:7.0,7.0;"/><polygon fill="#181818" points="215,693.4994,219,684.4994,215,688.4994,211,684.4994,215,693.4994" style="stroke:#181818;stroke-width:1.0;"/><text fill="#000000" font-family="sans-serif" font-size="13" lengthAdjust="spacing" textLength="43" x="216" y="448.1045">creates</text></g><!--link VesselVisitNotificationsController to VesselVisitNotification--><g id="link_VesselVisitNotificationsController_VesselVisitNotification"><path codeLine="117" d="M635,181.8494 C635,260.8194 635,413.0594 635,541.4394 " fill="none" id="VesselVisitNotificationsController-to-VesselVisitNotification" style="stroke:#181818;stroke-width:1.0;stroke-dasharray:7.0,7.0;"/><polygon fill="#181818" points="635,547.4394,639,538.4394,635,542.4394,631,538.4394,635,547.4394" style="stroke:#181818;stroke-width:1.0;"/><text fill="#000000" font-family="sans-serif" font-size="13" lengthAdjust="spacing" textLength="53" x="636" y="348.1045">manages</text></g><!--link VesselVisitNotification to VVNState--><g id="link_VesselVisitNotification_VVNState"><path codeLine="119" d="M549.08,940.7894 C546.35,950.7694 543.95,960.7394 542,970.6094 C540.45,978.4594 541.97,980.6094 542,988.6094 C542.09,1013.0894 542.2309,1034.0996 542.4209,1057.3396 " fill="none" id="VesselVisitNotification-to-VVNState" style="stroke:#181818;stroke-width:1.0;"/><polygon fill="#181818" points="542.47,1063.3394,546.3963,1054.307,542.4291,1058.3395,538.3966,1054.3724,542.47,1063.3394" style="stroke:#181818;stroke-width:1.0;"/><text fill="#000000" font-family="sans-serif" font-size="13" lengthAdjust="spacing" textLength="21" x="543" y="985.1045">has</text></g><!--link VesselVisitNotification to VisitPurpose--><g id="link_VesselVisitNotification_VisitPurpose"><path codeLine="120" d="M563.27,940.7894 C565.65,957.9394 571.76,974.2094 583,988.6094 C592.02,1000.1694 603.25,987.8494 615,996.6094 C637.64,1013.4894 651.9612,1034.1606 663.9112,1058.1106 " fill="none" id="VesselVisitNotification-to-VisitPurpose" style="stroke:#181818;stroke-width:1.0;"/><polygon fill="#181818" points="666.59,1063.4794,666.151,1053.6403,664.3577,1059.0054,658.9926,1057.212,666.59,1063.4794" style="stroke:#181818;stroke-width:1.0;"/><text fill="#000000" font-family="sans-serif" font-size="13" lengthAdjust="spacing" textLength="21" x="584" y="985.1045">has</text></g><!--link VesselVisitNotification to OrganizationId--><g id="link_VesselVisitNotification_OrganizationId"><path codeLine="121" d="M705.46,940.6694 C719.24,959.4094 735.61,976.0694 755,988.6094 C776.29,1002.3694 959.28,987.6794 983,996.6094 C1031.15,1014.7394 1071.265,1050.1917 1099.655,1080.0417 " fill="none" id="VesselVisitNotification-to-OrganizationId" style="stroke:#181818;stroke-width:1.0;"/><polygon fill="#181818" points="1103.79,1084.3894,1100.4859,1075.1113,1100.3442,1080.7663,1094.6891,1080.6246,1103.79,1084.3894" style="stroke:#181818;stroke-width:1.0;"/><text fill="#000000" font-family="sans-serif" font-size="13" lengthAdjust="spacing" textLength="60" x="756" y="985.1045">belongs to</text></g><!--link VesselVisitNotification to UserId--><g id="link_VesselVisitNotification_UserId"><path codeLine="122" d="M745.16,892.6794 C782.11,931.0894 826.62,967.5594 876,988.6094 C902.42,999.8794 1367.37,983.6494 1393,996.6094 C1429.49,1015.0594 1453.0485,1049.4931 1468.6085,1079.2331 " fill="none" id="VesselVisitNotification-to-UserId" style="stroke:#181818;stroke-width:1.0;"/><polygon fill="#181818" points="1471.39,1084.5494,1470.762,1074.7206,1469.0721,1080.1191,1463.6735,1078.4292,1471.39,1084.5494" style="stroke:#181818;stroke-width:1.0;"/><text fill="#000000" font-family="sans-serif" font-size="13" lengthAdjust="spacing" textLength="180" x="877" y="985.1045">submitted/approved/rejected by</text></g><!--link VesselVisitNotification to DockAssignment--><g id="link_VesselVisitNotification_DockAssignment"><path codeLine="123" d="M617.9,940.6094 C623.64,958.4394 632.63,974.9094 646,988.6094 C663.89,1006.9394 737.73,985.8994 761,996.6094 C783.26,1006.8594 799.4243,1018.7999 816.9643,1036.1499 " fill="none" id="VesselVisitNotification-to-DockAssignment" style="stroke:#181818;stroke-width:1.0;"/><polygon fill="#181818" points="821.23,1040.3694,817.6445,1031.1964,817.6753,1036.8531,812.0185,1036.884,821.23,1040.3694" style="stroke:#181818;stroke-width:1.0;"/><text fill="#000000" font-family="sans-serif" font-size="13" lengthAdjust="spacing" textLength="67" x="647" y="985.1045">assigned to</text><text fill="#000000" font-family="sans-serif" font-size="13" lengthAdjust="spacing" textLength="22" x="594.8023" y="962.0941">0..1</text></g><!--link Organization to OrganizationId--><g id="link_Organization_OrganizationId"><path codeLine="125" d="M1160.22,817.6994 C1153.86,897.4094 1144.3971,1016.2884 1139.4571,1078.2184 " fill="none" id="Organization-to-OrganizationId" style="stroke:#181818;stroke-width:1.0;"/><polygon fill="#181818" points="1138.98,1084.1994,1143.683,1075.5459,1139.3776,1079.2152,1135.7083,1074.9098,1138.98,1084.1994" style="stroke:#181818;stroke-width:1.0;"/><text fill="#000000" font-family="sans-serif" font-size="13" lengthAdjust="spacing" textLength="69" x="1148" y="985.1045">identified by</text></g><!--link Organization to OrganizationType--><g id="link_Organization_OrganizationType"><path codeLine="126" d="M1192.8,817.6994 C1221.71,896.0194 1264.6415,1012.3109 1287.8915,1075.2709 " fill="none" id="Organization-to-OrganizationType" style="stroke:#181818;stroke-width:1.0;"/><polygon fill="#181818" points="1289.97,1080.8994,1290.6046,1071.071,1288.2379,1076.209,1283.0999,1073.8423,1289.97,1080.8994" style="stroke:#181818;stroke-width:1.0;"/><text fill="#000000" font-family="sans-serif" font-size="13" lengthAdjust="spacing" textLength="21" x="1253" y="985.1045">has</text></g><!--link User to UserId--><g id="link_User_UserId"><path codeLine="127" d="M1493.12,800.2594 C1491.88,878.0794 1489.7456,1012.0301 1488.6856,1078.5501 " fill="none" id="User-to-UserId" style="stroke:#181818;stroke-width:1.0;"/><polygon fill="#181818" points="1488.59,1084.5494,1492.7329,1075.6142,1488.6697,1079.55,1484.7339,1075.4868,1488.59,1084.5494" style="stroke:#181818;stroke-width:1.0;"/><text fill="#000000" font-family="sans-serif" font-size="13" lengthAdjust="spacing" textLength="69" x="1491" y="985.1045">identified by</text></g><!--link PortDbContext to VesselVisitNotification--><g id="link_PortDbContext_VesselVisitNotification"><path codeLine="129" d="M980.25,401.6994 C918.87,462.3994 825.3862,554.8404 749.5362,629.8504 " fill="none" id="PortDbContext-to-VesselVisitNotification" style="stroke:#181818;stroke-width:1.0;"/><polygon fill="#181818" points="745.27,634.0694,754.4819,630.5851,748.8252,630.5536,748.8567,624.8968,745.27,634.0694" style="stroke:#181818;stroke-width:1.0;"/><text fill="#000000" font-family="sans-serif" font-size="13" lengthAdjust="spacing" textLength="46" x="947" y="448.1045">persists</text></g><!--link PortDbContext to Organization--><g id="link_PortDbContext_Organization"><path codeLine="130" d="M1057.47,401.6994 C1080.07,472.7894 1116.5219,587.4815 1141.0619,664.6615 " fill="none" id="PortDbContext-to-Organization" style="stroke:#181818;stroke-width:1.0;"/><polygon fill="#181818" points="1142.88,670.3794,1143.9649,660.5904,1141.365,665.6144,1136.341,663.0145,1142.88,670.3794" style="stroke:#181818;stroke-width:1.0;"/><text fill="#000000" font-family="sans-serif" font-size="13" lengthAdjust="spacing" textLength="46" x="1074" y="448.1045">persists</text></g><!--link PortDbContext to User--><g id="link_PortDbContext_User"><path codeLine="131" d="M1226.14,371.3294 C1285.74,388.2794 1347.85,415.5994 1393,459.6094 C1456.04,521.0594 1479.0161,618.4976 1487.9261,681.9876 " fill="none" id="PortDbContext-to-User" style="stroke:#181818;stroke-width:1.0;"/><polygon fill="#181818" points="1488.76,687.9294,1491.4704,678.4608,1488.0651,682.9779,1483.548,679.5726,1488.76,687.9294" style="stroke:#181818;stroke-width:1.0;"/><text fill="#000000" font-family="sans-serif" font-size="13" lengthAdjust="spacing" textLength="46" x="1379" y="448.1045">persists</text></g><!--SRC=[bLVTSk8s5BxdATJSD3jTs7RlwY5a7F0cxco00OUPNcM4BOmQMs8acGtTvhOFq4Via_H8DhPiR48pJB1rllF_euEYAY7eQOa-3puFVaLzD4wmb6X2SInmwg05uJl2uEiF4YeIeTLgskljSFY2OuAknfmfmPE427c5llSG_8M6VqMa9CcAIggcND4D3R6YdCcAeO3hlpvwZjQQGbuLSj2S2pKvljiWISIUXWGWblXbVbZYVYfC3lX4u8swfX7WxpCQVO1lDzHMB8ZCabpoM-_DSiVTxPB2qhexOwnDBapwWaF5nS5ouBjKm1I-WNBlLGcWVn4ylTuI745aGA__O1udrEZ7ug2DgGajhD7_k_HQ2i59dkX0I2KeYwtpcOWnetyQ7_oZwnRz2O9Odj-sn632KqpPmCJsigIYuH37iI0nLWG9pjLeL3DrjMTQMQ4Jq3GYJBCJCHhLSNUPf0oq60jFV5ighS7HDMWURLvjr3mJEouDmdgrKSO1F-LjqZs5uNW2SWEQaXeXQYUC1O73o5Njv6MsJgbg0cuj1DIRuFipW6FRlGCmDOqbfEBer-svagWVj5byTp30l5ZQBEu472tk14nu-E9AIMEMGXKqIj4qUh-pbtNNxBbLpp2kCFCYcfFMd2VDFY8iIyk2iShIdpxF5xFxXRTSbcVBfxj7FmYyINdYpW6qiWuMtc_U-8WuKMCNOQNgwyoj13nDQwzti-2XV7bq_MdWJTtfsEjkJ3jvZVwqIUyrvVb2yCiERUkKho0rcUAqTG2vYIA2WSWzgK7i6WWEEz9Ghu_QPs2ZV8V3FKuoWlXQ5rfpr1YIDVIQAMggjBZdiqNmx3u53xE57_nU5SM3Fv_xq_jdzzwR1jrvqPNUo8S-kYWFUPVO8mT49ctHFHtx9_4g9lp_ZLEBI_LMRJXN9rxaPkCgqXB6F6gjeZiYr5PVeksZrP03taw4UwHDdPu0cMm6ptRRPnk1WPg5AXEaxcvjAQd7icFLqSQjbqGDEm2ZZX5TCTgdeyOTNg7qcqrTuZqPRp6BYNJbWOLcD0POlWmfKwFAxHzXk2QvnYtToTu5Ark_Fse4ma6P91VpjgvHXOXMsc3GO09qQ6xTYtHgzgwbnK4fPf1ssUkIP4mkhmu7RR4y3wtl8E_1JwxbDKauYoLI_2nVkS79ustz2HUtyYTnNDFNXxCo6itheAkV1uDVhX0sPy0FDlHgrqchnUKYPnIUnHSZNmV5ZCMQ9tKvlNg9cT1s9d47hK2baYrCDNlE8er55gB7k1vZDDugn3TTsXsdjfr0PntNLxJ84kBqz7uoOycXt1fqDKaKOWQvHi8mayZ0yXg3dmuCbEWgTYgcV__-fx6kzAkz3wL4uGZ3xaebsWcYVoCLCjqDtCI5cezQDMWDUKea8h0nuNMYXoPyr5RmRnBv32uC6iqW2iOzxpKaE_q04BefBFpXfbg128kG3jJ5uIfsDP2t831XOTB1h2KWtB5YS7DZE_iHSL4dMXiOVDmaqRPhXs2cWuCRBa0YWrUSv1q29Mrym60kBa9o3Durm578XSZVvOUcKskk55n2sglgHqTkooCEjv1jRRjbiCcMlKYMpuPoN2ZHNxOZNQb6rtdsFkJE1aIab6c_j05G8jPwwXKfBMcr89xcx3y0]--></g></svg>