<?xml version="1.0" encoding="us-ascii" standalone="no"?><svg xmlns="http://www.w3.org/2000/svg" xmlns:xlink="http://www.w3.org/1999/xlink" contentStyleType="text/css" height="910px" preserveAspectRatio="none" style="width:2565px;height:910px;background:#FFFFFF;" version="1.1" viewBox="0 0 2565 910" width="2565px" zoomAndPan="magnify"><defs/><g><text fill="#000000" font-family="sans-serif" font-size="14" font-weight="bold" lengthAdjust="spacing" textLength="388" x="1081.75" y="24.5332">US 2.2.9 - Domain Model Excerpt: Reopen Rejected VVN</text><!--cluster Visits Aggregate--><g id="cluster_Visits Aggregate"><path d="M420.5,83.9594 L536.5,83.9594 A3.75,3.75 0 0 1 539,86.4594 L546,107.5688 L1212.5,107.5688 A2.5,2.5 0 0 1 1215,110.0688 L1215,671.4594 A2.5,2.5 0 0 1 1212.5,673.9594 L420.5,673.9594 A2.5,2.5 0 0 1 418,671.4594 L418,86.4594 A2.5,2.5 0 0 1 420.5,83.9594 " fill="none" style="stroke:#000000;stroke-width:1.5;"/><line style="stroke:#000000;stroke-width:1.5;" x1="418" x2="546" y1="107.5688" y2="107.5688"/><text fill="#000000" font-family="sans-serif" font-size="14" font-weight="bold" lengthAdjust="spacing" textLength="115" x="422" y="100.4926">Visits Aggregate</text></g><!--cluster Organization Aggregate--><g id="cluster_Organization Aggregate"><path d="M1697.5,489.4594 L1864.5,489.4594 A3.75,3.75 0 0 1 1867,491.9594 L1874,513.0688 L2218.5,513.0688 A2.5,2.5 0 0 1 2221,515.5688 L2221,901.4594 A2.5,2.5 0 0 1 2218.5,903.9594 L1697.5,903.9594 A2.5,2.5 0 0 1 1695,901.4594 L1695,491.9594 A2.5,2.5 0 0 1 1697.5,489.4594 " fill="none" style="stroke:#000000;stroke-width:1.5;"/><line style="stroke:#000000;stroke-width:1.5;" x1="1695" x2="1874" y1="513.0688" y2="513.0688"/><text fill="#000000" font-family="sans-serif" font-size="14" font-weight="bold" lengthAdjust="spacing" textLength="166" x="1699" y="505.9926">Organization Aggregate</text></g><!--cluster User Aggregate--><g id="cluster_User Aggregate"><path d="M1519.5,171.9594 L1630.5,171.9594 A3.75,3.75 0 0 1 1633,174.4594 L1640,195.5688 L1668.5,195.5688 A2.5,2.5 0 0 1 1671,198.0688 L1671,650.4594 A2.5,2.5 0 0 1 1668.5,652.9594 L1519.5,652.9594 A2.5,2.5 0 0 1 1517,650.4594 L1517,174.4594 A2.5,2.5 0 0 1 1519.5,171.9594 " fill="none" style="stroke:#000000;stroke-width:1.5;"/><line style="stroke:#000000;stroke-width:1.5;" x1="1517" x2="1640" y1="195.5688" y2="195.5688"/><text fill="#000000" font-family="sans-serif" font-size="14" font-weight="bold" lengthAdjust="spacing" textLength="110" x="1521" y="188.4926">User Aggregate</text></g><!--cluster Vessel Aggregate--><g id="cluster_Vessel Aggregate"><path d="M1241.5,498.4594 L1366.5,498.4594 A3.75,3.75 0 0 1 1369,500.9594 L1376,522.0688 L1490.5,522.0688 A2.5,2.5 0 0 1 1493,524.5688 L1493,676.9594 A2.5,2.5 0 0 1 1490.5,679.4594 L1241.5,679.4594 A2.5,2.5 0 0 1 1239,676.9594 L1239,500.9594 A2.5,2.5 0 0 1 1241.5,498.4594 " fill="none" style="stroke:#000000;stroke-width:1.5;"/><line style="stroke:#000000;stroke-width:1.5;" x1="1239" x2="1376" y1="522.0688" y2="522.0688"/><text fill="#000000" font-family="sans-serif" font-size="14" font-weight="bold" lengthAdjust="spacing" textLength="124" x="1243" y="514.9926">Vessel Aggregate</text></g><!--cluster Dock Assignment Aggregate--><g id="cluster_Dock Assignment Aggregate"><path d="M28.5,471.9594 L227.5,471.9594 A3.75,3.75 0 0 1 230,474.4594 L237,495.5688 L237.5,495.5688 A2.5,2.5 0 0 1 240,498.0688 L240,703.4594 A2.5,2.5 0 0 1 237.5,705.9594 L28.5,705.9594 A2.5,2.5 0 0 1 26,703.4594 L26,474.4594 A2.5,2.5 0 0 1 28.5,471.9594 " fill="none" style="stroke:#000000;stroke-width:1.5;"/><line style="stroke:#000000;stroke-width:1.5;" x1="26" x2="237" y1="495.5688" y2="495.5688"/><text fill="#000000" font-family="sans-serif" font-size="14" font-weight="bold" lengthAdjust="spacing" textLength="198" x="30" y="488.4926">Dock Assignment Aggregate</text></g><!--class VesselVisitNotification--><g id="elem_VesselVisitNotification"><rect codeLine="5" fill="#F1F1F1" height="287.625" id="VesselVisitNotification" rx="2.5" ry="2.5" style="stroke:#181818;stroke-width:0.5;" width="250" x="868" y="119.9594"/><ellipse cx="920.25" cy="141.3109" fill="#ADD1B2" rx="11" ry="11" style="stroke:#181818;stroke-width:1.0;"/><path d="M923.0156,137.1859 Q923.1719,136.9672 923.3594,136.8578 Q923.5469,136.7484 923.7656,136.7484 Q924.1406,136.7484 924.375,137.0141 Q924.6094,137.2641 924.6094,137.8734 L924.6094,139.3266 Q924.6094,139.9359 924.375,140.2016 Q924.1406,140.4672 923.7656,140.4672 Q923.4219,140.4672 923.2188,140.2641 Q923.0156,140.0766 922.9063,139.5609 Q922.8594,139.2016 922.6719,139.0141 Q922.3438,138.6391 921.7344,138.4203 Q921.125,138.2016 920.5,138.2016 Q919.7344,138.2016 919.0938,138.5297 Q918.4688,138.8578 917.9688,139.6078 Q917.4844,140.3578 917.4844,141.3891 L917.4844,142.4828 Q917.4844,143.7172 918.375,144.5453 Q919.2656,145.3578 920.8594,145.3578 Q921.7969,145.3578 922.4531,145.1078 Q922.8438,144.9516 923.2656,144.5141 Q923.5313,144.2484 923.6719,144.1703 Q923.8281,144.0922 924.0313,144.0922 Q924.3594,144.0922 924.6094,144.3578 Q924.875,144.6078 924.875,144.9516 Q924.875,145.2953 924.5313,145.7016 Q924.0313,146.2797 923.2344,146.6078 Q922.1563,147.0609 920.8594,147.0609 Q919.3438,147.0609 918.1406,146.4359 Q917.1563,145.9359 916.4688,144.8734 Q915.7813,143.7953 915.7813,142.5141 L915.7813,141.3578 Q915.7813,140.0297 916.3906,138.8891 Q917.0156,137.7328 918.1094,137.1234 Q919.2031,136.4984 920.4375,136.4984 Q921.1719,136.4984 921.8125,136.6703 Q922.4688,136.8266 923.0156,137.1859 Z " fill="#000000"/><text fill="#000000" font-family="sans-serif" font-size="12" font-style="italic" lengthAdjust="spacing" textLength="94" x="962.25" y="137.4164">&#171;aggregate root&#187;</text><text fill="#000000" font-family="sans-serif" font-size="14" lengthAdjust="spacing" textLength="137" x="940.75" y="154.5863">VesselVisitNotification</text><line style="stroke:#181818;stroke-width:0.5;" x1="869" x2="1117" y1="162.6625" y2="162.6625"/><ellipse cx="879" cy="176.9672" fill="none" rx="3" ry="3" style="stroke:#038048;stroke-width:1.0;"/><text fill="#000000" font-family="sans-serif" font-size="14" lengthAdjust="spacing" textLength="96" x="888" y="181.1957">VvnGuid : Guid</text><ellipse cx="879" cy="194.5766" fill="none" rx="3" ry="3" style="stroke:#038048;stroke-width:1.0;"/><text fill="#000000" font-family="sans-serif" font-size="14" lengthAdjust="spacing" textLength="139" x="888" y="198.8051">VvnBusinessId : string</text><ellipse cx="879" cy="212.1859" fill="none" rx="3" ry="3" style="stroke:#038048;stroke-width:1.0;"/><text fill="#000000" font-family="sans-serif" font-size="14" lengthAdjust="spacing" textLength="105" x="888" y="216.4145">State : VVNState</text><ellipse cx="879" cy="229.7953" fill="none" rx="3" ry="3" style="stroke:#038048;stroke-width:1.0;"/><text fill="#000000" font-family="sans-serif" font-size="14" lengthAdjust="spacing" textLength="170" x="888" y="234.0238">VisitPurpose : VisitPurpose</text><ellipse cx="879" cy="247.4047" fill="none" rx="3" ry="3" style="stroke:#038048;stroke-width:1.0;"/><text fill="#000000" font-family="sans-serif" font-size="14" lengthAdjust="spacing" textLength="111" x="888" y="251.6332">VesselImo : string</text><ellipse cx="879" cy="265.0141" fill="none" rx="3" ry="3" style="stroke:#038048;stroke-width:1.0;"/><text fill="#000000" font-family="sans-serif" font-size="14" lengthAdjust="spacing" textLength="94" x="888" y="269.2426">Eta : DateTime</text><ellipse cx="879" cy="282.6234" fill="none" rx="3" ry="3" style="stroke:#038048;stroke-width:1.0;"/><text fill="#000000" font-family="sans-serif" font-size="14" lengthAdjust="spacing" textLength="94" x="888" y="286.852">Etd : DateTime</text><ellipse cx="879" cy="300.2328" fill="none" rx="3" ry="3" style="stroke:#038048;stroke-width:1.0;"/><text fill="#000000" font-family="sans-serif" font-size="14" lengthAdjust="spacing" textLength="163" x="888" y="304.4613">RejectionReason : string?</text><ellipse cx="879" cy="317.8422" fill="none" rx="3" ry="3" style="stroke:#038048;stroke-width:1.0;"/><text fill="#000000" font-family="sans-serif" font-size="14" lengthAdjust="spacing" textLength="150" x="888" y="322.0707">RejectedAt : DateTime?</text><line style="stroke:#181818;stroke-width:1.0;" x1="869" x2="1117" y1="329.1469" y2="329.1469"/><ellipse cx="879" cy="343.4516" fill="#84BE84" rx="3" ry="3" style="stroke:#038048;stroke-width:1.0;"/><text fill="#000000" font-family="sans-serif" font-size="14" lengthAdjust="spacing" textLength="108" x="888" y="347.6801">ReopenToDraft()</text><ellipse cx="879" cy="361.0609" fill="#84BE84" rx="3" ry="3" style="stroke:#038048;stroke-width:1.0;"/><text fill="#000000" font-family="sans-serif" font-size="14" lengthAdjust="spacing" textLength="53" x="888" y="365.2895">Submit()</text><ellipse cx="879" cy="378.6703" fill="#84BE84" rx="3" ry="3" style="stroke:#038048;stroke-width:1.0;"/><text fill="#000000" font-family="sans-serif" font-size="14" lengthAdjust="spacing" textLength="224" x="888" y="382.8988">Approve(officer, dockAssignmentId)</text><ellipse cx="879" cy="396.2797" fill="#84BE84" rx="3" ry="3" style="stroke:#038048;stroke-width:1.0;"/><text fill="#000000" font-family="sans-serif" font-size="14" lengthAdjust="spacing" textLength="141" x="888" y="400.5082">Reject(officer, reason)</text></g><!--class VVNState--><g id="elem_VVNState"><rect codeLine="22" fill="#F1F1F1" height="118.4375" id="VVNState" rx="2.5" ry="2.5" style="stroke:#181818;stroke-width:0.5;" width="110" x="434" y="539.9594"/><ellipse cx="457.1" cy="555.9594" fill="#EB937F" rx="11" ry="11" style="stroke:#181818;stroke-width:1.0;"/><path d="M455.9594,556.7563 L455.9594,559.2563 L460.2875,559.2563 L460.2875,558.3344 Q460.2875,557.725 460.5219,557.4594 Q460.7719,557.1938 461.1469,557.1938 Q461.5219,557.1938 461.7563,557.4594 Q461.9906,557.725 461.9906,558.3344 L461.9906,560.9594 L453.9906,560.9594 Q453.3656,560.9594 453.1,560.725 Q452.85,560.4906 452.85,560.1 Q452.85,559.725 453.1156,559.4906 Q453.3813,559.2563 453.9906,559.2563 L454.2563,559.2563 L454.2563,552.6 L453.9906,552.6 Q453.3656,552.6 453.1,552.3656 Q452.85,552.1313 452.85,551.7406 Q452.85,551.3656 453.1,551.1313 Q453.3656,550.8969 453.9906,550.8969 L461.6156,550.8969 L461.6156,553.4906 Q461.6156,554.1 461.3813,554.3656 Q461.1625,554.6156 460.7719,554.6156 Q460.3969,554.6156 460.1625,554.3656 Q459.9281,554.1 459.9281,553.4906 L459.9281,552.6 L455.9594,552.6 L455.9594,555.0531 L457.4438,555.0531 Q457.4438,554.3969 457.5688,554.2094 Q457.8344,553.8031 458.3031,553.8031 Q458.6781,553.8031 458.9125,554.0688 Q459.1469,554.3188 459.1469,554.9281 L459.1469,556.8969 Q459.1469,557.4438 459.0219,557.6313 Q458.7563,558.0219 458.3031,558.0219 Q457.8344,558.0219 457.5688,557.6156 Q457.4438,557.4281 457.4438,556.7563 L455.9594,556.7563 Z " fill="#000000"/><text fill="#000000" font-family="sans-serif" font-size="14" lengthAdjust="spacing" textLength="60" x="472.9" y="561.6879">VVNState</text><line style="stroke:#181818;stroke-width:0.5;" x1="435" x2="543" y1="571.9594" y2="571.9594"/><text fill="#000000" font-family="sans-serif" font-size="14" lengthAdjust="spacing" textLength="98" x="440" y="590.4926">IN_PROGRESS</text><text fill="#000000" font-family="sans-serif" font-size="14" lengthAdjust="spacing" textLength="78" x="440" y="608.102">SUBMITTED</text><text fill="#000000" font-family="sans-serif" font-size="14" lengthAdjust="spacing" textLength="76" x="440" y="625.7113">APPROVED</text><text fill="#000000" font-family="sans-serif" font-size="14" lengthAdjust="spacing" textLength="72" x="440" y="643.3207">REJECTED</text><line style="stroke:#181818;stroke-width:0.5;" x1="435" x2="543" y1="650.3969" y2="650.3969"/></g><!--class LoadingCargoManifest--><g id="elem_LoadingCargoManifest"><rect codeLine="29" fill="#F1F1F1" height="65.6094" id="LoadingCargoManifest" rx="2.5" ry="2.5" style="stroke:#181818;stroke-width:0.5;" width="206" x="579" y="565.9594"/><ellipse cx="607.95" cy="581.9594" fill="#ADD1B2" rx="11" ry="11" style="stroke:#181818;stroke-width:1.0;"/><path d="M610.7156,577.8344 Q610.8719,577.6156 611.0594,577.5063 Q611.2469,577.3969 611.4656,577.3969 Q611.8406,577.3969 612.075,577.6625 Q612.3094,577.9125 612.3094,578.5219 L612.3094,579.975 Q612.3094,580.5844 612.075,580.85 Q611.8406,581.1156 611.4656,581.1156 Q611.1219,581.1156 610.9188,580.9125 Q610.7156,580.725 610.6063,580.2094 Q610.5594,579.85 610.3719,579.6625 Q610.0438,579.2875 609.4344,579.0688 Q608.825,578.85 608.2,578.85 Q607.4344,578.85 606.7938,579.1781 Q606.1688,579.5063 605.6688,580.2563 Q605.1844,581.0063 605.1844,582.0375 L605.1844,583.1313 Q605.1844,584.3656 606.075,585.1938 Q606.9656,586.0063 608.5594,586.0063 Q609.4969,586.0063 610.1531,585.7563 Q610.5438,585.6 610.9656,585.1625 Q611.2313,584.8969 611.3719,584.8188 Q611.5281,584.7406 611.7313,584.7406 Q612.0594,584.7406 612.3094,585.0063 Q612.575,585.2563 612.575,585.6 Q612.575,585.9438 612.2313,586.35 Q611.7313,586.9281 610.9344,587.2563 Q609.8563,587.7094 608.5594,587.7094 Q607.0438,587.7094 605.8406,587.0844 Q604.8563,586.5844 604.1688,585.5219 Q603.4813,584.4438 603.4813,583.1625 L603.4813,582.0063 Q603.4813,580.6781 604.0906,579.5375 Q604.7156,578.3813 605.8094,577.7719 Q606.9031,577.1469 608.1375,577.1469 Q608.8719,577.1469 609.5125,577.3188 Q610.1688,577.475 610.7156,577.8344 Z " fill="#000000"/><text fill="#000000" font-family="sans-serif" font-size="14" lengthAdjust="spacing" textLength="143" x="625.05" y="587.6879">LoadingCargoManifest</text><line style="stroke:#181818;stroke-width:0.5;" x1="580" x2="784" y1="597.9594" y2="597.9594"/><ellipse cx="590" cy="612.2641" fill="none" rx="3" ry="3" style="stroke:#038048;stroke-width:1.0;"/><text fill="#000000" font-family="sans-serif" font-size="14" lengthAdjust="spacing" textLength="180" x="599" y="616.4926">Entries : List&lt;ManifestEntry&gt;</text><line style="stroke:#181818;stroke-width:0.5;" x1="580" x2="784" y1="623.5688" y2="623.5688"/></g><!--class UnloadingCargoManifest--><g id="elem_UnloadingCargoManifest"><rect codeLine="33" fill="#F1F1F1" height="65.6094" id="UnloadingCargoManifest" rx="2.5" ry="2.5" style="stroke:#181818;stroke-width:0.5;" width="206" x="820" y="565.9594"/><ellipse cx="843.55" cy="581.9594" fill="#ADD1B2" rx="11" ry="11" style="stroke:#181818;stroke-width:1.0;"/><path d="M846.3156,577.8344 Q846.4719,577.6156 846.6594,577.5063 Q846.8469,577.3969 847.0656,577.3969 Q847.4406,577.3969 847.675,577.6625 Q847.9094,577.9125 847.9094,578.5219 L847.9094,579.975 Q847.9094,580.5844 847.675,580.85 Q847.4406,581.1156 847.0656,581.1156 Q846.7219,581.1156 846.5188,580.9125 Q846.3156,580.725 846.2063,580.2094 Q846.1594,579.85 845.9719,579.6625 Q845.6438,579.2875 845.0344,579.0688 Q844.425,578.85 843.8,578.85 Q843.0344,578.85 842.3938,579.1781 Q841.7688,579.5063 841.2688,580.2563 Q840.7844,581.0063 840.7844,582.0375 L840.7844,583.1313 Q840.7844,584.3656 841.675,585.1938 Q842.5656,586.0063 844.1594,586.0063 Q845.0969,586.0063 845.7531,585.7563 Q846.1438,585.6 846.5656,585.1625 Q846.8313,584.8969 846.9719,584.8188 Q847.1281,584.7406 847.3313,584.7406 Q847.6594,584.7406 847.9094,585.0063 Q848.175,585.2563 848.175,585.6 Q848.175,585.9438 847.8313,586.35 Q847.3313,586.9281 846.5344,587.2563 Q845.4563,587.7094 844.1594,587.7094 Q842.6438,587.7094 841.4406,587.0844 Q840.4563,586.5844 839.7688,585.5219 Q839.0813,584.4438 839.0813,583.1625 L839.0813,582.0063 Q839.0813,580.6781 839.6906,579.5375 Q840.3156,578.3813 841.4094,577.7719 Q842.5031,577.1469 843.7375,577.1469 Q844.4719,577.1469 845.1125,577.3188 Q845.7688,577.475 846.3156,577.8344 Z " fill="#000000"/><text fill="#000000" font-family="sans-serif" font-size="14" lengthAdjust="spacing" textLength="155" x="859.45" y="587.6879">UnloadingCargoManifest</text><line style="stroke:#181818;stroke-width:0.5;" x1="821" x2="1025" y1="597.9594" y2="597.9594"/><ellipse cx="831" cy="612.2641" fill="none" rx="3" ry="3" style="stroke:#038048;stroke-width:1.0;"/><text fill="#000000" font-family="sans-serif" font-size="14" lengthAdjust="spacing" textLength="180" x="840" y="616.4926">Entries : List&lt;ManifestEntry&gt;</text><line style="stroke:#181818;stroke-width:0.5;" x1="821" x2="1025" y1="623.5688" y2="623.5688"/></g><!--class CrewMember--><g id="elem_CrewMember"><rect codeLine="37" fill="#F1F1F1" height="118.4375" id="CrewMember" rx="2.5" ry="2.5" style="stroke:#181818;stroke-width:0.5;" width="138" x="1061" y="539.9594"/><ellipse cx="1086.35" cy="555.9594" fill="#ADD1B2" rx="11" ry="11" style="stroke:#181818;stroke-width:1.0;"/><path d="M1089.1156,551.8344 Q1089.2719,551.6156 1089.4594,551.5063 Q1089.6469,551.3969 1089.8656,551.3969 Q1090.2406,551.3969 1090.475,551.6625 Q1090.7094,551.9125 1090.7094,552.5219 L1090.7094,553.975 Q1090.7094,554.5844 1090.475,554.85 Q1090.2406,555.1156 1089.8656,555.1156 Q1089.5219,555.1156 1089.3188,554.9125 Q1089.1156,554.725 1089.0063,554.2094 Q1088.9594,553.85 1088.7719,553.6625 Q1088.4438,553.2875 1087.8344,553.0688 Q1087.225,552.85 1086.6,552.85 Q1085.8344,552.85 1085.1938,553.1781 Q1084.5688,553.5063 1084.0688,554.2563 Q1083.5844,555.0063 1083.5844,556.0375 L1083.5844,557.1313 Q1083.5844,558.3656 1084.475,559.1938 Q1085.3656,560.0063 1086.9594,560.0063 Q1087.8969,560.0063 1088.5531,559.7563 Q1088.9438,559.6 1089.3656,559.1625 Q1089.6313,558.8969 1089.7719,558.8188 Q1089.9281,558.7406 1090.1313,558.7406 Q1090.4594,558.7406 1090.7094,559.0063 Q1090.975,559.2563 1090.975,559.6 Q1090.975,559.9438 1090.6313,560.35 Q1090.1313,560.9281 1089.3344,561.2563 Q1088.2563,561.7094 1086.9594,561.7094 Q1085.4438,561.7094 1084.2406,561.0844 Q1083.2563,560.5844 1082.5688,559.5219 Q1081.8813,558.4438 1081.8813,557.1625 L1081.8813,556.0063 Q1081.8813,554.6781 1082.4906,553.5375 Q1083.1156,552.3813 1084.2094,551.7719 Q1085.3031,551.1469 1086.5375,551.1469 Q1087.2719,551.1469 1087.9125,551.3188 Q1088.5688,551.475 1089.1156,551.8344 Z " fill="#000000"/><text fill="#000000" font-family="sans-serif" font-size="14" lengthAdjust="spacing" textLength="83" x="1102.65" y="561.6879">CrewMember</text><line style="stroke:#181818;stroke-width:0.5;" x1="1062" x2="1198" y1="571.9594" y2="571.9594"/><ellipse cx="1072" cy="586.2641" fill="none" rx="3" ry="3" style="stroke:#038048;stroke-width:1.0;"/><text fill="#000000" font-family="sans-serif" font-size="14" lengthAdjust="spacing" textLength="83" x="1081" y="590.4926">Name : string</text><ellipse cx="1072" cy="603.8734" fill="none" rx="3" ry="3" style="stroke:#038048;stroke-width:1.0;"/><text fill="#000000" font-family="sans-serif" font-size="14" lengthAdjust="spacing" textLength="100" x="1081" y="608.102">CitizenId : string</text><ellipse cx="1072" cy="621.4828" fill="none" rx="3" ry="3" style="stroke:#038048;stroke-width:1.0;"/><text fill="#000000" font-family="sans-serif" font-size="14" lengthAdjust="spacing" textLength="112" x="1081" y="625.7113">Nationality : string</text><ellipse cx="1072" cy="639.0922" fill="none" rx="3" ry="3" style="stroke:#038048;stroke-width:1.0;"/><text fill="#000000" font-family="sans-serif" font-size="14" lengthAdjust="spacing" textLength="76" x="1081" y="643.3207">Role : string</text><line style="stroke:#181818;stroke-width:0.5;" x1="1062" x2="1198" y1="650.3969" y2="650.3969"/></g><!--class Organization--><g id="elem_Organization"><rect codeLine="46" fill="#F1F1F1" height="146.75" id="Organization" rx="2.5" ry="2.5" style="stroke:#181818;stroke-width:0.5;" width="182" x="1773" y="525.4594"/><ellipse cx="1815" cy="546.8109" fill="#ADD1B2" rx="11" ry="11" style="stroke:#181818;stroke-width:1.0;"/><path d="M1817.7656,542.6859 Q1817.9219,542.4672 1818.1094,542.3578 Q1818.2969,542.2484 1818.5156,542.2484 Q1818.8906,542.2484 1819.125,542.5141 Q1819.3594,542.7641 1819.3594,543.3734 L1819.3594,544.8266 Q1819.3594,545.4359 1819.125,545.7016 Q1818.8906,545.9672 1818.5156,545.9672 Q1818.1719,545.9672 1817.9688,545.7641 Q1817.7656,545.5766 1817.6563,545.0609 Q1817.6094,544.7016 1817.4219,544.5141 Q1817.0938,544.1391 1816.4844,543.9203 Q1815.875,543.7016 1815.25,543.7016 Q1814.4844,543.7016 1813.8438,544.0297 Q1813.2188,544.3578 1812.7188,545.1078 Q1812.2344,545.8578 1812.2344,546.8891 L1812.2344,547.9828 Q1812.2344,549.2172 1813.125,550.0453 Q1814.0156,550.8578 1815.6094,550.8578 Q1816.5469,550.8578 1817.2031,550.6078 Q1817.5938,550.4516 1818.0156,550.0141 Q1818.2813,549.7484 1818.4219,549.6703 Q1818.5781,549.5922 1818.7813,549.5922 Q1819.1094,549.5922 1819.3594,549.8578 Q1819.625,550.1078 1819.625,550.4516 Q1819.625,550.7953 1819.2813,551.2016 Q1818.7813,551.7797 1817.9844,552.1078 Q1816.9063,552.5609 1815.6094,552.5609 Q1814.0938,552.5609 1812.8906,551.9359 Q1811.9063,551.4359 1811.2188,550.3734 Q1810.5313,549.2953 1810.5313,548.0141 L1810.5313,546.8578 Q1810.5313,545.5297 1811.1406,544.3891 Q1811.7656,543.2328 1812.8594,542.6234 Q1813.9531,541.9984 1815.1875,541.9984 Q1815.9219,541.9984 1816.5625,542.1703 Q1817.2188,542.3266 1817.7656,542.6859 Z " fill="#000000"/><text fill="#000000" font-family="sans-serif" font-size="12" font-style="italic" lengthAdjust="spacing" textLength="94" x="1833" y="542.9164">&#171;aggregate root&#187;</text><text fill="#000000" font-family="sans-serif" font-size="14" lengthAdjust="spacing" textLength="80" x="1840" y="560.0863">Organization</text><line style="stroke:#181818;stroke-width:0.5;" x1="1774" x2="1954" y1="568.1625" y2="568.1625"/><ellipse cx="1784" cy="582.4672" fill="none" rx="3" ry="3" style="stroke:#038048;stroke-width:1.0;"/><text fill="#000000" font-family="sans-serif" font-size="14" lengthAdjust="spacing" textLength="114" x="1793" y="586.6957">Id : OrganizationId</text><ellipse cx="1784" cy="600.0766" fill="none" rx="3" ry="3" style="stroke:#038048;stroke-width:1.0;"/><text fill="#000000" font-family="sans-serif" font-size="14" lengthAdjust="spacing" textLength="101" x="1793" y="604.3051">Identifier : string</text><ellipse cx="1784" cy="617.6859" fill="none" rx="3" ry="3" style="stroke:#038048;stroke-width:1.0;"/><text fill="#000000" font-family="sans-serif" font-size="14" lengthAdjust="spacing" textLength="118" x="1793" y="621.9145">LegalName : string</text><ellipse cx="1784" cy="635.2953" fill="none" rx="3" ry="3" style="stroke:#038048;stroke-width:1.0;"/><text fill="#000000" font-family="sans-serif" font-size="14" lengthAdjust="spacing" textLength="156" x="1793" y="639.5238">Type : OrganizationType</text><line style="stroke:#181818;stroke-width:1.0;" x1="1774" x2="1954" y1="646.6" y2="646.6"/><ellipse cx="1784" cy="660.9047" fill="#84BE84" rx="3" ry="3" style="stroke:#038048;stroke-width:1.0;"/><text fill="#000000" font-family="sans-serif" font-size="14" lengthAdjust="spacing" textLength="152" x="1793" y="665.1332">AddRepresentative(rep)</text></g><!--class OrganizationId--><g id="elem_OrganizationId"><rect codeLine="55" fill="#F1F1F1" height="76.3125" id="OrganizationId" rx="2.5" ry="2.5" style="stroke:#181818;stroke-width:0.5;" width="123" x="1711.5" y="790.9594"/><ellipse cx="1726.5" cy="812.3109" fill="#ADD1B2" rx="11" ry="11" style="stroke:#181818;stroke-width:1.0;"/><path d="M1729.2656,808.1859 Q1729.4219,807.9672 1729.6094,807.8578 Q1729.7969,807.7484 1730.0156,807.7484 Q1730.3906,807.7484 1730.625,808.0141 Q1730.8594,808.2641 1730.8594,808.8734 L1730.8594,810.3266 Q1730.8594,810.9359 1730.625,811.2016 Q1730.3906,811.4672 1730.0156,811.4672 Q1729.6719,811.4672 1729.4688,811.2641 Q1729.2656,811.0766 1729.1563,810.5609 Q1729.1094,810.2016 1728.9219,810.0141 Q1728.5938,809.6391 1727.9844,809.4203 Q1727.375,809.2016 1726.75,809.2016 Q1725.9844,809.2016 1725.3438,809.5297 Q1724.7188,809.8578 1724.2188,810.6078 Q1723.7344,811.3578 1723.7344,812.3891 L1723.7344,813.4828 Q1723.7344,814.7172 1724.625,815.5453 Q1725.5156,816.3578 1727.1094,816.3578 Q1728.0469,816.3578 1728.7031,816.1078 Q1729.0938,815.9516 1729.5156,815.5141 Q1729.7813,815.2484 1729.9219,815.1703 Q1730.0781,815.0922 1730.2813,815.0922 Q1730.6094,815.0922 1730.8594,815.3578 Q1731.125,815.6078 1731.125,815.9516 Q1731.125,816.2953 1730.7813,816.7016 Q1730.2813,817.2797 1729.4844,817.6078 Q1728.4063,818.0609 1727.1094,818.0609 Q1725.5938,818.0609 1724.3906,817.4359 Q1723.4063,816.9359 1722.7188,815.8734 Q1722.0313,814.7953 1722.0313,813.5141 L1722.0313,812.3578 Q1722.0313,811.0297 1722.6406,809.8891 Q1723.2656,808.7328 1724.3594,808.1234 Q1725.4531,807.4984 1726.6875,807.4984 Q1727.4219,807.4984 1728.0625,807.6703 Q1728.7188,807.8266 1729.2656,808.1859 Z " fill="#000000"/><text fill="#000000" font-family="sans-serif" font-size="12" font-style="italic" lengthAdjust="spacing" textLength="81" x="1745.5" y="808.4164">&#171;value object&#187;</text><text fill="#000000" font-family="sans-serif" font-size="14" lengthAdjust="spacing" textLength="91" x="1740.5" y="825.5863">OrganizationId</text><line style="stroke:#181818;stroke-width:0.5;" x1="1712.5" x2="1833.5" y1="833.6625" y2="833.6625"/><ellipse cx="1722.5" cy="847.9672" fill="none" rx="3" ry="3" style="stroke:#038048;stroke-width:1.0;"/><text fill="#000000" font-family="sans-serif" font-size="14" lengthAdjust="spacing" textLength="78" x="1731.5" y="852.1957">Value : Guid</text><line style="stroke:#181818;stroke-width:0.5;" x1="1712.5" x2="1833.5" y1="859.2719" y2="859.2719"/></g><!--class OrganizationType--><g id="elem_OrganizationType"><rect codeLine="59" fill="#F1F1F1" height="83.2188" id="OrganizationType" rx="2.5" ry="2.5" style="stroke:#181818;stroke-width:0.5;" width="144" x="1870" y="787.4594"/><ellipse cx="1885" cy="803.4594" fill="#EB937F" rx="11" ry="11" style="stroke:#181818;stroke-width:1.0;"/><path d="M1883.8594,804.2563 L1883.8594,806.7563 L1888.1875,806.7563 L1888.1875,805.8344 Q1888.1875,805.225 1888.4219,804.9594 Q1888.6719,804.6938 1889.0469,804.6938 Q1889.4219,804.6938 1889.6563,804.9594 Q1889.8906,805.225 1889.8906,805.8344 L1889.8906,808.4594 L1881.8906,808.4594 Q1881.2656,808.4594 1881,808.225 Q1880.75,807.9906 1880.75,807.6 Q1880.75,807.225 1881.0156,806.9906 Q1881.2813,806.7563 1881.8906,806.7563 L1882.1563,806.7563 L1882.1563,800.1 L1881.8906,800.1 Q1881.2656,800.1 1881,799.8656 Q1880.75,799.6313 1880.75,799.2406 Q1880.75,798.8656 1881,798.6313 Q1881.2656,798.3969 1881.8906,798.3969 L1889.5156,798.3969 L1889.5156,800.9906 Q1889.5156,801.6 1889.2813,801.8656 Q1889.0625,802.1156 1888.6719,802.1156 Q1888.2969,802.1156 1888.0625,801.8656 Q1887.8281,801.6 1887.8281,800.9906 L1887.8281,800.1 L1883.8594,800.1 L1883.8594,802.5531 L1885.3438,802.5531 Q1885.3438,801.8969 1885.4688,801.7094 Q1885.7344,801.3031 1886.2031,801.3031 Q1886.5781,801.3031 1886.8125,801.5688 Q1887.0469,801.8188 1887.0469,802.4281 L1887.0469,804.3969 Q1887.0469,804.9438 1886.9219,805.1313 Q1886.6563,805.5219 1886.2031,805.5219 Q1885.7344,805.5219 1885.4688,805.1156 Q1885.3438,804.9281 1885.3438,804.2563 L1883.8594,804.2563 Z " fill="#000000"/><text fill="#000000" font-family="sans-serif" font-size="14" lengthAdjust="spacing" textLength="112" x="1899" y="809.1879">OrganizationType</text><line style="stroke:#181818;stroke-width:0.5;" x1="1871" x2="2013" y1="819.4594" y2="819.4594"/><text fill="#000000" font-family="sans-serif" font-size="14" lengthAdjust="spacing" textLength="125" x="1876" y="837.9926">PORT_AUTHORITY</text><text fill="#000000" font-family="sans-serif" font-size="14" lengthAdjust="spacing" textLength="117" x="1876" y="855.602">SHIPPING_AGENT</text><line style="stroke:#181818;stroke-width:0.5;" x1="1871" x2="2013" y1="862.6781" y2="862.6781"/></g><!--class Representative--><g id="elem_Representative"><rect codeLine="64" fill="#F1F1F1" height="118.4375" id="Representative" rx="2.5" ry="2.5" style="stroke:#181818;stroke-width:0.5;" width="156" x="2049" y="769.9594"/><ellipse cx="2076.6" cy="785.9594" fill="#ADD1B2" rx="11" ry="11" style="stroke:#181818;stroke-width:1.0;"/><path d="M2079.3656,781.8344 Q2079.5219,781.6156 2079.7094,781.5063 Q2079.8969,781.3969 2080.1156,781.3969 Q2080.4906,781.3969 2080.725,781.6625 Q2080.9594,781.9125 2080.9594,782.5219 L2080.9594,783.975 Q2080.9594,784.5844 2080.725,784.85 Q2080.4906,785.1156 2080.1156,785.1156 Q2079.7719,785.1156 2079.5688,784.9125 Q2079.3656,784.725 2079.2563,784.2094 Q2079.2094,783.85 2079.0219,783.6625 Q2078.6938,783.2875 2078.0844,783.0688 Q2077.475,782.85 2076.85,782.85 Q2076.0844,782.85 2075.4438,783.1781 Q2074.8188,783.5063 2074.3188,784.2563 Q2073.8344,785.0063 2073.8344,786.0375 L2073.8344,787.1313 Q2073.8344,788.3656 2074.725,789.1938 Q2075.6156,790.0063 2077.2094,790.0063 Q2078.1469,790.0063 2078.8031,789.7563 Q2079.1938,789.6 2079.6156,789.1625 Q2079.8813,788.8969 2080.0219,788.8188 Q2080.1781,788.7406 2080.3813,788.7406 Q2080.7094,788.7406 2080.9594,789.0063 Q2081.225,789.2563 2081.225,789.6 Q2081.225,789.9438 2080.8813,790.35 Q2080.3813,790.9281 2079.5844,791.2563 Q2078.5063,791.7094 2077.2094,791.7094 Q2075.6938,791.7094 2074.4906,791.0844 Q2073.5063,790.5844 2072.8188,789.5219 Q2072.1313,788.4438 2072.1313,787.1625 L2072.1313,786.0063 Q2072.1313,784.6781 2072.7406,783.5375 Q2073.3656,782.3813 2074.4594,781.7719 Q2075.5531,781.1469 2076.7875,781.1469 Q2077.5219,781.1469 2078.1625,781.3188 Q2078.8188,781.475 2079.3656,781.8344 Z " fill="#000000"/><text fill="#000000" font-family="sans-serif" font-size="14" lengthAdjust="spacing" textLength="96" x="2093.4" y="791.6879">Representative</text><line style="stroke:#181818;stroke-width:0.5;" x1="2050" x2="2204" y1="801.9594" y2="801.9594"/><ellipse cx="2060" cy="816.2641" fill="none" rx="3" ry="3" style="stroke:#038048;stroke-width:1.0;"/><text fill="#000000" font-family="sans-serif" font-size="14" lengthAdjust="spacing" textLength="130" x="2069" y="820.4926">Id : RepresentativeId</text><ellipse cx="2060" cy="833.8734" fill="none" rx="3" ry="3" style="stroke:#038048;stroke-width:1.0;"/><text fill="#000000" font-family="sans-serif" font-size="14" lengthAdjust="spacing" textLength="83" x="2069" y="838.102">Name : string</text><ellipse cx="2060" cy="851.4828" fill="none" rx="3" ry="3" style="stroke:#038048;stroke-width:1.0;"/><text fill="#000000" font-family="sans-serif" font-size="14" lengthAdjust="spacing" textLength="81" x="2069" y="855.7113">Email : string</text><ellipse cx="2060" cy="869.0922" fill="none" rx="3" ry="3" style="stroke:#038048;stroke-width:1.0;"/><text fill="#000000" font-family="sans-serif" font-size="14" lengthAdjust="spacing" textLength="100" x="2069" y="873.3207">CitizenId : string</text><line style="stroke:#181818;stroke-width:0.5;" x1="2050" x2="2204" y1="880.3969" y2="880.3969"/></g><!--class User--><g id="elem_User"><rect codeLine="73" fill="#F1F1F1" height="111.5313" id="User" rx="2.5" ry="2.5" style="stroke:#181818;stroke-width:0.5;" width="122" x="1533" y="207.9594"/><ellipse cx="1548" cy="229.3109" fill="#ADD1B2" rx="11" ry="11" style="stroke:#181818;stroke-width:1.0;"/><path d="M1550.7656,225.1859 Q1550.9219,224.9672 1551.1094,224.8578 Q1551.2969,224.7484 1551.5156,224.7484 Q1551.8906,224.7484 1552.125,225.0141 Q1552.3594,225.2641 1552.3594,225.8734 L1552.3594,227.3266 Q1552.3594,227.9359 1552.125,228.2016 Q1551.8906,228.4672 1551.5156,228.4672 Q1551.1719,228.4672 1550.9688,228.2641 Q1550.7656,228.0766 1550.6563,227.5609 Q1550.6094,227.2016 1550.4219,227.0141 Q1550.0938,226.6391 1549.4844,226.4203 Q1548.875,226.2016 1548.25,226.2016 Q1547.4844,226.2016 1546.8438,226.5297 Q1546.2188,226.8578 1545.7188,227.6078 Q1545.2344,228.3578 1545.2344,229.3891 L1545.2344,230.4828 Q1545.2344,231.7172 1546.125,232.5453 Q1547.0156,233.3578 1548.6094,233.3578 Q1549.5469,233.3578 1550.2031,233.1078 Q1550.5938,232.9516 1551.0156,232.5141 Q1551.2813,232.2484 1551.4219,232.1703 Q1551.5781,232.0922 1551.7813,232.0922 Q1552.1094,232.0922 1552.3594,232.3578 Q1552.625,232.6078 1552.625,232.9516 Q1552.625,233.2953 1552.2813,233.7016 Q1551.7813,234.2797 1550.9844,234.6078 Q1549.9063,235.0609 1548.6094,235.0609 Q1547.0938,235.0609 1545.8906,234.4359 Q1544.9063,233.9359 1544.2188,232.8734 Q1543.5313,231.7953 1543.5313,230.5141 L1543.5313,229.3578 Q1543.5313,228.0297 1544.1406,226.8891 Q1544.7656,225.7328 1545.8594,225.1234 Q1546.9531,224.4984 1548.1875,224.4984 Q1548.9219,224.4984 1549.5625,224.6703 Q1550.2188,224.8266 1550.7656,225.1859 Z " fill="#000000"/><text fill="#000000" font-family="sans-serif" font-size="12" font-style="italic" lengthAdjust="spacing" textLength="94" x="1560" y="225.4164">&#171;aggregate root&#187;</text><text fill="#000000" font-family="sans-serif" font-size="14" lengthAdjust="spacing" textLength="29" x="1592.5" y="242.5863">User</text><line style="stroke:#181818;stroke-width:0.5;" x1="1534" x2="1654" y1="250.6625" y2="250.6625"/><ellipse cx="1544" cy="264.9672" fill="none" rx="3" ry="3" style="stroke:#038048;stroke-width:1.0;"/><text fill="#000000" font-family="sans-serif" font-size="14" lengthAdjust="spacing" textLength="63" x="1553" y="269.1957">Id : UserId</text><ellipse cx="1544" cy="282.5766" fill="none" rx="3" ry="3" style="stroke:#038048;stroke-width:1.0;"/><text fill="#000000" font-family="sans-serif" font-size="14" lengthAdjust="spacing" textLength="81" x="1553" y="286.8051">Email : string</text><ellipse cx="1544" cy="300.1859" fill="none" rx="3" ry="3" style="stroke:#038048;stroke-width:1.0;"/><text fill="#000000" font-family="sans-serif" font-size="14" lengthAdjust="spacing" textLength="76" x="1553" y="304.4145">Role : string</text><line style="stroke:#181818;stroke-width:0.5;" x1="1534" x2="1654" y1="311.4906" y2="311.4906"/></g><!--class UserId--><g id="elem_UserId"><rect codeLine="79" fill="#F1F1F1" height="76.3125" id="UserId" rx="2.5" ry="2.5" style="stroke:#181818;stroke-width:0.5;" width="109" x="1533.5" y="560.9594"/><ellipse cx="1548.5" cy="582.3109" fill="#ADD1B2" rx="11" ry="11" style="stroke:#181818;stroke-width:1.0;"/><path d="M1551.2656,578.1859 Q1551.4219,577.9672 1551.6094,577.8578 Q1551.7969,577.7484 1552.0156,577.7484 Q1552.3906,577.7484 1552.625,578.0141 Q1552.8594,578.2641 1552.8594,578.8734 L1552.8594,580.3266 Q1552.8594,580.9359 1552.625,581.2016 Q1552.3906,581.4672 1552.0156,581.4672 Q1551.6719,581.4672 1551.4688,581.2641 Q1551.2656,581.0766 1551.1563,580.5609 Q1551.1094,580.2016 1550.9219,580.0141 Q1550.5938,579.6391 1549.9844,579.4203 Q1549.375,579.2016 1548.75,579.2016 Q1547.9844,579.2016 1547.3438,579.5297 Q1546.7188,579.8578 1546.2188,580.6078 Q1545.7344,581.3578 1545.7344,582.3891 L1545.7344,583.4828 Q1545.7344,584.7172 1546.625,585.5453 Q1547.5156,586.3578 1549.1094,586.3578 Q1550.0469,586.3578 1550.7031,586.1078 Q1551.0938,585.9516 1551.5156,585.5141 Q1551.7813,585.2484 1551.9219,585.1703 Q1552.0781,585.0922 1552.2813,585.0922 Q1552.6094,585.0922 1552.8594,585.3578 Q1553.125,585.6078 1553.125,585.9516 Q1553.125,586.2953 1552.7813,586.7016 Q1552.2813,587.2797 1551.4844,587.6078 Q1550.4063,588.0609 1549.1094,588.0609 Q1547.5938,588.0609 1546.3906,587.4359 Q1545.4063,586.9359 1544.7188,585.8734 Q1544.0313,584.7953 1544.0313,583.5141 L1544.0313,582.3578 Q1544.0313,581.0297 1544.6406,579.8891 Q1545.2656,578.7328 1546.3594,578.1234 Q1547.4531,577.4984 1548.6875,577.4984 Q1549.4219,577.4984 1550.0625,577.6703 Q1550.7188,577.8266 1551.2656,578.1859 Z " fill="#000000"/><text fill="#000000" font-family="sans-serif" font-size="12" font-style="italic" lengthAdjust="spacing" textLength="81" x="1560.5" y="578.4164">&#171;value object&#187;</text><text fill="#000000" font-family="sans-serif" font-size="14" lengthAdjust="spacing" textLength="40" x="1581" y="595.5863">UserId</text><line style="stroke:#181818;stroke-width:0.5;" x1="1534.5" x2="1641.5" y1="603.6625" y2="603.6625"/><ellipse cx="1544.5" cy="617.9672" fill="none" rx="3" ry="3" style="stroke:#038048;stroke-width:1.0;"/><text fill="#000000" font-family="sans-serif" font-size="14" lengthAdjust="spacing" textLength="78" x="1553.5" y="622.1957">Value : Guid</text><line style="stroke:#181818;stroke-width:0.5;" x1="1534.5" x2="1641.5" y1="629.2719" y2="629.2719"/></g><!--class Vessel--><g id="elem_Vessel"><rect codeLine="85" fill="#F1F1F1" height="129.1406" id="Vessel" rx="2.5" ry="2.5" style="stroke:#181818;stroke-width:0.5;" width="221" x="1255.5" y="534.4594"/><ellipse cx="1316.75" cy="555.8109" fill="#ADD1B2" rx="11" ry="11" style="stroke:#181818;stroke-width:1.0;"/><path d="M1319.5156,551.6859 Q1319.6719,551.4672 1319.8594,551.3578 Q1320.0469,551.2484 1320.2656,551.2484 Q1320.6406,551.2484 1320.875,551.5141 Q1321.1094,551.7641 1321.1094,552.3734 L1321.1094,553.8266 Q1321.1094,554.4359 1320.875,554.7016 Q1320.6406,554.9672 1320.2656,554.9672 Q1319.9219,554.9672 1319.7188,554.7641 Q1319.5156,554.5766 1319.4063,554.0609 Q1319.3594,553.7016 1319.1719,553.5141 Q1318.8438,553.1391 1318.2344,552.9203 Q1317.625,552.7016 1317,552.7016 Q1316.2344,552.7016 1315.5938,553.0297 Q1314.9688,553.3578 1314.4688,554.1078 Q1313.9844,554.8578 1313.9844,555.8891 L1313.9844,556.9828 Q1313.9844,558.2172 1314.875,559.0453 Q1315.7656,559.8578 1317.3594,559.8578 Q1318.2969,559.8578 1318.9531,559.6078 Q1319.3438,559.4516 1319.7656,559.0141 Q1320.0313,558.7484 1320.1719,558.6703 Q1320.3281,558.5922 1320.5313,558.5922 Q1320.8594,558.5922 1321.1094,558.8578 Q1321.375,559.1078 1321.375,559.4516 Q1321.375,559.7953 1321.0313,560.2016 Q1320.5313,560.7797 1319.7344,561.1078 Q1318.6563,561.5609 1317.3594,561.5609 Q1315.8438,561.5609 1314.6406,560.9359 Q1313.6563,560.4359 1312.9688,559.3734 Q1312.2813,558.2953 1312.2813,557.0141 L1312.2813,555.8578 Q1312.2813,554.5297 1312.8906,553.3891 Q1313.5156,552.2328 1314.6094,551.6234 Q1315.7031,550.9984 1316.9375,550.9984 Q1317.6719,550.9984 1318.3125,551.1703 Q1318.9688,551.3266 1319.5156,551.6859 Z " fill="#000000"/><text fill="#000000" font-family="sans-serif" font-size="12" font-style="italic" lengthAdjust="spacing" textLength="94" x="1335.25" y="551.9164">&#171;aggregate root&#187;</text><text fill="#000000" font-family="sans-serif" font-size="14" lengthAdjust="spacing" textLength="42" x="1361.25" y="569.0863">Vessel</text><line style="stroke:#181818;stroke-width:0.5;" x1="1256.5" x2="1475.5" y1="577.1625" y2="577.1625"/><ellipse cx="1266.5" cy="591.4672" fill="none" rx="3" ry="3" style="stroke:#038048;stroke-width:1.0;"/><text fill="#000000" font-family="sans-serif" font-size="14" lengthAdjust="spacing" textLength="118" x="1275.5" y="595.6957">ImoNumber : string</text><ellipse cx="1266.5" cy="609.0766" fill="none" rx="3" ry="3" style="stroke:#038048;stroke-width:1.0;"/><text fill="#000000" font-family="sans-serif" font-size="14" lengthAdjust="spacing" textLength="83" x="1275.5" y="613.3051">Name : string</text><ellipse cx="1266.5" cy="626.6859" fill="none" rx="3" ry="3" style="stroke:#038048;stroke-width:1.0;"/><text fill="#000000" font-family="sans-serif" font-size="14" lengthAdjust="spacing" textLength="155" x="1275.5" y="630.9145">VesselTypeCode : string</text><ellipse cx="1266.5" cy="644.2953" fill="none" rx="3" ry="3" style="stroke:#038048;stroke-width:1.0;"/><text fill="#000000" font-family="sans-serif" font-size="14" lengthAdjust="spacing" textLength="195" x="1275.5" y="648.5238">OperatorOrgId : OrganizationId</text><line style="stroke:#181818;stroke-width:0.5;" x1="1256.5" x2="1475.5" y1="655.6" y2="655.6"/></g><!--class DockAssignment--><g id="elem_DockAssignment"><rect codeLine="94" fill="#F1F1F1" height="181.9688" id="DockAssignment" rx="2.5" ry="2.5" style="stroke:#181818;stroke-width:0.5;" width="182" x="42" y="507.9594"/><ellipse cx="77.25" cy="529.3109" fill="#ADD1B2" rx="11" ry="11" style="stroke:#181818;stroke-width:1.0;"/><path d="M80.0156,525.1859 Q80.1719,524.9672 80.3594,524.8578 Q80.5469,524.7484 80.7656,524.7484 Q81.1406,524.7484 81.375,525.0141 Q81.6094,525.2641 81.6094,525.8734 L81.6094,527.3266 Q81.6094,527.9359 81.375,528.2016 Q81.1406,528.4672 80.7656,528.4672 Q80.4219,528.4672 80.2188,528.2641 Q80.0156,528.0766 79.9063,527.5609 Q79.8594,527.2016 79.6719,527.0141 Q79.3438,526.6391 78.7344,526.4203 Q78.125,526.2016 77.5,526.2016 Q76.7344,526.2016 76.0938,526.5297 Q75.4688,526.8578 74.9688,527.6078 Q74.4844,528.3578 74.4844,529.3891 L74.4844,530.4828 Q74.4844,531.7172 75.375,532.5453 Q76.2656,533.3578 77.8594,533.3578 Q78.7969,533.3578 79.4531,533.1078 Q79.8438,532.9516 80.2656,532.5141 Q80.5313,532.2484 80.6719,532.1703 Q80.8281,532.0922 81.0313,532.0922 Q81.3594,532.0922 81.6094,532.3578 Q81.875,532.6078 81.875,532.9516 Q81.875,533.2953 81.5313,533.7016 Q81.0313,534.2797 80.2344,534.6078 Q79.1563,535.0609 77.8594,535.0609 Q76.3438,535.0609 75.1406,534.4359 Q74.1563,533.9359 73.4688,532.8734 Q72.7813,531.7953 72.7813,530.5141 L72.7813,529.3578 Q72.7813,528.0297 73.3906,526.8891 Q74.0156,525.7328 75.1094,525.1234 Q76.2031,524.4984 77.4375,524.4984 Q78.1719,524.4984 78.8125,524.6703 Q79.4688,524.8266 80.0156,525.1859 Z " fill="#000000"/><text fill="#000000" font-family="sans-serif" font-size="12" font-style="italic" lengthAdjust="spacing" textLength="94" x="101.25" y="525.4164">&#171;aggregate root&#187;</text><text fill="#000000" font-family="sans-serif" font-size="14" lengthAdjust="spacing" textLength="105" x="95.75" y="542.5863">DockAssignment</text><line style="stroke:#181818;stroke-width:0.5;" x1="43" x2="223" y1="550.6625" y2="550.6625"/><ellipse cx="53" cy="564.9672" fill="none" rx="3" ry="3" style="stroke:#038048;stroke-width:1.0;"/><text fill="#000000" font-family="sans-serif" font-size="14" lengthAdjust="spacing" textLength="53" x="62" y="569.1957">Id : Guid</text><ellipse cx="53" cy="582.5766" fill="none" rx="3" ry="3" style="stroke:#038048;stroke-width:1.0;"/><text fill="#000000" font-family="sans-serif" font-size="14" lengthAdjust="spacing" textLength="113" x="62" y="586.8051">DockCode : string</text><ellipse cx="53" cy="600.1859" fill="none" rx="3" ry="3" style="stroke:#038048;stroke-width:1.0;"/><text fill="#000000" font-family="sans-serif" font-size="14" lengthAdjust="spacing" textLength="140" x="62" y="604.4145">BerthFrom : DateTime</text><ellipse cx="53" cy="617.7953" fill="none" rx="3" ry="3" style="stroke:#038048;stroke-width:1.0;"/><text fill="#000000" font-family="sans-serif" font-size="14" lengthAdjust="spacing" textLength="124" x="62" y="622.0238">BerthTo : DateTime</text><ellipse cx="53" cy="635.4047" fill="none" rx="3" ry="3" style="stroke:#038048;stroke-width:1.0;"/><text fill="#000000" font-family="sans-serif" font-size="14" lengthAdjust="spacing" textLength="77" x="62" y="639.6332">VvnId : Guid</text><ellipse cx="53" cy="653.0141" fill="none" rx="3" ry="3" style="stroke:#038048;stroke-width:1.0;"/><text fill="#000000" font-family="sans-serif" font-size="14" lengthAdjust="spacing" textLength="156" x="62" y="657.2426">AssignedByUserId : Guid</text><ellipse cx="53" cy="670.6234" fill="none" rx="3" ry="3" style="stroke:#038048;stroke-width:1.0;"/><text fill="#000000" font-family="sans-serif" font-size="14" lengthAdjust="spacing" textLength="87" x="62" y="674.852">Status : string</text><line style="stroke:#181818;stroke-width:0.5;" x1="43" x2="223" y1="681.9281" y2="681.9281"/></g><g id="elem_GMN34"><path d="M1994,119.9594 L1994,407.9359 L2234,407.9359 L2234,129.9594 L2224,119.9594 L1994,119.9594 " fill="#FEFFDD" style="stroke:#181818;stroke-width:0.5;"/><path d="M2224,119.9594 L2224,129.9594 L2234,129.9594 L2224,119.9594 " fill="#FEFFDD" style="stroke:#181818;stroke-width:1.0;"/><text fill="#000000" font-family="sans-serif" font-size="13" font-weight="bold" lengthAdjust="spacing" textLength="96" x="2000" y="138.4545">US 2.2.9 Focus:</text><text fill="#000000" font-family="sans-serif" font-size="13" lengthAdjust="spacing" textLength="4" x="2000" y="154.8061">&#160;</text><text fill="#000000" font-family="sans-serif" font-size="13" lengthAdjust="spacing" textLength="180" x="2000" y="171.1576">ReopenToDraft() method allows</text><text fill="#000000" font-family="sans-serif" font-size="13" lengthAdjust="spacing" textLength="199" x="2000" y="187.5092">Shipping Agent Representatives to</text><text fill="#000000" font-family="sans-serif" font-size="13" lengthAdjust="spacing" textLength="213" x="2000" y="203.8607">transition a REJECTED VVN back to</text><text fill="#000000" font-family="sans-serif" font-size="13" lengthAdjust="spacing" textLength="130" x="2000" y="220.2123">IN_PROGRESS state.</text><text fill="#000000" font-family="sans-serif" font-size="13" lengthAdjust="spacing" textLength="4" x="2000" y="236.5639">&#160;</text><text fill="#000000" font-family="sans-serif" font-size="13" lengthAdjust="spacing" textLength="95" x="2000" y="252.9154">Business Rules:</text><text fill="#000000" font-family="sans-serif" font-size="13" lengthAdjust="spacing" textLength="219" x="2000" y="269.267">&#8226; Only REJECTED &#8594; IN_PROGRESS</text><text fill="#000000" font-family="sans-serif" font-size="13" lengthAdjust="spacing" textLength="146" x="2000" y="285.6186">&#8226; Only same organization</text><text fill="#000000" font-family="sans-serif" font-size="13" lengthAdjust="spacing" textLength="153" x="2000" y="301.9701">&#8226; Only Shipping Agent role</text><text fill="#000000" font-family="sans-serif" font-size="13" lengthAdjust="spacing" textLength="177" x="2000" y="318.3217">&#8226; Preserves rejection metadata</text><text fill="#000000" font-family="sans-serif" font-size="13" lengthAdjust="spacing" textLength="4" x="2000" y="334.6732">&#160;</text><text fill="#000000" font-family="sans-serif" font-size="13" lengthAdjust="spacing" textLength="74" x="2000" y="351.0248">After reopen:</text><text fill="#000000" font-family="sans-serif" font-size="13" lengthAdjust="spacing" textLength="142" x="2000" y="367.3764">&#8226; VVN becomes editable</text><text fill="#000000" font-family="sans-serif" font-size="13" lengthAdjust="spacing" textLength="166" x="2000" y="383.7279">&#8226; Can update manifests/crew</text><text fill="#000000" font-family="sans-serif" font-size="13" lengthAdjust="spacing" textLength="155" x="2000" y="400.0795">&#8226; Can resubmit for approval</text></g><g id="elem_GMN37"><path d="M2237.5,511.9594 L2237.5,685.475 L2558.5,685.475 L2558.5,521.9594 L2548.5,511.9594 L2237.5,511.9594 " fill="#FEFFDD" style="stroke:#181818;stroke-width:0.5;"/><path d="M2548.5,511.9594 L2548.5,521.9594 L2558.5,521.9594 L2548.5,511.9594 " fill="#FEFFDD" style="stroke:#181818;stroke-width:1.0;"/><text fill="#000000" font-family="sans-serif" font-size="13" lengthAdjust="spacing" textLength="102" x="2243.5" y="530.4545">State Transitions:</text><text fill="#000000" font-family="sans-serif" font-size="13" lengthAdjust="spacing" textLength="4" x="2243.5" y="546.8061">&#160;</text><text fill="#000000" font-family="sans-serif" font-size="13" lengthAdjust="spacing" textLength="164" x="2243.5" y="563.1576">CREATE &#8594; IN_PROGRESS</text><text fill="#000000" font-family="sans-serif" font-size="13" lengthAdjust="spacing" textLength="236" x="2243.5" y="579.5092">IN_PROGRESS &#8594; SUBMITTED (submit)</text><text fill="#000000" font-family="sans-serif" font-size="13" lengthAdjust="spacing" textLength="221" x="2243.5" y="595.8607">SUBMITTED &#8594; APPROVED (approve)</text><text fill="#000000" font-family="sans-serif" font-size="13" lengthAdjust="spacing" textLength="203" x="2243.5" y="612.2123">SUBMITTED &#8594; REJECTED (reject)</text><text fill="#000000" font-family="sans-serif" font-size="13" lengthAdjust="spacing" textLength="300" x="2243.5" y="628.5639">REJECTED &#8594; IN_PROGRESS (reopen) &#8592; US 2.2.9</text><text fill="#000000" font-family="sans-serif" font-size="13" lengthAdjust="spacing" textLength="4" x="2243.5" y="644.9154">&#160;</text><text fill="#000000" font-family="sans-serif" font-size="13" lengthAdjust="spacing" textLength="180" x="2243.5" y="661.267">Terminal: APPROVED (locked)</text><text fill="#000000" font-family="sans-serif" font-size="13" lengthAdjust="spacing" textLength="223" x="2243.5" y="677.6186">Editable: IN_PROGRESS, REJECTED</text></g><g id="elem_GMN40"><path d="M1729.5,201.9594 L1729.5,326.4203 A0,0 0 0 0 1729.5,326.4203 L1843.67,326.4203 L1859.64,525.3794 L1851.67,326.4203 L1958.5,326.4203 A0,0 0 0 0 1958.5,326.4203 L1958.5,211.9594 L1948.5,201.9594 L1729.5,201.9594 A0,0 0 0 0 1729.5,201.9594 " fill="#FEFFDD" style="stroke:#181818;stroke-width:0.5;"/><path d="M1948.5,201.9594 L1948.5,211.9594 L1958.5,211.9594 L1948.5,201.9594 " fill="#FEFFDD" style="stroke:#181818;stroke-width:0.5;"/><text fill="#000000" font-family="sans-serif" font-size="13" lengthAdjust="spacing" textLength="146" x="1735.5" y="220.4545">Organizational Boundary:</text><text fill="#000000" font-family="sans-serif" font-size="13" lengthAdjust="spacing" textLength="4" x="1735.5" y="236.8061">&#160;</text><text fill="#000000" font-family="sans-serif" font-size="13" lengthAdjust="spacing" textLength="188" x="1735.5" y="253.1576">Representatives can only reopen</text><text fill="#000000" font-family="sans-serif" font-size="13" lengthAdjust="spacing" textLength="164" x="1735.5" y="269.5092">VVNs belonging to their own</text><text fill="#000000" font-family="sans-serif" font-size="13" lengthAdjust="spacing" textLength="166" x="1735.5" y="285.8607">Shipping Agent organization.</text><text fill="#000000" font-family="sans-serif" font-size="13" lengthAdjust="spacing" textLength="4" x="1735.5" y="302.2123">&#160;</text><text fill="#000000" font-family="sans-serif" font-size="13" lengthAdjust="spacing" textLength="208" x="1735.5" y="318.5639">Port Authority cannot reopen VVNs.</text></g><g id="elem_GMN43"><path d="M6,774.9594 L6,883.0688 A0,0 0 0 0 6,883.0688 L260,883.0688 A0,0 0 0 0 260,883.0688 L260,784.9594 L250,774.9594 L137,774.9594 L133,690.0694 L129,774.9594 L6,774.9594 A0,0 0 0 0 6,774.9594 " fill="#FEFFDD" style="stroke:#181818;stroke-width:0.5;"/><path d="M250,774.9594 L250,784.9594 L260,784.9594 L250,774.9594 " fill="#FEFFDD" style="stroke:#181818;stroke-width:0.5;"/><text fill="#000000" font-family="sans-serif" font-size="13" lengthAdjust="spacing" textLength="233" x="12" y="793.4545">Created only when VVN is APPROVED.</text><text fill="#000000" font-family="sans-serif" font-size="13" lengthAdjust="spacing" textLength="4" x="12" y="809.8061">&#160;</text><text fill="#000000" font-family="sans-serif" font-size="13" lengthAdjust="spacing" textLength="194" x="12" y="826.1576">If VVN is reopened after rejection,</text><text fill="#000000" font-family="sans-serif" font-size="13" lengthAdjust="spacing" textLength="182" x="12" y="842.5092">no DockAssignment exists yet.</text><text fill="#000000" font-family="sans-serif" font-size="13" lengthAdjust="spacing" textLength="4" x="12" y="858.8607">&#160;</text><text fill="#000000" font-family="sans-serif" font-size="13" lengthAdjust="spacing" textLength="212" x="12" y="875.2123">Will be assigned upon next approval.</text></g><!--link VesselVisitNotification to VVNState--><g id="link_VesselVisitNotification_VVNState"><path codeLine="106" d="M867.94,299.1794 C774.63,329.8494 648.8,382.7294 562,463.9594 C539.76,484.7794 525.2952,508.4866 513.3252,534.2866 " fill="none" id="VesselVisitNotification-to-VVNState" style="stroke:#181818;stroke-width:1.0;"/><polygon fill="#181818" points="510.8,539.7294,518.2163,533.2487,512.9043,535.1938,510.9593,529.8818,510.8,539.7294" style="stroke:#181818;stroke-width:1.0;"/><text fill="#000000" font-family="sans-serif" font-size="13" lengthAdjust="spacing" textLength="73" x="591" y="452.4545">current state</text></g><!--link VesselVisitNotification to OrganizationId--><g id="link_VesselVisitNotification_OrganizationId"><path codeLine="107" d="M867.73,285.1294 C696.41,315.5694 403.04,378.8394 340,463.9594 C273.87,553.2494 264.61,632.3394 340,713.9594 C434.24,815.9994 1442.2901,826.7547 1705.0901,827.8347 " fill="none" id="VesselVisitNotification-to-OrganizationId" style="stroke:#181818;stroke-width:1.0;"/><polygon fill="#181818" points="1711.09,827.8594,1702.1065,823.8224,1706.09,827.8388,1702.0736,831.8224,1711.09,827.8594" style="stroke:#181818;stroke-width:1.0;"/><text fill="#000000" font-family="sans-serif" font-size="13" lengthAdjust="spacing" textLength="75" x="341" y="604.4545">submitted by</text></g><!--link VesselVisitNotification to UserId--><g id="link_VesselVisitNotification_UserId"><path codeLine="108" d="M1118.27,355.5594 C1181.32,399.1794 1251.87,444.5094 1288,455.9594 C1309.73,462.8394 1472.96,453.0994 1493,463.9594 C1531.49,484.8094 1555.4219,523.412 1570.4619,555.322 " fill="none" id="VesselVisitNotification-to-UserId" style="stroke:#181818;stroke-width:1.0;"/><polygon fill="#181818" points="1573.02,560.7494,1572.8012,550.9029,1570.8883,556.2266,1565.5647,554.3137,1573.02,560.7494" style="stroke:#181818;stroke-width:1.0;"/><text fill="#000000" font-family="sans-serif" font-size="13" lengthAdjust="spacing" textLength="104" x="1289" y="452.4545">submitted by user</text><text fill="#000000" font-family="sans-serif" font-size="13" lengthAdjust="spacing" textLength="22" x="1126.1481" y="357.9086">0..1</text></g><!--link VesselVisitNotification to UserId--><g id="link_VesselVisitNotification_UserId"><path codeLine="109" d="M1118.14,312.7294 C1261.07,367.5894 1477.36,451.6594 1493,463.9594 C1526.29,490.1394 1550.0084,525.7932 1566.5084,555.5232 " fill="none" id="VesselVisitNotification-to-UserId-1" style="stroke:#181818;stroke-width:1.0;"/><polygon fill="#181818" points="1569.42,560.7694,1568.55,550.959,1566.9937,556.3975,1561.5551,554.8412,1569.42,560.7694" style="stroke:#181818;stroke-width:1.0;"/><text fill="#000000" font-family="sans-serif" font-size="13" lengthAdjust="spacing" textLength="102" x="1474" y="452.4545">rejected by officer</text><text fill="#000000" font-family="sans-serif" font-size="13" lengthAdjust="spacing" textLength="22" x="1126.0106" y="312.6025">0..1</text></g><!--link VesselVisitNotification to Vessel--><g id="link_VesselVisitNotification_Vessel"><path codeLine="110" d="M1115.01,407.9694 C1135.55,426.1394 1157.78,442.9094 1181,455.9594 C1194.53,463.5694 1201.22,456.8094 1215,463.9594 C1249.22,481.7094 1277.607,504.7782 1303.757,530.0682 " fill="none" id="VesselVisitNotification-to-Vessel" style="stroke:#181818;stroke-width:1.0;"/><polygon fill="#181818" points="1308.07,534.2394,1304.3813,525.1074,1304.4759,530.7634,1298.8198,530.858,1308.07,534.2394" style="stroke:#181818;stroke-width:1.0;"/><text fill="#000000" font-family="sans-serif" font-size="13" lengthAdjust="spacing" textLength="60" x="1182" y="452.4545">references</text></g><!--link VesselVisitNotification to DockAssignment--><g id="link_VesselVisitNotification_DockAssignment"><path codeLine="111" d="M867.99,271.1894 C651.69,284.8794 221.89,325.8194 130,437.9594 C114.15,457.2994 109.5702,476.8246 110.6102,501.7846 " fill="none" id="VesselVisitNotification-to-DockAssignment" style="stroke:#181818;stroke-width:1.0;"/><polygon fill="#181818" points="110.86,507.7794,114.4819,498.6207,110.6518,502.7837,106.4888,498.9537,110.86,507.7794" style="stroke:#181818;stroke-width:1.0;"/><text fill="#000000" font-family="sans-serif" font-size="13" lengthAdjust="spacing" textLength="164" x="131" y="452.4545">assigned to (when approved)</text><text fill="#000000" font-family="sans-serif" font-size="13" lengthAdjust="spacing" textLength="22" x="838.1269" y="268.661">0..1</text></g><!--reverse link VesselVisitNotification to LoadingCargoManifest--><g id="link_VesselVisitNotification_LoadingCargoManifest"><path codeLine="112" d="M859.5264,403.7607 C837.8164,426.6207 823.8,441.5594 803,463.9594 C771.01,498.4094 734.96,538.4994 710.6,565.7794 " fill="none" id="VesselVisitNotification-backto-LoadingCargoManifest" style="stroke:#181818;stroke-width:1.0;"/><polygon fill="#181818" points="867.79,395.0594,860.7578,396.6555,859.5264,403.7607,866.5586,402.1646,867.79,395.0594" style="stroke:#181818;stroke-width:1.0;"/><text fill="#000000" font-family="sans-serif" font-size="13" lengthAdjust="spacing" textLength="49" x="824" y="452.4545">contains</text><text fill="#000000" font-family="sans-serif" font-size="13" lengthAdjust="spacing" textLength="22" x="837.9154" y="399.6922">0..1</text></g><!--reverse link VesselVisitNotification to UnloadingCargoManifest--><g id="link_VesselVisitNotification_UnloadingCargoManifest"><path codeLine="113" d="M960.4421,419.8529 C948.1421,478.3829 937.48,529.0894 929.77,565.7694 " fill="none" id="VesselVisitNotification-backto-UnloadingCargoManifest" style="stroke:#181818;stroke-width:1.0;"/><polygon fill="#181818" points="962.91,408.1094,957.7616,413.1585,960.4421,419.8529,965.5906,414.8037,962.91,408.1094" style="stroke:#181818;stroke-width:1.0;"/><text fill="#000000" font-family="sans-serif" font-size="13" lengthAdjust="spacing" textLength="49" x="956" y="452.4545">contains</text><text fill="#000000" font-family="sans-serif" font-size="13" lengthAdjust="spacing" textLength="22" x="938.9197" y="428.9919">0..1</text></g><!--reverse link VesselVisitNotification to CrewMember--><g id="link_VesselVisitNotification_CrewMember"><path codeLine="114" d="M1056.4642,419.2075 C1075.5342,465.5775 1091.06,503.2994 1106.08,539.8194 " fill="none" id="VesselVisitNotification-backto-CrewMember" style="stroke:#181818;stroke-width:1.0;"/><polygon fill="#181818" points="1051.9,408.1094,1050.4827,415.1798,1056.4642,419.2075,1057.8815,412.137,1051.9,408.1094" style="stroke:#181818;stroke-width:1.0;"/><text fill="#000000" font-family="sans-serif" font-size="13" lengthAdjust="spacing" textLength="48" x="1070" y="452.4545">includes</text><text fill="#000000" font-family="sans-serif" font-size="13" lengthAdjust="spacing" textLength="20" x="1081.946" y="529.1266">0..*</text></g><!--link Organization to OrganizationId--><g id="link_Organization_OrganizationId"><path codeLine="116" d="M1834.96,672.7294 C1819.25,712.0894 1802.745,753.4472 1790.015,785.3272 " fill="none" id="Organization-to-OrganizationId" style="stroke:#181818;stroke-width:1.0;"/><polygon fill="#181818" points="1787.79,790.8994,1794.8423,784.0244,1789.6442,786.2559,1787.4128,781.0577,1787.79,790.8994" style="stroke:#181818;stroke-width:1.0;"/><text fill="#000000" font-family="sans-serif" font-size="13" lengthAdjust="spacing" textLength="69" x="1814" y="736.4545">identified by</text></g><!--link Organization to OrganizationType--><g id="link_Organization_OrganizationType"><path codeLine="117" d="M1888.89,672.7294 C1901.87,710.6494 1915.3082,749.9323 1926.1682,781.6823 " fill="none" id="Organization-to-OrganizationType" style="stroke:#181818;stroke-width:1.0;"/><polygon fill="#181818" points="1928.11,787.3594,1928.982,777.5492,1926.4918,782.6285,1921.4125,780.1383,1928.11,787.3594" style="stroke:#181818;stroke-width:1.0;"/><text fill="#000000" font-family="sans-serif" font-size="13" lengthAdjust="spacing" textLength="72" x="1910" y="736.4545">classified as</text></g><!--reverse link Organization to Representative--><g id="link_Organization_Representative"><path codeLine="118" d="M1957.0069,680.5901 C1993.2369,712.0001 2025.96,740.3694 2060.06,769.9294 " fill="none" id="Organization-backto-Representative" style="stroke:#181818;stroke-width:1.0;"/><polygon fill="#181818" points="1947.94,672.7294,1949.8532,679.682,1957.0069,680.5901,1955.0937,673.6374,1947.94,672.7294" style="stroke:#181818;stroke-width:1.0;"/><text fill="#000000" font-family="sans-serif" font-size="13" lengthAdjust="spacing" textLength="49" x="2020" y="736.4545">employs</text><text fill="#000000" font-family="sans-serif" font-size="13" lengthAdjust="spacing" textLength="20" x="2030.6829" y="759.25">1..*</text></g><!--link User to UserId--><g id="link_User_UserId"><path codeLine="120" d="M1593,320.3194 C1591.78,388.3794 1589.8386,496.0304 1588.7786,554.5804 " fill="none" id="User-to-UserId" style="stroke:#181818;stroke-width:1.0;"/><polygon fill="#181818" points="1588.67,560.5794,1592.8323,551.6533,1588.7605,555.5802,1584.8336,551.5084,1588.67,560.5794" style="stroke:#181818;stroke-width:1.0;"/><text fill="#000000" font-family="sans-serif" font-size="13" lengthAdjust="spacing" textLength="69" x="1591" y="452.4545">identified by</text></g><!--link Vessel to OrganizationId--><g id="link_Vessel_OrganizationId"><path codeLine="122" d="M1443.18,663.5394 C1466.19,681.0094 1491.96,699.1894 1517,713.9594 C1580.39,751.3394 1652.6415,782.1556 1705.7415,802.9056 " fill="none" id="Vessel-to-OrganizationId" style="stroke:#181818;stroke-width:1.0;"/><polygon fill="#181818" points="1711.33,805.0894,1704.4032,798.088,1706.6729,803.2695,1701.4914,805.5393,1711.33,805.0894" style="stroke:#181818;stroke-width:1.0;"/><text fill="#000000" font-family="sans-serif" font-size="13" lengthAdjust="spacing" textLength="68" x="1564" y="736.4545">operated by</text></g><!--link VesselVisitNotification to GMN34--><g id="link_VesselVisitNotification_GMN34"><path d="M1118.15,202.3094 C1225.61,153.0094 1386.19,87.8494 1534.5,60.9594 C1580.86,52.5594 1914.32,44.6094 1958.5,60.9594 C1989.52,72.4294 2015.65,94.4194 2037.12,119.8294 " fill="none" id="VesselVisitNotification-GMN34" style="stroke:#181818;stroke-width:1.0;stroke-dasharray:7.0,7.0;"/></g><!--link VVNState to GMN37--><g id="link_VVNState_GMN37"><path d="M504.49,539.5694 C517.69,502.2994 540.86,457.3794 579.5,435.9594 C618.96,414.0894 2161.1,420.5394 2203.5,435.9594 C2246.77,451.6894 2287.12,481.7394 2319.73,511.7994 " fill="none" id="VVNState-GMN37" style="stroke:#181818;stroke-width:1.0;stroke-dasharray:7.0,7.0;"/></g><!--SRC=[jLVBRkCs5DtxAuXinabZjpEx4O8KZgt9k9ZOXgsuw2gW9TfcHo85aahYAG9qrNNHJ-YdpPVqadgHikIPB1e4JgnxU7aVvpwag8e9kb-XTyDtm_TeW2OymPIXEnwH6FdF8H6fyj2Iy9Gm-FCx2HM9q7ezw_NUe34N18rsEq5sM17PIt7u6Uy8EbjJIPMiHMVeZnw2dp36Kg8raPB41ZFZYcvfY1Nb35rTuV804fohw-lYcFxv0QqVsMr68-GX_SSLt6IICb0xrMAf16Kx2x1IMgMdpJR_scUr5OjCf5mQXFNLHXcBfmblq-uh38yde3UW2N44KRiWZoEul2HOWkEbqf-FC2GQAKj73HWC7AnEJy0d0czL_zpsFDiar7qqIbF17qcVRo7mH5oYY8UVHrBI7Ki8KzFe_CYA6YkCmJdYnNoQ3yAof8gkbRJfx66ndDyk_TMgUhQwlxcR1e4_gPwC5W1QMm-M_Y_-k4HOr-Jq-SHn1C4QOx7ZTvZHBP7A8OhF89f4Gjm-KQckIen-VBXkrtdFulz1wrYGfpkIR8XmDCrmGjg8DAQAVY6idSCpKoCufkhG9bxokA7pfVVIgojoBdPWy9Uyq3hgqi5yenYDaVQ1QUH8WKbGsE1uYwsVG6lS5OJWa9A6QlsedVYZA5gIL109rm4KM2r8UjwU3DTOyEyHnnb1VACPtcmrHcGrcYRNc-PPfnVpPV0mkWy-pfVJuBUQzX-dYyLqTlimklLdGRk9hY_7yNRbJiIxmkb3EuzVGJQNDVSICjZ15YFx7fPee6Dhfqrj96uMgb7swkpPJkND_FHm-gPZ2Pzbfh1RIxKz5xbgJPSnZDSsn3mb0YikW5vT1URwCe7UZUhctUNKn6dntvMrnepL6hgilY52xJy8dhHFEoCEUBiGPdVRTRcn9Bev50a_GkXHayaMyhw1CebDnEIUfX9jkQWNd90pHPvLhsi56GokwpdceJ0JGWTCcgtXrA56Tm6ppEJLozBcSF9avU3PJyFXspFd8Cf0-AhJebpHu70njKyxczFTWuDR0hw6iCQTmZUOLDsBYuGXnL7_QG_B8ixt35WdklHT30RjmxpIgjC5wwWygQ9ZThzEYSPUdDaJsqEKXN4MGK1wpcHiJJSj9vx9zqbyCU5CPUOdi7HF68FU6eCQ8y5394bZVW2RJFzrAE3QKBZRRYutZQO0Cgxx0Dtj5L2cQpk70hkugEhe0mypwLrSz4npRkoVA25gpy6jEEPF4kGhACGK4WJjIPF6zKa2PG2Z16PmfNOVLmkWhaMqWMQNOwnrCY_9ONv_kVsZPHOJwS6Jht_-Y-OiFjIQllxrJsCThJ1IzsjkXSWMDcmNCA8AyK8x8RG3ejpdjUSumWhdTess2d8aJ7HAgun79EG9d2CHLNXJAHnZXh8qqgqdALWiVmo1aPOSxZJzmRIrlCHmt2CiGZgBHxciNtZobXPKKJPXWj_nqXy5Vajux61hQRMtetvkWjwpweSQKYxog5yK_p6aoaS_3vf6TEL8OtJepa7mTzN3SxC38X8Awx1dNHf3RoBczSKl0klPwYxhzuf6l1HFTRJcBWNihpX6DpnZ4HO7h-IyI-8GaiCrONAR0G71bv3gcBETvWyqHhKdL23-n8vhmgPVmUe55p3GCoWbePT-k02CBTGRvSEc7nkk54nXSCLjqphDyEQcwzsOQFgp9YALLVYAIwVRKf1VfBjJmUA2uvU0Ohmv2CWpl1H9T22gKFGhZMFmlXuCMGhrmM3uLhIrxFyF]--></g></svg>