<?xml version="1.0" encoding="us-ascii" standalone="no"?><svg xmlns="http://www.w3.org/2000/svg" xmlns:xlink="http://www.w3.org/1999/xlink" contentStyleType="text/css" height="1375px" preserveAspectRatio="none" style="width:1308px;height:1375px;background:#FFFFFF;" version="1.1" viewBox="0 0 1308 1375" width="1308px" zoomAndPan="magnify"><defs/><g><text fill="#000000" font-family="sans-serif" font-size="14" font-weight="bold" lengthAdjust="spacing" textLength="362" x="469.25" y="29.5332">US 2.2.9 - Sequence Diagram: Reopen Rejected VVN</text><rect fill="#FFFFFF" height="1116.7578" style="stroke:#181818;stroke-width:1.0;" width="10" x="96" y="148.8281"/><rect fill="#FFFFFF" height="1094.4063" style="stroke:#181818;stroke-width:1.0;" width="10" x="509" y="171.1797"/><rect fill="#FFFFFF" height="46.7031" style="stroke:#181818;stroke-width:1.0;" width="10" x="756" y="245.8828"/><rect fill="#FFFFFF" height="30.3516" style="stroke:#181818;stroke-width:1.0;" width="10" x="871.5" y="700.0156"/><rect fill="#FFFFFF" height="208.1641" style="stroke:#181818;stroke-width:1.0;" width="10" x="871.5" y="848.6094"/><rect fill="#FFFFFF" height="30.3516" style="stroke:#181818;stroke-width:1.0;" width="10" x="1105.5" y="567.7734"/><rect fill="#FFFFFF" height="30.3516" style="stroke:#181818;stroke-width:1.0;" width="10" x="1105.5" y="1087.125"/><rect fill="none" height="951" style="stroke:#000000;stroke-width:1.5;" width="1281.5" x="10" y="307.5859"/><rect fill="none" height="803.4063" style="stroke:#000000;stroke-width:1.5;" width="1261.5" x="20" y="448.1797"/><rect fill="none" height="631.4609" style="stroke:#000000;stroke-width:1.5;" width="1241.5" x="30" y="613.125"/><rect fill="none" height="492.2188" style="stroke:#000000;stroke-width:1.5;" width="1221.5" x="40" y="745.3672"/><line style="stroke:#181818;stroke-width:0.5;stroke-dasharray:5.0,5.0;" x1="101" x2="101" y1="138.8281" y2="1275.5859"/><line style="stroke:#181818;stroke-width:0.5;stroke-dasharray:5.0,5.0;" x1="514" x2="514" y1="138.8281" y2="1275.5859"/><line style="stroke:#181818;stroke-width:0.5;stroke-dasharray:5.0,5.0;" x1="760.5" x2="760.5" y1="138.8281" y2="1275.5859"/><line style="stroke:#181818;stroke-width:0.5;stroke-dasharray:5.0,5.0;" x1="876.5" x2="876.5" y1="138.8281" y2="1275.5859"/><line style="stroke:#181818;stroke-width:0.5;stroke-dasharray:5.0,5.0;" x1="1110.5" x2="1110.5" y1="138.8281" y2="1275.5859"/><text fill="#000000" font-family="sans-serif" font-size="14" lengthAdjust="spacing" textLength="96" x="50" y="118.1426">Shipping Agent</text><text fill="#000000" font-family="sans-serif" font-size="14" lengthAdjust="spacing" textLength="96" x="50" y="135.752">Representative</text><ellipse cx="101" cy="52.1094" fill="#E2E2F0" rx="8" ry="8" style="stroke:#181818;stroke-width:0.5;"/><path d="M101,60.1094 L101,87.1094 M88,68.1094 L114,68.1094 M101,87.1094 L88,102.1094 M101,87.1094 L114,102.1094 " fill="none" style="stroke:#181818;stroke-width:0.5;"/><text fill="#000000" font-family="sans-serif" font-size="14" lengthAdjust="spacing" textLength="96" x="50" y="1289.1191">Shipping Agent</text><text fill="#000000" font-family="sans-serif" font-size="14" lengthAdjust="spacing" textLength="96" x="50" y="1306.7285">Representative</text><ellipse cx="101" cy="1318.3047" fill="#E2E2F0" rx="8" ry="8" style="stroke:#181818;stroke-width:0.5;"/><path d="M101,1326.3047 L101,1353.3047 M88,1334.3047 L114,1334.3047 M101,1353.3047 L88,1368.3047 M101,1353.3047 L114,1368.3047 " fill="none" style="stroke:#181818;stroke-width:0.5;"/><rect fill="#E2E2F0" height="49.2188" rx="2.5" ry="2.5" style="stroke:#181818;stroke-width:0.5;" width="162" x="433" y="88.6094"/><text fill="#000000" font-family="sans-serif" font-size="14" lengthAdjust="spacing" textLength="148" x="440" y="110.1426">:VesselVisitNotifications</text><text fill="#000000" font-family="sans-serif" font-size="14" lengthAdjust="spacing" textLength="62" x="483" y="127.752">Controller</text><rect fill="#E2E2F0" height="49.2188" rx="2.5" ry="2.5" style="stroke:#181818;stroke-width:0.5;" width="162" x="433" y="1274.5859"/><text fill="#000000" font-family="sans-serif" font-size="14" lengthAdjust="spacing" textLength="148" x="440" y="1296.1191">:VesselVisitNotifications</text><text fill="#000000" font-family="sans-serif" font-size="14" lengthAdjust="spacing" textLength="62" x="483" y="1313.7285">Controller</text><rect fill="#E2E2F0" height="49.2188" rx="2.5" ry="2.5" style="stroke:#181818;stroke-width:0.5;" width="103" x="709.5" y="88.6094"/><text fill="#000000" font-family="sans-serif" font-size="14" lengthAdjust="spacing" textLength="89" x="716.5" y="110.1426">:CallerContext</text><text fill="#000000" font-family="sans-serif" font-size="14" lengthAdjust="spacing" textLength="48" x="737" y="127.752">Factory</text><rect fill="#E2E2F0" height="49.2188" rx="2.5" ry="2.5" style="stroke:#181818;stroke-width:0.5;" width="103" x="709.5" y="1274.5859"/><text fill="#000000" font-family="sans-serif" font-size="14" lengthAdjust="spacing" textLength="89" x="716.5" y="1296.1191">:CallerContext</text><text fill="#000000" font-family="sans-serif" font-size="14" lengthAdjust="spacing" textLength="48" x="737" y="1313.7285">Factory</text><rect fill="#E2E2F0" height="49.2188" rx="2.5" ry="2.5" style="stroke:#181818;stroke-width:0.5;" width="108" x="822.5" y="88.6094"/><text fill="#000000" font-family="sans-serif" font-size="14" lengthAdjust="spacing" textLength="94" x="829.5" y="110.1426">vvn:VesselVisit</text><text fill="#000000" font-family="sans-serif" font-size="14" lengthAdjust="spacing" textLength="69" x="842" y="127.752">Notification</text><rect fill="#E2E2F0" height="49.2188" rx="2.5" ry="2.5" style="stroke:#181818;stroke-width:0.5;" width="108" x="822.5" y="1274.5859"/><text fill="#000000" font-family="sans-serif" font-size="14" lengthAdjust="spacing" textLength="94" x="829.5" y="1296.1191">vvn:VesselVisit</text><text fill="#000000" font-family="sans-serif" font-size="14" lengthAdjust="spacing" textLength="69" x="842" y="1313.7285">Notification</text><rect fill="#E2E2F0" height="31.6094" rx="2.5" ry="2.5" style="stroke:#181818;stroke-width:0.5;" width="110" x="1055.5" y="106.2188"/><text fill="#000000" font-family="sans-serif" font-size="14" lengthAdjust="spacing" textLength="96" x="1062.5" y="127.752">:PortDbContext</text><rect fill="#E2E2F0" height="31.6094" rx="2.5" ry="2.5" style="stroke:#181818;stroke-width:0.5;" width="110" x="1055.5" y="1274.5859"/><text fill="#000000" font-family="sans-serif" font-size="14" lengthAdjust="spacing" textLength="96" x="1062.5" y="1296.1191">:PortDbContext</text><rect fill="#FFFFFF" height="1116.7578" style="stroke:#181818;stroke-width:1.0;" width="10" x="96" y="148.8281"/><rect fill="#FFFFFF" height="1094.4063" style="stroke:#181818;stroke-width:1.0;" width="10" x="509" y="171.1797"/><rect fill="#FFFFFF" height="46.7031" style="stroke:#181818;stroke-width:1.0;" width="10" x="756" y="245.8828"/><rect fill="#FFFFFF" height="30.3516" style="stroke:#181818;stroke-width:1.0;" width="10" x="871.5" y="700.0156"/><rect fill="#FFFFFF" height="208.1641" style="stroke:#181818;stroke-width:1.0;" width="10" x="871.5" y="848.6094"/><rect fill="#FFFFFF" height="30.3516" style="stroke:#181818;stroke-width:1.0;" width="10" x="1105.5" y="567.7734"/><rect fill="#FFFFFF" height="30.3516" style="stroke:#181818;stroke-width:1.0;" width="10" x="1105.5" y="1087.125"/><polygon fill="#181818" points="497,167.1797,507,171.1797,497,175.1797,501,171.1797" style="stroke:#181818;stroke-width:1.0;"/><line style="stroke:#181818;stroke-width:1.0;" x1="106" x2="503" y1="171.1797" y2="171.1797"/><text fill="#000000" font-family="sans-serif" font-size="13" font-weight="bold" lengthAdjust="spacing" textLength="7" x="113" y="166.3232">1</text><text fill="#000000" font-family="sans-serif" font-size="13" lengthAdjust="spacing" textLength="264" x="124" y="166.3232">POST /api/vessel-visit-notifications/{id}:reopen</text><rect fill="#EEEEEE" height="3" style="stroke:#EEEEEE;stroke-width:1.0;" width="1301.5" x="0" y="200.3555"/><line style="stroke:#000000;stroke-width:1.0;" x1="0" x2="1301.5" y1="200.3555" y2="200.3555"/><line style="stroke:#000000;stroke-width:1.0;" x1="0" x2="1301.5" y1="203.3555" y2="203.3555"/><rect fill="#EEEEEE" height="24.3516" style="stroke:#000000;stroke-width:2.0;" width="212" x="544.75" y="189.1797"/><text fill="#000000" font-family="sans-serif" font-size="13" font-weight="bold" lengthAdjust="spacing" textLength="194" x="550.75" y="206.6748">Authentication &amp; Authorization</text><polygon fill="#181818" points="744,241.8828,754,245.8828,744,249.8828,748,245.8828" style="stroke:#181818;stroke-width:1.0;"/><line style="stroke:#181818;stroke-width:1.0;" x1="519" x2="750" y1="245.8828" y2="245.8828"/><text fill="#000000" font-family="sans-serif" font-size="13" font-weight="bold" lengthAdjust="spacing" textLength="7" x="526" y="241.0264">2</text><text fill="#000000" font-family="sans-serif" font-size="13" lengthAdjust="spacing" textLength="180" x="537" y="241.0264">ExtractFrom(Request.Headers)</text><polygon fill="#181818" points="530,288.5859,520,292.5859,530,296.5859,526,292.5859" style="stroke:#181818;stroke-width:1.0;"/><line style="stroke:#181818;stroke-width:1.0;stroke-dasharray:2.0,2.0;" x1="524" x2="760" y1="292.5859" y2="292.5859"/><text fill="#000000" font-family="sans-serif" font-size="13" font-weight="bold" lengthAdjust="spacing" textLength="7" x="536" y="279.5537">3</text><text fill="#000000" font-family="sans-serif" font-size="13" lengthAdjust="spacing" textLength="78" x="547" y="271.3779">CallerContext</text><text fill="#000000" font-family="sans-serif" font-size="13" lengthAdjust="spacing" textLength="170" x="547" y="287.7295">(Role, OrganizationId, UserId)</text><path d="M10,307.5859 L71,307.5859 L71,315.9375 L61,325.9375 L10,325.9375 L10,307.5859 " fill="#EEEEEE" style="stroke:#000000;stroke-width:1.5;"/><rect fill="none" height="951" style="stroke:#000000;stroke-width:1.5;" width="1281.5" x="10" y="307.5859"/><text fill="#000000" font-family="sans-serif" font-size="13" font-weight="bold" lengthAdjust="spacing" textLength="16" x="25" y="322.0811">alt</text><text fill="#000000" font-family="sans-serif" font-size="11" font-weight="bold" lengthAdjust="spacing" textLength="335" x="86" y="321.0049">[Role != "ShippingAgentRepresentative" AND Role != "Admin"]</text><polygon fill="#181818" points="117,360.6406,107,364.6406,117,368.6406,113,364.6406" style="stroke:#181818;stroke-width:1.0;"/><line style="stroke:#181818;stroke-width:1.0;stroke-dasharray:2.0,2.0;" x1="111" x2="508" y1="364.6406" y2="364.6406"/><text fill="#000000" font-family="sans-serif" font-size="13" font-weight="bold" lengthAdjust="spacing" textLength="7" x="123" y="351.6084">4</text><text fill="#000000" font-family="sans-serif" font-size="13" lengthAdjust="spacing" textLength="82" x="134" y="343.4326">403 Forbidden</text><text fill="#000000" font-family="sans-serif" font-size="13" lengthAdjust="spacing" textLength="339" x="134" y="359.7842">("Only Shipping Agent Representatives can reopen VVNs")</text><line style="stroke:#000000;stroke-width:1.0;stroke-dasharray:2.0,2.0;" x1="10" x2="1291.5" y1="373.6406" y2="373.6406"/><text fill="#000000" font-family="sans-serif" font-size="11" font-weight="bold" lengthAdjust="spacing" textLength="134" x="15" y="385.0596">[Organization Validation]</text><line style="stroke:#181818;stroke-width:1.0;" x1="519" x2="561" y1="415.5039" y2="415.5039"/><line style="stroke:#181818;stroke-width:1.0;" x1="561" x2="561" y1="415.5039" y2="428.5039"/><line style="stroke:#181818;stroke-width:1.0;" x1="520" x2="561" y1="428.5039" y2="428.5039"/><polygon fill="#181818" points="530,424.5039,520,428.5039,530,432.5039,526,428.5039" style="stroke:#181818;stroke-width:1.0;"/><text fill="#000000" font-family="sans-serif" font-size="13" font-weight="bold" lengthAdjust="spacing" textLength="7" x="526" y="410.6475">5</text><text fill="#000000" font-family="sans-serif" font-size="13" lengthAdjust="spacing" textLength="212" x="537" y="410.6475">EnsureSameOrgAsync(id, ctx.OrgId)</text><path d="M761,393.4766 L761,435.4766 L998,435.4766 L998,403.4766 L988,393.4766 L761,393.4766 " fill="#FEFFDD" style="stroke:#181818;stroke-width:0.5;"/><path d="M988,393.4766 L988,403.4766 L998,403.4766 L988,393.4766 " fill="#FEFFDD" style="stroke:#181818;stroke-width:0.5;"/><text fill="#000000" font-family="sans-serif" font-size="13" lengthAdjust="spacing" textLength="147" x="767" y="411.9717">Loads VVN and checks if</text><text fill="#000000" font-family="sans-serif" font-size="13" lengthAdjust="spacing" textLength="216" x="767" y="428.3232">OrganizationId matches caller's OrgId</text><path d="M20,448.1797 L81,448.1797 L81,456.5313 L71,466.5313 L20,466.5313 L20,448.1797 " fill="#EEEEEE" style="stroke:#000000;stroke-width:1.5;"/><rect fill="none" height="803.4063" style="stroke:#000000;stroke-width:1.5;" width="1261.5" x="20" y="448.1797"/><text fill="#000000" font-family="sans-serif" font-size="13" font-weight="bold" lengthAdjust="spacing" textLength="16" x="35" y="462.6748">alt</text><text fill="#000000" font-family="sans-serif" font-size="11" font-weight="bold" lengthAdjust="spacing" textLength="232" x="96" y="461.5986">[Organization mismatch or VVN not found]</text><polygon fill="#181818" points="117,501.2344,107,505.2344,117,509.2344,113,505.2344" style="stroke:#181818;stroke-width:1.0;"/><line style="stroke:#181818;stroke-width:1.0;stroke-dasharray:2.0,2.0;" x1="111" x2="508" y1="505.2344" y2="505.2344"/><text fill="#000000" font-family="sans-serif" font-size="13" font-weight="bold" lengthAdjust="spacing" textLength="7" x="123" y="492.2021">6</text><text fill="#000000" font-family="sans-serif" font-size="13" lengthAdjust="spacing" textLength="82" x="134" y="484.0264">403 Forbidden</text><text fill="#000000" font-family="sans-serif" font-size="13" lengthAdjust="spacing" textLength="243" x="134" y="500.3779">("VVN belongs to a different organization")</text><line style="stroke:#000000;stroke-width:1.0;stroke-dasharray:2.0,2.0;" x1="20" x2="1281.5" y1="514.2344" y2="514.2344"/><text fill="#000000" font-family="sans-serif" font-size="11" font-weight="bold" lengthAdjust="spacing" textLength="80" x="25" y="525.6533">[Retrieve VVN]</text><polygon fill="#181818" points="1093.5,563.7734,1103.5,567.7734,1093.5,571.7734,1097.5,567.7734" style="stroke:#181818;stroke-width:1.0;"/><line style="stroke:#181818;stroke-width:1.0;" x1="519" x2="1099.5" y1="567.7734" y2="567.7734"/><text fill="#000000" font-family="sans-serif" font-size="13" font-weight="bold" lengthAdjust="spacing" textLength="7" x="526" y="554.7412">7</text><text fill="#000000" font-family="sans-serif" font-size="13" lengthAdjust="spacing" textLength="137" x="537" y="546.5654">VesselVisitNotifications</text><text fill="#000000" font-family="sans-serif" font-size="13" lengthAdjust="spacing" textLength="259" x="537" y="562.917">.SingleOrDefaultAsync(v =&gt; v.VvnGuid == id)</text><polygon fill="#181818" points="530,594.125,520,598.125,530,602.125,526,598.125" style="stroke:#181818;stroke-width:1.0;"/><line style="stroke:#181818;stroke-width:1.0;stroke-dasharray:2.0,2.0;" x1="524" x2="1109.5" y1="598.125" y2="598.125"/><text fill="#000000" font-family="sans-serif" font-size="13" font-weight="bold" lengthAdjust="spacing" textLength="7" x="536" y="593.2686">8</text><text fill="#000000" font-family="sans-serif" font-size="13" lengthAdjust="spacing" textLength="64" x="547" y="593.2686">vvn (or null)</text><path d="M30,613.125 L91,613.125 L91,621.4766 L81,631.4766 L30,631.4766 L30,613.125 " fill="#EEEEEE" style="stroke:#000000;stroke-width:1.5;"/><rect fill="none" height="631.4609" style="stroke:#000000;stroke-width:1.5;" width="1241.5" x="30" y="613.125"/><text fill="#000000" font-family="sans-serif" font-size="13" font-weight="bold" lengthAdjust="spacing" textLength="16" x="45" y="627.6201">alt</text><text fill="#000000" font-family="sans-serif" font-size="11" font-weight="bold" lengthAdjust="spacing" textLength="65" x="106" y="626.5439">[vvn == null]</text><polygon fill="#181818" points="117,649.8281,107,653.8281,117,657.8281,113,653.8281" style="stroke:#181818;stroke-width:1.0;"/><line style="stroke:#181818;stroke-width:1.0;stroke-dasharray:2.0,2.0;" x1="111" x2="508" y1="653.8281" y2="653.8281"/><text fill="#000000" font-family="sans-serif" font-size="13" font-weight="bold" lengthAdjust="spacing" textLength="7" x="123" y="648.9717">9</text><text fill="#000000" font-family="sans-serif" font-size="13" lengthAdjust="spacing" textLength="85" x="134" y="648.9717">404 Not Found</text><line style="stroke:#000000;stroke-width:1.0;stroke-dasharray:2.0,2.0;" x1="30" x2="1271.5" y1="662.8281" y2="662.8281"/><text fill="#000000" font-family="sans-serif" font-size="11" font-weight="bold" lengthAdjust="spacing" textLength="149" x="35" y="674.2471">[State Validation &amp; Reopen]</text><polygon fill="#181818" points="859.5,696.0156,869.5,700.0156,859.5,704.0156,863.5,700.0156" style="stroke:#181818;stroke-width:1.0;"/><line style="stroke:#181818;stroke-width:1.0;" x1="519" x2="865.5" y1="700.0156" y2="700.0156"/><text fill="#000000" font-family="sans-serif" font-size="13" font-weight="bold" lengthAdjust="spacing" textLength="14" x="526" y="695.1592">10</text><text fill="#000000" font-family="sans-serif" font-size="13" lengthAdjust="spacing" textLength="53" x="544" y="695.1592">get State</text><polygon fill="#181818" points="530,726.3672,520,730.3672,530,734.3672,526,730.3672" style="stroke:#181818;stroke-width:1.0;"/><line style="stroke:#181818;stroke-width:1.0;stroke-dasharray:2.0,2.0;" x1="524" x2="875.5" y1="730.3672" y2="730.3672"/><text fill="#000000" font-family="sans-serif" font-size="13" font-weight="bold" lengthAdjust="spacing" textLength="14" x="536" y="725.5107">11</text><text fill="#000000" font-family="sans-serif" font-size="13" lengthAdjust="spacing" textLength="58" x="554" y="725.5107">VVNState</text><path d="M40,745.3672 L101,745.3672 L101,753.7188 L91,763.7188 L40,763.7188 L40,745.3672 " fill="#EEEEEE" style="stroke:#000000;stroke-width:1.5;"/><rect fill="none" height="492.2188" style="stroke:#000000;stroke-width:1.5;" width="1221.5" x="40" y="745.3672"/><text fill="#000000" font-family="sans-serif" font-size="13" font-weight="bold" lengthAdjust="spacing" textLength="16" x="55" y="759.8623">alt</text><text fill="#000000" font-family="sans-serif" font-size="11" font-weight="bold" lengthAdjust="spacing" textLength="104" x="116" y="758.7861">[State != REJECTED]</text><polygon fill="#181818" points="117,798.4219,107,802.4219,117,806.4219,113,802.4219" style="stroke:#181818;stroke-width:1.0;"/><line style="stroke:#181818;stroke-width:1.0;stroke-dasharray:2.0,2.0;" x1="111" x2="508" y1="802.4219" y2="802.4219"/><text fill="#000000" font-family="sans-serif" font-size="13" font-weight="bold" lengthAdjust="spacing" textLength="14" x="123" y="789.3896">12</text><text fill="#000000" font-family="sans-serif" font-size="13" lengthAdjust="spacing" textLength="68" x="141" y="781.2139">409 Conflict</text><text fill="#000000" font-family="sans-serif" font-size="13" lengthAdjust="spacing" textLength="361" x="141" y="797.5654">("Only rejected VVNs can be reopened. Current state: {state}")</text><line style="stroke:#000000;stroke-width:1.0;stroke-dasharray:2.0,2.0;" x1="40" x2="1261.5" y1="811.4219" y2="811.4219"/><text fill="#000000" font-family="sans-serif" font-size="11" font-weight="bold" lengthAdjust="spacing" textLength="82" x="45" y="822.8408">[Success Path]</text><polygon fill="#181818" points="859.5,844.6094,869.5,848.6094,859.5,852.6094,863.5,848.6094" style="stroke:#181818;stroke-width:1.0;"/><line style="stroke:#181818;stroke-width:1.0;" x1="519" x2="865.5" y1="848.6094" y2="848.6094"/><text fill="#000000" font-family="sans-serif" font-size="13" font-weight="bold" lengthAdjust="spacing" textLength="14" x="526" y="843.7529">13</text><text fill="#000000" font-family="sans-serif" font-size="13" lengthAdjust="spacing" textLength="93" x="544" y="843.7529">ReopenToDraft()</text><line style="stroke:#181818;stroke-width:1.0;" x1="881.5" x2="923.5" y1="895.3125" y2="895.3125"/><line style="stroke:#181818;stroke-width:1.0;" x1="923.5" x2="923.5" y1="895.3125" y2="908.3125"/><line style="stroke:#181818;stroke-width:1.0;" x1="882.5" x2="923.5" y1="908.3125" y2="908.3125"/><polygon fill="#181818" points="892.5,904.3125,882.5,908.3125,892.5,912.3125,888.5,908.3125" style="stroke:#181818;stroke-width:1.0;"/><text fill="#000000" font-family="sans-serif" font-size="13" font-weight="bold" lengthAdjust="spacing" textLength="14" x="888.5" y="882.2803">14</text><text fill="#000000" font-family="sans-serif" font-size="13" lengthAdjust="spacing" textLength="135" x="906.5" y="874.1045">if (State != REJECTED)</text><text fill="#000000" font-family="sans-serif" font-size="13" lengthAdjust="spacing" textLength="184" x="914.5" y="890.4561">throw InvalidOperationException</text><line style="stroke:#181818;stroke-width:1.0;" x1="881.5" x2="923.5" y1="976.043" y2="976.043"/><line style="stroke:#181818;stroke-width:1.0;" x1="923.5" x2="923.5" y1="976.043" y2="989.043"/><line style="stroke:#181818;stroke-width:1.0;" x1="882.5" x2="923.5" y1="989.043" y2="989.043"/><polygon fill="#181818" points="892.5,985.043,882.5,989.043,892.5,993.043,888.5,989.043" style="stroke:#181818;stroke-width:1.0;"/><text fill="#000000" font-family="sans-serif" font-size="13" font-weight="bold" lengthAdjust="spacing" textLength="14" x="888.5" y="971.1865">15</text><text fill="#000000" font-family="sans-serif" font-size="13" lengthAdjust="spacing" textLength="140" x="906.5" y="971.1865">State = IN_PROGRESS</text><path d="M1058,921.3125 L1058,1029.3125 L1241,1029.3125 L1241,931.3125 L1231,921.3125 L1058,921.3125 " fill="#FEFFDD" style="stroke:#181818;stroke-width:0.5;"/><path d="M1231,921.3125 L1231,931.3125 L1241,931.3125 L1231,921.3125 " fill="#FEFFDD" style="stroke:#181818;stroke-width:0.5;"/><text fill="#000000" font-family="sans-serif" font-size="13" lengthAdjust="spacing" textLength="162" x="1064" y="939.8076">Rejection metadata cleared:</text><text fill="#000000" font-family="sans-serif" font-size="13" lengthAdjust="spacing" textLength="142" x="1064" y="956.1592">- RejectionReason = null</text><text fill="#000000" font-family="sans-serif" font-size="13" lengthAdjust="spacing" textLength="108" x="1064" y="972.5107">- RejectedAt = null</text><text fill="#000000" font-family="sans-serif" font-size="13" lengthAdjust="spacing" textLength="121" x="1064" y="988.8623">- RejectedById = null</text><text fill="#000000" font-family="sans-serif" font-size="13" lengthAdjust="spacing" textLength="116" x="1064" y="1005.2139">- SubmittedAt = null</text><text fill="#000000" font-family="sans-serif" font-size="13" lengthAdjust="spacing" textLength="129" x="1064" y="1021.5654">- SubmittedById = null</text><polygon fill="#181818" points="530,1052.7734,520,1056.7734,530,1060.7734,526,1056.7734" style="stroke:#181818;stroke-width:1.0;"/><line style="stroke:#181818;stroke-width:1.0;stroke-dasharray:2.0,2.0;" x1="524" x2="875.5" y1="1056.7734" y2="1056.7734"/><text fill="#000000" font-family="sans-serif" font-size="13" font-weight="bold" lengthAdjust="spacing" textLength="14" x="536" y="1051.917">16</text><text fill="#000000" font-family="sans-serif" font-size="13" lengthAdjust="spacing" textLength="22" x="554" y="1051.917">void</text><polygon fill="#181818" points="1093.5,1083.125,1103.5,1087.125,1093.5,1091.125,1097.5,1087.125" style="stroke:#181818;stroke-width:1.0;"/><line style="stroke:#181818;stroke-width:1.0;" x1="519" x2="1099.5" y1="1087.125" y2="1087.125"/><text fill="#000000" font-family="sans-serif" font-size="13" font-weight="bold" lengthAdjust="spacing" textLength="14" x="526" y="1082.2686">17</text><text fill="#000000" font-family="sans-serif" font-size="13" lengthAdjust="spacing" textLength="124" x="544" y="1082.2686">SaveChangesAsync()</text><polygon fill="#181818" points="530,1113.4766,520,1117.4766,530,1121.4766,526,1117.4766" style="stroke:#181818;stroke-width:1.0;"/><line style="stroke:#181818;stroke-width:1.0;stroke-dasharray:2.0,2.0;" x1="524" x2="1109.5" y1="1117.4766" y2="1117.4766"/><text fill="#000000" font-family="sans-serif" font-size="13" font-weight="bold" lengthAdjust="spacing" textLength="14" x="536" y="1112.6201">18</text><text fill="#000000" font-family="sans-serif" font-size="13" lengthAdjust="spacing" textLength="33" x="554" y="1112.6201">saved</text><polygon fill="#181818" points="117,1225.5859,107,1229.5859,117,1233.5859,113,1229.5859" style="stroke:#181818;stroke-width:1.0;"/><line style="stroke:#181818;stroke-width:1.0;stroke-dasharray:2.0,2.0;" x1="111" x2="508" y1="1229.5859" y2="1229.5859"/><text fill="#000000" font-family="sans-serif" font-size="13" font-weight="bold" lengthAdjust="spacing" textLength="14" x="123" y="1183.8506">19</text><text fill="#000000" font-family="sans-serif" font-size="13" lengthAdjust="spacing" textLength="44" x="141" y="1142.9717">200 OK</text><text fill="#000000" font-family="sans-serif" font-size="13" lengthAdjust="spacing" textLength="4" x="141" y="1159.3232">{</text><text fill="#000000" font-family="sans-serif" font-size="13" lengthAdjust="spacing" textLength="162" x="149" y="1175.6748">vvnId: "2025-PTLEI-000001",</text><text fill="#000000" font-family="sans-serif" font-size="13" lengthAdjust="spacing" textLength="144" x="149" y="1192.0264">state: "IN_PROGRESS",</text><text fill="#000000" font-family="sans-serif" font-size="13" lengthAdjust="spacing" textLength="288" x="149" y="1208.3779">message: "VVN reopened, can edit and resubmit"</text><text fill="#000000" font-family="sans-serif" font-size="13" lengthAdjust="spacing" textLength="4" x="141" y="1224.7295">}</text><!--SRC=[bLNVZzeu47xFNp6NXpkG5fQZxKEHgCG2swDNBIZPyeHqCl40lWjspdPoR5VxltVim2O1skgG8CJZ-V5zyutDSgjalb-Z3gomASAN6FhTVlSzT236VtEK2S94iArc-m54g3AKzFWR4uiSbik78629LHh2U2UoJCWjZBOexKf6c6aqz9TPKM08p91V5cHCMv68Z4aBuM29nc2w54RO1sN5HYIqMqcpacCbhLPfYjgxLgzd4SRCBJep7YZhlQ_cgVInX-DhqwSeP3tnIjPJUq-7gvbceRITh8zf_9x9dOSk2cRH8mle1peVQgN201Rp-15kMIPk2v-nKxYK7La7U_ii-Cj0Uswha3N4mN08ezpkYCoZ3_pg5vGMNyltuJ08QebT6Q_egOpfmMfwkTTgtufSMutj_e6CepRjMigAi9ftvnpJ6UMjIALu0tEzPV9OpepVm1U3UiRR0SThyGEMMd2EyCkmqewNphbmHW-JQkU8xuKC0w1F7IwLwDWVmDlU6xXNUYquHqcrXNEPFa5Jcz3CO21X4ahwNUTDs0umDTX014kM2kx_NX1TvsOgJQunPdiaxv5vaabB41c9FNHfmV51hKVGOhkpXEApOjpB3PZaaEmm-SU0s92bIIVicIMhAzKb-is0ZnOWURc09P-DWlV2U2UWuNG9Q1jiL2xv_o3F-QqnLN9hm2fWmCLcWzfng6gvJeH5QBN00ijpeSdIv8uIV7_Skp6r9oNI9hXXUMfBwWeOVe2Ykopanrnm4Za8NjChZI25lT0dpJUq2BNCqxIXFp-on9FRGB6S_KTal0KgaWXnd7byiNLHAYNG59OduZbOnzi0jcXBbwfYHumpNjHCY-NMMhdbwPeUWpZvHzDFq_7ZTFAZgjyxmoOLYNsLlwwTrwNQrtWKFF8kZ7FjMsfScW4y- -VBgQbndYJKDbWmkxkEi-JWKKqqszXMkucsX7lQAZRGka3JNaa0kzFgFvZ9mh4xpr1xXgU71BDow1fnoXX3c3tyjOZc7wDf73S7gxoY_1oWPTGk1acAJ2CVaBLJsIDanfsV9pLqNc-taRssUlT4qrXRZ_FrNjYBxQ_BzVtLj5xLGA44l-Z_bIcAMO7Z7PDRDEMO_7ma3Bdmyr6uAg1-hmVpFrVosJM51cN61n3sU_rtdSNZv-ciqtEVtyCRPpuA9gnreJJiIJ1iwqmEw4bfDrvwo8NrfnqTmPwaS2LV0iTDuzkuDwghiBRgxjnl]--></g></svg>