<?xml version="1.0" encoding="us-ascii" standalone="no"?><svg xmlns="http://www.w3.org/2000/svg" xmlns:xlink="http://www.w3.org/1999/xlink" contentStyleType="text/css" height="889px" preserveAspectRatio="none" style="width:1352px;height:889px;background:#FFFFFF;" version="1.1" viewBox="0 0 1352 889" width="1352px" zoomAndPan="magnify"><defs/><g><text fill="#000000" font-family="sans-serif" font-size="14" font-weight="bold" lengthAdjust="spacing" textLength="374" x="482" y="24.5332">Class Diagram excerpt - US 2.2.8 Create &amp; Submit VVN</text><!--cluster Visits--><g id="cluster_Visits"><path d="M8.5,44.6094 L47.5,44.6094 A3.75,3.75 0 0 1 50,47.1094 L57,68.2188 L1034.5,68.2188 A2.5,2.5 0 0 1 1037,70.7188 L1037,712.1094 A2.5,2.5 0 0 1 1034.5,714.6094 L8.5,714.6094 A2.5,2.5 0 0 1 6,712.1094 L6,47.1094 A2.5,2.5 0 0 1 8.5,44.6094 " fill="none" style="stroke:#000000;stroke-width:1.5;"/><line style="stroke:#000000;stroke-width:1.5;" x1="6" x2="57" y1="68.2188" y2="68.2188"/><text fill="#000000" font-family="sans-serif" font-size="14" font-weight="bold" lengthAdjust="spacing" textLength="38" x="10" y="61.1426">Visits</text></g><!--cluster Shared--><g id="cluster_Shared"><path d="M80.5,764.6094 L131.5,764.6094 A3.75,3.75 0 0 1 134,767.1094 L141,788.2188 L283.5,788.2188 A2.5,2.5 0 0 1 286,790.7188 L286,880.1094 A2.5,2.5 0 0 1 283.5,882.6094 L80.5,882.6094 A2.5,2.5 0 0 1 78,880.1094 L78,767.1094 A2.5,2.5 0 0 1 80.5,764.6094 " fill="none" style="stroke:#000000;stroke-width:1.5;"/><line style="stroke:#000000;stroke-width:1.5;" x1="78" x2="141" y1="788.2188" y2="788.2188"/><text fill="#000000" font-family="sans-serif" font-size="14" font-weight="bold" lengthAdjust="spacing" textLength="50" x="82" y="781.1426">Shared</text></g><!--cluster Users--><g id="cluster_Users"><path d="M1063.5,196.1094 L1105.5,196.1094 A3.75,3.75 0 0 1 1108,198.6094 L1115,219.7188 L1162.5,219.7188 A2.5,2.5 0 0 1 1165,222.2188 L1165,293.6094 A2.5,2.5 0 0 1 1162.5,296.1094 L1063.5,296.1094 A2.5,2.5 0 0 1 1061,293.6094 L1061,198.6094 A2.5,2.5 0 0 1 1063.5,196.1094 " fill="none" style="stroke:#000000;stroke-width:1.5;"/><line style="stroke:#000000;stroke-width:1.5;" x1="1061" x2="1115" y1="219.7188" y2="219.7188"/><text fill="#000000" font-family="sans-serif" font-size="14" font-weight="bold" lengthAdjust="spacing" textLength="41" x="1065" y="212.6426">Users</text></g><!--cluster Organizations--><g id="cluster_Organizations"><path d="M1191.5,196.1094 L1289.5,196.1094 A3.75,3.75 0 0 1 1292,198.6094 L1299,219.7188 L1342.5,219.7188 A2.5,2.5 0 0 1 1345,222.2188 L1345,293.6094 A2.5,2.5 0 0 1 1342.5,296.1094 L1191.5,296.1094 A2.5,2.5 0 0 1 1189,293.6094 L1189,198.6094 A2.5,2.5 0 0 1 1191.5,196.1094 " fill="none" style="stroke:#000000;stroke-width:1.5;"/><line style="stroke:#000000;stroke-width:1.5;" x1="1189" x2="1299" y1="219.7188" y2="219.7188"/><text fill="#000000" font-family="sans-serif" font-size="14" font-weight="bold" lengthAdjust="spacing" textLength="97" x="1193" y="212.6426">Organizations</text></g><!--cluster Vessels--><g id="cluster_Vessels"><path d="M1063.5,544.1094 L1119.5,544.1094 A3.75,3.75 0 0 1 1122,546.6094 L1129,567.7188 L1164.5,567.7188 A2.5,2.5 0 0 1 1167,570.2188 L1167,641.6094 A2.5,2.5 0 0 1 1164.5,644.1094 L1063.5,644.1094 A2.5,2.5 0 0 1 1061,641.6094 L1061,546.6094 A2.5,2.5 0 0 1 1063.5,544.1094 " fill="none" style="stroke:#000000;stroke-width:1.5;"/><line style="stroke:#000000;stroke-width:1.5;" x1="1061" x2="1129" y1="567.7188" y2="567.7188"/><text fill="#000000" font-family="sans-serif" font-size="14" font-weight="bold" lengthAdjust="spacing" textLength="55" x="1065" y="560.6426">Vessels</text></g><!--class VesselVisitNotification--><g id="elem_VesselVisitNotification"><rect codeLine="4" fill="#F1F1F1" height="351.3594" id="VesselVisitNotification" rx="2.5" ry="2.5" style="stroke:#181818;stroke-width:0.5;" width="351" x="669.5" y="80.6094"/><ellipse cx="772.25" cy="96.6094" fill="#ADD1B2" rx="11" ry="11" style="stroke:#181818;stroke-width:1.0;"/><path d="M775.0156,92.4844 Q775.1719,92.2656 775.3594,92.1563 Q775.5469,92.0469 775.7656,92.0469 Q776.1406,92.0469 776.375,92.3125 Q776.6094,92.5625 776.6094,93.1719 L776.6094,94.625 Q776.6094,95.2344 776.375,95.5 Q776.1406,95.7656 775.7656,95.7656 Q775.4219,95.7656 775.2188,95.5625 Q775.0156,95.375 774.9063,94.8594 Q774.8594,94.5 774.6719,94.3125 Q774.3438,93.9375 773.7344,93.7188 Q773.125,93.5 772.5,93.5 Q771.7344,93.5 771.0938,93.8281 Q770.4688,94.1563 769.9688,94.9063 Q769.4844,95.6563 769.4844,96.6875 L769.4844,97.7813 Q769.4844,99.0156 770.375,99.8438 Q771.2656,100.6563 772.8594,100.6563 Q773.7969,100.6563 774.4531,100.4063 Q774.8438,100.25 775.2656,99.8125 Q775.5313,99.5469 775.6719,99.4688 Q775.8281,99.3906 776.0313,99.3906 Q776.3594,99.3906 776.6094,99.6563 Q776.875,99.9063 776.875,100.25 Q776.875,100.5938 776.5313,101 Q776.0313,101.5781 775.2344,101.9063 Q774.1563,102.3594 772.8594,102.3594 Q771.3438,102.3594 770.1406,101.7344 Q769.1563,101.2344 768.4688,100.1719 Q767.7813,99.0938 767.7813,97.8125 L767.7813,96.6563 Q767.7813,95.3281 768.3906,94.1875 Q769.0156,93.0313 770.1094,92.4219 Q771.2031,91.7969 772.4375,91.7969 Q773.1719,91.7969 773.8125,91.9688 Q774.4688,92.125 775.0156,92.4844 Z " fill="#000000"/><text fill="#000000" font-family="sans-serif" font-size="14" lengthAdjust="spacing" textLength="137" x="792.75" y="102.3379">VesselVisitNotification</text><line style="stroke:#181818;stroke-width:0.5;" x1="670.5" x2="1019.5" y1="112.6094" y2="112.6094"/><ellipse cx="680.5" cy="126.9141" fill="none" rx="3" ry="3" style="stroke:#038048;stroke-width:1.0;"/><text fill="#000000" font-family="sans-serif" font-size="14" lengthAdjust="spacing" textLength="96" x="689.5" y="131.1426">VvnGuid : Guid</text><ellipse cx="680.5" cy="144.5234" fill="none" rx="3" ry="3" style="stroke:#038048;stroke-width:1.0;"/><text fill="#000000" font-family="sans-serif" font-size="14" lengthAdjust="spacing" textLength="105" x="689.5" y="148.752">State : VVNState</text><ellipse cx="680.5" cy="162.1328" fill="none" rx="3" ry="3" style="stroke:#038048;stroke-width:1.0;"/><text fill="#000000" font-family="sans-serif" font-size="14" lengthAdjust="spacing" textLength="144" x="689.5" y="166.3613">Purpose : VisitPurpose</text><ellipse cx="680.5" cy="179.7422" fill="none" rx="3" ry="3" style="stroke:#038048;stroke-width:1.0;"/><text fill="#000000" font-family="sans-serif" font-size="14" lengthAdjust="spacing" textLength="111" x="689.5" y="183.9707">VesselImo : string</text><ellipse cx="680.5" cy="197.3516" fill="none" rx="3" ry="3" style="stroke:#038048;stroke-width:1.0;"/><text fill="#000000" font-family="sans-serif" font-size="14" lengthAdjust="spacing" textLength="114" x="689.5" y="201.5801">EtaUtc : DateTime</text><ellipse cx="680.5" cy="214.9609" fill="none" rx="3" ry="3" style="stroke:#038048;stroke-width:1.0;"/><text fill="#000000" font-family="sans-serif" font-size="14" lengthAdjust="spacing" textLength="114" x="689.5" y="219.1895">EtdUtc : DateTime</text><ellipse cx="680.5" cy="232.5703" fill="none" rx="3" ry="3" style="stroke:#038048;stroke-width:1.0;"/><text fill="#000000" font-family="sans-serif" font-size="14" lengthAdjust="spacing" textLength="132" x="689.5" y="236.7988">CaptainName : string</text><ellipse cx="680.5" cy="250.1797" fill="none" rx="3" ry="3" style="stroke:#038048;stroke-width:1.0;"/><text fill="#000000" font-family="sans-serif" font-size="14" lengthAdjust="spacing" textLength="97" x="689.5" y="254.4082">CrewCount : int</text><ellipse cx="680.5" cy="289.3984" fill="none" rx="3" ry="3" style="stroke:#038048;stroke-width:1.0;"/><text fill="#000000" font-family="sans-serif" font-size="14" lengthAdjust="spacing" textLength="259" x="689.5" y="293.627">LoadingManifest : LoadingCargoManifest</text><ellipse cx="680.5" cy="307.0078" fill="none" rx="3" ry="3" style="stroke:#038048;stroke-width:1.0;"/><text fill="#000000" font-family="sans-serif" font-size="14" lengthAdjust="spacing" textLength="283" x="689.5" y="311.2363">UnloadingManifest : UnloadingCargoManifest</text><line style="stroke:#181818;stroke-width:1.0;stroke-dasharray:1.0,2.0;" x1="670.5" x2="815" y1="270.2891" y2="270.2891"/><text fill="#000000" font-family="sans-serif" font-size="14" lengthAdjust="spacing" textLength="60" x="815" y="275.5176">Manifests</text><line style="stroke:#181818;stroke-width:1.0;stroke-dasharray:1.0,2.0;" x1="875" x2="1019.5" y1="270.2891" y2="270.2891"/><ellipse cx="680.5" cy="346.2266" fill="none" rx="3" ry="3" style="stroke:#038048;stroke-width:1.0;"/><text fill="#000000" font-family="sans-serif" font-size="14" lengthAdjust="spacing" textLength="231" x="689.5" y="350.4551">CrewMembers : List\&lt;CrewMember\&gt;</text><line style="stroke:#181818;stroke-width:1.0;stroke-dasharray:1.0,2.0;" x1="670.5" x2="829" y1="327.1172" y2="327.1172"/><text fill="#000000" font-family="sans-serif" font-size="14" lengthAdjust="spacing" textLength="32" x="829" y="332.3457">Crew</text><line style="stroke:#181818;stroke-width:1.0;stroke-dasharray:1.0,2.0;" x1="861" x2="1019.5" y1="327.1172" y2="327.1172"/><ellipse cx="680.5" cy="385.4453" fill="#84BE84" rx="3" ry="3" style="stroke:#038048;stroke-width:1.0;"/><text fill="#000000" font-family="sans-serif" font-size="14" lengthAdjust="spacing" textLength="178" x="689.5" y="389.6738">Submit(submittedBy: UserId)</text><ellipse cx="680.5" cy="403.0547" fill="#84BE84" rx="3" ry="3" style="stroke:#038048;stroke-width:1.0;"/><text fill="#000000" font-family="sans-serif" font-size="14" lengthAdjust="spacing" textLength="301" x="689.5" y="407.2832">SetLoadingManifest(m : LoadingCargoManifest)</text><ellipse cx="680.5" cy="420.6641" fill="#84BE84" rx="3" ry="3" style="stroke:#038048;stroke-width:1.0;"/><text fill="#000000" font-family="sans-serif" font-size="14" lengthAdjust="spacing" textLength="325" x="689.5" y="424.8926">SetUnloadingManifest(m : UnloadingCargoManifest)</text><line style="stroke:#181818;stroke-width:1.0;stroke-dasharray:1.0,2.0;" x1="670.5" x2="813.5" y1="366.3359" y2="366.3359"/><text fill="#000000" font-family="sans-serif" font-size="14" lengthAdjust="spacing" textLength="63" x="813.5" y="371.5645">Behaviors</text><line style="stroke:#181818;stroke-width:1.0;stroke-dasharray:1.0,2.0;" x1="876.5" x2="1019.5" y1="366.3359" y2="366.3359"/></g><!--class VVNState--><g id="elem_VVNState"><rect codeLine="24" fill="#F1F1F1" height="118.4375" id="VVNState" rx="2.5" ry="2.5" style="stroke:#181818;stroke-width:0.5;" width="110" x="524" y="197.1094"/><ellipse cx="547.1" cy="213.1094" fill="#EB937F" rx="11" ry="11" style="stroke:#181818;stroke-width:1.0;"/><path d="M545.9594,213.9063 L545.9594,216.4063 L550.2875,216.4063 L550.2875,215.4844 Q550.2875,214.875 550.5219,214.6094 Q550.7719,214.3438 551.1469,214.3438 Q551.5219,214.3438 551.7563,214.6094 Q551.9906,214.875 551.9906,215.4844 L551.9906,218.1094 L543.9906,218.1094 Q543.3656,218.1094 543.1,217.875 Q542.85,217.6406 542.85,217.25 Q542.85,216.875 543.1156,216.6406 Q543.3813,216.4063 543.9906,216.4063 L544.2563,216.4063 L544.2563,209.75 L543.9906,209.75 Q543.3656,209.75 543.1,209.5156 Q542.85,209.2813 542.85,208.8906 Q542.85,208.5156 543.1,208.2813 Q543.3656,208.0469 543.9906,208.0469 L551.6156,208.0469 L551.6156,210.6406 Q551.6156,211.25 551.3813,211.5156 Q551.1625,211.7656 550.7719,211.7656 Q550.3969,211.7656 550.1625,211.5156 Q549.9281,211.25 549.9281,210.6406 L549.9281,209.75 L545.9594,209.75 L545.9594,212.2031 L547.4438,212.2031 Q547.4438,211.5469 547.5688,211.3594 Q547.8344,210.9531 548.3031,210.9531 Q548.6781,210.9531 548.9125,211.2188 Q549.1469,211.4688 549.1469,212.0781 L549.1469,214.0469 Q549.1469,214.5938 549.0219,214.7813 Q548.7563,215.1719 548.3031,215.1719 Q547.8344,215.1719 547.5688,214.7656 Q547.4438,214.5781 547.4438,213.9063 L545.9594,213.9063 Z " fill="#000000"/><text fill="#000000" font-family="sans-serif" font-size="14" lengthAdjust="spacing" textLength="60" x="562.9" y="218.8379">VVNState</text><line style="stroke:#181818;stroke-width:0.5;" x1="525" x2="633" y1="229.1094" y2="229.1094"/><text fill="#000000" font-family="sans-serif" font-size="14" lengthAdjust="spacing" textLength="98" x="530" y="247.6426">IN_PROGRESS</text><text fill="#000000" font-family="sans-serif" font-size="14" lengthAdjust="spacing" textLength="78" x="530" y="265.252">SUBMITTED</text><text fill="#000000" font-family="sans-serif" font-size="14" lengthAdjust="spacing" textLength="76" x="530" y="282.8613">APPROVED</text><text fill="#000000" font-family="sans-serif" font-size="14" lengthAdjust="spacing" textLength="72" x="530" y="300.4707">REJECTED</text><line style="stroke:#181818;stroke-width:0.5;" x1="525" x2="633" y1="307.5469" y2="307.5469"/></g><!--class VisitPurpose--><g id="elem_VisitPurpose"><rect codeLine="31" fill="#F1F1F1" height="118.4375" id="VisitPurpose" rx="2.5" ry="2.5" style="stroke:#181818;stroke-width:0.5;" width="111" x="377.5" y="197.1094"/><ellipse cx="392.5" cy="213.1094" fill="#EB937F" rx="11" ry="11" style="stroke:#181818;stroke-width:1.0;"/><path d="M391.3594,213.9063 L391.3594,216.4063 L395.6875,216.4063 L395.6875,215.4844 Q395.6875,214.875 395.9219,214.6094 Q396.1719,214.3438 396.5469,214.3438 Q396.9219,214.3438 397.1563,214.6094 Q397.3906,214.875 397.3906,215.4844 L397.3906,218.1094 L389.3906,218.1094 Q388.7656,218.1094 388.5,217.875 Q388.25,217.6406 388.25,217.25 Q388.25,216.875 388.5156,216.6406 Q388.7813,216.4063 389.3906,216.4063 L389.6563,216.4063 L389.6563,209.75 L389.3906,209.75 Q388.7656,209.75 388.5,209.5156 Q388.25,209.2813 388.25,208.8906 Q388.25,208.5156 388.5,208.2813 Q388.7656,208.0469 389.3906,208.0469 L397.0156,208.0469 L397.0156,210.6406 Q397.0156,211.25 396.7813,211.5156 Q396.5625,211.7656 396.1719,211.7656 Q395.7969,211.7656 395.5625,211.5156 Q395.3281,211.25 395.3281,210.6406 L395.3281,209.75 L391.3594,209.75 L391.3594,212.2031 L392.8438,212.2031 Q392.8438,211.5469 392.9688,211.3594 Q393.2344,210.9531 393.7031,210.9531 Q394.0781,210.9531 394.3125,211.2188 Q394.5469,211.4688 394.5469,212.0781 L394.5469,214.0469 Q394.5469,214.5938 394.4219,214.7813 Q394.1563,215.1719 393.7031,215.1719 Q393.2344,215.1719 392.9688,214.7656 Q392.8438,214.5781 392.8438,213.9063 L391.3594,213.9063 Z " fill="#000000"/><text fill="#000000" font-family="sans-serif" font-size="14" lengthAdjust="spacing" textLength="79" x="406.5" y="218.8379">VisitPurpose</text><line style="stroke:#181818;stroke-width:0.5;" x1="378.5" x2="487.5" y1="229.1094" y2="229.1094"/><text fill="#000000" font-family="sans-serif" font-size="14" lengthAdjust="spacing" textLength="38" x="383.5" y="247.6426">LOAD</text><text fill="#000000" font-family="sans-serif" font-size="14" lengthAdjust="spacing" textLength="56" x="383.5" y="265.252">UNLOAD</text><text fill="#000000" font-family="sans-serif" font-size="14" lengthAdjust="spacing" textLength="38" x="383.5" y="282.8613">BOTH</text><text fill="#000000" font-family="sans-serif" font-size="14" lengthAdjust="spacing" textLength="96" x="383.5" y="300.4707">MAINTENANCE</text><line style="stroke:#181818;stroke-width:0.5;" x1="378.5" x2="487.5" y1="307.5469" y2="307.5469"/></g><!--class CargoManifest--><g id="elem_CargoManifest"><rect codeLine="38" fill="#F1F1F1" height="136.0469" id="CargoManifest" rx="2.5" ry="2.5" style="stroke:#181818;stroke-width:0.5;" width="320" x="22" y="188.1094"/><ellipse cx="131.25" cy="204.1094" fill="#A9DCDF" rx="11" ry="11" style="stroke:#181818;stroke-width:1.0;"/><path d="M133.4375,205.875 L129.2969,205.875 L128.875,206.9063 L129.2969,206.9063 Q129.9063,206.9063 130.1719,207.1406 Q130.4375,207.375 130.4375,207.7656 Q130.4375,208.1406 130.1719,208.375 Q129.9063,208.6094 129.2969,208.6094 L127,208.6094 Q126.3906,208.6094 126.1406,208.375 Q125.875,208.1406 125.875,207.75 Q125.875,207.375 126.1563,207.1406 Q126.4219,206.8906 127.0469,206.9063 L129.7188,200.25 L128.6094,200.25 Q128,200.25 127.7344,200.0156 Q127.4688,199.7813 127.4688,199.3906 Q127.4688,199.0156 127.7344,198.7813 Q128,198.5469 128.6094,198.5469 L132.2813,198.5469 L135.6719,206.9063 Q136.2656,206.9063 136.4531,207.0469 Q136.8438,207.3125 136.8438,207.7656 Q136.8438,208.1406 136.5781,208.375 Q136.3281,208.6094 135.7188,208.6094 L133.4219,208.6094 Q132.8125,208.6094 132.5469,208.375 Q132.2813,208.1406 132.2813,207.75 Q132.2813,207.375 132.5469,207.1406 Q132.8125,206.9063 133.4219,206.9063 L133.8438,206.9063 L133.4375,205.875 Z M132.7188,204.1719 L131.3594,200.7969 L129.9844,204.1719 L132.7188,204.1719 Z " fill="#000000"/><text fill="#000000" font-family="sans-serif" font-size="14" font-style="italic" lengthAdjust="spacing" textLength="93" x="151.75" y="209.8379">CargoManifest</text><line style="stroke:#181818;stroke-width:0.5;" x1="23" x2="341" y1="220.1094" y2="220.1094"/><ellipse cx="33" cy="234.4141" fill="none" rx="3" ry="3" style="stroke:#038048;stroke-width:1.0;"/><text fill="#000000" font-family="sans-serif" font-size="14" lengthAdjust="spacing" textLength="53" x="42" y="238.6426">Id : Guid</text><ellipse cx="33" cy="252.0234" fill="none" rx="3" ry="3" style="stroke:#038048;stroke-width:1.0;"/><text fill="#000000" font-family="sans-serif" font-size="14" lengthAdjust="spacing" textLength="96" x="42" y="256.252">VvnGuid : Guid</text><ellipse cx="33" cy="269.6328" fill="none" rx="3" ry="3" style="stroke:#038048;stroke-width:1.0;"/><text fill="#000000" font-family="sans-serif" font-size="14" lengthAdjust="spacing" textLength="294" x="42" y="273.8613">Entries : IReadOnlyCollection\&lt;ManifestEntry\&gt;</text><line style="stroke:#181818;stroke-width:0.5;" x1="23" x2="341" y1="280.9375" y2="280.9375"/><ellipse cx="33" cy="295.2422" fill="#84BE84" rx="3" ry="3" style="stroke:#038048;stroke-width:1.0;"/><text fill="#000000" font-family="sans-serif" font-size="14" lengthAdjust="spacing" textLength="170" x="42" y="299.4707">AddEntry(e: ManifestEntry)</text><ellipse cx="33" cy="312.8516" fill="#84BE84" rx="3" ry="3" style="stroke:#038048;stroke-width:1.0;"/><text fill="#000000" font-family="sans-serif" font-size="14" lengthAdjust="spacing" textLength="144" x="42" y="317.0801">RemoveEntry(id: Guid)</text></g><!--class LoadingCargoManifest--><g id="elem_LoadingCargoManifest"><rect codeLine="45" fill="#F1F1F1" height="48" id="LoadingCargoManifest" rx="2.5" ry="2.5" style="stroke:#181818;stroke-width:0.5;" width="175" x="426.5" y="580.1094"/><ellipse cx="441.5" cy="596.1094" fill="#ADD1B2" rx="11" ry="11" style="stroke:#181818;stroke-width:1.0;"/><path d="M444.2656,591.9844 Q444.4219,591.7656 444.6094,591.6563 Q444.7969,591.5469 445.0156,591.5469 Q445.3906,591.5469 445.625,591.8125 Q445.8594,592.0625 445.8594,592.6719 L445.8594,594.125 Q445.8594,594.7344 445.625,595 Q445.3906,595.2656 445.0156,595.2656 Q444.6719,595.2656 444.4688,595.0625 Q444.2656,594.875 444.1563,594.3594 Q444.1094,594 443.9219,593.8125 Q443.5938,593.4375 442.9844,593.2188 Q442.375,593 441.75,593 Q440.9844,593 440.3438,593.3281 Q439.7188,593.6563 439.2188,594.4063 Q438.7344,595.1563 438.7344,596.1875 L438.7344,597.2813 Q438.7344,598.5156 439.625,599.3438 Q440.5156,600.1563 442.1094,600.1563 Q443.0469,600.1563 443.7031,599.9063 Q444.0938,599.75 444.5156,599.3125 Q444.7813,599.0469 444.9219,598.9688 Q445.0781,598.8906 445.2813,598.8906 Q445.6094,598.8906 445.8594,599.1563 Q446.125,599.4063 446.125,599.75 Q446.125,600.0938 445.7813,600.5 Q445.2813,601.0781 444.4844,601.4063 Q443.4063,601.8594 442.1094,601.8594 Q440.5938,601.8594 439.3906,601.2344 Q438.4063,600.7344 437.7188,599.6719 Q437.0313,598.5938 437.0313,597.3125 L437.0313,596.1563 Q437.0313,594.8281 437.6406,593.6875 Q438.2656,592.5313 439.3594,591.9219 Q440.4531,591.2969 441.6875,591.2969 Q442.4219,591.2969 443.0625,591.4688 Q443.7188,591.625 444.2656,591.9844 Z " fill="#000000"/><text fill="#000000" font-family="sans-serif" font-size="14" lengthAdjust="spacing" textLength="143" x="455.5" y="601.8379">LoadingCargoManifest</text><line style="stroke:#181818;stroke-width:0.5;" x1="427.5" x2="600.5" y1="612.1094" y2="612.1094"/><line style="stroke:#181818;stroke-width:0.5;" x1="427.5" x2="600.5" y1="620.1094" y2="620.1094"/></g><!--class UnloadingCargoManifest--><g id="elem_UnloadingCargoManifest"><rect codeLine="46" fill="#F1F1F1" height="48" id="UnloadingCargoManifest" rx="2.5" ry="2.5" style="stroke:#181818;stroke-width:0.5;" width="187" x="636.5" y="580.1094"/><ellipse cx="651.5" cy="596.1094" fill="#ADD1B2" rx="11" ry="11" style="stroke:#181818;stroke-width:1.0;"/><path d="M654.2656,591.9844 Q654.4219,591.7656 654.6094,591.6563 Q654.7969,591.5469 655.0156,591.5469 Q655.3906,591.5469 655.625,591.8125 Q655.8594,592.0625 655.8594,592.6719 L655.8594,594.125 Q655.8594,594.7344 655.625,595 Q655.3906,595.2656 655.0156,595.2656 Q654.6719,595.2656 654.4688,595.0625 Q654.2656,594.875 654.1563,594.3594 Q654.1094,594 653.9219,593.8125 Q653.5938,593.4375 652.9844,593.2188 Q652.375,593 651.75,593 Q650.9844,593 650.3438,593.3281 Q649.7188,593.6563 649.2188,594.4063 Q648.7344,595.1563 648.7344,596.1875 L648.7344,597.2813 Q648.7344,598.5156 649.625,599.3438 Q650.5156,600.1563 652.1094,600.1563 Q653.0469,600.1563 653.7031,599.9063 Q654.0938,599.75 654.5156,599.3125 Q654.7813,599.0469 654.9219,598.9688 Q655.0781,598.8906 655.2813,598.8906 Q655.6094,598.8906 655.8594,599.1563 Q656.125,599.4063 656.125,599.75 Q656.125,600.0938 655.7813,600.5 Q655.2813,601.0781 654.4844,601.4063 Q653.4063,601.8594 652.1094,601.8594 Q650.5938,601.8594 649.3906,601.2344 Q648.4063,600.7344 647.7188,599.6719 Q647.0313,598.5938 647.0313,597.3125 L647.0313,596.1563 Q647.0313,594.8281 647.6406,593.6875 Q648.2656,592.5313 649.3594,591.9219 Q650.4531,591.2969 651.6875,591.2969 Q652.4219,591.2969 653.0625,591.4688 Q653.7188,591.625 654.2656,591.9844 Z " fill="#000000"/><text fill="#000000" font-family="sans-serif" font-size="14" lengthAdjust="spacing" textLength="155" x="665.5" y="601.8379">UnloadingCargoManifest</text><line style="stroke:#181818;stroke-width:0.5;" x1="637.5" x2="822.5" y1="612.1094" y2="612.1094"/><line style="stroke:#181818;stroke-width:0.5;" x1="637.5" x2="822.5" y1="620.1094" y2="620.1094"/></g><!--class ManifestEntry--><g id="elem_ManifestEntry"><rect codeLine="48" fill="#F1F1F1" height="188.875" id="ManifestEntry" rx="2.5" ry="2.5" style="stroke:#181818;stroke-width:0.5;" width="190" x="87" y="509.6094"/><ellipse cx="134.75" cy="525.6094" fill="#ADD1B2" rx="11" ry="11" style="stroke:#181818;stroke-width:1.0;"/><path d="M137.5156,521.4844 Q137.6719,521.2656 137.8594,521.1563 Q138.0469,521.0469 138.2656,521.0469 Q138.6406,521.0469 138.875,521.3125 Q139.1094,521.5625 139.1094,522.1719 L139.1094,523.625 Q139.1094,524.2344 138.875,524.5 Q138.6406,524.7656 138.2656,524.7656 Q137.9219,524.7656 137.7188,524.5625 Q137.5156,524.375 137.4063,523.8594 Q137.3594,523.5 137.1719,523.3125 Q136.8438,522.9375 136.2344,522.7188 Q135.625,522.5 135,522.5 Q134.2344,522.5 133.5938,522.8281 Q132.9688,523.1563 132.4688,523.9063 Q131.9844,524.6563 131.9844,525.6875 L131.9844,526.7813 Q131.9844,528.0156 132.875,528.8438 Q133.7656,529.6563 135.3594,529.6563 Q136.2969,529.6563 136.9531,529.4063 Q137.3438,529.25 137.7656,528.8125 Q138.0313,528.5469 138.1719,528.4688 Q138.3281,528.3906 138.5313,528.3906 Q138.8594,528.3906 139.1094,528.6563 Q139.375,528.9063 139.375,529.25 Q139.375,529.5938 139.0313,530 Q138.5313,530.5781 137.7344,530.9063 Q136.6563,531.3594 135.3594,531.3594 Q133.8438,531.3594 132.6406,530.7344 Q131.6563,530.2344 130.9688,529.1719 Q130.2813,528.0938 130.2813,526.8125 L130.2813,525.6563 Q130.2813,524.3281 130.8906,523.1875 Q131.5156,522.0313 132.6094,521.4219 Q133.7031,520.7969 134.9375,520.7969 Q135.6719,520.7969 136.3125,520.9688 Q136.9688,521.125 137.5156,521.4844 Z " fill="#000000"/><text fill="#000000" font-family="sans-serif" font-size="14" lengthAdjust="spacing" textLength="86" x="155.25" y="531.3379">ManifestEntry</text><line style="stroke:#181818;stroke-width:0.5;" x1="88" x2="276" y1="541.6094" y2="541.6094"/><ellipse cx="98" cy="555.9141" fill="none" rx="3" ry="3" style="stroke:#038048;stroke-width:1.0;"/><text fill="#000000" font-family="sans-serif" font-size="14" lengthAdjust="spacing" textLength="53" x="107" y="560.1426">Id : Guid</text><ellipse cx="98" cy="573.5234" fill="none" rx="3" ry="3" style="stroke:#038048;stroke-width:1.0;"/><text fill="#000000" font-family="sans-serif" font-size="14" lengthAdjust="spacing" textLength="164" x="107" y="577.752">ContainerUniqueId : string</text><ellipse cx="98" cy="591.1328" fill="none" rx="3" ry="3" style="stroke:#038048;stroke-width:1.0;"/><text fill="#000000" font-family="sans-serif" font-size="14" lengthAdjust="spacing" textLength="148" x="107" y="595.3613">HazardousGoods : bool</text><ellipse cx="98" cy="608.7422" fill="none" rx="3" ry="3" style="stroke:#038048;stroke-width:1.0;"/><text fill="#000000" font-family="sans-serif" font-size="14" lengthAdjust="spacing" textLength="127" x="107" y="612.9707">ContainerBayNr : int</text><ellipse cx="98" cy="626.3516" fill="none" rx="3" ry="3" style="stroke:#038048;stroke-width:1.0;"/><text fill="#000000" font-family="sans-serif" font-size="14" lengthAdjust="spacing" textLength="130" x="107" y="630.5801">ContainerRowNr : int</text><ellipse cx="98" cy="643.9609" fill="none" rx="3" ry="3" style="stroke:#038048;stroke-width:1.0;"/><text fill="#000000" font-family="sans-serif" font-size="14" lengthAdjust="spacing" textLength="128" x="107" y="648.1895">ContainerTierNr : int</text><ellipse cx="98" cy="661.5703" fill="none" rx="3" ry="3" style="stroke:#038048;stroke-width:1.0;"/><text fill="#000000" font-family="sans-serif" font-size="14" lengthAdjust="spacing" textLength="160" x="107" y="665.7988">GoodsDescription : string</text><line style="stroke:#181818;stroke-width:0.5;" x1="88" x2="276" y1="672.875" y2="672.875"/><text fill="#000000" font-family="sans-serif" font-size="14" lengthAdjust="spacing" text-decoration="underline" textLength="65" x="93" y="691.4082">Create(...)</text></g><!--class CrewMember--><g id="elem_CrewMember"><rect codeLine="59" fill="#F1F1F1" height="118.4375" id="CrewMember" rx="2.5" ry="2.5" style="stroke:#181818;stroke-width:0.5;" width="162" x="859" y="545.1094"/><ellipse cx="895.15" cy="561.1094" fill="#ADD1B2" rx="11" ry="11" style="stroke:#181818;stroke-width:1.0;"/><path d="M897.9156,556.9844 Q898.0719,556.7656 898.2594,556.6563 Q898.4469,556.5469 898.6656,556.5469 Q899.0406,556.5469 899.275,556.8125 Q899.5094,557.0625 899.5094,557.6719 L899.5094,559.125 Q899.5094,559.7344 899.275,560 Q899.0406,560.2656 898.6656,560.2656 Q898.3219,560.2656 898.1188,560.0625 Q897.9156,559.875 897.8063,559.3594 Q897.7594,559 897.5719,558.8125 Q897.2438,558.4375 896.6344,558.2188 Q896.025,558 895.4,558 Q894.6344,558 893.9938,558.3281 Q893.3688,558.6563 892.8688,559.4063 Q892.3844,560.1563 892.3844,561.1875 L892.3844,562.2813 Q892.3844,563.5156 893.275,564.3438 Q894.1656,565.1563 895.7594,565.1563 Q896.6969,565.1563 897.3531,564.9063 Q897.7438,564.75 898.1656,564.3125 Q898.4313,564.0469 898.5719,563.9688 Q898.7281,563.8906 898.9313,563.8906 Q899.2594,563.8906 899.5094,564.1563 Q899.775,564.4063 899.775,564.75 Q899.775,565.0938 899.4313,565.5 Q898.9313,566.0781 898.1344,566.4063 Q897.0563,566.8594 895.7594,566.8594 Q894.2438,566.8594 893.0406,566.2344 Q892.0563,565.7344 891.3688,564.6719 Q890.6813,563.5938 890.6813,562.3125 L890.6813,561.1563 Q890.6813,559.8281 891.2906,558.6875 Q891.9156,557.5313 893.0094,556.9219 Q894.1031,556.2969 895.3375,556.2969 Q896.0719,556.2969 896.7125,556.4688 Q897.3688,556.625 897.9156,556.9844 Z " fill="#000000"/><text fill="#000000" font-family="sans-serif" font-size="14" lengthAdjust="spacing" textLength="83" x="913.85" y="566.8379">CrewMember</text><line style="stroke:#181818;stroke-width:0.5;" x1="860" x2="1020" y1="577.1094" y2="577.1094"/><ellipse cx="870" cy="591.4141" fill="none" rx="3" ry="3" style="stroke:#038048;stroke-width:1.0;"/><text fill="#000000" font-family="sans-serif" font-size="14" lengthAdjust="spacing" textLength="136" x="879" y="595.6426">CrewMemberId : Guid</text><ellipse cx="870" cy="609.0234" fill="none" rx="3" ry="3" style="stroke:#038048;stroke-width:1.0;"/><text fill="#000000" font-family="sans-serif" font-size="14" lengthAdjust="spacing" textLength="83" x="879" y="613.252">Name : string</text><ellipse cx="870" cy="626.6328" fill="none" rx="3" ry="3" style="stroke:#038048;stroke-width:1.0;"/><text fill="#000000" font-family="sans-serif" font-size="14" lengthAdjust="spacing" textLength="100" x="879" y="630.8613">CitizenId : string</text><ellipse cx="870" cy="644.2422" fill="none" rx="3" ry="3" style="stroke:#038048;stroke-width:1.0;"/><text fill="#000000" font-family="sans-serif" font-size="14" lengthAdjust="spacing" textLength="112" x="879" y="648.4707">Nationality : string</text><line style="stroke:#181818;stroke-width:0.5;" x1="860" x2="1020" y1="655.5469" y2="655.5469"/></g><!--class Iso6346--><g id="elem_Iso6346"><rect codeLine="68" fill="#F1F1F1" height="65.6094" id="Iso6346" rx="2.5" ry="2.5" style="stroke:#181818;stroke-width:0.5;" width="176" x="94" y="800.6094"/><ellipse cx="152.75" cy="816.6094" fill="#ADD1B2" rx="11" ry="11" style="stroke:#181818;stroke-width:1.0;"/><path d="M155.5156,812.4844 Q155.6719,812.2656 155.8594,812.1563 Q156.0469,812.0469 156.2656,812.0469 Q156.6406,812.0469 156.875,812.3125 Q157.1094,812.5625 157.1094,813.1719 L157.1094,814.625 Q157.1094,815.2344 156.875,815.5 Q156.6406,815.7656 156.2656,815.7656 Q155.9219,815.7656 155.7188,815.5625 Q155.5156,815.375 155.4063,814.8594 Q155.3594,814.5 155.1719,814.3125 Q154.8438,813.9375 154.2344,813.7188 Q153.625,813.5 153,813.5 Q152.2344,813.5 151.5938,813.8281 Q150.9688,814.1563 150.4688,814.9063 Q149.9844,815.6563 149.9844,816.6875 L149.9844,817.7813 Q149.9844,819.0156 150.875,819.8438 Q151.7656,820.6563 153.3594,820.6563 Q154.2969,820.6563 154.9531,820.4063 Q155.3438,820.25 155.7656,819.8125 Q156.0313,819.5469 156.1719,819.4688 Q156.3281,819.3906 156.5313,819.3906 Q156.8594,819.3906 157.1094,819.6563 Q157.375,819.9063 157.375,820.25 Q157.375,820.5938 157.0313,821 Q156.5313,821.5781 155.7344,821.9063 Q154.6563,822.3594 153.3594,822.3594 Q151.8438,822.3594 150.6406,821.7344 Q149.6563,821.2344 148.9688,820.1719 Q148.2813,819.0938 148.2813,817.8125 L148.2813,816.6563 Q148.2813,815.3281 148.8906,814.1875 Q149.5156,813.0313 150.6094,812.4219 Q151.7031,811.7969 152.9375,811.7969 Q153.6719,811.7969 154.3125,811.9688 Q154.9688,812.125 155.5156,812.4844 Z " fill="#000000"/><text fill="#000000" font-family="sans-serif" font-size="14" lengthAdjust="spacing" textLength="50" x="173.25" y="822.3379">Iso6346</text><line style="stroke:#181818;stroke-width:0.5;" x1="95" x2="269" y1="832.6094" y2="832.6094"/><line style="stroke:#181818;stroke-width:0.5;" x1="95" x2="269" y1="840.6094" y2="840.6094"/><text fill="#000000" font-family="sans-serif" font-size="14" lengthAdjust="spacing" text-decoration="underline" textLength="164" x="100" y="859.1426">IsValid(code: string) : bool</text></g><!--class UserId--><g id="elem_UserId"><rect codeLine="74" fill="#F1F1F1" height="48" id="UserId" rx="2.5" ry="2.5" style="stroke:#181818;stroke-width:0.5;" width="72" x="1077" y="232.1094"/><ellipse cx="1092" cy="248.1094" fill="#ADD1B2" rx="11" ry="11" style="stroke:#181818;stroke-width:1.0;"/><path d="M1094.7656,243.9844 Q1094.9219,243.7656 1095.1094,243.6563 Q1095.2969,243.5469 1095.5156,243.5469 Q1095.8906,243.5469 1096.125,243.8125 Q1096.3594,244.0625 1096.3594,244.6719 L1096.3594,246.125 Q1096.3594,246.7344 1096.125,247 Q1095.8906,247.2656 1095.5156,247.2656 Q1095.1719,247.2656 1094.9688,247.0625 Q1094.7656,246.875 1094.6563,246.3594 Q1094.6094,246 1094.4219,245.8125 Q1094.0938,245.4375 1093.4844,245.2188 Q1092.875,245 1092.25,245 Q1091.4844,245 1090.8438,245.3281 Q1090.2188,245.6563 1089.7188,246.4063 Q1089.2344,247.1563 1089.2344,248.1875 L1089.2344,249.2813 Q1089.2344,250.5156 1090.125,251.3438 Q1091.0156,252.1563 1092.6094,252.1563 Q1093.5469,252.1563 1094.2031,251.9063 Q1094.5938,251.75 1095.0156,251.3125 Q1095.2813,251.0469 1095.4219,250.9688 Q1095.5781,250.8906 1095.7813,250.8906 Q1096.1094,250.8906 1096.3594,251.1563 Q1096.625,251.4063 1096.625,251.75 Q1096.625,252.0938 1096.2813,252.5 Q1095.7813,253.0781 1094.9844,253.4063 Q1093.9063,253.8594 1092.6094,253.8594 Q1091.0938,253.8594 1089.8906,253.2344 Q1088.9063,252.7344 1088.2188,251.6719 Q1087.5313,250.5938 1087.5313,249.3125 L1087.5313,248.1563 Q1087.5313,246.8281 1088.1406,245.6875 Q1088.7656,244.5313 1089.8594,243.9219 Q1090.9531,243.2969 1092.1875,243.2969 Q1092.9219,243.2969 1093.5625,243.4688 Q1094.2188,243.625 1094.7656,243.9844 Z " fill="#000000"/><text fill="#000000" font-family="sans-serif" font-size="14" lengthAdjust="spacing" textLength="40" x="1106" y="253.8379">UserId</text><line style="stroke:#181818;stroke-width:0.5;" x1="1078" x2="1148" y1="264.1094" y2="264.1094"/><line style="stroke:#181818;stroke-width:0.5;" x1="1078" x2="1148" y1="272.1094" y2="272.1094"/></g><!--class OrganizationId--><g id="elem_OrganizationId"><rect codeLine="77" fill="#F1F1F1" height="48" id="OrganizationId" rx="2.5" ry="2.5" style="stroke:#181818;stroke-width:0.5;" width="123" x="1205.5" y="232.1094"/><ellipse cx="1220.5" cy="248.1094" fill="#ADD1B2" rx="11" ry="11" style="stroke:#181818;stroke-width:1.0;"/><path d="M1223.2656,243.9844 Q1223.4219,243.7656 1223.6094,243.6563 Q1223.7969,243.5469 1224.0156,243.5469 Q1224.3906,243.5469 1224.625,243.8125 Q1224.8594,244.0625 1224.8594,244.6719 L1224.8594,246.125 Q1224.8594,246.7344 1224.625,247 Q1224.3906,247.2656 1224.0156,247.2656 Q1223.6719,247.2656 1223.4688,247.0625 Q1223.2656,246.875 1223.1563,246.3594 Q1223.1094,246 1222.9219,245.8125 Q1222.5938,245.4375 1221.9844,245.2188 Q1221.375,245 1220.75,245 Q1219.9844,245 1219.3438,245.3281 Q1218.7188,245.6563 1218.2188,246.4063 Q1217.7344,247.1563 1217.7344,248.1875 L1217.7344,249.2813 Q1217.7344,250.5156 1218.625,251.3438 Q1219.5156,252.1563 1221.1094,252.1563 Q1222.0469,252.1563 1222.7031,251.9063 Q1223.0938,251.75 1223.5156,251.3125 Q1223.7813,251.0469 1223.9219,250.9688 Q1224.0781,250.8906 1224.2813,250.8906 Q1224.6094,250.8906 1224.8594,251.1563 Q1225.125,251.4063 1225.125,251.75 Q1225.125,252.0938 1224.7813,252.5 Q1224.2813,253.0781 1223.4844,253.4063 Q1222.4063,253.8594 1221.1094,253.8594 Q1219.5938,253.8594 1218.3906,253.2344 Q1217.4063,252.7344 1216.7188,251.6719 Q1216.0313,250.5938 1216.0313,249.3125 L1216.0313,248.1563 Q1216.0313,246.8281 1216.6406,245.6875 Q1217.2656,244.5313 1218.3594,243.9219 Q1219.4531,243.2969 1220.6875,243.2969 Q1221.4219,243.2969 1222.0625,243.4688 Q1222.7188,243.625 1223.2656,243.9844 Z " fill="#000000"/><text fill="#000000" font-family="sans-serif" font-size="14" lengthAdjust="spacing" textLength="91" x="1234.5" y="253.8379">OrganizationId</text><line style="stroke:#181818;stroke-width:0.5;" x1="1206.5" x2="1327.5" y1="264.1094" y2="264.1094"/><line style="stroke:#181818;stroke-width:0.5;" x1="1206.5" x2="1327.5" y1="272.1094" y2="272.1094"/></g><!--class Vessel--><g id="elem_Vessel"><rect codeLine="80" fill="#F1F1F1" height="48" id="Vessel" rx="2.5" ry="2.5" style="stroke:#181818;stroke-width:0.5;" width="74" x="1077" y="580.1094"/><ellipse cx="1092" cy="596.1094" fill="#ADD1B2" rx="11" ry="11" style="stroke:#181818;stroke-width:1.0;"/><path d="M1094.7656,591.9844 Q1094.9219,591.7656 1095.1094,591.6563 Q1095.2969,591.5469 1095.5156,591.5469 Q1095.8906,591.5469 1096.125,591.8125 Q1096.3594,592.0625 1096.3594,592.6719 L1096.3594,594.125 Q1096.3594,594.7344 1096.125,595 Q1095.8906,595.2656 1095.5156,595.2656 Q1095.1719,595.2656 1094.9688,595.0625 Q1094.7656,594.875 1094.6563,594.3594 Q1094.6094,594 1094.4219,593.8125 Q1094.0938,593.4375 1093.4844,593.2188 Q1092.875,593 1092.25,593 Q1091.4844,593 1090.8438,593.3281 Q1090.2188,593.6563 1089.7188,594.4063 Q1089.2344,595.1563 1089.2344,596.1875 L1089.2344,597.2813 Q1089.2344,598.5156 1090.125,599.3438 Q1091.0156,600.1563 1092.6094,600.1563 Q1093.5469,600.1563 1094.2031,599.9063 Q1094.5938,599.75 1095.0156,599.3125 Q1095.2813,599.0469 1095.4219,598.9688 Q1095.5781,598.8906 1095.7813,598.8906 Q1096.1094,598.8906 1096.3594,599.1563 Q1096.625,599.4063 1096.625,599.75 Q1096.625,600.0938 1096.2813,600.5 Q1095.7813,601.0781 1094.9844,601.4063 Q1093.9063,601.8594 1092.6094,601.8594 Q1091.0938,601.8594 1089.8906,601.2344 Q1088.9063,600.7344 1088.2188,599.6719 Q1087.5313,598.5938 1087.5313,597.3125 L1087.5313,596.1563 Q1087.5313,594.8281 1088.1406,593.6875 Q1088.7656,592.5313 1089.8594,591.9219 Q1090.9531,591.2969 1092.1875,591.2969 Q1092.9219,591.2969 1093.5625,591.4688 Q1094.2188,591.625 1094.7656,591.9844 Z " fill="#000000"/><text fill="#000000" font-family="sans-serif" font-size="14" lengthAdjust="spacing" textLength="42" x="1106" y="601.8379">Vessel</text><line style="stroke:#181818;stroke-width:0.5;" x1="1078" x2="1150" y1="612.1094" y2="612.1094"/><line style="stroke:#181818;stroke-width:0.5;" x1="1078" x2="1150" y1="620.1094" y2="620.1094"/></g><!--link VesselVisitNotification to Vessel--><g id="link_VesselVisitNotification_Vessel"><path codeLine="83" d="M980.68,431.6294 C1026.25,490.2394 1067.9573,543.8925 1092.2373,575.1225 " fill="none" id="VesselVisitNotification-to-Vessel" style="stroke:#181818;stroke-width:1.0;"/><polygon fill="#181818" points="1095.92,579.8594,1093.5539,570.299,1092.8511,575.912,1087.2381,575.2092,1095.92,579.8594" style="stroke:#181818;stroke-width:1.0;"/><text fill="#000000" font-family="sans-serif" font-size="13" lengthAdjust="spacing" textLength="129" x="1012" y="476.1045">vessel reference (IMO)</text></g><!--reverse link VesselVisitNotification to LoadingCargoManifest--><g id="link_VesselVisitNotification_LoadingCargoManifest"><path codeLine="84" d="M669.7539,440.2997 C613.6739,498.9097 566.12,548.6294 536.24,579.8594 " fill="none" id="VesselVisitNotification-backto-LoadingCargoManifest" style="stroke:#181818;stroke-width:1.0;"/><polygon fill="#181818" points="678.05,431.6294,671.0118,433.1992,669.7539,440.2997,676.7921,438.7299,678.05,431.6294" style="stroke:#181818;stroke-width:1.0;"/></g><!--reverse link VesselVisitNotification to UnloadingCargoManifest--><g id="link_VesselVisitNotification_UnloadingCargoManifest"><path codeLine="85" d="M783.2052,443.0169 C763.7252,501.6269 748.11,548.6294 737.73,579.8594 " fill="none" id="VesselVisitNotification-backto-UnloadingCargoManifest" style="stroke:#181818;stroke-width:1.0;"/><polygon fill="#181818" points="786.99,431.6294,781.3018,436.0615,783.2052,443.0169,788.8934,438.5847,786.99,431.6294" style="stroke:#181818;stroke-width:1.0;"/></g><!--reverse link CargoManifest to ManifestEntry--><g id="link_CargoManifest_ManifestEntry"><path codeLine="86" d="M182,336.2294 C182,388.8994 182,450.8394 182,509.3494 " fill="none" id="CargoManifest-backto-ManifestEntry" style="stroke:#181818;stroke-width:1.0;"/><polygon fill="none" points="182,324.2294,178,330.2294,182,336.2294,186,330.2294,182,324.2294" style="stroke:#181818;stroke-width:1.0;"/></g><!--reverse link VesselVisitNotification to CrewMember--><g id="link_VesselVisitNotification_CrewMember"><path codeLine="87" d="M896.0968,443.2012 C907.3468,484.1812 915.39,513.4794 924.05,545.0294 " fill="none" id="VesselVisitNotification-backto-CrewMember" style="stroke:#181818;stroke-width:1.0;"/><polygon fill="none" points="892.92,431.6294,890.6511,438.4742,896.0968,443.2012,898.3657,436.3564,892.92,431.6294" style="stroke:#181818;stroke-width:1.0;"/></g><!--link ManifestEntry to Iso6346--><g id="link_ManifestEntry_Iso6346"><path codeLine="88" d="M182,698.6294 C182,734.8994 182,768.0194 182,794.5594 " fill="none" id="ManifestEntry-to-Iso6346" style="stroke:#181818;stroke-width:1.0;stroke-dasharray:7.0,7.0;"/><polygon fill="#181818" points="182,800.5594,186,791.5594,182,795.5594,178,791.5594,182,800.5594" style="stroke:#181818;stroke-width:1.0;"/><text fill="#000000" font-family="sans-serif" font-size="13" lengthAdjust="spacing" textLength="50" x="183" y="745.1045">validates</text></g><!--SRC=[VLHDRzf04BtxLwnog4WZV4Yhg49H931MuYgO28DFaQh5df1LxLswkoQ5YF_U_V0du5vWzysRcHtFcv54Pe2y30k1fWHlECuH_4s0RoKQebM4RjrRzmVoE609w0kAYdLE98hZq76sEFcDDu2kOYA855Veqq4eCQ5Y408oWuTCaZUIO4aODGo4Rk8TVIn8YaP8_raiaZh3I8SsHuk-57pBXC5riF9QHZ59Wfmfgv2Sq8t5VObNCb7WL8LPaXmgEBq4UtWhCQ4Xpk4aZYhwmsC5bGedL1hGTT4CK_86GWfriSHdXbFbLHaKlKGyp3UiWYrtHRCpTesTyrK-_OmwbRxC85y35peD4VBrli5U7ogd2RpZ7M6yUQJjt42OFmdfPAyI2-11UbqIG9uKCiXxIcaypienFfSBqbv7H_q0BVAwpwKcWl3NosB-kF2ZoDoZrMGMB9V-rDp6ByeObvU5_zFthAKLhYMFCkJpV6mTLc5zdCoNJ-Om6mVXqW_7eUTNSV1QTHydijHmv-sLSeEkQ2y9sQTAGw3R4om0ftEQxJsMPP3e2NYzho9gshvisCquJSrz02FK8PHVUW4vsu6baDHciv-pchWUnLbZZy1gUoTbJwaUetfEWAye-LE0iRQdvGaVC4zP8HuPItNrQyQo4zS9teUyDKsDPS4-UYnB0hnhCWcc819EjcQhT1xoAPIgI78iTzR0TTrQU6LZwtcfIcsGaw8lRGKYoG7eMVsXsN0u8tBVjXoTOsjJHk-OGzhUb85WTz- -tvKlgHyVY5Y5IWS9Iw6ATjryr6vKFSPw_QAcuMQmaM7Mj3dVg3uVp3kxzBRbpCsksQw3nIpHwLlsm-53HHoXdJrmU0CED04q26RpwrxVhyFXPKd_pw57vjr1PehOqNjlICribE5qXyHr7-hUgUfqivJQn3y0]--></g></svg>