<?xml version="1.0" encoding="us-ascii" standalone="no"?><svg xmlns="http://www.w3.org/2000/svg" xmlns:xlink="http://www.w3.org/1999/xlink" contentStyleType="text/css" height="1305px" preserveAspectRatio="none" style="width:1500px;height:1305px;background:#FFFFFF;" version="1.1" viewBox="0 0 1500 1305" width="1500px" zoomAndPan="magnify"><defs/><g><text fill="#000000" font-family="sans-serif" font-size="14" font-weight="bold" lengthAdjust="spacing" textLength="349" x="571.5" y="29.5332">Sequence Diagram - US 2.2.8 Create &amp; Submit VVN</text><rect fill="none" height="246.6484" style="stroke:#000000;stroke-width:1.5;" width="1090" x="10" y="944.9688"/><line style="stroke:#181818;stroke-width:0.5;stroke-dasharray:5.0,5.0;" x1="71" x2="71" y1="124.8281" y2="1208.6172"/><line style="stroke:#181818;stroke-width:0.5;stroke-dasharray:5.0,5.0;" x1="344" x2="344" y1="124.8281" y2="1208.6172"/><line style="stroke:#181818;stroke-width:0.5;stroke-dasharray:5.0,5.0;" x1="634.5" x2="634.5" y1="124.8281" y2="1208.6172"/><line style="stroke:#181818;stroke-width:0.5;stroke-dasharray:5.0,5.0;" x1="876" x2="876" y1="124.8281" y2="1208.6172"/><line style="stroke:#181818;stroke-width:0.5;stroke-dasharray:5.0,5.0;" x1="1012" x2="1012" y1="124.8281" y2="1208.6172"/><line style="stroke:#181818;stroke-width:0.5;stroke-dasharray:5.0,5.0;" x1="1185" x2="1185" y1="124.8281" y2="1208.6172"/><line style="stroke:#181818;stroke-width:0.5;stroke-dasharray:5.0,5.0;" x1="1384" x2="1384" y1="124.8281" y2="1208.6172"/><text fill="#000000" font-family="sans-serif" font-size="14" lengthAdjust="spacing" textLength="96" x="20" y="121.752">Shipping Agent</text><ellipse cx="71" cy="55.7188" fill="#E2E2F0" rx="8" ry="8" style="stroke:#181818;stroke-width:0.5;"/><path d="M71,63.7188 L71,90.7188 M58,71.7188 L84,71.7188 M71,90.7188 L58,105.7188 M71,90.7188 L84,105.7188 " fill="none" style="stroke:#181818;stroke-width:0.5;"/><text fill="#000000" font-family="sans-serif" font-size="14" lengthAdjust="spacing" textLength="96" x="20" y="1222.1504">Shipping Agent</text><ellipse cx="71" cy="1233.7266" fill="#E2E2F0" rx="8" ry="8" style="stroke:#181818;stroke-width:0.5;"/><path d="M71,1241.7266 L71,1268.7266 M58,1249.7266 L84,1249.7266 M71,1268.7266 L58,1283.7266 M71,1268.7266 L84,1283.7266 " fill="none" style="stroke:#181818;stroke-width:0.5;"/><rect fill="#E2E2F0" height="49.2188" rx="2.5" ry="2.5" style="stroke:#181818;stroke-width:0.5;" width="220" x="234" y="74.6094"/><text fill="#000000" font-family="sans-serif" font-size="14" lengthAdjust="spacing" textLength="21" x="333.5" y="96.1426">API</text><text fill="#000000" font-family="sans-serif" font-size="14" lengthAdjust="spacing" textLength="206" x="241" y="113.752">VesselVisitNotificationsController</text><rect fill="#E2E2F0" height="49.2188" rx="2.5" ry="2.5" style="stroke:#181818;stroke-width:0.5;" width="220" x="234" y="1207.6172"/><text fill="#000000" font-family="sans-serif" font-size="14" lengthAdjust="spacing" textLength="21" x="333.5" y="1229.1504">API</text><text fill="#000000" font-family="sans-serif" font-size="14" lengthAdjust="spacing" textLength="206" x="241" y="1246.7598">VesselVisitNotificationsController</text><rect fill="#E2E2F0" height="49.2188" rx="2.5" ry="2.5" style="stroke:#181818;stroke-width:0.5;" width="129" x="570.5" y="74.6094"/><text fill="#000000" font-family="sans-serif" font-size="14" lengthAdjust="spacing" textLength="76" x="597" y="96.1426">App Service</text><text fill="#000000" font-family="sans-serif" font-size="14" lengthAdjust="spacing" textLength="115" x="577.5" y="113.752">VesselVisitService</text><rect fill="#E2E2F0" height="49.2188" rx="2.5" ry="2.5" style="stroke:#181818;stroke-width:0.5;" width="129" x="570.5" y="1207.6172"/><text fill="#000000" font-family="sans-serif" font-size="14" lengthAdjust="spacing" textLength="76" x="597" y="1229.1504">App Service</text><text fill="#000000" font-family="sans-serif" font-size="14" lengthAdjust="spacing" textLength="115" x="577.5" y="1246.7598">VesselVisitService</text><text fill="#000000" font-family="sans-serif" font-size="14" lengthAdjust="spacing" textLength="53" x="846.5" y="104.1426">EF Core</text><text fill="#000000" font-family="sans-serif" font-size="14" lengthAdjust="spacing" textLength="92" x="827" y="121.752">PortDbContext</text><path d="M858,53.6094 C858,43.6094 876,43.6094 876,43.6094 C876,43.6094 894,43.6094 894,53.6094 L894,79.6094 C894,89.6094 876,89.6094 876,89.6094 C876,89.6094 858,89.6094 858,79.6094 L858,53.6094 " fill="#E2E2F0" style="stroke:#181818;stroke-width:1.5;"/><path d="M858,53.6094 C858,63.6094 876,63.6094 876,63.6094 C876,63.6094 894,63.6094 894,53.6094 " fill="none" style="stroke:#181818;stroke-width:1.5;"/><text fill="#000000" font-family="sans-serif" font-size="14" lengthAdjust="spacing" textLength="53" x="846.5" y="1222.1504">EF Core</text><text fill="#000000" font-family="sans-serif" font-size="14" lengthAdjust="spacing" textLength="92" x="827" y="1239.7598">PortDbContext</text><path d="M858,1252.8359 C858,1242.8359 876,1242.8359 876,1242.8359 C876,1242.8359 894,1242.8359 894,1252.8359 L894,1278.8359 C894,1288.8359 876,1288.8359 876,1288.8359 C876,1288.8359 858,1288.8359 858,1278.8359 L858,1252.8359 " fill="#E2E2F0" style="stroke:#181818;stroke-width:1.5;"/><path d="M858,1252.8359 C858,1262.8359 876,1262.8359 876,1262.8359 C876,1262.8359 894,1262.8359 894,1252.8359 " fill="none" style="stroke:#181818;stroke-width:1.5;"/><rect fill="#E2E2F0" height="49.2188" style="stroke:#181818;stroke-width:0.5;" width="151" x="939" y="70.6094"/><rect fill="#E2E2F0" height="49.2188" style="stroke:#181818;stroke-width:0.5;" width="151" x="935" y="74.6094"/><text fill="#000000" font-family="sans-serif" font-size="14" lengthAdjust="spacing" textLength="48" x="986.5" y="96.1426">Domain</text><text fill="#000000" font-family="sans-serif" font-size="14" lengthAdjust="spacing" textLength="137" x="942" y="113.752">VesselVisitNotification</text><rect fill="#E2E2F0" height="49.2188" style="stroke:#181818;stroke-width:0.5;" width="151" x="939" y="1207.6172"/><rect fill="#E2E2F0" height="49.2188" style="stroke:#181818;stroke-width:0.5;" width="151" x="935" y="1211.6172"/><text fill="#000000" font-family="sans-serif" font-size="14" lengthAdjust="spacing" textLength="48" x="986.5" y="1233.1504">Domain</text><text fill="#000000" font-family="sans-serif" font-size="14" lengthAdjust="spacing" textLength="137" x="942" y="1250.7598">VesselVisitNotification</text><rect fill="#E2E2F0" height="49.2188" style="stroke:#181818;stroke-width:0.5;" width="167" x="1104" y="70.6094"/><rect fill="#E2E2F0" height="49.2188" style="stroke:#181818;stroke-width:0.5;" width="167" x="1100" y="74.6094"/><text fill="#000000" font-family="sans-serif" font-size="14" lengthAdjust="spacing" textLength="48" x="1159.5" y="96.1426">Domain</text><text fill="#000000" font-family="sans-serif" font-size="14" lengthAdjust="spacing" textLength="153" x="1107" y="113.752">CargoManifest &amp; Entries</text><rect fill="#E2E2F0" height="49.2188" style="stroke:#181818;stroke-width:0.5;" width="167" x="1104" y="1207.6172"/><rect fill="#E2E2F0" height="49.2188" style="stroke:#181818;stroke-width:0.5;" width="167" x="1100" y="1211.6172"/><text fill="#000000" font-family="sans-serif" font-size="14" lengthAdjust="spacing" textLength="48" x="1159.5" y="1233.1504">Domain</text><text fill="#000000" font-family="sans-serif" font-size="14" lengthAdjust="spacing" textLength="153" x="1107" y="1250.7598">CargoManifest &amp; Entries</text><rect fill="#E2E2F0" height="49.2188" rx="2.5" ry="2.5" style="stroke:#181818;stroke-width:0.5;" width="207" x="1281" y="74.6094"/><text fill="#000000" font-family="sans-serif" font-size="14" lengthAdjust="spacing" textLength="37" x="1366" y="96.1426">Policy</text><text fill="#000000" font-family="sans-serif" font-size="14" lengthAdjust="spacing" textLength="193" x="1288" y="113.752">HazardousRequiresCrewPolicy</text><rect fill="#E2E2F0" height="49.2188" rx="2.5" ry="2.5" style="stroke:#181818;stroke-width:0.5;" width="207" x="1281" y="1207.6172"/><text fill="#000000" font-family="sans-serif" font-size="14" lengthAdjust="spacing" textLength="37" x="1366" y="1229.1504">Policy</text><text fill="#000000" font-family="sans-serif" font-size="14" lengthAdjust="spacing" textLength="193" x="1288" y="1246.7598">HazardousRequiresCrewPolicy</text><rect fill="#EEEEEE" height="3" style="stroke:#EEEEEE;stroke-width:1.0;" width="1493" x="0" y="156.0039"/><line style="stroke:#000000;stroke-width:1.0;" x1="0" x2="1493" y1="156.0039" y2="156.0039"/><line style="stroke:#000000;stroke-width:1.0;" x1="0" x2="1493" y1="159.0039" y2="159.0039"/><rect fill="#EEEEEE" height="24.3516" style="stroke:#000000;stroke-width:2.0;" width="93" x="700" y="144.8281"/><text fill="#000000" font-family="sans-serif" font-size="13" font-weight="bold" lengthAdjust="spacing" textLength="75" x="706" y="162.3232">Create draft</text><polygon fill="#181818" points="332,197.5313,342,201.5313,332,205.5313,336,201.5313" style="stroke:#181818;stroke-width:1.0;"/><line style="stroke:#181818;stroke-width:1.0;" x1="71" x2="338" y1="201.5313" y2="201.5313"/><text fill="#000000" font-family="sans-serif" font-size="13" lengthAdjust="spacing" textLength="185" x="78" y="196.6748">POST /api/vvns (Create request)</text><polygon fill="#181818" points="623,244.2344,633,248.2344,623,252.2344,627,248.2344" style="stroke:#181818;stroke-width:1.0;"/><line style="stroke:#181818;stroke-width:1.0;" x1="344" x2="629" y1="248.2344" y2="248.2344"/><text fill="#000000" font-family="sans-serif" font-size="13" lengthAdjust="spacing" textLength="267" x="351" y="227.0264">CreateVvnAsync(vesselImo, purpose, eta, etd,</text><text fill="#000000" font-family="sans-serif" font-size="13" lengthAdjust="spacing" textLength="185" x="355" y="243.3779">captainName, crewCount, orgId)</text><polygon fill="#181818" points="864,274.5859,874,278.5859,864,282.5859,868,278.5859" style="stroke:#181818;stroke-width:1.0;"/><line style="stroke:#181818;stroke-width:1.0;" x1="635" x2="870" y1="278.5859" y2="278.5859"/><text fill="#000000" font-family="sans-serif" font-size="13" lengthAdjust="spacing" textLength="180" x="642" y="273.7295">INSERT VesselVisitNotification</text><polygon fill="#181818" points="646,304.9375,636,308.9375,646,312.9375,642,308.9375" style="stroke:#181818;stroke-width:1.0;"/><line style="stroke:#181818;stroke-width:1.0;stroke-dasharray:2.0,2.0;" x1="640" x2="875" y1="308.9375" y2="308.9375"/><text fill="#000000" font-family="sans-serif" font-size="13" lengthAdjust="spacing" textLength="163" x="652" y="304.0811">Vvn (state=IN_PROGRESS)</text><polygon fill="#181818" points="355,335.2891,345,339.2891,355,343.2891,351,339.2891" style="stroke:#181818;stroke-width:1.0;"/><line style="stroke:#181818;stroke-width:1.0;stroke-dasharray:2.0,2.0;" x1="349" x2="634" y1="339.2891" y2="339.2891"/><text fill="#000000" font-family="sans-serif" font-size="13" lengthAdjust="spacing" textLength="43" x="361" y="334.4326">Vvn dto</text><polygon fill="#181818" points="82,365.6406,72,369.6406,82,373.6406,78,369.6406" style="stroke:#181818;stroke-width:1.0;"/><line style="stroke:#181818;stroke-width:1.0;stroke-dasharray:2.0,2.0;" x1="76" x2="343" y1="369.6406" y2="369.6406"/><text fill="#000000" font-family="sans-serif" font-size="13" lengthAdjust="spacing" textLength="109" x="88" y="364.7842">201 Created (vvnId)</text><rect fill="#EEEEEE" height="3" style="stroke:#EEEEEE;stroke-width:1.0;" width="1493" x="0" y="398.8164"/><line style="stroke:#000000;stroke-width:1.0;" x1="0" x2="1493" y1="398.8164" y2="398.8164"/><line style="stroke:#000000;stroke-width:1.0;" x1="0" x2="1493" y1="401.8164" y2="401.8164"/><rect fill="#EEEEEE" height="24.3516" style="stroke:#000000;stroke-width:2.0;" width="191" x="651" y="387.6406"/><text fill="#000000" font-family="sans-serif" font-size="13" font-weight="bold" lengthAdjust="spacing" textLength="173" x="657" y="405.1357">Add manifest entry (typical)</text><polygon fill="#181818" points="332,440.3438,342,444.3438,332,448.3438,336,444.3438" style="stroke:#181818;stroke-width:1.0;"/><line style="stroke:#181818;stroke-width:1.0;" x1="71" x2="338" y1="444.3438" y2="444.3438"/><text fill="#000000" font-family="sans-serif" font-size="13" lengthAdjust="spacing" textLength="249" x="78" y="439.4873">POST /api/vvns/{id}/entries (type, entry dto)</text><polygon fill="#181818" points="623,470.6953,633,474.6953,623,478.6953,627,474.6953" style="stroke:#181818;stroke-width:1.0;"/><line style="stroke:#181818;stroke-width:1.0;" x1="344" x2="629" y1="474.6953" y2="474.6953"/><text fill="#000000" font-family="sans-serif" font-size="13" lengthAdjust="spacing" textLength="245" x="351" y="469.8389">AddManifestEntryAsync(vvnId, type, entry)</text><polygon fill="#181818" points="864,501.0469,874,505.0469,864,509.0469,868,505.0469" style="stroke:#181818;stroke-width:1.0;"/><line style="stroke:#181818;stroke-width:1.0;" x1="635" x2="870" y1="505.0469" y2="505.0469"/><text fill="#000000" font-family="sans-serif" font-size="13" lengthAdjust="spacing" textLength="179" x="642" y="500.1904">Load VVN + manifest + entries</text><polygon fill="#181818" points="1173.5,531.3984,1183.5,535.3984,1173.5,539.3984,1177.5,535.3984" style="stroke:#181818;stroke-width:1.0;"/><line style="stroke:#181818;stroke-width:1.0;" x1="635" x2="1179.5" y1="535.3984" y2="535.3984"/><text fill="#000000" font-family="sans-serif" font-size="13" lengthAdjust="spacing" textLength="276" x="642" y="530.542">ManifestEntry.Create(dto) -&gt; validates ISO 6346</text><polygon fill="#181818" points="646,561.75,636,565.75,646,569.75,642,565.75" style="stroke:#181818;stroke-width:1.0;"/><line style="stroke:#181818;stroke-width:1.0;stroke-dasharray:2.0,2.0;" x1="640" x2="1184.5" y1="565.75" y2="565.75"/><text fill="#000000" font-family="sans-serif" font-size="13" lengthAdjust="spacing" textLength="29" x="652" y="560.8936">entry</text><polygon fill="#181818" points="1173.5,592.1016,1183.5,596.1016,1173.5,600.1016,1177.5,596.1016" style="stroke:#181818;stroke-width:1.0;"/><line style="stroke:#181818;stroke-width:1.0;" x1="635" x2="1179.5" y1="596.1016" y2="596.1016"/><text fill="#000000" font-family="sans-serif" font-size="13" lengthAdjust="spacing" textLength="178" x="642" y="591.2451">CargoManifest.AddEntry(entry)</text><polygon fill="#181818" points="864,622.4531,874,626.4531,864,630.4531,868,626.4531" style="stroke:#181818;stroke-width:1.0;"/><line style="stroke:#181818;stroke-width:1.0;" x1="635" x2="870" y1="626.4531" y2="626.4531"/><text fill="#000000" font-family="sans-serif" font-size="13" lengthAdjust="spacing" textLength="217" x="642" y="621.5967">INSERT/UPDATE manifests + entries</text><polygon fill="#181818" points="646,652.8047,636,656.8047,646,660.8047,642,656.8047" style="stroke:#181818;stroke-width:1.0;"/><line style="stroke:#181818;stroke-width:1.0;stroke-dasharray:2.0,2.0;" x1="640" x2="875" y1="656.8047" y2="656.8047"/><text fill="#000000" font-family="sans-serif" font-size="13" lengthAdjust="spacing" textLength="19" x="652" y="651.9482">OK</text><polygon fill="#181818" points="355,683.1563,345,687.1563,355,691.1563,351,687.1563" style="stroke:#181818;stroke-width:1.0;"/><line style="stroke:#181818;stroke-width:1.0;stroke-dasharray:2.0,2.0;" x1="349" x2="634" y1="687.1563" y2="687.1563"/><text fill="#000000" font-family="sans-serif" font-size="13" lengthAdjust="spacing" textLength="39" x="361" y="682.2998">entryId</text><polygon fill="#181818" points="82,713.5078,72,717.5078,82,721.5078,78,717.5078" style="stroke:#181818;stroke-width:1.0;"/><line style="stroke:#181818;stroke-width:1.0;stroke-dasharray:2.0,2.0;" x1="76" x2="343" y1="717.5078" y2="717.5078"/><text fill="#000000" font-family="sans-serif" font-size="13" lengthAdjust="spacing" textLength="44" x="88" y="712.6514">200 OK</text><rect fill="#EEEEEE" height="3" style="stroke:#EEEEEE;stroke-width:1.0;" width="1493" x="0" y="746.6836"/><line style="stroke:#000000;stroke-width:1.0;" x1="0" x2="1493" y1="746.6836" y2="746.6836"/><line style="stroke:#000000;stroke-width:1.0;" x1="0" x2="1493" y1="749.6836" y2="749.6836"/><rect fill="#EEEEEE" height="24.3516" style="stroke:#000000;stroke-width:2.0;" width="63" x="715" y="735.5078"/><text fill="#000000" font-family="sans-serif" font-size="13" font-weight="bold" lengthAdjust="spacing" textLength="45" x="721" y="753.0029">Submit</text><polygon fill="#181818" points="332,788.2109,342,792.2109,332,796.2109,336,792.2109" style="stroke:#181818;stroke-width:1.0;"/><line style="stroke:#181818;stroke-width:1.0;" x1="71" x2="338" y1="792.2109" y2="792.2109"/><text fill="#000000" font-family="sans-serif" font-size="13" lengthAdjust="spacing" textLength="153" x="78" y="787.3545">POST /api/vvns/{id}/submit</text><polygon fill="#181818" points="623,818.5625,633,822.5625,623,826.5625,627,822.5625" style="stroke:#181818;stroke-width:1.0;"/><line style="stroke:#181818;stroke-width:1.0;" x1="344" x2="629" y1="822.5625" y2="822.5625"/><text fill="#000000" font-family="sans-serif" font-size="13" lengthAdjust="spacing" textLength="248" x="351" y="817.7061">SubmitAsync(vvnId, submittedByUserGuid)</text><polygon fill="#181818" points="864,848.9141,874,852.9141,864,856.9141,868,852.9141" style="stroke:#181818;stroke-width:1.0;"/><line style="stroke:#181818;stroke-width:1.0;" x1="635" x2="870" y1="852.9141" y2="852.9141"/><text fill="#000000" font-family="sans-serif" font-size="13" lengthAdjust="spacing" textLength="158" x="642" y="848.0576">Load VVN, manifests, crew</text><polygon fill="#181818" points="1000.5,895.6172,1010.5,899.6172,1000.5,903.6172,1004.5,899.6172" style="stroke:#181818;stroke-width:1.0;"/><line style="stroke:#181818;stroke-width:1.0;" x1="635" x2="1006.5" y1="899.6172" y2="899.6172"/><text fill="#000000" font-family="sans-serif" font-size="13" lengthAdjust="spacing" textLength="134" x="642" y="878.4092">SetLoadingManifest(...)</text><text fill="#000000" font-family="sans-serif" font-size="13" lengthAdjust="spacing" textLength="146" x="642" y="894.7607">SetUnloadingManifest(...)</text><polygon fill="#181818" points="1372.5,925.9688,1382.5,929.9688,1372.5,933.9688,1376.5,929.9688" style="stroke:#181818;stroke-width:1.0;"/><line style="stroke:#181818;stroke-width:1.0;" x1="635" x2="1378.5" y1="929.9688" y2="929.9688"/><text fill="#000000" font-family="sans-serif" font-size="13" lengthAdjust="spacing" textLength="116" x="642" y="925.1123">EnsureSatisfied(vvn)</text><path d="M10,944.9688 L71,944.9688 L71,953.3203 L61,963.3203 L10,963.3203 L10,944.9688 " fill="#EEEEEE" style="stroke:#000000;stroke-width:1.5;"/><rect fill="none" height="246.6484" style="stroke:#000000;stroke-width:1.5;" width="1090" x="10" y="944.9688"/><text fill="#000000" font-family="sans-serif" font-size="13" font-weight="bold" lengthAdjust="spacing" textLength="16" x="25" y="959.4639">alt</text><text fill="#000000" font-family="sans-serif" font-size="11" font-weight="bold" lengthAdjust="spacing" textLength="58" x="86" y="958.3877">[Policy OK]</text><polygon fill="#181818" points="1000.5,981.6719,1010.5,985.6719,1000.5,989.6719,1004.5,985.6719" style="stroke:#181818;stroke-width:1.0;"/><line style="stroke:#181818;stroke-width:1.0;" x1="635" x2="1006.5" y1="985.6719" y2="985.6719"/><text fill="#000000" font-family="sans-serif" font-size="13" lengthAdjust="spacing" textLength="122" x="642" y="980.8154">Submit(submittedBy)</text><polygon fill="#181818" points="864,1012.0234,874,1016.0234,864,1020.0234,868,1016.0234" style="stroke:#181818;stroke-width:1.0;"/><line style="stroke:#181818;stroke-width:1.0;" x1="635" x2="870" y1="1016.0234" y2="1016.0234"/><text fill="#000000" font-family="sans-serif" font-size="13" lengthAdjust="spacing" textLength="205" x="642" y="1011.167">UPDATE VVN state = SUBMITTED</text><polygon fill="#181818" points="646,1042.375,636,1046.375,646,1050.375,642,1046.375" style="stroke:#181818;stroke-width:1.0;"/><line style="stroke:#181818;stroke-width:1.0;stroke-dasharray:2.0,2.0;" x1="640" x2="875" y1="1046.375" y2="1046.375"/><text fill="#000000" font-family="sans-serif" font-size="13" lengthAdjust="spacing" textLength="19" x="652" y="1041.5186">OK</text><polygon fill="#181818" points="355,1072.7266,345,1076.7266,355,1080.7266,351,1076.7266" style="stroke:#181818;stroke-width:1.0;"/><line style="stroke:#181818;stroke-width:1.0;stroke-dasharray:2.0,2.0;" x1="349" x2="634" y1="1076.7266" y2="1076.7266"/><text fill="#000000" font-family="sans-serif" font-size="13" lengthAdjust="spacing" textLength="165" x="361" y="1071.8701">Vvn dto (state=SUBMITTED)</text><polygon fill="#181818" points="82,1103.0781,72,1107.0781,82,1111.0781,78,1107.0781" style="stroke:#181818;stroke-width:1.0;"/><line style="stroke:#181818;stroke-width:1.0;stroke-dasharray:2.0,2.0;" x1="76" x2="343" y1="1107.0781" y2="1107.0781"/><text fill="#000000" font-family="sans-serif" font-size="13" lengthAdjust="spacing" textLength="44" x="88" y="1102.2217">200 OK</text><line style="stroke:#000000;stroke-width:1.0;stroke-dasharray:2.0,2.0;" x1="10" x2="1100" y1="1116.0781" y2="1116.0781"/><text fill="#000000" font-family="sans-serif" font-size="11" font-weight="bold" lengthAdjust="spacing" textLength="66" x="15" y="1127.4971">[Policy fails]</text><polygon fill="#181818" points="355,1149.2656,345,1153.2656,355,1157.2656,351,1153.2656" style="stroke:#181818;stroke-width:1.0;"/><line style="stroke:#181818;stroke-width:1.0;stroke-dasharray:2.0,2.0;" x1="349" x2="634" y1="1153.2656" y2="1153.2656"/><text fill="#000000" font-family="sans-serif" font-size="13" lengthAdjust="spacing" textLength="157" x="361" y="1148.4092">throws (e.g., crew required)</text><polygon fill="#181818" points="82,1179.6172,72,1183.6172,82,1187.6172,78,1183.6172" style="stroke:#181818;stroke-width:1.0;"/><line style="stroke:#181818;stroke-width:1.0;stroke-dasharray:2.0,2.0;" x1="76" x2="343" y1="1183.6172" y2="1183.6172"/><text fill="#000000" font-family="sans-serif" font-size="13" lengthAdjust="spacing" textLength="165" x="88" y="1178.7607">400 Bad Request (message)</text><!--SRC=[ZLHHRzem47xthpZnC0MLXgwhggaIaoYmBjeAY01FI9E93RKKxCmsj6pQVz_PJg1XLDiBGl5tTzzztzrPONCEAV-nvJBZq1TqhUa6Bc6MmdLy7N-4dkRKSdW7wNQv4HRcyo4XDBDAGoDz4aKXv1gwQovj0wW9_qX1jHMPAAYqqEYEauMSSsDuFXT6sA6oOYKoQeMIfgUarIhFkVRXFPkV11S5qjCxaV5QalAR3qft6M7KqYKr71g3pz1J6j5ZfMr_wGhmbq2kloIPgvNvqj3egmqLyaroFcQ-a-U3UbIlrIELOiMDHNq6s8ZWnWTLdqszcR7AHRPVo2_q9zLCRSq4XHUQ6nJvEJpwyF2Na4wdafzfkhBGwH2lBrn-Sah17On7wHJQj13jtGx9HILSEqEDRHA7GZ0gXE3mY0rrpLvcqSvtdMnK2ugjBfJXBU2MkX_MMaZ8Q66nqo7Tu4E637jgAsqBb5udh4bSJapTNsBcP9WE9bDuGqU2cCi32wmFaR78f9CCluydeuV984tBV8V678fP5Hh0hw7lExY-Ub_smI32dXqJfrENCTXKPY1Kxo6o-m8PvCr_wjR-9TZlDWy6-ZWdXK-274vKn4gLlSxoVIccezA2Lw5rXRufojpkmCMHvWMK9IlaOMmme5OZ3Yr7Zeq3xcWkSEAHR9AEuFR3pIqvnXwbzZpE9Q_DRemT-IhH6Tx1sVPitEzE1mVgvXNtchcZhoS- -fG9E-FZbGCxwyh3ydyc6G-kEn8Ir7m8C1oI-_tCSFsm5Uoy7wrZJs78AvGRG4pDhKFYZQlKYk8uRYuaFinaVkQfYWyxZ2a6qcmrJt4Jp4fmvXWs2SrjXK0L0Ef5FVdeLG_D8yIpB-rmy-Gt2L35sVrZCfqE-WWzjQGCFbskQWqFeQxC6qRn76zhoNX5HMx-IcgVj7h6xU7nEWvI-ZE4vusTotk3UU_HWqauLH1jy7ZGDMyIBXdv0m00]--></g></svg>