<?xml version="1.0" encoding="us-ascii" standalone="no"?><svg xmlns="http://www.w3.org/2000/svg" xmlns:xlink="http://www.w3.org/1999/xlink" contentStyleType="text/css" height="1083px" preserveAspectRatio="none" style="width:753px;height:1083px;background:#FFFFFF;" version="1.1" viewBox="0 0 753 1083" width="753px" zoomAndPan="magnify"><defs/><g><text fill="#000000" font-family="sans-serif" font-size="14" font-weight="bold" lengthAdjust="spacing" textLength="191" x="274" y="24.5332">C4 Container - US 2.2.8 VVN</text><!--cluster Client Layer--><g id="cluster_Client Layer"><polygon fill="none" points="109,196.1094,119,186.1094,268,186.1094,268,281.1094,258,291.1094,109,291.1094,109,196.1094" style="stroke:#181818;stroke-width:1.0;"/><line style="stroke:#181818;stroke-width:1.0;" x1="258" x2="268" y1="196.1094" y2="186.1094"/><line style="stroke:#181818;stroke-width:1.0;" x1="109" x2="258" y1="196.1094" y2="196.1094"/><line style="stroke:#181818;stroke-width:1.0;" x1="258" x2="258" y1="196.1094" y2="291.1094"/><text fill="#000000" font-family="sans-serif" font-size="14" font-weight="bold" lengthAdjust="spacing" textLength="83" x="143" y="213.6426">Client Layer</text></g><!--cluster Web API--><g id="cluster_Web API"><polygon fill="none" points="49,334.1094,59,324.1094,327,324.1094,327,419.1094,317,429.1094,49,429.1094,49,334.1094" style="stroke:#181818;stroke-width:1.0;"/><line style="stroke:#181818;stroke-width:1.0;" x1="317" x2="327" y1="334.1094" y2="324.1094"/><line style="stroke:#181818;stroke-width:1.0;" x1="49" x2="317" y1="334.1094" y2="334.1094"/><line style="stroke:#181818;stroke-width:1.0;" x1="317" x2="317" y1="334.1094" y2="429.1094"/><text fill="#000000" font-family="sans-serif" font-size="14" font-weight="bold" lengthAdjust="spacing" textLength="57" x="155.5" y="351.6426">Web API</text></g><!--cluster Application Layer--><g id="cluster_Application Layer"><polygon fill="none" points="16,472.1094,26,462.1094,282,462.1094,282,693.1094,272,703.1094,16,703.1094,16,472.1094" style="stroke:#181818;stroke-width:1.0;"/><line style="stroke:#181818;stroke-width:1.0;" x1="272" x2="282" y1="472.1094" y2="462.1094"/><line style="stroke:#181818;stroke-width:1.0;" x1="16" x2="272" y1="472.1094" y2="472.1094"/><line style="stroke:#181818;stroke-width:1.0;" x1="272" x2="272" y1="472.1094" y2="703.1094"/><text fill="#000000" font-family="sans-serif" font-size="14" font-weight="bold" lengthAdjust="spacing" textLength="120" x="85" y="489.6426">Application Layer</text></g><!--cluster Dom--><g id="cluster_Dom"><polygon fill="none" points="413,608.1094,423,598.1094,736,598.1094,736,1056.1094,726,1066.1094,413,1066.1094,413,608.1094" style="stroke:#181818;stroke-width:1.0;"/><line style="stroke:#181818;stroke-width:1.0;" x1="726" x2="736" y1="608.1094" y2="598.1094"/><line style="stroke:#181818;stroke-width:1.0;" x1="413" x2="726" y1="608.1094" y2="608.1094"/><line style="stroke:#181818;stroke-width:1.0;" x1="726" x2="726" y1="608.1094" y2="1066.1094"/><text fill="#000000" font-family="sans-serif" font-size="14" font-weight="bold" lengthAdjust="spacing" textLength="52" x="544.5" y="625.6426">Domain</text></g><!--entity Client--><g id="elem_Client"><rect fill="#F1F1F1" height="47.6094" rx="2.5" ry="2.5" style="stroke:#181818;stroke-width:0.5;" width="125" x="125.5" y="227.1094"/><rect fill="#F1F1F1" height="10" style="stroke:#181818;stroke-width:0.5;" width="15" x="230.5" y="232.1094"/><rect fill="#F1F1F1" height="2" style="stroke:#181818;stroke-width:0.5;" width="4" x="228.5" y="234.1094"/><rect fill="#F1F1F1" height="2" style="stroke:#181818;stroke-width:0.5;" width="4" x="228.5" y="238.1094"/><text fill="#000000" font-family="sans-serif" font-size="14" lengthAdjust="spacing" textLength="85" x="140.5" y="261.6426">UI / API Client</text></g><!--entity Ctl--><g id="elem_Ctl"><rect fill="#F1F1F1" height="47.6094" rx="2.5" ry="2.5" style="stroke:#181818;stroke-width:0.5;" width="246" x="65" y="365.1094"/><rect fill="#F1F1F1" height="10" style="stroke:#181818;stroke-width:0.5;" width="15" x="291" y="370.1094"/><rect fill="#F1F1F1" height="2" style="stroke:#181818;stroke-width:0.5;" width="4" x="289" y="372.1094"/><rect fill="#F1F1F1" height="2" style="stroke:#181818;stroke-width:0.5;" width="4" x="289" y="376.1094"/><text fill="#000000" font-family="sans-serif" font-size="14" lengthAdjust="spacing" textLength="206" x="80" y="399.6426">VesselVisitNotificationsController</text></g><!--entity Svc--><g id="elem_Svc"><rect fill="#F1F1F1" height="47.6094" rx="2.5" ry="2.5" style="stroke:#181818;stroke-width:0.5;" width="155" x="110.5" y="503.1094"/><rect fill="#F1F1F1" height="10" style="stroke:#181818;stroke-width:0.5;" width="15" x="245.5" y="508.1094"/><rect fill="#F1F1F1" height="2" style="stroke:#181818;stroke-width:0.5;" width="4" x="243.5" y="510.1094"/><rect fill="#F1F1F1" height="2" style="stroke:#181818;stroke-width:0.5;" width="4" x="243.5" y="514.1094"/><text fill="#000000" font-family="sans-serif" font-size="14" lengthAdjust="spacing" textLength="115" x="125.5" y="537.6426">VesselVisitService</text></g><!--entity Policy--><g id="elem_Policy"><rect fill="#F1F1F1" height="47.6094" rx="2.5" ry="2.5" style="stroke:#181818;stroke-width:0.5;" width="233" x="32.5" y="639.1094"/><rect fill="#F1F1F1" height="10" style="stroke:#181818;stroke-width:0.5;" width="15" x="245.5" y="644.1094"/><rect fill="#F1F1F1" height="2" style="stroke:#181818;stroke-width:0.5;" width="4" x="243.5" y="646.1094"/><rect fill="#F1F1F1" height="2" style="stroke:#181818;stroke-width:0.5;" width="4" x="243.5" y="650.1094"/><text fill="#000000" font-family="sans-serif" font-size="14" lengthAdjust="spacing" textLength="193" x="47.5" y="673.6426">HazardousRequiresCrewPolicy</text></g><!--entity Vvn--><g id="elem_Vvn"><rect fill="#F1F1F1" height="47.6094" rx="2.5" ry="2.5" style="stroke:#181818;stroke-width:0.5;" width="177" x="430.5" y="639.1094"/><rect fill="#F1F1F1" height="10" style="stroke:#181818;stroke-width:0.5;" width="15" x="587.5" y="644.1094"/><rect fill="#F1F1F1" height="2" style="stroke:#181818;stroke-width:0.5;" width="4" x="585.5" y="646.1094"/><rect fill="#F1F1F1" height="2" style="stroke:#181818;stroke-width:0.5;" width="4" x="585.5" y="650.1094"/><text fill="#000000" font-family="sans-serif" font-size="14" lengthAdjust="spacing" textLength="137" x="445.5" y="673.6426">VesselVisitNotification</text></g><!--entity Manifest--><g id="elem_Manifest"><rect fill="#F1F1F1" height="65.2188" rx="2.5" ry="2.5" style="stroke:#181818;stroke-width:0.5;" width="132" x="429" y="750.1094"/><rect fill="#F1F1F1" height="10" style="stroke:#181818;stroke-width:0.5;" width="15" x="541" y="755.1094"/><rect fill="#F1F1F1" height="2" style="stroke:#181818;stroke-width:0.5;" width="4" x="539" y="757.1094"/><rect fill="#F1F1F1" height="2" style="stroke:#181818;stroke-width:0.5;" width="4" x="539" y="761.1094"/><text fill="#000000" font-family="sans-serif" font-size="14" lengthAdjust="spacing" textLength="92" x="444" y="784.6426">CargoManifest</text><text fill="#000000" font-family="sans-serif" font-size="14" lengthAdjust="spacing" textLength="90" x="444" y="802.252">(Load/Unload)</text></g><!--entity Entry--><g id="elem_Entry"><rect fill="#F1F1F1" height="47.6094" rx="2.5" ry="2.5" style="stroke:#181818;stroke-width:0.5;" width="126" x="432" y="876.1094"/><rect fill="#F1F1F1" height="10" style="stroke:#181818;stroke-width:0.5;" width="15" x="538" y="881.1094"/><rect fill="#F1F1F1" height="2" style="stroke:#181818;stroke-width:0.5;" width="4" x="536" y="883.1094"/><rect fill="#F1F1F1" height="2" style="stroke:#181818;stroke-width:0.5;" width="4" x="536" y="887.1094"/><text fill="#000000" font-family="sans-serif" font-size="14" lengthAdjust="spacing" textLength="86" x="447" y="910.6426">ManifestEntry</text></g><!--entity Crew--><g id="elem_Crew"><rect fill="#F1F1F1" height="47.6094" rx="2.5" ry="2.5" style="stroke:#181818;stroke-width:0.5;" width="123" x="596.5" y="758.6094"/><rect fill="#F1F1F1" height="10" style="stroke:#181818;stroke-width:0.5;" width="15" x="699.5" y="763.6094"/><rect fill="#F1F1F1" height="2" style="stroke:#181818;stroke-width:0.5;" width="4" x="697.5" y="765.6094"/><rect fill="#F1F1F1" height="2" style="stroke:#181818;stroke-width:0.5;" width="4" x="697.5" y="769.6094"/><text fill="#000000" font-family="sans-serif" font-size="14" lengthAdjust="spacing" textLength="83" x="611.5" y="793.1426">CrewMember</text></g><!--entity ISO--><g id="elem_ISO"><rect fill="#F1F1F1" height="47.6094" rx="2.5" ry="2.5" style="stroke:#181818;stroke-width:0.5;" width="90" x="450" y="1002.1094"/><rect fill="#F1F1F1" height="10" style="stroke:#181818;stroke-width:0.5;" width="15" x="520" y="1007.1094"/><rect fill="#F1F1F1" height="2" style="stroke:#181818;stroke-width:0.5;" width="4" x="518" y="1009.1094"/><rect fill="#F1F1F1" height="2" style="stroke:#181818;stroke-width:0.5;" width="4" x="518" y="1013.1094"/><text fill="#000000" font-family="sans-serif" font-size="14" lengthAdjust="spacing" textLength="50" x="465" y="1036.6426">Iso6346</text></g><!--entity Agent--><g id="elem_Agent"><ellipse cx="188" cy="52.6094" fill="#F1F1F1" rx="8" ry="8" style="stroke:#181818;stroke-width:0.5;"/><path d="M188,60.6094 L188,87.6094 M175,68.6094 L201,68.6094 M188,87.6094 L175,102.6094 M188,87.6094 L201,102.6094 " fill="none" style="stroke:#181818;stroke-width:0.5;"/><text fill="#000000" font-family="sans-serif" font-size="14" lengthAdjust="spacing" textLength="96" x="140" y="118.6426">Shipping Agent</text><text fill="#000000" font-family="sans-serif" font-size="14" lengthAdjust="spacing" textLength="96" x="140" y="136.252">Representative</text></g><!--entity Db--><g id="elem_Db"><path d="M301,649.6094 C301,639.6094 348,639.6094 348,639.6094 C348,639.6094 395,639.6094 395,649.6094 L395,676.2188 C395,686.2188 348,686.2188 348,686.2188 C348,686.2188 301,686.2188 301,676.2188 L301,649.6094 " fill="#F1F1F1" style="stroke:#181818;stroke-width:0.5;"/><path d="M301,649.6094 C301,659.6094 348,659.6094 348,659.6094 C348,659.6094 395,659.6094 395,649.6094 " fill="none" style="stroke:#181818;stroke-width:0.5;"/><text fill="#000000" font-family="sans-serif" font-size="14" lengthAdjust="spacing" textLength="74" x="311" y="678.1426">Persistence</text></g><!--link Agent to Client--><g id="link_Agent_Client"><path d="M188,139.4394 C188,168.2694 188,197.9794 188,220.8994 " fill="none" id="Agent-to-Client" style="stroke:#181818;stroke-width:1.0;"/><polygon fill="#181818" points="188,226.8994,192,217.8994,188,221.8994,184,217.8994,188,226.8994" style="stroke:#181818;stroke-width:1.0;"/></g><!--link Client to Ctl--><g id="link_Client_Ctl"><path d="M188,275.1794 C188,300.1894 188,333.8694 188,358.9294 " fill="none" id="Client-to-Ctl" style="stroke:#181818;stroke-width:1.0;"/><polygon fill="#181818" points="188,364.9294,192,355.9294,188,359.9294,184,355.9294,188,364.9294" style="stroke:#181818;stroke-width:1.0;"/></g><!--link Ctl to Svc--><g id="link_Ctl_Svc"><path d="M188,413.1794 C188,438.1894 188,471.8694 188,496.9294 " fill="none" id="Ctl-to-Svc" style="stroke:#181818;stroke-width:1.0;"/><polygon fill="#181818" points="188,502.9294,192,493.9294,188,497.9294,184,493.9294,188,502.9294" style="stroke:#181818;stroke-width:1.0;"/></g><!--link Svc to Db--><g id="link_Svc_Db"><path d="M227.49,551.1194 C244.9,562.0194 265.19,575.7794 282,590.1094 C299.55,605.0694 313.2063,619.8774 325.7863,634.7574 " fill="none" id="Svc-to-Db" style="stroke:#181818;stroke-width:1.0;"/><polygon fill="#181818" points="329.66,639.3394,326.9041,629.884,326.4319,635.5211,320.7948,635.0489,329.66,639.3394" style="stroke:#181818;stroke-width:1.0;"/></g><!--link Svc to Policy--><g id="link_Svc_Policy"><path d="M181.3,551.1494 C174.15,575.6894 164.5868,608.5684 157.4268,633.1684 " fill="none" id="Svc-to-Policy" style="stroke:#181818;stroke-width:1.0;stroke-dasharray:7.0,7.0;"/><polygon fill="#181818" points="155.75,638.9294,162.1058,631.4058,157.1473,634.1286,154.4245,629.1701,155.75,638.9294" style="stroke:#181818;stroke-width:1.0;"/></g><!--link Svc to Vvn--><g id="link_Svc_Vvn"><path d="M265.71,542.9094 C310.11,552.9794 366.1,568.4394 413,590.1094 C441.07,603.0794 465.1442,619.5442 485.6442,635.2242 " fill="none" id="Svc-to-Vvn" style="stroke:#181818;stroke-width:1.0;stroke-dasharray:7.0,7.0;"/><polygon fill="#181818" points="490.41,638.8694,485.6915,630.2244,486.4385,635.8317,480.8312,636.5787,490.41,638.8694" style="stroke:#181818;stroke-width:1.0;"/></g><!--reverse link Vvn to Manifest--><g id="link_Vvn_Manifest"><path d="M511.86,699.0769 C508.2,717.0069 505.49,730.2394 501.46,749.9894 " fill="none" id="Vvn-backto-Manifest" style="stroke:#181818;stroke-width:1.0;"/><polygon fill="#181818" points="514.26,687.3194,509.1408,692.3981,511.86,699.0769,516.9792,693.9982,514.26,687.3194" style="stroke:#181818;stroke-width:1.0;"/></g><!--reverse link Manifest to Entry--><g id="link_Manifest_Entry"><path d="M495,827.1694 C495,846.4094 495,858.5594 495,876.0094 " fill="none" id="Manifest-backto-Entry" style="stroke:#181818;stroke-width:1.0;"/><polygon fill="none" points="495,815.1694,491,821.1694,495,827.1694,499,821.1694,495,815.1694" style="stroke:#181818;stroke-width:1.0;"/></g><!--reverse link Vvn to Crew--><g id="link_Vvn_Crew"><path d="M555.6245,695.0661 C579.9945,715.6661 606.24,737.8594 630.6,758.4394 " fill="none" id="Vvn-backto-Crew" style="stroke:#181818;stroke-width:1.0;"/><polygon fill="none" points="546.46,687.3194,548.46,694.2476,555.6245,695.0661,553.6245,688.1379,546.46,687.3194" style="stroke:#181818;stroke-width:1.0;"/></g><!--link Entry to ISO--><g id="link_Entry_ISO"><path d="M495,924.1394 C495,946.2794 495,973.5494 495,995.7794 " fill="none" id="Entry-to-ISO" style="stroke:#181818;stroke-width:1.0;stroke-dasharray:7.0,7.0;"/><polygon fill="#181818" points="495,1001.7794,499,992.7794,495,996.7794,491,992.7794,495,1001.7794" style="stroke:#181818;stroke-width:1.0;"/><text fill="#000000" font-family="sans-serif" font-size="13" lengthAdjust="spacing" textLength="43" x="496" y="968.6045">validate</text></g><!--SRC=[VL7FIyCm5BxthtZqf48xc6E8Xy7e10lR72kh1_MGjcypa2KroIeg_k- -92tJYuT7llVxUryijm8Xcq2cf6LSeeO4TWMCqt5w0sMvZY9MMwKXBbvvst9vWFa1fNsMMsmr6eBCyWvZO2PaeaYg1Y7E12SFbkm3TGnV4S3JBeSHp3SvXDoBwmam-XxQ7h5o9Nr7YSQWABdXTgqit_EQjYbf75kjX40TXbXndZ1lMz7N_Td-QrQ1kkCr-jwYgrtsddqotQYJsUBRYTDbcSRtZQ997xuiGBUbOPPLpD2c3Mh3ZKLPX_iNLKzXeOwaPOYfux-d-E5b9rr9nlH1hPZaUpIayCLIiMQqauAUIrytv5pnWEz8YK3H8p-7gA_mM0tgaEl2kL7JwydKn_BYmTtYVmoIP3RyG_zhFaAYaddiH2BpcAvqC4rdWoY3wyuWWwiaELCT02YA1egkndcUc0_vTk84jz0nmKbYZ7u0]--></g></svg>