<?xml version="1.0" encoding="us-ascii" standalone="no"?><svg xmlns="http://www.w3.org/2000/svg" xmlns:xlink="http://www.w3.org/1999/xlink" contentStyleType="text/css" height="824px" preserveAspectRatio="none" style="width:513px;height:824px;background:#FFFFFF;" version="1.1" viewBox="0 0 513 824" width="513px" zoomAndPan="magnify"><defs/><g><text fill="#000000" font-family="sans-serif" font-size="14" font-weight="bold" lengthAdjust="spacing" textLength="251" x="127" y="29.5332">SSD - Create / Update VVN (US 2.2.8)</text><rect fill="none" height="190.2969" style="stroke:#000000;stroke-width:1.5;" width="486" x="10" y="275.9766"/><rect fill="none" height="94.8906" style="stroke:#000000;stroke-width:1.5;" width="466" x="20" y="364.3828"/><rect fill="none" height="95.4063" style="stroke:#000000;stroke-width:1.5;" width="466" x="20" y="524.625"/><line style="stroke:#181818;stroke-width:0.5;stroke-dasharray:5.0,5.0;" x1="131" x2="131" y1="121.2188" y2="742.0859"/><line style="stroke:#181818;stroke-width:0.5;stroke-dasharray:5.0,5.0;" x1="446" x2="446" y1="121.2188" y2="742.0859"/><text fill="#000000" font-family="sans-serif" font-size="14" lengthAdjust="spacing" textLength="196" x="30" y="118.1426">Shipping Agent Representative</text><ellipse cx="131" cy="52.1094" fill="#E2E2F0" rx="8" ry="8" style="stroke:#181818;stroke-width:0.5;"/><path d="M131,60.1094 L131,87.1094 M118,68.1094 L144,68.1094 M131,87.1094 L118,102.1094 M131,87.1094 L144,102.1094 " fill="none" style="stroke:#181818;stroke-width:0.5;"/><text fill="#000000" font-family="sans-serif" font-size="14" lengthAdjust="spacing" textLength="196" x="30" y="755.6191">Shipping Agent Representative</text><ellipse cx="131" cy="767.1953" fill="#E2E2F0" rx="8" ry="8" style="stroke:#181818;stroke-width:0.5;"/><path d="M131,775.1953 L131,802.1953 M118,783.1953 L144,783.1953 M131,802.1953 L118,817.1953 M131,802.1953 L144,817.1953 " fill="none" style="stroke:#181818;stroke-width:0.5;"/><rect fill="#E2E2F0" height="31.6094" rx="2.5" ry="2.5" style="stroke:#181818;stroke-width:0.5;" width="60" x="416" y="88.6094"/><text fill="#000000" font-family="sans-serif" font-size="14" lengthAdjust="spacing" textLength="46" x="423" y="110.1426">System</text><rect fill="#E2E2F0" height="31.6094" rx="2.5" ry="2.5" style="stroke:#181818;stroke-width:0.5;" width="60" x="416" y="741.0859"/><text fill="#000000" font-family="sans-serif" font-size="14" lengthAdjust="spacing" textLength="46" x="423" y="762.6191">System</text><polygon fill="#181818" points="434,182.2734,444,186.2734,434,190.2734,438,186.2734" style="stroke:#181818;stroke-width:1.0;"/><line style="stroke:#181818;stroke-width:1.0;" x1="131" x2="440" y1="186.2734" y2="186.2734"/><text fill="#000000" font-family="sans-serif" font-size="13" lengthAdjust="spacing" textLength="98" x="138" y="148.7139">Create VVN draft</text><text fill="#000000" font-family="sans-serif" font-size="13" lengthAdjust="spacing" textLength="188" x="138" y="165.0654">(vesselIMO, purpose, ETA, ETD,</text><text fill="#000000" font-family="sans-serif" font-size="13" lengthAdjust="spacing" textLength="185" x="142" y="181.417">captainName, crewCount, orgId)</text><polygon fill="#181818" points="142,212.625,132,216.625,142,220.625,138,216.625" style="stroke:#181818;stroke-width:1.0;"/><line style="stroke:#181818;stroke-width:1.0;stroke-dasharray:2.0,2.0;" x1="136" x2="445" y1="216.625" y2="216.625"/><text fill="#000000" font-family="sans-serif" font-size="13" lengthAdjust="spacing" textLength="234" x="148" y="211.7686">VVN created (id, state=IN_PROGRESS)</text><rect fill="#EEEEEE" height="3" style="stroke:#EEEEEE;stroke-width:1.0;" width="506" x="0" y="245.8008"/><line style="stroke:#000000;stroke-width:1.0;" x1="0" x2="506" y1="245.8008" y2="245.8008"/><line style="stroke:#000000;stroke-width:1.0;" x1="0" x2="506" y1="248.8008" y2="248.8008"/><rect fill="#EEEEEE" height="24.3516" style="stroke:#000000;stroke-width:2.0;" width="274" x="116" y="234.625"/><text fill="#000000" font-family="sans-serif" font-size="13" font-weight="bold" lengthAdjust="spacing" textLength="256" x="122" y="252.1201">Add cargo entries (optional load/unload)</text><path d="M10,275.9766 L83,275.9766 L83,284.3281 L73,294.3281 L10,294.3281 L10,275.9766 " fill="#EEEEEE" style="stroke:#000000;stroke-width:1.5;"/><rect fill="none" height="190.2969" style="stroke:#000000;stroke-width:1.5;" width="486" x="10" y="275.9766"/><text fill="#000000" font-family="sans-serif" font-size="13" font-weight="bold" lengthAdjust="spacing" textLength="28" x="25" y="290.4717">loop</text><text fill="#000000" font-family="sans-serif" font-size="11" font-weight="bold" lengthAdjust="spacing" textLength="110" x="98" y="289.3955">[For each container]</text><polygon fill="#181818" points="434,345.3828,444,349.3828,434,353.3828,438,349.3828" style="stroke:#181818;stroke-width:1.0;"/><line style="stroke:#181818;stroke-width:1.0;" x1="131" x2="440" y1="349.3828" y2="349.3828"/><text fill="#000000" font-family="sans-serif" font-size="13" lengthAdjust="spacing" textLength="111" x="138" y="311.8232">Add Manifest Entry</text><text fill="#000000" font-family="sans-serif" font-size="13" lengthAdjust="spacing" textLength="147" x="138" y="328.1748">(vvnId, type: Load|Unload,</text><text fill="#000000" font-family="sans-serif" font-size="13" lengthAdjust="spacing" textLength="287" x="142" y="344.5264">containerCode, hazardous?, bay,row,tier, goods?)</text><path d="M20,364.3828 L81,364.3828 L81,372.7344 L71,382.7344 L20,382.7344 L20,364.3828 " fill="#EEEEEE" style="stroke:#000000;stroke-width:1.5;"/><rect fill="none" height="94.8906" style="stroke:#000000;stroke-width:1.5;" width="466" x="20" y="364.3828"/><text fill="#000000" font-family="sans-serif" font-size="13" font-weight="bold" lengthAdjust="spacing" textLength="16" x="35" y="378.8779">alt</text><text fill="#000000" font-family="sans-serif" font-size="11" font-weight="bold" lengthAdjust="spacing" textLength="91" x="96" y="377.8018">[ISO 6346 invalid]</text><polygon fill="#181818" points="142,401.0859,132,405.0859,142,409.0859,138,405.0859" style="stroke:#181818;stroke-width:1.0;"/><line style="stroke:#181818;stroke-width:1.0;stroke-dasharray:2.0,2.0;" x1="136" x2="445" y1="405.0859" y2="405.0859"/><text fill="#000000" font-family="sans-serif" font-size="13" lengthAdjust="spacing" textLength="160" x="148" y="400.2295">Error: invalid container code</text><line style="stroke:#000000;stroke-width:1.0;stroke-dasharray:2.0,2.0;" x1="20" x2="486" y1="414.0859" y2="414.0859"/><text fill="#000000" font-family="sans-serif" font-size="11" font-weight="bold" lengthAdjust="spacing" textLength="23" x="25" y="425.5049">[OK]</text><polygon fill="#181818" points="142,447.2734,132,451.2734,142,455.2734,138,451.2734" style="stroke:#181818;stroke-width:1.0;"/><line style="stroke:#181818;stroke-width:1.0;stroke-dasharray:2.0,2.0;" x1="136" x2="445" y1="451.2734" y2="451.2734"/><text fill="#000000" font-family="sans-serif" font-size="13" lengthAdjust="spacing" textLength="70" x="148" y="446.417">Entry added</text><rect fill="#EEEEEE" height="3" style="stroke:#EEEEEE;stroke-width:1.0;" width="506" x="0" y="494.4492"/><line style="stroke:#000000;stroke-width:1.0;" x1="0" x2="506" y1="494.4492" y2="494.4492"/><line style="stroke:#000000;stroke-width:1.0;" x1="0" x2="506" y1="497.4492" y2="497.4492"/><rect fill="#EEEEEE" height="24.3516" style="stroke:#000000;stroke-width:2.0;" width="154" x="176" y="483.2734"/><text fill="#000000" font-family="sans-serif" font-size="13" font-weight="bold" lengthAdjust="spacing" textLength="136" x="182" y="500.7686">Add crew on demand</text><path d="M20,524.625 L85,524.625 L85,532.9766 L75,542.9766 L20,542.9766 L20,524.625 " fill="#EEEEEE" style="stroke:#000000;stroke-width:1.5;"/><rect fill="none" height="95.4063" style="stroke:#000000;stroke-width:1.5;" width="466" x="20" y="524.625"/><text fill="#000000" font-family="sans-serif" font-size="13" font-weight="bold" lengthAdjust="spacing" textLength="20" x="35" y="539.1201">opt</text><text fill="#000000" font-family="sans-serif" font-size="11" font-weight="bold" lengthAdjust="spacing" textLength="137" x="100" y="538.0439">[Hazardous cargo exists]</text><polygon fill="#181818" points="434,577.6797,444,581.6797,434,585.6797,438,581.6797" style="stroke:#181818;stroke-width:1.0;"/><line style="stroke:#181818;stroke-width:1.0;" x1="131" x2="440" y1="581.6797" y2="581.6797"/><text fill="#000000" font-family="sans-serif" font-size="13" lengthAdjust="spacing" textLength="122" x="138" y="560.4717">Add Crew Member(s)</text><text fill="#000000" font-family="sans-serif" font-size="13" lengthAdjust="spacing" textLength="163" x="138" y="576.8232">(name, citizenId, nationality)</text><polygon fill="#181818" points="142,608.0313,132,612.0313,142,616.0313,138,612.0313" style="stroke:#181818;stroke-width:1.0;"/><line style="stroke:#181818;stroke-width:1.0;stroke-dasharray:2.0,2.0;" x1="136" x2="445" y1="612.0313" y2="612.0313"/><text fill="#000000" font-family="sans-serif" font-size="13" lengthAdjust="spacing" textLength="68" x="148" y="607.1748">Crew added</text><rect fill="#EEEEEE" height="3" style="stroke:#EEEEEE;stroke-width:1.0;" width="506" x="0" y="648.207"/><line style="stroke:#000000;stroke-width:1.0;" x1="0" x2="506" y1="648.207" y2="648.207"/><line style="stroke:#000000;stroke-width:1.0;" x1="0" x2="506" y1="651.207" y2="651.207"/><rect fill="#EEEEEE" height="24.3516" style="stroke:#000000;stroke-width:2.0;" width="175" x="165.5" y="637.0313"/><text fill="#000000" font-family="sans-serif" font-size="13" font-weight="bold" lengthAdjust="spacing" textLength="157" x="171.5" y="654.5264">Keep as draft or proceed</text><polygon fill="#181818" points="434,689.7344,444,693.7344,434,697.7344,438,693.7344" style="stroke:#181818;stroke-width:1.0;"/><line style="stroke:#181818;stroke-width:1.0;" x1="131" x2="440" y1="693.7344" y2="693.7344"/><text fill="#000000" font-family="sans-serif" font-size="13" lengthAdjust="spacing" textLength="263" x="138" y="688.8779">Save as draft (state remains IN_PROGRESS)</text><polygon fill="#181818" points="142,720.0859,132,724.0859,142,728.0859,138,724.0859" style="stroke:#181818;stroke-width:1.0;"/><line style="stroke:#181818;stroke-width:1.0;stroke-dasharray:2.0,2.0;" x1="136" x2="445" y1="724.0859" y2="724.0859"/><text fill="#000000" font-family="sans-serif" font-size="13" lengthAdjust="spacing" textLength="64" x="148" y="719.2295">Draft saved</text><!--SRC=[TLBVQzim47xtN_6H9mUS5hfHHY0h8Scsq2KPyTAdmhXQrqJWI49IqgNiZz_9hbT6qmVBXwJxVkcYZZMZBASOOEAP8kCI6wTISNUtHBufSNLnTV6fdsLKHUlHAtVQEMss66_PHApPUGvIKTH7xe52Uv0vyb5Nsf5SwfMd47dVdBPbbhNjWyyl6nXs0XAlylGOxqr-v12udYzM1Tp1EnkumEpdE2tJujwW8XT9coNjvQ3o_3In1nCBMB-Tgtxs0ZqGbfPksA1N3P52hbM18CfvD5_- -h5UVLtFobAiZaOOAoNeVciXVLvpG6vTrDPGZTgIkZoOzEjZDCfgQns-I3XCrGwLDKaJ-mnuQpBXBiZeHmuHCu4-9Pj7CnSfyUHuYEy2-sVJe3SMExY9LM9oHy_abJs4cm8FT2gyVIgYPbzWQwqADtrXfJfYNgvm_U7ZDRGvKgsLR0DdyfXvR_smk_NA9fLYQU8wC5QtxxOd1o2bE36mKLdw_WKeBm9he7XFHgMe94Dywonq0V_M8OPtqveaa0Nl7zZdeIzfcVQrTTJFtEHcg7qO7K_9_XcP3KQhijDto-pIF3QZ9WC3vst5tAXyAwIa8x_UpfkXWHTRsWJyDpndsATDKn08bVq5]--></g></svg>