<?xml version="1.0" encoding="us-ascii" standalone="no"?><svg xmlns="http://www.w3.org/2000/svg" xmlns:xlink="http://www.w3.org/1999/xlink" contentStyleType="text/css" height="788px" preserveAspectRatio="none" style="width:1436px;height:788px;background:#FFFFFF;" version="1.1" viewBox="0 0 1436 788" width="1436px" zoomAndPan="magnify"><defs/><g><text fill="#000000" font-family="sans-serif" font-size="14" font-weight="bold" lengthAdjust="spacing" textLength="304" x="559.25" y="24.5332">C4 Container - US 2.2.7 Approve/Reject VVN</text><!--cluster Client Layer--><g id="cluster_Client Layer"><polygon fill="none" points="76,213.1094,86,203.1094,235,203.1094,235,298.1094,225,308.1094,76,308.1094,76,213.1094" style="stroke:#181818;stroke-width:1.0;"/><line style="stroke:#181818;stroke-width:1.0;" x1="225" x2="235" y1="213.1094" y2="203.1094"/><line style="stroke:#181818;stroke-width:1.0;" x1="76" x2="225" y1="213.1094" y2="213.1094"/><line style="stroke:#181818;stroke-width:1.0;" x1="225" x2="225" y1="213.1094" y2="308.1094"/><text fill="#000000" font-family="sans-serif" font-size="14" font-weight="bold" lengthAdjust="spacing" textLength="83" x="110" y="230.6426">Client Layer</text></g><!--cluster Web API--><g id="cluster_Web API"><polygon fill="none" points="16,368.1094,26,358.1094,294,358.1094,294,453.1094,284,463.1094,16,463.1094,16,368.1094" style="stroke:#181818;stroke-width:1.0;"/><line style="stroke:#181818;stroke-width:1.0;" x1="284" x2="294" y1="368.1094" y2="358.1094"/><line style="stroke:#181818;stroke-width:1.0;" x1="16" x2="284" y1="368.1094" y2="368.1094"/><line style="stroke:#181818;stroke-width:1.0;" x1="284" x2="284" y1="368.1094" y2="463.1094"/><text fill="#000000" font-family="sans-serif" font-size="14" font-weight="bold" lengthAdjust="spacing" textLength="57" x="122.5" y="385.6426">Web API</text></g><!--cluster Application Layer--><g id="cluster_Application Layer"><polygon fill="none" points="25,523.1094,35,513.1094,249,513.1094,249,761.1094,239,771.1094,25,771.1094,25,523.1094" style="stroke:#181818;stroke-width:1.0;"/><line style="stroke:#181818;stroke-width:1.0;" x1="239" x2="249" y1="523.1094" y2="513.1094"/><line style="stroke:#181818;stroke-width:1.0;" x1="25" x2="239" y1="523.1094" y2="523.1094"/><line style="stroke:#181818;stroke-width:1.0;" x1="239" x2="239" y1="523.1094" y2="771.1094"/><text fill="#000000" font-family="sans-serif" font-size="14" font-weight="bold" lengthAdjust="spacing" textLength="120" x="73" y="540.6426">Application Layer</text></g><!--cluster Dom--><g id="cluster_Dom"><polygon fill="none" points="273,676.1094,283,666.1094,816,666.1094,816,761.1094,806,771.1094,273,771.1094,273,676.1094" style="stroke:#181818;stroke-width:1.0;"/><line style="stroke:#181818;stroke-width:1.0;" x1="806" x2="816" y1="676.1094" y2="666.1094"/><line style="stroke:#181818;stroke-width:1.0;" x1="273" x2="806" y1="676.1094" y2="676.1094"/><line style="stroke:#181818;stroke-width:1.0;" x1="806" x2="806" y1="676.1094" y2="771.1094"/><text fill="#000000" font-family="sans-serif" font-size="14" font-weight="bold" lengthAdjust="spacing" textLength="52" x="514.5" y="693.6426">Domain</text></g><!--entity Client--><g id="elem_Client"><rect fill="#F1F1F1" height="47.6094" rx="2.5" ry="2.5" style="stroke:#181818;stroke-width:0.5;" width="125" x="92.5" y="244.1094"/><rect fill="#F1F1F1" height="10" style="stroke:#181818;stroke-width:0.5;" width="15" x="197.5" y="249.1094"/><rect fill="#F1F1F1" height="2" style="stroke:#181818;stroke-width:0.5;" width="4" x="195.5" y="251.1094"/><rect fill="#F1F1F1" height="2" style="stroke:#181818;stroke-width:0.5;" width="4" x="195.5" y="255.1094"/><text fill="#000000" font-family="sans-serif" font-size="14" lengthAdjust="spacing" textLength="85" x="107.5" y="278.6426">UI / API Client</text></g><!--entity Ctl--><g id="elem_Ctl"><rect fill="#F1F1F1" height="47.6094" rx="2.5" ry="2.5" style="stroke:#181818;stroke-width:0.5;" width="246" x="32" y="399.1094"/><rect fill="#F1F1F1" height="10" style="stroke:#181818;stroke-width:0.5;" width="15" x="258" y="404.1094"/><rect fill="#F1F1F1" height="2" style="stroke:#181818;stroke-width:0.5;" width="4" x="256" y="406.1094"/><rect fill="#F1F1F1" height="2" style="stroke:#181818;stroke-width:0.5;" width="4" x="256" y="410.1094"/><text fill="#000000" font-family="sans-serif" font-size="14" lengthAdjust="spacing" textLength="206" x="47" y="433.6426">VesselVisitNotificationsController</text></g><!--entity Svc--><g id="elem_Svc"><rect fill="#F1F1F1" height="47.6094" rx="2.5" ry="2.5" style="stroke:#181818;stroke-width:0.5;" width="155" x="77.5" y="554.1094"/><rect fill="#F1F1F1" height="10" style="stroke:#181818;stroke-width:0.5;" width="15" x="212.5" y="559.1094"/><rect fill="#F1F1F1" height="2" style="stroke:#181818;stroke-width:0.5;" width="4" x="210.5" y="561.1094"/><rect fill="#F1F1F1" height="2" style="stroke:#181818;stroke-width:0.5;" width="4" x="210.5" y="565.1094"/><text fill="#000000" font-family="sans-serif" font-size="14" lengthAdjust="spacing" textLength="115" x="92.5" y="588.6426">VesselVisitService</text></g><!--entity DockSvc--><g id="elem_DockSvc"><rect fill="#F1F1F1" height="47.6094" rx="2.5" ry="2.5" style="stroke:#181818;stroke-width:0.5;" width="192" x="41" y="707.1094"/><rect fill="#F1F1F1" height="10" style="stroke:#181818;stroke-width:0.5;" width="15" x="213" y="712.1094"/><rect fill="#F1F1F1" height="2" style="stroke:#181818;stroke-width:0.5;" width="4" x="211" y="714.1094"/><rect fill="#F1F1F1" height="2" style="stroke:#181818;stroke-width:0.5;" width="4" x="211" y="718.1094"/><text fill="#000000" font-family="sans-serif" font-size="14" lengthAdjust="spacing" textLength="152" x="56" y="741.6426">DockAssignmentService</text></g><!--entity Vvn--><g id="elem_Vvn"><rect fill="#F1F1F1" height="47.6094" rx="2.5" ry="2.5" style="stroke:#181818;stroke-width:0.5;" width="177" x="289.5" y="707.1094"/><rect fill="#F1F1F1" height="10" style="stroke:#181818;stroke-width:0.5;" width="15" x="446.5" y="712.1094"/><rect fill="#F1F1F1" height="2" style="stroke:#181818;stroke-width:0.5;" width="4" x="444.5" y="714.1094"/><rect fill="#F1F1F1" height="2" style="stroke:#181818;stroke-width:0.5;" width="4" x="444.5" y="718.1094"/><text fill="#000000" font-family="sans-serif" font-size="14" lengthAdjust="spacing" textLength="137" x="304.5" y="741.6426">VesselVisitNotification</text></g><!--entity DA--><g id="elem_DA"><rect fill="#F1F1F1" height="47.6094" rx="2.5" ry="2.5" style="stroke:#181818;stroke-width:0.5;" width="145" x="501.5" y="707.1094"/><rect fill="#F1F1F1" height="10" style="stroke:#181818;stroke-width:0.5;" width="15" x="626.5" y="712.1094"/><rect fill="#F1F1F1" height="2" style="stroke:#181818;stroke-width:0.5;" width="4" x="624.5" y="714.1094"/><rect fill="#F1F1F1" height="2" style="stroke:#181818;stroke-width:0.5;" width="4" x="624.5" y="718.1094"/><text fill="#000000" font-family="sans-serif" font-size="14" lengthAdjust="spacing" textLength="105" x="516.5" y="741.6426">DockAssignment</text></g><!--entity Log--><g id="elem_Log"><rect fill="#F1F1F1" height="47.6094" rx="2.5" ry="2.5" style="stroke:#181818;stroke-width:0.5;" width="118" x="682" y="707.1094"/><rect fill="#F1F1F1" height="10" style="stroke:#181818;stroke-width:0.5;" width="15" x="780" y="712.1094"/><rect fill="#F1F1F1" height="2" style="stroke:#181818;stroke-width:0.5;" width="4" x="778" y="714.1094"/><rect fill="#F1F1F1" height="2" style="stroke:#181818;stroke-width:0.5;" width="4" x="778" y="718.1094"/><text fill="#000000" font-family="sans-serif" font-size="14" lengthAdjust="spacing" textLength="78" x="697" y="741.6426">DecisionLog</text></g><!--entity Officer--><g id="elem_Officer"><ellipse cx="155" cy="52.6094" fill="#F1F1F1" rx="8" ry="8" style="stroke:#181818;stroke-width:0.5;"/><path d="M155,60.6094 L155,87.6094 M142,68.6094 L168,68.6094 M155,87.6094 L142,102.6094 M155,87.6094 L168,102.6094 " fill="none" style="stroke:#181818;stroke-width:0.5;"/><text fill="#000000" font-family="sans-serif" font-size="14" lengthAdjust="spacing" textLength="86" x="112" y="118.6426">Port Authority</text><text fill="#000000" font-family="sans-serif" font-size="14" lengthAdjust="spacing" textLength="42" x="112" y="136.252">Officer</text></g><!--entity Db--><g id="elem_Db"><path d="M835,717.6094 C835,707.6094 882,707.6094 882,707.6094 C882,707.6094 929,707.6094 929,717.6094 L929,744.2188 C929,754.2188 882,754.2188 882,754.2188 C882,754.2188 835,754.2188 835,744.2188 L835,717.6094 " fill="#F1F1F1" style="stroke:#181818;stroke-width:0.5;"/><path d="M835,717.6094 C835,727.6094 882,727.6094 882,727.6094 C882,727.6094 929,727.6094 929,717.6094 " fill="none" style="stroke:#181818;stroke-width:0.5;"/><text fill="#000000" font-family="sans-serif" font-size="14" lengthAdjust="spacing" textLength="74" x="845" y="746.1426">Persistence</text></g><g id="elem_GMN23"><path d="M964.5,701.6094 L964.5,760.6641 L1207.5,760.6641 L1207.5,711.6094 L1197.5,701.6094 L964.5,701.6094 " fill="#FEFFDD" style="stroke:#181818;stroke-width:0.5;"/><path d="M1197.5,701.6094 L1197.5,711.6094 L1207.5,711.6094 L1197.5,701.6094 " fill="#FEFFDD" style="stroke:#181818;stroke-width:1.0;"/><text fill="#000000" font-family="sans-serif" font-size="13" lengthAdjust="spacing" textLength="99" x="970.5" y="720.1045">State transitions:</text><text fill="#000000" font-family="sans-serif" font-size="13" lengthAdjust="spacing" textLength="217" x="970.5" y="736.4561">SUBMITTED &#8594; APPROVED (+ dock)</text><text fill="#000000" font-family="sans-serif" font-size="13" lengthAdjust="spacing" textLength="222" x="970.5" y="752.8076">SUBMITTED &#8594; REJECTED (+ reason)</text></g><g id="elem_GMN26"><path d="M1242.5,693.6094 L1242.5,769.0156 L1429.5,769.0156 L1429.5,703.6094 L1419.5,693.6094 L1242.5,693.6094 " fill="#FEFFDD" style="stroke:#181818;stroke-width:0.5;"/><path d="M1419.5,693.6094 L1419.5,703.6094 L1429.5,703.6094 L1419.5,693.6094 " fill="#FEFFDD" style="stroke:#181818;stroke-width:1.0;"/><text fill="#000000" font-family="sans-serif" font-size="13" lengthAdjust="spacing" textLength="107" x="1248.5" y="712.1045">Dock Assignment:</text><text fill="#000000" font-family="sans-serif" font-size="13" lengthAdjust="spacing" textLength="38" x="1248.5" y="728.4561">- Dock</text><text fill="#000000" font-family="sans-serif" font-size="13" lengthAdjust="spacing" textLength="166" x="1248.5" y="744.8076">- Berth time window (from/to)</text><text fill="#000000" font-family="sans-serif" font-size="13" lengthAdjust="spacing" textLength="122" x="1248.5" y="761.1592">- No overlaps allowed</text></g><!--link Officer to Client--><g id="link_Officer_Client"><path d="M155,139.3694 C155,173.0894 155,211.1794 155,237.7494 " fill="none" id="Officer-to-Client" style="stroke:#181818;stroke-width:1.0;"/><polygon fill="#181818" points="155,243.7494,159,234.7494,155,238.7494,151,234.7494,155,243.7494" style="stroke:#181818;stroke-width:1.0;"/><text fill="#000000" font-family="sans-serif" font-size="13" lengthAdjust="spacing" textLength="73" x="156" y="183.6045">review VVNs</text></g><!--link Client to Ctl--><g id="link_Client_Ctl"><path d="M155,292.3494 C155,321.0994 155,363.7994 155,392.6494 " fill="none" id="Client-to-Ctl" style="stroke:#181818;stroke-width:1.0;"/><polygon fill="#181818" points="155,398.6494,159,389.6494,155,393.6494,151,389.6494,155,398.6494" style="stroke:#181818;stroke-width:1.0;"/><text fill="#000000" font-family="sans-serif" font-size="13" lengthAdjust="spacing" textLength="119" x="156" y="338.6045">POST approve/reject</text></g><!--link Ctl to Svc--><g id="link_Ctl_Svc"><path d="M155,447.3494 C155,476.0994 155,518.7994 155,547.6494 " fill="none" id="Ctl-to-Svc" style="stroke:#181818;stroke-width:1.0;"/><polygon fill="#181818" points="155,553.6494,159,544.6494,155,548.6494,151,544.6494,155,553.6494" style="stroke:#181818;stroke-width:1.0;"/><text fill="#000000" font-family="sans-serif" font-size="13" lengthAdjust="spacing" textLength="80" x="156" y="493.6045">approve/reject</text></g><!--link Svc to DockSvc--><g id="link_Svc_DockSvc"><path d="M145.92,602.2194 C142.77,611.3794 139.62,622.0894 138,632.1094 C133.9,657.4694 133.9869,681.017 134.9969,700.987 " fill="none" id="Svc-to-DockSvc" style="stroke:#181818;stroke-width:1.0;"/><polygon fill="#181818" points="135.3,706.9794,138.8403,697.7888,135.0474,701.9858,130.8505,698.1929,135.3,706.9794" style="stroke:#181818;stroke-width:1.0;"/><text fill="#000000" font-family="sans-serif" font-size="13" lengthAdjust="spacing" textLength="143" x="139" y="646.6045">assign dock (if approved)</text></g><!--link Svc to Db--><g id="link_Svc_Db"><path d="M232.52,579.5294 C346.44,581.6094 565.14,591.1794 746,632.1094 C778.37,639.4294 788.46,639.5794 816,658.1094 C835.7,671.3594 849.9097,686.9107 862.0797,702.5807 " fill="none" id="Svc-to-Db" style="stroke:#181818;stroke-width:1.0;"/><polygon fill="#181818" points="865.76,707.3194,863.3987,697.7578,862.6931,703.3704,857.0804,702.6648,865.76,707.3194" style="stroke:#181818;stroke-width:1.0;"/><text fill="#000000" font-family="sans-serif" font-size="13" lengthAdjust="spacing" textLength="91" x="803" y="646.6045">persist decision</text></g><!--link Svc to Vvn--><g id="link_Svc_Vvn"><path d="M228.82,602.1294 C248.62,610.0394 269.4,620.0094 287,632.1094 C317.04,652.7594 340.8085,680.1784 357.5285,701.9784 " fill="none" id="Svc-to-Vvn" style="stroke:#181818;stroke-width:1.0;stroke-dasharray:7.0,7.0;"/><polygon fill="#181818" points="361.18,706.7394,358.8767,697.1636,358.1371,702.7719,352.5288,702.0323,361.18,706.7394" style="stroke:#181818;stroke-width:1.0;"/><text fill="#000000" font-family="sans-serif" font-size="13" lengthAdjust="spacing" textLength="86" x="309" y="646.6045">transition state</text></g><!--link Svc to DA--><g id="link_Svc_DA"><path d="M232.82,586.3794 C302.16,595.4394 404.63,615.3194 484,658.1094 C508.48,671.3094 528.4646,687.3696 545.6846,702.9796 " fill="none" id="Svc-to-DA" style="stroke:#181818;stroke-width:1.0;stroke-dasharray:7.0,7.0;"/><polygon fill="#181818" points="550.13,707.0094,546.1485,698.0012,546.4255,703.6513,540.7755,703.9283,550.13,707.0094" style="stroke:#181818;stroke-width:1.0;"/><text fill="#000000" font-family="sans-serif" font-size="13" lengthAdjust="spacing" textLength="107" x="469" y="646.6045">create assignment</text></g><!--link Svc to Log--><g id="link_Svc_Log"><path d="M232.68,584.0994 C319.4,590.7294 463.52,604.9094 585,632.1094 C621.07,640.1894 632.2,639.2694 664,658.1094 C685.89,671.0794 702.6424,686.7786 717.1024,702.4586 " fill="none" id="Svc-to-Log" style="stroke:#181818;stroke-width:1.0;stroke-dasharray:7.0,7.0;"/><polygon fill="#181818" points="721.17,706.8694,718.0091,697.5415,717.7804,703.1937,712.1281,702.965,721.17,706.8694" style="stroke:#181818;stroke-width:1.0;"/><text fill="#000000" font-family="sans-serif" font-size="13" lengthAdjust="spacing" textLength="88" x="649" y="646.6045">record decision</text></g><!--link Vvn to GMN23--><g id="link_Vvn_GMN23"><path d="M398.22,706.8094 C420.54,682.0794 458.98,645.2794 501.5,630.1094 C591.08,598.1394 838.27,603.2294 929.5,630.1094 C976.65,643.9994 1022.98,676.9994 1052.84,701.5294 " fill="none" id="Vvn-GMN23" style="stroke:#181818;stroke-width:1.0;stroke-dasharray:7.0,7.0;"/></g><!--link DA to GMN26--><g id="link_DA_GMN26"><path d="M591.1,706.8894 C610.15,682.2094 643.46,645.4694 682.5,630.1094 C736.78,608.7494 1152.37,611.0394 1207.5,630.1094 C1243.84,642.6794 1277.71,670.2394 1301.54,693.3994 " fill="none" id="DA-GMN26" style="stroke:#181818;stroke-width:1.0;stroke-dasharray:7.0,7.0;"/></g><!--SRC=[VLBBZXf13BpFLrYSG14WhI95siDAiy21Q0E8n-IGvD3CUA2JeOsw7T0goZKVa4_CbyJkwLt8hfGJJLNPPPU7BJS8exSm8iV6ElJGXyqARWOtWtUG7u-UJZXSubSi6OfYbcMcPFBGMP1doB_pdhpbnyzkNjUsHDy14o2ziynHXT0PDHOTmuDvLFv71l1fCuKXv8ifjDmNhMgVsS-die-uLKcgA304R0eRBC-8hHWOjkI2pksfQT2tJRYvT93ncwJxn_sgrmhzIMQDjQjJgUoOoczv27Rd3ZBFjK0P5Ob1PTXiJH2J1VfW0wChCIu_tYRtCHqaq1QZmt-tYDsBatjjt_hcaS1IwiWzq2wYygkJfB2XtxzB4S8jU3nPFEl1GfR0o7CZv6A-MeD9f_Nnj9aogf3rHF62L539jByAue1G2G1TMpyLLBsBTYkoOviDL6dqo0u6TxghqEoDaoJqF84DupCzpeKjFGgMh3IBPresZpkMvAjBRubTvDxkzWnKfpXNslVAADmgkBd_C5sl9sFuy-ktV6EBvRoGFzqtSQ7UAyLoyduoMhSA6IgGwsNeAb33bxRnLXeKN8wedlq8niSzUju3smF2sRgApj2jFHs6JBt8pmWaIz-OOm3JD7J6wcBt5m00]--></g></svg>