<?xml version="1.0" encoding="us-ascii" standalone="no"?><svg xmlns="http://www.w3.org/2000/svg" xmlns:xlink="http://www.w3.org/1999/xlink" contentStyleType="text/css" height="1243px" preserveAspectRatio="none" style="width:2318px;height:1243px;background:#FFFFFF;" version="1.1" viewBox="0 0 2318 1243" width="2318px" zoomAndPan="magnify"><defs/><g><text fill="#000000" font-family="sans-serif" font-size="14" font-weight="bold" lengthAdjust="spacing" textLength="417" x="943.75" y="24.5332">Domain Model - US 2.2.7 (Review and Approve/Reject VVNs)</text><!--class VesselVisitNotification--><g id="elem_VesselVisitNotification"><rect codeLine="3" fill="#F1F1F1" height="375.6719" id="VesselVisitNotification" rx="2.5" ry="2.5" style="stroke:#181818;stroke-width:0.5;" width="384" x="668" y="358.6094"/><ellipse cx="787.25" cy="379.9609" fill="#ADD1B2" rx="11" ry="11" style="stroke:#181818;stroke-width:1.0;"/><path d="M790.0156,375.8359 Q790.1719,375.6172 790.3594,375.5078 Q790.5469,375.3984 790.7656,375.3984 Q791.1406,375.3984 791.375,375.6641 Q791.6094,375.9141 791.6094,376.5234 L791.6094,377.9766 Q791.6094,378.5859 791.375,378.8516 Q791.1406,379.1172 790.7656,379.1172 Q790.4219,379.1172 790.2188,378.9141 Q790.0156,378.7266 789.9063,378.2109 Q789.8594,377.8516 789.6719,377.6641 Q789.3438,377.2891 788.7344,377.0703 Q788.125,376.8516 787.5,376.8516 Q786.7344,376.8516 786.0938,377.1797 Q785.4688,377.5078 784.9688,378.2578 Q784.4844,379.0078 784.4844,380.0391 L784.4844,381.1328 Q784.4844,382.3672 785.375,383.1953 Q786.2656,384.0078 787.8594,384.0078 Q788.7969,384.0078 789.4531,383.7578 Q789.8438,383.6016 790.2656,383.1641 Q790.5313,382.8984 790.6719,382.8203 Q790.8281,382.7422 791.0313,382.7422 Q791.3594,382.7422 791.6094,383.0078 Q791.875,383.2578 791.875,383.6016 Q791.875,383.9453 791.5313,384.3516 Q791.0313,384.9297 790.2344,385.2578 Q789.1563,385.7109 787.8594,385.7109 Q786.3438,385.7109 785.1406,385.0859 Q784.1563,384.5859 783.4688,383.5234 Q782.7813,382.4453 782.7813,381.1641 L782.7813,380.0078 Q782.7813,378.6797 783.3906,377.5391 Q784.0156,376.3828 785.1094,375.7734 Q786.2031,375.1484 787.4375,375.1484 Q788.1719,375.1484 788.8125,375.3203 Q789.4688,375.4766 790.0156,375.8359 Z " fill="#000000"/><text fill="#000000" font-family="sans-serif" font-size="12" font-style="italic" lengthAdjust="spacing" textLength="100" x="826.25" y="376.0664">&#171;Aggregate Root&#187;</text><text fill="#000000" font-family="sans-serif" font-size="14" lengthAdjust="spacing" textLength="137" x="807.75" y="393.2363">VesselVisitNotification</text><line style="stroke:#181818;stroke-width:0.5;" x1="669" x2="1051" y1="401.3125" y2="401.3125"/><ellipse cx="679" cy="415.6172" fill="none" rx="3" ry="3" style="stroke:#038048;stroke-width:1.0;"/><text fill="#000000" font-family="sans-serif" font-size="14" lengthAdjust="spacing" textLength="96" x="688" y="419.8457">VvnGuid : Guid</text><ellipse cx="679" cy="433.2266" fill="none" rx="3" ry="3" style="stroke:#038048;stroke-width:1.0;"/><text fill="#000000" font-family="sans-serif" font-size="14" lengthAdjust="spacing" textLength="139" x="688" y="437.4551">VvnBusinessId : string</text><ellipse cx="679" cy="450.8359" fill="none" rx="3" ry="3" style="stroke:#038048;stroke-width:1.0;"/><text fill="#000000" font-family="sans-serif" font-size="14" lengthAdjust="spacing" textLength="105" x="688" y="455.0645">State : VVNState</text><ellipse cx="679" cy="468.4453" fill="none" rx="3" ry="3" style="stroke:#038048;stroke-width:1.0;"/><text fill="#000000" font-family="sans-serif" font-size="14" lengthAdjust="spacing" textLength="111" x="688" y="472.6738">VesselImo : string</text><ellipse cx="679" cy="486.0547" fill="none" rx="3" ry="3" style="stroke:#038048;stroke-width:1.0;"/><text fill="#000000" font-family="sans-serif" font-size="14" lengthAdjust="spacing" textLength="170" x="688" y="490.2832">VisitPurpose : VisitPurpose</text><ellipse cx="679" cy="503.6641" fill="none" rx="3" ry="3" style="stroke:#038048;stroke-width:1.0;"/><text fill="#000000" font-family="sans-serif" font-size="14" lengthAdjust="spacing" textLength="94" x="688" y="507.8926">Eta : DateTime</text><ellipse cx="679" cy="521.2734" fill="none" rx="3" ry="3" style="stroke:#038048;stroke-width:1.0;"/><text fill="#000000" font-family="sans-serif" font-size="14" lengthAdjust="spacing" textLength="94" x="688" y="525.502">Etd : DateTime</text><ellipse cx="679" cy="538.8828" fill="none" rx="3" ry="3" style="stroke:#038048;stroke-width:1.0;"/><text fill="#000000" font-family="sans-serif" font-size="14" lengthAdjust="spacing" textLength="194" x="688" y="543.1113">OrganizationId : OrganizationId</text><ellipse cx="679" cy="556.4922" fill="none" rx="3" ry="3" style="stroke:#038048;stroke-width:1.0;"/><text fill="#000000" font-family="sans-serif" font-size="14" lengthAdjust="spacing" textLength="150" x="688" y="560.7207">SubmittedById : UserId?</text><ellipse cx="679" cy="574.1016" fill="none" rx="3" ry="3" style="stroke:#038048;stroke-width:1.0;"/><text fill="#000000" font-family="sans-serif" font-size="14" lengthAdjust="spacing" textLength="157" x="688" y="578.3301">SubmittedAt : DateTime?</text><ellipse cx="679" cy="591.7109" fill="none" rx="3" ry="3" style="stroke:#038048;stroke-width:1.0;"/><text fill="#000000" font-family="sans-serif" font-size="14" lengthAdjust="spacing" textLength="148" x="688" y="595.9395">ApprovedById : UserId?</text><ellipse cx="679" cy="609.3203" fill="none" rx="3" ry="3" style="stroke:#038048;stroke-width:1.0;"/><text fill="#000000" font-family="sans-serif" font-size="14" lengthAdjust="spacing" textLength="155" x="688" y="613.5488">ApprovedAt : DateTime?</text><ellipse cx="679" cy="626.9297" fill="none" rx="3" ry="3" style="stroke:#038048;stroke-width:1.0;"/><text fill="#000000" font-family="sans-serif" font-size="14" lengthAdjust="spacing" textLength="143" x="688" y="631.1582">RejectedById : UserId?</text><ellipse cx="679" cy="644.5391" fill="none" rx="3" ry="3" style="stroke:#038048;stroke-width:1.0;"/><text fill="#000000" font-family="sans-serif" font-size="14" lengthAdjust="spacing" textLength="150" x="688" y="648.7676">RejectedAt : DateTime?</text><ellipse cx="679" cy="662.1484" fill="none" rx="3" ry="3" style="stroke:#038048;stroke-width:1.0;"/><text fill="#000000" font-family="sans-serif" font-size="14" lengthAdjust="spacing" textLength="163" x="688" y="666.377">RejectionReason : string?</text><ellipse cx="679" cy="679.7578" fill="none" rx="3" ry="3" style="stroke:#038048;stroke-width:1.0;"/><text fill="#000000" font-family="sans-serif" font-size="14" lengthAdjust="spacing" textLength="230" x="688" y="683.9863">DockAssignment : DockAssignment?</text><line style="stroke:#181818;stroke-width:1.0;" x1="669" x2="1051" y1="691.0625" y2="691.0625"/><ellipse cx="679" cy="705.3672" fill="#84BE84" rx="3" ry="3" style="stroke:#038048;stroke-width:1.0;"/><text fill="#000000" font-family="sans-serif" font-size="14" lengthAdjust="spacing" textLength="358" x="688" y="709.5957">Approve(approver:UserId, dockAssignmentId:Guid) : void</text><ellipse cx="679" cy="722.9766" fill="#84BE84" rx="3" ry="3" style="stroke:#038048;stroke-width:1.0;"/><text fill="#000000" font-family="sans-serif" font-size="14" lengthAdjust="spacing" textLength="271" x="688" y="727.2051">Reject(rejector:UserId, reason:string) : void</text></g><!--class VVNState--><g id="elem_VVNState"><rect codeLine="25" fill="#F1F1F1" height="136.0469" id="VVNState" rx="2.5" ry="2.5" style="stroke:#181818;stroke-width:0.5;" width="94" x="931" y="853.1094"/><ellipse cx="946.9" cy="869.1094" fill="#EB937F" rx="11" ry="11" style="stroke:#181818;stroke-width:1.0;"/><path d="M945.7594,869.9063 L945.7594,872.4063 L950.0875,872.4063 L950.0875,871.4844 Q950.0875,870.875 950.3219,870.6094 Q950.5719,870.3438 950.9469,870.3438 Q951.3219,870.3438 951.5563,870.6094 Q951.7906,870.875 951.7906,871.4844 L951.7906,874.1094 L943.7906,874.1094 Q943.1656,874.1094 942.9,873.875 Q942.65,873.6406 942.65,873.25 Q942.65,872.875 942.9156,872.6406 Q943.1813,872.4063 943.7906,872.4063 L944.0563,872.4063 L944.0563,865.75 L943.7906,865.75 Q943.1656,865.75 942.9,865.5156 Q942.65,865.2813 942.65,864.8906 Q942.65,864.5156 942.9,864.2813 Q943.1656,864.0469 943.7906,864.0469 L951.4156,864.0469 L951.4156,866.6406 Q951.4156,867.25 951.1813,867.5156 Q950.9625,867.7656 950.5719,867.7656 Q950.1969,867.7656 949.9625,867.5156 Q949.7281,867.25 949.7281,866.6406 L949.7281,865.75 L945.7594,865.75 L945.7594,868.2031 L947.2438,868.2031 Q947.2438,867.5469 947.3688,867.3594 Q947.6344,866.9531 948.1031,866.9531 Q948.4781,866.9531 948.7125,867.2188 Q948.9469,867.4688 948.9469,868.0781 L948.9469,870.0469 Q948.9469,870.5938 948.8219,870.7813 Q948.5563,871.1719 948.1031,871.1719 Q947.6344,871.1719 947.3688,870.7656 Q947.2438,870.5781 947.2438,869.9063 L945.7594,869.9063 Z " fill="#000000"/><text fill="#000000" font-family="sans-serif" font-size="14" lengthAdjust="spacing" textLength="60" x="961.1" y="874.8379">VVNState</text><line style="stroke:#181818;stroke-width:0.5;" x1="932" x2="1024" y1="885.1094" y2="885.1094"/><text fill="#000000" font-family="sans-serif" font-size="14" lengthAdjust="spacing" textLength="47" x="937" y="903.6426">DRAFT</text><text fill="#000000" font-family="sans-serif" font-size="14" lengthAdjust="spacing" textLength="78" x="937" y="921.252">SUBMITTED</text><text fill="#000000" font-family="sans-serif" font-size="14" lengthAdjust="spacing" textLength="76" x="937" y="938.8613">APPROVED</text><text fill="#000000" font-family="sans-serif" font-size="14" lengthAdjust="spacing" textLength="72" x="937" y="956.4707">REJECTED</text><text fill="#000000" font-family="sans-serif" font-size="14" lengthAdjust="spacing" textLength="82" x="937" y="974.0801">CANCELLED</text><line style="stroke:#181818;stroke-width:0.5;" x1="932" x2="1024" y1="981.1563" y2="981.1563"/></g><!--class DecisionLog--><g id="elem_DecisionLog"><rect codeLine="33" fill="#F1F1F1" height="234.7969" id="DecisionLog" rx="2.5" ry="2.5" style="stroke:#181818;stroke-width:0.5;" width="696" x="512" y="45.6094"/><ellipse cx="816.75" cy="66.9609" fill="#ADD1B2" rx="11" ry="11" style="stroke:#181818;stroke-width:1.0;"/><path d="M819.5156,62.8359 Q819.6719,62.6172 819.8594,62.5078 Q820.0469,62.3984 820.2656,62.3984 Q820.6406,62.3984 820.875,62.6641 Q821.1094,62.9141 821.1094,63.5234 L821.1094,64.9766 Q821.1094,65.5859 820.875,65.8516 Q820.6406,66.1172 820.2656,66.1172 Q819.9219,66.1172 819.7188,65.9141 Q819.5156,65.7266 819.4063,65.2109 Q819.3594,64.8516 819.1719,64.6641 Q818.8438,64.2891 818.2344,64.0703 Q817.625,63.8516 817,63.8516 Q816.2344,63.8516 815.5938,64.1797 Q814.9688,64.5078 814.4688,65.2578 Q813.9844,66.0078 813.9844,67.0391 L813.9844,68.1328 Q813.9844,69.3672 814.875,70.1953 Q815.7656,71.0078 817.3594,71.0078 Q818.2969,71.0078 818.9531,70.7578 Q819.3438,70.6016 819.7656,70.1641 Q820.0313,69.8984 820.1719,69.8203 Q820.3281,69.7422 820.5313,69.7422 Q820.8594,69.7422 821.1094,70.0078 Q821.375,70.2578 821.375,70.6016 Q821.375,70.9453 821.0313,71.3516 Q820.5313,71.9297 819.7344,72.2578 Q818.6563,72.7109 817.3594,72.7109 Q815.8438,72.7109 814.6406,72.0859 Q813.6563,71.5859 812.9688,70.5234 Q812.2813,69.4453 812.2813,68.1641 L812.2813,67.0078 Q812.2813,65.6797 812.8906,64.5391 Q813.5156,63.3828 814.6094,62.7734 Q815.7031,62.1484 816.9375,62.1484 Q817.6719,62.1484 818.3125,62.3203 Q818.9688,62.4766 819.5156,62.8359 Z " fill="#000000"/><text fill="#000000" font-family="sans-serif" font-size="12" font-style="italic" lengthAdjust="spacing" textLength="44" x="854.25" y="63.0664">&#171;Entity&#187;</text><text fill="#000000" font-family="sans-serif" font-size="14" lengthAdjust="spacing" textLength="78" x="837.25" y="80.2363">DecisionLog</text><line style="stroke:#181818;stroke-width:0.5;" x1="513" x2="1207" y1="88.3125" y2="88.3125"/><ellipse cx="523" cy="102.6172" fill="none" rx="3" ry="3" style="stroke:#038048;stroke-width:1.0;"/><text fill="#000000" font-family="sans-serif" font-size="14" lengthAdjust="spacing" textLength="131" x="532" y="106.8457">DecisionLogId : Guid</text><ellipse cx="523" cy="120.2266" fill="none" rx="3" ry="3" style="stroke:#038048;stroke-width:1.0;"/><text fill="#000000" font-family="sans-serif" font-size="14" lengthAdjust="spacing" textLength="96" x="532" y="124.4551">VvnGuid : Guid</text><ellipse cx="523" cy="137.8359" fill="none" rx="3" ry="3" style="stroke:#038048;stroke-width:1.0;"/><text fill="#000000" font-family="sans-serif" font-size="14" lengthAdjust="spacing" textLength="180" x="532" y="142.0645">Outcome : DecisionOutcome</text><ellipse cx="523" cy="155.4453" fill="none" rx="3" ry="3" style="stroke:#038048;stroke-width:1.0;"/><text fill="#000000" font-family="sans-serif" font-size="14" lengthAdjust="spacing" textLength="134" x="532" y="159.6738">OfficerUserId : UserId</text><ellipse cx="523" cy="173.0547" fill="none" rx="3" ry="3" style="stroke:#038048;stroke-width:1.0;"/><text fill="#000000" font-family="sans-serif" font-size="14" lengthAdjust="spacing" textLength="106" x="532" y="177.2832">AtUtc : DateTime</text><ellipse cx="523" cy="190.6641" fill="none" rx="3" ry="3" style="stroke:#038048;stroke-width:1.0;"/><text fill="#000000" font-family="sans-serif" font-size="14" lengthAdjust="spacing" textLength="166" x="532" y="194.8926">DockAssignmentId : Guid?</text><ellipse cx="523" cy="208.2734" fill="none" rx="3" ry="3" style="stroke:#038048;stroke-width:1.0;"/><text fill="#000000" font-family="sans-serif" font-size="14" lengthAdjust="spacing" textLength="104" x="532" y="212.502">Reason : string?</text><ellipse cx="523" cy="225.8828" fill="none" rx="3" ry="3" style="stroke:#038048;stroke-width:1.0;"/><text fill="#000000" font-family="sans-serif" font-size="14" lengthAdjust="spacing" textLength="91" x="532" y="230.1113">Notes : string?</text><line style="stroke:#181818;stroke-width:1.0;" x1="513" x2="1207" y1="237.1875" y2="237.1875"/><ellipse cx="523" cy="251.4922" fill="#84BE84" rx="3" ry="3" style="stroke:#038048;stroke-width:1.0;"/><text fill="#000000" font-family="sans-serif" font-size="14" lengthAdjust="spacing" text-decoration="underline" textLength="670" x="532" y="255.7207">Approved(vvnId:Guid, officer:UserId, dockAssignmentId:Guid, atUtc:DateTime, notes:string?) : DecisionLog</text><ellipse cx="523" cy="269.1016" fill="#84BE84" rx="3" ry="3" style="stroke:#038048;stroke-width:1.0;"/><text fill="#000000" font-family="sans-serif" font-size="14" lengthAdjust="spacing" text-decoration="underline" textLength="600" x="532" y="273.3301">Rejected(vvnId:Guid, officer:UserId, reason:string, atUtc:DateTime, notes:string?) : DecisionLog</text></g><!--class DecisionOutcome--><g id="elem_DecisionOutcome"><rect codeLine="47" fill="#F1F1F1" height="83.2188" id="DecisionOutcome" rx="2.5" ry="2.5" style="stroke:#181818;stroke-width:0.5;" width="143" x="1440.5" y="505.1094"/><ellipse cx="1455.5" cy="521.1094" fill="#EB937F" rx="11" ry="11" style="stroke:#181818;stroke-width:1.0;"/><path d="M1454.3594,521.9063 L1454.3594,524.4063 L1458.6875,524.4063 L1458.6875,523.4844 Q1458.6875,522.875 1458.9219,522.6094 Q1459.1719,522.3438 1459.5469,522.3438 Q1459.9219,522.3438 1460.1563,522.6094 Q1460.3906,522.875 1460.3906,523.4844 L1460.3906,526.1094 L1452.3906,526.1094 Q1451.7656,526.1094 1451.5,525.875 Q1451.25,525.6406 1451.25,525.25 Q1451.25,524.875 1451.5156,524.6406 Q1451.7813,524.4063 1452.3906,524.4063 L1452.6563,524.4063 L1452.6563,517.75 L1452.3906,517.75 Q1451.7656,517.75 1451.5,517.5156 Q1451.25,517.2813 1451.25,516.8906 Q1451.25,516.5156 1451.5,516.2813 Q1451.7656,516.0469 1452.3906,516.0469 L1460.0156,516.0469 L1460.0156,518.6406 Q1460.0156,519.25 1459.7813,519.5156 Q1459.5625,519.7656 1459.1719,519.7656 Q1458.7969,519.7656 1458.5625,519.5156 Q1458.3281,519.25 1458.3281,518.6406 L1458.3281,517.75 L1454.3594,517.75 L1454.3594,520.2031 L1455.8438,520.2031 Q1455.8438,519.5469 1455.9688,519.3594 Q1456.2344,518.9531 1456.7031,518.9531 Q1457.0781,518.9531 1457.3125,519.2188 Q1457.5469,519.4688 1457.5469,520.0781 L1457.5469,522.0469 Q1457.5469,522.5938 1457.4219,522.7813 Q1457.1563,523.1719 1456.7031,523.1719 Q1456.2344,523.1719 1455.9688,522.7656 Q1455.8438,522.5781 1455.8438,521.9063 L1454.3594,521.9063 Z " fill="#000000"/><text fill="#000000" font-family="sans-serif" font-size="14" lengthAdjust="spacing" textLength="111" x="1469.5" y="526.8379">DecisionOutcome</text><line style="stroke:#181818;stroke-width:0.5;" x1="1441.5" x2="1582.5" y1="537.1094" y2="537.1094"/><text fill="#000000" font-family="sans-serif" font-size="14" lengthAdjust="spacing" textLength="85" x="1446.5" y="555.6426">Approved = 1</text><text fill="#000000" font-family="sans-serif" font-size="14" lengthAdjust="spacing" textLength="80" x="1446.5" y="573.252">Rejected = 2</text><line style="stroke:#181818;stroke-width:0.5;" x1="1441.5" x2="1582.5" y1="580.3281" y2="580.3281"/></g><!--class DockAssignment--><g id="elem_DockAssignment"><rect codeLine="52" fill="#F1F1F1" height="217.1875" id="DockAssignment" rx="2.5" ry="2.5" style="stroke:#181818;stroke-width:0.5;" width="999" x="1060.5" y="812.6094"/><ellipse cx="1503.25" cy="833.9609" fill="#ADD1B2" rx="11" ry="11" style="stroke:#181818;stroke-width:1.0;"/><path d="M1506.0156,829.8359 Q1506.1719,829.6172 1506.3594,829.5078 Q1506.5469,829.3984 1506.7656,829.3984 Q1507.1406,829.3984 1507.375,829.6641 Q1507.6094,829.9141 1507.6094,830.5234 L1507.6094,831.9766 Q1507.6094,832.5859 1507.375,832.8516 Q1507.1406,833.1172 1506.7656,833.1172 Q1506.4219,833.1172 1506.2188,832.9141 Q1506.0156,832.7266 1505.9063,832.2109 Q1505.8594,831.8516 1505.6719,831.6641 Q1505.3438,831.2891 1504.7344,831.0703 Q1504.125,830.8516 1503.5,830.8516 Q1502.7344,830.8516 1502.0938,831.1797 Q1501.4688,831.5078 1500.9688,832.2578 Q1500.4844,833.0078 1500.4844,834.0391 L1500.4844,835.1328 Q1500.4844,836.3672 1501.375,837.1953 Q1502.2656,838.0078 1503.8594,838.0078 Q1504.7969,838.0078 1505.4531,837.7578 Q1505.8438,837.6016 1506.2656,837.1641 Q1506.5313,836.8984 1506.6719,836.8203 Q1506.8281,836.7422 1507.0313,836.7422 Q1507.3594,836.7422 1507.6094,837.0078 Q1507.875,837.2578 1507.875,837.6016 Q1507.875,837.9453 1507.5313,838.3516 Q1507.0313,838.9297 1506.2344,839.2578 Q1505.1563,839.7109 1503.8594,839.7109 Q1502.3438,839.7109 1501.1406,839.0859 Q1500.1563,838.5859 1499.4688,837.5234 Q1498.7813,836.4453 1498.7813,835.1641 L1498.7813,834.0078 Q1498.7813,832.6797 1499.3906,831.5391 Q1500.0156,830.3828 1501.1094,829.7734 Q1502.2031,829.1484 1503.4375,829.1484 Q1504.1719,829.1484 1504.8125,829.3203 Q1505.4688,829.4766 1506.0156,829.8359 Z " fill="#000000"/><text fill="#000000" font-family="sans-serif" font-size="12" font-style="italic" lengthAdjust="spacing" textLength="44" x="1554.25" y="830.0664">&#171;Entity&#187;</text><text fill="#000000" font-family="sans-serif" font-size="14" lengthAdjust="spacing" textLength="105" x="1523.75" y="847.2363">DockAssignment</text><line style="stroke:#181818;stroke-width:0.5;" x1="1061.5" x2="2058.5" y1="855.3125" y2="855.3125"/><ellipse cx="1071.5" cy="869.6172" fill="none" rx="3" ry="3" style="stroke:#038048;stroke-width:1.0;"/><text fill="#000000" font-family="sans-serif" font-size="14" lengthAdjust="spacing" textLength="158" x="1080.5" y="873.8457">DockAssignmentId : Guid</text><ellipse cx="1071.5" cy="887.2266" fill="none" rx="3" ry="3" style="stroke:#038048;stroke-width:1.0;"/><text fill="#000000" font-family="sans-serif" font-size="14" lengthAdjust="spacing" textLength="77" x="1080.5" y="891.4551">VvnId : Guid</text><ellipse cx="1071.5" cy="904.8359" fill="none" rx="3" ry="3" style="stroke:#038048;stroke-width:1.0;"/><text fill="#000000" font-family="sans-serif" font-size="14" lengthAdjust="spacing" textLength="113" x="1080.5" y="909.0645">DockCode : string</text><ellipse cx="1071.5" cy="922.4453" fill="none" rx="3" ry="3" style="stroke:#038048;stroke-width:1.0;"/><text fill="#000000" font-family="sans-serif" font-size="14" lengthAdjust="spacing" textLength="140" x="1080.5" y="926.6738">BerthFrom : DateTime</text><ellipse cx="1071.5" cy="940.0547" fill="none" rx="3" ry="3" style="stroke:#038048;stroke-width:1.0;"/><text fill="#000000" font-family="sans-serif" font-size="14" lengthAdjust="spacing" textLength="124" x="1080.5" y="944.2832">BerthTo : DateTime</text><ellipse cx="1071.5" cy="957.6641" fill="none" rx="3" ry="3" style="stroke:#038048;stroke-width:1.0;"/><text fill="#000000" font-family="sans-serif" font-size="14" lengthAdjust="spacing" textLength="161" x="1080.5" y="961.8926">AssignedByUserId : string</text><ellipse cx="1071.5" cy="975.2734" fill="none" rx="3" ry="3" style="stroke:#038048;stroke-width:1.0;"/><text fill="#000000" font-family="sans-serif" font-size="14" lengthAdjust="spacing" textLength="144" x="1080.5" y="979.502">AssignedAt : DateTime</text><ellipse cx="1071.5" cy="992.8828" fill="none" rx="3" ry="3" style="stroke:#038048;stroke-width:1.0;"/><text fill="#000000" font-family="sans-serif" font-size="14" lengthAdjust="spacing" textLength="197" x="1080.5" y="997.1113">Status : DockAssignmentStatus</text><line style="stroke:#181818;stroke-width:1.0;" x1="1061.5" x2="2058.5" y1="1004.1875" y2="1004.1875"/><ellipse cx="1071.5" cy="1018.4922" fill="#84BE84" rx="3" ry="3" style="stroke:#038048;stroke-width:1.0;"/><text fill="#000000" font-family="sans-serif" font-size="14" lengthAdjust="spacing" text-decoration="underline" textLength="973" x="1080.5" y="1022.7207">Create(vvnId:Guid, dockCode:string, berthFromUtc:DateTime, berthToUtc:DateTime, assignedByUserId:string, assignedAtUtc:DateTime) : DockAssignment</text></g><!--class DockAssignmentStatus--><g id="elem_DockAssignmentStatus"><rect codeLine="65" fill="#F1F1F1" height="100.8281" id="DockAssignmentStatus" rx="2.5" ry="2.5" style="stroke:#181818;stroke-width:0.5;" width="177" x="1375.5" y="1121.6094"/><ellipse cx="1390.5" cy="1137.6094" fill="#EB937F" rx="11" ry="11" style="stroke:#181818;stroke-width:1.0;"/><path d="M1389.3594,1138.4063 L1389.3594,1140.9063 L1393.6875,1140.9063 L1393.6875,1139.9844 Q1393.6875,1139.375 1393.9219,1139.1094 Q1394.1719,1138.8438 1394.5469,1138.8438 Q1394.9219,1138.8438 1395.1563,1139.1094 Q1395.3906,1139.375 1395.3906,1139.9844 L1395.3906,1142.6094 L1387.3906,1142.6094 Q1386.7656,1142.6094 1386.5,1142.375 Q1386.25,1142.1406 1386.25,1141.75 Q1386.25,1141.375 1386.5156,1141.1406 Q1386.7813,1140.9063 1387.3906,1140.9063 L1387.6563,1140.9063 L1387.6563,1134.25 L1387.3906,1134.25 Q1386.7656,1134.25 1386.5,1134.0156 Q1386.25,1133.7813 1386.25,1133.3906 Q1386.25,1133.0156 1386.5,1132.7813 Q1386.7656,1132.5469 1387.3906,1132.5469 L1395.0156,1132.5469 L1395.0156,1135.1406 Q1395.0156,1135.75 1394.7813,1136.0156 Q1394.5625,1136.2656 1394.1719,1136.2656 Q1393.7969,1136.2656 1393.5625,1136.0156 Q1393.3281,1135.75 1393.3281,1135.1406 L1393.3281,1134.25 L1389.3594,1134.25 L1389.3594,1136.7031 L1390.8438,1136.7031 Q1390.8438,1136.0469 1390.9688,1135.8594 Q1391.2344,1135.4531 1391.7031,1135.4531 Q1392.0781,1135.4531 1392.3125,1135.7188 Q1392.5469,1135.9688 1392.5469,1136.5781 L1392.5469,1138.5469 Q1392.5469,1139.0938 1392.4219,1139.2813 Q1392.1563,1139.6719 1391.7031,1139.6719 Q1391.2344,1139.6719 1390.9688,1139.2656 Q1390.8438,1139.0781 1390.8438,1138.4063 L1389.3594,1138.4063 Z " fill="#000000"/><text fill="#000000" font-family="sans-serif" font-size="14" lengthAdjust="spacing" textLength="145" x="1404.5" y="1143.3379">DockAssignmentStatus</text><line style="stroke:#181818;stroke-width:0.5;" x1="1376.5" x2="1551.5" y1="1153.6094" y2="1153.6094"/><text fill="#000000" font-family="sans-serif" font-size="14" lengthAdjust="spacing" textLength="49" x="1381.5" y="1172.1426">ACTIVE</text><text fill="#000000" font-family="sans-serif" font-size="14" lengthAdjust="spacing" textLength="86" x="1381.5" y="1189.752">COMPLETED</text><text fill="#000000" font-family="sans-serif" font-size="14" lengthAdjust="spacing" textLength="82" x="1381.5" y="1207.3613">CANCELLED</text><line style="stroke:#181818;stroke-width:0.5;" x1="1376.5" x2="1551.5" y1="1214.4375" y2="1214.4375"/></g><!--class Dock--><g id="elem_Dock"><rect codeLine="71" fill="#F1F1F1" height="129.1406" id="Dock" rx="2.5" ry="2.5" style="stroke:#181818;stroke-width:0.5;" width="134" x="1588" y="1107.6094"/><ellipse cx="1630.9" cy="1128.9609" fill="#ADD1B2" rx="11" ry="11" style="stroke:#181818;stroke-width:1.0;"/><path d="M1633.6656,1124.8359 Q1633.8219,1124.6172 1634.0094,1124.5078 Q1634.1969,1124.3984 1634.4156,1124.3984 Q1634.7906,1124.3984 1635.025,1124.6641 Q1635.2594,1124.9141 1635.2594,1125.5234 L1635.2594,1126.9766 Q1635.2594,1127.5859 1635.025,1127.8516 Q1634.7906,1128.1172 1634.4156,1128.1172 Q1634.0719,1128.1172 1633.8688,1127.9141 Q1633.6656,1127.7266 1633.5563,1127.2109 Q1633.5094,1126.8516 1633.3219,1126.6641 Q1632.9938,1126.2891 1632.3844,1126.0703 Q1631.775,1125.8516 1631.15,1125.8516 Q1630.3844,1125.8516 1629.7438,1126.1797 Q1629.1188,1126.5078 1628.6188,1127.2578 Q1628.1344,1128.0078 1628.1344,1129.0391 L1628.1344,1130.1328 Q1628.1344,1131.3672 1629.025,1132.1953 Q1629.9156,1133.0078 1631.5094,1133.0078 Q1632.4469,1133.0078 1633.1031,1132.7578 Q1633.4938,1132.6016 1633.9156,1132.1641 Q1634.1813,1131.8984 1634.3219,1131.8203 Q1634.4781,1131.7422 1634.6813,1131.7422 Q1635.0094,1131.7422 1635.2594,1132.0078 Q1635.525,1132.2578 1635.525,1132.6016 Q1635.525,1132.9453 1635.1813,1133.3516 Q1634.6813,1133.9297 1633.8844,1134.2578 Q1632.8063,1134.7109 1631.5094,1134.7109 Q1629.9938,1134.7109 1628.7906,1134.0859 Q1627.8063,1133.5859 1627.1188,1132.5234 Q1626.4313,1131.4453 1626.4313,1130.1641 L1626.4313,1129.0078 Q1626.4313,1127.6797 1627.0406,1126.5391 Q1627.6656,1125.3828 1628.7594,1124.7734 Q1629.8531,1124.1484 1631.0875,1124.1484 Q1631.8219,1124.1484 1632.4625,1124.3203 Q1633.1188,1124.4766 1633.6656,1124.8359 Z " fill="#000000"/><text fill="#000000" font-family="sans-serif" font-size="12" font-style="italic" lengthAdjust="spacing" textLength="44" x="1649.1" y="1125.0664">&#171;Entity&#187;</text><text fill="#000000" font-family="sans-serif" font-size="14" lengthAdjust="spacing" textLength="32" x="1655.1" y="1142.2363">Dock</text><line style="stroke:#181818;stroke-width:0.5;" x1="1589" x2="1721" y1="1150.3125" y2="1150.3125"/><ellipse cx="1599" cy="1164.6172" fill="none" rx="3" ry="3" style="stroke:#038048;stroke-width:1.0;"/><text fill="#000000" font-family="sans-serif" font-size="14" lengthAdjust="spacing" textLength="81" x="1608" y="1168.8457">Code : string</text><ellipse cx="1599" cy="1182.2266" fill="none" rx="3" ry="3" style="stroke:#038048;stroke-width:1.0;"/><text fill="#000000" font-family="sans-serif" font-size="14" lengthAdjust="spacing" textLength="104" x="1608" y="1186.4551">Length : decimal</text><ellipse cx="1599" cy="1199.8359" fill="none" rx="3" ry="3" style="stroke:#038048;stroke-width:1.0;"/><text fill="#000000" font-family="sans-serif" font-size="14" lengthAdjust="spacing" textLength="98" x="1608" y="1204.0645">Depth : decimal</text><ellipse cx="1599" cy="1217.4453" fill="none" rx="3" ry="3" style="stroke:#038048;stroke-width:1.0;"/><text fill="#000000" font-family="sans-serif" font-size="14" lengthAdjust="spacing" textLength="108" x="1608" y="1221.6738">Type : DockType</text><line style="stroke:#181818;stroke-width:0.5;" x1="1589" x2="1721" y1="1228.75" y2="1228.75"/></g><!--class Organization--><g id="elem_Organization"><rect codeLine="78" fill="#F1F1F1" height="111.5313" id="Organization" rx="2.5" ry="2.5" style="stroke:#181818;stroke-width:0.5;" width="220" x="7" y="490.6094"/><ellipse cx="72.75" cy="511.9609" fill="#ADD1B2" rx="11" ry="11" style="stroke:#181818;stroke-width:1.0;"/><path d="M75.5156,507.8359 Q75.6719,507.6172 75.8594,507.5078 Q76.0469,507.3984 76.2656,507.3984 Q76.6406,507.3984 76.875,507.6641 Q77.1094,507.9141 77.1094,508.5234 L77.1094,509.9766 Q77.1094,510.5859 76.875,510.8516 Q76.6406,511.1172 76.2656,511.1172 Q75.9219,511.1172 75.7188,510.9141 Q75.5156,510.7266 75.4063,510.2109 Q75.3594,509.8516 75.1719,509.6641 Q74.8438,509.2891 74.2344,509.0703 Q73.625,508.8516 73,508.8516 Q72.2344,508.8516 71.5938,509.1797 Q70.9688,509.5078 70.4688,510.2578 Q69.9844,511.0078 69.9844,512.0391 L69.9844,513.1328 Q69.9844,514.3672 70.875,515.1953 Q71.7656,516.0078 73.3594,516.0078 Q74.2969,516.0078 74.9531,515.7578 Q75.3438,515.6016 75.7656,515.1641 Q76.0313,514.8984 76.1719,514.8203 Q76.3281,514.7422 76.5313,514.7422 Q76.8594,514.7422 77.1094,515.0078 Q77.375,515.2578 77.375,515.6016 Q77.375,515.9453 77.0313,516.3516 Q76.5313,516.9297 75.7344,517.2578 Q74.6563,517.7109 73.3594,517.7109 Q71.8438,517.7109 70.6406,517.0859 Q69.6563,516.5859 68.9688,515.5234 Q68.2813,514.4453 68.2813,513.1641 L68.2813,512.0078 Q68.2813,510.6797 68.8906,509.5391 Q69.5156,508.3828 70.6094,507.7734 Q71.7031,507.1484 72.9375,507.1484 Q73.6719,507.1484 74.3125,507.3203 Q74.9688,507.4766 75.5156,507.8359 Z " fill="#000000"/><text fill="#000000" font-family="sans-serif" font-size="12" font-style="italic" lengthAdjust="spacing" textLength="44" x="111.25" y="508.0664">&#171;Entity&#187;</text><text fill="#000000" font-family="sans-serif" font-size="14" lengthAdjust="spacing" textLength="80" x="93.25" y="525.2363">Organization</text><line style="stroke:#181818;stroke-width:0.5;" x1="8" x2="226" y1="533.3125" y2="533.3125"/><ellipse cx="18" cy="547.6172" fill="none" rx="3" ry="3" style="stroke:#038048;stroke-width:1.0;"/><text fill="#000000" font-family="sans-serif" font-size="14" lengthAdjust="spacing" textLength="194" x="27" y="551.8457">OrganizationId : OrganizationId</text><ellipse cx="18" cy="565.2266" fill="none" rx="3" ry="3" style="stroke:#038048;stroke-width:1.0;"/><text fill="#000000" font-family="sans-serif" font-size="14" lengthAdjust="spacing" textLength="118" x="27" y="569.4551">LegalName : string</text><ellipse cx="18" cy="582.8359" fill="none" rx="3" ry="3" style="stroke:#038048;stroke-width:1.0;"/><text fill="#000000" font-family="sans-serif" font-size="14" lengthAdjust="spacing" textLength="156" x="27" y="587.0645">Type : OrganizationType</text><line style="stroke:#181818;stroke-width:0.5;" x1="8" x2="226" y1="594.1406" y2="594.1406"/></g><!--class OrganizationType--><g id="elem_OrganizationType"><rect codeLine="84" fill="#F1F1F1" height="100.8281" id="OrganizationType" rx="2.5" ry="2.5" style="stroke:#181818;stroke-width:0.5;" width="144" x="26" y="870.6094"/><ellipse cx="41" cy="886.6094" fill="#EB937F" rx="11" ry="11" style="stroke:#181818;stroke-width:1.0;"/><path d="M39.8594,887.4063 L39.8594,889.9063 L44.1875,889.9063 L44.1875,888.9844 Q44.1875,888.375 44.4219,888.1094 Q44.6719,887.8438 45.0469,887.8438 Q45.4219,887.8438 45.6563,888.1094 Q45.8906,888.375 45.8906,888.9844 L45.8906,891.6094 L37.8906,891.6094 Q37.2656,891.6094 37,891.375 Q36.75,891.1406 36.75,890.75 Q36.75,890.375 37.0156,890.1406 Q37.2813,889.9063 37.8906,889.9063 L38.1563,889.9063 L38.1563,883.25 L37.8906,883.25 Q37.2656,883.25 37,883.0156 Q36.75,882.7813 36.75,882.3906 Q36.75,882.0156 37,881.7813 Q37.2656,881.5469 37.8906,881.5469 L45.5156,881.5469 L45.5156,884.1406 Q45.5156,884.75 45.2813,885.0156 Q45.0625,885.2656 44.6719,885.2656 Q44.2969,885.2656 44.0625,885.0156 Q43.8281,884.75 43.8281,884.1406 L43.8281,883.25 L39.8594,883.25 L39.8594,885.7031 L41.3438,885.7031 Q41.3438,885.0469 41.4688,884.8594 Q41.7344,884.4531 42.2031,884.4531 Q42.5781,884.4531 42.8125,884.7188 Q43.0469,884.9688 43.0469,885.5781 L43.0469,887.5469 Q43.0469,888.0938 42.9219,888.2813 Q42.6563,888.6719 42.2031,888.6719 Q41.7344,888.6719 41.4688,888.2656 Q41.3438,888.0781 41.3438,887.4063 L39.8594,887.4063 Z " fill="#000000"/><text fill="#000000" font-family="sans-serif" font-size="14" lengthAdjust="spacing" textLength="112" x="55" y="892.3379">OrganizationType</text><line style="stroke:#181818;stroke-width:0.5;" x1="27" x2="169" y1="902.6094" y2="902.6094"/><text fill="#000000" font-family="sans-serif" font-size="14" lengthAdjust="spacing" textLength="125" x="32" y="921.1426">PORT_AUTHORITY</text><text fill="#000000" font-family="sans-serif" font-size="14" lengthAdjust="spacing" textLength="117" x="32" y="938.752">SHIPPING_AGENT</text><text fill="#000000" font-family="sans-serif" font-size="14" lengthAdjust="spacing" textLength="125" x="32" y="956.3613">PORT_OPERATOR</text><line style="stroke:#181818;stroke-width:0.5;" x1="27" x2="169" y1="963.4375" y2="963.4375"/></g><!--class OrganizationId--><g id="elem_OrganizationId"><rect codeLine="90" fill="#F1F1F1" height="76.3125" id="OrganizationId" rx="2.5" ry="2.5" style="stroke:#181818;stroke-width:0.5;" width="123" x="376.5" y="883.1094"/><ellipse cx="391.5" cy="904.4609" fill="#ADD1B2" rx="11" ry="11" style="stroke:#181818;stroke-width:1.0;"/><path d="M394.2656,900.3359 Q394.4219,900.1172 394.6094,900.0078 Q394.7969,899.8984 395.0156,899.8984 Q395.3906,899.8984 395.625,900.1641 Q395.8594,900.4141 395.8594,901.0234 L395.8594,902.4766 Q395.8594,903.0859 395.625,903.3516 Q395.3906,903.6172 395.0156,903.6172 Q394.6719,903.6172 394.4688,903.4141 Q394.2656,903.2266 394.1563,902.7109 Q394.1094,902.3516 393.9219,902.1641 Q393.5938,901.7891 392.9844,901.5703 Q392.375,901.3516 391.75,901.3516 Q390.9844,901.3516 390.3438,901.6797 Q389.7188,902.0078 389.2188,902.7578 Q388.7344,903.5078 388.7344,904.5391 L388.7344,905.6328 Q388.7344,906.8672 389.625,907.6953 Q390.5156,908.5078 392.1094,908.5078 Q393.0469,908.5078 393.7031,908.2578 Q394.0938,908.1016 394.5156,907.6641 Q394.7813,907.3984 394.9219,907.3203 Q395.0781,907.2422 395.2813,907.2422 Q395.6094,907.2422 395.8594,907.5078 Q396.125,907.7578 396.125,908.1016 Q396.125,908.4453 395.7813,908.8516 Q395.2813,909.4297 394.4844,909.7578 Q393.4063,910.2109 392.1094,910.2109 Q390.5938,910.2109 389.3906,909.5859 Q388.4063,909.0859 387.7188,908.0234 Q387.0313,906.9453 387.0313,905.6641 L387.0313,904.5078 Q387.0313,903.1797 387.6406,902.0391 Q388.2656,900.8828 389.3594,900.2734 Q390.4531,899.6484 391.6875,899.6484 Q392.4219,899.6484 393.0625,899.8203 Q393.7188,899.9766 394.2656,900.3359 Z " fill="#000000"/><text fill="#000000" font-family="sans-serif" font-size="12" font-style="italic" lengthAdjust="spacing" textLength="85" x="408.5" y="900.5664">&#171;Value Object&#187;</text><text fill="#000000" font-family="sans-serif" font-size="14" lengthAdjust="spacing" textLength="91" x="405.5" y="917.7363">OrganizationId</text><line style="stroke:#181818;stroke-width:0.5;" x1="377.5" x2="498.5" y1="925.8125" y2="925.8125"/><ellipse cx="387.5" cy="940.1172" fill="none" rx="3" ry="3" style="stroke:#038048;stroke-width:1.0;"/><text fill="#000000" font-family="sans-serif" font-size="14" lengthAdjust="spacing" textLength="78" x="396.5" y="944.3457">Value : Guid</text><line style="stroke:#181818;stroke-width:0.5;" x1="377.5" x2="498.5" y1="951.4219" y2="951.4219"/></g><!--class UserId--><g id="elem_UserId"><rect codeLine="94" fill="#F1F1F1" height="76.3125" id="UserId" rx="2.5" ry="2.5" style="stroke:#181818;stroke-width:0.5;" width="113" x="534.5" y="883.1094"/><ellipse cx="549.5" cy="904.4609" fill="#ADD1B2" rx="11" ry="11" style="stroke:#181818;stroke-width:1.0;"/><path d="M552.2656,900.3359 Q552.4219,900.1172 552.6094,900.0078 Q552.7969,899.8984 553.0156,899.8984 Q553.3906,899.8984 553.625,900.1641 Q553.8594,900.4141 553.8594,901.0234 L553.8594,902.4766 Q553.8594,903.0859 553.625,903.3516 Q553.3906,903.6172 553.0156,903.6172 Q552.6719,903.6172 552.4688,903.4141 Q552.2656,903.2266 552.1563,902.7109 Q552.1094,902.3516 551.9219,902.1641 Q551.5938,901.7891 550.9844,901.5703 Q550.375,901.3516 549.75,901.3516 Q548.9844,901.3516 548.3438,901.6797 Q547.7188,902.0078 547.2188,902.7578 Q546.7344,903.5078 546.7344,904.5391 L546.7344,905.6328 Q546.7344,906.8672 547.625,907.6953 Q548.5156,908.5078 550.1094,908.5078 Q551.0469,908.5078 551.7031,908.2578 Q552.0938,908.1016 552.5156,907.6641 Q552.7813,907.3984 552.9219,907.3203 Q553.0781,907.2422 553.2813,907.2422 Q553.6094,907.2422 553.8594,907.5078 Q554.125,907.7578 554.125,908.1016 Q554.125,908.4453 553.7813,908.8516 Q553.2813,909.4297 552.4844,909.7578 Q551.4063,910.2109 550.1094,910.2109 Q548.5938,910.2109 547.3906,909.5859 Q546.4063,909.0859 545.7188,908.0234 Q545.0313,906.9453 545.0313,905.6641 L545.0313,904.5078 Q545.0313,903.1797 545.6406,902.0391 Q546.2656,900.8828 547.3594,900.2734 Q548.4531,899.6484 549.6875,899.6484 Q550.4219,899.6484 551.0625,899.8203 Q551.7188,899.9766 552.2656,900.3359 Z " fill="#000000"/><text fill="#000000" font-family="sans-serif" font-size="12" font-style="italic" lengthAdjust="spacing" textLength="85" x="561.5" y="900.5664">&#171;Value Object&#187;</text><text fill="#000000" font-family="sans-serif" font-size="14" lengthAdjust="spacing" textLength="40" x="584" y="917.7363">UserId</text><line style="stroke:#181818;stroke-width:0.5;" x1="535.5" x2="646.5" y1="925.8125" y2="925.8125"/><ellipse cx="545.5" cy="940.1172" fill="none" rx="3" ry="3" style="stroke:#038048;stroke-width:1.0;"/><text fill="#000000" font-family="sans-serif" font-size="14" lengthAdjust="spacing" textLength="78" x="554.5" y="944.3457">Value : Guid</text><line style="stroke:#181818;stroke-width:0.5;" x1="535.5" x2="646.5" y1="951.4219" y2="951.4219"/></g><!--class User--><g id="elem_User"><rect codeLine="98" fill="#F1F1F1" height="146.75" id="User" rx="2.5" ry="2.5" style="stroke:#181818;stroke-width:0.5;" width="228" x="271" y="473.1094"/><ellipse cx="360.75" cy="494.4609" fill="#ADD1B2" rx="11" ry="11" style="stroke:#181818;stroke-width:1.0;"/><path d="M363.5156,490.3359 Q363.6719,490.1172 363.8594,490.0078 Q364.0469,489.8984 364.2656,489.8984 Q364.6406,489.8984 364.875,490.1641 Q365.1094,490.4141 365.1094,491.0234 L365.1094,492.4766 Q365.1094,493.0859 364.875,493.3516 Q364.6406,493.6172 364.2656,493.6172 Q363.9219,493.6172 363.7188,493.4141 Q363.5156,493.2266 363.4063,492.7109 Q363.3594,492.3516 363.1719,492.1641 Q362.8438,491.7891 362.2344,491.5703 Q361.625,491.3516 361,491.3516 Q360.2344,491.3516 359.5938,491.6797 Q358.9688,492.0078 358.4688,492.7578 Q357.9844,493.5078 357.9844,494.5391 L357.9844,495.6328 Q357.9844,496.8672 358.875,497.6953 Q359.7656,498.5078 361.3594,498.5078 Q362.2969,498.5078 362.9531,498.2578 Q363.3438,498.1016 363.7656,497.6641 Q364.0313,497.3984 364.1719,497.3203 Q364.3281,497.2422 364.5313,497.2422 Q364.8594,497.2422 365.1094,497.5078 Q365.375,497.7578 365.375,498.1016 Q365.375,498.4453 365.0313,498.8516 Q364.5313,499.4297 363.7344,499.7578 Q362.6563,500.2109 361.3594,500.2109 Q359.8438,500.2109 358.6406,499.5859 Q357.6563,499.0859 356.9688,498.0234 Q356.2813,496.9453 356.2813,495.6641 L356.2813,494.5078 Q356.2813,493.1797 356.8906,492.0391 Q357.5156,490.8828 358.6094,490.2734 Q359.7031,489.6484 360.9375,489.6484 Q361.6719,489.6484 362.3125,489.8203 Q362.9688,489.9766 363.5156,490.3359 Z " fill="#000000"/><text fill="#000000" font-family="sans-serif" font-size="12" font-style="italic" lengthAdjust="spacing" textLength="44" x="379.25" y="490.5664">&#171;Entity&#187;</text><text fill="#000000" font-family="sans-serif" font-size="14" lengthAdjust="spacing" textLength="29" x="386.75" y="507.7363">User</text><line style="stroke:#181818;stroke-width:0.5;" x1="272" x2="498" y1="515.8125" y2="515.8125"/><ellipse cx="282" cy="530.1172" fill="none" rx="3" ry="3" style="stroke:#038048;stroke-width:1.0;"/><text fill="#000000" font-family="sans-serif" font-size="14" lengthAdjust="spacing" textLength="92" x="291" y="534.3457">UserId : UserId</text><ellipse cx="282" cy="547.7266" fill="none" rx="3" ry="3" style="stroke:#038048;stroke-width:1.0;"/><text fill="#000000" font-family="sans-serif" font-size="14" lengthAdjust="spacing" textLength="83" x="291" y="551.9551">Name : string</text><ellipse cx="282" cy="565.3359" fill="none" rx="3" ry="3" style="stroke:#038048;stroke-width:1.0;"/><text fill="#000000" font-family="sans-serif" font-size="14" lengthAdjust="spacing" textLength="81" x="291" y="569.5645">Email : string</text><ellipse cx="282" cy="582.9453" fill="none" rx="3" ry="3" style="stroke:#038048;stroke-width:1.0;"/><text fill="#000000" font-family="sans-serif" font-size="14" lengthAdjust="spacing" textLength="95" x="291" y="587.1738">Role : AppRole</text><ellipse cx="282" cy="600.5547" fill="none" rx="3" ry="3" style="stroke:#038048;stroke-width:1.0;"/><text fill="#000000" font-family="sans-serif" font-size="14" lengthAdjust="spacing" textLength="202" x="291" y="604.7832">OrganizationId : OrganizationId?</text><line style="stroke:#181818;stroke-width:0.5;" x1="272" x2="498" y1="611.8594" y2="611.8594"/></g><!--class AppRole--><g id="elem_AppRole"><rect codeLine="106" fill="#F1F1F1" height="118.4375" id="AppRole" rx="2.5" ry="2.5" style="stroke:#181818;stroke-width:0.5;" width="136" x="205" y="862.1094"/><ellipse cx="242.5" cy="878.1094" fill="#EB937F" rx="11" ry="11" style="stroke:#181818;stroke-width:1.0;"/><path d="M241.3594,878.9063 L241.3594,881.4063 L245.6875,881.4063 L245.6875,880.4844 Q245.6875,879.875 245.9219,879.6094 Q246.1719,879.3438 246.5469,879.3438 Q246.9219,879.3438 247.1563,879.6094 Q247.3906,879.875 247.3906,880.4844 L247.3906,883.1094 L239.3906,883.1094 Q238.7656,883.1094 238.5,882.875 Q238.25,882.6406 238.25,882.25 Q238.25,881.875 238.5156,881.6406 Q238.7813,881.4063 239.3906,881.4063 L239.6563,881.4063 L239.6563,874.75 L239.3906,874.75 Q238.7656,874.75 238.5,874.5156 Q238.25,874.2813 238.25,873.8906 Q238.25,873.5156 238.5,873.2813 Q238.7656,873.0469 239.3906,873.0469 L247.0156,873.0469 L247.0156,875.6406 Q247.0156,876.25 246.7813,876.5156 Q246.5625,876.7656 246.1719,876.7656 Q245.7969,876.7656 245.5625,876.5156 Q245.3281,876.25 245.3281,875.6406 L245.3281,874.75 L241.3594,874.75 L241.3594,877.2031 L242.8438,877.2031 Q242.8438,876.5469 242.9688,876.3594 Q243.2344,875.9531 243.7031,875.9531 Q244.0781,875.9531 244.3125,876.2188 Q244.5469,876.4688 244.5469,877.0781 L244.5469,879.0469 Q244.5469,879.5938 244.4219,879.7813 Q244.1563,880.1719 243.7031,880.1719 Q243.2344,880.1719 242.9688,879.7656 Q242.8438,879.5781 242.8438,878.9063 L241.3594,878.9063 Z " fill="#000000"/><text fill="#000000" font-family="sans-serif" font-size="14" lengthAdjust="spacing" textLength="54" x="261.5" y="883.8379">AppRole</text><line style="stroke:#181818;stroke-width:0.5;" x1="206" x2="340" y1="894.1094" y2="894.1094"/><text fill="#000000" font-family="sans-serif" font-size="14" lengthAdjust="spacing" textLength="39" x="211" y="912.6426">Admin</text><text fill="#000000" font-family="sans-serif" font-size="14" lengthAdjust="spacing" textLength="124" x="211" y="930.252">PortAuthorityOfficer</text><text fill="#000000" font-family="sans-serif" font-size="14" lengthAdjust="spacing" textLength="118" x="211" y="947.8613">ShippingAgentRep</text><text fill="#000000" font-family="sans-serif" font-size="14" lengthAdjust="spacing" textLength="83" x="211" y="965.4707">PortOperator</text><line style="stroke:#181818;stroke-width:0.5;" x1="206" x2="340" y1="972.5469" y2="972.5469"/></g><g id="elem_GMN29"><path d="M1087,500.6094 L1087,542.6094 L1052.25,546.6094 L1087,550.6094 L1087,592.3672 A0,0 0 0 0 1087,592.3672 L1405,592.3672 A0,0 0 0 0 1405,592.3672 L1405,510.6094 L1395,500.6094 L1087,500.6094 A0,0 0 0 0 1087,500.6094 " fill="#FEFFDD" style="stroke:#181818;stroke-width:0.5;"/><path d="M1395,500.6094 L1395,510.6094 L1405,510.6094 L1395,500.6094 " fill="#FEFFDD" style="stroke:#181818;stroke-width:0.5;"/><text fill="#000000" font-family="sans-serif" font-size="13" lengthAdjust="spacing" textLength="99" x="1093" y="519.1045">State transitions:</text><text fill="#000000" font-family="sans-serif" font-size="13" lengthAdjust="spacing" textLength="297" x="1093" y="535.4561">DRAFT &#8594; SUBMITTED &#8594; APPROVED/REJECTED</text><text fill="#000000" font-family="sans-serif" font-size="13" lengthAdjust="spacing" textLength="4" x="1093" y="551.8076">&#160;</text><text fill="#000000" font-family="sans-serif" font-size="13" lengthAdjust="spacing" textLength="185" x="1093" y="568.1592">Only SUBMITTED VVNs can be</text><text fill="#000000" font-family="sans-serif" font-size="13" lengthAdjust="spacing" textLength="116" x="1093" y="584.5107">approved or rejected</text></g><g id="elem_GMN32"><path d="M1243.5,133.6094 L1243.5,159.1094 L1208.14,163.1094 L1243.5,167.1094 L1243.5,192.6641 A0,0 0 0 0 1243.5,192.6641 L1396.5,192.6641 A0,0 0 0 0 1396.5,192.6641 L1396.5,143.6094 L1386.5,133.6094 L1243.5,133.6094 A0,0 0 0 0 1243.5,133.6094 " fill="#FEFFDD" style="stroke:#181818;stroke-width:0.5;"/><path d="M1386.5,133.6094 L1386.5,143.6094 L1396.5,143.6094 L1386.5,133.6094 " fill="#FEFFDD" style="stroke:#181818;stroke-width:0.5;"/><text fill="#000000" font-family="sans-serif" font-size="13" lengthAdjust="spacing" textLength="132" x="1249.5" y="152.1045">Immutable audit record</text><text fill="#000000" font-family="sans-serif" font-size="13" lengthAdjust="spacing" textLength="95" x="1249.5" y="168.4561">created for every</text><text fill="#000000" font-family="sans-serif" font-size="13" lengthAdjust="spacing" textLength="132" x="1249.5" y="184.8076">approve/reject decision</text></g><g id="elem_GMN35"><path d="M2094.5,891.6094 L2094.5,917.1094 L2059.52,921.1094 L2094.5,925.1094 L2094.5,950.6641 A0,0 0 0 0 2094.5,950.6641 L2311.5,950.6641 A0,0 0 0 0 2311.5,950.6641 L2311.5,901.6094 L2301.5,891.6094 L2094.5,891.6094 A0,0 0 0 0 2094.5,891.6094 " fill="#FEFFDD" style="stroke:#181818;stroke-width:0.5;"/><path d="M2301.5,891.6094 L2301.5,901.6094 L2311.5,901.6094 L2301.5,891.6094 " fill="#FEFFDD" style="stroke:#181818;stroke-width:0.5;"/><text fill="#000000" font-family="sans-serif" font-size="13" lengthAdjust="spacing" textLength="156" x="2100.5" y="910.1045">Created only upon approval</text><text fill="#000000" font-family="sans-serif" font-size="13" lengthAdjust="spacing" textLength="196" x="2100.5" y="926.4561">Prevents overlapping assignments</text><text fill="#000000" font-family="sans-serif" font-size="13" lengthAdjust="spacing" textLength="104" x="2100.5" y="942.8076">on the same dock</text></g><!--link VesselVisitNotification to VVNState--><g id="link_VesselVisitNotification_VVNState"><path codeLine="114" d="M929.52,734.8094 C932.82,744.8494 936,754.8394 939,764.6094 C947.81,793.3494 954.7196,819.6875 961.3896,847.2675 " fill="none" id="VesselVisitNotification-to-VVNState" style="stroke:#181818;stroke-width:1.0;"/><polygon fill="#181818" points="962.8,853.0994,964.5723,843.4113,961.6247,848.2395,956.7965,845.2918,962.8,853.0994" style="stroke:#181818;stroke-width:1.0;"/><text fill="#000000" font-family="sans-serif" font-size="13" lengthAdjust="spacing" textLength="21" x="944" y="779.1045">has</text></g><!--link VesselVisitNotification to OrganizationId--><g id="link_VesselVisitNotification_OrganizationId"><path codeLine="115" d="M667.78,714.3694 C658.82,721.3194 649.86,728.0894 641,734.6094 C634.44,739.4294 522.96,807.0694 517,812.6094 C494.78,833.2794 477.8966,855.913 463.4966,878.003 " fill="none" id="VesselVisitNotification-to-OrganizationId" style="stroke:#181818;stroke-width:1.0;"/><polygon fill="#181818" points="460.22,883.0294,468.4857,877.6742,462.9505,878.8408,461.784,873.3055,460.22,883.0294" style="stroke:#181818;stroke-width:1.0;"/><text fill="#000000" font-family="sans-serif" font-size="13" lengthAdjust="spacing" textLength="75" x="594" y="779.1045">submitted by</text></g><!--link VesselVisitNotification to UserId--><g id="link_VesselVisitNotification_UserId"><path codeLine="116" d="M750.68,734.8794 C739.71,751.2994 728.4,767.4294 717,782.6094 C689.87,818.7194 659.1016,852.0261 632.8816,878.7561 " fill="none" id="VesselVisitNotification-to-UserId" style="stroke:#181818;stroke-width:1.0;"/><polygon fill="#181818" points="628.68,883.0394,637.8379,879.4155,632.1813,879.47,632.1268,873.8134,628.68,883.0394" style="stroke:#181818;stroke-width:1.0;"/><text fill="#000000" font-family="sans-serif" font-size="13" lengthAdjust="spacing" textLength="180" x="732" y="779.1045">submitted/approved/rejected by</text></g><!--reverse link VesselVisitNotification to DockAssignment--><g id="link_VesselVisitNotification_DockAssignment"><path codeLine="117" d="M1062.1924,729.9341 C1068.1024,733.8641 1064.05,731.0094 1070,734.6094 C1118.43,763.9494 1172.28,789.9894 1226.05,812.5994 " fill="none" id="VesselVisitNotification-backto-DockAssignment" style="stroke:#181818;stroke-width:1.0;"/><polygon fill="none" points="1052.2,723.2894,1054.9813,729.9425,1062.1924,729.9341,1059.4111,723.2809,1052.2,723.2894" style="stroke:#181818;stroke-width:1.0;"/><text fill="#000000" font-family="sans-serif" font-size="13" lengthAdjust="spacing" textLength="21" x="1158" y="779.1045">has</text><text fill="#000000" font-family="sans-serif" font-size="13" lengthAdjust="spacing" textLength="7" x="1059.8445" y="727.3868">1</text><text fill="#000000" font-family="sans-serif" font-size="13" lengthAdjust="spacing" textLength="22" x="1179.7957" y="801.9082">0..1</text></g><!--link DecisionLog to DecisionOutcome--><g id="link_DecisionLog_DecisionOutcome"><path codeLine="119" d="M1208.36,278.6494 C1317.73,315.7094 1412.95,349.6294 1423,358.6094 C1466.69,397.6794 1489.2066,457.0304 1500.9766,499.1904 " fill="none" id="DecisionLog-to-DecisionOutcome" style="stroke:#181818;stroke-width:1.0;"/><polygon fill="#181818" points="1502.59,504.9694,1504.0226,495.2253,1501.2455,500.1535,1496.3173,497.3764,1502.59,504.9694" style="stroke:#181818;stroke-width:1.0;"/><text fill="#000000" font-family="sans-serif" font-size="13" lengthAdjust="spacing" textLength="21" x="1344" y="325.1045">has</text></g><!--link DecisionLog to UserId--><g id="link_DecisionLog_UserId"><path codeLine="120" d="M659.08,280.6694 C634.57,303.3694 612.95,329.3494 598,358.6094 C551.15,450.3094 576.2843,767.0461 586.7043,877.0661 " fill="none" id="DecisionLog-to-UserId" style="stroke:#181818;stroke-width:1.0;"/><polygon fill="#181818" points="587.27,883.0394,590.4036,873.7023,586.7986,878.0617,582.4392,874.4566,587.27,883.0394" style="stroke:#181818;stroke-width:1.0;"/><text fill="#000000" font-family="sans-serif" font-size="13" lengthAdjust="spacing" textLength="50" x="599" y="552.1045">made by</text></g><!--link DecisionLog to VesselVisitNotification--><g id="link_DecisionLog_VesselVisitNotification"><path codeLine="121" d="M860,280.6494 C860,305.2994 860,325.9094 860,352.4294 " fill="none" id="DecisionLog-to-VesselVisitNotification" style="stroke:#181818;stroke-width:1.0;stroke-dasharray:7.0,7.0;"/><polygon fill="#181818" points="860,358.4294,864,349.4294,860,353.4294,856,349.4294,860,358.4294" style="stroke:#181818;stroke-width:1.0;"/><text fill="#000000" font-family="sans-serif" font-size="13" lengthAdjust="spacing" textLength="94" x="861" y="325.1045">logs decision for</text></g><!--link DockAssignment to Dock--><g id="link_DockAssignment_Dock"><path codeLine="123" d="M1601.12,1029.8794 C1611.2,1056.2994 1619.5313,1078.1335 1628.5313,1101.7235 " fill="none" id="DockAssignment-to-Dock" style="stroke:#181818;stroke-width:1.0;"/><polygon fill="#181818" points="1630.67,1107.3294,1631.1991,1097.4947,1628.8877,1102.6578,1623.7246,1100.3464,1630.67,1107.3294" style="stroke:#181818;stroke-width:1.0;"/><text fill="#000000" font-family="sans-serif" font-size="13" lengthAdjust="spacing" textLength="67" x="1619" y="1074.1045">assigned to</text></g><!--link DockAssignment to DockAssignmentStatus--><g id="link_DockAssignment_DockAssignmentStatus"><path codeLine="124" d="M1518.45,1029.8794 C1506.14,1061.8194 1495.4089,1089.6512 1485.2589,1115.9712 " fill="none" id="DockAssignment-to-DockAssignmentStatus" style="stroke:#181818;stroke-width:1.0;"/><polygon fill="#181818" points="1483.1,1121.5694,1490.0704,1114.6114,1484.8991,1116.9042,1482.6062,1111.7329,1483.1,1121.5694" style="stroke:#181818;stroke-width:1.0;"/><text fill="#000000" font-family="sans-serif" font-size="13" lengthAdjust="spacing" textLength="21" x="1507" y="1074.1045">has</text></g><!--link Organization to OrganizationId--><g id="link_Organization_OrganizationId"><path codeLine="126" d="M130.75,602.7394 C147.07,656.6394 179.59,737.0494 237,782.6094 C280.4,817.0494 311.87,781.9194 358,812.6094 C384.34,830.1294 402.231,854.206 416.071,877.766 " fill="none" id="Organization-to-OrganizationId" style="stroke:#181818;stroke-width:1.0;"/><polygon fill="#181818" points="419.11,882.9394,418.0004,873.1532,416.5775,878.6282,411.1025,877.2053,419.11,882.9394" style="stroke:#181818;stroke-width:1.0;"/><text fill="#000000" font-family="sans-serif" font-size="13" lengthAdjust="spacing" textLength="69" x="238" y="779.1045">identified by</text></g><!--link Organization to OrganizationType--><g id="link_Organization_OrganizationType"><path codeLine="127" d="M110.18,602.7994 C105.12,646.5994 98.66,709.4094 96,764.6094 C95.61,772.5994 95.94,774.6094 96,782.6094 C96.21,811.7394 96.5836,838.3301 97.0036,864.4701 " fill="none" id="Organization-to-OrganizationType" style="stroke:#181818;stroke-width:1.0;"/><polygon fill="#181818" points="97.1,870.4694,100.9549,861.4063,97.0197,865.47,92.9559,861.5348,97.1,870.4694" style="stroke:#181818;stroke-width:1.0;"/><text fill="#000000" font-family="sans-serif" font-size="13" lengthAdjust="spacing" textLength="21" x="97" y="779.1045">has</text></g><!--link User to UserId--><g id="link_User_UserId"><path codeLine="129" d="M406.4,620.1094 C422.89,668.8094 448.84,732.9194 484,782.6094 C495.45,798.7894 503.96,797.6794 517,812.6094 C536.08,834.4494 551.3411,856.2787 565.0711,877.6887 " fill="none" id="User-to-UserId" style="stroke:#181818;stroke-width:1.0;"/><polygon fill="#181818" points="568.31,882.7394,566.8187,873.0041,565.6109,878.5305,560.0845,877.3227,568.31,882.7394" style="stroke:#181818;stroke-width:1.0;"/><text fill="#000000" font-family="sans-serif" font-size="13" lengthAdjust="spacing" textLength="69" x="485" y="779.1045">identified by</text></g><!--link User to AppRole--><g id="link_User_AppRole"><path codeLine="130" d="M363.14,620.3194 C341.91,690.9294 311.8173,791.0034 292.2173,856.2034 " fill="none" id="User-to-AppRole" style="stroke:#181818;stroke-width:1.0;"/><polygon fill="#181818" points="290.49,861.9494,296.9116,854.4819,291.9294,857.1611,289.2503,852.1788,290.49,861.9494" style="stroke:#181818;stroke-width:1.0;"/><text fill="#000000" font-family="sans-serif" font-size="13" lengthAdjust="spacing" textLength="21" x="320" y="779.1045">has</text></g><!--link User to OrganizationId--><g id="link_User_OrganizationId"><path codeLine="131" d="M376.45,620.2994 C372.81,667.0794 371.49,728.9494 382,782.6094 C388.96,818.1494 402.5164,850.7083 415.7064,877.7083 " fill="none" id="User-to-OrganizationId" style="stroke:#181818;stroke-width:1.0;"/><polygon fill="#181818" points="418.34,883.0994,417.9836,873.257,416.1453,878.6068,410.7955,876.7685,418.34,883.0994" style="stroke:#181818;stroke-width:1.0;"/><text fill="#000000" font-family="sans-serif" font-size="13" lengthAdjust="spacing" textLength="60" x="383" y="779.1045">belongs to</text></g><!--SRC=[bLRRRkCs47ttLn1vQOB6JZSl1Oni0iNMPbKubg4e1lgqe2L6PYk91abvuIxosW_e9_PBTdYJTREn2nWGFHVEuSoP8IMLEK5pLc1QecUMaXoDqUiBkftSJdv7bn7PK_8LuJ95tcx7sPxSHEGlaaYqNY_5rMYKv5W8j2P2a7nD1PLB9kaRJR2ah4HtTrwMSP9XIL34cBo_Hzz62FsArllogQ8fcYBrSQB7Ij0IjWgKGaXEoqohNgJQOAfYwgMnrp63WhLjDOXLnNTCQ9V6Nwtt9GRn77Q9QU54QLSKyWoNz1zz2escBJ2egar1fIJfuq6Rl0h2W_IXhVDaOskZiuaSSdEg0I-Jza4lfphf1PWZWWKKnANAQESi-TiJWcPbGKhjt18ee_6u2UmIco-VclZNA6rv1EbKrVCAjjepMrS3uPBh3pjwSereQl3K7k-Z4IcheYwrviiyyZx5y7rvVNmEujYVmzfRhQ9mhPUH_uS_CzAPjvpvYmMitnqtvoG13h1omJBWerzAAWyr3nlAeCl6Ba73IYQiKAHoNbPYj6_0UiBDwUe2cUJ9Lvbq6JRl9Cv6ScKRg1Pq5X4jcItEDm6PeibxJP_B_RwqfRX6p00xNx5hX1N8gODuZKeLpLRduQfnQ4XLEwgZtzcehMh_P3J7YKxQTGdTaT57z45HmMA1lxSD2hHvtcV1S2qS4Te2PJo3GTaUEu-4o-qdpefkdRKYPbsn2QVQkMPCOpUdRNLqFGehqMjL8nwWn0mIBqchDAazG5sCZSFUhid686yBSGVtiQ8rvAR3LG_fiPe31p0bdSN1sbVD73wl5lxfneOD-hNibsP1oankGPO2VmgSsyRVzMJnOKSiNhKyHceE_tx47xah5d07vajSTA3PY4q75rddgAlG4LTX57_nNkFFOHJ4Vwgn-3bOhOBbqnVloL_6pY9S-P4NXz7mCG3etTqQvnL1uKRrpF5gra9B-DhNilIdVVhf6fgG_Spuy239swA8vSe8EbwjVYJr3tKYhPFXLrhGKcM9SUbLSiiumBFZMsLpItSxYEbbGCk8xAnbk2CSm_sbjlm5vaokOmWm5gDJpv_n-FvuaKtH5fytxPr6k5S4sXpEUXvdYFEuiJTrUiFTI3opnyM72yJ6OtJnssG2ozwxG24VDIzI5RGxZerPrwg6Lc1eJC3GD9XCxa- -7QSePvdG3QhCqHlaVjH1fc6eCJ2jvm-Ix9HLRzhOWxNQUx0GD0KdW6QoUDRUjhJUM3T0AmdjZMgzewVngyKz71kIinAI0cSSgIiJSPfj9LosfxAe-ApP9pakGQSeEtKlAlJ_l_yTtrJwdtjLtJJULF0Bo_pGi5HlVvJW4l20qZ4DCOuSsQ3hKdsfTt6sNn51KLGIR-3ak4gf1FU4SJKI4drjfQheYC1xyt2COmbT4-DqgFQzW-nT23ZLQQeT5CzigSV_YaESKWgadhSvrYF0aagvgxiL7EIM8A66bRf4Zv6_0m00]--></g></svg>