<?xml version="1.0" encoding="us-ascii" standalone="no"?><svg xmlns="http://www.w3.org/2000/svg" xmlns:xlink="http://www.w3.org/1999/xlink" contentStyleType="text/css" height="912px" preserveAspectRatio="none" style="width:965px;height:912px;background:#FFFFFF;" version="1.1" viewBox="0 0 965 912" width="965px" zoomAndPan="magnify"><defs/><g><text fill="#000000" font-family="sans-serif" font-size="14" font-weight="bold" lengthAdjust="spacing" textLength="195" x="386.75" y="29.5332">SSD - Review Pending VVNs</text><rect fill="#FFFFFF" height="589.7891" style="stroke:#181818;stroke-width:1.0;" width="10" x="271" y="153.5703"/><rect fill="#FFFFFF" height="512.7344" style="stroke:#181818;stroke-width:1.0;" width="10" x="522" y="183.9219"/><rect fill="#FFFFFF" height="91.0547" style="stroke:#181818;stroke-width:1.0;" width="10" x="794" y="263.3281"/><rect fill="#FFFFFF" height="91.0547" style="stroke:#181818;stroke-width:1.0;" width="10" x="794" y="417.4375"/><rect fill="#FFFFFF" height="30.3516" style="stroke:#181818;stroke-width:1.0;" width="10" x="910" y="293.6797"/><rect fill="#FFFFFF" height="30.3516" style="stroke:#181818;stroke-width:1.0;" width="10" x="910" y="447.7891"/><line style="stroke:#181818;stroke-width:0.5;stroke-dasharray:5.0,5.0;" x1="74" x2="74" y1="121.2188" y2="830.4141"/><line style="stroke:#181818;stroke-width:0.5;stroke-dasharray:5.0,5.0;" x1="275.5" x2="275.5" y1="121.2188" y2="830.4141"/><line style="stroke:#181818;stroke-width:0.5;stroke-dasharray:5.0,5.0;" x1="527" x2="527" y1="121.2188" y2="830.4141"/><line style="stroke:#181818;stroke-width:0.5;stroke-dasharray:5.0,5.0;" x1="799" x2="799" y1="121.2188" y2="830.4141"/><line style="stroke:#181818;stroke-width:0.5;stroke-dasharray:5.0,5.0;" x1="914.5" x2="914.5" y1="121.2188" y2="830.4141"/><text fill="#000000" font-family="sans-serif" font-size="14" lengthAdjust="spacing" textLength="132" x="5" y="118.1426">Port Authority Officer</text><ellipse cx="74" cy="52.1094" fill="#E2E2F0" rx="8" ry="8" style="stroke:#181818;stroke-width:0.5;"/><path d="M74,60.1094 L74,87.1094 M61,68.1094 L87,68.1094 M74,87.1094 L61,102.1094 M74,87.1094 L87,102.1094 " fill="none" style="stroke:#181818;stroke-width:0.5;"/><text fill="#000000" font-family="sans-serif" font-size="14" lengthAdjust="spacing" textLength="132" x="5" y="843.9473">Port Authority Officer</text><ellipse cx="74" cy="855.5234" fill="#E2E2F0" rx="8" ry="8" style="stroke:#181818;stroke-width:0.5;"/><path d="M74,863.5234 L74,890.5234 M61,871.5234 L87,871.5234 M74,890.5234 L61,905.5234 M74,890.5234 L87,905.5234 " fill="none" style="stroke:#181818;stroke-width:0.5;"/><rect fill="#E2E2F0" height="31.6094" rx="2.5" ry="2.5" style="stroke:#181818;stroke-width:0.5;" width="75" x="238.5" y="88.6094"/><text fill="#000000" font-family="sans-serif" font-size="14" lengthAdjust="spacing" textLength="61" x="245.5" y="110.1426">API Client</text><rect fill="#E2E2F0" height="31.6094" rx="2.5" ry="2.5" style="stroke:#181818;stroke-width:0.5;" width="75" x="238.5" y="829.4141"/><text fill="#000000" font-family="sans-serif" font-size="14" lengthAdjust="spacing" textLength="61" x="245.5" y="850.9473">API Client</text><rect fill="#E2E2F0" height="31.6094" rx="2.5" ry="2.5" style="stroke:#181818;stroke-width:0.5;" width="220" x="417" y="88.6094"/><text fill="#000000" font-family="sans-serif" font-size="14" lengthAdjust="spacing" textLength="206" x="424" y="110.1426">VesselVisitNotificationsController</text><rect fill="#E2E2F0" height="31.6094" rx="2.5" ry="2.5" style="stroke:#181818;stroke-width:0.5;" width="220" x="417" y="829.4141"/><text fill="#000000" font-family="sans-serif" font-size="14" lengthAdjust="spacing" textLength="206" x="424" y="850.9473">VesselVisitNotificationsController</text><rect fill="#E2E2F0" height="31.6094" rx="2.5" ry="2.5" style="stroke:#181818;stroke-width:0.5;" width="106" x="746" y="88.6094"/><text fill="#000000" font-family="sans-serif" font-size="14" lengthAdjust="spacing" textLength="92" x="753" y="110.1426">PortDbContext</text><rect fill="#E2E2F0" height="31.6094" rx="2.5" ry="2.5" style="stroke:#181818;stroke-width:0.5;" width="106" x="746" y="829.4141"/><text fill="#000000" font-family="sans-serif" font-size="14" lengthAdjust="spacing" textLength="92" x="753" y="850.9473">PortDbContext</text><text fill="#000000" font-family="sans-serif" font-size="14" lengthAdjust="spacing" textLength="93" x="865.5" y="118.1426">EF (InMemory)</text><path d="M897,67.6094 C897,57.6094 915,57.6094 915,57.6094 C915,57.6094 933,57.6094 933,67.6094 L933,93.6094 C933,103.6094 915,103.6094 915,103.6094 C915,103.6094 897,103.6094 897,93.6094 L897,67.6094 " fill="#E2E2F0" style="stroke:#181818;stroke-width:1.5;"/><path d="M897,67.6094 C897,77.6094 915,77.6094 915,77.6094 C915,77.6094 933,77.6094 933,67.6094 " fill="none" style="stroke:#181818;stroke-width:1.5;"/><text fill="#000000" font-family="sans-serif" font-size="14" lengthAdjust="spacing" textLength="93" x="865.5" y="843.9473">EF (InMemory)</text><path d="M897,857.0234 C897,847.0234 915,847.0234 915,847.0234 C915,847.0234 933,847.0234 933,857.0234 L933,883.0234 C933,893.0234 915,893.0234 915,893.0234 C915,893.0234 897,893.0234 897,883.0234 L897,857.0234 " fill="#E2E2F0" style="stroke:#181818;stroke-width:1.5;"/><path d="M897,857.0234 C897,867.0234 915,867.0234 915,867.0234 C915,867.0234 933,867.0234 933,857.0234 " fill="none" style="stroke:#181818;stroke-width:1.5;"/><rect fill="#FFFFFF" height="589.7891" style="stroke:#181818;stroke-width:1.0;" width="10" x="271" y="153.5703"/><rect fill="#FFFFFF" height="512.7344" style="stroke:#181818;stroke-width:1.0;" width="10" x="522" y="183.9219"/><rect fill="#FFFFFF" height="91.0547" style="stroke:#181818;stroke-width:1.0;" width="10" x="794" y="263.3281"/><rect fill="#FFFFFF" height="91.0547" style="stroke:#181818;stroke-width:1.0;" width="10" x="794" y="417.4375"/><rect fill="#FFFFFF" height="30.3516" style="stroke:#181818;stroke-width:1.0;" width="10" x="910" y="293.6797"/><rect fill="#FFFFFF" height="30.3516" style="stroke:#181818;stroke-width:1.0;" width="10" x="910" y="447.7891"/><polygon fill="#181818" points="259,149.5703,269,153.5703,259,157.5703,263,153.5703" style="stroke:#181818;stroke-width:1.0;"/><line style="stroke:#181818;stroke-width:1.0;" x1="74" x2="265" y1="153.5703" y2="153.5703"/><text fill="#000000" font-family="sans-serif" font-size="13" lengthAdjust="spacing" textLength="58" x="81" y="148.7139">GET /vvns</text><polygon fill="#181818" points="510,179.9219,520,183.9219,510,187.9219,514,183.9219" style="stroke:#181818;stroke-width:1.0;"/><line style="stroke:#181818;stroke-width:1.0;" x1="281" x2="516" y1="183.9219" y2="183.9219"/><text fill="#000000" font-family="sans-serif" font-size="13" lengthAdjust="spacing" textLength="44" x="288" y="179.0654">GetAll()</text><polygon fill="#181818" points="782,259.3281,792,263.3281,782,267.3281,786,263.3281" style="stroke:#181818;stroke-width:1.0;"/><line style="stroke:#181818;stroke-width:1.0;" x1="532" x2="788" y1="263.3281" y2="263.3281"/><text fill="#000000" font-family="sans-serif" font-size="13" lengthAdjust="spacing" textLength="137" x="539" y="209.417">VesselVisitNotifications</text><text fill="#000000" font-family="sans-serif" font-size="13" lengthAdjust="spacing" textLength="152" x="539" y="225.7686">.Include(DockAssignment)</text><text fill="#000000" font-family="sans-serif" font-size="13" lengthAdjust="spacing" textLength="186" x="539" y="242.1201">.OrderByDescending(CreatedAt)</text><text fill="#000000" font-family="sans-serif" font-size="13" lengthAdjust="spacing" textLength="84" x="539" y="258.4717">.ToListAsync()</text><polygon fill="#181818" points="898,289.6797,908,293.6797,898,297.6797,902,293.6797" style="stroke:#181818;stroke-width:1.0;"/><line style="stroke:#181818;stroke-width:1.0;" x1="804" x2="904" y1="293.6797" y2="293.6797"/><text fill="#000000" font-family="sans-serif" font-size="13" lengthAdjust="spacing" textLength="87" x="811" y="288.8232">query all VVNs</text><polygon fill="#181818" points="815,320.0313,805,324.0313,815,328.0313,811,324.0313" style="stroke:#181818;stroke-width:1.0;"/><line style="stroke:#181818;stroke-width:1.0;stroke-dasharray:2.0,2.0;" x1="809" x2="914" y1="324.0313" y2="324.0313"/><text fill="#000000" font-family="sans-serif" font-size="13" lengthAdjust="spacing" textLength="32" x="821" y="319.1748">vvns[]</text><polygon fill="#181818" points="543,350.3828,533,354.3828,543,358.3828,539,354.3828" style="stroke:#181818;stroke-width:1.0;"/><line style="stroke:#181818;stroke-width:1.0;stroke-dasharray:2.0,2.0;" x1="537" x2="798" y1="354.3828" y2="354.3828"/><text fill="#000000" font-family="sans-serif" font-size="13" lengthAdjust="spacing" textLength="32" x="549" y="349.5264">vvns[]</text><polygon fill="#181818" points="782,413.4375,792,417.4375,782,421.4375,786,417.4375" style="stroke:#181818;stroke-width:1.0;"/><line style="stroke:#181818;stroke-width:1.0;" x1="532" x2="788" y1="417.4375" y2="417.4375"/><text fill="#000000" font-family="sans-serif" font-size="13" lengthAdjust="spacing" textLength="168" x="539" y="379.8779">Vessels.Include(VesselType)</text><text fill="#000000" font-family="sans-serif" font-size="13" lengthAdjust="spacing" textLength="198" x="539" y="396.2295">.Where(ImoNumber in vesselImos)</text><text fill="#000000" font-family="sans-serif" font-size="13" lengthAdjust="spacing" textLength="121" x="539" y="412.5811">.ToDictionaryAsync()</text><polygon fill="#181818" points="898,443.7891,908,447.7891,898,451.7891,902,447.7891" style="stroke:#181818;stroke-width:1.0;"/><line style="stroke:#181818;stroke-width:1.0;" x1="804" x2="904" y1="447.7891" y2="447.7891"/><text fill="#000000" font-family="sans-serif" font-size="13" lengthAdjust="spacing" textLength="79" x="811" y="442.9326">query vessels</text><polygon fill="#181818" points="815,474.1406,805,478.1406,815,482.1406,811,478.1406" style="stroke:#181818;stroke-width:1.0;"/><line style="stroke:#181818;stroke-width:1.0;stroke-dasharray:2.0,2.0;" x1="809" x2="914" y1="478.1406" y2="478.1406"/><text fill="#000000" font-family="sans-serif" font-size="13" lengthAdjust="spacing" textLength="51" x="821" y="473.2842">vessels{}</text><polygon fill="#181818" points="543,504.4922,533,508.4922,543,512.4922,539,508.4922" style="stroke:#181818;stroke-width:1.0;"/><line style="stroke:#181818;stroke-width:1.0;stroke-dasharray:2.0,2.0;" x1="537" x2="798" y1="508.4922" y2="508.4922"/><text fill="#000000" font-family="sans-serif" font-size="13" lengthAdjust="spacing" textLength="51" x="549" y="503.6357">vessels{}</text><line style="stroke:#181818;stroke-width:1.0;" x1="532" x2="574" y1="604.25" y2="604.25"/><line style="stroke:#181818;stroke-width:1.0;" x1="574" x2="574" y1="604.25" y2="617.25"/><line style="stroke:#181818;stroke-width:1.0;" x1="533" x2="574" y1="617.25" y2="617.25"/><polygon fill="#181818" points="543,613.25,533,617.25,543,621.25,539,617.25" style="stroke:#181818;stroke-width:1.0;"/><text fill="#000000" font-family="sans-serif" font-size="13" lengthAdjust="spacing" textLength="207" x="539" y="533.9873">Build VvnSummaryResponse[] with:</text><text fill="#000000" font-family="sans-serif" font-size="13" lengthAdjust="spacing" textLength="77" x="539" y="550.3389">- VVN details</text><text fill="#000000" font-family="sans-serif" font-size="13" lengthAdjust="spacing" textLength="126" x="539" y="566.6904">- Vessel name &amp; type</text><text fill="#000000" font-family="sans-serif" font-size="13" lengthAdjust="spacing" textLength="94" x="539" y="583.042">- Assigned dock</text><text fill="#000000" font-family="sans-serif" font-size="13" lengthAdjust="spacing" textLength="248" x="539" y="599.3936">- Status (filter SUBMITTED to see pending)</text><polygon fill="#181818" points="292,692.6563,282,696.6563,292,700.6563,288,696.6563" style="stroke:#181818;stroke-width:1.0;"/><line style="stroke:#181818;stroke-width:1.0;stroke-dasharray:2.0,2.0;" x1="286" x2="526" y1="696.6563" y2="696.6563"/><text fill="#000000" font-family="sans-serif" font-size="13" lengthAdjust="spacing" textLength="203" x="298" y="642.7451">200 OK + VvnSummaryResponse[]</text><text fill="#000000" font-family="sans-serif" font-size="13" lengthAdjust="spacing" textLength="217" x="298" y="659.0967">{ Id, VvnBusinessId, Status, Purpose,</text><text fill="#000000" font-family="sans-serif" font-size="13" lengthAdjust="spacing" textLength="203" x="306" y="675.4482">Eta, Etd, VesselImo, VesselName,</text><text fill="#000000" font-family="sans-serif" font-size="13" lengthAdjust="spacing" textLength="168" x="306" y="691.7998">VesselType, AssignedDock }</text><polygon fill="#181818" points="85,739.3594,75,743.3594,85,747.3594,81,743.3594" style="stroke:#181818;stroke-width:1.0;"/><line style="stroke:#181818;stroke-width:1.0;stroke-dasharray:2.0,2.0;" x1="79" x2="275" y1="743.3594" y2="743.3594"/><text fill="#000000" font-family="sans-serif" font-size="13" lengthAdjust="spacing" textLength="130" x="91" y="722.1514">Display pending VVNs</text><text fill="#000000" font-family="sans-serif" font-size="13" lengthAdjust="spacing" textLength="173" x="91" y="738.5029">(filter by Status: SUBMITTED)</text><path d="M79,756.3594 L79,815.3594 L226,815.3594 L226,766.3594 L216,756.3594 L79,756.3594 " fill="#FEFFDD" style="stroke:#181818;stroke-width:0.5;"/><path d="M216,756.3594 L216,766.3594 L226,766.3594 L216,756.3594 " fill="#FEFFDD" style="stroke:#181818;stroke-width:0.5;"/><text fill="#000000" font-family="sans-serif" font-size="13" lengthAdjust="spacing" textLength="126" x="85" y="774.8545">Officer reviews the list</text><text fill="#000000" font-family="sans-serif" font-size="13" lengthAdjust="spacing" textLength="124" x="85" y="791.2061">and selects a VVN to</text><text fill="#000000" font-family="sans-serif" font-size="13" lengthAdjust="spacing" textLength="95" x="85" y="807.5576">approve or reject</text><!--SRC=[ZLHDZzem4BtdLumuLA12k-gHGoKWj4Bj0beeFInxCCa0RXqxjIVPHglzxnt72GlTxSSbiZqlRzwR6PiaAOJLAeO1t60fyHwMg5Ef3x3Pp5qKYOICXSxIM89HGKTZ9LMmsEzbWhO3mhNhA1UMP29peGawe-KC9agYfXeJbfUG3Jg7QYETfBaXoII2fD5kOZHPerH3Fxdyomk9Tnw3FmDtl8jIGM8d749d-W6wCtsDcR5LhmwlM3z6KQCI1kyRCJ24ZzCrl2rBxRnBMGh2LcW3yM2FGnefrUsTmQ9eugFnZiD_ChBLRsOwKKMAtTWatqVEoOFEcBV7aOLDqOwh65qIwjsTM6JgT5I7r-QpT3HobKxEyx9NJic9QrUS-qU1jWAXL6ZN2HXS1zIW5Ugjtjv5AVu6yvIDrUSGJldCgpiP2_jrbQDN_VM85hkppCoBRCV5bXhA6i17BjYAPUAB8sprl-O2mp-z1TJ3uz_jlOGwEVI8SI5L2fjIhueiOvKtw7Bk9TxUmRsaut2h1xxKa289gLozhKb1YmpX5H3Nmf-6TcCAAVVU7wn8KE6WkvUAk3QhB-FhsNezZO4CE4J8mnpqQZ7dO_hkwWeMd-3rYwgs-W5cQT_7neMJchNuRKZMXsLXS-EmlzK0Kn9z_dXmsvHsEMVjDUQfd_sJ0p-yS54nF_xD3M6XxTKQGYnThaJLMgbdSgjRnxkgaJLyCj-xe0sNBzA6DrOUZWHcVtfVu9J8rW-L0peYABuc718wvI8gJCY1g1j4nX_dkJKbWl4_VUDenCh0yqU_0000]--></g></svg>