<?xml version="1.0" encoding="us-ascii" standalone="no"?><svg xmlns="http://www.w3.org/2000/svg" xmlns:xlink="http://www.w3.org/1999/xlink" contentStyleType="text/css" height="2169px" preserveAspectRatio="none" style="width:1763px;height:2169px;background:#FFFFFF;" version="1.1" viewBox="0 0 1763 2169" width="1763px" zoomAndPan="magnify"><defs/><g><text fill="#000000" font-family="sans-serif" font-size="14" font-weight="bold" lengthAdjust="spacing" textLength="133" x="816" y="29.5332">SSD - Approve VVN</text><rect fill="#FFFFFF" height="1876.6797" style="stroke:#181818;stroke-width:1.0;" width="10" x="669" y="200.2734"/><rect fill="none" height="1811.3281" style="stroke:#000000;stroke-width:1.5;" width="1465.5" x="290.5" y="258.625"/><line style="stroke:#181818;stroke-width:0.5;stroke-dasharray:5.0,5.0;" x1="74" x2="74" y1="121.2188" y2="2086.9531"/><line style="stroke:#181818;stroke-width:0.5;stroke-dasharray:5.0,5.0;" x1="337.5" x2="337.5" y1="121.2188" y2="2086.9531"/><line style="stroke:#181818;stroke-width:0.5;stroke-dasharray:5.0,5.0;" x1="674" x2="674" y1="121.2188" y2="2086.9531"/><line style="stroke:#181818;stroke-width:0.5;stroke-dasharray:5.0,5.0;" x1="1006" x2="1006" y1="121.2188" y2="2086.9531"/><line style="stroke:#181818;stroke-width:0.5;stroke-dasharray:5.0,5.0;" x1="1175" x2="1175" y1="121.2188" y2="2086.9531"/><line style="stroke:#181818;stroke-width:0.5;stroke-dasharray:5.0,5.0;" x1="1382" x2="1382" y1="121.2188" y2="2086.9531"/><line style="stroke:#181818;stroke-width:0.5;stroke-dasharray:5.0,5.0;" x1="1560" x2="1560" y1="121.2188" y2="2086.9531"/><line style="stroke:#181818;stroke-width:0.5;stroke-dasharray:5.0,5.0;" x1="1696" x2="1696" y1="121.2188" y2="2086.9531"/><text fill="#000000" font-family="sans-serif" font-size="14" lengthAdjust="spacing" textLength="132" x="5" y="118.1426">Port Authority Officer</text><ellipse cx="74" cy="52.1094" fill="#E2E2F0" rx="8" ry="8" style="stroke:#181818;stroke-width:0.5;"/><path d="M74,60.1094 L74,87.1094 M61,68.1094 L87,68.1094 M74,87.1094 L61,102.1094 M74,87.1094 L87,102.1094 " fill="none" style="stroke:#181818;stroke-width:0.5;"/><text fill="#000000" font-family="sans-serif" font-size="14" lengthAdjust="spacing" textLength="132" x="5" y="2100.4863">Port Authority Officer</text><ellipse cx="74" cy="2112.0625" fill="#E2E2F0" rx="8" ry="8" style="stroke:#181818;stroke-width:0.5;"/><path d="M74,2120.0625 L74,2147.0625 M61,2128.0625 L87,2128.0625 M74,2147.0625 L61,2162.0625 M74,2147.0625 L87,2162.0625 " fill="none" style="stroke:#181818;stroke-width:0.5;"/><rect fill="#E2E2F0" height="31.6094" rx="2.5" ry="2.5" style="stroke:#181818;stroke-width:0.5;" width="75" x="300.5" y="88.6094"/><text fill="#000000" font-family="sans-serif" font-size="14" lengthAdjust="spacing" textLength="61" x="307.5" y="110.1426">API Client</text><rect fill="#E2E2F0" height="31.6094" rx="2.5" ry="2.5" style="stroke:#181818;stroke-width:0.5;" width="75" x="300.5" y="2085.9531"/><text fill="#000000" font-family="sans-serif" font-size="14" lengthAdjust="spacing" textLength="61" x="307.5" y="2107.4863">API Client</text><rect fill="#E2E2F0" height="31.6094" rx="2.5" ry="2.5" style="stroke:#181818;stroke-width:0.5;" width="220" x="564" y="88.6094"/><text fill="#000000" font-family="sans-serif" font-size="14" lengthAdjust="spacing" textLength="206" x="571" y="110.1426">VesselVisitNotificationsController</text><rect fill="#E2E2F0" height="31.6094" rx="2.5" ry="2.5" style="stroke:#181818;stroke-width:0.5;" width="220" x="564" y="2085.9531"/><text fill="#000000" font-family="sans-serif" font-size="14" lengthAdjust="spacing" textLength="206" x="571" y="2107.4863">VesselVisitNotificationsController</text><rect fill="#E2E2F0" height="31.6094" rx="2.5" ry="2.5" style="stroke:#181818;stroke-width:0.5;" width="106" x="953" y="88.6094"/><text fill="#000000" font-family="sans-serif" font-size="14" lengthAdjust="spacing" textLength="92" x="960" y="110.1426">PortDbContext</text><rect fill="#E2E2F0" height="31.6094" rx="2.5" ry="2.5" style="stroke:#181818;stroke-width:0.5;" width="106" x="953" y="2085.9531"/><text fill="#000000" font-family="sans-serif" font-size="14" lengthAdjust="spacing" textLength="92" x="960" y="2107.4863">PortDbContext</text><rect fill="#E2E2F0" height="31.6094" rx="2.5" ry="2.5" style="stroke:#181818;stroke-width:0.5;" width="213" x="1069" y="88.6094"/><text fill="#000000" font-family="sans-serif" font-size="14" lengthAdjust="spacing" textLength="199" x="1076" y="110.1426">VesselVisitNotification (Domain)</text><rect fill="#E2E2F0" height="31.6094" rx="2.5" ry="2.5" style="stroke:#181818;stroke-width:0.5;" width="213" x="1069" y="2085.9531"/><text fill="#000000" font-family="sans-serif" font-size="14" lengthAdjust="spacing" textLength="199" x="1076" y="2107.4863">VesselVisitNotification (Domain)</text><rect fill="#E2E2F0" height="31.6094" rx="2.5" ry="2.5" style="stroke:#181818;stroke-width:0.5;" width="181" x="1292" y="88.6094"/><text fill="#000000" font-family="sans-serif" font-size="14" lengthAdjust="spacing" textLength="167" x="1299" y="110.1426">DockAssignment (Domain)</text><rect fill="#E2E2F0" height="31.6094" rx="2.5" ry="2.5" style="stroke:#181818;stroke-width:0.5;" width="181" x="1292" y="2085.9531"/><text fill="#000000" font-family="sans-serif" font-size="14" lengthAdjust="spacing" textLength="167" x="1299" y="2107.4863">DockAssignment (Domain)</text><rect fill="#E2E2F0" height="31.6094" rx="2.5" ry="2.5" style="stroke:#181818;stroke-width:0.5;" width="154" x="1483" y="88.6094"/><text fill="#000000" font-family="sans-serif" font-size="14" lengthAdjust="spacing" textLength="140" x="1490" y="110.1426">DecisionLog (Domain)</text><rect fill="#E2E2F0" height="31.6094" rx="2.5" ry="2.5" style="stroke:#181818;stroke-width:0.5;" width="154" x="1483" y="2085.9531"/><text fill="#000000" font-family="sans-serif" font-size="14" lengthAdjust="spacing" textLength="140" x="1490" y="2107.4863">DecisionLog (Domain)</text><text fill="#000000" font-family="sans-serif" font-size="14" lengthAdjust="spacing" textLength="93" x="1647" y="118.1426">EF (InMemory)</text><path d="M1678.5,67.6094 C1678.5,57.6094 1696.5,57.6094 1696.5,57.6094 C1696.5,57.6094 1714.5,57.6094 1714.5,67.6094 L1714.5,93.6094 C1714.5,103.6094 1696.5,103.6094 1696.5,103.6094 C1696.5,103.6094 1678.5,103.6094 1678.5,93.6094 L1678.5,67.6094 " fill="#E2E2F0" style="stroke:#181818;stroke-width:1.5;"/><path d="M1678.5,67.6094 C1678.5,77.6094 1696.5,77.6094 1696.5,77.6094 C1696.5,77.6094 1714.5,77.6094 1714.5,67.6094 " fill="none" style="stroke:#181818;stroke-width:1.5;"/><text fill="#000000" font-family="sans-serif" font-size="14" lengthAdjust="spacing" textLength="93" x="1647" y="2100.4863">EF (InMemory)</text><path d="M1678.5,2113.5625 C1678.5,2103.5625 1696.5,2103.5625 1696.5,2103.5625 C1696.5,2103.5625 1714.5,2103.5625 1714.5,2113.5625 L1714.5,2139.5625 C1714.5,2149.5625 1696.5,2149.5625 1696.5,2149.5625 C1696.5,2149.5625 1678.5,2149.5625 1678.5,2139.5625 L1678.5,2113.5625 " fill="#E2E2F0" style="stroke:#181818;stroke-width:1.5;"/><path d="M1678.5,2113.5625 C1678.5,2123.5625 1696.5,2123.5625 1696.5,2123.5625 C1696.5,2123.5625 1714.5,2123.5625 1714.5,2113.5625 " fill="none" style="stroke:#181818;stroke-width:1.5;"/><rect fill="#FFFFFF" height="1876.6797" style="stroke:#181818;stroke-width:1.0;" width="10" x="669" y="200.2734"/><polygon fill="#181818" points="326,165.9219,336,169.9219,326,173.9219,330,169.9219" style="stroke:#181818;stroke-width:1.0;"/><line style="stroke:#181818;stroke-width:1.0;" x1="74" x2="332" y1="169.9219" y2="169.9219"/><text fill="#000000" font-family="sans-serif" font-size="13" lengthAdjust="spacing" textLength="137" x="81" y="148.7139">POST /vvns/{id}/approve</text><text fill="#000000" font-family="sans-serif" font-size="13" lengthAdjust="spacing" textLength="240" x="81" y="165.0654">{ DockCode, BerthFrom, BerthTo, Notes }</text><polygon fill="#181818" points="657,196.2734,667,200.2734,657,204.2734,661,200.2734" style="stroke:#181818;stroke-width:1.0;"/><line style="stroke:#181818;stroke-width:1.0;" x1="338" x2="663" y1="200.2734" y2="200.2734"/><text fill="#000000" font-family="sans-serif" font-size="13" lengthAdjust="spacing" textLength="115" x="345" y="195.417">Approve(id, request)</text><line style="stroke:#181818;stroke-width:1.0;" x1="679" x2="721" y1="230.625" y2="230.625"/><line style="stroke:#181818;stroke-width:1.0;" x1="721" x2="721" y1="230.625" y2="243.625"/><line style="stroke:#181818;stroke-width:1.0;" x1="680" x2="721" y1="243.625" y2="243.625"/><polygon fill="#181818" points="690,239.625,680,243.625,690,247.625,686,243.625" style="stroke:#181818;stroke-width:1.0;"/><text fill="#000000" font-family="sans-serif" font-size="13" lengthAdjust="spacing" textLength="206" x="686" y="225.7686">ValidatePortAuthorityAccess(caller)</text><path d="M290.5,258.625 L351.5,258.625 L351.5,266.9766 L341.5,276.9766 L290.5,276.9766 L290.5,258.625 " fill="#EEEEEE" style="stroke:#000000;stroke-width:1.5;"/><rect fill="none" height="1811.3281" style="stroke:#000000;stroke-width:1.5;" width="1465.5" x="290.5" y="258.625"/><text fill="#000000" font-family="sans-serif" font-size="13" font-weight="bold" lengthAdjust="spacing" textLength="16" x="305.5" y="273.1201">alt</text><text fill="#000000" font-family="sans-serif" font-size="11" font-weight="bold" lengthAdjust="spacing" textLength="106" x="366.5" y="272.0439">[not Port Authority]</text><polygon fill="#181818" points="349,311.6797,339,315.6797,349,319.6797,345,315.6797" style="stroke:#181818;stroke-width:1.0;"/><line style="stroke:#181818;stroke-width:1.0;stroke-dasharray:2.0,2.0;" x1="343" x2="668" y1="315.6797" y2="315.6797"/><text fill="#000000" font-family="sans-serif" font-size="13" lengthAdjust="spacing" textLength="82" x="355" y="294.4717">403 Forbidden</text><text fill="#000000" font-family="sans-serif" font-size="13" lengthAdjust="spacing" textLength="305" x="355" y="310.8232">"Only Port Authority Officers can perform this action"</text><line style="stroke:#000000;stroke-width:1.0;stroke-dasharray:2.0,2.0;" x1="290.5" x2="1756" y1="324.6797" y2="324.6797"/><text fill="#000000" font-family="sans-serif" font-size="11" font-weight="bold" lengthAdjust="spacing" textLength="87" x="295.5" y="336.0986">[VVN not found]</text><polygon fill="#181818" points="994,357.8672,1004,361.8672,994,365.8672,998,361.8672" style="stroke:#181818;stroke-width:1.0;"/><line style="stroke:#181818;stroke-width:1.0;" x1="679" x2="1000" y1="361.8672" y2="361.8672"/><text fill="#000000" font-family="sans-serif" font-size="13" lengthAdjust="spacing" textLength="221" x="686" y="357.0107">FindAsync(VVN where VvnGuid == id)</text><polygon fill="#181818" points="1684.5,388.2188,1694.5,392.2188,1684.5,396.2188,1688.5,392.2188" style="stroke:#181818;stroke-width:1.0;"/><line style="stroke:#181818;stroke-width:1.0;" x1="1006" x2="1690.5" y1="392.2188" y2="392.2188"/><text fill="#000000" font-family="sans-serif" font-size="13" lengthAdjust="spacing" textLength="32" x="1013" y="387.3623">query</text><polygon fill="#181818" points="1017,418.5703,1007,422.5703,1017,426.5703,1013,422.5703" style="stroke:#181818;stroke-width:1.0;"/><line style="stroke:#181818;stroke-width:1.0;stroke-dasharray:2.0,2.0;" x1="1011" x2="1695.5" y1="422.5703" y2="422.5703"/><text fill="#000000" font-family="sans-serif" font-size="13" lengthAdjust="spacing" textLength="20" x="1023" y="417.7139">null</text><polygon fill="#181818" points="349,448.9219,339,452.9219,349,456.9219,345,452.9219" style="stroke:#181818;stroke-width:1.0;"/><line style="stroke:#181818;stroke-width:1.0;stroke-dasharray:2.0,2.0;" x1="343" x2="668" y1="452.9219" y2="452.9219"/><text fill="#000000" font-family="sans-serif" font-size="13" lengthAdjust="spacing" textLength="85" x="355" y="448.0654">404 Not Found</text><line style="stroke:#000000;stroke-width:1.0;stroke-dasharray:2.0,2.0;" x1="290.5" x2="1756" y1="461.9219" y2="461.9219"/><text fill="#000000" font-family="sans-serif" font-size="11" font-weight="bold" lengthAdjust="spacing" textLength="160" x="295.5" y="473.3408">[VVN not in SUBMITTED state]</text><polygon fill="#181818" points="994,495.1094,1004,499.1094,994,503.1094,998,499.1094" style="stroke:#181818;stroke-width:1.0;"/><line style="stroke:#181818;stroke-width:1.0;" x1="679" x2="1000" y1="499.1094" y2="499.1094"/><text fill="#000000" font-family="sans-serif" font-size="13" lengthAdjust="spacing" textLength="221" x="686" y="494.2529">FindAsync(VVN where VvnGuid == id)</text><polygon fill="#181818" points="1684.5,525.4609,1694.5,529.4609,1684.5,533.4609,1688.5,529.4609" style="stroke:#181818;stroke-width:1.0;"/><line style="stroke:#181818;stroke-width:1.0;" x1="1006" x2="1690.5" y1="529.4609" y2="529.4609"/><text fill="#000000" font-family="sans-serif" font-size="13" lengthAdjust="spacing" textLength="32" x="1013" y="524.6045">query</text><polygon fill="#181818" points="1017,555.8125,1007,559.8125,1017,563.8125,1013,559.8125" style="stroke:#181818;stroke-width:1.0;"/><line style="stroke:#181818;stroke-width:1.0;stroke-dasharray:2.0,2.0;" x1="1011" x2="1695.5" y1="559.8125" y2="559.8125"/><text fill="#000000" font-family="sans-serif" font-size="13" lengthAdjust="spacing" textLength="150" x="1023" y="554.9561">vvn (state != SUBMITTED)</text><polygon fill="#181818" points="349,602.5156,339,606.5156,349,610.5156,345,606.5156" style="stroke:#181818;stroke-width:1.0;"/><line style="stroke:#181818;stroke-width:1.0;stroke-dasharray:2.0,2.0;" x1="343" x2="668" y1="606.5156" y2="606.5156"/><text fill="#000000" font-family="sans-serif" font-size="13" lengthAdjust="spacing" textLength="68" x="355" y="585.3076">409 Conflict</text><text fill="#000000" font-family="sans-serif" font-size="13" lengthAdjust="spacing" textLength="307" x="355" y="601.6592">"Only pending (SUBMITTED) VVNs can be approved"</text><line style="stroke:#000000;stroke-width:1.0;stroke-dasharray:2.0,2.0;" x1="290.5" x2="1756" y1="615.5156" y2="615.5156"/><text fill="#000000" font-family="sans-serif" font-size="11" font-weight="bold" lengthAdjust="spacing" textLength="91" x="295.5" y="626.9346">[dock not found]</text><polygon fill="#181818" points="994,648.7031,1004,652.7031,994,656.7031,998,652.7031" style="stroke:#181818;stroke-width:1.0;"/><line style="stroke:#181818;stroke-width:1.0;" x1="679" x2="1000" y1="652.7031" y2="652.7031"/><text fill="#000000" font-family="sans-serif" font-size="13" lengthAdjust="spacing" textLength="221" x="686" y="647.8467">FindAsync(VVN where VvnGuid == id)</text><polygon fill="#181818" points="1684.5,679.0547,1694.5,683.0547,1684.5,687.0547,1688.5,683.0547" style="stroke:#181818;stroke-width:1.0;"/><line style="stroke:#181818;stroke-width:1.0;" x1="1006" x2="1690.5" y1="683.0547" y2="683.0547"/><text fill="#000000" font-family="sans-serif" font-size="13" lengthAdjust="spacing" textLength="32" x="1013" y="678.1982">query</text><polygon fill="#181818" points="1017,709.4063,1007,713.4063,1017,717.4063,1013,713.4063" style="stroke:#181818;stroke-width:1.0;"/><line style="stroke:#181818;stroke-width:1.0;stroke-dasharray:2.0,2.0;" x1="1011" x2="1695.5" y1="713.4063" y2="713.4063"/><text fill="#000000" font-family="sans-serif" font-size="13" lengthAdjust="spacing" textLength="17" x="1023" y="708.5498">vvn</text><polygon fill="#181818" points="994,739.7578,1004,743.7578,994,747.7578,998,743.7578" style="stroke:#181818;stroke-width:1.0;"/><line style="stroke:#181818;stroke-width:1.0;" x1="679" x2="1000" y1="743.7578" y2="743.7578"/><text fill="#000000" font-family="sans-serif" font-size="13" lengthAdjust="spacing" textLength="303" x="686" y="738.9014">FindAsync(Dock where Code == request.DockCode)</text><polygon fill="#181818" points="1684.5,770.1094,1694.5,774.1094,1684.5,778.1094,1688.5,774.1094" style="stroke:#181818;stroke-width:1.0;"/><line style="stroke:#181818;stroke-width:1.0;" x1="1006" x2="1690.5" y1="774.1094" y2="774.1094"/><text fill="#000000" font-family="sans-serif" font-size="13" lengthAdjust="spacing" textLength="32" x="1013" y="769.2529">query</text><polygon fill="#181818" points="1017,800.4609,1007,804.4609,1017,808.4609,1013,804.4609" style="stroke:#181818;stroke-width:1.0;"/><line style="stroke:#181818;stroke-width:1.0;stroke-dasharray:2.0,2.0;" x1="1011" x2="1695.5" y1="804.4609" y2="804.4609"/><text fill="#000000" font-family="sans-serif" font-size="13" lengthAdjust="spacing" textLength="20" x="1023" y="799.6045">null</text><polygon fill="#181818" points="349,847.1641,339,851.1641,349,855.1641,345,851.1641" style="stroke:#181818;stroke-width:1.0;"/><line style="stroke:#181818;stroke-width:1.0;stroke-dasharray:2.0,2.0;" x1="343" x2="668" y1="851.1641" y2="851.1641"/><text fill="#000000" font-family="sans-serif" font-size="13" lengthAdjust="spacing" textLength="149" x="355" y="829.9561">422 Unprocessable Entity</text><text fill="#000000" font-family="sans-serif" font-size="13" lengthAdjust="spacing" textLength="126" x="355" y="846.3076">"Dock does not exist"</text><line style="stroke:#000000;stroke-width:1.0;stroke-dasharray:2.0,2.0;" x1="290.5" x2="1756" y1="860.1641" y2="860.1641"/><text fill="#000000" font-family="sans-serif" font-size="11" font-weight="bold" lengthAdjust="spacing" textLength="72" x="295.5" y="871.583">[has overlap]</text><polygon fill="#181818" points="994,893.3516,1004,897.3516,994,901.3516,998,897.3516" style="stroke:#181818;stroke-width:1.0;"/><line style="stroke:#181818;stroke-width:1.0;" x1="679" x2="1000" y1="897.3516" y2="897.3516"/><text fill="#000000" font-family="sans-serif" font-size="13" lengthAdjust="spacing" textLength="221" x="686" y="892.4951">FindAsync(VVN where VvnGuid == id)</text><polygon fill="#181818" points="1684.5,923.7031,1694.5,927.7031,1684.5,931.7031,1688.5,927.7031" style="stroke:#181818;stroke-width:1.0;"/><line style="stroke:#181818;stroke-width:1.0;" x1="1006" x2="1690.5" y1="927.7031" y2="927.7031"/><text fill="#000000" font-family="sans-serif" font-size="13" lengthAdjust="spacing" textLength="32" x="1013" y="922.8467">query</text><polygon fill="#181818" points="1017,954.0547,1007,958.0547,1017,962.0547,1013,958.0547" style="stroke:#181818;stroke-width:1.0;"/><line style="stroke:#181818;stroke-width:1.0;stroke-dasharray:2.0,2.0;" x1="1011" x2="1695.5" y1="958.0547" y2="958.0547"/><text fill="#000000" font-family="sans-serif" font-size="13" lengthAdjust="spacing" textLength="17" x="1023" y="953.1982">vvn</text><polygon fill="#181818" points="994,984.4063,1004,988.4063,994,992.4063,998,988.4063" style="stroke:#181818;stroke-width:1.0;"/><line style="stroke:#181818;stroke-width:1.0;" x1="679" x2="1000" y1="988.4063" y2="988.4063"/><text fill="#000000" font-family="sans-serif" font-size="13" lengthAdjust="spacing" textLength="303" x="686" y="983.5498">FindAsync(Dock where Code == request.DockCode)</text><polygon fill="#181818" points="1684.5,1014.7578,1694.5,1018.7578,1684.5,1022.7578,1688.5,1018.7578" style="stroke:#181818;stroke-width:1.0;"/><line style="stroke:#181818;stroke-width:1.0;" x1="1006" x2="1690.5" y1="1018.7578" y2="1018.7578"/><text fill="#000000" font-family="sans-serif" font-size="13" lengthAdjust="spacing" textLength="32" x="1013" y="1013.9014">query</text><polygon fill="#181818" points="1017,1045.1094,1007,1049.1094,1017,1053.1094,1013,1049.1094" style="stroke:#181818;stroke-width:1.0;"/><line style="stroke:#181818;stroke-width:1.0;stroke-dasharray:2.0,2.0;" x1="1011" x2="1695.5" y1="1049.1094" y2="1049.1094"/><text fill="#000000" font-family="sans-serif" font-size="13" lengthAdjust="spacing" textLength="28" x="1023" y="1044.2529">dock</text><polygon fill="#181818" points="994,1124.5156,1004,1128.5156,994,1132.5156,998,1128.5156" style="stroke:#181818;stroke-width:1.0;"/><line style="stroke:#181818;stroke-width:1.0;" x1="679" x2="1000" y1="1128.5156" y2="1128.5156"/><text fill="#000000" font-family="sans-serif" font-size="13" lengthAdjust="spacing" textLength="208" x="686" y="1074.6045">AnyAsync(DockAssignments where</text><text fill="#000000" font-family="sans-serif" font-size="13" lengthAdjust="spacing" textLength="177" x="686" y="1090.9561">DockCode == dock.Code AND</text><text fill="#000000" font-family="sans-serif" font-size="13" lengthAdjust="spacing" textLength="200" x="686" y="1107.3076">BerthTo &gt; request.BerthFrom AND</text><text fill="#000000" font-family="sans-serif" font-size="13" lengthAdjust="spacing" textLength="173" x="686" y="1123.6592">BerthFrom &lt; request.BerthTo)</text><polygon fill="#181818" points="1684.5,1154.8672,1694.5,1158.8672,1684.5,1162.8672,1688.5,1158.8672" style="stroke:#181818;stroke-width:1.0;"/><line style="stroke:#181818;stroke-width:1.0;" x1="1006" x2="1690.5" y1="1158.8672" y2="1158.8672"/><text fill="#000000" font-family="sans-serif" font-size="13" lengthAdjust="spacing" textLength="83" x="1013" y="1154.0107">query overlaps</text><polygon fill="#181818" points="1017,1185.2188,1007,1189.2188,1017,1193.2188,1013,1189.2188" style="stroke:#181818;stroke-width:1.0;"/><line style="stroke:#181818;stroke-width:1.0;stroke-dasharray:2.0,2.0;" x1="1011" x2="1695.5" y1="1189.2188" y2="1189.2188"/><text fill="#000000" font-family="sans-serif" font-size="13" lengthAdjust="spacing" textLength="109" x="1023" y="1184.3623">true (overlap found)</text><polygon fill="#181818" points="349,1231.9219,339,1235.9219,349,1239.9219,345,1235.9219" style="stroke:#181818;stroke-width:1.0;"/><line style="stroke:#181818;stroke-width:1.0;stroke-dasharray:2.0,2.0;" x1="343" x2="668" y1="1235.9219" y2="1235.9219"/><text fill="#000000" font-family="sans-serif" font-size="13" lengthAdjust="spacing" textLength="149" x="355" y="1214.7139">422 Unprocessable Entity</text><text fill="#000000" font-family="sans-serif" font-size="13" lengthAdjust="spacing" textLength="119" x="355" y="1231.0654">"Scheduling conflict"</text><line style="stroke:#000000;stroke-width:1.0;stroke-dasharray:2.0,2.0;" x1="290.5" x2="1756" y1="1244.9219" y2="1244.9219"/><text fill="#000000" font-family="sans-serif" font-size="11" font-weight="bold" lengthAdjust="spacing" textLength="119" x="295.5" y="1256.3408">[successful approval]</text><polygon fill="#181818" points="994,1278.1094,1004,1282.1094,994,1286.1094,998,1282.1094" style="stroke:#181818;stroke-width:1.0;"/><line style="stroke:#181818;stroke-width:1.0;" x1="679" x2="1000" y1="1282.1094" y2="1282.1094"/><text fill="#000000" font-family="sans-serif" font-size="13" lengthAdjust="spacing" textLength="221" x="686" y="1277.2529">FindAsync(VVN where VvnGuid == id)</text><polygon fill="#181818" points="1684.5,1308.4609,1694.5,1312.4609,1684.5,1316.4609,1688.5,1312.4609" style="stroke:#181818;stroke-width:1.0;"/><line style="stroke:#181818;stroke-width:1.0;" x1="1006" x2="1690.5" y1="1312.4609" y2="1312.4609"/><text fill="#000000" font-family="sans-serif" font-size="13" lengthAdjust="spacing" textLength="32" x="1013" y="1307.6045">query</text><polygon fill="#181818" points="1017,1338.8125,1007,1342.8125,1017,1346.8125,1013,1342.8125" style="stroke:#181818;stroke-width:1.0;"/><line style="stroke:#181818;stroke-width:1.0;stroke-dasharray:2.0,2.0;" x1="1011" x2="1695.5" y1="1342.8125" y2="1342.8125"/><text fill="#000000" font-family="sans-serif" font-size="13" lengthAdjust="spacing" textLength="17" x="1023" y="1337.9561">vvn</text><polygon fill="#181818" points="994,1369.1641,1004,1373.1641,994,1377.1641,998,1373.1641" style="stroke:#181818;stroke-width:1.0;"/><line style="stroke:#181818;stroke-width:1.0;" x1="679" x2="1000" y1="1373.1641" y2="1373.1641"/><text fill="#000000" font-family="sans-serif" font-size="13" lengthAdjust="spacing" textLength="303" x="686" y="1368.3076">FindAsync(Dock where Code == request.DockCode)</text><polygon fill="#181818" points="1684.5,1399.5156,1694.5,1403.5156,1684.5,1407.5156,1688.5,1403.5156" style="stroke:#181818;stroke-width:1.0;"/><line style="stroke:#181818;stroke-width:1.0;" x1="1006" x2="1690.5" y1="1403.5156" y2="1403.5156"/><text fill="#000000" font-family="sans-serif" font-size="13" lengthAdjust="spacing" textLength="32" x="1013" y="1398.6592">query</text><polygon fill="#181818" points="1017,1429.8672,1007,1433.8672,1017,1437.8672,1013,1433.8672" style="stroke:#181818;stroke-width:1.0;"/><line style="stroke:#181818;stroke-width:1.0;stroke-dasharray:2.0,2.0;" x1="1011" x2="1695.5" y1="1433.8672" y2="1433.8672"/><text fill="#000000" font-family="sans-serif" font-size="13" lengthAdjust="spacing" textLength="28" x="1023" y="1429.0107">dock</text><polygon fill="#181818" points="994,1509.2734,1004,1513.2734,994,1517.2734,998,1513.2734" style="stroke:#181818;stroke-width:1.0;"/><line style="stroke:#181818;stroke-width:1.0;" x1="679" x2="1000" y1="1513.2734" y2="1513.2734"/><text fill="#000000" font-family="sans-serif" font-size="13" lengthAdjust="spacing" textLength="208" x="686" y="1459.3623">AnyAsync(DockAssignments where</text><text fill="#000000" font-family="sans-serif" font-size="13" lengthAdjust="spacing" textLength="177" x="686" y="1475.7139">DockCode == dock.Code AND</text><text fill="#000000" font-family="sans-serif" font-size="13" lengthAdjust="spacing" textLength="200" x="686" y="1492.0654">BerthTo &gt; request.BerthFrom AND</text><text fill="#000000" font-family="sans-serif" font-size="13" lengthAdjust="spacing" textLength="173" x="686" y="1508.417">BerthFrom &lt; request.BerthTo)</text><polygon fill="#181818" points="1684.5,1539.625,1694.5,1543.625,1684.5,1547.625,1688.5,1543.625" style="stroke:#181818;stroke-width:1.0;"/><line style="stroke:#181818;stroke-width:1.0;" x1="1006" x2="1690.5" y1="1543.625" y2="1543.625"/><text fill="#000000" font-family="sans-serif" font-size="13" lengthAdjust="spacing" textLength="83" x="1013" y="1538.7686">query overlaps</text><polygon fill="#181818" points="1017,1569.9766,1007,1573.9766,1017,1577.9766,1013,1573.9766" style="stroke:#181818;stroke-width:1.0;"/><line style="stroke:#181818;stroke-width:1.0;stroke-dasharray:2.0,2.0;" x1="1011" x2="1695.5" y1="1573.9766" y2="1573.9766"/><text fill="#000000" font-family="sans-serif" font-size="13" lengthAdjust="spacing" textLength="97" x="1023" y="1569.1201">false (no overlap)</text><polygon fill="#181818" points="1370.5,1600.3281,1380.5,1604.3281,1370.5,1608.3281,1374.5,1604.3281" style="stroke:#181818;stroke-width:1.0;"/><line style="stroke:#181818;stroke-width:1.0;" x1="679" x2="1376.5" y1="1604.3281" y2="1604.3281"/><text fill="#000000" font-family="sans-serif" font-size="13" lengthAdjust="spacing" textLength="439" x="686" y="1599.4717">Create(vvnId, dockCode, berthFrom, berthTo, assignedByUserId, timestamp)</text><polygon fill="#181818" points="690,1630.6797,680,1634.6797,690,1638.6797,686,1634.6797" style="stroke:#181818;stroke-width:1.0;"/><line style="stroke:#181818;stroke-width:1.0;stroke-dasharray:2.0,2.0;" x1="684" x2="1381.5" y1="1634.6797" y2="1634.6797"/><text fill="#000000" font-family="sans-serif" font-size="13" lengthAdjust="spacing" textLength="67" x="696" y="1629.8232">assignment</text><polygon fill="#181818" points="994,1661.0313,1004,1665.0313,994,1669.0313,998,1665.0313" style="stroke:#181818;stroke-width:1.0;"/><line style="stroke:#181818;stroke-width:1.0;" x1="679" x2="1000" y1="1665.0313" y2="1665.0313"/><text fill="#000000" font-family="sans-serif" font-size="13" lengthAdjust="spacing" textLength="208" x="686" y="1660.1748">DockAssignments.Add(assignment)</text><polygon fill="#181818" points="1163.5,1691.3828,1173.5,1695.3828,1163.5,1699.3828,1167.5,1695.3828" style="stroke:#181818;stroke-width:1.0;"/><line style="stroke:#181818;stroke-width:1.0;" x1="679" x2="1169.5" y1="1695.3828" y2="1695.3828"/><text fill="#000000" font-family="sans-serif" font-size="13" lengthAdjust="spacing" textLength="254" x="686" y="1690.5264">Approve(approverUserId, dockAssignmentId)</text><polygon fill="#181818" points="690,1721.7344,680,1725.7344,690,1729.7344,686,1725.7344" style="stroke:#181818;stroke-width:1.0;"/><line style="stroke:#181818;stroke-width:1.0;stroke-dasharray:2.0,2.0;" x1="684" x2="1174.5" y1="1725.7344" y2="1725.7344"/><text fill="#000000" font-family="sans-serif" font-size="13" lengthAdjust="spacing" textLength="118" x="696" y="1720.8779">state = APPROVED</text><polygon fill="#181818" points="1548,1752.0859,1558,1756.0859,1548,1760.0859,1552,1756.0859" style="stroke:#181818;stroke-width:1.0;"/><line style="stroke:#181818;stroke-width:1.0;" x1="679" x2="1554" y1="1756.0859" y2="1756.0859"/><text fill="#000000" font-family="sans-serif" font-size="13" lengthAdjust="spacing" textLength="405" x="686" y="1751.2295">Approved(vvnId, approverUserId, dockAssignmentId, timestamp, notes)</text><polygon fill="#181818" points="690,1782.4375,680,1786.4375,690,1790.4375,686,1786.4375" style="stroke:#181818;stroke-width:1.0;"/><line style="stroke:#181818;stroke-width:1.0;stroke-dasharray:2.0,2.0;" x1="684" x2="1559" y1="1786.4375" y2="1786.4375"/><text fill="#000000" font-family="sans-serif" font-size="13" lengthAdjust="spacing" textLength="69" x="696" y="1781.5811">decisionLog</text><polygon fill="#181818" points="994,1812.7891,1004,1816.7891,994,1820.7891,998,1816.7891" style="stroke:#181818;stroke-width:1.0;"/><line style="stroke:#181818;stroke-width:1.0;" x1="679" x2="1000" y1="1816.7891" y2="1816.7891"/><text fill="#000000" font-family="sans-serif" font-size="13" lengthAdjust="spacing" textLength="182" x="686" y="1811.9326">DecisionLogs.Add(decisionLog)</text><polygon fill="#181818" points="994,1843.1406,1004,1847.1406,994,1851.1406,998,1847.1406" style="stroke:#181818;stroke-width:1.0;"/><line style="stroke:#181818;stroke-width:1.0;" x1="679" x2="1000" y1="1847.1406" y2="1847.1406"/><text fill="#000000" font-family="sans-serif" font-size="13" lengthAdjust="spacing" textLength="124" x="686" y="1842.2842">SaveChangesAsync()</text><polygon fill="#181818" points="1684.5,1873.4922,1694.5,1877.4922,1684.5,1881.4922,1688.5,1877.4922" style="stroke:#181818;stroke-width:1.0;"/><line style="stroke:#181818;stroke-width:1.0;" x1="1006" x2="1690.5" y1="1877.4922" y2="1877.4922"/><text fill="#000000" font-family="sans-serif" font-size="13" lengthAdjust="spacing" textLength="111" x="1013" y="1872.6357">commit transaction</text><polygon fill="#181818" points="1017,1903.8438,1007,1907.8438,1017,1911.8438,1013,1907.8438" style="stroke:#181818;stroke-width:1.0;"/><line style="stroke:#181818;stroke-width:1.0;stroke-dasharray:2.0,2.0;" x1="1011" x2="1695.5" y1="1907.8438" y2="1907.8438"/><text fill="#000000" font-family="sans-serif" font-size="13" lengthAdjust="spacing" textLength="14" x="1023" y="1902.9873">ok</text><polygon fill="#181818" points="994,1934.1953,1004,1938.1953,994,1942.1953,998,1938.1953" style="stroke:#181818;stroke-width:1.0;"/><line style="stroke:#181818;stroke-width:1.0;" x1="679" x2="1000" y1="1938.1953" y2="1938.1953"/><text fill="#000000" font-family="sans-serif" font-size="13" lengthAdjust="spacing" textLength="144" x="686" y="1933.3389">Load organization details</text><polygon fill="#181818" points="1684.5,1964.5469,1694.5,1968.5469,1684.5,1972.5469,1688.5,1968.5469" style="stroke:#181818;stroke-width:1.0;"/><line style="stroke:#181818;stroke-width:1.0;" x1="1006" x2="1690.5" y1="1968.5469" y2="1968.5469"/><text fill="#000000" font-family="sans-serif" font-size="13" lengthAdjust="spacing" textLength="61" x="1013" y="1963.6904">query orgs</text><polygon fill="#181818" points="1017,1994.8984,1007,1998.8984,1017,2002.8984,1013,1998.8984" style="stroke:#181818;stroke-width:1.0;"/><line style="stroke:#181818;stroke-width:1.0;stroke-dasharray:2.0,2.0;" x1="1011" x2="1695.5" y1="1998.8984" y2="1998.8984"/><text fill="#000000" font-family="sans-serif" font-size="13" lengthAdjust="spacing" textLength="77" x="1023" y="1994.042">organizations</text><polygon fill="#181818" points="349,2057.9531,339,2061.9531,349,2065.9531,345,2061.9531" style="stroke:#181818;stroke-width:1.0;"/><line style="stroke:#181818;stroke-width:1.0;stroke-dasharray:2.0,2.0;" x1="343" x2="668" y1="2061.9531" y2="2061.9531"/><text fill="#000000" font-family="sans-serif" font-size="13" lengthAdjust="spacing" textLength="185" x="355" y="2024.3936">200 OK + ApproveVvnResponse</text><text fill="#000000" font-family="sans-serif" font-size="13" lengthAdjust="spacing" textLength="262" x="355" y="2040.7451">{ VvnId, Status: APPROVED, AssignedDock,</text><text fill="#000000" font-family="sans-serif" font-size="13" lengthAdjust="spacing" textLength="161" x="363" y="2057.0967">ApprovalInfo, SubmitterInfo }</text><!--SRC=[rLPDR-Cs4BthLqnzab4x2TAzTD44KAoaCEgDZPNZao-KEBQ9IgHBKkvw5_lVEvGeIueJT1T52knDX1xduxt78QsmEKAIn326QB_Nwe2mMZq60SkiqZ1OA6qXAkrEQM6FCDziH8Pw0Cmqty6UQIioiMVImY1QJ66I2vIsmjIVVSWAZS5y9OomZyeA2iAiKD9CbBHQvRaFF-dlSeN4gSFWfpfsd7vJN0XZLJ0XXzKcrrjlLwooFoDZn5OML6aV74VFi9XHT2LdQliCE0iuionb1c5m_m3XL7x0GkbZ_JiXAZ48F64mllMym7jOp9CbN1uEqbn-4Vph9QirMCilu2gRA8uZk4DjTmzQ5VvpgKP0BQA1hu6Fv69IE2zXAFW8DFvLeh539wKuC8j4QJ1fa2kM2weP7QydVQCi8nB3Z3aLQ6DkGIeBVHC4G076tIRUNVq23qgdWdEKQpcOo_m8Bpl7GCOax55lb2x0xeG1LvwIWm1pKtclIhbHfUHrfbjIcf8y2CaZSvHPw31_xr0J-Y1_BmM7cniGV4XmGXA-ufksKF_QbLklnqqaMURvIqsySwHI8ovphnWX8Ncw-p1TBkzZC9POUwFAo0SGLWdWfvisv_2bQdy5EWoRN6IsONoFaWj9rcmtkXPgobC4xotkgURahpVdcZfw9RApjm_jNExYUiTUDCx_hufUNyEJf9wTgLbAS-vUMl8YyLKbvufEa2C0FmbZFIixEgz4aixP_eUcnAdRInF9OvkbdNYcJhYMJGQNrMs-g1RHOxoMVkZ0xQcSqqJg0AhbRtt8KhrISCEnEQ_SwX8XzFzhSmw_Izmaso4lStSKCdz4lBYch0RSfipzOM3vcuhy_-dyOqgzOKwLKAe6C-os4X5Yef6cOKXqJkbAuwShCMslnBIv4bdLAVAxuvD1xV1M55GVAwgu56_iBpzsukGvTSyOkuWu3rjqjppdaFR2zRDLDvbvBywqCexRqLHG3_aRY1QBZ_FLVTojOzR6vKtd_nQ_q-l8pJGqLSkpKqBUlbtEUcv_rGrtiCCUCc47dEoOtAAf3NOkUQQAGbWwn4oQ-cO_brsTENQc60UbjqoAp_MhZQDb8ZUlMKflNx1JDu0vfUXEZUkhAvZ_0Jyt_DBX_eXcJ_3goRMgoKv8dDAyFuapWiXRozbZj9RWzxDyAZValAHCgMbBqj2I7cLq4GSSstVNFm00]--></g></svg>