<?xml version="1.0" encoding="us-ascii" standalone="no"?><svg xmlns="http://www.w3.org/2000/svg" xmlns:xlink="http://www.w3.org/1999/xlink" contentStyleType="text/css" height="1279px" preserveAspectRatio="none" style="width:1373px;height:1279px;background:#FFFFFF;" version="1.1" viewBox="0 0 1373 1279" width="1373px" zoomAndPan="magnify"><defs/><g><text fill="#000000" font-family="sans-serif" font-size="14" font-weight="bold" lengthAdjust="spacing" textLength="118" x="628.5" y="29.5332">SSD - Reject VVN</text><rect fill="#FFFFFF" height="987.5938" style="stroke:#181818;stroke-width:1.0;" width="10" x="552" y="200.2734"/><rect fill="none" height="922.2422" style="stroke:#000000;stroke-width:1.5;" width="1190.5" x="175.5" y="258.625"/><line style="stroke:#181818;stroke-width:0.5;stroke-dasharray:5.0,5.0;" x1="74" x2="74" y1="121.2188" y2="1197.8672"/><line style="stroke:#181818;stroke-width:0.5;stroke-dasharray:5.0,5.0;" x1="222.5" x2="222.5" y1="121.2188" y2="1197.8672"/><line style="stroke:#181818;stroke-width:0.5;stroke-dasharray:5.0,5.0;" x1="557" x2="557" y1="121.2188" y2="1197.8672"/><line style="stroke:#181818;stroke-width:0.5;stroke-dasharray:5.0,5.0;" x1="807" x2="807" y1="121.2188" y2="1197.8672"/><line style="stroke:#181818;stroke-width:0.5;stroke-dasharray:5.0,5.0;" x1="976" x2="976" y1="121.2188" y2="1197.8672"/><line style="stroke:#181818;stroke-width:0.5;stroke-dasharray:5.0,5.0;" x1="1170" x2="1170" y1="121.2188" y2="1197.8672"/><line style="stroke:#181818;stroke-width:0.5;stroke-dasharray:5.0,5.0;" x1="1306" x2="1306" y1="121.2188" y2="1197.8672"/><text fill="#000000" font-family="sans-serif" font-size="14" lengthAdjust="spacing" textLength="132" x="5" y="118.1426">Port Authority Officer</text><ellipse cx="74" cy="52.1094" fill="#E2E2F0" rx="8" ry="8" style="stroke:#181818;stroke-width:0.5;"/><path d="M74,60.1094 L74,87.1094 M61,68.1094 L87,68.1094 M74,87.1094 L61,102.1094 M74,87.1094 L87,102.1094 " fill="none" style="stroke:#181818;stroke-width:0.5;"/><text fill="#000000" font-family="sans-serif" font-size="14" lengthAdjust="spacing" textLength="132" x="5" y="1211.4004">Port Authority Officer</text><ellipse cx="74" cy="1222.9766" fill="#E2E2F0" rx="8" ry="8" style="stroke:#181818;stroke-width:0.5;"/><path d="M74,1230.9766 L74,1257.9766 M61,1238.9766 L87,1238.9766 M74,1257.9766 L61,1272.9766 M74,1257.9766 L87,1272.9766 " fill="none" style="stroke:#181818;stroke-width:0.5;"/><rect fill="#E2E2F0" height="31.6094" rx="2.5" ry="2.5" style="stroke:#181818;stroke-width:0.5;" width="75" x="185.5" y="88.6094"/><text fill="#000000" font-family="sans-serif" font-size="14" lengthAdjust="spacing" textLength="61" x="192.5" y="110.1426">API Client</text><rect fill="#E2E2F0" height="31.6094" rx="2.5" ry="2.5" style="stroke:#181818;stroke-width:0.5;" width="75" x="185.5" y="1196.8672"/><text fill="#000000" font-family="sans-serif" font-size="14" lengthAdjust="spacing" textLength="61" x="192.5" y="1218.4004">API Client</text><rect fill="#E2E2F0" height="31.6094" rx="2.5" ry="2.5" style="stroke:#181818;stroke-width:0.5;" width="220" x="447" y="88.6094"/><text fill="#000000" font-family="sans-serif" font-size="14" lengthAdjust="spacing" textLength="206" x="454" y="110.1426">VesselVisitNotificationsController</text><rect fill="#E2E2F0" height="31.6094" rx="2.5" ry="2.5" style="stroke:#181818;stroke-width:0.5;" width="220" x="447" y="1196.8672"/><text fill="#000000" font-family="sans-serif" font-size="14" lengthAdjust="spacing" textLength="206" x="454" y="1218.4004">VesselVisitNotificationsController</text><rect fill="#E2E2F0" height="31.6094" rx="2.5" ry="2.5" style="stroke:#181818;stroke-width:0.5;" width="106" x="754" y="88.6094"/><text fill="#000000" font-family="sans-serif" font-size="14" lengthAdjust="spacing" textLength="92" x="761" y="110.1426">PortDbContext</text><rect fill="#E2E2F0" height="31.6094" rx="2.5" ry="2.5" style="stroke:#181818;stroke-width:0.5;" width="106" x="754" y="1196.8672"/><text fill="#000000" font-family="sans-serif" font-size="14" lengthAdjust="spacing" textLength="92" x="761" y="1218.4004">PortDbContext</text><rect fill="#E2E2F0" height="31.6094" rx="2.5" ry="2.5" style="stroke:#181818;stroke-width:0.5;" width="213" x="870" y="88.6094"/><text fill="#000000" font-family="sans-serif" font-size="14" lengthAdjust="spacing" textLength="199" x="877" y="110.1426">VesselVisitNotification (Domain)</text><rect fill="#E2E2F0" height="31.6094" rx="2.5" ry="2.5" style="stroke:#181818;stroke-width:0.5;" width="213" x="870" y="1196.8672"/><text fill="#000000" font-family="sans-serif" font-size="14" lengthAdjust="spacing" textLength="199" x="877" y="1218.4004">VesselVisitNotification (Domain)</text><rect fill="#E2E2F0" height="31.6094" rx="2.5" ry="2.5" style="stroke:#181818;stroke-width:0.5;" width="154" x="1093" y="88.6094"/><text fill="#000000" font-family="sans-serif" font-size="14" lengthAdjust="spacing" textLength="140" x="1100" y="110.1426">DecisionLog (Domain)</text><rect fill="#E2E2F0" height="31.6094" rx="2.5" ry="2.5" style="stroke:#181818;stroke-width:0.5;" width="154" x="1093" y="1196.8672"/><text fill="#000000" font-family="sans-serif" font-size="14" lengthAdjust="spacing" textLength="140" x="1100" y="1218.4004">DecisionLog (Domain)</text><text fill="#000000" font-family="sans-serif" font-size="14" lengthAdjust="spacing" textLength="93" x="1257" y="118.1426">EF (InMemory)</text><path d="M1288.5,67.6094 C1288.5,57.6094 1306.5,57.6094 1306.5,57.6094 C1306.5,57.6094 1324.5,57.6094 1324.5,67.6094 L1324.5,93.6094 C1324.5,103.6094 1306.5,103.6094 1306.5,103.6094 C1306.5,103.6094 1288.5,103.6094 1288.5,93.6094 L1288.5,67.6094 " fill="#E2E2F0" style="stroke:#181818;stroke-width:1.5;"/><path d="M1288.5,67.6094 C1288.5,77.6094 1306.5,77.6094 1306.5,77.6094 C1306.5,77.6094 1324.5,77.6094 1324.5,67.6094 " fill="none" style="stroke:#181818;stroke-width:1.5;"/><text fill="#000000" font-family="sans-serif" font-size="14" lengthAdjust="spacing" textLength="93" x="1257" y="1211.4004">EF (InMemory)</text><path d="M1288.5,1224.4766 C1288.5,1214.4766 1306.5,1214.4766 1306.5,1214.4766 C1306.5,1214.4766 1324.5,1214.4766 1324.5,1224.4766 L1324.5,1250.4766 C1324.5,1260.4766 1306.5,1260.4766 1306.5,1260.4766 C1306.5,1260.4766 1288.5,1260.4766 1288.5,1250.4766 L1288.5,1224.4766 " fill="#E2E2F0" style="stroke:#181818;stroke-width:1.5;"/><path d="M1288.5,1224.4766 C1288.5,1234.4766 1306.5,1234.4766 1306.5,1234.4766 C1306.5,1234.4766 1324.5,1234.4766 1324.5,1224.4766 " fill="none" style="stroke:#181818;stroke-width:1.5;"/><rect fill="#FFFFFF" height="987.5938" style="stroke:#181818;stroke-width:1.0;" width="10" x="552" y="200.2734"/><polygon fill="#181818" points="211,165.9219,221,169.9219,211,173.9219,215,169.9219" style="stroke:#181818;stroke-width:1.0;"/><line style="stroke:#181818;stroke-width:1.0;" x1="74" x2="217" y1="169.9219" y2="169.9219"/><text fill="#000000" font-family="sans-serif" font-size="13" lengthAdjust="spacing" textLength="125" x="81" y="148.7139">POST /vvns/{id}/reject</text><text fill="#000000" font-family="sans-serif" font-size="13" lengthAdjust="spacing" textLength="102" x="81" y="165.0654">{ Reason, Notes }</text><polygon fill="#181818" points="540,196.2734,550,200.2734,540,204.2734,544,200.2734" style="stroke:#181818;stroke-width:1.0;"/><line style="stroke:#181818;stroke-width:1.0;" x1="223" x2="546" y1="200.2734" y2="200.2734"/><text fill="#000000" font-family="sans-serif" font-size="13" lengthAdjust="spacing" textLength="106" x="230" y="195.417">Reject(id, request)</text><line style="stroke:#181818;stroke-width:1.0;" x1="562" x2="604" y1="230.625" y2="230.625"/><line style="stroke:#181818;stroke-width:1.0;" x1="604" x2="604" y1="230.625" y2="243.625"/><line style="stroke:#181818;stroke-width:1.0;" x1="563" x2="604" y1="243.625" y2="243.625"/><polygon fill="#181818" points="573,239.625,563,243.625,573,247.625,569,243.625" style="stroke:#181818;stroke-width:1.0;"/><text fill="#000000" font-family="sans-serif" font-size="13" lengthAdjust="spacing" textLength="206" x="569" y="225.7686">ValidatePortAuthorityAccess(caller)</text><path d="M175.5,258.625 L236.5,258.625 L236.5,266.9766 L226.5,276.9766 L175.5,276.9766 L175.5,258.625 " fill="#EEEEEE" style="stroke:#000000;stroke-width:1.5;"/><rect fill="none" height="922.2422" style="stroke:#000000;stroke-width:1.5;" width="1190.5" x="175.5" y="258.625"/><text fill="#000000" font-family="sans-serif" font-size="13" font-weight="bold" lengthAdjust="spacing" textLength="16" x="190.5" y="273.1201">alt</text><text fill="#000000" font-family="sans-serif" font-size="11" font-weight="bold" lengthAdjust="spacing" textLength="106" x="251.5" y="272.0439">[not Port Authority]</text><polygon fill="#181818" points="234,311.6797,224,315.6797,234,319.6797,230,315.6797" style="stroke:#181818;stroke-width:1.0;"/><line style="stroke:#181818;stroke-width:1.0;stroke-dasharray:2.0,2.0;" x1="228" x2="551" y1="315.6797" y2="315.6797"/><text fill="#000000" font-family="sans-serif" font-size="13" lengthAdjust="spacing" textLength="82" x="240" y="294.4717">403 Forbidden</text><text fill="#000000" font-family="sans-serif" font-size="13" lengthAdjust="spacing" textLength="305" x="240" y="310.8232">"Only Port Authority Officers can perform this action"</text><line style="stroke:#000000;stroke-width:1.0;stroke-dasharray:2.0,2.0;" x1="175.5" x2="1366" y1="324.6797" y2="324.6797"/><text fill="#000000" font-family="sans-serif" font-size="11" font-weight="bold" lengthAdjust="spacing" textLength="147" x="180.5" y="336.0986">[missing rejection reason]</text><polygon fill="#181818" points="234,374.2188,224,378.2188,234,382.2188,230,378.2188" style="stroke:#181818;stroke-width:1.0;"/><line style="stroke:#181818;stroke-width:1.0;stroke-dasharray:2.0,2.0;" x1="228" x2="551" y1="378.2188" y2="378.2188"/><text fill="#000000" font-family="sans-serif" font-size="13" lengthAdjust="spacing" textLength="149" x="240" y="357.0107">422 Unprocessable Entity</text><text fill="#000000" font-family="sans-serif" font-size="13" lengthAdjust="spacing" textLength="179" x="240" y="373.3623">"A rejection reason is required"</text><line style="stroke:#000000;stroke-width:1.0;stroke-dasharray:2.0,2.0;" x1="175.5" x2="1366" y1="387.2188" y2="387.2188"/><text fill="#000000" font-family="sans-serif" font-size="11" font-weight="bold" lengthAdjust="spacing" textLength="87" x="180.5" y="398.6377">[VVN not found]</text><polygon fill="#181818" points="795,420.4063,805,424.4063,795,428.4063,799,424.4063" style="stroke:#181818;stroke-width:1.0;"/><line style="stroke:#181818;stroke-width:1.0;" x1="562" x2="801" y1="424.4063" y2="424.4063"/><text fill="#000000" font-family="sans-serif" font-size="13" lengthAdjust="spacing" textLength="221" x="569" y="419.5498">FindAsync(VVN where VvnGuid == id)</text><polygon fill="#181818" points="1294.5,450.7578,1304.5,454.7578,1294.5,458.7578,1298.5,454.7578" style="stroke:#181818;stroke-width:1.0;"/><line style="stroke:#181818;stroke-width:1.0;" x1="807" x2="1300.5" y1="454.7578" y2="454.7578"/><text fill="#000000" font-family="sans-serif" font-size="13" lengthAdjust="spacing" textLength="32" x="814" y="449.9014">query</text><polygon fill="#181818" points="818,481.1094,808,485.1094,818,489.1094,814,485.1094" style="stroke:#181818;stroke-width:1.0;"/><line style="stroke:#181818;stroke-width:1.0;stroke-dasharray:2.0,2.0;" x1="812" x2="1305.5" y1="485.1094" y2="485.1094"/><text fill="#000000" font-family="sans-serif" font-size="13" lengthAdjust="spacing" textLength="20" x="824" y="480.2529">null</text><polygon fill="#181818" points="234,511.4609,224,515.4609,234,519.4609,230,515.4609" style="stroke:#181818;stroke-width:1.0;"/><line style="stroke:#181818;stroke-width:1.0;stroke-dasharray:2.0,2.0;" x1="228" x2="551" y1="515.4609" y2="515.4609"/><text fill="#000000" font-family="sans-serif" font-size="13" lengthAdjust="spacing" textLength="85" x="240" y="510.6045">404 Not Found</text><line style="stroke:#000000;stroke-width:1.0;stroke-dasharray:2.0,2.0;" x1="175.5" x2="1366" y1="524.4609" y2="524.4609"/><text fill="#000000" font-family="sans-serif" font-size="11" font-weight="bold" lengthAdjust="spacing" textLength="160" x="180.5" y="535.8799">[VVN not in SUBMITTED state]</text><polygon fill="#181818" points="795,557.6484,805,561.6484,795,565.6484,799,561.6484" style="stroke:#181818;stroke-width:1.0;"/><line style="stroke:#181818;stroke-width:1.0;" x1="562" x2="801" y1="561.6484" y2="561.6484"/><text fill="#000000" font-family="sans-serif" font-size="13" lengthAdjust="spacing" textLength="221" x="569" y="556.792">FindAsync(VVN where VvnGuid == id)</text><polygon fill="#181818" points="1294.5,588,1304.5,592,1294.5,596,1298.5,592" style="stroke:#181818;stroke-width:1.0;"/><line style="stroke:#181818;stroke-width:1.0;" x1="807" x2="1300.5" y1="592" y2="592"/><text fill="#000000" font-family="sans-serif" font-size="13" lengthAdjust="spacing" textLength="32" x="814" y="587.1436">query</text><polygon fill="#181818" points="818,618.3516,808,622.3516,818,626.3516,814,622.3516" style="stroke:#181818;stroke-width:1.0;"/><line style="stroke:#181818;stroke-width:1.0;stroke-dasharray:2.0,2.0;" x1="812" x2="1305.5" y1="622.3516" y2="622.3516"/><text fill="#000000" font-family="sans-serif" font-size="13" lengthAdjust="spacing" textLength="150" x="824" y="617.4951">vvn (state != SUBMITTED)</text><polygon fill="#181818" points="234,665.0547,224,669.0547,234,673.0547,230,669.0547" style="stroke:#181818;stroke-width:1.0;"/><line style="stroke:#181818;stroke-width:1.0;stroke-dasharray:2.0,2.0;" x1="228" x2="551" y1="669.0547" y2="669.0547"/><text fill="#000000" font-family="sans-serif" font-size="13" lengthAdjust="spacing" textLength="68" x="240" y="647.8467">409 Conflict</text><text fill="#000000" font-family="sans-serif" font-size="13" lengthAdjust="spacing" textLength="302" x="240" y="664.1982">"Only pending (SUBMITTED) VVNs can be rejected"</text><line style="stroke:#000000;stroke-width:1.0;stroke-dasharray:2.0,2.0;" x1="175.5" x2="1366" y1="678.0547" y2="678.0547"/><text fill="#000000" font-family="sans-serif" font-size="11" font-weight="bold" lengthAdjust="spacing" textLength="121" x="180.5" y="689.4736">[successful rejection]</text><polygon fill="#181818" points="795,711.2422,805,715.2422,795,719.2422,799,715.2422" style="stroke:#181818;stroke-width:1.0;"/><line style="stroke:#181818;stroke-width:1.0;" x1="562" x2="801" y1="715.2422" y2="715.2422"/><text fill="#000000" font-family="sans-serif" font-size="13" lengthAdjust="spacing" textLength="221" x="569" y="710.3857">FindAsync(VVN where VvnGuid == id)</text><polygon fill="#181818" points="1294.5,741.5938,1304.5,745.5938,1294.5,749.5938,1298.5,745.5938" style="stroke:#181818;stroke-width:1.0;"/><line style="stroke:#181818;stroke-width:1.0;" x1="807" x2="1300.5" y1="745.5938" y2="745.5938"/><text fill="#000000" font-family="sans-serif" font-size="13" lengthAdjust="spacing" textLength="32" x="814" y="740.7373">query</text><polygon fill="#181818" points="818,771.9453,808,775.9453,818,779.9453,814,775.9453" style="stroke:#181818;stroke-width:1.0;"/><line style="stroke:#181818;stroke-width:1.0;stroke-dasharray:2.0,2.0;" x1="812" x2="1305.5" y1="775.9453" y2="775.9453"/><text fill="#000000" font-family="sans-serif" font-size="13" lengthAdjust="spacing" textLength="17" x="824" y="771.0889">vvn</text><polygon fill="#181818" points="964.5,802.2969,974.5,806.2969,964.5,810.2969,968.5,806.2969" style="stroke:#181818;stroke-width:1.0;"/><line style="stroke:#181818;stroke-width:1.0;" x1="562" x2="970.5" y1="806.2969" y2="806.2969"/><text fill="#000000" font-family="sans-serif" font-size="13" lengthAdjust="spacing" textLength="172" x="569" y="801.4404">Reject(rejectorUserId, reason)</text><polygon fill="#181818" points="573,832.6484,563,836.6484,573,840.6484,569,836.6484" style="stroke:#181818;stroke-width:1.0;"/><line style="stroke:#181818;stroke-width:1.0;stroke-dasharray:2.0,2.0;" x1="567" x2="975.5" y1="836.6484" y2="836.6484"/><text fill="#000000" font-family="sans-serif" font-size="13" lengthAdjust="spacing" textLength="112" x="579" y="831.792">state = REJECTED</text><polygon fill="#181818" points="1158,863,1168,867,1158,871,1162,867" style="stroke:#181818;stroke-width:1.0;"/><line style="stroke:#181818;stroke-width:1.0;" x1="562" x2="1164" y1="867" y2="867"/><text fill="#000000" font-family="sans-serif" font-size="13" lengthAdjust="spacing" textLength="330" x="569" y="862.1436">Rejected(vvnId, rejectorUserId, reason, timestamp, notes)</text><polygon fill="#181818" points="573,893.3516,563,897.3516,573,901.3516,569,897.3516" style="stroke:#181818;stroke-width:1.0;"/><line style="stroke:#181818;stroke-width:1.0;stroke-dasharray:2.0,2.0;" x1="567" x2="1169" y1="897.3516" y2="897.3516"/><text fill="#000000" font-family="sans-serif" font-size="13" lengthAdjust="spacing" textLength="69" x="579" y="892.4951">decisionLog</text><polygon fill="#181818" points="795,923.7031,805,927.7031,795,931.7031,799,927.7031" style="stroke:#181818;stroke-width:1.0;"/><line style="stroke:#181818;stroke-width:1.0;" x1="562" x2="801" y1="927.7031" y2="927.7031"/><text fill="#000000" font-family="sans-serif" font-size="13" lengthAdjust="spacing" textLength="182" x="569" y="922.8467">DecisionLogs.Add(decisionLog)</text><polygon fill="#181818" points="795,954.0547,805,958.0547,795,962.0547,799,958.0547" style="stroke:#181818;stroke-width:1.0;"/><line style="stroke:#181818;stroke-width:1.0;" x1="562" x2="801" y1="958.0547" y2="958.0547"/><text fill="#000000" font-family="sans-serif" font-size="13" lengthAdjust="spacing" textLength="124" x="569" y="953.1982">SaveChangesAsync()</text><polygon fill="#181818" points="1294.5,984.4063,1304.5,988.4063,1294.5,992.4063,1298.5,988.4063" style="stroke:#181818;stroke-width:1.0;"/><line style="stroke:#181818;stroke-width:1.0;" x1="807" x2="1300.5" y1="988.4063" y2="988.4063"/><text fill="#000000" font-family="sans-serif" font-size="13" lengthAdjust="spacing" textLength="111" x="814" y="983.5498">commit transaction</text><polygon fill="#181818" points="818,1014.7578,808,1018.7578,818,1022.7578,814,1018.7578" style="stroke:#181818;stroke-width:1.0;"/><line style="stroke:#181818;stroke-width:1.0;stroke-dasharray:2.0,2.0;" x1="812" x2="1305.5" y1="1018.7578" y2="1018.7578"/><text fill="#000000" font-family="sans-serif" font-size="13" lengthAdjust="spacing" textLength="14" x="824" y="1013.9014">ok</text><polygon fill="#181818" points="795,1045.1094,805,1049.1094,795,1053.1094,799,1049.1094" style="stroke:#181818;stroke-width:1.0;"/><line style="stroke:#181818;stroke-width:1.0;" x1="562" x2="801" y1="1049.1094" y2="1049.1094"/><text fill="#000000" font-family="sans-serif" font-size="13" lengthAdjust="spacing" textLength="144" x="569" y="1044.2529">Load organization details</text><polygon fill="#181818" points="1294.5,1075.4609,1304.5,1079.4609,1294.5,1083.4609,1298.5,1079.4609" style="stroke:#181818;stroke-width:1.0;"/><line style="stroke:#181818;stroke-width:1.0;" x1="807" x2="1300.5" y1="1079.4609" y2="1079.4609"/><text fill="#000000" font-family="sans-serif" font-size="13" lengthAdjust="spacing" textLength="61" x="814" y="1074.6045">query orgs</text><polygon fill="#181818" points="818,1105.8125,808,1109.8125,818,1113.8125,814,1109.8125" style="stroke:#181818;stroke-width:1.0;"/><line style="stroke:#181818;stroke-width:1.0;stroke-dasharray:2.0,2.0;" x1="812" x2="1305.5" y1="1109.8125" y2="1109.8125"/><text fill="#000000" font-family="sans-serif" font-size="13" lengthAdjust="spacing" textLength="77" x="824" y="1104.9561">organizations</text><polygon fill="#181818" points="234,1168.8672,224,1172.8672,234,1176.8672,230,1172.8672" style="stroke:#181818;stroke-width:1.0;"/><line style="stroke:#181818;stroke-width:1.0;stroke-dasharray:2.0,2.0;" x1="228" x2="551" y1="1172.8672" y2="1172.8672"/><text fill="#000000" font-family="sans-serif" font-size="13" lengthAdjust="spacing" textLength="176" x="240" y="1135.3076">200 OK + RejectVvnResponse</text><text fill="#000000" font-family="sans-serif" font-size="13" lengthAdjust="spacing" textLength="270" x="240" y="1151.6592">{ VvnId, Status: REJECTED, RejectionReason,</text><text fill="#000000" font-family="sans-serif" font-size="13" lengthAdjust="spacing" textLength="160" x="248" y="1168.0107">RejectorInfo, SubmitterInfo }</text><!--SRC=[jLHDKzim4BtxLsnpSgP9OIYNCXDcqZXqqWR24CY9Ysoj4xNsAfNab9JXltTbEL-GGo_S_F7slTttLdBA5GZJQG9TkCEVc3cOpMwYI6HE6sZTQkEWNxc5DigjOPBdAaFJ0c4tpz5I6ASojHJaeDM_7S6WK4YkneJ7GyWChSLYfgnoDzef9X5EQR83JSxeecZe1uTLlf4azHXy2jn9-b-y42Uw58hQTP6VxQ0gmOmhD8tr_12PZ2Cfd4Y5HMWDho0UqJMMsgp3xodRWr7Kc03TosPMk83RoVGUJbOhiYVFIhwScDhMHtfcWuNLr07k3osyH4s9B-QwO7-iP0SC_gxGkhQFGQs4GxOZ6co0Cr4exWsz9zji-bd61iIPy0voOU60j8F302DWWkv-i-Udd-5AcrH9YVH8hGaLQpYUkeLC42pHvDgKu1RAWczFKol2WbqgbRMAvX3czTQRUjuZecTdy41BettB8kK5799Z9TRlloa7rl5-A8EoKU8Kw-5oNP4Cz9Uy3ynyfKZsxPgos6F-BD0mUaNVAYMXrmCbsmnd9EFh1Bc4dJRUcF3UtJ1HLHJ7x3htwR5bNlcW6KKmVVXwFRg_7oPW7UVpJftnPa5S2y27tawpVQpRBy179Y-Ktx-GxH99-fJYNQ4V8OIROcF_rcfRrNkLLyKkcFURYpzko3tRzam4QMqUB9fHVJxyPdXc3-isvo9uqeExuVVXW0VROql6MpAKCIi5bcEi7N2gvCCdocN71uksdc2ybP6xAsDVmO-mTvlOJtqfupri-m0v5IiSB0JDqGRttjgKwR9K3fmHPCN6-5UUwL-lMnXh8K6RkI3rDro04frGXJqUWuVQ8xnx17OhiRzRPwUdCFa17njNEV8xj4j6ex_fPi7XAITIsOjj8fq6pQpDNVX8q7pJPaIvvfegvR4TrgzyIVA-HX9t5-4_]--></g></svg>